<svg data-name="Layer 2" xmlns="http://www.w3.org/2000/svg" viewBox="0 0 80.03 80.03"><path d="M40.01 0C17.91 0 0 17.92 0 40.01s17.91 40.01 40.01 40.01 40.01-17.91 40.01-40.01S62.11 0 40.01 0Zm21.26 62.06c.08.51-.31.97-.83.97-8.64.02-12.55 3.32-20.43 3.32s-11.7-3.28-20.4-3.32a.845.845 0 0 1-.86-.97c.41-2.54 1.04-4.89 2.11-7.07.8-1.63 1.99-2.89 3.7-3.57 3.33-1.31 5.89-2.02 9.04-3.1.7-.24 1.14-.86 1.14-1.6v-1.4c-4.45-.46-6.19-.93-10.17-2.34-.24-.09-.35-.36-.24-.59 2.23-4.38 1.46-15.09 3.5-21.12 1.17-3.45 3.92-6.03 7.43-6.98 1.53-.42 3.05-.61 4.38-.61 1.5 0 3.92.28 4.42 1.66 4.22-.64 6.58 1.36 8.13 5.93 2.04 6.03 1.26 16.74 3.5 21.12.12.23 0 .51-.25.59-4.02 1.39-5.65 1.89-10.15 2.34v1.4c0 .73.45 1.36 1.14 1.6 3.15 1.07 5.7 1.79 9.04 3.1.86.34 1.59.83 2.21 1.44 2.07 2.06 3.13 6.28 3.6 9.2Z" style="fill:#fff" data-name="Layer 1"/></svg>