<svg id="Layer_2" data-name="Layer 2" xmlns="http://www.w3.org/2000/svg" viewBox="0 0 102.93 113.62"><defs><style>.cls-1{fill:#43a756}</style></defs><g id="Layer_1-2" data-name="Layer 1"><path class="cls-1" d="M32.94 82.64c2.24-2.18 4.97-3.27 8.2-3.27 3.61 0 6.63 1.37 9.07 4.12l-3.05 3.46c-1.56-1.93-3.49-2.9-5.79-2.9-1.85 0-3.43.6-4.74 1.81s-1.97 2.83-1.97 4.88.62 3.69 1.86 4.93c1.24 1.24 2.74 1.86 4.5 1.86 2.41 0 4.39-.96 5.92-2.87l3.15 3.24c-2.5 2.81-5.44 4.22-8.83 4.22s-6.18-1.07-8.37-3.21c-2.19-2.14-3.29-4.84-3.29-8.11s1.12-5.99 3.35-8.17m21.67-.01c2.23-2.17 4.96-3.25 8.21-3.25s5.99 1.08 8.22 3.25c2.23 2.17 3.33 4.87 3.33 8.1s-1.11 5.94-3.33 8.11c-2.23 2.17-4.97 3.25-8.22 3.25s-5.98-1.08-8.21-3.25c-2.23-2.17-3.34-4.87-3.34-8.11s1.11-5.92 3.34-8.1m21.1 12.43c.59-.39 1.35-.59 2.25-.59s1.72.29 2.41.87c.7.59 1.05 1.39 1.05 2.4 0 .55-.14 1.08-.42 1.58-.27.49-.77 1.11-1.49 1.86l-1.49 1.56h3.71v2.4h-7.48v-1.94l3-3.08c.59-.59 1.01-1.07 1.25-1.42.23-.33.35-.64.35-.93s-.09-.52-.28-.7c-.18-.19-.41-.28-.71-.28-.56 0-1.11.42-1.63 1.26l-.1.16L74 96.93l.11-.17c.48-.75 1.02-1.32 1.6-1.71m27.22-93.89H48.96v4.63H98.3v99.74h-9.36c1.9-2.86 3.02-6.3 3.02-9.99s-1.09-7.19-3.15-10.2c-1.85-2.7-4.35-4.82-7.29-6.19-.65-4.27-2.76-8.2-6-11.13a18.849 18.849 0 0 0-12.68-4.88c-3.13 0-6.2.77-8.94 2.25a17.639 17.639 0 0 0-9.39-2.68c-8.61 0-15.97 6.21-17.48 14.59-3.4 1.26-6.33 3.45-8.52 6.39-2.43 3.25-3.71 7.13-3.71 11.2s1.23 7.63 3.33 10.66H8.46V38.72H3.84v71.43H22.7c3.07 2.19 6.82 3.47 10.86 3.47h40.31c3.98 0 7.65-1.29 10.64-3.47h18.41V1.16Z"/><path class="cls-1" d="M55.91 27.08h35.1v5.12h-35.1zm0-11.83h35.1v5.12h-35.1zM15.76 38.91h75.26v5.12H15.76zm0 11.83h75.26v5.12H15.76zM5.98 11.53c0-1.31.91-2.24 2.6-2.67V14c-1.85-.63-2.6-1.36-2.6-2.47m6.62 8.73c2.05.68 2.81 1.39 2.81 2.54 0 1.64-1.48 2.32-2.81 2.6v-5.14ZM8.58 34.23h4.02v-3.99c5.88-.78 8-4.4 8-7.64 0-5.2-4.42-6.62-8-7.53V8.75c1.52.23 3.08.82 4.47 1.69l.91.57 1.83-4.43-.61-.41c-1.75-1.19-4.11-1.97-6.6-2.2V0H8.58v4.02C2.85 4.81.79 8.43.79 11.67c0 5.25 4.45 6.69 7.79 7.54v6.29c-2.17-.31-4.25-1.2-5.58-2.42l-.91-.83L0 26.65l.49.45c1.81 1.67 4.85 2.85 8.09 3.17v3.96Zm22.09-22.7c0-1.31.91-2.24 2.6-2.67V14c-1.85-.63-2.6-1.36-2.6-2.47m6.62 8.73c2.05.68 2.81 1.39 2.81 2.54 0 1.64-1.48 2.32-2.81 2.6v-5.14Zm-9.6 2.8-.91-.83-2.09 4.4.49.45c1.81 1.67 4.85 2.85 8.09 3.17v3.96h4.02v-3.99c5.88-.78 8-4.4 8-7.64 0-5.2-4.43-6.62-8-7.53V8.73c1.52.23 3.08.82 4.47 1.69l.91.57 1.83-4.43-.61-.41c-1.75-1.19-4.12-1.97-6.6-2.2V0h-4.02v4.03c-5.73.78-7.79 4.4-7.79 7.64 0 5.25 4.45 6.69 7.79 7.54v6.29c-2.17-.31-4.25-1.2-5.58-2.42m35.15 74.73c1.84 0 3.37-.69 4.64-2.07 1.26-1.36 1.89-3.04 1.89-4.99s-.63-3.65-1.89-5.02c-1.27-1.39-2.81-2.08-4.64-2.08s-3.39.69-4.64 2.08c-1.27 1.38-1.89 3.05-1.89 5.02s.62 3.63 1.89 4.99c1.25 1.38 2.81 2.07 4.64 2.07"/></g></svg>