<?xml version="1.0" encoding="utf-8"?>
<!-- Generator: Adobe Illustrator 27.4.1, SVG Export Plug-In . SVG Version: 6.00 Build 0)  -->
<svg version="1.1" id="Layer_2_00000015333074684260333660000005925585803021450651_"
	 xmlns="http://www.w3.org/2000/svg" xmlns:xlink="http://www.w3.org/1999/xlink" x="0px" y="0px" viewBox="0 0 79.1 131"
	 style="enable-background:new 0 0 79.1 131;" xml:space="preserve">
<style type="text/css">
	.st0{fill:#212121;}
	.st1{fill:#A1BF38;}
	.st2{fill:#704F2B;}
</style>
<g id="Layer_1-2">
	<path class="st0" d="M49.7,54.7c1.7,0.5,3.4,0.6,5.2,0.5c-0.5-0.7-0.8-1.4-1.1-2.1c-0.3,0.5-0.8,0.9-1.2,1.1
		c-0.9,0.4-1.9,0.3-2.7-0.3c-0.6-0.4-1-1.2-1.2-2c-0.6,0.4-1.4,1-1.5,1.5c-0.1,0.5,0.3,0.5,0.9,0.7C48.5,54.4,49.1,54.6,49.7,54.7
		 M46.9,48.1c0.2,0.3,0.5,0.5,0.8,0.6c0.2-0.1,0.5,0.1,0.6,0.3c0.5,0.2,1,0.2,1.5,0.2c0.1,0,0.2-0.1,0.4-0.2s0.2,0,0.3,0.1
		c0,0,0.1,0,0.1,0c0.2,0,0.4,0.3,0.2,0.4c-0.1,0-0.1,0-0.2,0.1c0,0,0,0,0,0.1c-0.5,0.6-1,1-1,1.8c0,0.6,0.2,1.2,0.7,1.7
		c1.1,1,3,0.5,3.4-1c0-0.1,0-0.2,0-0.2c-0.1-0.4,0.5-0.6,0.7-0.2c0.5,1.2,0.9,2.4,1.7,3.4c0.2,0,0.3,0.2,0.3,0.3l0.2,0.3
		c1.4,1.4,4.1,1.7,4.6-0.6c-0.2-0.2,0.1-0.6,0.4-0.5c1.4,0.7,2.8,1.6,4.4,1.5c2,0,3.4-1.4,3.3-3.4c0-3.7-3.5-4.6-6.5-5.1
		c0,0-0.1,0.1-0.1,0.1c0.2,0.3,0.4,0.6,0.4,0.9c0,0.2-0.2,0.2-0.3,0.1c-0.3-0.2-0.5-0.7-0.8-0.9c-0.2-0.3-0.6-0.5-0.8-0.9
		c-0.1-0.2,0.1-0.5,0.3-0.4c0.3,0.1,0.6,0.4,0.8,0.7c0.3-0.8,0.7-1.5,0.9-2.2c0.4-1.3,0-2.1-0.9-3.1c-0.9-0.9-2-1.3-3.3-1
		c-1.3,0.3-2.6,0.9-3,2.2c0.4,0.1,0.8,0.2,1,0.4c0.2,0.2,0,0.5-0.2,0.5c-0.5,0-0.9-0.2-1.4-0.2c-0.5,0-1,0.1-1.5,0.2
		c-0.2,0-0.4-0.2-0.2-0.4c0.3-0.2,0.7-0.3,1.2-0.4c0.2-2.6-2.5-4.6-5-4.1c-2.7,0.6-3.4,3.2-2.5,5.5c0.1,0,0.2,0.1,0.3,0.1
		c0.3,0.1,0.1,0.5-0.2,0.6c-0.8,0-1.6,0.1-1.4,1.2C46.2,47.1,46.5,47.7,46.9,48.1 M44.8,87.2c1.7-0.4,2.8-1.7,4-3.1
		c-1.2-1-2-2.6-1.8-4.1c-0.8,0.7-2,0.9-3,0.7C44.2,82.9,44.5,85,44.8,87.2 M42.8,77.1c-0.2,0.6-0.4,1.2-0.2,1.7c0.2,0.5,0.6,0.8,1,1
		c0.1,0,0.1,0,0.2,0.1C44,80,44.2,80,44.4,80c1.3,0.1,2-0.7,2.9-1.5c0,0,0,0,0,0c-0.2-0.2-0.3-0.4-0.3-0.7c0-0.2,0.3-0.3,0.4-0.2
		c0.2,0.2,0.4,0.6,0.7,0.8c0.3,0.2,0.7,0.3,1,0.4c0.3,0,0.3,0.4,0,0.4c-0.4,0.1-0.9-0.1-1.3-0.3c-0.8,2.2,1.1,5.1,3.4,5.2
		c2.1,0.1,4.7-0.8,4.6-3.2c0-0.4,0.7-0.5,0.8-0.1v0.1c0.8,0.8,2,0.9,3,0.7c0.6-0.1,1.2-0.2,1.5-0.8c0.4-0.7-0.1-1.5-0.3-2.3
		c-0.1-0.3,0.3-0.6,0.5-0.3c0.1,0.1,0.1,0.2,0.2,0.3c2.5,0.2,6.1-0.2,6.2-3.5c0.1-3.5-4-4.1-6.6-3.4c-0.5,0.1-0.6-0.5-0.2-0.7
		c0.1,0,0.2,0,0.2-0.1c0.2-0.9-1.1-2.9-1.4-3.2c-1-0.9-2.5-1.3-3.8-1.3c-2.5-0.1-3.6,1.1-4.5,3.2c-0.1,0.2-0.3,0.2-0.5,0.1
		c0,0,0,0,0,0c0,0,0,0-0.1-0.1c0,0,0,0,0-0.1c-0.1-0.1-0.1-0.2-0.1-0.3c0-0.1,0-0.1,0-0.2c0-1.9-3.3-3.5-4.8-3.4
		c-2.7,0.2-2.1,2.3-2.5,4.1c-0.1,0.3-0.5,0.2-0.6,0c0-0.1-0.1-0.2-0.1-0.3c-2.2-1.1-4.8,1.4-4.9,3.6c-0.2,2.7,2.8,2.9,4.7,3
		C43.3,76.1,43.4,77,42.8,77.1 M37.9,40.3c0.6-1.1,1.3-2.1,2.1-3c-0.1,0-0.2,0-0.3,0c-0.9-0.1-1.8-0.6-2.3-1.3
		c-0.1,1-0.6,1.7-1.4,2.2C36.7,38.7,37.3,39.5,37.9,40.3 M30,63.9c1,1.3,2,2.6,3.4,3.5c0.4,0.3,0.9,0.6,1.4,0.8c1.3,0.6,1-0.2,1-1.4
		c0.1-2.4-0.2-4.9,0.3-7.3c-0.5,0-1-0.1-1.4-0.2c0.7,1.2,0.4,2.8-0.8,3.7c-1.1,0.9-2.9,0.8-4,0c0,0.2-0.1,0.5-0.1,0.7
		C29.8,63.8,29.9,63.8,30,63.9 M35.4,71.8c0.5,0.2,0.4,0.8,0,0.9c0.2,0.6,0.3,1.2,0.4,1.8c1.1,5.7,0.5,12.3,0.3,18
		c-0.2,7-0.9,14-2.5,20.9c0,0,0,0,0,0c2.7,1.1,5.4,1.7,8.3,1.5c1.2,0.2,2.3-0.1,3.1-0.8c1-0.3,1.1-0.9,0.3-1.8
		c-0.1-0.9-0.5-1.9-0.6-2.8c-0.8-5.6-0.5-12.1,0-17.7c0-0.2,0-0.3,0.2-0.4c1.5-0.7,2.9-1.6,4.1-2.7c1-1,1.7-2.2,2.6-3.2
		c-0.3,0-0.6,0-0.8,0c-0.5-0.1-1-0.3-1.4-0.5c-1.3,1.8-2.8,3.3-5.1,3.5c-0.3,0-0.4-0.2-0.5-0.4c-0.3-2.4-0.6-4.8-0.6-7.1
		c-1.4-0.6-1.7-2.2-1.1-3.5c-2.2,0-4.8-0.8-5.2-3c-0.1-0.5-0.1-1.1,0.1-1.8c0.5-2.1,3.4-4.8,5.6-3.6c-0.1-0.9,0.1-1.8,0.6-2.5
		c-0.1-0.1-0.1-0.2-0.1-0.3c0.1-1.8,0.2-3.4-0.1-5.2c-0.2-1.2-0.3-2.3-0.1-3.5c-0.1,0-0.1,0-0.2,0c-0.2,0-0.3-0.2-0.3-0.4
		c0-0.2,0.2-0.5,0.5-0.4c4.6,1.5,9.2,1.8,13.8,0.6c-0.5-0.3-1-0.6-1.4-1.1c-2.9,0.4-6.3,0-8.8-1.6c-1.7-1.1,0.6-2.2,1.8-2.9
		c0-0.6,0.1-1.3,0.4-1.7c-0.4,0-0.8-0.1-1.2-0.2c-1.4,1.2-3.1,2.2-4.9,2.8c-0.2,0.1-0.5-0.1-0.5-0.3c-0.8-3.4-2-7-2.3-10.5
		c-0.2-2.4,2.2-4.1,3.8-5.5c-0.7-0.1-1.3-0.3-1.8-0.5c-0.1,0.9-0.7,1.4-1.4,1.6c-0.7,1.4-1.7,2.6-2.5,4c-0.1,0.2-0.4,0.3-0.6,0.1
		c-0.8-1-1.7-1.9-2.4-2.9c-0.6,0.2-1.3,0.3-2.1,0.2c1.1,1.3,2.5,2.8,3.2,4.3c0.6,1.3-0.2,3.3-0.4,4.8c1.2,0.6,2.5,1.6,2.8,2.9
		c0.2,0.9,0,1.8-0.6,2.2c1.8,0.5,3,2.2,2.4,4.1c0,0.1-0.1,0.2-0.1,0.3c-0.7,1.6-2.2,2.3-3.7,2.4c-0.2,2.2-0.1,4.3-0.1,6.5
		c0,0.8,0.2,2.9-0.7,3.3c-0.8,0.4-2.4-0.9-3-1.3c-1.4-1-2.6-2.2-3.5-3.7c-0.3,0.5-0.7,0.9-1.2,1.2C30,68.6,32.3,70.5,35.4,71.8
		 M28.8,35.1c-0.6-0.1-1.1-0.4-1.4-0.8c-0.2-0.2,0-0.6,0.3-0.5c0.5,0.2,1,0.5,1.6,0.7s1.1,0,1.7,0.1c0.2,0,0.2,0.3,0,0.3
		c-0.4,0.2-0.9,0.3-1.4,0.2c0,0,0,0.1,0,0.1c0,0,0,0.1-0.1,0.2c0.6,1.6,2.5,2.1,4.1,2.1c0.6,0,1.3,0,1.9-0.3
		c1.1-0.5,1.1-1.7,1.2-2.7c0-0.3,0.5-0.4,0.6-0.1c0,0,0,0.1,0,0.2c0,0,0.1,0,0.1,0.1c0.4,0.5,0.8,1,1.5,1.3c0.8,0.4,2.3,0.6,2.5-0.7
		c0-0.1,0.1-0.2,0.1-0.2c-0.1,0-0.2-0.1-0.3-0.1c-0.2-0.1-0.1-0.5,0.2-0.4c1.4,0.4,2.7,0.7,4.1,0.6c0.9-0.1,2.1-0.3,2.5-1.2
		c0.5-1-0.1-1.7-0.7-2.1c-0.3,0.4-0.7,0.6-1.1,0.6c-0.2,0-0.2-0.3-0.1-0.4c0.4-0.3,0.6-0.5,0.8-0.8c0,0,0,0,0,0c0-0.1,0-0.1,0.1-0.2
		c0-0.1,0-0.2,0.1-0.2c0-0.1,0.1-0.3,0.1-0.5c0-0.3,0.5-0.4,0.6-0.1c0,0.2,0,0.4,0,0.6c2.9,0.2,7.8,0.2,8.2-3.2
		c0.5-4.2-4.7-4.7-7.6-5c-0.4,0-0.5-0.6-0.1-0.7c1.7-2.1-1.3-4.5-3.3-4.7c-1.9-0.1-3.4,1.1-4.3,2.7c-0.1,0.1-0.2,0.2-0.3,0.2
		c0,0.1-0.1,0.1-0.1,0.2c0.5,0.1,1,0.3,1.5,0.4c0.3,0.1,0.2,0.5-0.1,0.4c-1-0.2-2.1-0.3-3.1-0.7c-0.3-0.1-0.3-0.6,0.1-0.6
		c0.4,0.1,0.8,0.1,1.2,0.2c0.3-2.6-3-4.4-5.2-4.7c-3.1-0.4-4.2,1.8-4.4,4.5c0,0.3-0.5,0.4-0.5,0.1c0,0,0-0.1,0-0.2
		c-1.5-1-3.1-1.1-4.9-0.6c-1.2,0.3-2.7,0.8-2.8,2.3c0,1.1,0.8,1.9,1.4,2.7c0.2,0.3,0,0.6-0.3,0.6c0,0-0.1,0.1-0.2,0
		c-5.7-0.9-11.8,5-7.1,10.2C18.9,38.6,26.4,39.7,28.8,35.1 M13.1,55.6c0.3,0.2,0.2,0.7,0,0.8c-1,2.2-0.4,4.5,2.1,5.2
		c1.6,0.4,3.2,0.1,4.5-0.8c0.1-0.5,0.8-0.5,0.9,0.1c0.2,2.6,1.4,4.8,4.3,4.9c2.3,0,5-1.5,4.1-4c-0.4,0-0.8,0-1-0.3
		c0-0.1,0-0.2,0.1-0.3c0.2-0.1,0.5,0,0.8,0c0.1-0.1,0.3-0.2,0.4,0c0.2-0.1,0.4-0.2,0.6-0.4c0.3-0.2,0.6,0.1,0.4,0.4
		c-0.1,0.2-0.3,0.3-0.5,0.4c1,1.1,2.2,2,3.7,1c1.4-1,1.1-2.8-0.2-3.8c-0.1-0.1-0.1-0.1-0.1-0.2c0-0.2,0.1-0.3,0.3-0.3
		c1.9,0.6,4.1,1.1,5.6-0.6c0.9-1,0.9-2.5,0-3.4c-0.5-0.5-1.1-0.7-1.7-0.8c0.1,0.3,0.1,0.6,0,1c-0.1,0.3-0.6,0.2-0.6-0.1
		c-0.1-0.8-0.5-1.4-1.1-1.9c-0.3-0.2-0.1-0.7,0.2-0.6c0.5,0.1,0.8,0.4,1.1,0.8c0.2,0,0.3,0,0.5,0c2.6-2.6-2.9-4.9-4.8-5
		c-1.7,0-3.1,0.5-3.6,2.2c-0.2,0.7-0.3,1.1-0.7,1.6c-0.2,0.3-0.8,0.1-0.7-0.3c0.1-0.2,0.1-0.3,0.2-0.5c-0.5-1-3.1-1.8-3.8-1.8
		c-1.9-0.1-3.3,1-3.4,2.9c0,0.2-0.2,0.4-0.3,0.4c-0.2,0-0.5-0.1-0.5-0.4v0c-0.4-3.6-4.8-5.4-7.8-3.5c-1.3,0.8-2.3,2.4-1.9,4
		C10.5,53.8,12,54.8,13.1,55.6 M48.1,35.3c-1,0.7-2.3,1-3.6,0.8v0c-0.7,0.9-1.8,1.9-2.4,2.8c-1.5,2.6-0.7,4.5-0.1,7.1
		c0.2,0.8,0.4,4.2,1,4.6c1.2,0.9,3-0.6,4-1.5c-0.6-0.4-1.1-0.9-1.4-1.6c-0.3-0.7-0.7-1.8-0.2-2.4c0.3-0.4,0.8-0.6,1.2-0.6
		c-1.6-2.5,0.3-5.9,3.2-6.4c2.5-0.5,5.5,1.3,5.8,3.8c1-1.8,4-2.6,5.8-1.8c1.1,0.5,2.5,1.9,2.8,3.1c0.3,1.2-0.4,2.8-1.2,3.9
		c1.9,0.1,4.2,0.7,5.6,1.9c1.2,1.1,1.5,3.4,1.2,4.8c-0.8,4.3-5.8,3.2-8.5,1.6c-0.2,1.7-2.2,2.5-3.8,2c0,0,0,0,0,0
		c-4.6,1.9-9.5,1.4-14.2,0c0.2,2.8,1,5.4,0.5,8.1c0.7-0.5,1.5-0.8,2.5-0.7c1.4,0.1,4.1,1.4,4.8,3.1c1.2-2.3,3.9-2.8,6.6-2.1
		c1.7,0.4,2.8,1.4,3.5,3c0.2,0.5,0.5,1.3,0.5,1.9c3-0.7,6.7,0.7,6.8,4.2c0.2,3.5-3.8,5-6.7,4.3c0.5,1.3,0.1,2.7-1.5,3.1
		c-1.1,0.3-2.9,0.3-3.8-0.6c-0.2,2.1-2.4,3.2-4.5,3.4c-0.3,1.5-1.7,2.9-2.7,3.9c-1.2,1.2-2.6,2.1-4.2,2.8c0.3,3.7,0.2,7.4,0.2,11.1
		c0,3.9,0.8,7.3,1.3,11.1c0,0.2,0,0.4-0.2,0.6c-3.7,2.4-9.7,1.2-13.4-0.4c-0.3-0.1-0.4-0.4-0.3-0.7c-0.2-0.1-0.3-0.3-0.2-0.5
		c1.5-6.8,2.2-13.7,2.4-20.6c0.2-6.5,0.5-13.4-0.4-19.9c-3.1-1-5.8-3.5-7.1-6.5c-0.6,0.3-1.3,0.6-1.9,0.6c-3.5,0.4-5.9-1.7-6.1-5.1
		c-1.7,1.2-4.1,1.3-5.9,0.5c-2.2-1-2.5-3.8-1.3-5.8c-1.6-1-3.2-2.4-3.4-4.4c-0.1-1.9,1.2-3.7,2.8-4.5c2.7-1.5,7.3-0.3,8.3,2.7
		c0.8-1.3,2.4-2,4-1.9c0.7,0,3,0.8,4,1.9c0.3-1.1,0.7-2.1,1.9-2.7c1.5-0.8,3.6-0.5,5.1,0.1c0.3-1.8,0.9-3.6-0.2-5.1
		c-0.8-1.2-1.7-2.4-2.4-3.6c-1.5-0.2-2.9-1-3.4-2.2c-2.7,5-12.1,2.8-14.7-1.4c-3.6-5.8,2.2-11.3,8-10.5c-1.3-1.5-1.9-3.8,0.2-5
		c2-1.1,5-1.4,6.9,0c-0.6-7,10.2-4.5,10.9-0.4c1.3-2.1,4-3,6.4-1.9c1.3,0.6,3.6,3.6,2.4,4.9c3.4,0,8.1,1.6,7.7,5.8
		c-0.4,3.9-5.7,4.3-8.9,3.6C49.2,32.4,49.7,34.1,48.1,35.3"/>
	<path class="st1" d="M12.1,48.2c-1.3,0.8-2.3,2.4-1.9,4c0.3,1.5,1.8,2.5,3,3.4c0.3,0.2,0.2,0.7,0,0.8c-1,2.2-0.4,4.5,2.1,5.2
		c1.6,0.4,3.2,0.1,4.5-0.8c0.1-0.5,0.8-0.5,0.9,0.1c0.2,2.6,1.4,4.8,4.3,4.9c2.3,0,5-1.5,4.1-4c-0.4,0-0.9,0-1-0.3
		c0-0.1,0-0.2,0.1-0.3l-0.1-2.2c-1,0-2-0.7-2.3-1.7c-0.8,1-2.4,1.4-3.6,1.2c-1.6-0.3-2.9-2.3-1.9-3.8c0.1-0.1,0.2-0.2,0.4-0.2
		l-0.3-2.1c-0.2,0-0.5-0.1-0.5-0.4v-0.1C19.4,48.2,15,46.4,12.1,48.2 M26.5,29.4c0.8-0.1,1.5-0.6,1.8-1.2c0.3,1.7,1.6,3.2,3.5,3
		c1.2-0.2,2.7-1.2,2.8-2.4c1.1,0.6,2.5,0.9,3.2-0.1c0.8-1.1-0.1-2.6-1.3-2.9c-0.2-0.1-0.4,0.3-0.1,0.4c0.9,0.3,1.9,2.1,0.5,2.5
		c-0.8,0.2-1.7-0.2-2.5-0.7c-0.1-0.2-0.3-0.5-0.5-0.7c-0.2-0.2-0.5,0-0.3,0.3c0.1,0.1,0.1,0.2,0.2,0.3c-0.1,0.1-0.1,0.3,0,0.4
		c0,0,0.1,0.1,0.1,0.1c0.1,1.4-1.8,2.4-3.2,2c-1.6-0.5-1.5-2.3-1.8-3.6c-0.1-0.2-0.3-0.3-0.5-0.2c-0.1,0-0.3,0-0.3,0.2
		c-0.1,1-0.9,2-2,1.9c-1-0.1-1.3-0.8-1.8-1.4c-0.2-0.2-0.6,0-0.6,0.2C23.8,28.8,25.4,29.5,26.5,29.4 M23.2,25c0.3,0,0.5-0.3,0.3-0.6
		c-0.7-0.7-1.5-1.6-1.5-2.6c0-1.5,1.5-2,2.8-2.3c1.8-0.4,3.4-0.3,4.9,0.6c0,0.1,0,0.1,0,0.2c0.1,0.3,0.5,0.2,0.5-0.1
		c0.1-2.7,1.2-4.9,4.4-4.5c2.2,0.3,5.5,2,5.2,4.7c-0.4-0.1-0.8-0.2-1.2-0.2c-0.3,0-0.4,0.4-0.1,0.5c1,0.3,2.1,0.5,3.1,0.7
		c0.3,0.1,0.4-0.3,0.1-0.4c-0.5-0.1-1-0.3-1.5-0.4c0-0.1,0.1-0.1,0.1-0.2c0.1,0,0.3,0,0.3-0.2c0.9-1.6,2.3-2.8,4.3-2.7
		c2,0.2,5,2.6,3.3,4.7c-0.4,0.1-0.4,0.6,0.1,0.7c2.9,0.2,8.1,0.7,7.6,5c-0.4,3.5-5.3,3.4-8.2,3.2c0-0.2,0-0.4,0-0.6
		c-0.1-0.4-0.6-0.3-0.6,0.1c0,0.2,0,0.3,0,0.5C47,31,46.9,31,47,31.1c0,0,0,0.1,0,0.2c0,0,0,0,0,0c-0.2,0.3-0.4,0.6-0.8,0.8
		c-0.1,0.1-0.1,0.4,0.1,0.4c0.5,0,0.8-0.3,1.1-0.6c0.6,0.5,1.2,1.1,0.7,2.1c-0.4,0.9-1.6,1.2-2.5,1.2c-1.4,0.1-2.8-0.2-4.1-0.6
		c-0.3-0.1-0.4,0.3-0.2,0.4c0.1,0.1,0.2,0.1,0.3,0.1c0,0.1-0.1,0.1-0.1,0.2c-0.2,1.2-1.7,1.1-2.5,0.7c-0.6-0.3-1-0.8-1.5-1.3
		c0,0-0.1-0.1-0.1-0.1c0,0,0-0.1,0-0.2c-0.1-0.4-0.6-0.2-0.6,0.1c-0.1,1-0.1,2.1-1.2,2.7c-0.6,0.3-1.3,0.3-1.9,0.3
		c-1.6-0.1-3.5-0.5-4.1-2.1c0,0,0-0.1,0.1-0.2c0,0,0-0.1,0-0.1c0.5,0,1,0,1.4-0.2c0.1-0.1,0.1-0.3,0-0.3c-0.6-0.1-1.1,0-1.7-0.1
		s-1-0.5-1.6-0.6c-0.3-0.1-0.5,0.3-0.3,0.5c0.3,0.3,0.8,0.6,1.4,0.8c-2.3,4.5-9.9,3.5-12.9,0.1C11.2,30,17.3,24.1,23,25
		C23.1,25,23.1,25,23.2,25"/>
	<path class="st0" d="M20.2,54.5c-1.1,1.5,0.3,3.5,1.9,3.8c1.2,0.2,2.7-0.2,3.6-1.2c0.3,0.9,1.3,1.7,2.3,1.7c0.1,0,0.2,0,0.3,0
		c1.3-0.2,2-2,0.9-2.9c-0.3-0.2-0.6,0.2-0.4,0.4c0.9,0.8,0.1,2-1,1.9c-1.2-0.2-1.3-1.3-1.5-2.2v0c0-0.3-0.5-0.3-0.6,0v0c0,0,0,0,0,0
		c0,0.1,0,0.1,0,0.2c-0.8,2.4-5.7,1.8-4.5-1.2c0.1-0.3-0.1-0.5-0.4-0.5C20.5,54.4,20.3,54.4,20.2,54.5"/>
	<path class="st1" d="M20.4,52.2l0.3,2.1c0.3,0,0.5,0.2,0.4,0.5c-1.2,3,3.8,3.6,4.5,1.2c0-0.1,0-0.1,0-0.2c0,0,0,0,0,0v0
		c0.1-0.3,0.6-0.3,0.6,0v0c0.2,1,0.3,2.1,1.5,2.2c1,0.2,1.9-1.1,1-1.9c-0.3-0.2,0.1-0.6,0.4-0.4c1.2,0.9,0.5,2.7-0.9,2.9
		c-0.1,0-0.2,0-0.3,0l0.1,2.2c0.2-0.1,0.5,0,0.8,0c0.1-0.1,0.3-0.2,0.4,0c0.2-0.1,0.4-0.2,0.6-0.4c0.3-0.2,0.6,0.1,0.4,0.4
		c-0.1,0.2-0.3,0.3-0.5,0.4c1,1.1,2.2,2,3.7,1c1.4-1,1.1-2.8-0.2-3.8c-0.1-0.1-0.1-0.1-0.1-0.2c0-0.2,0.1-0.3,0.3-0.3
		c1.9,0.6,4.1,1.1,5.6-0.6c0.9-1,0.9-2.5,0-3.4c-0.5-0.5-1.1-0.7-1.7-0.8c0.1,0.3,0.1,0.6,0,1c-0.1,0.3-0.6,0.2-0.6-0.1
		c-0.1-0.8-0.5-1.4-1.2-1.9c-0.3-0.2-0.1-0.7,0.2-0.6c0.5,0.1,0.8,0.4,1.1,0.8c0.2,0,0.3,0,0.5,0c2.6-2.6-2.9-4.9-4.8-5
		c-1.7,0-3.1,0.6-3.6,2.2c-0.2,0.7-0.3,1.1-0.7,1.6c-0.2,0.3-0.8,0.1-0.7-0.3c0.1-0.2,0.1-0.3,0.2-0.5c-0.5-1-3.1-1.8-3.8-1.8
		c-1.9-0.1-3.3,1-3.4,2.9C20.7,52,20.6,52.2,20.4,52.2"/>
	<path class="st0" d="M24.4,27.3c-0.2-0.2-0.6-0.1-0.6,0.2c0,1.2,1.6,2,2.7,1.9c0.8-0.1,1.5-0.5,1.9-1.2c0.3,1.7,1.6,3.2,3.5,3
		c1.2-0.2,2.7-1.2,2.8-2.4c1.1,0.6,2.5,0.9,3.2-0.1c0.8-1.1-0.1-2.6-1.3-2.9c-0.2-0.1-0.4,0.3-0.1,0.4c0.9,0.3,1.9,2.1,0.5,2.5
		c-0.8,0.2-1.7-0.2-2.5-0.7c-0.1-0.2-0.3-0.4-0.5-0.7c-0.2-0.2-0.5,0-0.3,0.3c0.1,0.1,0.1,0.2,0.2,0.3c-0.1,0.1-0.1,0.3,0,0.4
		c0,0,0.1,0.1,0.1,0.1c0.1,1.4-1.8,2.4-3.2,2c-1.6-0.5-1.5-2.3-1.8-3.6c-0.1-0.2-0.3-0.3-0.5-0.2c-0.1-0.1-0.3,0-0.3,0.2
		c-0.1,1-0.9,2-2,2C25.2,28.6,24.9,27.9,24.4,27.3"/>
	<path class="st2" d="M29.4,64.5c-0.3,0.5-0.7,0.9-1.2,1.2c1.8,2.9,4.1,4.8,7.2,6c0.5,0.2,0.4,0.8,0,0.9c0.2,0.6,0.3,1.2,0.4,1.8
		l1.2-0.2c-0.1-0.5-0.1-1.1,0.1-1.8c0.5-2.1,3.4-4.8,5.6-3.6c-0.1-0.9,0.1-1.8,0.6-2.5c-0.1-0.1-0.1-0.2-0.1-0.3
		c0.1-1.8,0.2-3.4,0-5.2c-0.2-1.2-0.3-2.3-0.1-3.5c-0.1,0-0.1,0-0.2,0c-0.2,0-0.3-0.2-0.3-0.4l-2-0.1c0,0.1-0.1,0.2-0.1,0.3
		c-0.7,1.6-2.2,2.3-3.7,2.4c-0.2,2.2-0.1,4.3-0.1,6.5c0,0.8,0.2,2.9-0.7,3.3c-0.8,0.4-2.4-0.9-3-1.3C31.6,67.1,30.4,65.9,29.4,64.5"
		/>
	<path class="st2" d="M35.3,38.3c-0.6,0.2-1.4,0.3-2.1,0.2c1.1,1.3,2.5,2.8,3.2,4.3c0.6,1.3-0.2,3.3-0.4,4.8
		c1.2,0.6,2.5,1.6,2.8,2.9c0.2,0.9,0,1.8-0.6,2.2c1.8,0.5,3,2.2,2.4,4.1l2,0c0-0.2,0.2-0.5,0.5-0.4c4.6,1.5,9.2,1.8,13.8,0.6
		c-0.5-0.3-1-0.6-1.4-1.1c-2.9,0.4-6.2,0-8.8-1.6c-1.7-1.1,0.6-2.2,1.8-2.9c0-0.6,0.1-1.3,0.4-1.7c-0.4,0-0.8-0.1-1.2-0.2
		c-1.4,1.2-3.1,2.2-4.9,2.8c-0.2,0.1-0.5-0.1-0.5-0.3c-0.8-3.4-2-7-2.3-10.5c-0.2-2.4,2.2-4.1,3.8-5.5c-0.7-0.1-1.3-0.3-1.8-0.5
		c-0.1,0.9-0.7,1.4-1.4,1.6c-0.7,1.4-1.7,2.6-2.5,4c-0.1,0.2-0.5,0.3-0.6,0.1C36.9,40.3,36,39.3,35.3,38.3 M33.7,113.3
		C33.7,113.3,33.7,113.3,33.7,113.3c2.6,1.1,5.4,1.7,8.3,1.5c1.2,0.2,2.3-0.1,3.1-0.8c1-0.3,1.1-0.9,0.3-1.8
		c-0.1-0.9-0.5-1.9-0.6-2.8c-0.8-5.6-0.5-12.1,0-17.7c0-0.2,0-0.3,0.2-0.4c1.5-0.7,2.9-1.6,4.1-2.7c1-1,1.7-2.2,2.6-3.2
		c-0.3,0-0.6,0-0.8,0c-0.5-0.1-1-0.3-1.4-0.5c-1.3,1.8-2.8,3.3-5.1,3.5c-0.3,0-0.4-0.2-0.5-0.4c-0.3-2.4-0.6-4.8-0.6-7.1
		c-1.4-0.6-1.7-2.2-1.1-3.5c-2.2,0-4.8-0.8-5.2-3l-1.2,0.2c1.1,5.7,0.5,12.3,0.3,18C36,99.4,35.3,106.5,33.7,113.3"/>
	<path class="st1" d="M52.1,73.8c0.9,1.3,2.4,2.4,4,1.7c1.4-0.6,1.7-2.5,0.4-3.3c-0.2-0.2-0.5,0.2-0.2,0.4c0.6,0.4,0.7,1.4,0.2,1.9
		c-0.4,0.5-1.1,0.7-1.7,0.5c-1.2-0.2-1.9-1.2-2.4-2.2c0-0.1-0.1-0.1-0.1-0.1c0-0.1-0.1-0.3-0.1-0.4c-0.1-0.3-0.5-0.1-0.5,0.2
		c0.5,2-2.1,2.2-3.2,1.8c-1.2-0.5-1.6-1.5-2-2.7c-0.1-0.3-0.6-0.2-0.6,0.1c-0.2,2,1.7,3.6,3.6,3.6C50.5,75.3,51.7,74.7,52.1,73.8
		 M42.9,69.5c0,0.1,0.1,0.2,0.1,0.3c0.1,0.2,0.5,0.3,0.6,0c0.4-1.9-0.2-4,2.5-4.1c1.5-0.1,4.8,1.5,4.8,3.4c0,0.1,0,0.1,0,0.2
		c0,0.1,0,0.2,0.1,0.3c0,0,0,0,0,0c0,0,0,0,0.1,0.1c0,0,0,0,0,0c0.2,0.1,0.4,0.1,0.5-0.1c0.9-2.2,2.1-3.3,4.5-3.2
		c1.3,0.1,2.8,0.4,3.8,1.3c0.3,0.3,1.6,2.3,1.4,3.2c-0.1,0-0.2,0-0.2,0.1c-0.4,0.2-0.3,0.8,0.2,0.7c2.6-0.7,6.7-0.1,6.6,3.4
		c-0.1,3.2-3.7,3.7-6.2,3.5c-0.1-0.1-0.1-0.2-0.2-0.3c-0.2-0.2-0.6,0-0.5,0.3c0.2,0.7,0.7,1.5,0.3,2.3c-0.3,0.6-0.9,0.7-1.5,0.8
		c-1.1,0.1-2.2,0-3-0.7v-0.1c-0.1-0.4-0.8-0.3-0.8,0.1c0.1,2.4-2.5,3.4-4.6,3.2c-2.3-0.1-4.2-3-3.4-5.2c0.4,0.2,0.9,0.3,1.3,0.3
		c0.3,0,0.3-0.4,0-0.4c-0.4-0.1-0.7-0.1-1-0.4c-0.3-0.2-0.4-0.5-0.7-0.8c-0.1-0.1-0.4,0-0.4,0.2c0,0.3,0.2,0.5,0.3,0.7c0,0,0,0,0,0
		c-0.9,0.8-1.6,1.5-2.9,1.5c-0.2,0-0.4-0.1-0.6-0.1c0,0-0.1-0.1-0.2-0.1c-0.5-0.2-0.8-0.5-1-1c-0.2-0.6,0-1.2,0.2-1.7
		c0.5-0.1,0.5-1-0.1-1c-2,0-4.9-0.3-4.8-3C38.1,70.9,40.8,68.4,42.9,69.5"/>
	<path class="st0" d="M45.9,71.7c-0.2,2,1.7,3.6,3.6,3.6c1,0,2.2-0.5,2.7-1.4c0.9,1.3,2.4,2.4,4,1.7c1.4-0.6,1.7-2.5,0.4-3.3
		c-0.2-0.2-0.5,0.2-0.2,0.4c0.6,0.4,0.7,1.3,0.2,1.9c-0.4,0.5-1.1,0.6-1.7,0.5c-1.2-0.2-1.9-1.2-2.4-2.2c0-0.1-0.1-0.1-0.1-0.1
		c0-0.1-0.1-0.3-0.1-0.4c-0.1-0.3-0.5-0.1-0.5,0.2c0.5,2-2.1,2.2-3.2,1.8c-1.2-0.5-1.6-1.5-2-2.6C46.4,71.3,45.9,71.4,45.9,71.7"/>
	<path class="st1" d="M47.5,45.3c-0.8,0-1.6,0.1-1.4,1.2c0.1,0.6,0.4,1.2,0.8,1.6c0.2,0.3,0.5,0.5,0.8,0.6c0.2-0.1,0.5,0.1,0.6,0.3
		c0.5,0.2,1,0.2,1.5,0.2c0.1,0,0.2-0.1,0.4-0.2c0.1,0,0.2,0,0.3,0.1c0,0,0.1,0,0.1,0c0.2,0,0.4,0.3,0.2,0.4c-0.1,0-0.1,0-0.2,0.1
		c0,0,0,0,0,0.1c-0.5,0.6-1,1-1,1.8c0,0.6,0.2,1.2,0.7,1.7c1.1,1,3,0.5,3.4-1c0-0.1,0-0.2,0-0.2c-0.1-0.4,0.5-0.6,0.7-0.2
		c0.5,1.2,0.9,2.4,1.7,3.4c0.2,0,0.3,0.2,0.3,0.3l0.2,0.3c1.4,1.4,4.1,1.7,4.6-0.6c-0.2-0.2,0.1-0.6,0.4-0.5
		c1.4,0.7,2.8,1.6,4.4,1.5c2,0,3.4-1.4,3.3-3.4c0-3.7-3.5-4.6-6.5-5.1c0,0-0.1,0.1-0.1,0.1c0.2,0.3,0.4,0.6,0.4,0.9
		c0,0.2-0.2,0.2-0.3,0.1c-0.3-0.2-0.5-0.7-0.8-0.9c-0.2-0.3-0.6-0.5-0.8-0.9c-0.1-0.2,0.1-0.5,0.3-0.4c0.3,0.1,0.6,0.4,0.8,0.7
		c0.3-0.8,0.7-1.5,0.9-2.2c0.4-1.3,0-2.2-0.9-3.1c-0.9-0.9-2-1.3-3.3-1c-1.3,0.3-2.6,0.9-3,2.2c0.4,0,0.8,0.2,1,0.4
		c0.2,0.2,0,0.5-0.2,0.5c-0.5,0-0.9-0.2-1.4-0.2c-0.5,0-1,0.1-1.5,0.2c-0.2,0-0.4-0.2-0.2-0.4c0.3-0.2,0.7-0.4,1.2-0.4
		c0.2-2.6-2.5-4.6-5-4.1c-2.7,0.6-3.4,3.2-2.5,5.5c0.1,0,0.2,0.1,0.3,0.1C48,44.9,47.8,45.3,47.5,45.3"/>
</g>
</svg>
