<?xml version="1.0" encoding="utf-8"?>
<!-- Generator: Adobe Illustrator 27.4.1, SVG Export Plug-In . SVG Version: 6.00 Build 0)  -->
<svg version="1.1" id="Layer_2_00000134932337539967295430000009712332987870939558_"
	 xmlns="http://www.w3.org/2000/svg" xmlns:xlink="http://www.w3.org/1999/xlink" x="0px" y="0px" viewBox="0 0 137.9 152.3"
	 style="enable-background:new 0 0 137.9 152.3;" xml:space="preserve">
<style type="text/css">
	.st0{fill:#43A756;}
</style>
<g id="Layer_1-2">
	<path class="st0" d="M50.4,102c2.2-2.2,5-3.3,8.2-3.3c3.6,0,6.6,1.4,9.1,4.1l-3,3.5c-1.6-1.9-3.5-2.9-5.8-2.9
		c-1.8,0-3.4,0.6-4.7,1.8s-2,2.8-2,4.9s0.6,3.7,1.9,4.9s2.7,1.9,4.5,1.9c2.4,0,4.4-1,5.9-2.9l3.2,3.2c-2.5,2.8-5.4,4.2-8.8,4.2
		s-6.2-1.1-8.4-3.2c-2.2-2.1-3.3-4.8-3.3-8.1S48.2,104.1,50.4,102 M72.1,102c2.2-2.2,5-3.2,8.2-3.2s6,1.1,8.2,3.2s3.3,4.9,3.3,8.1
		s-1.1,5.9-3.3,8.1c-2.2,2.2-5,3.2-8.2,3.2s-6-1.1-8.2-3.2c-2.2-2.2-3.3-4.9-3.3-8.1S69.9,104.1,72.1,102 M93.2,114.4
		c0.6-0.4,1.3-0.6,2.2-0.6s1.7,0.3,2.4,0.9c0.7,0.6,1.1,1.4,1.1,2.4c0,0.6-0.1,1.1-0.4,1.6s-0.8,1.1-1.5,1.9l-1.5,1.6h3.7v2.4h-7.5
		v-1.9l3-3.1c0.6-0.6,1-1.1,1.2-1.4s0.3-0.6,0.3-0.9s-0.1-0.5-0.3-0.7c-0.2-0.2-0.4-0.3-0.7-0.3c-0.6,0-1.1,0.4-1.6,1.3l-0.1,0.2
		l-2.1-1.3l0.1-0.2C92.1,115.3,92.6,114.8,93.2,114.4 M120.4,20.5h-54v4.6h49.3v99.7h-9.4c1.9-2.9,3-6.3,3-10s-1.1-7.2-3.2-10.2
		c-1.8-2.7-4.3-4.8-7.3-6.2c-0.7-4.3-2.8-8.2-6-11.1c-3.5-3.1-8-4.9-12.7-4.9c-3.1,0-6.2,0.8-8.9,2.2C68.6,83,65.3,82,62,82
		c-8.6,0-16,6.2-17.5,14.6c-3.4,1.3-6.3,3.4-8.5,6.4c-2.4,3.2-3.7,7.1-3.7,11.2s1.2,7.6,3.3,10.7h-9.7V58.1h-4.6v71.4h18.9
		c3.1,2.2,6.8,3.5,10.9,3.5h40.3c4,0,7.7-1.3,10.6-3.5h18.4V20.5L120.4,20.5z"/>
	<path class="st0" d="M73.4,46.4h35.1v5.1H73.4V46.4z M73.4,34.6h35.1v5.1H73.4V34.6z M33.3,58.2h75.3v5.1H33.3V58.2z M33.3,70.1
		h75.3v5.1H33.3V70.1z M23.5,30.9c0-1.3,0.9-2.2,2.6-2.7v5.1C24.2,32.7,23.5,32,23.5,30.9 M30.1,39.6c2.1,0.7,2.8,1.4,2.8,2.5
		c0,1.6-1.5,2.3-2.8,2.6C30.1,44.7,30.1,39.6,30.1,39.6z M26.1,53.6h4v-4c5.9-0.8,8-4.4,8-7.6c0-5.2-4.4-6.6-8-7.5v-6.3
		c1.5,0.2,3.1,0.8,4.5,1.7l0.9,0.6l1.8-4.4l-0.6-0.4c-1.8-1.2-4.1-2-6.6-2.2v-4h-4v4c-5.7,0.8-7.8,4.4-7.8,7.7
		c0,5.2,4.4,6.7,7.8,7.5V45c-2.2-0.3-4.2-1.2-5.6-2.4l-0.9-1L17.5,46l0.5,0.5c1.8,1.7,4.9,2.8,8.1,3.2V53.6z M48.2,30.9
		c0-1.3,0.9-2.2,2.6-2.7v5.1C48.9,32.7,48.2,32,48.2,30.9 M54.8,39.6c2,0.7,2.8,1.4,2.8,2.5c0,1.6-1.5,2.3-2.8,2.6
		C54.8,44.7,54.8,39.6,54.8,39.6z M45.2,42.4l-0.9-0.8L42.2,46l0.5,0.5c1.8,1.7,4.8,2.9,8.1,3.2v4h4v-4c5.9-0.8,8-4.4,8-7.6
		c0-5.2-4.4-6.6-8-7.5v-6.3c1.5,0.2,3.1,0.8,4.5,1.7l0.9,0.6l1.8-4.4l-0.6-0.4c-1.8-1.2-4.1-2-6.6-2.2v-3.9h-4v4
		c-5.7,0.8-7.8,4.4-7.8,7.6c0,5.2,4.5,6.7,7.8,7.5v6.3C48.6,44.5,46.5,43.6,45.2,42.4 M80.3,117.1c1.8,0,3.4-0.7,4.6-2.1
		c1.3-1.4,1.9-3,1.9-5s-0.6-3.7-1.9-5c-1.3-1.4-2.8-2.1-4.6-2.1s-3.4,0.7-4.6,2.1c-1.3,1.4-1.9,3.1-1.9,5s0.6,3.6,1.9,5
		C76.9,116.5,78.5,117.1,80.3,117.1"/>
</g>
</svg>
