<svg id="Layer_2" data-name="Layer 2" xmlns="http://www.w3.org/2000/svg" viewBox="0 0 61 100.97"><defs><style>.cls-1{fill:#704f2b}.cls-2{fill:#212121}.cls-3{fill:#a1bf38}</style></defs><g id="Layer_1-2" data-name="Layer 1"><path class="cls-2" d="M40.62 39.74c1.69.48 3.43.6 5.17.45-.45-.66-.82-1.39-1.07-2.12-.27.48-.77.87-1.25 1.08-.91.39-1.92.29-2.73-.28-.63-.44-1.02-1.2-1.15-2-.61.44-1.44 1.02-1.55 1.54-.1.48.29.48.88.73.55.23 1.11.44 1.7.6m-2.8-6.61c.23.27.49.48.77.64.24-.09.49.06.57.27.49.16 1 .22 1.53.2.11-.05.23-.11.37-.15.14-.04.25 0 .33.08.03 0 .06 0 .09-.02.2-.03.38.27.16.38-.06.03-.13.04-.2.06 0 .03-.02.05-.04.08-.47.56-.98.98-1.05 1.77-.05.63.22 1.23.67 1.65 1.11 1.05 3.03.51 3.43-.95-.02-.08-.03-.16-.05-.24-.08-.42.49-.58.65-.17.46 1.2.92 2.39 1.7 3.41.18.03.27.18.29.34l.23.26c1.43 1.41 4.12 1.74 4.64-.6-.15-.25.12-.61.43-.45 1.37.73 2.84 1.57 4.44 1.53 2.02-.05 3.36-1.43 3.35-3.44-.02-3.68-3.47-4.64-6.48-5.14-.03.03-.06.08-.09.11.2.28.4.6.41.94.02.19-.21.23-.33.14-.31-.24-.5-.65-.76-.94-.25-.29-.62-.53-.8-.86-.12-.2.09-.54.34-.44.31.12.56.39.77.66.3-.75.68-1.47.9-2.25.36-1.27-.03-2.15-.94-3.07-.94-.94-1.98-1.34-3.29-1.03-1.31.31-2.6.88-2.96 2.25.39.05.75.17 1 .41.21.19.04.52-.22.53-.46.02-.9-.2-1.37-.23-.51-.02-1 .09-1.5.16-.24.04-.38-.25-.17-.4.29-.2.71-.35 1.16-.44.22-2.56-2.52-4.58-4.96-4.07-2.72.58-3.41 3.21-2.51 5.53.09.03.19.06.28.11.27.15.12.55-.16.56-.77.04-1.63.11-1.42 1.17.11.59.38 1.17.77 1.63m-2.07 39.06c1.73-.43 2.85-1.72 3.97-3.06-1.16-1.02-1.95-2.61-1.81-4.07-.81.66-1.99.94-2.99.74.28 2.13.51 4.26.82 6.4M33.74 62.1c-.2.56-.38 1.17-.2 1.74.16.49.56.83 1.01 1.02.07 0 .12.02.17.06.19.06.4.1.6.11 1.28.05 2.02-.71 2.89-1.49 0 0 .01-.02.02-.02-.16-.2-.29-.43-.31-.69-.02-.22.28-.31.42-.17.25.25.4.56.69.78.3.23.65.32 1.02.37.29.04.29.41 0 .45-.39.05-.87-.08-1.27-.3-.81 2.23 1.1 5.08 3.44 5.21 2.06.12 4.66-.82 4.59-3.24-.02-.43.68-.54.76-.11v.11c.79.77 1.95.87 3.03.74.61-.07 1.21-.23 1.53-.8.41-.73-.08-1.53-.27-2.26-.07-.28.32-.55.52-.3.09.11.14.22.21.33 2.5.23 6.09-.21 6.17-3.46.08-3.55-4.02-4.11-6.61-3.43-.45.12-.6-.52-.19-.68.08-.03.16-.05.23-.08.21-.9-1.1-2.88-1.42-3.2-.95-.95-2.48-1.27-3.75-1.34-2.46-.11-3.6 1.05-4.53 3.2-.1.23-.34.23-.51.12-.01 0-.02-.02-.03-.02a.265.265 0 0 1-.06-.05c-.02-.02-.03-.02-.04-.05a.356.356 0 0 1-.06-.3c.01-.06.03-.12.05-.19-.04-1.91-3.28-3.49-4.81-3.39-2.67.17-2.14 2.26-2.51 4.12-.06.31-.46.23-.56 0-.05-.12-.08-.24-.12-.35-2.17-1.08-4.82 1.38-4.94 3.59-.15 2.71 2.75 2.95 4.75 2.99.61 0 .64.88.1.99m-4.91-36.82c.63-1.06 1.31-2.13 2.13-3.05-.12 0-.23 0-.34-.02-.86-.12-1.75-.62-2.29-1.34-.06 1.02-.61 1.71-1.4 2.15.68.71 1.29 1.49 1.91 2.26m-7.92 23.6c.95 1.35 2.03 2.56 3.38 3.53.43.3.88.62 1.36.85 1.28.62.97-.17 1.04-1.4.14-2.43-.24-4.89.34-7.28-.49-.03-.97-.11-1.42-.25.67 1.17.37 2.85-.77 3.73-1.13.88-2.93.84-4.03-.05-.02.24-.06.48-.14.72.09.02.17.07.24.16m5.42 7.86c.46.16.38.77.02.89.16.58.29 1.17.4 1.77 1.11 5.73.5 12.34.34 18-.2 7.02-.89 14.04-2.5 20.9 0 0-.02.02-.02.03 2.66 1.09 5.43 1.68 8.32 1.5 1.23.19 2.27-.09 3.12-.85.99-.32 1.09-.93.31-1.83-.06-.9-.45-1.93-.57-2.85-.76-5.64-.52-12.06.02-17.72-.04-.16 0-.35.18-.45 1.51-.74 2.89-1.57 4.13-2.72 1.02-.96 1.69-2.2 2.6-3.21-.28 0-.56 0-.82-.04a4.05 4.05 0 0 1-1.43-.52c-1.3 1.75-2.79 3.28-5.07 3.54-.27.02-.43-.23-.45-.45-.31-2.37-.56-4.75-.58-7.14-1.44-.63-1.72-2.15-1.1-3.46-2.24-.04-4.79-.84-5.25-2.95-.12-.52-.1-1.12.08-1.81.55-2.11 3.43-4.78 5.62-3.58-.1-.93.14-1.81.63-2.49a.31.31 0 0 1-.12-.26c.12-1.77.18-3.39-.06-5.16-.16-1.21-.28-2.34-.14-3.53-.06-.02-.11-.03-.16-.05a.398.398 0 0 1-.29-.39c0-.25.2-.49.5-.4 4.62 1.49 9.16 1.83 13.81.63-.5-.27-.96-.64-1.38-1.08-2.91.36-6.26.02-8.8-1.56-1.73-1.07.61-2.24 1.85-2.93-.04-.63.09-1.26.44-1.74-.39-.01-.78-.1-1.15-.23a15 15 0 0 1-4.89 2.77c-.21.07-.48-.09-.52-.3-.75-3.39-2.01-7.01-2.31-10.48-.22-2.36 2.18-4.06 3.84-5.52-.65-.09-1.28-.26-1.85-.48-.07.86-.67 1.37-1.41 1.56-.73 1.38-1.68 2.65-2.45 4-.12.2-.44.27-.61.08-.8-.95-1.67-1.88-2.38-2.91-.63.2-1.34.27-2.07.23 1.13 1.31 2.53 2.79 3.16 4.28.57 1.34-.16 3.33-.44 4.75 1.21.6 2.45 1.58 2.78 2.9.23.88.01 1.75-.6 2.25 1.79.52 3.05 2.17 2.44 4.13-.03.12-.08.23-.12.34-.67 1.6-2.15 2.31-3.72 2.39-.2 2.19-.07 4.34-.1 6.54-.02.75.19 2.89-.7 3.35-.82.42-2.38-.93-2.98-1.34-1.41-1-2.58-2.25-3.55-3.67-.3.47-.71.89-1.19 1.24 1.77 2.85 4.06 4.75 7.2 6.04m-6.67-36.65c-.57-.15-1.09-.41-1.41-.75-.17-.2 0-.58.28-.48.55.19 1.02.51 1.59.65.57.14 1.12.05 1.68.14.16.02.17.26.05.33-.38.2-.88.27-1.39.24 0 .04 0 .09-.02.13-.01.05-.04.11-.06.17.59 1.61 2.5 2.06 4.14 2.13.63.02 1.32.03 1.89-.26 1.06-.53 1.07-1.65 1.16-2.67.03-.33.51-.43.6-.08.01.05.02.1.04.16.05 0 .09.02.13.07.44.52.83 1.02 1.47 1.32.81.38 2.35.55 2.5-.67 0-.09.06-.17.1-.23-.09-.04-.17-.09-.26-.13-.23-.13-.08-.51.18-.44 1.37.38 2.7.73 4.13.59.88-.09 2.08-.34 2.51-1.25.48-1.05-.11-1.65-.74-2.15-.28.36-.67.61-1.12.63-.19 0-.24-.26-.09-.35.37-.26.62-.52.78-.84 0-.01.02-.04.02-.05.02-.06.04-.12.06-.17-.04-.09 0-.19.08-.22.03-.15.06-.3.06-.48 0-.35.54-.44.63-.09.05.19.04.39 0 .59 2.88.2 7.84.23 8.22-3.22.46-4.22-4.71-4.72-7.63-4.96-.42-.04-.45-.59-.06-.68 1.71-2.12-1.33-4.52-3.31-4.68-1.94-.15-3.43 1.06-4.29 2.69-.08.14-.21.18-.34.16-.02.07-.06.14-.08.21.49.14.98.3 1.46.44.27.08.16.47-.12.42-1-.19-2.1-.32-3.07-.67-.27-.09-.26-.59.08-.55.41.05.82.14 1.24.25.3-2.64-3.03-4.38-5.25-4.69-3.14-.44-4.25 1.77-4.39 4.5-.02.29-.48.39-.53.07-.02-.05-.02-.11-.03-.16-1.51-.97-3.14-1.08-4.89-.64-1.21.3-2.72.79-2.75 2.28-.02 1.09.75 1.92 1.45 2.65.25.26.02.58-.26.58-.05.03-.11.05-.18.04-5.68-.93-11.77 5-7.11 10.24 2.98 3.36 10.51 4.41 12.85-.13M4.05 40.63c.31.23.23.66-.02.82-.98 2.21-.4 4.51 2.07 5.15 1.59.41 3.2.12 4.54-.8.1-.47.83-.45.86.09.18 2.64 1.38 4.83 4.31 4.89 2.28.04 4.96-1.52 4.07-4.04-.38.04-.84.03-.99-.35-.04-.09.02-.21.1-.26.23-.14.49-.04.75-.03.08-.13.27-.18.41-.05.23-.07.44-.2.63-.36.28-.23.64.12.41.41-.14.16-.32.3-.52.41.98 1.09 2.2 2.01 3.67.97 1.43-1.02 1.06-2.79-.16-3.79-.07-.06-.09-.13-.07-.2 0-.16.11-.32.3-.26 1.88.59 4.13 1.08 5.64-.61.86-.96.93-2.52-.03-3.43-.49-.45-1.11-.67-1.74-.83.08.31.1.64.05.95-.07.35-.58.24-.6-.09-.06-.85-.48-1.38-1.15-1.86-.29-.2-.12-.67.25-.59.45.11.83.41 1.09.79.16 0 .31 0 .45.03 2.63-2.63-2.86-4.92-4.75-4.98-1.68-.05-3.07.55-3.6 2.24-.2.65-.28 1.09-.67 1.64-.22.31-.84.13-.67-.29.06-.16.12-.32.17-.48-.48-.97-3.1-1.78-3.76-1.82-1.86-.11-3.29 1.02-3.43 2.91-.02.24-.17.38-.34.42-.23.04-.49-.1-.53-.42v-.05c-.4-3.6-4.78-5.4-7.78-3.52-1.29.81-2.28 2.44-1.95 4 .33 1.51 1.84 2.53 3 3.37m35-20.33c-.95.74-2.27.96-3.58.85v.02c-.71.92-1.81 1.85-2.38 2.84-1.53 2.63-.71 4.53-.13 7.06.18.81.44 4.17 1.04 4.63 1.2.91 3.02-.57 4.04-1.48-.6-.38-1.11-.92-1.44-1.59-.34-.66-.66-1.75-.19-2.42.27-.39.75-.59 1.24-.62-1.6-2.52.33-5.87 3.19-6.39 2.46-.45 5.46 1.31 5.83 3.79.96-1.8 4.03-2.65 5.75-1.79 1.09.54 2.5 1.87 2.8 3.1.28 1.19-.38 2.78-1.17 3.86 1.91.1 4.22.66 5.62 1.9 1.18 1.06 1.53 3.38 1.24 4.85-.85 4.27-5.76 3.21-8.5 1.56-.21 1.72-2.17 2.48-3.78 1.99 0 0-.02 0-.03-.02-4.56 1.91-9.51 1.43-14.16.02.16 2.76 1.02 5.36.55 8.14.66-.52 1.53-.8 2.53-.71 1.36.12 4.06 1.45 4.79 3.08 1.22-2.3 3.92-2.85 6.61-2.14 1.66.43 2.85 1.41 3.48 3.01.18.46.5 1.27.48 1.92 2.98-.72 6.68.68 6.82 4.18.15 3.54-3.77 5.03-6.73 4.34.46 1.27.06 2.66-1.5 3.09-1.09.3-2.9.27-3.82-.6-.2 2.06-2.37 3.22-4.45 3.4-.34 1.47-1.67 2.91-2.7 3.92a12.96 12.96 0 0 1-4.2 2.77c.32 3.68.2 7.39.21 11.08.02 3.87.83 7.33 1.35 11.09.03.23-.02.41-.22.55-3.7 2.44-9.66 1.18-13.42-.39-.29-.12-.37-.41-.3-.65a.474.474 0 0 1-.22-.52c1.46-6.81 2.24-13.68 2.43-20.64.19-6.52.48-13.43-.41-19.9-3.08-1.01-5.77-3.51-7.07-6.47-.6.34-1.26.57-1.91.64-3.49.38-5.93-1.74-6.1-5.09-1.67 1.25-4.06 1.33-5.94.45-2.23-1.05-2.53-3.77-1.35-5.75C1.77 40.19.13 38.85 0 36.79c-.11-1.92 1.2-3.67 2.82-4.53 2.72-1.45 7.29-.3 8.33 2.67.75-1.3 2.43-2.03 3.99-1.9.74.05 2.99.85 3.96 1.88.34-1.11.7-2.13 1.92-2.72 1.55-.75 3.57-.55 5.14.06.35-1.77.9-3.58-.2-5.14-.84-1.19-1.66-2.39-2.42-3.64-1.49-.25-2.89-1-3.45-2.2-2.74 5.05-12.06 2.78-14.7-1.44-3.61-5.79 2.24-11.27 8-10.48-1.34-1.48-1.89-3.82.21-4.97 2.04-1.12 4.96-1.35 6.91.02-.6-7 10.18-4.54 10.88-.38 1.31-2.11 4.02-3.04 6.36-1.9 1.28.62 3.6 3.6 2.38 4.91 3.44 0 8.08 1.6 7.65 5.75-.4 3.87-5.71 4.33-8.93 3.64 1.33.97 1.78 2.64.21 3.86"/><path class="cls-3" d="M2.99 33.24c-1.29.81-2.28 2.44-1.95 4 .33 1.51 1.84 2.52 3 3.37.31.23.23.66-.01.82-.98 2.2-.4 4.51 2.07 5.15 1.59.41 3.2.13 4.54-.8.1-.47.83-.45.86.09.18 2.64 1.38 4.83 4.31 4.89 2.27.04 4.96-1.52 4.07-4.04-.38.04-.85.03-.99-.35-.04-.09.02-.21.1-.26l-.11-2.23c-.99 0-1.95-.73-2.28-1.67-.82.96-2.36 1.42-3.55 1.17-1.62-.34-2.94-2.33-1.88-3.84.09-.13.24-.19.39-.19l-.27-2.13c-.23.04-.49-.1-.53-.41v-.06c-.4-3.6-4.78-5.4-7.78-3.52M17.4 14.42c.77-.08 1.45-.55 1.84-1.18.34 1.73 1.56 3.25 3.53 3 1.22-.16 2.67-1.24 2.79-2.44 1.06.56 2.54.9 3.24-.1.8-1.15-.12-2.63-1.34-2.93-.25-.06-.36.31-.11.39.92.26 1.92 2.07.54 2.48-.79.24-1.74-.23-2.46-.66-.1-.23-.26-.45-.5-.66-.17-.16-.47.05-.34.26.07.1.12.2.16.3-.11.11-.14.29 0 .41.04.03.09.06.13.09.14 1.42-1.77 2.43-3.16 1.97-1.56-.52-1.48-2.32-1.83-3.6-.06-.24-.28-.3-.46-.25-.14-.05-.31.02-.33.22-.12 1.02-.87 2.02-1.99 1.95-.96-.06-1.27-.76-1.83-1.37-.2-.22-.59-.05-.58.24.02 1.23 1.6 2 2.68 1.88m-3.27-4.47c.28 0 .51-.32.26-.58-.7-.73-1.47-1.56-1.45-2.65.03-1.49 1.54-1.98 2.75-2.28 1.75-.44 3.38-.33 4.89.64.02.05.02.11.03.16.06.32.52.22.53-.07.14-2.73 1.24-4.93 4.39-4.49 2.22.31 5.55 2.05 5.25 4.69-.41-.11-.83-.2-1.24-.25-.34-.04-.35.45-.08.55.97.34 2.07.48 3.07.66.27.05.39-.34.12-.42-.48-.14-.97-.3-1.46-.44.02-.07.06-.14.08-.21.13.02.27-.02.34-.16.86-1.63 2.35-2.84 4.29-2.69 1.98.16 5.02 2.56 3.31 4.67-.38.09-.36.64.06.68 2.92.24 8.09.74 7.63 4.96-.38 3.46-5.35 3.42-8.22 3.22.03-.19.04-.4 0-.59-.09-.35-.63-.27-.63.09 0 .17-.02.33-.05.48-.09.03-.12.13-.08.22-.01.05-.03.12-.05.17 0 .02-.02.04-.02.05-.16.31-.41.58-.78.84-.14.09-.1.36.09.35.45-.02.84-.27 1.12-.63.63.5 1.21 1.1.74 2.15-.43.91-1.63 1.16-2.51 1.25-1.44.13-2.77-.21-4.13-.59-.26-.07-.42.3-.18.44.09.05.17.09.26.13-.05.06-.09.13-.1.23-.16 1.23-1.69 1.06-2.5.67-.64-.3-1.02-.8-1.47-1.32-.04-.05-.09-.06-.13-.07-.02-.05-.02-.1-.04-.16-.09-.35-.57-.25-.6.08-.09 1.02-.09 2.13-1.16 2.67-.57.29-1.27.27-1.89.26-1.63-.06-3.55-.52-4.14-2.13.02-.05.05-.11.06-.16.02-.05.02-.09.02-.13.52.03 1.02-.04 1.39-.24.12-.07.11-.31-.05-.33-.56-.09-1.11 0-1.68-.14-.57-.14-1.04-.46-1.59-.65-.28-.1-.45.28-.28.48.32.34.84.6 1.41.75-2.34 4.54-9.88 3.49-12.85.13C2.18 15 8.27 9.07 13.95 10c.07 0 .13 0 .18-.04"/><path class="cls-2" d="M11.18 39.55c-1.06 1.51.26 3.5 1.88 3.84 1.19.25 2.73-.21 3.55-1.17.34.94 1.29 1.68 2.28 1.67.1 0 .2-.02.3-.03 1.34-.23 2.01-2.02.85-2.92-.27-.2-.64.16-.38.38.94.77.07 2.01-.98 1.86-1.22-.17-1.29-1.3-1.51-2.24v-.02c0-.3-.52-.35-.58-.05v.02c0 .02-.02.02-.02.04-.02.06-.02.11-.04.16-.77 2.44-5.72 1.83-4.54-1.2.12-.33-.14-.52-.41-.52-.15 0-.3.05-.39.19"/><path class="cls-3" d="m11.3 37.23.27 2.13c.27 0 .54.2.41.52-1.17 3.03 3.77 3.64 4.54 1.2.02-.06.02-.11.04-.16 0-.02.01-.02.02-.04v-.02c.06-.3.57-.26.58.05v.02c.22.95.29 2.07 1.51 2.24 1.05.15 1.92-1.1.98-1.86-.27-.22.11-.58.38-.38 1.16.9.48 2.69-.85 2.92-.1.02-.2.03-.3.03l.11 2.23c.23-.14.49-.04.75-.03.08-.12.27-.18.41-.05.24-.07.44-.2.63-.36.28-.23.64.12.41.41-.14.16-.32.3-.52.41.98 1.09 2.2 2.01 3.67.97 1.43-1.02 1.06-2.79-.16-3.79-.07-.06-.09-.13-.07-.2 0-.16.11-.32.3-.26 1.88.59 4.13 1.08 5.64-.61.86-.96.93-2.52-.03-3.42-.49-.45-1.11-.67-1.74-.83.08.31.1.64.05.95-.07.35-.58.24-.6-.09-.06-.85-.48-1.38-1.15-1.86-.29-.2-.12-.67.25-.59.45.11.83.41 1.09.79.16 0 .3 0 .45.03 2.64-2.64-2.86-4.92-4.75-4.98-1.68-.05-3.07.56-3.6 2.24-.2.65-.28 1.09-.67 1.64-.22.31-.84.13-.67-.29.06-.16.12-.32.17-.48-.48-.97-3.1-1.78-3.76-1.82-1.86-.11-3.29 1.02-3.43 2.91-.02.24-.17.38-.34.41"/><path class="cls-2" d="M15.3 12.29c-.2-.22-.59-.05-.58.24.02 1.23 1.6 2 2.68 1.88.77-.08 1.45-.55 1.85-1.18.34 1.73 1.56 3.25 3.53 3 1.22-.16 2.67-1.24 2.79-2.44 1.06.56 2.54.9 3.24-.1.8-1.15-.12-2.63-1.34-2.93-.25-.06-.36.31-.11.39.92.26 1.92 2.07.54 2.48-.79.23-1.74-.23-2.46-.66-.1-.23-.26-.45-.5-.67-.17-.16-.47.05-.34.26.07.1.12.2.16.31-.11.11-.14.29 0 .41.04.03.09.06.13.09.14 1.42-1.77 2.43-3.16 1.97-1.56-.52-1.48-2.32-1.83-3.6-.06-.24-.28-.3-.46-.25-.14-.05-.31.02-.33.22-.12 1.02-.87 2.02-1.99 1.95-.96-.06-1.27-.76-1.83-1.37"/><path class="cls-1" d="M20.35 49.46c-.3.47-.71.89-1.19 1.24 1.77 2.85 4.06 4.75 7.2 6.04.46.16.38.77.02.89.16.58.29 1.17.4 1.77l1.21-.23c-.12-.52-.1-1.12.08-1.81.55-2.11 3.43-4.78 5.62-3.58-.1-.93.14-1.81.63-2.49a.31.31 0 0 1-.12-.26c.12-1.77.18-3.39-.05-5.16-.16-1.21-.28-2.34-.14-3.53-.06-.02-.11-.03-.16-.05a.398.398 0 0 1-.29-.39l-2.04-.06c-.03.12-.08.23-.12.34-.67 1.59-2.15 2.31-3.72 2.38-.2 2.19-.07 4.34-.1 6.54-.02.75.2 2.89-.7 3.35-.82.42-2.38-.93-2.98-1.34-1.41-1-2.58-2.25-3.55-3.67"/><path class="cls-1" d="M26.26 23.32c-.62.2-1.35.27-2.07.23 1.13 1.3 2.52 2.79 3.16 4.28.57 1.34-.16 3.33-.44 4.75 1.21.6 2.45 1.58 2.78 2.9.23.88.02 1.75-.6 2.25 1.79.52 3.05 2.16 2.44 4.13l2.04.05c0-.25.2-.49.5-.4 4.62 1.48 9.16 1.83 13.81.63-.5-.27-.96-.64-1.38-1.08-2.91.36-6.25.02-8.79-1.56-1.73-1.07.61-2.24 1.85-2.93-.04-.63.09-1.26.44-1.74-.39-.02-.78-.1-1.15-.24a15 15 0 0 1-4.89 2.77c-.21.07-.48-.09-.52-.3-.75-3.39-2.01-7.01-2.31-10.48-.22-2.36 2.18-4.06 3.84-5.52-.65-.09-1.28-.26-1.85-.48-.07.86-.67 1.37-1.41 1.56-.73 1.38-1.68 2.65-2.45 4-.12.2-.45.27-.61.08-.8-.95-1.67-1.88-2.38-2.91M24.62 98.3s-.02.02-.02.03c2.66 1.1 5.43 1.68 8.32 1.5 1.23.19 2.27-.09 3.12-.84.99-.32 1.09-.93.31-1.83-.06-.9-.45-1.93-.57-2.85-.76-5.64-.52-12.06.02-17.72-.04-.16 0-.35.18-.44 1.51-.74 2.89-1.57 4.13-2.72 1.02-.96 1.69-2.2 2.6-3.21-.28 0-.56 0-.82-.04a4.05 4.05 0 0 1-1.43-.52c-1.3 1.75-2.79 3.28-5.07 3.54-.27.02-.43-.23-.45-.45-.31-2.37-.56-4.75-.58-7.14-1.44-.63-1.72-2.15-1.1-3.46-2.24-.04-4.79-.85-5.25-2.96l-1.21.23c1.11 5.73.5 12.35.34 18-.2 7.02-.89 14.04-2.5 20.9"/><path class="cls-3" d="M43.06 58.85c.88 1.32 2.38 2.42 4.01 1.73 1.36-.59 1.7-2.49.41-3.34-.24-.16-.45.22-.23.38.61.44.66 1.35.19 1.91-.41.49-1.11.65-1.72.53-1.17-.22-1.86-1.24-2.41-2.2a.374.374 0 0 0-.14-.14c-.03-.12-.08-.26-.14-.4-.12-.26-.53-.07-.45.2.55 1.95-2.06 2.2-3.2 1.75-1.2-.48-1.61-1.51-1.96-2.65-.11-.34-.57-.25-.6.09-.2 1.98 1.73 3.55 3.59 3.55 1.05 0 2.23-.53 2.66-1.41m-9.2-4.31c.04.12.07.24.12.35.1.23.5.31.56 0 .37-1.86-.16-3.95 2.51-4.12 1.52-.1 4.77 1.48 4.81 3.38-.02.06-.03.12-.05.19-.03.11 0 .21.06.3 0 .02.02.03.04.05.02.02.04.04.06.05 0 0 .02.02.03.02.17.11.41.11.51-.12.93-2.15 2.07-3.31 4.53-3.2 1.27.06 2.81.39 3.75 1.34.31.31 1.63 2.3 1.42 3.2-.07.02-.15.05-.23.08-.41.16-.26.8.19.68 2.59-.68 6.69-.12 6.61 3.43-.08 3.25-3.67 3.7-6.17 3.46-.07-.11-.12-.22-.21-.33-.2-.25-.59.02-.52.3.2.73.68 1.53.27 2.26-.32.57-.92.73-1.53.8-1.07.13-2.24.04-3.03-.73v-.11c-.08-.43-.77-.32-.76.11.07 2.42-2.53 3.36-4.59 3.24-2.34-.13-4.25-2.99-3.44-5.21.41.23.88.35 1.27.3.29-.03.29-.41 0-.45-.37-.05-.72-.14-1.02-.37-.29-.22-.44-.53-.69-.78-.13-.14-.44-.05-.41.17.02.26.15.49.31.69 0 0-.02 0-.02.01-.88.78-1.61 1.54-2.89 1.49-.2 0-.41-.05-.6-.11a.183.183 0 0 0-.17-.06c-.45-.19-.85-.52-1.01-1.02-.19-.57 0-1.18.19-1.74.54-.12.51-.99-.1-.99-2-.04-4.9-.27-4.75-2.99.12-2.21 2.77-4.67 4.94-3.59"/><path class="cls-2" d="M36.81 56.7c-.2 1.98 1.73 3.55 3.59 3.55 1.05 0 2.23-.53 2.66-1.41.88 1.32 2.38 2.42 4.01 1.73 1.36-.59 1.7-2.49.41-3.34-.24-.16-.45.22-.23.38.61.44.66 1.34.19 1.91-.41.48-1.11.65-1.72.53-1.17-.22-1.86-1.23-2.41-2.2a.374.374 0 0 0-.14-.14c-.03-.12-.08-.26-.14-.4-.12-.26-.53-.07-.45.2.55 1.95-2.06 2.2-3.2 1.75-1.2-.48-1.61-1.51-1.96-2.65-.11-.34-.57-.25-.6.09"/><path class="cls-3" d="M38.47 30.33c-.77.04-1.63.11-1.42 1.17.11.59.38 1.17.77 1.63.24.27.49.48.77.64.24-.09.49.06.57.27.48.16 1 .22 1.53.19.11-.05.24-.11.37-.15.14-.04.25 0 .33.08.03 0 .06 0 .09-.02.2-.03.38.27.16.38-.06.03-.13.04-.19.06 0 .03-.02.05-.04.08-.47.56-.99.98-1.05 1.77-.05.62.22 1.23.67 1.65 1.11 1.05 3.03.51 3.43-.95-.02-.08-.03-.16-.05-.23-.08-.42.49-.58.65-.17.46 1.2.91 2.39 1.7 3.41.18.03.27.18.29.34l.23.26c1.43 1.41 4.12 1.74 4.64-.6-.15-.25.12-.61.43-.45 1.37.73 2.84 1.57 4.44 1.53 2.02-.05 3.36-1.43 3.35-3.44-.02-3.68-3.47-4.64-6.48-5.14-.03.03-.06.08-.09.11.2.28.4.6.41.94.02.19-.21.23-.33.14-.31-.24-.5-.65-.76-.94-.25-.29-.62-.53-.81-.86-.12-.2.09-.54.34-.44.31.12.56.39.77.66.3-.75.68-1.47.9-2.25.36-1.28-.03-2.15-.94-3.07-.94-.94-1.98-1.34-3.29-1.03-1.31.3-2.6.88-2.95 2.25.39.05.75.17 1 .41.21.19.04.52-.22.53-.46.02-.9-.2-1.37-.23-.51-.02-1 .09-1.5.16-.24.04-.38-.25-.16-.4.29-.2.71-.35 1.16-.44.22-2.57-2.53-4.58-4.96-4.07-2.72.58-3.41 3.21-2.51 5.53.09.03.19.06.28.11.27.15.12.55-.16.56"/></g></svg>