<svg xmlns="http://www.w3.org/2000/svg" viewBox="0 0 25.6 59.4" style="enable-background:new 0 0 25.6 59.4" xml:space="preserve"><path d="m24.5 14-.8.4-.3.3-1.4 2.4-.6.9-.6 1.1-.9.7-.3.5-.2.6v1.3l.4 1.3.2.4-.2 1.5-2.1 3.3-.2.7v.8l.7 2 1.2 1.4.6.9.5 1.1v.5l-.5.7-.4.4-.5.4-.4.3-.2.4-.1 1.6-.9 2.4-2.7-.6-.8.5-1 2.1-.6 1-1.3 1.6-1 .9-.5.6v1.1l-.4 1.2-1 1.6-3.3 4-.6 1.5-.4.5-.1.2-.3.5-.4.2-1.5-.1-1.4-1.4 3.5-5L5 50.3l1.3-2.9.3-1 .2-.8V45l-.1-.6-.4-1v-1.2l-.1-1.1 1.5-4 .3-.4.4-.3 1.1.7.5.3 1.3.4.3-.2.2-.4.6-2.2v-2.2l1-1.2.5-1 .3-.8.1-.8.1-.8.4-2.7.5-1.9.1-.8-.2-.4-1.1.1 1.9-5.1.1-2.1-.6-2.1-.3-.5-.3-.3-.3-.1-.3-.3-.6-1.2 1.3-1 1.3-.6.4-.3.2-.4v-.3l-.2-.1h-.5l.1-.2v-.2l-.1-.4.9-.7.3-.7.9-.2.1-.3 1-2.5.4-.3.7-.4.3-.4.1-.3V.7l-.2-.2.2-.2.8.4.4-.1 1 .2 1.4.6-.3 1.2-.1 1 .1 4.1.2.5-.2.5-.5.4-.1.3-.1.3.1.4.7.6h1l-.8 3.3z"/></svg>