<svg id="Layer_2" data-name="Layer 2" xmlns="http://www.w3.org/2000/svg" viewBox="0 0 83.71 81.07"><defs><style>.cls-1{fill:#1e6f41}</style></defs><g id="Layer_1-2" data-name="Layer 1"><path class="cls-1" d="M81.43 1.6a6.56 6.56 0 0 0-9.26.68l-34.2 39.57-8.08-9.36a6.56 6.56 0 0 0-9.26-.68c-2.74 2.37-3.05 6.52-.68 9.26l13.06 15.11a6.58 6.58 0 0 0 9.94 0l39.16-45.32a6.573 6.573 0 0 0-.68-9.27Z"/><path class="cls-1" d="M69.98 41.22a3.24 3.24 0 0 0-3.24 3.24c0 8.05-3.13 15.62-8.83 21.31-5.69 5.69-13.25 8.83-21.3 8.83-16.62 0-30.13-13.52-30.13-30.13 0-8.05 3.14-15.62 8.83-21.31 5.69-5.69 13.25-8.83 21.3-8.83 1.67 0 3.34.14 4.98.41 1.76.29 3.43-.9 3.73-2.67.29-1.77-.9-3.43-2.66-3.73-1.98-.33-4.01-.5-6.04-.5-9.78 0-18.98 3.81-25.89 10.72C3.81 25.48 0 34.68 0 44.46c0 20.19 16.42 36.61 36.61 36.61 9.78 0 18.98-3.81 25.88-10.72 6.92-6.91 10.73-16.1 10.73-25.89a3.24 3.24 0 0 0-3.24-3.24Z"/></g></svg>