<svg id="Layer_2" data-name="Layer 2" xmlns="http://www.w3.org/2000/svg" viewBox="0 0 84.91 84.91"><defs><style>.cls-2{fill:none;stroke:#43a756;stroke-miterlimit:10;stroke-width:.5px}.cls-3{fill:#43a756}</style></defs><g id="Layer_1-2" data-name="Layer 1"><path d="M42.45 84.91c23.45 0 42.45-19.01 42.45-42.45S65.9 0 42.45 0 0 19.01 0 42.45 19.01 84.9 42.45 84.9" style="fill:#fff"/><path class="cls-3" d="M66.2 71.74c-1.42 0-2.84-.54-3.92-1.62l-13.2-13.33a.691.691 0 0 1 0-.97c.27-.27.71-.27.97 0l13.2 13.33c1.57 1.57 4.32 1.57 5.89 0 .79-.79 1.22-1.83 1.22-2.95s-.43-2.16-1.22-2.95L55.86 49.97a.682.682 0 0 1 0-.97c.27-.27.71-.27.97 0l13.28 13.28a5.553 5.553 0 0 1 0 7.84 5.527 5.527 0 0 1-3.92 1.62"/><path class="cls-2" d="M66.2 71.74c-1.42 0-2.84-.54-3.92-1.62l-13.2-13.33a.691.691 0 0 1 0-.97c.27-.27.71-.27.97 0l13.2 13.33c1.57 1.57 4.32 1.57 5.89 0 .79-.79 1.22-1.83 1.22-2.95s-.43-2.16-1.22-2.95L55.86 49.97a.682.682 0 0 1 0-.97c.27-.27.71-.27.97 0l13.28 13.28a5.553 5.553 0 0 1 0 7.84 5.527 5.527 0 0 1-3.92 1.62Z"/><path class="cls-3" d="M61.67 69.22c-.18 0-.35-.07-.49-.2a.682.682 0 0 1 0-.97l6.87-6.87c.27-.27.71-.27.97 0 .27.27.27.7 0 .97l-6.87 6.87c-.14.13-.31.2-.49.2"/><path class="cls-2" d="M61.67 69.22c-.18 0-.35-.07-.49-.2a.682.682 0 0 1 0-.97l6.87-6.87c.27-.27.71-.27.97 0 .27.27.27.7 0 .97l-6.87 6.87c-.14.13-.31.2-.49.2Z"/><path class="cls-3" d="M36.95 14.54c-12.36 0-22.41 10.06-22.41 22.41s10.05 22.41 22.41 22.41 22.41-10.05 22.41-22.41-10.05-22.41-22.41-22.41m0 46.2c-13.12 0-23.79-10.67-23.79-23.79s10.67-23.79 23.79-23.79 23.79 10.67 23.79 23.79-10.67 23.79-23.79 23.79"/><path class="cls-2" d="M36.95 14.54c-12.36 0-22.41 10.06-22.41 22.41s10.05 22.41 22.41 22.41 22.41-10.05 22.41-22.41-10.05-22.41-22.41-22.41Zm0 46.2c-13.12 0-23.79-10.67-23.79-23.79s10.67-23.79 23.79-23.79 23.79 10.67 23.79 23.79-10.67 23.79-23.79 23.79Z"/><path class="cls-3" d="M36.95 22.24c-8.11 0-14.71 6.6-14.71 14.71s6.6 14.71 14.71 14.71 14.71-6.6 14.71-14.71-6.6-14.71-14.71-14.71m0 30.8c-8.87 0-16.09-7.22-16.09-16.09s7.22-16.09 16.09-16.09 16.09 7.22 16.09 16.09-7.22 16.09-16.09 16.09"/><path class="cls-2" d="M36.95 22.24c-8.11 0-14.71 6.6-14.71 14.71s6.6 14.71 14.71 14.71 14.71-6.6 14.71-14.71-6.6-14.71-14.71-14.71Zm0 30.8c-8.87 0-16.09-7.22-16.09-16.09s7.22-16.09 16.09-16.09 16.09 7.22 16.09 16.09-7.22 16.09-16.09 16.09Z"/><path class="cls-3" d="M27.05 37.64c-.38 0-.69-.31-.69-.69 0-5.84 4.75-10.59 10.59-10.59.38 0 .69.31.69.69s-.31.69-.69.69c-5.08 0-9.21 4.13-9.21 9.21 0 .38-.31.69-.69.69"/><path class="cls-2" d="M27.05 37.64c-.38 0-.69-.31-.69-.69 0-5.84 4.75-10.59 10.59-10.59.38 0 .69.31.69.69s-.31.69-.69.69c-5.08 0-9.21 4.13-9.21 9.21 0 .38-.31.69-.69.69Z"/></g></svg>