<svg data-name="Layer 2" xmlns="http://www.w3.org/2000/svg" viewBox="0 0 93.66 94.07"><path d="M46.83 33.89c2.45 0 4.44 2 4.44 4.46s-1.99 4.46-4.44 4.46-4.44-2-4.44-4.46 1.99-4.46 4.44-4.46m0 11.59c3.91 0 7.1-3.2 7.1-7.13s-3.18-7.13-7.1-7.13-7.1 3.2-7.1 7.13 3.18 7.13 7.1 7.13M73.05 2.67c4.27 0 7.74 3.49 7.74 7.77s-3.47 7.77-7.74 7.77-7.74-3.49-7.74-7.77 3.47-7.77 7.74-7.77m0 18.21c5.73 0 10.39-4.68 10.39-10.44S78.79 0 73.05 0 62.66 4.68 62.66 10.44s4.66 10.44 10.39 10.44M83.26 91.4h-8.88V74.5h8.88v16.9ZM62.84 74.5h8.88v16.9h-8.88V74.5ZM48.15 91.4V74.17c0-.74-.59-1.33-1.33-1.33s-1.33.6-1.33 1.33V91.4H40.8V54.87c0-.3-.1-.58-.28-.82l-12.4-16.01c-.64-.83-.49-2.03.33-2.67.82-.64 2.02-.49 2.66.33l11.64 15.03c.25.32.64.51 1.05.51h6.03c.41 0 .8-.19 1.05-.51L62.53 35.7c.64-.83 1.83-.98 2.66-.33.83.64.97 1.84.33 2.67l-12.4 16.01c-.18.23-.28.52-.28.82v36.52h-4.69Zm38.61-67.26H59.34c-3.8 0-6.9 3.11-6.9 6.93 0 .74.59 1.33 1.33 1.33s1.33-.6 1.33-1.33c0-2.35 1.9-4.26 4.24-4.26h27.42c2.34 0 4.24 1.91 4.24 4.26V57.8c0 1.7-1 3.18-2.46 3.86l-2.63-25.85c-.07-.73-.72-1.27-1.46-1.19-.73.08-1.26.73-1.18 1.46l3.64 35.76H59.19l1.56-15.35c.07-.73-.46-1.39-1.18-1.46a1.34 1.34 0 0 0-1.46 1.19l-.55 5.44c-.9-.42-1.64-1.15-2.07-2.08v-4.24l12.12-15.65a4.586 4.586 0 0 0-.8-6.41 4.513 4.513 0 0 0-3.36-.93c-1.2.15-2.28.77-3.02 1.73L49.18 48.6h-4.73L33.2 34.08a4.532 4.532 0 0 0-6.38-.8c-1.98 1.54-2.34 4.42-.8 6.41l12.12 15.65v4.24c-.69 1.49-2.21 2.48-3.85 2.48h-.84v-5.71c0-.74-.59-1.33-1.33-1.33s-1.33.6-1.33 1.33V91.4h-8.88V63.57c0-.74-.59-1.33-1.33-1.33s-1.33.6-1.33 1.33V91.4h-8.88V35.94c0-.74-.59-1.33-1.33-1.33s-1.33.6-1.33 1.33v26.12h-.84c-2.34 0-4.24-1.91-4.24-4.26V31.07c0-2.35 1.9-4.26 4.24-4.26h27.42c2.34 0 4.24 1.91 4.24 4.26a1.33 1.33 0 1 0 2.66 0c0-3.82-3.09-6.93-6.9-6.93H6.9c-3.8 0-6.9 3.11-6.9 6.93V57.8c0 3.82 3.09 6.93 6.9 6.93h.84v28.01c0 .74.59 1.33 1.33 1.33h23.07c.73 0 1.33-.6 1.33-1.33V64.73h.84c1.41 0 2.74-.42 3.85-1.17v29.19c0 .74.59 1.33 1.33 1.33h14.68c.73 0 1.33-.6 1.33-1.33V63.56c.55.37 1.15.66 1.79.86l-.88 8.63c-.04.38.08.75.34 1.03.25.28.61.44.98.44h2.46v18.23c0 .74.59 1.33 1.33 1.33h23.07c.73 0 1.33-.6 1.33-1.33V74.52h2.46c.38 0 .73-.16.99-.44.25-.28.37-.65.33-1.03l-.88-8.63a6.916 6.916 0 0 0 4.83-6.61V31.08c0-3.82-3.09-6.93-6.9-6.93M20.61 2.67c4.27 0 7.74 3.49 7.74 7.77s-3.47 7.77-7.74 7.77-7.74-3.49-7.74-7.77 3.47-7.77 7.74-7.77m0 18.21C26.34 20.88 31 16.2 31 10.44S26.34 0 20.61 0 10.22 4.68 10.22 10.44s4.66 10.44 10.39 10.44" style="fill:#4087c7" data-name="Layer 1"/></svg>