<svg data-name="Layer 2" xmlns="http://www.w3.org/2000/svg" viewBox="0 0 100.36 85.8"><path fill="#4087c7" class="cifra-icon-img" d="M95.51 51.8a1.62 1.62 0 1 1 0-3.24 1.62 1.62 0 0 1 0 3.24m-3.78-21.45 1.96-1.97 2.71 2.44c.46.42.73 1.01.73 1.63 0 .57-.22 1.11-.62 1.52l-.57.59-4.21-4.22Zm-.56 9.16-4.3-4.3 2.57-2.57 4.25 4.25-2.52 2.61Zm-4.77 4.94-4.38-4.38 2.57-2.57 4.33 4.34-2.52 2.61Zm-3.83 23.54c-.89 0-1.62-.73-1.62-1.62s.73-1.62 1.62-1.62a1.62 1.62 0 1 1 0 3.24m-2.09-19.76-2.29 2.29 1.19 1.19-2.52 2.61-4.54-4.54 2.57-2.57 1.43 1.42 2.29-2.29-1.42-1.42 2.57-2.57 4.42 4.42-2.52 2.61-1.15-1.15Zm-8.39 11.03-4.63-4.63 2.57-2.57 4.58 4.58-2.52 2.61Zm-2.46 23.3c-.89 0-1.62-.73-1.62-1.62s.73-1.62 1.62-1.62 1.62.73 1.62 1.62-.73 1.62-1.62 1.62M67.32 64.2l-4.71-4.71 2.57-2.57 4.67 4.67-2.53 2.61Zm-4.77 4.94-4.79-4.79 2.57-2.57 4.75 4.75-2.52 2.61Zm-4.77 4.94-4.87-4.87 2.57-2.57 4.83 4.83-2.52 2.61Zm-5.99 6.19c-.82.85-2.34.85-3.16 0l-3.74-3.87 4.91-4.91.4.4.4-.4 4.91 4.91-3.74 3.87Zm-11.67-8.81 4.83-4.83 2.57 2.57-4.87 4.87-2.52-2.61Zm-4.77-4.94 4.75-4.75 2.57 2.57-4.79 4.79-2.52-2.61Zm-4.78-4.94 4.67-4.67 2.57 2.57-4.71 4.71-2.52-2.61Zm.21 20.97c-.89 0-1.62-.73-1.62-1.62s.73-1.62 1.62-1.62 1.62.73 1.62 1.62-.73 1.62-1.62 1.62m-2.46-23.3-2.52-2.61 4.58-4.58 2.57 2.57-4.63 4.63Zm-7.3-7.55 4.5-4.5 2.57 2.57-4.54 4.54-2.52-2.61Zm-2.25-2.33-2.52-2.61 4.42-4.42 2.57 2.57-4.46 4.46Zm-.94 18.61c-.89 0-1.62-.73-1.62-1.62s.73-1.62 1.62-1.62a1.62 1.62 0 1 1 0 3.24M14 44.44l-2.52-2.61 4.33-4.34 2.57 2.57L14 44.44Zm-7.3-7.55 4.25-4.25 2.57 2.57-4.3 4.3L6.7 36.9Zm-2.25-2.33-.57-.59c-.4-.41-.61-.95-.61-1.52 0-.62.26-1.21.72-1.63l2.71-2.44 1.97 1.97-4.21 4.21Zm.43 17.24a1.62 1.62 0 1 1 0-3.24 1.62 1.62 0 0 1 0 3.24m7.78-28.78L50.2 60.56l37.55-37.54 3.55 3.2-41.1 41.1-41.12-41.1 3.56-3.2Zm10.03-.36v5.8l-5.81-5.8h5.81Zm-3.21-5.78 2.54 2.54h-5.36l2.82-2.54Zm6.45 12.25v-5.81l5.81 5.81h-.95v3.24h1.62v5.81l-5.81-5.81h.95v-3.24h-1.62Zm9.71 9.71v-5.81l5.81 5.81h-5.81Zm6.48 3.24v5.81l-5.81-5.81h5.81Zm12.28 9.71-4.19 4.19-4.19-4.19h8.37Zm-9.04-3.24v-5.81l4.86 4.86 4.86-4.86v5.81h-9.71Zm18.76-6.48-5.81 5.81v-5.81h5.81Zm-5.14-3.24 5.81-5.81v5.81h-5.81Zm14.85-6.47-5.81 5.81v-5.81h5.81Zm-5.13-3.24 5.8-5.81v5.81h-5.8ZM27.3 9.82a24.98 24.98 0 0 0 3.69 5.05c3.36 3.56 9.41 7.79 19.18 7.79S66 18.42 69.36 14.87c1.72-1.82 2.9-3.62 3.69-5.05l5.44 4.9-28.32 28.32-28.31-28.32 5.44-4.9Zm6.89-6.2c.26 1.34.8 2.61 1.53 3.79l-3.23 4.31a21.221 21.221 0 0 1-2.72-4.12l4.42-3.98Zm3.65 6.36c1.05.99 2.28 1.84 3.64 2.54l-1.87 4.68c-1.91-.9-3.51-1.99-4.83-3.14l3.06-4.08Zm6.65 3.76c1.29.39 2.66.65 4.08.76v4.84c-2.19-.12-4.17-.46-5.92-.99l1.85-4.61Zm7.31.76c1.42-.11 2.79-.37 4.08-.76l1.85 4.61c-1.76.53-3.73.87-5.92.99V14.5Zm10.72-4.52 3.06 4.08c-1.32 1.16-2.93 2.24-4.83 3.14l-1.87-4.68c1.37-.7 2.6-1.56 3.64-2.54m3.65-6.36 4.42 3.98c-.54 1.08-1.4 2.56-2.72 4.12l-3.23-4.31c.74-1.17 1.27-2.44 1.53-3.79M83.5 22.66l-5.81 5.8v-5.8h5.81Zm.23-3.24h-5.36l2.54-2.54 2.82 2.54Zm13.39 26.2v-7.63l1.71-1.77a5.43 5.43 0 0 0 1.53-3.77c0-1.54-.65-3.01-1.8-4.03L66.99 0h-3.86v1.62c0 5.36-5.81 9.71-12.95 9.71S37.23 6.97 37.23 1.62V0h-3.86L1.8 28.42A5.45 5.45 0 0 0 0 32.45c0 1.42.54 2.75 1.52 3.77l1.71 1.77v7.63c-1.88.67-3.24 2.45-3.24 4.56 0 2.68 2.18 4.86 4.86 4.86s4.86-2.18 4.86-4.86c0-2.11-1.36-3.89-3.24-4.56v-4.28l9.71 10.05v10.42c-1.88.67-3.24 2.45-3.24 4.56 0 2.68 2.18 4.86 4.86 4.86s4.86-2.18 4.86-4.86c0-2.11-1.36-3.89-3.24-4.56v-7.07l9.71 10.05v11.59c-1.88.67-3.24 2.45-3.24 4.56 0 2.68 2.18 4.86 4.86 4.86s4.86-2.18 4.86-4.86c0-2.11-1.36-3.89-3.24-4.56v-8.24l13.9 14.38c1.02 1.05 2.44 1.66 3.91 1.66s2.89-.6 3.91-1.66l13.9-14.38v8.24c-1.88.67-3.24 2.45-3.24 4.56 0 2.68 2.18 4.86 4.86 4.86s4.86-2.18 4.86-4.86c0-2.11-1.36-3.89-3.24-4.56V64.79l9.71-10.05v7.07c-1.88.67-3.24 2.45-3.24 4.56 0 2.68 2.18 4.86 4.86 4.86s4.86-2.18 4.86-4.86c0-2.11-1.36-3.89-3.24-4.56V51.39l9.71-10.05v4.28c-1.88.67-3.24 2.45-3.24 4.56 0 2.68 2.18 4.86 4.86 4.86s4.86-2.18 4.86-4.86c0-2.11-1.36-3.89-3.24-4.56" data-name="Layer 1"/></svg>