<svg id="Layer_2" data-name="Layer 2" xmlns="http://www.w3.org/2000/svg" viewBox="0 0 99.28 117.1"><defs><style>.cls-1{fill:#4087c7}</style></defs><g id="Layer_1-2" data-name="Layer 1"><path class="cls-1" d="M4.23 112.87h90.82V93.34H4.23v19.53Zm92.93 4.23H2.12c-1.17 0-2.12-.95-2.12-2.12V91.22c0-1.17.95-2.12 2.12-2.12h95.05c1.17 0 2.12.95 2.12 2.12v23.76c0 1.17-.95 2.12-2.12 2.12"/><path class="cls-1" d="M97.16 93.34c-.99 0-1.87-.69-2.07-1.7l-5.6-28H9.79l-5.6 28A2.103 2.103 0 0 1 1.7 93.3a2.11 2.11 0 0 1-1.66-2.49l5.94-29.7c.2-.99 1.07-1.7 2.07-1.7h83.17c1.01 0 1.88.71 2.07 1.7l5.94 29.7a2.11 2.11 0 0 1-2.08 2.53M57.7 17.82h31.41V4.23H57.7v13.59Zm33.53 4.23H55.59c-1.17 0-2.12-.95-2.12-2.12V2.12c0-1.17.95-2.12 2.12-2.12h35.64c1.17 0 2.12.95 2.12 2.12v17.82c0 1.17-.95 2.12-2.12 2.12"/><path class="cls-1" d="M73.4 33.93c-1.17 0-2.12-.95-2.12-2.12V19.93a2.121 2.121 0 0 1 4.24 0v11.88c0 1.17-.95 2.12-2.12 2.12m-11.88 71.29H37.76a2.121 2.121 0 0 1 0-4.24h23.76a2.121 2.121 0 0 1 0 4.24M57.7 49.51h19.53v-5.69H57.7v5.69Zm21.65 4.23H55.59c-1.17 0-2.12-.95-2.12-2.12v-9.93c0-1.17.95-2.12 2.12-2.12h23.76c1.17 0 2.12.95 2.12 2.12v9.93c0 1.17-.95 2.12-2.12 2.12m-35.65.01H19.94a2.121 2.121 0 0 1 0-4.24H43.7a2.121 2.121 0 0 1 0 4.24m-21.11-31.2H8.06c-1.13 0-2.07-.89-2.11-2.02-.24-5.33.71-8.91 2.98-11.26 3.34-3.46 8.6-3.41 15.27-3.35.93 0 1.87 0 2.9.02 1.17 0 2.12.95 2.12 2.11s-.98 2.1-2.23 2.12c-.97 0-1.91 0-2.83-.02-5.65-.06-10.12-.1-12.19 2.05-1.14 1.18-1.74 3.19-1.82 6.11h12.44c1.17 0 2.12.95 2.12 2.12s-.95 2.11-2.12 2.11m1.06 50.9h-5.94a2.121 2.121 0 0 1 0-4.24h5.94a2.121 2.121 0 0 1 0 4.24m19.31 0h-5.94a2.121 2.121 0 0 1 0-4.24h5.94a2.121 2.121 0 0 1 0 4.24m19.31 0h-5.94a2.121 2.121 0 0 1 0-4.24h5.94a2.121 2.121 0 0 1 0 4.24m19.3 0h-5.94a2.121 2.121 0 0 1 0-4.24h5.94a2.121 2.121 0 0 1 0 4.24M23.65 83.53h-5.94a2.121 2.121 0 0 1 0-4.24h5.94a2.121 2.121 0 0 1 0 4.24m19.31 0h-5.94a2.121 2.121 0 0 1 0-4.24h5.94a2.121 2.121 0 0 1 0 4.24m19.31 0h-5.94a2.121 2.121 0 0 1 0-4.24h5.94a2.121 2.121 0 0 1 0 4.24m19.3 0h-5.94a2.121 2.121 0 0 1 0-4.24h5.94a2.121 2.121 0 0 1 0 4.24"/><path class="cls-1" d="M24.71 49.51H38.5V13.84c0-2.02-1.65-3.67-3.67-3.67H23.22c.75 2.17 1.49 5.42 1.49 9.76v29.58Zm15.9 4.23H22.59c-1.17 0-2.12-.95-2.12-2.12V19.93c0-7.17-2.26-10.66-2.29-10.69-.43-.65-.48-1.49-.11-2.18.37-.68 1.08-1.12 1.86-1.12h14.89c4.36 0 7.9 3.55 7.9 7.9v37.79c0 1.17-.95 2.12-2.11 2.12"/><path class="cls-1" d="M91.22 63.64c-1.17 0-2.12-.95-2.12-2.12V33.93H40.6a2.121 2.121 0 0 1 0-4.24h50.61c1.17 0 2.12.95 2.12 2.12v29.7c0 1.17-.95 2.12-2.12 2.12m-83.15.01c-1.17 0-2.12-.95-2.12-2.12v-29.7c0-1.17.95-2.12 2.12-2.12h14.53a2.121 2.121 0 0 1 0 4.24H10.17v27.59c0 1.17-.95 2.12-2.12 2.12"/></g></svg>