<svg id="Layer_2" data-name="Layer 2" xmlns="http://www.w3.org/2000/svg" viewBox="0 0 84.91 84.91"><defs><style>.cls-2{fill:#2566af}</style></defs><g id="Layer_1-2" data-name="Layer 1"><path d="M42.45 84.91c23.45 0 42.45-19.01 42.45-42.45S65.9 0 42.45 0 0 19.01 0 42.45 19.01 84.9 42.45 84.9" style="fill:#fff"/><path class="cls-2" d="M65.66 49.46c-.4 0-.73.33-.73.73v.24H19.97v-.24c0-.4-.32-.73-.72-.73s-.73.33-.73.73v.97c0 .4.32.73.73.73h46.42c.4 0 .72-.32.72-.73v-.97c0-.4-.32-.73-.72-.73m-.01 4.84c-.4 0-.73.33-.73.73v.24H19.97v-.24c0-.4-.32-.73-.72-.73s-.73.33-.73.73V56c0 .4.32.72.73.72h46.42c.4 0 .72-.32.72-.72v-.97c0-.4-.32-.73-.72-.73m-.01 4.83c-.4 0-.73.32-.73.73v.24H19.97v-.24a.726.726 0 1 0-1.45 0v.97c0 .4.32.73.73.73h46.42c.4 0 .72-.32.72-.73v-.97c0-.4-.32-.73-.72-.73m-.01 4.84c-.4 0-.73.33-.73.73v.24H19.97v-.24c0-.4-.32-.73-.72-.73s-.73.33-.73.73v.97c0 .4.32.73.73.73h46.42c.4 0 .72-.33.72-.73v-.97c0-.4-.32-.73-.72-.73m-.73-18.37H19.97V19.97h44.97V45.6Zm.73-27.08H19.25c-.4 0-.73.32-.73.73v27.08c0 .4.32.72.73.72h46.42c.4 0 .72-.32.72-.72V19.25c0-.4-.32-.73-.72-.73"/><path class="cls-2" d="M24.32 27.15a3.64 3.64 0 0 0 2.83-2.83h30.61a3.64 3.64 0 0 0 2.83 2.83v11.27a3.64 3.64 0 0 0-2.83 2.83H27.15a3.64 3.64 0 0 0-2.83-2.83V27.15Zm-.72 12.64c1.2 0 2.18.98 2.18 2.18 0 .4.32.72.73.72h31.91c.4 0 .73-.32.73-.72 0-1.2.98-2.18 2.18-2.18.4 0 .73-.32.73-.73V26.49c0-.4-.32-.72-.73-.72-1.2 0-2.18-.98-2.18-2.18 0-.4-.32-.73-.73-.73H26.51c-.4 0-.73.32-.73.73 0 1.2-.98 2.18-2.18 2.18-.4 0-.73.32-.73.72v12.57c0 .4.33.73.73.73"/><path class="cls-2" d="M42.45 33.51c1.32 0 2 .59 2 1.74 0 .96-.89 1.74-1.99 1.74-.83 0-1.58-.46-1.87-1.14a.728.728 0 0 0-.95-.39c-.37.15-.54.58-.39.95.43 1.01 1.36 1.73 2.47 1.95v.71c0 .4.32.73.73.73s.72-.33.72-.73v-.7c1.55-.31 2.72-1.59 2.72-3.12s-.91-3.19-3.45-3.19c-1.32 0-1.99-.58-1.99-1.74 0-.96.89-1.74 1.99-1.74.83 0 1.58.46 1.87 1.14.15.37.58.54.95.39.37-.15.54-.58.39-.95-.43-1.02-1.36-1.73-2.48-1.95v-.71c0-.4-.32-.72-.72-.72s-.73.32-.73.72v.71c-1.55.31-2.71 1.59-2.71 3.12s.9 3.19 3.44 3.19m-10.16-2.43c.93 0 1.69.76 1.69 1.69s-.76 1.69-1.69 1.69-1.69-.76-1.69-1.69.76-1.69 1.69-1.69m0 4.83c1.73 0 3.14-1.41 3.14-3.14s-1.41-3.14-3.14-3.14-3.14 1.41-3.14 3.14 1.41 3.14 3.14 3.14m20.31-4.83c.93 0 1.69.76 1.69 1.69s-.76 1.69-1.69 1.69-1.69-.76-1.69-1.69.76-1.69 1.69-1.69m0 4.83c1.73 0 3.14-1.41 3.14-3.14s-1.41-3.14-3.14-3.14-3.14 1.41-3.14 3.14 1.41 3.14 3.14 3.14"/></g></svg>