<svg id="Layer_2" data-name="Layer 2" xmlns="http://www.w3.org/2000/svg" viewBox="0 0 84.91 84.91"><defs><style>.cls-1{fill:none;stroke:#2566af;stroke-linecap:round;stroke-linejoin:round;stroke-width:.25px}.cls-3{fill:#2566af}</style></defs><g id="Layer_1-2" data-name="Layer 1"><path d="M42.45 84.91c23.45 0 42.45-19.01 42.45-42.45S65.9 0 42.45 0 0 19.01 0 42.45 19.01 84.9 42.45 84.9" style="fill:#fff"/><path class="cls-3" d="M42.45 73.48c-.36 0-.66-.29-.66-.64V58.49c0-.35.29-.64.66-.64s.65.29.65.64v14.35c0 .35-.29.64-.65.64"/><path class="cls-1" d="M42.45 73.48c-.36 0-.66-.29-.66-.64V58.49c0-.35.29-.64.66-.64s.65.29.65.64v14.35c0 .35-.29.64-.65.64Z"/><path class="cls-3" d="M27.77 73.48c-.09 0-.17-.02-.26-.05a.627.627 0 0 1-.34-.84l6.29-14.35c.14-.32.53-.47.86-.34.33.14.49.52.34.84l-6.29 14.35c-.11.24-.35.39-.6.39"/><path class="cls-1" d="M27.77 73.48c-.09 0-.17-.02-.26-.05a.627.627 0 0 1-.34-.84l6.29-14.35c.14-.32.53-.47.86-.34.33.14.49.52.34.84l-6.29 14.35c-.11.24-.35.39-.6.39Z"/><path class="cls-3" d="M57.13 73.48a.64.64 0 0 1-.6-.39l-6.29-14.35c-.14-.32.01-.7.34-.84s.72.01.86.34l6.29 14.35a.635.635 0 0 1-.6.89"/><path class="cls-1" d="M57.13 73.48a.64.64 0 0 1-.6-.39l-6.29-14.35c-.14-.32.01-.7.34-.84s.72.01.86.34l6.29 14.35a.635.635 0 0 1-.6.89Z"/><path class="cls-3" d="M16.24 20.19c-.22 0-.39.17-.39.38v36.9c0 .21.18.38.39.38h52.43c.22 0 .39-.17.39-.38V20.58c0-.21-.18-.38-.39-.38H16.24Zm52.43 38.94H16.24c-.94 0-1.7-.75-1.7-1.66V20.58c0-.92.76-1.66 1.7-1.66h52.43c.94 0 1.7.75 1.7 1.66v36.9c0 .92-.76 1.66-1.7 1.66"/><path class="cls-1" d="M16.24 20.19c-.22 0-.39.17-.39.38v36.9c0 .21.18.38.39.38h52.43c.22 0 .39-.17.39-.38V20.58c0-.21-.18-.38-.39-.38H16.24Zm52.43 38.94H16.24c-.94 0-1.7-.75-1.7-1.66V20.58c0-.92.76-1.66 1.7-1.66h52.43c.94 0 1.7.75 1.7 1.66v36.9c0 .92-.76 1.66-1.7 1.66Z"/><path class="cls-3" d="M52.19 48.11H31.03c-3.15 0-5.72-2.51-5.72-5.59s2.57-5.59 5.72-5.59h23.63c2.43 0 4.41-1.93 4.41-4.31s-1.98-4.31-4.41-4.31H33.41c-.36 0-.66-.29-.66-.64s.29-.64.66-.64h21.25c3.15 0 5.72 2.51 5.72 5.59s-2.57 5.59-5.72 5.59H31.03c-2.43 0-4.41 1.93-4.41 4.31s1.98 4.31 4.41 4.31h21.16c.36 0 .65.29.65.64s-.29.64-.65.64"/><path class="cls-1" d="M52.19 48.11H31.03c-3.15 0-5.72-2.51-5.72-5.59s2.57-5.59 5.72-5.59h23.63c2.43 0 4.41-1.93 4.41-4.31s-1.98-4.31-4.41-4.31H33.41c-.36 0-.66-.29-.66-.64s.29-.64.66-.64h21.25c3.15 0 5.72 2.51 5.72 5.59s-2.57 5.59-5.72 5.59H31.03c-2.43 0-4.41 1.93-4.41 4.31s1.98 4.31 4.41 4.31h21.16c.36 0 .65.29.65.64s-.29.64-.65.64Z"/><path class="cls-3" d="M37.6 31.39c-.14 0-.28-.04-.39-.13l-4.2-3.07c-.16-.12-.26-.31-.26-.51s.1-.39.26-.51l4.2-3.07c.29-.21.7-.16.92.13.22.28.16.68-.13.9l-3.49 2.56L38 30.25c.29.21.35.61.13.9-.13.17-.33.26-.52.26"/><path class="cls-1" d="M37.6 31.39c-.14 0-.28-.04-.39-.13l-4.2-3.07c-.16-.12-.26-.31-.26-.51s.1-.39.26-.51l4.2-3.07c.29-.21.7-.16.92.13.22.28.16.68-.13.9l-3.49 2.56L38 30.25c.29.21.35.61.13.9-.13.17-.33.26-.52.26Z"/><path class="cls-3" d="M26.48 25.76c-1.08 0-1.97.86-1.97 1.92s.88 1.92 1.97 1.92 1.97-.86 1.97-1.92-.88-1.92-1.97-1.92m0 5.12c-1.81 0-3.28-1.44-3.28-3.2s1.47-3.2 3.28-3.2 3.28 1.44 3.28 3.2-1.47 3.2-3.28 3.2"/><path class="cls-1" d="M26.48 25.76c-1.08 0-1.97.86-1.97 1.92s.88 1.92 1.97 1.92 1.97-.86 1.97-1.92-.88-1.92-1.97-1.92Zm0 5.12c-1.81 0-3.28-1.44-3.28-3.2s1.47-3.2 3.28-3.2 3.28 1.44 3.28 3.2-1.47 3.2-3.28 3.2Z"/><path class="cls-3" d="M34.66 44.69a.62.62 0 0 1-.46-.19.628.628 0 0 1 0-.91l3.12-3.04a.67.67 0 0 1 .93 0c.26.25.26.66 0 .91l-3.12 3.05c-.13.12-.3.19-.46.19"/><path class="cls-1" d="M34.66 44.69a.62.62 0 0 1-.46-.19.628.628 0 0 1 0-.91l3.12-3.04a.67.67 0 0 1 .93 0c.26.25.26.66 0 .91l-3.12 3.05c-.13.12-.3.19-.46.19Z"/><path class="cls-3" d="M37.78 44.69a.62.62 0 0 1-.46-.19l-3.12-3.05a.628.628 0 0 1 0-.91.67.67 0 0 1 .93 0l3.12 3.04c.26.25.26.66 0 .91-.13.12-.3.19-.46.19"/><path class="cls-1" d="M37.78 44.69a.62.62 0 0 1-.46-.19l-3.12-3.05a.628.628 0 0 1 0-.91.67.67 0 0 1 .93 0l3.12 3.04c.26.25.26.66 0 .91-.13.12-.3.19-.46.19Z"/><path class="cls-3" d="M46.59 34.79a.62.62 0 0 1-.46-.19.628.628 0 0 1 0-.91l3.12-3.04a.67.67 0 0 1 .93 0c.26.25.26.66 0 .91l-3.12 3.05c-.13.12-.3.19-.46.19"/><path class="cls-1" d="M46.59 34.79a.62.62 0 0 1-.46-.19.628.628 0 0 1 0-.91l3.12-3.04a.67.67 0 0 1 .93 0c.26.25.26.66 0 .91l-3.12 3.05c-.13.12-.3.19-.46.19Z"/><path class="cls-3" d="M49.7 34.79a.62.62 0 0 1-.46-.19l-3.12-3.05a.628.628 0 0 1 0-.91.67.67 0 0 1 .93 0l3.12 3.04c.26.25.26.66 0 .91-.13.12-.3.19-.46.19"/><path class="cls-1" d="M49.7 34.79a.62.62 0 0 1-.46-.19l-3.12-3.05a.628.628 0 0 1 0-.91.67.67 0 0 1 .93 0l3.12 3.04c.26.25.26.66 0 .91-.13.12-.3.19-.46.19Z"/><path class="cls-3" d="M22.2 54.09a.62.62 0 0 1-.46-.19.628.628 0 0 1 0-.91l3.12-3.04a.67.67 0 0 1 .93 0c.26.25.26.66 0 .91l-3.12 3.05c-.13.12-.3.19-.46.19"/><path class="cls-1" d="M22.2 54.09a.62.62 0 0 1-.46-.19.628.628 0 0 1 0-.91l3.12-3.04a.67.67 0 0 1 .93 0c.26.25.26.66 0 .91l-3.12 3.05c-.13.12-.3.19-.46.19Z"/><path class="cls-3" d="M25.32 54.09a.62.62 0 0 1-.46-.19l-3.12-3.05a.628.628 0 0 1 0-.91.67.67 0 0 1 .93 0l3.12 3.04c.26.25.26.66 0 .91-.13.12-.3.19-.46.19"/><path class="cls-1" d="M25.32 54.09a.62.62 0 0 1-.46-.19l-3.12-3.05a.628.628 0 0 1 0-.91.67.67 0 0 1 .93 0l3.12 3.04c.26.25.26.66 0 .91-.13.12-.3.19-.46.19Z"/><path class="cls-3" d="M42.84 54.09a.62.62 0 0 1-.46-.19.628.628 0 0 1 0-.91l3.12-3.04a.67.67 0 0 1 .93 0c.26.25.26.66 0 .91l-3.12 3.05c-.13.12-.3.19-.46.19"/><path class="cls-1" d="M42.84 54.09a.62.62 0 0 1-.46-.19.628.628 0 0 1 0-.91l3.12-3.04a.67.67 0 0 1 .93 0c.26.25.26.66 0 .91l-3.12 3.05c-.13.12-.3.19-.46.19Z"/><path class="cls-3" d="M45.96 54.09a.62.62 0 0 1-.46-.19l-3.12-3.05a.628.628 0 0 1 0-.91.67.67 0 0 1 .93 0l3.12 3.04c.26.25.26.66 0 .91-.13.12-.3.19-.46.19"/><path class="cls-1" d="M45.96 54.09a.62.62 0 0 1-.46-.19l-3.12-3.05a.628.628 0 0 1 0-.91.67.67 0 0 1 .93 0l3.12 3.04c.26.25.26.66 0 .91-.13.12-.3.19-.46.19Z"/><path class="cls-3" d="M59.59 44.69a.62.62 0 0 1-.46-.19.628.628 0 0 1 0-.91l3.12-3.04a.67.67 0 0 1 .93 0c.26.25.26.66 0 .91l-3.12 3.05c-.13.12-.3.19-.46.19"/><path class="cls-1" d="M59.59 44.69a.62.62 0 0 1-.46-.19.628.628 0 0 1 0-.91l3.12-3.04a.67.67 0 0 1 .93 0c.26.25.26.66 0 .91l-3.12 3.05c-.13.12-.3.19-.46.19Z"/><path class="cls-3" d="M62.71 44.69a.62.62 0 0 1-.46-.19l-3.12-3.05a.628.628 0 0 1 0-.91.67.67 0 0 1 .93 0l3.12 3.04c.26.25.26.66 0 .91-.13.12-.3.19-.46.19"/><path class="cls-1" d="M62.71 44.69a.62.62 0 0 1-.46-.19l-3.12-3.05a.628.628 0 0 1 0-.91.67.67 0 0 1 .93 0l3.12 3.04c.26.25.26.66 0 .91-.13.12-.3.19-.46.19Z"/></g></svg>