<svg data-name="Layer 2" xmlns="http://www.w3.org/2000/svg" viewBox="0 0 99.35 94.07"><path d="M47.57 42.04c9.07-7.05 17.13-16.44 23.3-27.16.39-.68.22-1.54-.41-2.01l-6-4.54 17.43-4.75.14 18.05-4.2-3.18c-.68-.52-1.66-.38-2.17.3C65.78 32.02 52.67 42.22 38.74 48c3.08-1.78 6.03-3.78 8.84-5.97ZM14.86 56.42h.04c11.71-.31 23.97-4.05 35.45-10.83A95.434 95.434 0 0 0 77.2 21.85L82.68 26c.68.52 1.66.38 2.17-.3.21-.27.32-.61.32-.95l-.18-23.22c0-.86-.71-1.55-1.56-1.54-.13 0-.27.02-.4.06L60.61 6.16a1.55 1.55 0 0 0-.53 2.73l7.41 5.61C54.7 36.03 35.5 50.15 14.62 53.33c-.85.13-1.43.92-1.3 1.77.12.76.77 1.32 1.53 1.32Zm-3.28 17.85H22.9v16.69H11.58V74.27Zm21.63-12.05h11.32v28.74H33.21V62.22Zm21.63-12.05h11.32v40.79H54.84V50.17Zm21.63-12.05h11.32v52.83H76.47V38.12Zm21.34 52.83h-6.92V36.56c0-.86-.7-1.55-1.55-1.55H74.91c-.86 0-1.55.69-1.55 1.55v54.39h-4.1V48.61c0-.86-.7-1.55-1.55-1.55H53.28c-.86 0-1.55.69-1.55 1.55v42.34h-4.1V60.66c0-.86-.7-1.55-1.55-1.55H31.65c-.86 0-1.55.69-1.55 1.55v30.29H26V72.7c0-.86-.7-1.55-1.55-1.55H10.02c-.86 0-1.55.69-1.55 1.55v18.25H1.55c-.86 0-1.55.69-1.55 1.55s.7 1.55 1.55 1.55H97.8c.86 0 1.55-.69 1.55-1.55s-.69-1.55-1.55-1.55" style="fill:#4087c7" data-name="Layer 1"/></svg>