<svg data-name="Layer 2" xmlns="http://www.w3.org/2000/svg" viewBox="0 0 112.92 108.02"><path d="M3.76 91.81c0-.99.84-1.8 1.88-1.8h22.58c1.04 0 1.88.81 1.88 1.8v1.8c0 .99-.84 1.8-1.88 1.8H5.65c-1.04 0-1.88-.81-1.88-1.8v-1.8Zm26.35 10.8c0 .99-.84 1.8-1.88 1.8H5.65c-1.04 0-1.88-.81-1.88-1.8v-1.8c0-.99.84-1.8 1.88-1.8h22.58c1.04 0 1.88.81 1.88 1.8v1.8Zm-24.46 5.4h22.58c3.11 0 5.65-2.42 5.65-5.4v-1.8c0-1.39-.57-2.64-1.47-3.6.9-.96 1.47-2.21 1.47-3.6v-1.8c0-2.98-2.53-5.4-5.65-5.4H5.65c-3.11 0-5.65 2.42-5.65 5.4v1.8c0 1.39.57 2.64 1.47 3.6-.9.96-1.47 2.21-1.47 3.6v1.8c0 2.98 2.53 5.4 5.65 5.4m37.63-34.2c0-.99.84-1.8 1.88-1.8h22.58c1.04 0 1.88.81 1.88 1.8v1.8c0 .99-.84 1.8-1.88 1.8H45.16c-1.04 0-1.88-.81-1.88-1.8v-1.8Zm0 10.8v-1.8c0-.99.84-1.8 1.88-1.8h22.58c1.04 0 1.88.81 1.88 1.8v1.8c0 .99-.84 1.8-1.88 1.8H45.16c-1.04 0-1.88-.81-1.88-1.8m0 9v-1.8c0-.99.84-1.8 1.88-1.8h22.58c1.04 0 1.88.81 1.88 1.8v1.8c0 .99-.84 1.8-1.88 1.8H45.16c-1.04 0-1.88-.81-1.88-1.8m26.35 9c0 .99-.84 1.8-1.88 1.8H45.17c-1.04 0-1.88-.81-1.88-1.8v-1.8c0-.99.84-1.8 1.88-1.8h22.58c1.04 0 1.88.81 1.88 1.8v1.8Zm-30.11 0c0 2.98 2.53 5.4 5.65 5.4h22.58c3.11 0 5.65-2.42 5.65-5.4v-1.8c0-1.39-.57-2.64-1.47-3.6.9-.96 1.47-2.21 1.47-3.6v-1.8c0-1.39-.57-2.64-1.47-3.6.9-.96 1.47-2.21 1.47-3.6v-1.8c0-1.39-.57-2.64-1.47-3.6.9-.96 1.47-2.21 1.47-3.6v-1.8c0-2.98-2.53-5.4-5.65-5.4H45.17c-3.11 0-5.65 2.42-5.65 5.4v1.8c0 1.39.57 2.64 1.47 3.6-.9.96-1.47 2.21-1.47 3.6v1.8c0 1.39.57 2.64 1.47 3.6-.9.96-1.47 2.21-1.47 3.6v1.8c0 1.39.57 2.64 1.47 3.6-.9.96-1.47 2.21-1.47 3.6v1.8Zm69.63 0c0 .99-.84 1.8-1.88 1.8H84.69c-1.04 0-1.88-.81-1.88-1.8v-1.8c0-.99.84-1.8 1.88-1.8h22.58c1.04 0 1.88.81 1.88 1.8v1.8Zm0-10.8v1.8c0 .99-.84 1.8-1.88 1.8H84.69c-1.04 0-1.88-.81-1.88-1.8v-1.8c0-.99.84-1.8 1.88-1.8h22.58c1.04 0 1.88.81 1.88 1.8m0-9v1.8c0 .99-.84 1.8-1.88 1.8H84.69c-1.04 0-1.88-.81-1.88-1.8v-1.8c0-.99.84-1.8 1.88-1.8h22.58c1.04 0 1.88.81 1.88 1.8m0-9v1.8c0 .99-.84 1.8-1.88 1.8H84.69c-1.04 0-1.88-.81-1.88-1.8v-1.8c0-.99.84-1.8 1.88-1.8h22.58c1.04 0 1.88.81 1.88 1.8m0-9v1.8c0 .99-.84 1.8-1.88 1.8H84.69c-1.04 0-1.88-.81-1.88-1.8v-1.8c0-.99.84-1.8 1.88-1.8h22.58c1.04 0 1.88.81 1.88 1.8m-26.35-9c0-.99.84-1.8 1.88-1.8h22.58c1.04 0 1.88.81 1.88 1.8v1.8c0 .99-.84 1.8-1.88 1.8H84.68c-1.04 0-1.88-.81-1.88-1.8v-1.8Zm30.11 0c0-2.98-2.53-5.4-5.65-5.4H84.68c-3.11 0-5.65 2.42-5.65 5.4v1.8c0 1.39.57 2.64 1.47 3.6-.9.96-1.47 2.21-1.47 3.6v1.8c0 1.39.57 2.64 1.47 3.6-.9.96-1.47 2.21-1.47 3.6v1.8c0 1.39.57 2.64 1.47 3.6-.9.96-1.47 2.21-1.47 3.6v1.8c0 1.39.57 2.64 1.47 3.6-.9.96-1.47 2.21-1.47 3.6v1.8c0 1.39.57 2.64 1.47 3.6-.9.96-1.47 2.21-1.47 3.6v1.8c0 2.98 2.53 5.4 5.65 5.4h22.58c3.11 0 5.65-2.42 5.65-5.4v-1.8c0-1.39-.57-2.64-1.47-3.6.9-.96 1.47-2.21 1.47-3.6v-1.8c0-1.39-.57-2.64-1.47-3.6.9-.96 1.47-2.21 1.47-3.6v-1.8c0-1.39-.57-2.64-1.47-3.6.9-.96 1.47-2.21 1.47-3.6v-1.8c0-1.39-.57-2.64-1.47-3.6.9-.96 1.47-2.21 1.47-3.6v-1.8c0-1.39-.57-2.64-1.47-3.6.9-.96 1.47-2.21 1.47-3.6v-1.8ZM35.75 34.2c-.97 0-1.93.36-2.66 1.06L4.02 63.08c-.22.21-.25.46-.25.59s.03.38.25.59l4.08 3.91c.22.21.48.24.62.24s.4-.03.61-.24l25.46-24.36c.68-.65 1.77-.71 2.52-.12l16.75 13.1a3.861 3.861 0 0 0 5.05-.24l41.16-39.37c.74-.7 1.93-.71 2.66 0l4.44 4.23s.11.1.24.05c.14-.05.15-.14.15-.19l1.38-17.55L90.6 4.97s-.12 0-.16.12c-.04.11.02.17.04.19l4.46 4.27c.35.34.55.79.55 1.27s-.2.94-.55 1.27L57.4 48.01c-.68.65-1.78.71-2.52.12L38.13 35.02a3.84 3.84 0 0 0-2.38-.82ZM8.72 72c-1.24 0-2.41-.46-3.28-1.3l-4.08-3.91C.48 65.97 0 64.85 0 63.67s.48-2.3 1.36-3.14l29.07-27.81c2.75-2.63 7.09-2.84 10.09-.48l15.43 12.07 35.01-33.49-3.13-2.99c-1.1-1.06-1.46-2.58-.91-3.99.54-1.4 1.85-2.35 3.4-2.46L108.73 0c1.11-.08 2.24.31 3.04 1.07.8.76 1.21 1.82 1.13 2.9l-1.39 17.55c-.12 1.51-1.11 2.77-2.59 3.29-1.48.53-3.09.19-4.21-.88l-3.11-2.96-39.84 38.11c-2.75 2.63-7.09 2.84-10.09.48L36.25 47.49 11.99 70.7A4.74 4.74 0 0 1 8.71 72Z" style="fill:#4087c7" data-name="Layer 1"/></svg>