<svg data-name="Layer 2" xmlns="http://www.w3.org/2000/svg" viewBox="0 0 75.04 75.04"><defs><clipPath id="a"><path style="fill:none" d="M0 0h75.04v75.04H0z"/></clipPath></defs><g style="clip-path:url(#a)" data-name="Layer 1"><path d="M37.52 75.04C16.8 75.04 0 58.24 0 37.52S16.8 0 37.52 0s37.52 16.8 37.52 37.52-16.8 37.52-37.52 37.52" style="fill:#00acec"/><path d="M52.32 48.75H40.65l9.87-10.1a2.83 2.83 0 0 0-.05-4.01 2.83 2.83 0 0 0-4.01.05l-5.88 6.02V23.44a3.06 3.06 0 1 0-6.12 0v17.27l-5.88-6.02a2.84 2.84 0 0 0-4.01-.05 2.84 2.84 0 0 0-.05 4.01l9.87 10.1H22.72c-1.16 0-2.1.94-2.1 2.1s.94 2.09 2.1 2.09h29.6c1.16 0 2.09-.94 2.09-2.09s-.94-2.1-2.09-2.1" style="fill:#fff"/></g></svg>