<svg id="Layer_2" data-name="Layer 2" xmlns="http://www.w3.org/2000/svg" viewBox="0 0 64.78 64.78"><defs><style>.cls-1{fill:#fff}</style></defs><g id="Layer_1-2" data-name="Layer 1"><path class="cls-1" d="M45.17 42.83H35.1l8.52-8.72c.95-.97.93-2.52-.04-3.46-.97-.95-2.52-.93-3.46.04l-5.08 5.2V20.98c0-1.46-1.18-2.64-2.64-2.64s-2.64 1.18-2.64 2.64v14.91l-5.08-5.2c-.94-.97-2.5-.99-3.46-.04-.97.94-.99 2.49-.04 3.46l8.52 8.72H19.63a1.81 1.81 0 1 0 0 3.62h25.56a1.81 1.81 0 1 0 0-3.62"/><path class="cls-1" d="M32.39 0C14.53 0 0 14.53 0 32.39s14.53 32.39 32.39 32.39 32.39-14.53 32.39-32.39S50.25 0 32.39 0Zm0 61.42c-16 0-29.02-13.02-29.02-29.02S16.39 3.37 32.39 3.37s29.02 13.02 29.02 29.02-13.02 29.02-29.02 29.02Z"/></g></svg>