<svg id="Layer_2" data-name="Layer 2" xmlns="http://www.w3.org/2000/svg" viewBox="0 0 87.85 122.26"><defs><style>.cls-1{fill:#b7d831}</style></defs><g id="Layer_1-2" data-name="Layer 1"><path class="cls-1" d="M45.74 48.29c-.25-1.35.12-2.94.07-4.39 2.11 1.85 4.08 4.97 4.22 7.52-1.86-.14-3.93-1.13-4.29-3.12m27.45-25.26c-.48-1.4-2.67-1.18-2.85.29-1.21 8.16-5.88 15.46-12.45 20.38-1.84 1.48-3.92 3.2-5.37 5.06-1.39-4.03-4.67-7.93-8.75-9.58-1.58-.69-2.85 1.54-1.46 2.55.48.1.66 2.58.47 3.95-.73 4.69 2.1 8.3 7.03 8.69-.39 2.04.38 8.35 2.87 8.54 1.14.03 1.9-1.37 1.23-2.31-2.46-4.31-1.14-8.44 2.7-11.93 6.48-5.33 11.73-9.73 14.78-17.9-.29 5.54-3.73 10.74-8.64 13.29a1.477 1.477 0 0 0 .64 2.79c7.09.19 14.2-4.08 17.77-10.62C88.23 23.37 80.91 6.93 67.9.21c-1.25-.74-2.76.78-2 2.03 1.62 2.84 1.85 6.1.6 8.51-1.62 3.1-5.51 4.87-8.18 7.27-7.04 6.02-8.55 17.14-3.38 24.81 1.07 1.61 3.53.01 2.48-1.62-4.38-6.49-3.1-15.89 2.85-20.97 5.32-4.19 11.19-7.01 9.78-15.14 13.57 9.15 15.57 31.58-1.03 37.89 5.08-5.14 6.71-13.21 4.16-19.95Z"/><path class="cls-1" d="M15.03 28.51c3.45-3.15 8.09-4.74 12.48-4.4-4.37.86-8.47 3.11-11.45 6.46-.54.61-.49 1.55.12 2.09.61.54 1.55.49 2.09-.12 3.77-4.22 9.6-6.42 15.23-5.73.57 3.94-.46 8.91-4.45 10.36-6.1 1.92-13.26-4.91-19.66.28 1.16-3.44 3.13-6.62 5.65-8.93ZM6.49 45.69c.68.13 1.39-.25 1.65-.92.81-2.08 2-4.61 4.09-5.7 5.67-2.43 11.84 3.25 17.82.86 4.92-1.76 6.99-7.39 6.47-12.46 4.37 1.38 8.21 4.52 10.34 8.54.39.73 1.29.99 2 .62.72-.38 1-1.28.62-2-2.81-5.31-8.16-9.29-14.07-10.5-.91-1.01-2.16-1.73-3.93-2.27-13.57-4.24-26.52 8.83-26.2 22.39 0 .71.51 1.32 1.21 1.45Zm32.29 25.36c-1.93 2.89-1.93 2.58-.71 5.83l-1.33 1c-2.81-2.07-2.5-1.99-5.82-.94-.8.24-1.41.9-1.6 1.7l-.64 1.69-1.66-.09c-.38-1.25-.42-3.08-1.86-3.61-3.22-1.41-2.86-1.43-5.9.3l-1.22-1.14c1.6-3.09 1.53-2.83-.07-5.89a2.349 2.349 0 0 0-1.95-1.28l-1.8-.35-.2-1.65c3.21-1.34 3.01-1.13 3.76-4.53.43-1.5-1.06-2.62-1.84-3.68l.91-1.4c3.36 1.06 3.04 1.06 5.82-1.07.67-.51 1.01-1.34.91-2.16v-1.84l1.61-.49c.79 1.06 1.44 2.79 3.01 2.8 3.49.23 3.22.39 5.42-2.34l1.54.65-.17 1.84c-.18.81.07 1.65.69 2.24 2.52 2.4 2.22 2.36 5.65 1.68l.75 1.48c-2.53 2.45-2.41 2.1-1.95 5.6.11 1.56 1.86 2.08 2.97 2.79l-.38 1.62-1.82.16c-.83-.04-1.61.36-2.08 1.06Zm4.37 1.71c2.47.05 2.42-2.67 2.91-4.4.46-2.16-1.64-2.7-3.07-3.61l-.18-1.52 1.48-1.47c.86-.66 1.13-1.84.63-2.81-.89-1.57-1.49-4.24-3.9-3.57l-2.02.36-1.1-1.03.2-2.09a2.25 2.25 0 0 0-1.32-2.57c-3.89-1.63-3.85-2.15-6.6 1.35l-1.51-.08-1.17-1.72c-1.18-2.19-3.54-.77-5.29-.33-2.13.71-1.5 2.8-1.6 4.52l-1.2.9c-1.65-.41-3.52-1.58-4.76.27-2.3 3.58-2.75 3.4.17 6.77l-.34 1.47-1.89.82c-2.36.78-1.39 3.34-1.25 5.14a2.26 2.26 0 0 0 2.09 1.98l2.05.4.69 1.35-.9 1.83c-1.3 2.12 1.1 3.45 2.35 4.74 1.64 1.47 3.16-.08 4.68-.82l1.4.6.5 1.97c.37 2.46 3.05 1.93 4.84 2.11 2.22.07 2.36-2.07 3.05-3.64l1.45-.44 1.67 1.18c1.86 1.65 3.57-.48 5.06-1.49 1.75-1.37.48-3.12 0-4.74l.83-1.27 2.06-.18Z"/><path class="cls-1" d="M28.55 71.68c-7.68-.2-7.68-11.45 0-11.65 7.68.2 7.68 11.45 0 11.65m0-14.61c-11.58.3-11.58 17.26 0 17.57 11.58-.3 11.58-17.26 0-17.57m53.21 3.21c.65 2.57.52 2.76 3.09 3.7l-.09.91c-1.06.25-2.5.35-2.97 1.51-1.15 2.37-1.37 2.44-.02 4.81l-.66.65c-2.37-1.35-2.41-1.15-4.81-.03-1.18.46-1.29 1.89-1.54 2.95l-.92.08c-.92-2.56-1.11-2.43-3.65-3.11-1.2-.42-2.22.61-3.1 1.26l-.75-.53c.98-2.56.71-2.61-.81-4.76-.67-1.08-2.1-.91-3.18-.99l-.23-.89c2.39-1.33 2.24-1.49 2.46-4.14.19-1.26-1.02-2.07-1.81-2.82l.39-.84c2.7.53 2.7.28 4.57-1.6.95-.85.54-2.24.41-3.32l.85-.39c.74.81 1.54 2.03 2.8 1.85 2.64-.19 2.81-.04 4.17-2.41l.89.24c.06 1.1-.12 2.53.97 3.22 2.13 1.54 2.19 1.78 4.74.83l.52.76c-.65.88-1.7 1.87-1.31 3.08Zm.27-6.78-1.43.46-.76-.54c-.07-1.47.2-3.2-1.61-3.72-3.21-.87-3.59-1.33-5.37 1.8l-.93.08c-2.31-2.8-2.56-2.3-5.61-.9-1.71.8-1.16 2.47-.97 3.94l-.66.65c-1.47-.22-3.11-.78-3.93.92-1.43 3.04-1.9 3.27.84 5.63l-.09.93c-3.17 1.75-2.7 2.12-1.86 5.35.51 1.81 2.22 1.55 3.69 1.66l.53.77c-1.28 3.35-.67 3.36 2.02 5.27 1.53 1.06 2.7-.22 3.88-1.09l.91.25.56 1.38c.64 2.09 2.78 1.44 4.39 1.35 1.86-.18 1.92-1.89 2.26-3.32l.86-.39c1.3.67 2.65 1.73 3.99.45 1.13-1.17 3.01-2.38 1.83-4.22l-.68-1.31.41-.85c1.43-.34 3.15-.38 3.35-2.24.12-1.62.78-3.76-1.31-4.4l-1.37-.56-.24-.92c.88-1.17 2.19-2.33 1.14-3.88-.95-1.32-1.82-3.38-3.83-2.54Z"/><path class="cls-1" d="M76.37 65.81c-1.97 2.7-6.46 1.53-6.85-1.8-.29-2.1 1.19-4.03 3.28-4.32 3.28-.53 5.66 3.49 3.57 6.12m-3.97-9.05c-8.87 1.46-7.04 14.45 1.83 13.46 8.86-1.51 7.11-14.36-1.83-13.46M38.56 92.95c4.33-1.31 3.75-10.1 11.92-9.99-1.62 3.08-3.71 6.32-5.12 9.41-2.1 1.61-4.33 3.09-6.34 4.81-2.1-.37-4.16-1-6.02-2.05l5.56-2.17Zm14.8-2.9c2.76-3.12 7.47-9.24 12.47-6.8-2.7 3.39-5.24 6.02-7.47 8.75a34.532 34.532 0 0 0-9.17 5.94c-2-.07-4.06-.12-6.01-.26 1.63-1.19 3.25-2.5 4.93-3.6.97-.63 1.86-.95 2.82-1.62.99-.7 1.72-1.57 2.43-2.41m16.87-2.27c2.54-1.26 5.54-1.77 7.4-.33 0 .02.01.24-.72 1-3.15 3.24-6.37 6.6-9.67 9.63-1.64 1.1-3.34 2.33-5.09 3.67-1.77-3.39-5.4-3.4-8.56-3.57 2.8-2.2 6.05-3.45 9.29-4.9 2.52-1.81 4.68-4.17 7.36-5.49ZM2.31 98.52c7.31-5.08 16.79-11.7 25.21-3.67 2.53 2.12 5.39 3.87 8.6 4.7 5.91 1.57 11.55 1.06 17.57 1.59 1.69.17 3.9 0 5.04 1 1.02.94 1.74 2.33 1.05 3.74-.5.85-1.6 1.41-3.57 1.81-9.97 2.45-19.55-2.71-29.57-.89-1.9.39-1.36 3.24.55 2.91 4.24-.81 8.54-.12 13.09.6 5.39 1.07 22.66 2.96 22.71-5.49 2.08-1.64 4.2-3.18 6.12-4.46 5.85-3.6 7.67-5.12 11.63-2.99-5.2 5.75-11.67 11.24-17.55 16.62-.76.67-1.55 1.36-2.41 1.71-1.07.43-2.39.38-3.67.34-10.04-.56-20.24-.22-30.21-1.84-2.9-.53-5.74-1.31-7.9-1.93-1.22-.35-2.89-.84-4.53-.26-1.1.39-1.9 1.16-2.54 1.77l-6.2 5.93c-.59.56-.61 1.5-.05 2.09.56.59 1.5.61 2.09.05l6.2-5.93c1.29-1.47 2.38-1.4 4.2-.8 2.22.64 5.16 1.45 8.19 2 10.19 1.67 20.4 1.32 30.63 1.88 3.21.27 5.77-.42 8.15-2.78 6.04-5.34 12-10.91 17.7-16.56.64-.63.97-1.52.9-2.42-.4-3.22-4.87-4.06-7.73-3.65 1.43-1.77 4.96-4.02 4.53-6.62-.2-1.25-1.16-2.25-2.71-2.81-3.09-1.21-7.34-.27-10.47 1.86.66-1 1.83-1.62 1.87-3.04-.62-3.01-5.62-3.82-8.4-2.85-4.59 1.58-7.3 5.3-10.09 8.41.87-1.54 1.78-3.15 2.6-4.67.4-.76.41-1.66.02-2.42-1.64-2.93-7.6-1.03-9.61.68-2.38 1.85-3.66 4.46-5.06 6.95-.33.62-.56.91-1.21 1.11l-7.42 2.9c-5.29-4.84-11.17-6.49-18.62-3.42-3.25 1.32-6.16 3.28-8.97 5.18-1.06.78-3.21 1.6-2.21 3.25.45.68 1.37.87 2.05.42Z"/></g></svg>