<svg id="Layer_2" data-name="Layer 2" xmlns="http://www.w3.org/2000/svg" viewBox="0 0 84.91 84.91"><defs><clipPath id="clippath"><path style="fill:none" d="M0 0h84.91v84.91H0z"/></clipPath><style>.cls-4{fill:#43a756}</style></defs><g id="Layer_1-2" data-name="Layer 1"><g style="clip-path:url(#clippath)"><path d="M42.45 84.91c23.45 0 42.45-19.01 42.45-42.45S65.9 0 42.45 0 0 19.01 0 42.45 19.01 84.9 42.45 84.9" style="fill:#fff"/></g><path class="cls-4" d="M50.65 62.21H34.26c-3.07-1.58-5.64-4.25-7.39-7.45l1.24-1.17 4.01 3.79c.43.41 1.11.41 1.54 0l4.01-3.79 4.01 3.79c.43.41 1.11.41 1.54 0l4.01-3.79 4.01 3.79c.43.41 1.11.41 1.54 0l4.01-3.79 1.24 1.17c-1.75 3.2-4.32 5.87-7.39 7.45m-3.12 6.77H37.36c-1.25 0-2.26-1.01-2.26-2.26v-2.26h14.68v2.26c0 1.25-1.02 2.26-2.26 2.26M15.93 35.12c0-5.6 4.56-10.16 10.16-10.16 2.2 0 4.33.71 6.07 2.02-.4.73-.96 1.37-1.65 1.87a20.284 20.284 0 0 0-8.35 15.65 10.157 10.157 0 0 1-6.23-9.37Zm16.36-17.49c0-.94.76-1.7 1.7-1.7h16.93c.94 0 1.7.76 1.7 1.7s-.76 1.7-1.7 1.7H33.99c-.94 0-1.7-.76-1.7-1.7m26.52 7.33c5.6 0 10.16 4.56 10.16 10.16 0 4.15-2.5 7.82-6.23 9.37a20.29 20.29 0 0 0-8.36-15.65c-.69-.5-1.24-1.14-1.64-1.87 1.75-1.3 3.87-2.02 6.07-2.02Zm-34.33 18.5 3.62-3.41 4.01 3.79c.43.41 1.11.41 1.54 0l4.01-3.79 4.01 3.79c.43.41 1.11.41 1.54 0l4.01-3.79 4.01 3.79c.43.41 1.11.41 1.54 0l4.01-3.79 3.62 3.41c.32 3.12-.2 6.26-1.37 9.16l-1.48-1.4c-.43-.41-1.11-.41-1.54 0L52 55.01l-4.01-3.79c-.43-.41-1.11-.41-1.54 0l-4.01 3.79-4.01-3.79c-.43-.41-1.11-.41-1.54 0l-4.01 3.79-4.01-3.79c-.43-.41-1.11-.41-1.54 0l-1.48 1.39c-1.17-2.88-1.69-6.03-1.37-9.16m10.63-19.2v-2.69h14.68v2.69c0 2.55 1.25 4.93 3.27 6.4a18.14 18.14 0 0 1 6.52 8.93l-2.01-1.9c-.43-.41-1.11-.41-1.54 0l-4.01 3.79-4.01-3.79c-.43-.41-1.11-.41-1.54 0l-4.01 3.79-4.01-3.78c-.43-.41-1.11-.41-1.54 0l-4.01 3.78-4.01-3.78c-.43-.41-1.11-.41-1.54 0l-2.01 1.9c1.18-3.54 3.44-6.68 6.52-8.92a7.934 7.934 0 0 0 3.27-6.4m27.58 22.64c5.06-1.66 8.53-6.39 8.53-11.79 0-6.84-5.57-12.41-12.41-12.41-2.41 0-4.76.7-6.76 2-.04-.46-.01-.41-.02-3.3 1.63-.49 2.82-2 2.82-3.78 0-2.18-1.77-3.94-3.94-3.94H34c-2.17 0-3.94 1.77-3.94 3.94 0 1.78 1.19 3.3 2.82 3.78 0 2.91.02 2.85-.02 3.3-2-1.3-4.34-2-6.75-2-6.84 0-12.41 5.57-12.41 12.41 0 5.4 3.47 10.13 8.53 11.79.54 6.98 4.58 13.81 10.66 17.11v2.7c0 2.49 2.02 4.51 4.51 4.51h10.16c2.49 0 4.51-2.02 4.51-4.51v-2.7c6.06-3.29 10.12-10.12 10.66-17.11"/><path class="cls-4" d="M33.43 36.24c.62 0 1.12-.5 1.12-1.12S34.04 34 33.43 34s-1.12.49-1.12 1.12.51 1.12 1.12 1.12m9.02 0c.62 0 1.12-.5 1.12-1.12S43.06 34 42.45 34s-1.12.49-1.12 1.12.51 1.12 1.12 1.12m9.03 0c.62 0 1.12-.5 1.12-1.12S52.09 34 51.48 34s-1.12.49-1.12 1.12.51 1.12 1.12 1.12M28.91 48.66c.62 0 1.12-.5 1.12-1.12s-.51-1.12-1.12-1.12-1.12.5-1.12 1.12.51 1.12 1.12 1.12m9.03 0c.62 0 1.12-.5 1.12-1.12s-.51-1.12-1.12-1.12-1.12.49-1.12 1.12.51 1.12 1.12 1.12m9.03 0c.62 0 1.12-.5 1.12-1.12s-.51-1.12-1.12-1.12-1.12.5-1.12 1.12.51 1.12 1.12 1.12m9.03 0c.62 0 1.12-.5 1.12-1.12s-.51-1.12-1.12-1.12-1.12.5-1.12 1.12.51 1.12 1.12 1.12"/></g></svg>