<svg data-name="Layer 2" xmlns="http://www.w3.org/2000/svg" viewBox="0 0 84.91 84.91"><g data-name="Layer 1"><path d="M42.45 84.91c23.45 0 42.45-19.01 42.45-42.45S65.9 0 42.45 0 0 19.01 0 42.45 19.01 84.9 42.45 84.9" style="fill:#fff"/><path d="m40.76 63.52 1.22 1.82h1.25c.96 0 1.82.53 2.25 1.39l1.72-.86a4.398 4.398 0 0 0-3.74-2.45l.36-.27c.6-.45 1.33-.69 2.08-.69 1.16 0 2.24.58 2.88 1.54l.89 1.34h.68c1.49 0 2.9.58 3.96 1.64l.28.28h.4c1.36 0 2.59.73 3.24 1.92H30.38a4.908 4.908 0 0 1 4.46-2.88h.59l1.26-2.53c.4-.81 1.22-1.31 2.12-1.31.79 0 1.53.39 1.97 1.06Zm-11.47 3.74H16.58V53.88c0-3.93 2.94-7.26 6.84-7.74l.84-.1v-3.73h5.76v3.73l.84.1c3.9.49 6.84 3.82 6.84 7.74v6.8c-.73.19-1.39.57-1.92 1.1v-5.09c0-4.76-3.88-8.64-8.64-8.64s-8.64 3.88-8.64 8.64v8.64h1.92v-8.64c0-3.7 3.01-6.72 6.72-6.72s6.72 3.01 6.72 6.72v7.76a6.8 6.8 0 0 0-4.56 2.79m-6.96-42.22c-2.12 0-3.84-1.72-3.84-3.84v-3.84h1.92v2.88a2.88 2.88 0 0 0 2.88 2.88h7.68a2.88 2.88 0 0 0 2.88-2.88v-2.88h1.92v3.84c0 2.12-1.72 3.84-3.84 3.84H28.1v15.35h-1.92V25.02h-3.84Zm0-7.68h9.6v2.88c0 .53-.43.96-.96.96H23.3a.96.96 0 0 1-.96-.96v-2.88Zm17.74 26.25-.26-1.3h1.48c4.34 0 8.3 2.72 9.85 6.77l.69 1.79-6.83-5.46-1.2 1.5 7.04 5.63-2.97-.74c-3.94-.98-7-4.19-7.79-8.17m26.63-1.3h1.48l-.26 1.3a10.58 10.58 0 0 1-7.79 8.17l-2.97.74 7.03-5.63-1.2-1.5-6.83 5.46.69-1.79c1.56-4.05 5.52-6.77 9.85-6.77m-14.63-3.84a2.88 2.88 0 0 1-2.88-2.88v-.96h.96a2.88 2.88 0 0 1 2.88 2.88v.96h-.96ZM49.21 23.1h.96a2.88 2.88 0 0 1 2.88 2.88v.96h-.96a2.88 2.88 0 0 1-2.88-2.88v-.96Zm3.81-4.91.99-.66.98.66c.58.39.93 1.04.93 1.74s-.38 1.36-.96 1.74v-2.42h-1.92v2.42c-.58-.38-.96-1.02-.96-1.74s.35-1.36.93-1.74m5.78 5.87a2.88 2.88 0 0 1-2.88 2.88h-.96v-.96a2.88 2.88 0 0 1 2.88-2.88h.96v.96Zm0 11.51a2.88 2.88 0 0 1-2.88 2.88h-.96v-.96a2.88 2.88 0 0 1 2.88-2.88h.96v.96Zm-9.6-6.72h.96a2.88 2.88 0 0 1 2.88 2.88v.96h-.96a2.88 2.88 0 0 1-2.88-2.88v-.96Zm5.76 3.84v-.96a2.88 2.88 0 0 1 2.88-2.88h.96v.96a2.88 2.88 0 0 1-2.88 2.88h-.96Zm17.27 22.07v-1.92h-9.45c3.57-1.65 6.23-4.94 7.02-8.88l.72-3.6h-3.82c-5.12 0-9.81 3.21-11.64 8l-.1.27v-8.27h.96c2.65 0 4.8-2.15 4.8-4.8v-2.88h-.98c.61-.81.98-1.8.98-2.88v-2.88h-.98c.61-.8.98-1.79.98-2.88v-2.88h-2.83l.3-.9c.93-2.79 2.67-5.2 5.02-6.97l-1.15-1.53a16.28 16.28 0 0 0-4.89 5.95c-.29-.44-.67-.83-1.12-1.13l-2.05-1.37-2.05 1.37c-.45.3-.83.69-1.12 1.13a16.28 16.28 0 0 0-4.89-5.95l-1.15 1.53c2.35 1.77 4.09 4.18 5.02 6.97l.3.9h-2.83v2.88c0 1.08.38 2.08.98 2.88h-.98v2.88c0 1.08.38 2.07.98 2.88h-.98v2.88c0 2.65 2.15 4.8 4.8 4.8h.96v8.27l-.1-.27c-1.84-4.78-6.52-8-11.64-8h-3.82l.72 3.6c.79 3.93 3.45 7.22 7.02 8.88h-5.67c-.44-4.16-3.52-7.61-7.62-8.49v-2.07c0-1.06-.86-1.92-1.92-1.92V26.93h1.92c3.18 0 5.76-2.58 5.76-5.76v-3.84c0-1.06-.86-1.92-1.92-1.92H18.49c-1.06 0-1.92.86-1.92 1.92v3.84c0 3.17 2.58 5.76 5.76 5.76h1.92v13.44c-1.06 0-1.92.86-1.92 1.92v2.07c-4.43.95-7.68 4.9-7.68 9.51v13.38c0 1.06.86 1.92 1.92 1.92h11.75c-.08.25-.17.5-.22.77l-.23 1.15H61.3l-1.33-2.65c-.9-1.8-2.65-2.95-4.63-3.09a7.52 7.52 0 0 0-4.68-1.93l-.33-.49c-1-1.5-2.67-2.39-4.48-2.39-1.16 0-2.3.38-3.23 1.07l-.59.44a4.28 4.28 0 0 0-2.45-1.43v-5.85h32.63Z" style="fill:#43a756"/></g></svg>