<svg id="Layer_2" data-name="Layer 2" xmlns="http://www.w3.org/2000/svg" viewBox="0 0 124.14 124.14"><defs><style>.cls-1{fill:#b7d831}.cls-2{fill:none;stroke:#1e6f41;stroke-miterlimit:10}</style></defs><g id="Layer_1-2" data-name="Layer 1"><path class="cls-1" d="M52.14 52.14h-3.97c0-6.04-3.44-11.56-8.86-14.23 5.32-3.88 6.48-11.33 2.6-16.65-3.88-5.32-11.34-6.48-16.65-2.6-5.32 3.88-6.48 11.33-2.6 16.65.73.99 1.6 1.87 2.6 2.6a15.9 15.9 0 0 0-8.87 14.23h-3.97V12.42h39.72v39.72ZM26.92 45.6l3.97 3.97c.78.78 2.03.78 2.81 0l3.97-3.97c.37-.37.57-.88.57-1.4v-2.36c3.68 2.13 5.95 6.05 5.96 10.3H20.37c0-4.25 2.28-8.18 5.96-10.3v2.36c0 .53.22 1.03.6 1.4m3.38-5.2c1.31-.24 2.66-.24 3.97 0v2.98l-1.99 1.99-1.99-1.99V40.4Zm-5.67-14.08a7.886 7.886 0 0 1 9.59-5.71c2.07.53 3.85 1.87 4.91 3.73H32.3c-.53 0-1.03.21-1.4.58l-1.4 1.4h-4.85Zm0 3.97h5.67c.53 0 1.03-.21 1.4-.58l1.41-1.4h7.12c0 4.38-3.54 7.93-7.92 7.94a7.94 7.94 0 0 1-7.69-5.95Zm31.49-19.86c0-1.1-.89-1.99-1.99-1.99H10.43c-1.1 0-1.99.89-1.99 1.99v43.69c0 1.1.89 1.99 1.99 1.99h43.69c1.1 0 1.99-.89 1.99-1.99V10.43Z"/><path class="cls-2" d="M52.14 52.14h-3.97c0-6.04-3.44-11.56-8.86-14.23 5.32-3.88 6.48-11.33 2.6-16.65-3.88-5.32-11.34-6.48-16.65-2.6-5.32 3.88-6.48 11.33-2.6 16.65.73.99 1.6 1.87 2.6 2.6a15.9 15.9 0 0 0-8.87 14.23h-3.97V12.42h39.72v39.72ZM26.92 45.6l3.97 3.97c.78.78 2.03.78 2.81 0l3.97-3.97c.37-.37.57-.88.57-1.4v-2.36c3.68 2.13 5.95 6.05 5.96 10.3H20.37c0-4.25 2.28-8.18 5.96-10.3v2.36c0 .53.22 1.03.6 1.4Zm3.38-5.2c1.31-.24 2.66-.24 3.97 0v2.98l-1.99 1.99-1.99-1.99V40.4Zm-5.67-14.08a7.886 7.886 0 0 1 9.59-5.71c2.07.53 3.85 1.87 4.91 3.73h-6.84c-.53 0-1.03.21-1.4.58l-1.4 1.4h-4.85Zm0 3.97h5.67c.53 0 1.03-.21 1.4-.58l1.41-1.4h7.12c0 4.38-3.54 7.93-7.92 7.94a7.94 7.94 0 0 1-7.69-5.95Zm31.49-19.86c0-1.1-.89-1.99-1.99-1.99h-43.7c-1.1 0-1.99.89-1.99 1.99v43.69c0 1.1.89 1.99 1.99 1.99h43.69c1.1 0 1.99-.89 1.99-1.99V10.43Z"/><path class="cls-1" d="M117.68 119.67H62.07c-1.1 0-1.99-.89-1.99-1.99V96.66l.82.82a7.906 7.906 0 0 0 5.62 2.33h17.39v5.96c0 1.1.89 1.99 1.99 1.99h7.94c1.1 0 1.99-.89 1.99-1.99v-5.96h17.39c2.11 0 4.13-.83 5.62-2.33l.82-.82v21.02c0 1.1-.89 1.99-1.99 1.99M4.47 4.47h63.56v17.88c0 1.1.89 1.99 1.99 1.99H87.9v35.75H75.98a7.94 7.94 0 0 0-7.94 7.94v7.94h-5.96c-3.29 0-5.96 2.67-5.96 5.96v35.75c0 .68.13 1.35.36 1.99H4.47V4.47ZM72 7.28l13.08 13.08H72V7.28Zm31.78 56.78c2.19 0 3.97 1.78 3.97 3.97v7.94H91.86V64.05h11.92ZM72 75.98v-7.94c0-2.19 1.78-3.97 3.97-3.97h11.92v11.92H72Zm19.86 27.81h-3.97V91.87h3.97v11.92Zm27.81-21.85v9.11l-3.63 3.63c-.74.75-1.76 1.17-2.81 1.16H95.84v-5.96c0-1.1-.89-1.99-1.99-1.99h-7.94c-1.1 0-1.99.89-1.99 1.99v5.96H66.53a3.99 3.99 0 0 1-2.81-1.16l-3.63-3.63v-9.11c0-1.1.89-1.99 1.99-1.99h55.61c1.1 0 1.99.89 1.99 1.99m-1.99-5.96h-5.96v-7.94c0-4.39-3.56-7.94-7.95-7.94H91.86V22.35c0-.53-.21-1.03-.58-1.4L71.42 1.08c-.37-.37-.88-.58-1.4-.58H2.49C1.39.5.5 1.39.5 2.49v119.17c0 1.1.89 1.99 1.99 1.99h115.2c3.29 0 5.96-2.67 5.96-5.96V81.94c0-3.29-2.67-5.96-5.96-5.96"/><path class="cls-2" d="M117.68 119.67H62.07c-1.1 0-1.99-.89-1.99-1.99V96.66l.82.82a7.906 7.906 0 0 0 5.62 2.33h17.39v5.96c0 1.1.89 1.99 1.99 1.99h7.94c1.1 0 1.99-.89 1.99-1.99v-5.96h17.39c2.11 0 4.13-.83 5.62-2.33l.82-.82v21.02c0 1.1-.89 1.99-1.99 1.99ZM4.47 4.47h63.56v17.88c0 1.1.89 1.99 1.99 1.99H87.9v35.75H75.98a7.94 7.94 0 0 0-7.94 7.94v7.94h-5.96c-3.29 0-5.96 2.67-5.96 5.96v35.75c0 .68.13 1.35.36 1.99H4.47V4.47ZM72 7.28l13.08 13.08H72V7.28Zm31.78 56.78c2.19 0 3.97 1.78 3.97 3.97v7.94H91.86V64.05h11.92ZM72 75.98v-7.94c0-2.19 1.78-3.97 3.97-3.97h11.92v11.92H72Zm19.86 27.81h-3.97V91.87h3.97v11.92Zm27.81-21.85v9.11l-3.63 3.63c-.74.75-1.76 1.17-2.81 1.16H95.84v-5.96c0-1.1-.89-1.99-1.99-1.99h-7.94c-1.1 0-1.99.89-1.99 1.99v5.96H66.53a3.99 3.99 0 0 1-2.81-1.16l-3.63-3.63v-9.11c0-1.1.89-1.99 1.99-1.99h55.61c1.1 0 1.99.89 1.99 1.99Zm-1.99-5.96h-5.96v-7.94c0-4.39-3.56-7.94-7.95-7.94H91.85V22.35c0-.53-.21-1.03-.58-1.4L71.42 1.08c-.37-.37-.88-.58-1.4-.58H2.49C1.39.5.5 1.39.5 2.49v119.17c0 1.1.89 1.99 1.99 1.99h115.2c3.29 0 5.96-2.67 5.96-5.96V81.94c0-3.29-2.67-5.96-5.96-5.96Z"/><path class="cls-1" d="M60.08 48.17h23.83v3.97H60.08z"/><path class="cls-2" d="M60.08 48.17h23.83v3.97H60.08z"/><path class="cls-1" d="M60.08 40.22h23.83v3.97H60.08z"/><path class="cls-2" d="M60.08 40.22h23.83v3.97H60.08z"/><path class="cls-1" d="M60.08 32.28h23.83v3.97H60.08z"/><path class="cls-2" d="M60.08 32.28h23.83v3.97H60.08z"/><path class="cls-1" d="M40.22 72h-27.8v-7.94h27.81V72Zm1.99-11.92H10.43c-1.1 0-1.99.89-1.99 1.99v11.92c0 1.1.89 1.99 1.99 1.99h31.78c1.1 0 1.99-.89 1.99-1.99V62.07c0-1.1-.89-1.99-1.99-1.99"/><path class="cls-2" d="M40.22 72h-27.8v-7.94h27.81V72Zm1.99-11.92H10.43c-1.1 0-1.99.89-1.99 1.99v11.92c0 1.1.89 1.99 1.99 1.99h31.78c1.1 0 1.99-.89 1.99-1.99V62.07c0-1.1-.89-1.99-1.99-1.99Z"/><path class="cls-1" d="M14.4 79.95h17.88v3.97H14.4z"/><path class="cls-2" d="M14.4 79.95h17.88v3.97H14.4z"/><path class="cls-1" d="M36.25 79.95h7.95v3.97h-7.95z"/><path class="cls-2" d="M36.25 79.95h7.95v3.97h-7.95z"/><path class="cls-1" d="M8.45 87.89H44.2v3.97H8.45z"/><path class="cls-2" d="M8.45 87.89H44.2v3.97H8.45z"/><path class="cls-1" d="M8.45 95.83H44.2v3.97H8.45z"/><path class="cls-2" d="M8.45 95.83H44.2v3.97H8.45z"/><path class="cls-1" d="M8.45 103.78H44.2v3.97H8.45z"/><path class="cls-2" d="M8.45 103.78H44.2v3.97H8.45z"/></g></svg>