<svg id="Layer_2" data-name="Layer 2" xmlns="http://www.w3.org/2000/svg" viewBox="0 0 84.91 84.91"><defs><style>.cls-2{fill:#43a756}</style></defs><g id="Layer_1-2" data-name="Layer 1"><path d="M42.45 84.91c23.45 0 42.45-19.01 42.45-42.45S65.9 0 42.45 0 0 19.01 0 42.45 19.01 84.9 42.45 84.9" style="fill:#fff"/><path class="cls-2" d="M67.13 50.44c0 1.4-1.14 2.54-2.54 2.54h-6.76c-.13 0-.26.03-.38.08l-5.54 2.77V38.28l5.54 2.77c.12.06.25.09.38.08h6.76c1.4 0 2.54 1.14 2.54 2.54v6.76Zm-.99 12.31c-.16.24-.42.38-.7.38h-1.41c-.34 0-.65-.2-.78-.52l-3.31-7.93h3.24l3.04 7.28c.11.26.08.56-.08.8m-19.3-12.31V36.92c0-.93.76-1.69 1.69-1.69s1.69.76 1.69 1.69v20.29c0 .93-.76 1.69-1.69 1.69s-1.69-.76-1.69-1.69v-6.76Zm-1.69-.99c-1.01-.36-1.69-1.32-1.69-2.39s.68-2.03 1.69-2.39v4.78Zm5.92-27.76a.85.85 0 1 1 .001 1.699.85.85 0 0 1-.001-1.699m-8.45 0a.85.85 0 1 1 .001 1.699.85.85 0 0 1-.001-1.699m-8.45 0a.85.85 0 1 1 .001 1.699.85.85 0 0 1-.001-1.699m-8.45 0a.85.85 0 1 1 .001 1.699.85.85 0 0 1-.001-1.699m28.75 41.43H22.32c-1.4 0-2.54-1.14-2.54-2.54V28.46a.85.85 0 1 0 0-1.7v-5.07c0-1.4 1.14-2.54 2.54-2.54h2.54v1c-1.17.41-1.86 1.6-1.65 2.82.21 1.22 1.26 2.11 2.5 2.11s2.29-.89 2.5-2.11c.21-1.22-.49-2.41-1.65-2.82v-1h6.76v1c-1.16.41-1.86 1.6-1.65 2.82.21 1.22 1.27 2.11 2.5 2.11s2.29-.89 2.5-2.11c.21-1.22-.49-2.41-1.65-2.82v-1h6.76v1c-1.17.41-1.86 1.6-1.65 2.82.21 1.22 1.26 2.11 2.5 2.11s2.29-.89 2.5-2.11c.21-1.22-.49-2.41-1.65-2.82v-1h6.76v1c-1.16.41-1.86 1.6-1.65 2.82.21 1.22 1.27 2.11 2.5 2.11s2.29-.89 2.5-2.11c.21-1.22-.49-2.41-1.65-2.82v-1h2.54c1.4 0 2.54 1.14 2.54 2.54v5.07a.85.85 0 1 0 0 1.7v10.47l-5.13-2.56a3.364 3.364 0 0 0-3.61-2.82c-1.75.14-3.1 1.61-3.1 3.37v6c-1.97.4-3.39 2.13-3.39 4.14s1.42 3.74 3.39 4.14v6a3.378 3.378 0 0 0 6.71.55l5.13-2.56v5.4c0 1.4-1.14 2.54-2.54 2.54m10.15-23.67h-5.92V21.71c0-2.33-1.89-4.22-4.23-4.23h-2.54v-2.54a.85.85 0 1 0-1.7 0v2.54h-6.76v-2.54a.85.85 0 1 0-1.7 0v2.54h-6.76v-2.54a.85.85 0 1 0-1.7 0v2.54h-6.76v-2.54a.85.85 0 1 0-1.7 0v2.54h-2.54c-2.33 0-4.22 1.89-4.23 4.23V60.6c0 2.33 1.89 4.22 4.23 4.23h32.13c2.33 0 4.23-1.89 4.23-4.23v-4.57l3.01 7.23c.39.95 1.32 1.56 2.34 1.56h1.41c.85 0 1.64-.42 2.11-1.13s.56-1.6.23-2.38L65 54.63c2.16-.2 3.82-2.02 3.82-4.19v-6.76c0-2.33-1.89-4.22-4.23-4.23Z"/><path class="cls-2" d="M24.85 27.62a.85.85 0 0 0-.85-.85h-.85a.85.85 0 1 0 0 1.7H24c.47 0 .85-.38.85-.85m2.54.84h.85a.85.85 0 1 0 0-1.7h-.85a.85.85 0 1 0 0 1.7m4.23 0h.85a.85.85 0 1 0 0-1.7h-.85a.85.85 0 1 0 0 1.7m4.22 0h.85a.85.85 0 1 0 0-1.7h-.85a.85.85 0 1 0 0 1.7m4.23 0h.85a.85.85 0 1 0 0-1.7h-.85a.85.85 0 1 0 0 1.7m4.23 0h.85a.85.85 0 1 0 0-1.7h-.85a.85.85 0 1 0 0 1.7m4.23 0h.85a.85.85 0 1 0 0-1.7h-.85a.85.85 0 1 0 0 1.7m4.22 0h.85a.85.85 0 1 0 0-1.7h-.85a.85.85 0 1 0 0 1.7m-28.74 4.23c0 .47.38.85.85.85h5.07a.85.85 0 1 0 0-1.7h-5.07a.85.85 0 0 0-.85.85m8.45 0c0 .47.38.85.85.85h10.15a.85.85 0 1 0 0-1.7H33.31a.85.85 0 0 0-.85.85m10.15 4.23H24.86a.85.85 0 1 0 0 1.7h17.75a.85.85 0 1 0 0-1.7m-17.76 5.07a.85.85 0 1 0 0 1.7h9.3a.85.85 0 1 0 0-1.7h-9.3Zm14.38 5.07H24.86a.85.85 0 1 0 0 1.7h14.37a.85.85 0 1 0 0-1.7"/></g></svg>