<svg id="Layer_2" data-name="Layer 2" xmlns="http://www.w3.org/2000/svg" viewBox="0 0 84.91 84.91"><defs><clipPath id="clippath"><path style="fill:none" d="M0 0h84.91v84.91H0z"/></clipPath><style>.cls-4{fill:#43a756}</style></defs><g id="Layer_1-2" data-name="Layer 1"><g style="clip-path:url(#clippath)"><path d="M42.45 84.91c23.45 0 42.45-19.01 42.45-42.45S65.9 0 42.45 0 0 19.01 0 42.45 19.01 84.9 42.45 84.9" style="fill:#fff"/></g><path class="cls-4" d="M21.02 65.48c-.33 0-.6-.27-.6-.6s.27-.6.6-.6.6.27.6.6-.27.6-.6.6m0-3.6c-1.65 0-3 1.35-3 3s1.34 3 3 3 3-1.34 3-3-1.34-3-3-3"/><path class="cls-4" d="M68.83 49.47 53.95 64.03h-5.51c-.66 0-1.2.54-1.2 1.2s.54 1.2 1.2 1.2h4.8v2.4h-7.19V55.88c0-.37-.17-.72-.47-.95l-1.17-.91c15.27-11.81 14.54-11.25 14.57-11.28.71-.6 1.76-.62 2.49-.03.94.75.99 2.17.1 2.98L52.5 54a1.19 1.19 0 0 0-.07 1.69c.45.49 1.21.52 1.69.07l9.07-8.31a4.353 4.353 0 0 0 1.27-4.35c.02-.14.01.86-.12-15.7 0-1.23 1.01-2.24 2.24-2.24s2.24 1.01 2.24 2.24v22.06ZM41.26 68.82V56.46l1.2-.93 1.2.93v12.36h-2.4Zm-9.59-2.4h4.79c.66 0 1.2-.54 1.2-1.2s-.54-1.2-1.2-1.2h-5.51L16.07 49.46V27.4c0-1.23 1.01-2.24 2.24-2.24s2.24 1.01 2.24 2.23c-.13 16.57-.14 15.57-.12 15.71a4.36 4.36 0 0 0 1.27 4.35l9.07 8.31c.49.45 1.25.41 1.69-.07.45-.49.41-1.25-.07-1.69l-9.07-8.31c-.89-.82-.84-2.23.1-2.98a1.96 1.96 0 0 1 2.49.03c.03.03-.67-.52 14.57 11.28l-1.17.91c-.29.23-.46.58-.46.95v12.95h-7.19v-2.4Zm34.92-43.65c-2.56 0-4.64 2.08-4.64 4.65l.1 12.85c-1.49-.67-3.29-.47-4.59.62L42.45 52.5 27.44 40.89a4.393 4.393 0 0 0-4.59-.62l.1-12.86c0-2.56-2.08-4.64-4.64-4.64s-4.64 2.08-4.64 4.64v22.56c0 .32.13.63.36.86l15.22 14.9v4.29c0 .66.54 1.2 1.2 1.2h23.98c.66 0 1.2-.54 1.2-1.2v-4.29l15.23-14.9c.23-.23.36-.53.36-.86V27.41c0-2.56-2.08-4.64-4.64-4.64"/><path class="cls-4" d="M52.04 39.46c0 .33-.27.6-.6.6s-.6-.27-.6-.6.27-.6.6-.6.6.27.6.6m-3.6 0c0 1.65 1.34 3 3 3s3-1.34 3-3-1.34-3-3-3-3 1.34-3 3m-14.98.6c-.33 0-.6-.27-.6-.6s.27-.6.6-.6.6.27.6.6c0 .33-.27.6-.6.6m0-3.6c-1.65 0-3 1.35-3 3s1.34 3 3 3 3-1.34 3-3-1.34-3-3-3m32.97 28.77c-.66 0-1.2-.54-1.2-1.2s.54-1.2 1.2-1.2 1.2.54 1.2 1.2-.54 1.2-1.2 1.2m0-4.8c-1.98 0-3.6 1.61-3.6 3.6s1.61 3.6 3.6 3.6 3.6-1.61 3.6-3.6-1.61-3.6-3.6-3.6m-5.99-44.35c.66 0 1.2.54 1.2 1.2s-.54 1.2-1.2 1.2-1.2-.54-1.2-1.2.54-1.2 1.2-1.2m0 4.79c1.98 0 3.6-1.61 3.6-3.6s-1.61-3.6-3.6-3.6-3.6 1.61-3.6 3.6 1.61 3.6 3.6 3.6"/><path class="cls-4" d="M36.94 19.5c-1.89 2.72-2.94 6.43-3.44 9.69a5.342 5.342 0 0 0-5.14-1.2c1.72-3.96 4.8-6.98 8.58-8.49m19.62 8.49a5.337 5.337 0 0 0-5.15 1.19c-.61-4.07-1.82-7.41-3.42-9.71 3.78 1.5 6.86 4.54 8.56 8.52m-12.91.7V18.68c2.23.96 4.19 4.62 5.16 9.55a5.268 5.268 0 0 0-5.16.46m-7.55-.47c.98-4.88 2.93-8.52 5.15-9.52v9.99a5.28 5.28 0 0 0-5.15-.48M25.66 32.7c.59.18 1.21-.12 1.45-.68.57-1.35 1.99-2.12 3.41-1.79 1.37.32 2.33 1.57 2.33 3.02 0 .66.54 1.2 1.2 1.2s1.2-.54 1.2-1.2c0-.41.08-.81.22-1.17.02-.04.04-.09.06-.14.48-1.06 1.51-1.8 2.71-1.8 1.65 0 2.99 1.39 2.99 3.1v10.99c0 .33-.27.6-.6.6s-.6-.27-.6-.6c0-.66-.54-1.2-1.2-1.2s-1.2.54-1.2 1.2c0 1.65 1.35 3 3 3s3-1.34 3-3V33.06c.09-1.62 1.4-2.92 2.99-2.92 1.21 0 2.25.75 2.73 1.82.02.05.03.09.06.13.14.35.21.74.21 1.15 0 .66.54 1.2 1.2 1.2s1.2-.54 1.2-1.2c0-1.71 1.34-3.1 2.99-3.1 1.2 0 2.28.74 2.76 1.88.23.57.86.87 1.45.69.59-.17.95-.76.84-1.37-1.51-8.19-7.9-14.77-16.42-15.31v-1.18c0-.66-.54-1.2-1.2-1.2s-1.2.54-1.2 1.2v1.19c-8.28.61-14.84 6.94-16.41 15.26-.11.6.24 1.19.83 1.37"/></g></svg>