<svg data-name="Layer 2" xmlns="http://www.w3.org/2000/svg" viewBox="0 0 84.91 84.91"><g data-name="Layer 1"><path d="M42.45 84.91c23.45 0 42.45-19.01 42.45-42.45S65.9 0 42.45 0 0 19.01 0 42.45 19.01 84.9 42.45 84.9" style="fill:#fff"/><path d="M34.06 19.4c.62 0 1.12.5 1.12 1.12s-.5 1.12-1.12 1.12-1.12-.5-1.12-1.12.5-1.12 1.12-1.12m0 4.08a2.97 2.97 0 1 0 0-5.94 2.97 2.97 0 0 0 0 5.94m-4.59-6.55 1.64.69c.29.12.63.08.89-.1.15-.1.31-.2.5-.29.28-.13.48-.4.52-.72l.23-1.77h1.61l.23 1.77c.04.31.24.58.52.72.18.08.34.18.49.28.26.18.6.22.89.1l1.64-.69.81 1.4-1.42 1.08c-.25.19-.38.5-.36.81 0 .08.01.17.01.29s0 .2-.01.29c-.03.31.11.62.36.81l1.42 1.08-.81 1.4-1.64-.69a.922.922 0 0 0-.88.09c-.17.12-.34.21-.5.29-.29.13-.48.41-.52.72l-.23 1.77h-1.62l-.23-1.77a.927.927 0 0 0-.52-.72c-.17-.08-.34-.18-.5-.29a.924.924 0 0 0-.88-.1l-1.65.69-.81-1.4 1.42-1.08c.25-.19.39-.5.36-.81 0-.11-.01-.2-.01-.29s0-.18.01-.29a.917.917 0 0 0-.36-.81l-1.42-1.09.81-1.4Zm-2.24 4.53c-.56.44-.71 1.22-.36 1.83l1.19 2.06c.36.62 1.12.87 1.77.59l1.43-.6.2 1.54c.09.7.7 1.23 1.41 1.23h2.37c.71 0 1.31-.53 1.4-1.23l.2-1.54 1.42.59c.65.28 1.42.03 1.78-.59l1.19-2.05c.36-.61.2-1.4-.36-1.84l-1.23-.94 1.23-.94c.57-.43.73-1.22.37-1.84l-1.19-2.05c-.35-.61-1.11-.87-1.77-.6l-1.43.6-.2-1.54c-.09-.7-.7-1.24-1.4-1.24h-2.37c-.71 0-1.32.53-1.41 1.24l-.2 1.54-1.43-.6c-.66-.27-1.42-.01-1.77.6l-1.19 2.06c-.35.61-.2 1.4.37 1.83l1.24.94-1.23.94h-.01m21.37-2.24c0-.9.54-1.68 1.31-2.02v-.43c0-.51.41-.92.92-.92s.92.41.92.92v.33c.45.14.85.42 1.13.8.31.41.22.99-.19 1.29-.41.3-.99.22-1.29-.19a.37.37 0 0 0-.3-.15h-.3a.365.365 0 0 0 0 .73h.15c.07 0 .14.01.21.03 1.07.16 1.9 1.08 1.9 2.19 0 .9-.54 1.68-1.31 2.02v.42c0 .51-.41.92-.92.92s-.92-.41-.92-.92v-.33a2.27 2.27 0 0 1-1.13-.8c-.3-.41-.22-.99.19-1.29.41-.3.99-.22 1.29.19.04.05.13.15.3.15h.3c.2 0 .36-.17.36-.37s-.16-.36-.36-.36h-.15c-.07 0-.14 0-.21-.03a2.219 2.219 0 0 1-1.9-2.19m2.24-4.24c3.05 0 5.53 2.48 5.53 5.53s-2.48 5.52-5.53 5.52-5.52-2.48-5.52-5.52 2.48-5.53 5.52-5.53m0 12.9c4.07 0 7.38-3.31 7.38-7.37s-3.31-7.37-7.38-7.37-7.37 3.31-7.37 7.37 3.31 7.37 7.37 7.37M42.47 31c1 0 1.82.82 1.82 1.82s-.82 1.82-1.82 1.82a1.82 1.82 0 0 1 0-3.64m3.4 7.95s.02.04.04.06c.27.44.42.96.42 1.51v2.94h-7.72v-2.94c0-.54.15-1.05.4-1.48.03-.04.05-.08.07-.12.52-.81 1.43-1.34 2.46-1.34h1.85c1.04 0 1.96.55 2.48 1.37m4.09-1.37h1.85c1.62 0 2.94 1.32 2.94 2.94v2.94h-6.56v-2.94c0-.69-.15-1.35-.41-1.94.55-.62 1.36-1 2.19-1Zm.92-6.59c1 0 1.82.82 1.82 1.82s-.82 1.82-1.82 1.82a1.82 1.82 0 0 1 0-3.64m-20.69 9.53c0-1.62 1.32-2.94 2.94-2.94h1.85c.85 0 1.64.36 2.2.99-.27.59-.41 1.25-.41 1.94v2.94h-6.56v-2.94Zm3.86-9.53c1 0 1.82.82 1.82 1.82s-.82 1.82-1.82 1.82a1.82 1.82 0 0 1 0-3.64m4.75 1.82c0 1.27.65 2.39 1.63 3.05-.83.2-1.57.61-2.17 1.18-.61-.58-1.36-.98-2.17-1.18.98-.66 1.63-1.78 1.63-3.05 0-2.02-1.65-3.67-3.67-3.67s-3.67 1.65-3.67 3.67c0 1.27.65 2.39 1.63 3.05-2.1.5-3.67 2.4-3.67 4.66v3.33c0 .81.66 1.46 1.46 1.46h25.32c.81 0 1.46-.66 1.46-1.46v-3.33c0-2.26-1.57-4.15-3.67-4.66.98-.66 1.63-1.78 1.63-3.05 0-2.02-1.65-3.67-3.67-3.67s-3.67 1.65-3.67 3.67c0 1.27.65 2.39 1.64 3.05-.81.2-1.56.6-2.17 1.18-.6-.57-1.35-.98-2.18-1.18.98-.66 1.63-1.78 1.63-3.05 0-2.02-1.65-3.67-3.67-3.67s-3.67 1.65-3.67 3.67m24.31 21.34c-.04 1.46-.6 2.69-1.68 3.67L59.01 60c-1.47 1.33-2.24 3.01-2.29 5v.16h-8.59l.16-6.56c.05-2.11.88-3.9 2.44-5.32l6.59-5.96c.43-.4 1.07-.5 1.63-.27.02 0 .04.01.06.02l.06.03a1.535 1.535 0 0 1 .32 2.5l-1.83 1.66-3.76 3.4a.91.91 0 0 0-.06 1.3c.18.2.43.3.68.3.22 0 .44-.08.62-.24 1.25-1.14 2.5-2.27 3.76-3.4l1.83-1.66a3.381 3.381 0 0 0 .24-4.77c-.18-.21-.39-.38-.62-.54l.2-7.85a1.53 1.53 0 1 1 3.06.08l-.41 16.28Zm-3.8 15.97H45.47v-3.13h12.09s.01.01.02.01h1.71v3.12Zm5.13-34.61a3.315 3.315 0 0 0-2.36-1.05 3.39 3.39 0 0 0-3.47 3.29l-.18 7.32c-.85-.02-1.69.29-2.33.87l-6.59 5.96c-1.95 1.77-2.98 4-3.05 6.64l-.16 6.6h-1.09c-.86 0-1.57.7-1.57 1.56v3.68c0 .86.7 1.57 1.56 1.57h14.39c.86.01 1.57-.69 1.57-1.55v-3.68c0-.87-.7-1.57-1.56-1.57h-1.02v-.11c.04-1.46.61-2.7 1.69-3.67l2.4-2.18c1.47-1.33 2.24-3.01 2.29-4.99l.41-16.28c.02-.9-.31-1.76-.93-2.41m-38.8 34.61V67h13.81v3.11H25.61Zm2.57-5.13c-.05-1.98-.82-3.66-2.29-4.99l-2.41-2.18c-1.08-.98-1.65-2.21-1.68-3.67l-.41-16.28c-.01-.41.14-.79.42-1.09.28-.3.66-.47 1.07-.48.85-.02 1.55.65 1.57 1.49l.2 7.85c-.22.15-.43.33-.61.53-1.25 1.38-1.14 3.52.24 4.78l1.81 1.64 3.78 3.42c.18.16.4.24.62.24.25 0 .5-.1.68-.3a.94.94 0 0 0-.06-1.31l-3.78-3.42-1.81-1.64c-.63-.57-.68-1.54-.11-2.17.12-.14.27-.25.42-.33.02 0 .04-.02.05-.03.02 0 .04-.01.06-.02.55-.23 1.19-.12 1.63.28l6.59 5.96c1.57 1.42 2.39 3.2 2.44 5.32l.17 6.56h-8.59V65Zm11.52.15h-1.08l-.17-6.6c-.07-2.64-1.09-4.87-3.05-6.64-2.2-1.99-4.39-3.98-6.59-5.96-.64-.59-1.48-.89-2.33-.87l-.18-7.32a3.39 3.39 0 0 0-5.84-2.24c-.62.66-.96 1.51-.93 2.41l.41 16.28c.05 1.98.82 3.66 2.29 4.99l2.41 2.18c1.08.98 1.65 2.21 1.68 3.67v.11h-1.02c-.42 0-.81.17-1.11.46-.3.3-.46.7-.45 1.11v3.68c0 .86.71 1.56 1.57 1.56h14.39c.86-.01 1.56-.72 1.56-1.58V66.7c0-.86-.7-1.57-1.57-1.57" style="fill:#2566af"/></g></svg>