<svg data-name="Layer 2" xmlns="http://www.w3.org/2000/svg" viewBox="0 0 96.6 96.6"><path d="M68.43 96.6H28.18c-1.11 0-2.01-.9-2.01-2.01V82.52c0-1.11.9-2.01 2.01-2.01v-5.2l-7.46-7.46c-.38-.38-.59-.89-.59-1.42V54.36h4.03V65.6l7.46 7.46c.38.38.59.89.59 1.42v6.04h32.2v-6.04c0-.53.21-1.05.59-1.42l7.46-7.46V54.36h4.03v12.07c0 .53-.21 1.05-.59 1.42l-7.46 7.46v5.2c1.11 0 2.01.9 2.01 2.01v12.07c0 1.11-.9 2.01-2.01 2.01Zm-38.24-4.02h36.22v-8.05H30.19v8.05Zm16.1-22.14h-4.03v-9.06l-7.24-5.43c-.51-.38-.81-.98-.81-1.61V40.25c0-3.33-2.71-6.04-6.04-6.04h-2.01c-1.11 0-2.01.9-2.01 2.01v18.11h-4.03v-2.01H2.01C.9 52.32 0 51.42 0 50.31V2.01C0 .9.9 0 2.01 0h92.57c1.11 0 2.01.9 2.01 2.01v48.3c0 1.11-.9 2.01-2.01 2.01H42.26V48.3h50.31V4.02H4.03v44.27h16.1V36.22c0-3.33 2.71-6.04 6.04-6.04h2.01c5.55 0 10.06 4.51 10.06 10.06v13.08l7.24 5.43c.51.38.81.98.81 1.61v10.06Zm42.26-26.16h-4.02v-4.02h4.02v4.02Zm-76.48 0H8.05v-4.02h4.02v4.02Zm38.24 0h-4.03V40c-3.47-.9-6.04-4.05-6.04-7.8h4.03c0 2.22 1.81 4.03 4.02 4.03s4.02-1.81 4.02-4.03-1.81-4.02-4.02-4.02c-4.44 0-8.05-3.61-8.05-8.05 0-3.74 2.57-6.9 6.04-7.8V8.05h4.03v4.28c3.47.9 6.04 4.05 6.04 7.8h-4.03c0-2.22-1.81-4.03-4.02-4.03s-4.02 1.81-4.02 4.03 1.81 4.02 4.02 4.02c4.44 0 8.05 3.61 8.05 8.05 0 3.74-2.57 6.9-6.04 7.8v4.28Zm22.14-10.06c-4.44 0-8.05-3.61-8.05-8.05s3.61-8.05 8.05-8.05 8.05 3.61 8.05 8.05-3.61 8.05-8.05 8.05Zm0-12.07c-2.22 0-4.03 1.81-4.03 4.02s1.81 4.02 4.03 4.02 4.02-1.81 4.02-4.02-1.81-4.02-4.02-4.02Zm-54.3 9.39a8.023 8.023 0 0 1-2.05-5.36c0-4.44 3.61-8.05 8.05-8.05s8.05 3.61 8.05 8.05c0 .92-.15 1.82-.46 2.68l-3.8-1.34c.15-.43.23-.88.23-1.34 0-2.22-1.81-4.02-4.02-4.02s-4.03 1.81-4.03 4.02c0 .99.36 1.94 1.02 2.68l-3 2.68Zm70.4-19.47h-4.02V8.05h4.02v4.02Zm-76.48 0H8.05V8.05h4.02v4.02Z" style="fill:#fff" data-name="Layer 1"/></svg>