<svg id="Layer_2" data-name="Layer 2" xmlns="http://www.w3.org/2000/svg" viewBox="0 0 828 287.49"><defs><linearGradient id="linear-gradient" x1="18" y1="231.01" x2="799" y2="231.01" gradientUnits="userSpaceOnUse"><stop offset="0" stop-color="#1e6f41"/><stop offset=".01" stop-color="#1e6f41"/><stop offset=".5" stop-color="#05933f"/><stop offset="1" stop-color="#c4d64e"/><stop offset="1" stop-color="#c4d64e"/></linearGradient><linearGradient id="linear-gradient-2" x1="-4909.75" y1="2697.48" x2="-4908.7" y2="2697.48" gradientTransform="matrix(786.36 0 0 -786.36 3860853.09 2121244.9)" gradientUnits="userSpaceOnUse"><stop offset="0" stop-color="#00acec"/><stop offset=".37" stop-color="#4087c7"/><stop offset=".79" stop-color="#2566af"/><stop offset=".99" stop-color="#1c336e"/><stop offset="1" stop-color="#1c336e"/></linearGradient><style>.cls-2{fill:#fff}</style></defs><g id="Layer_1-2" data-name="Layer 1"><rect class="cls-2" y=".49" width="828" height="287" rx="16.93" ry="16.93"/><path d="M27 125.97h781M24 160.99h781M21 196h781" style="fill:none;stroke-miterlimit:10;stroke:#009b3e;stroke-width:.78px"/><path style="stroke:url(#linear-gradient);stroke-width:4px;fill:none;stroke-miterlimit:10" d="M18 231.01h781"/><path style="fill:url(#linear-gradient-2)" d="M0 0h828v88.99H0z"/><path d="M215.62 88.6V.19m101 88.41V.19m162 88.41V.19m100 88.41V.19m144 88.41V.19" style="stroke:#fff;stroke-width:.39px;fill:none;stroke-miterlimit:10"/><path class="cls-2" d="M111.72 38h-4.01v11.49h-2.21V38h-4.01v-1.78h10.23V38Zm3.77-.78h-2.21v-1.94h2.21v1.94Zm0 12.27h-2.21v-9.86h2.21v9.86Zm11.28-4.6c0 1.43-.34 2.59-1.01 3.47s-1.61 1.32-2.82 1.32c-.56 0-1.05-.1-1.49-.3-.43-.2-.8-.5-1.11-.88v4.78h-2.21V39.63H120l.22 1.24c.32-.46.7-.81 1.14-1.06.45-.24.96-.37 1.55-.37 1.21 0 2.16.48 2.84 1.44s1.02 2.23 1.02 3.8v.19Zm-2.21-.2c0-1.01-.19-1.83-.57-2.47-.38-.64-.95-.96-1.7-.96-.46 0-.85.1-1.18.3s-.58.47-.77.82v4.45c.19.35.45.61.77.8.32.19.72.28 1.19.28.75 0 1.32-.28 1.69-.83s.56-1.28.56-2.19v-.19Zm3.92-.22c0-1.46.4-2.67 1.2-3.61.81-.94 1.92-1.41 3.31-1.41s2.52.47 3.33 1.41 1.21 2.14 1.21 3.61v.19c0 1.48-.4 2.69-1.21 3.63-.8.93-1.9 1.39-3.31 1.39s-2.52-.47-3.33-1.4c-.8-.94-1.2-2.14-1.2-3.62v-.19Zm2.21.19c0 .96.19 1.74.57 2.35.37.6.95.9 1.75.9s1.35-.3 1.73-.9c.39-.61.58-1.39.58-2.35v-.19c0-.94-.19-1.71-.58-2.32-.38-.61-.97-.92-1.75-.92s-1.35.31-1.73.92c-.38.61-.57 1.39-.57 2.32v.19Zm125.85 4.83h-8.81v-1.53l4.32-4.7c.7-.77 1.19-1.4 1.46-1.9s.4-.98.4-1.45c0-.6-.17-1.09-.52-1.49-.35-.4-.81-.6-1.4-.6-.78 0-1.36.22-1.73.66-.38.44-.57 1.04-.57 1.8h-2.14l-.02-.05c-.03-1.18.36-2.17 1.16-2.97s1.9-1.21 3.3-1.21c1.28 0 2.28.35 3.02 1.06.74.7 1.11 1.62 1.11 2.76 0 .76-.21 1.49-.64 2.18-.43.69-1.09 1.53-1.99 2.52l-2.95 3.11.03.05h5.98v1.78Zm10.63-5.11c0 1.72-.39 3.04-1.17 3.95-.78.91-1.83 1.36-3.17 1.36s-2.41-.45-3.19-1.36c-.78-.91-1.17-2.22-1.17-3.95v-3.03c0-1.72.39-3.03 1.17-3.95s1.84-1.37 3.18-1.37 2.4.46 3.18 1.37c.78.91 1.17 2.23 1.17 3.95v3.03Zm-2.21-3.37c0-1.09-.18-1.89-.55-2.41-.36-.52-.9-.78-1.59-.78s-1.23.26-1.59.78c-.36.52-.54 1.33-.54 2.41v3.69c0 1.09.18 1.9.55 2.43.37.53.9.79 1.6.79s1.23-.26 1.59-.78c.36-.52.54-1.33.54-2.43v-3.69Zm13.16 8.48h-8.81v-1.53l4.32-4.7c.7-.77 1.19-1.4 1.46-1.9s.4-.98.4-1.45c0-.6-.17-1.09-.52-1.49-.35-.4-.81-.6-1.4-.6-.78 0-1.35.22-1.73.66-.38.44-.57 1.04-.57 1.8h-2.14l-.02-.05c-.03-1.18.36-2.17 1.16-2.97.8-.8 1.9-1.21 3.3-1.21 1.28 0 2.28.35 3.03 1.06.74.7 1.11 1.62 1.11 2.76 0 .76-.21 1.49-.64 2.18s-1.09 1.53-1.99 2.52l-2.95 3.11.03.05h5.98v1.78Zm10.79 0h-8.81v-1.53l4.32-4.7c.71-.77 1.19-1.4 1.46-1.9s.4-.98.4-1.45c0-.6-.17-1.09-.52-1.49-.35-.4-.81-.6-1.4-.6-.78 0-1.35.22-1.73.66s-.56 1.04-.56 1.8h-2.14l-.02-.05c-.03-1.18.36-2.17 1.16-2.97.8-.8 1.9-1.21 3.3-1.21 1.28 0 2.28.35 3.02 1.06.74.7 1.11 1.62 1.11 2.76 0 .76-.21 1.49-.64 2.18s-1.09 1.53-1.99 2.52l-2.95 3.11.03.05h5.98v1.78Zm47.7-34.04c0-.78.25-1.43.75-1.95.5-.53 1.19-.79 2.05-.79s1.56.26 2.06.78.75 1.18.75 1.96v.7c0 .78-.25 1.43-.75 1.95s-1.18.78-2.04.78-1.56-.26-2.07-.78c-.5-.52-.76-1.17-.76-1.95v-.7Zm1.54.7c0 .39.11.72.33.99.22.27.54.41.95.41s.71-.13.92-.4c.22-.27.32-.6.32-.99v-.7c0-.39-.11-.73-.33-1s-.53-.41-.93-.41-.72.14-.94.41-.33.61-.33 1v.7Zm1.74 9.02-1.14-.66 6.48-10.37 1.14.66-6.48 10.37Zm3.1-2.26c0-.77.25-1.42.76-1.95s1.19-.79 2.05-.79 1.56.26 2.06.78.75 1.17.75 1.95v.71c0 .78-.25 1.43-.75 1.95s-1.18.78-2.05.78-1.56-.26-2.07-.78-.76-1.17-.76-1.95v-.71Zm1.54.71c0 .39.11.72.34.99.23.27.54.41.94.41.43 0 .74-.13.95-.4.21-.26.31-.6.31-1.01v-.71c0-.39-.11-.72-.33-.99-.22-.27-.54-.41-.94-.41s-.72.14-.94.41-.33.6-.33.99v.71Zm19.7-2.05c0 1.43-.34 2.59-1.01 3.47-.67.88-1.61 1.32-2.81 1.32-.56 0-1.05-.1-1.49-.3-.43-.2-.8-.5-1.11-.88v4.78h-2.21V16.31h1.87l.22 1.24c.32-.46.7-.81 1.14-1.06.45-.24.96-.37 1.55-.37 1.21 0 2.16.48 2.84 1.44s1.02 2.23 1.02 3.8v.19Zm-2.21-.2c0-1.01-.19-1.83-.57-2.47s-.95-.96-1.7-.96c-.46 0-.85.1-1.17.3-.32.2-.58.47-.78.82v4.45c.2.35.45.61.78.8.32.19.72.28 1.19.28.75 0 1.32-.28 1.69-.83.37-.55.56-1.28.56-2.19v-.19Zm10.26 4.8c-.08-.25-.14-.49-.2-.73a5.81 5.81 0 0 1-.11-.71c-.3.46-.7.85-1.2 1.16-.5.31-1.05.47-1.66.47-1.03 0-1.81-.26-2.36-.79s-.82-1.25-.82-2.18.38-1.7 1.13-2.23c.75-.53 1.81-.8 3.18-.8h1.72v-.87c0-.52-.15-.92-.46-1.21-.3-.29-.74-.44-1.3-.44-.5 0-.91.12-1.2.36-.3.24-.45.56-.45.94h-2.13v-.05c-.05-.78.29-1.47 1.03-2.07s1.7-.9 2.88-.9 2.07.29 2.78.88 1.06 1.42 1.06 2.51v4.38c0 .41.03.8.08 1.17.05.37.14.74.26 1.1h-2.24Zm-2.71-1.58c.56 0 1.06-.14 1.51-.42.45-.28.74-.6.89-.96v-1.46h-1.76c-.64 0-1.15.16-1.51.48-.36.32-.55.69-.55 1.12 0 .38.12.68.37.9s.6.33 1.05.33Zm12.01-6.28-.95-.04c-.43 0-.79.09-1.08.27-.29.18-.51.44-.67.77v6.85h-2.21V16.3h2.02l.15 1.43c.25-.5.57-.9.96-1.18s.84-.43 1.35-.43c.13 0 .26.01.37.03s.22.05.32.08l-.26 2.07Zm4.93-4.4v2.4h1.77v1.64h-1.77v5.45c0 .41.09.7.26.87.18.17.41.26.7.26.12 0 .24-.01.36-.03s.22-.05.33-.09l.24 1.62c-.19.1-.41.18-.67.24-.26.06-.53.09-.81.09-.81 0-1.45-.24-1.91-.71-.46-.48-.69-1.23-.69-2.25v-5.45h-1.5v-1.64h1.5v-2.4h2.21Zm6.28-.01h-2.21v-1.94h2.21v1.94Zm0 12.27h-2.21v-9.86h2.21v9.86Zm6.72-1.59c.54 0 1-.16 1.37-.48.37-.32.56-.71.56-1.19h2l.02.05c.03.92-.35 1.72-1.12 2.39-.78.67-1.72 1-2.82 1-1.45 0-2.56-.47-3.34-1.4-.77-.94-1.16-2.12-1.16-3.55v-.32c0-1.43.39-2.61 1.16-3.55.78-.94 1.89-1.41 3.34-1.41 1.18 0 2.15.34 2.88 1.03.74.69 1.1 1.57 1.07 2.63l-.02.05h-2.01c0-.54-.18-1-.53-1.38-.36-.38-.82-.56-1.39-.56-.83 0-1.42.3-1.77.91-.35.6-.52 1.36-.52 2.27v.32c0 .93.17 1.69.52 2.29.35.6.94.9 1.77.9Zm8.25-10.68h-2.21v-1.94h2.21v1.94Zm0 12.27h-2.21v-9.86h2.21v9.86Zm11.29-4.6c0 1.43-.34 2.59-1.01 3.47-.67.88-1.61 1.32-2.81 1.32-.56 0-1.05-.1-1.49-.3-.43-.2-.8-.5-1.11-.88v4.78h-2.21V16.31h1.87l.22 1.24c.32-.46.7-.81 1.14-1.06.45-.24.96-.37 1.55-.37 1.21 0 2.16.48 2.84 1.44s1.02 2.23 1.02 3.8v.19Zm-2.21-.2c0-1.01-.19-1.83-.57-2.47s-.95-.96-1.7-.96c-.46 0-.85.1-1.17.3-.32.2-.58.47-.78.82v4.45c.2.35.45.61.78.8.32.19.72.28 1.19.28.75 0 1.32-.28 1.69-.83.37-.55.56-1.28.56-2.19v-.19Zm10.26 4.8c-.08-.25-.14-.49-.2-.73-.05-.24-.09-.47-.1-.71-.3.46-.7.85-1.2 1.16-.49.31-1.05.47-1.66.47-1.03 0-1.81-.26-2.37-.79-.55-.53-.82-1.25-.82-2.18s.38-1.7 1.13-2.23c.75-.53 1.81-.8 3.18-.8h1.72v-.87c0-.52-.15-.92-.46-1.21-.3-.29-.74-.44-1.3-.44-.5 0-.91.12-1.2.36-.3.24-.45.56-.45.94h-2.13v-.05c-.05-.78.3-1.47 1.03-2.07.74-.6 1.7-.9 2.88-.9s2.07.29 2.78.88c.7.58 1.06 1.42 1.06 2.51v4.38c0 .41.03.8.08 1.17.05.37.14.74.26 1.1h-2.24Zm-2.72-1.58c.56 0 1.06-.14 1.51-.42.45-.28.74-.6.89-.96v-1.46h-1.76c-.64 0-1.15.16-1.51.48-.36.32-.55.69-.55 1.12 0 .38.12.68.37.9s.6.33 1.05.33Zm11.19-.01c.54 0 1-.16 1.37-.48.37-.32.56-.71.56-1.19h2l.02.05c.03.92-.34 1.72-1.12 2.39-.78.67-1.72 1-2.82 1-1.45 0-2.56-.47-3.34-1.4s-1.16-2.12-1.16-3.55v-.32c0-1.43.39-2.61 1.16-3.55s1.89-1.41 3.34-1.41c1.18 0 2.15.34 2.88 1.03.74.69 1.09 1.57 1.07 2.63l-.02.05h-2.01c0-.54-.18-1-.53-1.38-.36-.38-.82-.56-1.39-.56-.83 0-1.42.3-1.77.91-.35.6-.52 1.36-.52 2.27v.32c0 .93.17 1.69.52 2.29.35.6.94.9 1.77.9Zm8.25-10.68h-2.21v-1.94h2.21v1.94Zm0 12.27h-2.21v-9.86h2.21v9.86Zm2.24-5.02c0-1.46.4-2.67 1.2-3.61.81-.94 1.92-1.41 3.31-1.41s2.52.47 3.33 1.41 1.21 2.14 1.21 3.61v.19c0 1.48-.4 2.69-1.21 3.63-.8.93-1.9 1.39-3.31 1.39s-2.52-.47-3.33-1.4c-.8-.94-1.2-2.14-1.2-3.62v-.19Zm2.21.19c0 .96.19 1.74.57 2.35.37.6.95.9 1.75.9s1.35-.3 1.73-.9c.39-.61.58-1.39.58-2.35v-.19c0-.94-.19-1.71-.58-2.32-.38-.61-.97-.92-1.75-.92s-1.35.31-1.73.92c-.38.61-.57 1.39-.57 2.32v.19Zm2.97-8.86h2.45l.02.05-2.49 2.37h-1.72l1.74-2.42Zm7.99 3.83.13 1.42c.32-.5.73-.9 1.22-1.18.49-.28 1.04-.42 1.65-.42 1.03 0 1.83.31 2.4.93.57.62.86 1.59.86 2.91v6.2h-2.21v-6.18c0-.74-.15-1.27-.46-1.58-.31-.31-.77-.47-1.4-.47-.43 0-.82.1-1.16.29-.34.19-.62.45-.84.79v7.15h-2.21v-9.86h2.02Zm-95.88 28.58c0 1.43-.34 2.59-1.01 3.47-.67.88-1.61 1.32-2.81 1.32-.56 0-1.05-.1-1.49-.3-.43-.2-.8-.5-1.11-.88v4.78h-2.21V39.63h1.87l.22 1.24c.32-.46.7-.81 1.14-1.06.45-.24.96-.37 1.55-.37 1.21 0 2.16.48 2.84 1.44s1.02 2.23 1.02 3.8v.19Zm-2.21-.2c0-1.01-.19-1.83-.57-2.47s-.95-.96-1.7-.96c-.46 0-.85.1-1.17.3-.32.2-.58.47-.78.82v4.45c.2.35.45.61.78.8.32.19.72.28 1.19.28.75 0 1.32-.28 1.69-.83.37-.55.56-1.28.56-2.19v-.19Zm3.91-.22c0-1.46.4-2.67 1.2-3.61.81-.94 1.92-1.41 3.31-1.41s2.52.47 3.33 1.41 1.21 2.14 1.21 3.61v.19c0 1.48-.4 2.69-1.21 3.63-.8.93-1.9 1.39-3.31 1.39s-2.52-.47-3.33-1.4c-.8-.94-1.2-2.14-1.2-3.62v-.19Zm2.21.19c0 .96.19 1.74.57 2.35.37.6.95.9 1.75.9s1.35-.3 1.73-.9c.39-.61.58-1.39.58-2.35v-.19c0-.94-.19-1.71-.58-2.32-.38-.61-.97-.92-1.75-.92s-1.35.31-1.73.92c-.38.61-.57 1.39-.57 2.32v.19Zm13.87-3.03-.95-.04c-.43 0-.79.09-1.08.27-.29.18-.51.44-.67.77v6.85h-2.21v-9.86h2.02l.15 1.43c.25-.5.57-.9.96-1.18.39-.29.84-.43 1.35-.43.13 0 .26.01.37.03s.22.05.32.08l-.26 2.07Zm9.3-4.39v2.4h1.77v1.64h-1.77v5.45c0 .41.09.7.26.87.18.17.41.26.7.26.12 0 .24-.01.36-.03s.22-.05.33-.09l.24 1.62c-.19.1-.41.18-.67.24-.26.06-.53.09-.81.09-.81 0-1.45-.24-1.91-.71-.46-.48-.69-1.23-.69-2.25v-5.45h-1.5v-1.64h1.5v-2.4h2.21Zm6.28-.02h-2.21v-1.94h2.21v1.94Zm0 12.27h-2.21v-9.86h2.21v9.86Zm11.29-4.6c0 1.43-.34 2.59-1.01 3.47s-1.61 1.32-2.82 1.32c-.56 0-1.05-.1-1.49-.3-.43-.2-.8-.5-1.11-.88v4.78h-2.21V39.63h1.87l.22 1.24c.32-.46.7-.81 1.14-1.06.45-.24.96-.37 1.55-.37 1.21 0 2.16.48 2.84 1.44s1.02 2.23 1.02 3.8v.19Zm-2.21-.2c0-1.01-.19-1.83-.57-2.47-.38-.64-.95-.96-1.7-.96-.46 0-.85.1-1.18.3s-.58.47-.77.82v4.45c.19.35.45.61.77.8.32.19.72.28 1.19.28.75 0 1.32-.28 1.69-.83s.56-1.28.56-2.19v-.19Zm3.92-.22c0-1.46.4-2.67 1.2-3.61.81-.94 1.92-1.41 3.31-1.41s2.52.47 3.33 1.41 1.21 2.14 1.21 3.61v.19c0 1.48-.4 2.69-1.21 3.63-.8.93-1.9 1.39-3.31 1.39s-2.52-.47-3.33-1.4c-.8-.94-1.2-2.14-1.2-3.62v-.19Zm2.21.19c0 .96.19 1.74.57 2.35.37.6.95.9 1.75.9s1.35-.3 1.73-.9c.39-.61.58-1.39.58-2.35v-.19c0-.94-.19-1.71-.58-2.32-.38-.61-.97-.92-1.75-.92s-1.35.31-1.73.92c-.38.61-.57 1.39-.57 2.32v.19Zm13.36.04c0-1.57.34-2.84 1.01-3.8.67-.96 1.62-1.44 2.84-1.44.54 0 1.01.11 1.44.32.42.21.79.52 1.1.92v-5.42h2.21v14.21h-1.86l-.22-1.22c-.32.46-.7.81-1.14 1.05-.44.24-.96.36-1.55.36-1.21 0-2.15-.44-2.82-1.32-.67-.88-1.01-2.04-1.01-3.47v-.19Zm2.21.19c0 .91.17 1.64.52 2.18.35.54.9.81 1.66.81.47 0 .86-.1 1.19-.3.32-.2.59-.49.8-.86v-4.3c-.21-.36-.47-.65-.8-.85-.33-.2-.72-.31-1.17-.31-.75 0-1.31.32-1.67.95-.36.63-.54 1.46-.54 2.48v.19Zm13.18 4.8c-1.4 0-2.51-.46-3.34-1.37s-1.24-2.09-1.24-3.52v-.36c0-1.43.41-2.62 1.23-3.57.82-.94 1.85-1.41 3.09-1.41 1.33 0 2.35.4 3.06 1.21.71.8 1.06 1.88 1.06 3.24v1.3h-6.15l-.02.04c.04.78.27 1.42.69 1.92s1.01.75 1.75.75c.6 0 1.11-.07 1.53-.22.42-.15.83-.36 1.23-.63l.71 1.45c-.37.33-.86.61-1.48.83s-1.32.34-2.13.34Zm-.25-8.46c-.55 0-1 .22-1.35.65-.35.43-.57.99-.66 1.65l.02.05h3.91v-.23c0-.63-.16-1.14-.48-1.53-.32-.39-.8-.59-1.44-.59Zm-68.85 31.78c-1.4 0-2.51-.46-3.34-1.37s-1.24-2.09-1.24-3.52v-.36c0-1.43.41-2.62 1.23-3.57.82-.94 1.85-1.41 3.09-1.41 1.33 0 2.35.4 3.06 1.21.71.8 1.06 1.88 1.06 3.24v1.3h-6.15l-.02.04c.04.78.27 1.42.69 1.92s1.01.75 1.75.75c.6 0 1.11-.07 1.53-.22.42-.15.83-.36 1.23-.63l.71 1.45c-.37.33-.86.61-1.48.83s-1.32.34-2.13.34Zm-.25-8.46c-.55 0-1 .22-1.35.65-.35.43-.57.99-.66 1.65l.02.05h3.91v-.23c0-.63-.16-1.14-.48-1.53-.32-.39-.8-.59-1.44-.59Zm8.11-1.59.12 1.28c.32-.47.73-.83 1.21-1.08.49-.25 1.05-.38 1.69-.38s1.2.15 1.66.44c.46.29.81.73 1.04 1.31.3-.55.7-.98 1.2-1.29s1.08-.46 1.75-.46c.99 0 1.77.34 2.35 1.02.57.68.86 1.71.86 3.08v5.94h-2.21v-5.95c0-.84-.14-1.43-.43-1.77-.29-.34-.72-.51-1.3-.51-.47 0-.87.13-1.2.38s-.57.6-.71 1.03v6.82h-2.21v-5.95c0-.81-.15-1.39-.44-1.75s-.73-.53-1.3-.53c-.45 0-.83.09-1.14.26s-.56.42-.74.73v7.23h-2.21v-9.86h2.02Zm16.73-2.42h-2.21V58.6h2.21v1.94Zm0 12.27h-2.21v-9.86h2.21v9.86Zm8.19-2.67c0-.34-.15-.62-.44-.85-.29-.22-.84-.42-1.63-.59-1.18-.25-2.07-.6-2.67-1.06s-.91-1.08-.91-1.87.35-1.53 1.05-2.11c.7-.58 1.62-.88 2.76-.88 1.2 0 2.16.3 2.87.89s1.05 1.33 1.02 2.2l-.02.05h-2.12c0-.41-.15-.76-.46-1.05-.31-.29-.74-.44-1.28-.44s-.94.12-1.22.36-.42.53-.42.88.13.62.4.83c.26.2.8.38 1.61.54 1.24.25 2.16.62 2.76 1.08.6.46.9 1.1.9 1.9 0 .89-.37 1.61-1.1 2.16s-1.7.83-2.89.83c-1.28 0-2.29-.33-3.03-.98-.74-.66-1.09-1.41-1.06-2.26l.02-.05h2.06c.02.57.23.99.62 1.25s.86.39 1.42.39 1.01-.11 1.32-.33c.31-.22.46-.51.46-.88Zm6.7-9.6h-2.21V58.6h2.21v1.94Zm0 12.27h-2.21v-9.86h2.21v9.86Zm2.24-5.01c0-1.46.4-2.67 1.2-3.61.81-.94 1.92-1.41 3.31-1.41s2.52.47 3.33 1.41 1.21 2.14 1.21 3.61v.19c0 1.48-.4 2.69-1.21 3.63-.8.93-1.9 1.39-3.31 1.39s-2.52-.47-3.33-1.4c-.8-.94-1.2-2.14-1.2-3.62v-.19Zm2.21.19c0 .96.19 1.74.56 2.35.37.6.95.9 1.75.9s1.35-.3 1.73-.9c.39-.61.58-1.39.58-2.35v-.19c0-.94-.2-1.71-.58-2.32-.38-.61-.96-.92-1.75-.92s-1.35.31-1.73.92c-.38.61-.56 1.39-.56 2.32v.19Zm2.97-8.86h2.45l.02.05-2.49 2.37h-1.72l1.74-2.42Zm7.97 3.83.13 1.42c.32-.5.73-.9 1.22-1.18s1.04-.42 1.65-.42c1.03 0 1.83.31 2.4.93.57.62.86 1.59.86 2.91v6.2h-2.21v-6.18c0-.74-.15-1.27-.46-1.58-.31-.31-.77-.47-1.4-.47-.43 0-.82.1-1.16.29s-.62.45-.84.79v7.15h-2.21v-9.86h2.02Zm92.88-13.47h-8.81v-1.53l4.32-4.7c.7-.77 1.19-1.4 1.46-1.9s.4-.98.4-1.45c0-.6-.17-1.09-.52-1.49-.35-.4-.81-.6-1.4-.6-.78 0-1.36.22-1.73.66-.38.44-.57 1.04-.57 1.8h-2.14l-.02-.05c-.03-1.18.36-2.17 1.16-2.97s1.9-1.21 3.3-1.21c1.28 0 2.28.35 3.02 1.06.74.7 1.11 1.62 1.11 2.76 0 .76-.21 1.49-.64 2.18-.43.69-1.09 1.53-1.99 2.52l-2.95 3.11.03.05h5.98v1.78Zm10.64-5.11c0 1.72-.39 3.04-1.17 3.95-.78.91-1.83 1.36-3.17 1.36s-2.41-.45-3.19-1.36c-.78-.91-1.17-2.22-1.17-3.95v-3.03c0-1.72.39-3.03 1.17-3.95s1.84-1.37 3.18-1.37 2.4.46 3.18 1.37c.78.91 1.17 2.23 1.17 3.95v3.03Zm-2.21-3.37c0-1.09-.18-1.89-.55-2.41-.36-.52-.9-.78-1.59-.78s-1.23.26-1.59.78c-.36.52-.54 1.33-.54 2.41v3.69c0 1.09.18 1.9.55 2.43.37.53.9.79 1.6.79s1.23-.26 1.59-.78c.36-.52.54-1.33.54-2.43v-3.69Zm13.16 8.48h-8.81v-1.53l4.32-4.7c.7-.77 1.19-1.4 1.46-1.9s.4-.98.4-1.45c0-.6-.17-1.09-.52-1.49-.35-.4-.81-.6-1.4-.6-.78 0-1.35.22-1.73.66-.38.44-.57 1.04-.57 1.8h-2.14l-.02-.05c-.03-1.18.36-2.17 1.16-2.97.8-.8 1.9-1.21 3.3-1.21 1.28 0 2.28.35 3.03 1.06.74.7 1.11 1.62 1.11 2.76 0 .76-.21 1.49-.64 2.18s-1.09 1.53-1.99 2.52l-2.95 3.11.03.05h5.98v1.78Zm4.54-7.63h1.54c.72 0 1.23-.18 1.55-.53.32-.36.47-.86.47-1.51s-.17-1.13-.51-1.48c-.34-.35-.84-.52-1.5-.52-.6 0-1.09.17-1.47.51-.38.34-.57.79-.57 1.35h-2.13l-.02-.05c-.04-1.01.34-1.87 1.13-2.56s1.8-1.03 3.03-1.03c1.29 0 2.33.33 3.1.98s1.16 1.59 1.16 2.8c0 .56-.17 1.11-.52 1.64s-.84.94-1.48 1.23c.75.27 1.31.67 1.66 1.22s.53 1.17.53 1.87c0 1.21-.42 2.17-1.25 2.87-.84.7-1.9 1.04-3.2 1.04-1.23 0-2.26-.33-3.09-.98-.83-.65-1.23-1.56-1.2-2.71l.02-.05h2.13c0 .59.2 1.06.59 1.42.39.36.92.54 1.58.54s1.23-.19 1.62-.55c.4-.37.59-.89.59-1.57 0-.75-.18-1.3-.54-1.65s-.92-.53-1.68-.53h-1.54v-1.74Zm39.64-26.41c0-.78.25-1.43.75-1.95.5-.53 1.19-.79 2.05-.79s1.56.26 2.06.78.75 1.18.75 1.96v.7c0 .78-.25 1.43-.75 1.95s-1.18.78-2.04.78-1.56-.26-2.07-.78c-.5-.52-.76-1.17-.76-1.95v-.7Zm1.54.7c0 .39.11.72.33.99.22.27.54.41.95.41s.71-.13.92-.4c.22-.27.32-.6.32-.99v-.7c0-.39-.11-.73-.33-1s-.53-.41-.93-.41-.72.14-.94.41-.33.61-.33 1v.7Zm1.74 9.02-1.14-.66 6.48-10.37 1.14.66-6.48 10.37Zm3.1-2.26c0-.77.25-1.42.76-1.95s1.19-.79 2.05-.79 1.56.26 2.06.78.75 1.17.75 1.95v.71c0 .78-.25 1.43-.75 1.95s-1.18.78-2.05.78-1.56-.26-2.07-.78-.76-1.17-.76-1.95v-.71Zm1.54.71c0 .39.11.72.34.99.23.27.54.41.94.41.43 0 .74-.13.95-.4.21-.26.31-.6.31-1.01v-.71c0-.39-.11-.72-.33-.99-.22-.27-.54-.41-.94-.41s-.72.14-.94.41-.33.6-.33.99v.71Zm19.7-2.05c0 1.43-.34 2.59-1.01 3.47-.67.88-1.61 1.32-2.81 1.32-.56 0-1.05-.1-1.49-.3-.43-.2-.8-.5-1.11-.88v4.78h-2.21V16.31h1.87l.22 1.24c.32-.46.7-.81 1.14-1.06.45-.24.96-.37 1.55-.37 1.21 0 2.16.48 2.84 1.44s1.02 2.23 1.02 3.8v.19Zm-2.21-.2c0-1.01-.19-1.83-.57-2.47s-.95-.96-1.7-.96c-.46 0-.85.1-1.17.3-.32.2-.58.47-.78.82v4.45c.2.35.45.61.78.8.32.19.72.28 1.19.28.75 0 1.32-.28 1.69-.83.37-.55.56-1.28.56-2.19v-.19Zm10.26 4.8c-.08-.25-.14-.49-.2-.73a5.81 5.81 0 0 1-.11-.71c-.3.46-.7.85-1.2 1.16-.5.31-1.05.47-1.66.47-1.03 0-1.81-.26-2.36-.79s-.82-1.25-.82-2.18.38-1.7 1.13-2.23c.75-.53 1.81-.8 3.18-.8h1.72v-.87c0-.52-.15-.92-.46-1.21-.3-.29-.74-.44-1.3-.44-.5 0-.91.12-1.2.36-.3.24-.45.56-.45.94h-2.13v-.05c-.05-.78.29-1.47 1.03-2.07s1.7-.9 2.88-.9 2.07.29 2.78.88 1.06 1.42 1.06 2.51v4.38c0 .41.03.8.08 1.17.05.37.14.74.26 1.1h-2.24Zm-2.71-1.58c.56 0 1.06-.14 1.51-.42.45-.28.74-.6.89-.96v-1.46h-1.76c-.64 0-1.15.16-1.51.48-.36.32-.55.69-.55 1.12 0 .38.12.68.37.9s.6.33 1.05.33Zm12-6.28-.95-.04c-.43 0-.79.09-1.08.27-.29.18-.51.44-.67.77v6.85h-2.21V16.3h2.02l.15 1.43c.25-.5.57-.9.96-1.18s.84-.43 1.35-.43c.13 0 .26.01.37.03s.22.05.32.08l-.26 2.07Zm4.94-4.4v2.4h1.77v1.64h-1.77v5.45c0 .41.09.7.26.87.18.17.41.26.7.26.12 0 .24-.01.36-.03s.22-.05.33-.09l.24 1.62c-.19.1-.41.18-.67.24-.26.06-.53.09-.81.09-.81 0-1.45-.24-1.91-.71-.46-.48-.69-1.23-.69-2.25v-5.45h-1.5v-1.64h1.5v-2.4h2.21Zm6.26-.01h-2.21v-1.94h2.21v1.94Zm0 12.27h-2.21v-9.86h2.21v9.86Zm6.72-1.59c.54 0 1-.16 1.37-.48.37-.32.56-.71.56-1.19h2l.02.05c.03.92-.34 1.72-1.12 2.39-.78.67-1.72 1-2.82 1-1.45 0-2.57-.47-3.34-1.4-.78-.94-1.16-2.12-1.16-3.55v-.32c0-1.43.39-2.61 1.16-3.55.77-.94 1.89-1.41 3.34-1.41 1.18 0 2.15.34 2.88 1.03s1.09 1.57 1.07 2.63l-.02.05h-2.01c0-.54-.18-1-.53-1.38-.36-.38-.82-.56-1.39-.56-.83 0-1.42.3-1.77.91-.35.6-.52 1.36-.52 2.27v.32c0 .93.17 1.69.52 2.29.35.6.94.9 1.77.9Zm8.27-10.68h-2.21v-1.94h2.21v1.94Zm0 12.27h-2.21v-9.86h2.21v9.86Zm11.28-4.6c0 1.43-.34 2.59-1.01 3.47-.67.88-1.61 1.32-2.81 1.32-.56 0-1.05-.1-1.49-.3-.43-.2-.8-.5-1.11-.88v4.78h-2.21V16.31h1.87l.22 1.24c.32-.46.7-.81 1.14-1.06.45-.24.96-.37 1.55-.37 1.21 0 2.16.48 2.84 1.44s1.02 2.23 1.02 3.8v.19Zm-2.21-.2c0-1.01-.19-1.83-.57-2.47s-.95-.96-1.7-.96c-.46 0-.85.1-1.17.3-.32.2-.58.47-.78.82v4.45c.2.35.45.61.78.8.32.19.72.28 1.19.28.75 0 1.32-.28 1.69-.83.37-.55.56-1.28.56-2.19v-.19Zm10.26 4.8c-.08-.25-.14-.49-.2-.73-.05-.24-.09-.47-.1-.71-.3.46-.7.85-1.2 1.16-.49.31-1.05.47-1.66.47-1.03 0-1.81-.26-2.37-.79-.55-.53-.82-1.25-.82-2.18s.38-1.7 1.13-2.23c.75-.53 1.81-.8 3.18-.8h1.72v-.87c0-.52-.15-.92-.46-1.21-.3-.29-.74-.44-1.3-.44-.5 0-.91.12-1.2.36-.3.24-.45.56-.45.94h-2.13v-.05c-.05-.78.3-1.47 1.03-2.07.74-.6 1.7-.9 2.88-.9s2.07.29 2.78.88c.7.58 1.06 1.42 1.06 2.51v4.38c0 .41.03.8.08 1.17.05.37.14.74.26 1.1h-2.24Zm-2.72-1.58c.56 0 1.06-.14 1.51-.42.45-.28.74-.6.89-.96v-1.46h-1.76c-.64 0-1.15.16-1.51.48-.36.32-.55.69-.55 1.12 0 .38.12.68.37.9s.6.33 1.05.33Zm11.18-.01c.54 0 1-.16 1.37-.48.37-.32.56-.71.56-1.19h2l.02.05c.03.92-.34 1.72-1.12 2.39-.78.67-1.72 1-2.82 1-1.45 0-2.57-.47-3.34-1.4s-1.16-2.12-1.16-3.55v-.32c0-1.43.39-2.61 1.16-3.55s1.89-1.41 3.34-1.41c1.18 0 2.14.34 2.88 1.03s1.1 1.57 1.07 2.63l-.02.05h-2.01c0-.54-.18-1-.53-1.38-.36-.38-.82-.56-1.39-.56-.83 0-1.42.3-1.77.91s-.52 1.36-.52 2.27v.32c0 .93.17 1.69.52 2.29s.94.9 1.77.9Zm8.27-10.68h-2.21v-1.94h2.21v1.94Zm0 12.27h-2.21v-9.86h2.21v9.86Zm2.24-5.02c0-1.46.4-2.67 1.2-3.61.81-.94 1.92-1.41 3.31-1.41s2.52.47 3.33 1.41 1.21 2.14 1.21 3.61v.19c0 1.48-.4 2.69-1.21 3.63-.8.93-1.9 1.39-3.31 1.39s-2.52-.47-3.33-1.4c-.8-.94-1.2-2.14-1.2-3.62v-.19Zm2.21.19c0 .96.19 1.74.57 2.35.37.6.95.9 1.75.9s1.35-.3 1.73-.9c.39-.61.58-1.39.58-2.35v-.19c0-.94-.19-1.71-.58-2.32-.38-.61-.97-.92-1.75-.92s-1.35.31-1.73.92c-.38.61-.57 1.39-.57 2.32v.19Zm2.97-8.86h2.45l.02.05-2.49 2.37h-1.72l1.74-2.42Zm7.99 3.83.13 1.42c.32-.5.73-.9 1.22-1.18s1.04-.42 1.65-.42c1.03 0 1.83.31 2.4.93.57.62.86 1.59.86 2.91v6.2h-2.21v-6.18c0-.74-.15-1.27-.46-1.58-.31-.31-.77-.47-1.4-.47-.43 0-.82.1-1.16.29s-.62.45-.84.79v7.15h-2.21v-9.86h2.02Zm-95.89 28.58c0 1.43-.34 2.59-1.01 3.47-.67.88-1.61 1.32-2.81 1.32-.56 0-1.05-.1-1.49-.3-.43-.2-.8-.5-1.11-.88v4.78h-2.21V39.63h1.87l.22 1.24c.32-.46.7-.81 1.14-1.06.45-.24.96-.37 1.55-.37 1.21 0 2.16.48 2.84 1.44s1.02 2.23 1.02 3.8v.19Zm-2.21-.2c0-1.01-.19-1.83-.57-2.47s-.95-.96-1.7-.96c-.46 0-.85.1-1.17.3-.32.2-.58.47-.78.82v4.45c.2.35.45.61.78.8.32.19.72.28 1.19.28.75 0 1.32-.28 1.69-.83.37-.55.56-1.28.56-2.19v-.19Zm3.92-.22c0-1.46.4-2.67 1.2-3.61.81-.94 1.92-1.41 3.31-1.41s2.52.47 3.33 1.41 1.21 2.14 1.21 3.61v.19c0 1.48-.4 2.69-1.21 3.63-.8.93-1.9 1.39-3.31 1.39s-2.52-.47-3.33-1.4c-.8-.94-1.2-2.14-1.2-3.62v-.19Zm2.21.19c0 .96.19 1.74.57 2.35.37.6.95.9 1.75.9s1.35-.3 1.73-.9c.39-.61.58-1.39.58-2.35v-.19c0-.94-.19-1.71-.58-2.32-.38-.61-.97-.92-1.75-.92s-1.35.31-1.73.92c-.38.61-.57 1.39-.57 2.32v.19Zm13.85-3.03-.95-.04c-.43 0-.79.09-1.08.27-.29.18-.51.44-.67.77v6.85h-2.21v-9.86h2.02l.15 1.43c.25-.5.57-.9.96-1.18.39-.29.84-.43 1.35-.43.13 0 .26.01.37.03s.22.05.32.08l-.26 2.07Zm9.32-4.39v2.4h1.77v1.64h-1.77v5.45c0 .41.09.7.26.87.18.17.41.26.7.26.12 0 .24-.01.36-.03s.22-.05.33-.09l.24 1.62c-.19.1-.41.18-.67.24-.26.06-.53.09-.81.09-.81 0-1.45-.24-1.91-.71-.46-.48-.69-1.23-.69-2.25v-5.45h-1.5v-1.64h1.5v-2.4h2.21Zm6.28-.02h-2.21v-1.94h2.21v1.94Zm0 12.27h-2.21v-9.86h2.21v9.86Zm11.28-4.6c0 1.43-.34 2.59-1.01 3.47s-1.61 1.32-2.82 1.32c-.56 0-1.05-.1-1.49-.3-.43-.2-.8-.5-1.11-.88v4.78h-2.21V39.63h1.87l.22 1.24c.32-.46.7-.81 1.14-1.06.45-.24.96-.37 1.55-.37 1.21 0 2.16.48 2.84 1.44s1.02 2.23 1.02 3.8v.19Zm-2.21-.2c0-1.01-.19-1.83-.57-2.47-.38-.64-.95-.96-1.7-.96-.46 0-.85.1-1.18.3s-.58.47-.77.82v4.45c.19.35.45.61.77.8.32.19.72.28 1.19.28.75 0 1.32-.28 1.69-.83s.56-1.28.56-2.19v-.19Zm3.92-.22c0-1.46.4-2.67 1.2-3.61.81-.94 1.92-1.41 3.31-1.41s2.52.47 3.33 1.41 1.21 2.14 1.21 3.61v.19c0 1.48-.4 2.69-1.21 3.63-.8.93-1.9 1.39-3.31 1.39s-2.52-.47-3.33-1.4c-.8-.94-1.2-2.14-1.2-3.62v-.19Zm2.21.19c0 .96.19 1.74.57 2.35.37.6.95.9 1.75.9s1.35-.3 1.73-.9c.39-.61.58-1.39.58-2.35v-.19c0-.94-.19-1.71-.58-2.32-.38-.61-.97-.92-1.75-.92s-1.35.31-1.73.92c-.38.61-.57 1.39-.57 2.32v.19Zm13.36.04c0-1.57.34-2.84 1.01-3.8.67-.96 1.62-1.44 2.84-1.44.54 0 1.01.11 1.44.32.42.21.79.52 1.1.92v-5.42h2.21v14.21h-1.86l-.22-1.22c-.32.46-.7.81-1.14 1.05-.44.24-.96.36-1.55.36-1.21 0-2.15-.44-2.82-1.32-.67-.88-1.01-2.04-1.01-3.47v-.19Zm2.21.19c0 .91.17 1.64.52 2.18.35.54.9.81 1.66.81.47 0 .86-.1 1.19-.3.32-.2.59-.49.8-.86v-4.3c-.21-.36-.47-.65-.8-.85-.33-.2-.72-.31-1.17-.31-.75 0-1.31.32-1.67.95-.36.63-.54 1.46-.54 2.48v.19Zm13.19 4.8c-1.4 0-2.51-.46-3.34-1.37s-1.24-2.09-1.24-3.52v-.36c0-1.43.41-2.62 1.23-3.57.82-.94 1.85-1.41 3.09-1.41 1.33 0 2.35.4 3.06 1.21.71.8 1.06 1.88 1.06 3.24v1.3h-6.15l-.02.04c.04.78.27 1.42.69 1.92s1.01.75 1.75.75c.6 0 1.11-.07 1.53-.22.42-.15.83-.36 1.23-.63l.71 1.45c-.37.33-.86.61-1.48.83s-1.32.34-2.13.34Zm-.25-8.46c-.55 0-1 .22-1.35.65-.35.43-.57.99-.66 1.65l.02.05h3.91v-.23c0-.63-.16-1.14-.48-1.53-.32-.39-.8-.59-1.44-.59Zm-68.86 31.78c-1.4 0-2.51-.46-3.34-1.37s-1.24-2.09-1.24-3.52v-.36c0-1.43.41-2.62 1.23-3.57.82-.94 1.85-1.41 3.09-1.41 1.33 0 2.35.4 3.06 1.21.71.8 1.06 1.88 1.06 3.24v1.3h-6.15l-.02.04c.04.78.27 1.42.69 1.92s1.01.75 1.75.75c.6 0 1.11-.07 1.53-.22.42-.15.83-.36 1.23-.63l.71 1.45c-.37.33-.86.61-1.48.83s-1.32.34-2.13.34Zm-.25-8.46c-.55 0-1 .22-1.35.65-.35.43-.57.99-.66 1.65l.02.05h3.91v-.23c0-.63-.16-1.14-.48-1.53-.32-.39-.8-.59-1.44-.59Zm8.11-1.59.12 1.28c.32-.47.73-.83 1.21-1.08.49-.25 1.05-.38 1.69-.38s1.2.15 1.66.44c.46.29.81.73 1.04 1.31.3-.55.7-.98 1.2-1.29s1.08-.46 1.75-.46c.99 0 1.77.34 2.35 1.02.57.68.86 1.71.86 3.08v5.94h-2.21v-5.95c0-.84-.14-1.43-.43-1.77-.29-.34-.72-.51-1.3-.51-.47 0-.87.13-1.2.38s-.57.6-.71 1.03v6.82h-2.21v-5.95c0-.81-.15-1.39-.44-1.75s-.73-.53-1.3-.53c-.45 0-.83.09-1.14.26s-.56.42-.74.73v7.23h-2.21v-9.86h2.02Zm16.74-2.42h-2.21V58.6h2.21v1.94Zm0 12.27h-2.21v-9.86h2.21v9.86Zm8.18-2.67c0-.34-.15-.62-.44-.85-.29-.22-.84-.42-1.63-.59-1.18-.25-2.07-.6-2.67-1.06s-.91-1.08-.91-1.87.35-1.53 1.05-2.11c.7-.58 1.62-.88 2.76-.88 1.2 0 2.16.3 2.87.89s1.05 1.33 1.02 2.2l-.02.05h-2.12c0-.41-.15-.76-.46-1.05-.31-.29-.74-.44-1.28-.44s-.94.12-1.22.36-.42.53-.42.88.13.62.4.83c.26.2.8.38 1.61.54 1.24.25 2.16.62 2.76 1.08.6.46.9 1.1.9 1.9 0 .89-.37 1.61-1.1 2.16s-1.7.83-2.89.83c-1.28 0-2.29-.33-3.03-.98-.74-.66-1.09-1.41-1.06-2.26l.02-.05h2.06c.02.57.23.99.62 1.25s.86.39 1.42.39 1.01-.11 1.32-.33c.31-.22.46-.51.46-.88Zm6.69-9.6h-2.21V58.6h2.21v1.94Zm0 12.27h-2.21v-9.86h2.21v9.86Zm2.24-5.01c0-1.46.4-2.67 1.2-3.61.81-.94 1.92-1.41 3.31-1.41s2.52.47 3.33 1.41 1.21 2.14 1.21 3.61v.19c0 1.48-.4 2.69-1.21 3.63-.8.93-1.9 1.39-3.31 1.39s-2.52-.47-3.33-1.4c-.8-.94-1.2-2.14-1.2-3.62v-.19Zm2.21.19c0 .96.19 1.74.57 2.35.37.6.95.9 1.75.9s1.35-.3 1.73-.9c.39-.61.58-1.39.58-2.35v-.19c0-.94-.19-1.71-.58-2.32-.38-.61-.97-.92-1.75-.92s-1.35.31-1.73.92c-.38.61-.57 1.39-.57 2.32v.19Zm2.97-8.86h2.45l.02.05-2.49 2.37h-1.72l1.74-2.42Zm7.99 3.83.13 1.42c.32-.5.73-.9 1.22-1.18s1.04-.42 1.65-.42c1.03 0 1.83.31 2.4.93.57.62.86 1.59.86 2.91v6.2h-2.21v-6.18c0-.74-.15-1.27-.46-1.58-.31-.31-.77-.47-1.4-.47-.43 0-.82.1-1.16.29s-.62.45-.84.79v7.15h-2.21v-9.86h2.02Zm81.64-16.94.24.92h.05l.23-.9 3.17-9.81h2.36l-4.74 13.27h-2.1l-4.73-13.27h2.36l3.16 9.79Zm12.87 3.47c-.08-.25-.14-.49-.2-.73-.05-.24-.09-.47-.1-.71-.3.46-.7.85-1.2 1.16-.5.31-1.05.47-1.66.47-1.03 0-1.82-.26-2.37-.79s-.82-1.25-.82-2.18.38-1.7 1.13-2.23c.75-.53 1.81-.8 3.18-.8h1.72v-.87c0-.52-.15-.92-.46-1.21-.3-.29-.74-.44-1.3-.44-.5 0-.91.12-1.2.36s-.45.56-.45.94h-2.13v-.05c-.05-.78.3-1.47 1.03-2.07s1.7-.9 2.88-.9 2.07.29 2.78.88c.71.58 1.06 1.42 1.06 2.51v4.38c0 .41.03.8.08 1.17.05.37.14.74.26 1.1h-2.24Zm-2.71-1.58c.56 0 1.06-.14 1.51-.42.45-.28.74-.6.89-.96v-1.46h-1.76c-.64 0-1.15.16-1.51.48-.36.32-.55.69-.55 1.12 0 .38.12.68.37.9s.6.33 1.05.33Zm12.01-6.28-.95-.04c-.43 0-.79.09-1.08.27-.29.18-.51.44-.67.77v6.85h-2.21v-9.86h2.02l.15 1.43c.25-.5.57-.9.96-1.18s.84-.43 1.35-.43c.13 0 .26.01.37.03s.22.05.32.08l-.26 2.07Zm6.3-2.85c0-.78.25-1.43.75-1.95s1.19-.79 2.05-.79 1.56.26 2.06.78.75 1.18.75 1.96v.7c0 .78-.25 1.43-.75 1.95s-1.18.78-2.05.78-1.56-.26-2.07-.78c-.5-.52-.76-1.17-.76-1.95v-.7Zm1.54.7c0 .39.11.72.33.99.22.27.54.41.95.41s.71-.13.92-.4c.22-.27.32-.6.32-.99v-.7c0-.39-.11-.73-.33-1s-.53-.41-.93-.41-.72.14-.94.41-.33.61-.33 1v.7Zm1.74 9.02-1.14-.66 6.48-10.37 1.14.66-6.48 10.37Zm3.1-2.26c0-.77.25-1.42.76-1.95.5-.53 1.19-.79 2.05-.79s1.56.26 2.06.78.75 1.17.75 1.95v.71c0 .78-.25 1.43-.75 1.95s-1.18.78-2.05.78-1.56-.26-2.07-.78c-.5-.52-.76-1.17-.76-1.95v-.71Zm1.54.71c0 .39.11.72.34.99.23.27.54.41.94.41.43 0 .74-.13.95-.4.21-.26.31-.6.31-1.01v-.71c0-.39-.11-.72-.33-.99s-.54-.41-.94-.41-.72.14-.94.41-.33.6-.33.99v.71Z"/><path d="M36.01 107.67h-5.57v4.34h6.42v1.29h-8.07v-12.16h7.98v1.29h-6.33v3.93h5.57v1.29Zm4.11-3.4.12 1.19c.29-.43.67-.76 1.12-1 .45-.24.98-.36 1.58-.36s1.12.14 1.55.42.76.7.97 1.25c.28-.51.66-.92 1.13-1.22.47-.3 1.01-.45 1.64-.45.92 0 1.65.32 2.18.95s.8 1.58.8 2.85v5.4h-1.65v-5.42c0-.89-.15-1.52-.46-1.89-.31-.37-.76-.55-1.37-.55-.56 0-1.02.19-1.37.58s-.55.88-.61 1.48v5.8H44.1v-5.42c0-.85-.16-1.47-.47-1.86-.31-.39-.77-.59-1.36-.59-.5 0-.91.1-1.24.31s-.57.5-.74.87v6.69h-1.65v-9.04h1.47Zm15.42-2.32h-1.65v-1.68h1.65v1.68Zm0 11.35h-1.65v-9.04h1.65v9.04Zm7.95-2.4c0-.36-.14-.66-.41-.89-.28-.23-.8-.44-1.57-.61-1.1-.24-1.92-.56-2.48-.97-.55-.41-.83-.97-.83-1.67s.31-1.36.94-1.88c.62-.52 1.44-.78 2.44-.78s1.89.27 2.51.81c.62.54.92 1.2.89 1.97l-.02.05h-1.57c0-.39-.17-.75-.5-1.06-.33-.31-.77-.47-1.32-.47-.58 0-1.02.13-1.3.38-.28.26-.43.57-.43.93s.13.64.38.84c.25.21.76.39 1.53.55 1.14.25 1.99.58 2.55 1 .56.42.83.98.83 1.69 0 .8-.32 1.45-.97 1.95-.65.5-1.5.74-2.54.74-1.15 0-2.06-.29-2.72-.88-.66-.58-.98-1.27-.94-2.05l.02-.05h1.57c.03.58.25 1.01.65 1.28.41.27.88.4 1.43.4.58 0 1.04-.12 1.37-.36.33-.24.5-.55.5-.93Zm5.63-8.95h-1.64v-1.68h1.64v1.68Zm0 11.35h-1.64v-9.04h1.64v9.04Zm2.32-4.6c0-1.34.36-2.44 1.09-3.3.72-.87 1.71-1.3 2.95-1.3s2.24.43 2.97 1.29 1.09 1.97 1.09 3.31v.18c0 1.35-.36 2.45-1.09 3.31-.72.86-1.71 1.29-2.96 1.29s-2.23-.43-2.96-1.29-1.09-1.96-1.09-3.3v-.18Zm1.65.18c0 .96.2 1.75.61 2.37.4.62 1 .93 1.8.93s1.38-.31 1.79-.93c.41-.62.61-1.41.61-2.37v-.18c0-.95-.2-1.73-.61-2.36-.41-.63-1.01-.94-1.8-.94s-1.38.31-1.78.94c-.4.63-.61 1.42-.61 2.36v.18Zm3.2-8.11h1.92l.02.05-2.25 2.17h-1.23l1.54-2.22Zm6.89 3.5.12 1.34c.3-.48.68-.85 1.13-1.12.45-.26.97-.4 1.55-.4.97 0 1.73.29 2.26.86.53.57.8 1.45.8 2.64v5.7H87.4v-5.67c0-.8-.16-1.36-.47-1.7s-.79-.5-1.44-.5a2.334 2.334 0 0 0-2.13 1.28v6.59h-1.64v-9.04h1.47Zm20.53 4.86c0 1.3-.31 2.35-.94 3.15-.62.8-1.48 1.2-2.58 1.2-.56 0-1.04-.09-1.47-.28s-.78-.47-1.07-.84v4.42H96v-12.51h1.26l.26 1.17c.29-.43.66-.77 1.1-.99.44-.23.95-.34 1.54-.34 1.12 0 1.99.44 2.61 1.33.62.89.93 2.06.93 3.52v.18Zm-1.64-.18c0-1.02-.2-1.86-.61-2.52-.4-.66-1-.99-1.78-.99-.47 0-.88.11-1.21.32-.33.21-.61.51-.81.88V111c.21.37.48.66.81.87.33.21.74.31 1.23.31.78 0 1.37-.29 1.77-.86.4-.57.6-1.3.6-2.21v-.17Zm8.11-3.23-.84-.05c-.43 0-.8.1-1.1.31-.3.21-.53.5-.69.87v6.46h-1.65v-9.04h1.47l.16 1.32c.26-.47.57-.83.95-1.09.38-.26.81-.39 1.3-.39.12 0 .24 0 .35.03s.2.04.28.06l-.23 1.53Zm3.59-3.77h-1.64v-1.68h1.64v1.68Zm0 11.35h-1.64v-9.04h1.64v9.04Zm4.17-9.03.12 1.19c.29-.43.67-.76 1.12-1 .45-.24.98-.36 1.58-.36s1.12.14 1.55.42.76.7.97 1.25c.28-.51.66-.92 1.13-1.22.47-.3 1.01-.45 1.64-.45.92 0 1.65.32 2.18.95s.8 1.58.8 2.85v5.4h-1.65v-5.42c0-.89-.15-1.52-.46-1.89-.31-.37-.76-.55-1.37-.55-.56 0-1.02.19-1.37.58s-.55.88-.61 1.48v5.8h-1.65v-5.42c0-.85-.16-1.47-.47-1.86-.31-.39-.77-.59-1.36-.59-.5 0-.91.1-1.24.31s-.57.5-.74.87v6.69h-1.65v-9.04h1.47Zm19.2 9.03c-.05-.27-.1-.51-.13-.72-.03-.21-.05-.42-.05-.63-.31.43-.71.8-1.2 1.09-.49.29-1.02.44-1.59.44-.94 0-1.66-.24-2.15-.72s-.74-1.15-.74-1.99.35-1.54 1.05-2.03 1.65-.73 2.84-.73h1.79v-.89c0-.53-.16-.95-.48-1.26-.32-.31-.78-.46-1.37-.46-.53 0-.96.13-1.29.41-.33.27-.5.59-.5.97h-1.57l-.02-.05c-.03-.66.28-1.26.93-1.8s1.5-.82 2.54-.82 1.85.26 2.47.78.94 1.27.94 2.25v4.35c0 .32.02.63.05.93.03.3.1.6.18.89h-1.7Zm-2.73-1.21c.6 0 1.13-.15 1.61-.46s.79-.66.94-1.05v-1.47h-1.85c-.66 0-1.19.17-1.59.5-.4.33-.6.72-.6 1.17 0 .4.12.72.38.95.25.23.62.35 1.11.35Zm11.03-6.37-.84-.05c-.43 0-.8.1-1.1.31-.3.21-.53.5-.69.87v6.46h-1.65v-9.04h1.47l.16 1.32c.26-.47.57-.83.95-1.09.38-.26.81-.39 1.3-.39.12 0 .24 0 .35.03s.2.04.28.06l-.23 1.53Zm3.59-3.77h-1.65v-1.68h1.65v1.68Zm0 11.35h-1.65v-9.04h1.65v9.04Zm8.26 0c-.06-.27-.1-.51-.13-.72s-.05-.42-.05-.63c-.31.43-.71.8-1.2 1.09-.49.29-1.02.44-1.59.44-.94 0-1.66-.24-2.15-.72s-.74-1.15-.74-1.99.35-1.54 1.05-2.03 1.65-.73 2.84-.73h1.79v-.89c0-.53-.16-.95-.49-1.26-.32-.31-.78-.46-1.37-.46-.53 0-.96.13-1.29.41-.33.27-.5.59-.5.97h-1.57l-.02-.05c-.03-.66.28-1.26.93-1.8s1.5-.82 2.53-.82 1.85.26 2.47.78.94 1.27.94 2.25v4.35c0 .32.02.63.05.93.03.3.09.6.18.89h-1.7Zm-2.73-1.21c.6 0 1.13-.15 1.61-.46.48-.31.79-.66.94-1.05v-1.47h-1.85c-.66 0-1.19.17-1.59.5s-.6.72-.6 1.17c0 .4.12.72.38.95.25.23.62.35 1.11.35Zm20.06-2.69.02.05c.02 1.14-.38 2.1-1.2 2.87s-1.91 1.16-3.27 1.16-2.5-.49-3.36-1.46-1.3-2.21-1.3-3.71v-2.16c0-1.5.43-2.74 1.3-3.71s1.99-1.47 3.36-1.47 2.47.37 3.28 1.1c.81.73 1.21 1.7 1.19 2.91l-.02.05h-1.58c0-.85-.25-1.53-.75-2.02-.5-.5-1.21-.74-2.12-.74s-1.65.37-2.2 1.11-.82 1.66-.82 2.75v2.18c0 1.11.27 2.03.82 2.77.55.74 1.28 1.11 2.2 1.11s1.62-.25 2.12-.74.75-1.17.75-2.04h1.58Zm2.41 3.9v-12.16h3.73c1.59 0 2.87.49 3.83 1.47s1.44 2.24 1.44 3.79v1.66c0 1.55-.48 2.82-1.44 3.79s-2.24 1.46-3.83 1.46h-3.73Zm1.65-10.87V112h2.09c1.12 0 2.01-.37 2.66-1.11.65-.74.97-1.69.97-2.85v-1.68c0-1.15-.32-2.09-.97-2.83-.65-.74-1.54-1.11-2.66-1.11h-2.09Zm17.61.01h-3.91v10.87h-1.64v-10.87h-3.9v-1.29h9.45v1.29Zm42.49 6.77h1.68v1.29h-1.68v2.8h-1.64v-2.8h-5.46v-.93l5.36-8.43h1.74v8.07Zm-5.35 0h3.71v-5.7h-.05l-.16.41-3.5 5.29Zm10.58 4.09h-1.65v-1.7h1.65v1.7Zm9.32-4.09h1.68v1.29h-1.68v2.8h-1.64v-2.8h-5.46v-.93l5.36-8.43h1.74v8.07Zm-5.35 0h3.71v-5.7h-.05l-.16.41-3.5 5.29Zm9.05-1.39.7-6.67h6.09v1.46h-4.69l-.4 3.42c.26-.19.54-.35.86-.47s.68-.19 1.09-.21c1.12-.01 2 .35 2.64 1.09.64.74.96 1.74.96 2.99s-.33 2.2-.98 2.94c-.65.74-1.61 1.11-2.86 1.11-1.03 0-1.89-.28-2.57-.84-.69-.56-1.01-1.39-.99-2.48l.02-.05h1.49c0 .66.19 1.17.57 1.54s.88.54 1.48.54c.7 0 1.24-.24 1.62-.73.38-.49.58-1.16.58-2.01 0-.78-.2-1.42-.59-1.92-.39-.5-.93-.75-1.61-.75-.65 0-1.11.1-1.4.29-.29.2-.5.49-.63.89l-1.37-.14Zm17.02.85c0 1.55-.34 2.74-1.03 3.57-.69.83-1.63 1.24-2.83 1.24s-2.14-.42-2.84-1.25c-.7-.83-1.04-2.02-1.04-3.57v-2.88c0-1.55.35-2.74 1.04-3.57.69-.83 1.64-1.25 2.83-1.25s2.14.42 2.84 1.25c.69.83 1.04 2.02 1.04 3.57v2.88Zm-1.64-3.23c0-1.05-.19-1.84-.57-2.37s-.93-.8-1.66-.8-1.28.27-1.65.8c-.38.53-.57 1.32-.57 2.37V109c0 1.05.19 1.85.58 2.38.38.54.94.81 1.66.81s1.27-.27 1.65-.8c.38-.53.56-1.33.56-2.39v-3.56Zm5.76 7.86h-1.64v-1.7h1.64v1.7Zm6.02-1.11c.8 0 1.44-.3 1.92-.91.48-.6.72-1.5.72-2.7v-.55c-.27.4-.61.69-1.02.9-.41.2-.86.3-1.37.3-1.17 0-2.11-.36-2.8-1.09s-1.04-1.73-1.04-3 .37-2.22 1.1-3c.73-.78 1.62-1.17 2.67-1.17 1.27 0 2.27.4 3 1.19.73.79 1.1 1.96 1.1 3.5v2.9c0 1.59-.4 2.8-1.19 3.65-.79.85-1.83 1.27-3.1 1.27-.43 0-.86-.04-1.31-.12-.44-.08-.84-.21-1.19-.37l.25-1.27c.33.17.67.29 1.02.36s.76.1 1.22.1Zm.26-4.25c.61 0 1.11-.13 1.52-.39.4-.26.7-.59.87-1v-1.05c0-1.06-.21-1.87-.61-2.41-.41-.54-1.01-.82-1.79-.82-.6 0-1.11.27-1.54.8-.42.54-.63 1.22-.63 2.06s.2 1.51.59 2.03c.39.52.93.78 1.6.78Zm14.15-5.5c-1.47 1.75-2.46 3.3-2.98 4.65-.51 1.35-.89 2.99-1.12 4.91l-.13 1.31h-1.64l.13-1.31c.23-1.92.69-3.63 1.36-5.14.67-1.51 1.6-2.98 2.76-4.42h-6.61v-1.29h8.23v1.29Zm9.61 6.23c0 1.55-.34 2.74-1.03 3.57-.69.83-1.63 1.24-2.83 1.24s-2.14-.42-2.84-1.25c-.7-.83-1.04-2.02-1.04-3.57v-2.88c0-1.55.35-2.74 1.04-3.57.69-.83 1.64-1.25 2.83-1.25s2.14.42 2.84 1.25c.69.83 1.04 2.02 1.04 3.57v2.88Zm-1.65-3.23c0-1.05-.19-1.84-.57-2.37s-.93-.8-1.66-.8-1.27.27-1.65.8-.57 1.32-.57 2.37V109c0 1.05.19 1.85.58 2.38.38.54.94.81 1.66.81s1.27-.27 1.65-.8c.38-.53.56-1.33.56-2.39v-3.56Zm82.24-3c-1.47 1.75-2.46 3.3-2.98 4.65-.52 1.35-.89 2.99-1.12 4.91l-.13 1.31h-1.64l.13-1.31c.23-1.92.69-3.63 1.36-5.14.67-1.51 1.6-2.98 2.77-4.42h-6.62v-1.29h8.23v1.29Zm9.8 0c-1.47 1.75-2.46 3.3-2.98 4.65-.52 1.35-.89 2.99-1.12 4.91l-.13 1.31h-1.64l.13-1.31c.23-1.92.69-3.63 1.36-5.14.67-1.51 1.6-2.98 2.77-4.42h-6.62v-1.29h8.23v1.29Zm6.22 1.04c0-.71.23-1.3.68-1.79.46-.48 1.07-.73 1.83-.73s1.37.24 1.83.72c.46.48.68 1.08.68 1.79v.64c0 .71-.23 1.3-.68 1.78-.45.48-1.06.72-1.82.72s-1.38-.24-1.84-.72c-.46-.48-.69-1.07-.69-1.78v-.64Zm1.22.64c0 .41.11.76.34 1.05.23.29.55.43.97.43s.72-.14.94-.43c.22-.28.33-.63.33-1.05v-.64c0-.41-.11-.76-.34-1.06-.23-.29-.54-.44-.96-.44s-.74.15-.96.44c-.22.29-.33.64-.33 1.06v.64Zm1.74 8.26-.91-.56 5.94-9.5.91.56-5.94 9.5Zm2.93-2.06c0-.71.23-1.3.68-1.78s1.07-.72 1.83-.72 1.37.24 1.82.72.69 1.08.69 1.78v.65c0 .71-.23 1.31-.69 1.79-.46.48-1.06.72-1.81.72s-1.38-.24-1.84-.72c-.46-.48-.69-1.07-.69-1.79v-.65Zm1.22.65c0 .42.11.77.34 1.06.23.29.55.43.97.43s.72-.14.94-.43c.22-.29.33-.64.33-1.06v-.65c0-.41-.11-.76-.34-1.05-.23-.29-.54-.43-.95-.43s-.73.15-.96.43c-.23.29-.34.64-.34 1.05v.65Zm87.71-10c.42 0 .83.05 1.24.14.41.09.75.21 1.01.36l-.35 1.26c-.27-.14-.56-.25-.86-.34-.3-.09-.65-.13-1.05-.13-.87 0-1.57.35-2.1 1.04-.53.7-.8 1.6-.8 2.72v.19c.36-.31.76-.55 1.22-.73.46-.17.95-.26 1.48-.26 1.09 0 1.95.38 2.6 1.13.65.75.97 1.7.97 2.86 0 1.26-.34 2.28-1.03 3.08-.69.79-1.6 1.19-2.75 1.19s-2.18-.43-2.96-1.29c-.78-.86-1.17-2.08-1.17-3.65v-2.32c0-1.56.43-2.82 1.3-3.79.87-.97 1.95-1.45 3.23-1.45Zm-.56 5.49c-.56 0-1.04.11-1.44.34-.4.23-.7.53-.9.91v.98c0 1.12.24 1.98.71 2.58.47.61 1.07.91 1.78.91.67 0 1.2-.29 1.57-.85.38-.57.56-1.28.56-2.12 0-.8-.2-1.46-.61-1.98-.4-.52-.96-.78-1.68-.78Zm7.71 6.84h-1.64v-1.7h1.64v1.7Zm7.4-12.33c.42 0 .83.05 1.24.14.41.09.75.21 1.01.36l-.35 1.26c-.27-.14-.56-.25-.86-.34-.3-.09-.65-.13-1.05-.13-.87 0-1.57.35-2.1 1.04-.53.7-.8 1.6-.8 2.72v.19c.36-.31.76-.55 1.22-.73.46-.17.95-.26 1.48-.26 1.09 0 1.95.38 2.6 1.13.65.75.97 1.7.97 2.86 0 1.26-.34 2.28-1.03 3.08-.69.79-1.6 1.19-2.75 1.19s-2.18-.43-2.96-1.29c-.78-.86-1.17-2.08-1.17-3.65v-2.32c0-1.56.43-2.82 1.3-3.79.87-.97 1.95-1.45 3.23-1.45Zm-.56 5.49c-.56 0-1.04.11-1.44.34-.4.23-.7.53-.9.91v.98c0 1.12.24 1.98.71 2.58.47.61 1.07.91 1.78.91.67 0 1.2-.29 1.57-.85.38-.57.56-1.28.56-2.12 0-.8-.2-1.46-.61-1.98-.4-.52-.96-.78-1.68-.78Zm8.99 5.73c.8 0 1.44-.3 1.92-.91.48-.6.72-1.5.72-2.7v-.55c-.27.4-.61.69-1.02.9s-.86.3-1.37.3c-1.17 0-2.11-.36-2.8-1.09-.69-.73-1.04-1.73-1.04-3s.37-2.22 1.1-3c.73-.78 1.62-1.17 2.67-1.17 1.27 0 2.27.4 3 1.19.73.79 1.1 1.96 1.1 3.5v2.9c0 1.59-.4 2.8-1.19 3.65-.79.85-1.83 1.27-3.1 1.27-.43 0-.87-.04-1.31-.12s-.84-.21-1.19-.37l.25-1.27c.33.17.67.29 1.02.36s.76.1 1.22.1Zm.26-4.25c.61 0 1.11-.13 1.52-.39.4-.26.7-.59.87-1v-1.05c0-1.06-.2-1.87-.61-2.41s-1.01-.82-1.79-.82c-.6 0-1.11.27-1.54.8-.42.54-.63 1.22-.63 2.06s.2 1.51.59 2.03c.39.52.93.78 1.6.78Zm9.54 4.25c.8 0 1.44-.3 1.92-.91.48-.6.72-1.5.72-2.7v-.55c-.27.4-.61.69-1.02.9s-.86.3-1.37.3c-1.17 0-2.11-.36-2.8-1.09-.69-.73-1.04-1.73-1.04-3s.37-2.22 1.1-3c.73-.78 1.62-1.17 2.67-1.17 1.27 0 2.27.4 3 1.19.73.79 1.1 1.96 1.1 3.5v2.9c0 1.59-.4 2.8-1.19 3.65-.79.85-1.83 1.27-3.1 1.27-.43 0-.87-.04-1.31-.12s-.84-.21-1.19-.37l.25-1.27c.33.17.67.29 1.02.36s.76.1 1.22.1Zm.26-4.25c.61 0 1.11-.13 1.52-.39.4-.26.7-.59.87-1v-1.05c0-1.06-.2-1.87-.61-2.41s-1.01-.82-1.79-.82c-.6 0-1.11.27-1.54.8-.42.54-.63 1.22-.63 2.06s.2 1.51.59 2.03c.39.52.93.78 1.6.78Zm8.26 5.36h-1.65v-1.7h1.65v1.7Zm10.63-10.86c-1.47 1.75-2.46 3.3-2.98 4.65-.51 1.35-.89 2.99-1.12 4.91l-.13 1.31h-1.64l.13-1.31c.23-1.92.69-3.63 1.36-5.14.67-1.51 1.6-2.98 2.76-4.42h-6.61v-1.29h8.23v1.29Zm6.57-1.47c.42 0 .83.05 1.24.14s.75.21 1.01.36l-.35 1.26c-.27-.14-.56-.25-.86-.34-.3-.09-.65-.13-1.05-.13-.87 0-1.57.35-2.1 1.04-.53.7-.8 1.6-.8 2.72v.19c.36-.31.76-.55 1.22-.73.46-.17.95-.26 1.48-.26 1.09 0 1.95.38 2.6 1.13.65.75.97 1.7.97 2.86 0 1.26-.34 2.28-1.03 3.08-.69.79-1.6 1.19-2.75 1.19s-2.18-.43-2.96-1.29c-.78-.86-1.17-2.08-1.17-3.65v-2.32c0-1.56.43-2.82 1.3-3.79s1.95-1.45 3.23-1.45Zm-.56 5.49c-.56 0-1.04.11-1.44.34-.4.23-.7.53-.9.91v.98c0 1.12.24 1.98.71 2.58s1.07.91 1.78.91c.67 0 1.2-.29 1.57-.85.38-.57.56-1.28.56-2.12 0-.8-.2-1.46-.61-1.98-.4-.52-.96-.78-1.68-.78Zm13.16-2.14c0 .63-.18 1.19-.54 1.67-.36.48-.84.83-1.45 1.06.7.25 1.26.63 1.68 1.15.42.52.63 1.13.63 1.81 0 1.12-.37 1.98-1.1 2.58-.73.59-1.68.89-2.85.89s-2.15-.3-2.88-.89-1.09-1.45-1.09-2.58c0-.68.21-1.29.62-1.81.41-.52.97-.91 1.67-1.15-.61-.23-1.08-.59-1.43-1.06-.35-.48-.52-1.03-.52-1.67 0-1.07.33-1.89.99-2.48s1.53-.87 2.62-.87 1.94.29 2.62.87c.68.58 1.02 1.41 1.02 2.48Zm-1.3 5.66c0-.67-.22-1.21-.66-1.64-.44-.43-1-.64-1.67-.64s-1.24.21-1.67.64-.64.98-.64 1.64.21 1.23.63 1.62c.42.39.99.59 1.69.59s1.24-.2 1.67-.59.64-.93.64-1.62Zm-.34-5.62c0-.6-.19-1.1-.56-1.5-.38-.4-.85-.59-1.42-.59s-1.06.19-1.42.57c-.36.38-.54.89-.54 1.52s.18 1.11.55 1.49c.36.37.84.56 1.43.56s1.05-.19 1.42-.56.55-.87.55-1.49Zm67.75-.04c0 .63-.18 1.19-.54 1.67-.36.48-.84.83-1.45 1.06.7.25 1.26.63 1.68 1.15.42.52.63 1.13.63 1.81 0 1.12-.37 1.98-1.1 2.58-.73.59-1.68.89-2.85.89s-2.15-.3-2.88-.89-1.09-1.45-1.09-2.58c0-.68.21-1.29.62-1.81.41-.52.97-.91 1.67-1.15-.61-.23-1.08-.59-1.43-1.06-.35-.48-.52-1.03-.52-1.67 0-1.07.33-1.89.99-2.48s1.53-.87 2.62-.87 1.94.29 2.62.87c.68.58 1.02 1.41 1.02 2.48Zm-1.3 5.66c0-.67-.22-1.21-.66-1.64-.44-.43-1-.64-1.67-.64s-1.24.21-1.67.64-.64.98-.64 1.64.21 1.23.63 1.62c.42.39.99.59 1.69.59s1.24-.2 1.67-.59.64-.93.64-1.62Zm-.34-5.62c0-.6-.19-1.1-.56-1.5-.38-.4-.85-.59-1.42-.59s-1.06.19-1.42.57c-.36.38-.54.89-.54 1.52s.18 1.11.55 1.49c.36.37.84.56 1.43.56s1.05-.19 1.42-.56.55-.87.55-1.49Zm11.69 4.31c0 1.55-.34 2.74-1.03 3.57-.69.83-1.63 1.24-2.83 1.24s-2.14-.42-2.84-1.25c-.7-.83-1.04-2.02-1.04-3.57v-2.88c0-1.55.35-2.74 1.04-3.57.69-.83 1.64-1.25 2.83-1.25s2.14.42 2.84 1.25c.69.83 1.04 2.02 1.04 3.57v2.88Zm-1.64-3.23c0-1.05-.19-1.84-.57-2.37-.38-.53-.93-.8-1.66-.8s-1.28.27-1.65.8-.57 1.32-.57 2.37V109c0 1.05.19 1.85.58 2.38.38.54.94.81 1.66.81s1.27-.27 1.65-.8.56-1.33.56-2.39v-3.56Zm8.05-1.96c0-.71.23-1.3.69-1.79.46-.48 1.07-.73 1.83-.73s1.37.24 1.83.72c.46.48.68 1.08.68 1.79v.64c0 .71-.23 1.3-.68 1.78-.45.48-1.06.72-1.82.72s-1.38-.24-1.84-.72c-.46-.48-.69-1.07-.69-1.78v-.64Zm1.22.64c0 .41.11.76.34 1.05.22.29.55.43.97.43s.72-.14.94-.43c.22-.28.33-.63.33-1.05v-.64c0-.41-.11-.76-.34-1.06-.23-.29-.54-.44-.96-.44s-.74.15-.96.44c-.22.29-.33.64-.33 1.06v.64Zm1.74 8.26-.91-.56 5.94-9.5.91.56-5.94 9.5Zm2.93-2.06c0-.71.23-1.3.69-1.78.46-.48 1.07-.72 1.83-.72s1.37.24 1.83.72.69 1.08.69 1.78v.65c0 .71-.23 1.31-.68 1.79-.46.48-1.06.72-1.81.72s-1.38-.24-1.84-.72c-.46-.48-.69-1.07-.69-1.79v-.65Zm1.22.65c0 .42.11.77.34 1.06.23.29.55.43.97.43s.72-.14.94-.43c.22-.29.33-.64.33-1.06v-.65c0-.41-.11-.76-.34-1.05-.23-.29-.55-.43-.95-.43s-.73.15-.96.43c-.23.29-.34.64-.34 1.05v.65Zm83.51-3.15.7-6.67h6.09v1.46h-4.69l-.4 3.42c.26-.19.54-.35.86-.47.32-.12.68-.19 1.09-.21 1.12-.01 2 .35 2.64 1.09.64.74.96 1.74.96 2.99s-.33 2.2-.98 2.94-1.61 1.11-2.86 1.11c-1.03 0-1.89-.28-2.57-.84s-1.01-1.39-.99-2.48l.02-.05h1.49c0 .66.19 1.17.57 1.54s.88.54 1.48.54c.7 0 1.24-.24 1.62-.73.38-.49.58-1.16.58-2.01 0-.78-.19-1.42-.58-1.92-.39-.5-.93-.75-1.61-.75-.65 0-1.11.1-1.4.29-.29.2-.5.49-.63.89l-1.37-.14Zm14.03 5.48h-1.65v-10.56l-2.49.03v-1.19l4.13-.45v12.16Zm9.4-9.82c0-.71.23-1.3.69-1.79.46-.48 1.07-.73 1.83-.73s1.37.24 1.83.72c.46.48.68 1.08.68 1.79v.64c0 .71-.23 1.3-.68 1.78-.45.48-1.06.72-1.82.72s-1.38-.24-1.84-.72c-.46-.48-.69-1.07-.69-1.78v-.64Zm1.22.64c0 .41.11.76.34 1.05.22.29.55.43.97.43s.72-.14.94-.43c.22-.28.33-.63.33-1.05v-.64c0-.41-.11-.76-.34-1.06-.23-.29-.54-.44-.96-.44s-.74.15-.96.44c-.22.29-.33.64-.33 1.06v.64Zm1.74 8.26-.91-.56 5.94-9.5.91.56-5.94 9.5Zm2.93-2.06c0-.71.23-1.3.68-1.78.46-.48 1.07-.72 1.83-.72s1.37.24 1.83.72.69 1.08.69 1.78v.65c0 .71-.23 1.31-.69 1.79-.46.48-1.06.72-1.81.72s-1.38-.24-1.84-.72c-.46-.48-.69-1.07-.69-1.79v-.65Zm1.22.65c0 .42.11.77.34 1.06.23.29.55.43.97.43s.72-.14.94-.43c.22-.29.33-.64.33-1.06v-.65c0-.41-.11-.76-.34-1.05-.23-.29-.55-.43-.95-.43s-.73.15-.96.43c-.23.29-.34.64-.34 1.05v.65ZM30.42 144.2v5.27h-1.64v-12.15h4.4c1.33 0 2.35.29 3.05.89.7.59 1.05 1.45 1.05 2.57 0 .62-.16 1.17-.49 1.63-.33.46-.8.83-1.42 1.1.67.22 1.15.57 1.44 1.06.29.49.44 1.09.44 1.81v1.14c0 .38.04.72.12 1.02s.23.55.43.74v.2h-1.7c-.22-.19-.36-.47-.42-.83-.06-.37-.09-.75-.09-1.14v-1.11c0-.66-.19-1.19-.58-1.59-.38-.4-.9-.6-1.54-.6h-3.06Zm0-1.29h2.59c.93 0 1.6-.18 2.01-.53.41-.35.61-.89.61-1.61 0-.68-.2-1.21-.6-1.59-.4-.38-1.02-.56-1.86-.56h-2.76v4.29Zm13.37 6.74c-1.26 0-2.26-.42-3-1.26-.74-.84-1.12-1.92-1.12-3.26v-.37c0-1.29.38-2.36 1.15-3.21s1.67-1.28 2.72-1.28c1.22 0 2.14.37 2.76 1.1.62.74.94 1.71.94 2.94v1.03h-5.86l-.02.04c.02.87.24 1.58.66 2.14.42.56 1.02.84 1.78.84.56 0 1.04-.08 1.47-.24.42-.16.78-.38 1.09-.66l.64 1.07c-.32.32-.75.58-1.28.8-.53.21-1.17.32-1.92.32Zm-.25-8.08c-.55 0-1.02.23-1.41.7-.39.46-.63 1.04-.72 1.74l.02.04h4.17v-.22c0-.64-.17-1.18-.52-1.61-.34-.43-.86-.65-1.54-.65Zm7.19-1.13.12 1.34c.3-.48.68-.85 1.13-1.12.45-.26.97-.4 1.55-.4.97 0 1.73.29 2.26.86.53.57.8 1.45.8 2.64v5.7h-1.64v-5.67c0-.8-.16-1.36-.47-1.7s-.79-.5-1.44-.5a2.334 2.334 0 0 0-2.13 1.28v6.59h-1.64v-9.04h1.47Zm8.04 4.43c0-1.34.36-2.44 1.09-3.3.72-.87 1.71-1.3 2.95-1.3s2.24.43 2.97 1.29 1.09 1.97 1.09 3.31v.18c0 1.35-.36 2.45-1.09 3.31-.72.86-1.71 1.29-2.96 1.29s-2.23-.43-2.96-1.29-1.09-1.96-1.09-3.3v-.18Zm1.65.18c0 .96.2 1.75.61 2.37.4.62 1 .93 1.8.93s1.38-.31 1.79-.93c.41-.62.61-1.41.61-2.37v-.18c0-.95-.2-1.73-.61-2.36-.41-.63-1.01-.94-1.8-.94s-1.38.31-1.78.94c-.4.63-.61 1.42-.61 2.36v.18Zm11.5 1.76.14.63h.05l.16-.63 2.08-6.37h1.68l-3.32 9.04h-1.25l-3.37-9.04h1.69l2.14 6.37Zm11.25 2.66c-.06-.27-.1-.51-.13-.72s-.05-.42-.05-.63c-.31.43-.71.8-1.2 1.09-.49.29-1.02.44-1.59.44-.94 0-1.66-.24-2.15-.72s-.74-1.15-.74-1.99.35-1.54 1.05-2.03 1.65-.73 2.84-.73h1.79v-.89c0-.53-.16-.95-.49-1.26-.32-.31-.78-.46-1.37-.46-.53 0-.96.13-1.29.41-.33.27-.5.59-.5.97h-1.57l-.02-.05c-.03-.66.28-1.26.93-1.8s1.5-.82 2.53-.82 1.85.26 2.47.78.94 1.27.94 2.25v4.35c0 .32.02.63.05.93.03.3.09.6.18.89h-1.7Zm-2.73-1.21c.6 0 1.13-.15 1.61-.46.48-.31.79-.66.94-1.05v-1.47h-1.85c-.66 0-1.19.17-1.59.5s-.6.72-.6 1.17c0 .4.12.72.38.95.25.23.62.35 1.11.35Zm10.42.09c.55 0 1.03-.17 1.44-.5.41-.34.62-.75.62-1.24h1.48l.02.05c.03.78-.32 1.47-1.04 2.08-.72.61-1.56.91-2.52.91-1.31 0-2.32-.43-3.02-1.29-.7-.86-1.04-1.94-1.04-3.23v-.35c0-1.29.35-2.36 1.05-3.22.7-.86 1.7-1.29 3.01-1.29 1.06 0 1.92.31 2.59.94.67.62.99 1.39.97 2.3l-.02.05h-1.49c0-.55-.19-1.02-.58-1.41-.39-.39-.88-.58-1.48-.58-.86 0-1.48.31-1.85.93-.37.62-.56 1.38-.56 2.28v.35c0 .92.18 1.69.55 2.31.37.61.98.92 1.85.92Zm7.36-10.23h-1.64v-1.68h1.64v1.68Zm0 11.35h-1.64v-9.04h1.64v9.04Zm2.3-4.6c0-1.34.36-2.44 1.09-3.3.72-.87 1.71-1.3 2.95-1.3s2.24.43 2.97 1.29 1.09 1.97 1.09 3.31v.18c0 1.35-.36 2.45-1.09 3.31-.72.86-1.71 1.29-2.96 1.29s-2.23-.43-2.96-1.29-1.09-1.96-1.09-3.3v-.18Zm1.65.18c0 .96.2 1.75.61 2.37.4.62 1 .93 1.8.93s1.38-.31 1.79-.93c.41-.62.61-1.41.61-2.37v-.18c0-.95-.2-1.73-.61-2.36-.41-.63-1.01-.94-1.8-.94s-1.38.31-1.78.94c-.4.63-.61 1.42-.61 2.36v.18Zm3.2-8.11h1.92l.02.05-2.25 2.17h-1.23l1.54-2.22Zm6.89 3.5.12 1.34c.3-.48.68-.85 1.13-1.12.45-.26.97-.4 1.55-.4.97 0 1.73.29 2.26.86.54.57.8 1.45.8 2.64v5.7h-1.65v-5.67c0-.8-.16-1.36-.47-1.7s-.79-.5-1.44-.5c-.47 0-.89.11-1.26.34-.36.23-.66.54-.87.94v6.59h-1.65v-9.04h1.47Zm21.75 5.13.02.05c.02 1.14-.38 2.1-1.2 2.87s-1.91 1.16-3.27 1.16-2.5-.49-3.36-1.46c-.87-.97-1.3-2.21-1.3-3.71v-2.16c0-1.5.43-2.74 1.3-3.71.87-.98 1.99-1.47 3.36-1.47s2.47.37 3.28 1.1c.81.73 1.21 1.7 1.19 2.91l-.02.05h-1.58c0-.85-.25-1.53-.75-2.02-.5-.5-1.21-.74-2.12-.74s-1.65.37-2.2 1.11c-.55.74-.82 1.66-.82 2.75v2.18c0 1.11.27 2.03.82 2.77.54.74 1.28 1.11 2.2 1.11s1.62-.25 2.12-.74.75-1.17.75-2.04h1.58Zm2.41 3.9v-12.16h3.73c1.59 0 2.87.49 3.83 1.47s1.44 2.24 1.44 3.79v1.66c0 1.55-.48 2.82-1.44 3.79-.96.97-2.24 1.46-3.83 1.46h-3.73Zm1.65-10.87v9.57h2.09c1.12 0 2.01-.37 2.66-1.11s.97-1.69.97-2.85v-1.68c0-1.15-.32-2.09-.97-2.83-.65-.74-1.54-1.11-2.66-1.11h-2.09Zm17.62.01h-3.91v10.87h-1.65v-10.87h-3.9v-1.29h9.46v1.29Zm81.2 10.86h-1.64v-10.56l-2.49.03v-1.19l4.13-.45v12.16Zm7.1 0h-1.65v-1.7h1.65v1.7Zm5-6.84h1.44c.73 0 1.25-.18 1.55-.55.3-.36.46-.87.46-1.52 0-.7-.17-1.22-.52-1.59-.35-.36-.86-.54-1.53-.54s-1.15.19-1.54.56c-.39.38-.58.88-.58 1.5h-1.58l-.02-.05c-.03-.92.3-1.7 1-2.34.69-.64 1.6-.96 2.72-.96s2.02.3 2.69.9c.67.6 1 1.45 1 2.56 0 .5-.15 1-.46 1.5-.3.5-.76.88-1.37 1.14.73.24 1.25.62 1.55 1.13s.46 1.09.46 1.72c0 1.11-.36 1.98-1.09 2.61s-1.66.95-2.79.95-2.03-.3-2.75-.9-1.08-1.41-1.05-2.43l.03-.05h1.57c0 .64.2 1.15.59 1.52s.93.57 1.62.57 1.24-.19 1.64-.57c.4-.38.59-.93.59-1.67s-.18-1.3-.53-1.66c-.35-.35-.91-.53-1.66-.53h-1.44v-1.29Zm8.02 1.36.7-6.67h6.09v1.46h-4.69l-.4 3.42c.26-.19.54-.35.86-.47s.68-.19 1.09-.21c1.12-.01 2 .35 2.64 1.09s.96 1.74.96 2.99-.33 2.2-.98 2.94-1.61 1.11-2.86 1.11c-1.03 0-1.89-.28-2.57-.84-.68-.56-1.01-1.39-.99-2.48l.02-.05h1.49c0 .66.19 1.17.57 1.54.38.36.88.54 1.48.54.7 0 1.24-.24 1.62-.73.38-.49.58-1.16.58-2.01 0-.78-.2-1.42-.58-1.92-.39-.5-.93-.75-1.61-.75-.65 0-1.11.1-1.4.29-.29.2-.5.49-.63.89l-1.37-.14Zm16.78-3.5c0 .63-.18 1.19-.53 1.67-.36.48-.84.83-1.44 1.06.7.25 1.26.63 1.68 1.15.42.52.63 1.13.63 1.81 0 1.12-.37 1.98-1.1 2.58s-1.68.89-2.85.89-2.15-.3-2.88-.89-1.09-1.45-1.09-2.58c0-.68.21-1.29.62-1.81.41-.52.97-.91 1.67-1.15-.61-.23-1.08-.59-1.43-1.06-.35-.48-.52-1.03-.52-1.67 0-1.07.33-1.89.99-2.48s1.53-.87 2.62-.87 1.94.29 2.62.87c.68.58 1.01 1.41 1.01 2.48Zm-1.3 5.66c0-.67-.22-1.21-.66-1.64-.44-.43-1-.64-1.67-.64s-1.24.21-1.67.64-.64.98-.64 1.64.21 1.23.63 1.62c.42.39.99.59 1.69.59s1.24-.2 1.67-.59c.43-.39.64-.93.64-1.62Zm-.34-5.62c0-.6-.19-1.1-.56-1.5-.38-.4-.85-.59-1.42-.59s-1.06.19-1.42.57c-.36.38-.54.89-.54 1.52s.18 1.11.55 1.49c.37.37.84.56 1.43.56s1.05-.19 1.42-.56c.37-.37.55-.87.55-1.49Zm5.99 8.94h-1.64v-1.7h1.64v1.7Zm9.32-4.09h1.68v1.29h-1.68v2.8h-1.64v-2.8h-5.46v-.93l5.36-8.43h1.74v8.07Zm-5.34 0h3.71v-5.7h-.05l-.16.41-3.5 5.29Zm11.85 2.97c.8 0 1.44-.3 1.92-.91.48-.6.72-1.5.72-2.7v-.55c-.27.4-.61.69-1.02.9-.41.2-.86.3-1.37.3-1.17 0-2.11-.36-2.8-1.09s-1.04-1.73-1.04-3 .37-2.22 1.1-3c.73-.78 1.62-1.17 2.67-1.17 1.27 0 2.27.4 3 1.19.73.79 1.1 1.96 1.1 3.5v2.9c0 1.59-.4 2.8-1.19 3.65-.79.85-1.83 1.27-3.1 1.27-.43 0-.86-.04-1.31-.12-.44-.08-.84-.21-1.19-.37l.25-1.27c.33.17.67.29 1.02.36s.76.1 1.22.1Zm.26-4.25c.61 0 1.11-.13 1.52-.39.4-.26.7-.59.87-1v-1.05c0-1.06-.21-1.87-.61-2.41-.41-.54-1.01-.82-1.79-.82-.6 0-1.11.27-1.54.8-.42.54-.63 1.22-.63 2.06s.2 1.51.59 2.03c.39.52.93.78 1.6.78Zm14.14 5.37h-7.88v-1.13l3.98-4.42c.71-.8 1.2-1.43 1.45-1.9s.38-.95.38-1.44c0-.61-.18-1.12-.53-1.53s-.82-.62-1.41-.62c-.84 0-1.46.22-1.86.65-.4.43-.6 1.04-.6 1.82h-1.58l-.02-.05c-.03-1.05.32-1.93 1.04-2.64.72-.71 1.73-1.07 3.01-1.07 1.09 0 1.96.32 2.61.96.65.64.97 1.45.97 2.43 0 .66-.2 1.33-.59 1.99s-.94 1.38-1.65 2.14l-3.2 3.47.02.04h5.85v1.29Zm80.41 0h-7.88v-1.13l3.98-4.42c.71-.8 1.2-1.43 1.45-1.9s.38-.95.38-1.44c0-.61-.18-1.12-.53-1.53s-.82-.62-1.41-.62c-.84 0-1.46.22-1.86.65-.4.43-.6 1.04-.6 1.82h-1.58l-.02-.05c-.03-1.05.32-1.93 1.04-2.64.72-.71 1.73-1.07 3.01-1.07 1.09 0 1.96.32 2.61.96s.97 1.45.97 2.43c0 .66-.2 1.33-.59 1.99s-.94 1.38-1.65 2.14l-3.2 3.47.02.04h5.85v1.29Zm4.17-6.84h1.44c.73 0 1.25-.18 1.55-.55.3-.36.46-.87.46-1.52 0-.7-.17-1.22-.52-1.59-.35-.36-.86-.54-1.53-.54s-1.15.19-1.54.56c-.39.38-.58.88-.58 1.5h-1.58l-.02-.05c-.03-.92.3-1.7 1-2.34.69-.64 1.6-.96 2.72-.96s2.02.3 2.69.9c.67.6 1 1.45 1 2.56 0 .5-.15 1-.46 1.5-.3.5-.76.88-1.37 1.14.73.24 1.25.62 1.55 1.13s.46 1.09.46 1.72c0 1.11-.36 1.98-1.09 2.61s-1.66.95-2.79.95-2.03-.3-2.75-.9-1.08-1.41-1.05-2.43l.03-.05h1.57c0 .64.2 1.15.59 1.52s.93.57 1.62.57 1.24-.19 1.64-.57c.4-.38.59-.93.59-1.67s-.18-1.3-.53-1.66c-.35-.35-.91-.53-1.66-.53h-1.44v-1.29Zm11.85-2.98c0-.71.23-1.3.69-1.79.46-.48 1.07-.73 1.83-.73s1.37.24 1.83.72c.46.48.68 1.08.68 1.79v.64c0 .71-.23 1.3-.68 1.78-.45.48-1.06.72-1.82.72s-1.38-.24-1.84-.72c-.46-.48-.69-1.07-.69-1.78v-.64Zm1.22.64c0 .41.11.76.34 1.05.23.29.55.43.97.43s.72-.14.94-.43c.22-.28.33-.63.33-1.05v-.64c0-.41-.11-.76-.34-1.06-.23-.29-.54-.44-.96-.44s-.74.15-.96.44c-.22.29-.33.64-.33 1.06v.64Zm1.74 8.26-.91-.56 5.94-9.5.91.56-5.94 9.5Zm2.93-2.06c0-.71.23-1.3.68-1.78.46-.48 1.07-.72 1.83-.72s1.37.24 1.82.72c.46.48.69 1.08.69 1.78v.65c0 .71-.23 1.31-.68 1.79-.46.48-1.06.72-1.81.72s-1.38-.24-1.84-.72c-.46-.48-.69-1.07-.69-1.79v-.65Zm1.22.65c0 .42.11.77.34 1.06.23.29.55.43.97.43s.72-.14.94-.43c.22-.29.33-.64.33-1.06v-.65c0-.41-.12-.76-.34-1.05-.23-.29-.55-.43-.95-.43s-.73.15-.96.43c-.22.29-.34.64-.34 1.05v.65Zm87.76 2.33h-1.65v-10.56l-2.49.03v-1.19l4.13-.45v12.16Zm7.11 0h-1.65v-1.7h1.65v1.7Zm10.62-10.86c-1.47 1.75-2.46 3.3-2.98 4.65-.51 1.35-.89 2.99-1.12 4.91l-.13 1.31h-1.64l.13-1.31c.23-1.92.69-3.63 1.36-5.14.67-1.51 1.6-2.98 2.76-4.42h-6.61v-1.29h8.23v1.29Zm6.62 10.86h-1.65v-10.56l-2.49.03v-1.19l4.13-.45v12.16Zm12.8-4.63c0 1.55-.34 2.74-1.03 3.57-.69.83-1.63 1.24-2.83 1.24s-2.14-.42-2.84-1.25c-.7-.83-1.04-2.02-1.04-3.57v-2.88c0-1.55.35-2.74 1.04-3.57.69-.83 1.64-1.25 2.83-1.25s2.14.42 2.84 1.25c.69.83 1.04 2.02 1.04 3.57v2.88Zm-1.64-3.23c0-1.05-.19-1.84-.57-2.37-.38-.53-.93-.8-1.66-.8s-1.28.27-1.65.8-.57 1.32-.57 2.37v3.56c0 1.05.19 1.85.58 2.38.38.54.94.81 1.66.81s1.27-.27 1.65-.8.56-1.33.56-2.39v-3.56Zm5.76 7.86h-1.65v-1.7h1.65v1.7Zm10.62 0h-7.88v-1.13l3.98-4.42c.71-.8 1.2-1.43 1.45-1.9s.38-.95.38-1.44c0-.61-.18-1.12-.53-1.53s-.82-.62-1.41-.62c-.84 0-1.46.22-1.86.65-.4.43-.6 1.04-.6 1.82h-1.58l-.02-.05c-.03-1.05.32-1.93 1.04-2.64.72-.71 1.73-1.07 3.01-1.07 1.09 0 1.96.32 2.61.96s.97 1.45.97 2.43c0 .66-.2 1.33-.59 1.99s-.94 1.38-1.65 2.14l-3.2 3.47.02.04h5.85v1.29Zm9.62-4.63c0 1.55-.34 2.74-1.03 3.57-.69.83-1.63 1.24-2.83 1.24s-2.14-.42-2.84-1.25c-.7-.83-1.04-2.02-1.04-3.57v-2.88c0-1.55.35-2.74 1.04-3.57.69-.83 1.63-1.25 2.83-1.25s2.14.42 2.84 1.25c.69.83 1.04 2.02 1.04 3.57v2.88Zm-1.65-3.23c0-1.05-.19-1.84-.57-2.37-.38-.53-.93-.8-1.66-.8s-1.27.27-1.65.8c-.38.53-.57 1.32-.57 2.37v3.56c0 1.05.19 1.85.58 2.38.38.54.94.81 1.66.81s1.27-.27 1.65-.8.56-1.33.56-2.39v-3.56Zm11.46 3.23c0 1.55-.34 2.74-1.03 3.57-.69.83-1.63 1.24-2.83 1.24s-2.14-.42-2.84-1.25c-.7-.83-1.04-2.02-1.04-3.57v-2.88c0-1.55.35-2.74 1.04-3.57.69-.83 1.64-1.25 2.83-1.25s2.14.42 2.84 1.25c.69.83 1.04 2.02 1.04 3.57v2.88Zm-1.65-3.23c0-1.05-.19-1.84-.57-2.37s-.93-.8-1.66-.8-1.27.27-1.65.8-.57 1.32-.57 2.37v3.56c0 1.05.19 1.85.58 2.38.38.54.94.81 1.66.81s1.27-.27 1.65-.8c.38-.53.56-1.33.56-2.39v-3.56Zm67.93 7.86h-7.88v-1.13l3.98-4.42c.71-.8 1.2-1.43 1.45-1.9s.38-.95.38-1.44c0-.61-.18-1.12-.53-1.53s-.82-.62-1.41-.62c-.84 0-1.46.22-1.86.65-.4.43-.6 1.04-.6 1.82h-1.58l-.02-.05c-.03-1.05.32-1.93 1.04-2.64.72-.71 1.73-1.07 3.01-1.07 1.09 0 1.96.32 2.61.96s.97 1.45.97 2.43c0 .66-.2 1.33-.59 1.99s-.94 1.38-1.65 2.14l-3.2 3.47.02.04h5.85v1.29Zm9.61-4.63c0 1.55-.34 2.74-1.03 3.57-.69.83-1.63 1.24-2.83 1.24s-2.14-.42-2.84-1.25c-.7-.83-1.04-2.02-1.04-3.57v-2.88c0-1.55.35-2.74 1.04-3.57.69-.83 1.64-1.25 2.83-1.25s2.14.42 2.84 1.25c.69.83 1.04 2.02 1.04 3.57v2.88Zm-1.64-3.23c0-1.05-.19-1.84-.57-2.37s-.93-.8-1.66-.8-1.28.27-1.65.8c-.38.53-.57 1.32-.57 2.37v3.56c0 1.05.19 1.85.58 2.38.38.54.94.81 1.66.81s1.27-.27 1.65-.8c.38-.53.56-1.33.56-2.39v-3.56Zm8.06-1.96c0-.71.23-1.3.68-1.79s1.07-.73 1.83-.73 1.37.24 1.83.72.69 1.08.69 1.79v.64c0 .71-.23 1.3-.68 1.78-.45.48-1.06.72-1.82.72s-1.38-.24-1.84-.72c-.46-.48-.69-1.07-.69-1.78v-.64Zm1.22.64c0 .41.11.76.34 1.05.23.29.55.43.97.43s.72-.14.94-.43c.22-.28.33-.63.33-1.05v-.64c0-.41-.11-.76-.34-1.06-.22-.29-.54-.44-.96-.44s-.74.15-.96.44c-.22.29-.33.64-.33 1.06v.64Zm1.74 8.26-.91-.56 5.94-9.5.91.56-5.94 9.5Zm2.93-2.06c0-.71.23-1.3.69-1.78.46-.48 1.07-.72 1.83-.72s1.37.24 1.83.72c.46.48.69 1.08.69 1.78v.65c0 .71-.23 1.31-.68 1.79-.46.48-1.06.72-1.81.72s-1.38-.24-1.84-.72c-.46-.48-.69-1.07-.69-1.79v-.65Zm1.22.65c0 .42.11.77.34 1.06.22.29.55.43.97.43s.72-.14.94-.43c.22-.29.33-.64.33-1.06v-.65c0-.41-.11-.76-.34-1.05-.23-.29-.55-.43-.95-.43s-.73.15-.96.43c-.23.29-.34.64-.34 1.05v.65Zm90.91 2.33h-7.88v-1.13l3.98-4.42c.71-.8 1.2-1.43 1.45-1.9s.38-.95.38-1.44c0-.61-.18-1.12-.53-1.53s-.82-.62-1.41-.62c-.84 0-1.46.22-1.86.65-.4.43-.6 1.04-.6 1.82h-1.58l-.02-.05c-.03-1.05.32-1.93 1.04-2.64.72-.71 1.73-1.07 3.01-1.07 1.09 0 1.96.32 2.61.96s.97 1.45.97 2.43c0 .66-.2 1.33-.59 1.99s-.94 1.38-1.65 2.14l-3.2 3.47.02.04h5.85v1.29Zm6.57-12.33c.42 0 .83.05 1.24.14s.75.21 1.01.36l-.35 1.26c-.27-.14-.56-.25-.86-.34-.3-.09-.65-.13-1.05-.13-.87 0-1.57.35-2.1 1.04-.53.7-.8 1.6-.8 2.72v.19c.36-.31.76-.55 1.22-.73.46-.17.95-.26 1.48-.26 1.09 0 1.95.38 2.6 1.13.65.75.97 1.7.97 2.86 0 1.26-.34 2.28-1.03 3.08-.69.79-1.61 1.19-2.75 1.19s-2.18-.43-2.96-1.29-1.17-2.08-1.17-3.65v-2.32c0-1.56.43-2.82 1.3-3.79.87-.97 1.95-1.45 3.23-1.45Zm-.56 5.49c-.56 0-1.04.11-1.44.34-.4.23-.7.53-.9.91v.98c0 1.12.24 1.98.71 2.58s1.07.91 1.78.91c.67 0 1.2-.29 1.57-.85.38-.57.56-1.28.56-2.12 0-.8-.2-1.46-.61-1.98-.4-.52-.96-.78-1.68-.78Zm10.01-2.98c0-.71.23-1.3.69-1.79.46-.48 1.07-.73 1.83-.73s1.37.24 1.83.72c.46.48.68 1.08.68 1.79v.64c0 .71-.23 1.3-.68 1.78-.45.48-1.06.72-1.82.72s-1.38-.24-1.84-.72c-.46-.48-.69-1.07-.69-1.78v-.64Zm1.22.64c0 .41.11.76.34 1.05.22.29.55.43.97.43s.72-.14.94-.43c.22-.28.33-.63.33-1.05v-.64c0-.41-.11-.76-.34-1.06-.23-.29-.54-.44-.96-.44s-.74.15-.96.44c-.22.29-.33.64-.33 1.06v.64Zm1.74 8.26-.91-.56 5.94-9.5.91.56-5.94 9.5Zm2.93-2.06c0-.71.23-1.3.68-1.78.46-.48 1.07-.72 1.83-.72s1.37.24 1.83.72.69 1.08.69 1.78v.65c0 .71-.23 1.31-.69 1.79-.46.48-1.06.72-1.81.72s-1.38-.24-1.84-.72c-.46-.48-.69-1.07-.69-1.79v-.65Zm1.22.65c0 .42.11.77.34 1.06.23.29.55.43.97.43s.72-.14.94-.43c.22-.29.33-.64.33-1.06v-.65c0-.41-.11-.76-.34-1.05-.23-.29-.55-.43-.95-.43s-.73.15-.96.43c-.23.29-.34.64-.34 1.05v.65Zm-745.69 36.5v-12.16h3.97c1.27 0 2.26.27 2.98.82.72.55 1.08 1.37 1.08 2.47 0 .54-.17 1.02-.52 1.45-.34.43-.8.74-1.36.95.74.16 1.31.51 1.73 1.08s.63 1.22.63 1.96c0 1.11-.36 1.96-1.08 2.55-.72.59-1.7.88-2.94.88h-4.49Zm1.65-6.99h2.66c.61 0 1.11-.17 1.5-.51s.58-.81.58-1.41c0-.66-.21-1.15-.62-1.47-.42-.33-1.01-.49-1.79-.49h-2.32v3.88Zm0 1.29v4.4h2.85c.75 0 1.33-.18 1.75-.55.42-.37.63-.89.63-1.57 0-.71-.17-1.27-.52-1.67-.35-.4-.88-.61-1.61-.61h-3.09Zm8.83 1.1c0-1.34.36-2.44 1.09-3.3.72-.87 1.71-1.3 2.95-1.3s2.24.43 2.97 1.29 1.09 1.97 1.09 3.31v.18c0 1.35-.36 2.45-1.09 3.31-.72.86-1.71 1.29-2.96 1.29s-2.23-.43-2.96-1.29c-.73-.86-1.09-1.96-1.09-3.3v-.18Zm1.65.18c0 .96.2 1.75.61 2.37.4.62 1 .93 1.8.93s1.38-.31 1.79-.93c.41-.62.61-1.41.61-2.37v-.18c0-.95-.2-1.73-.61-2.36-.41-.63-1.01-.94-1.8-.94s-1.38.31-1.78.94c-.4.63-.61 1.42-.61 2.36v.18Zm10.08-4.61.12 1.34c.3-.48.68-.85 1.13-1.12.45-.26.97-.4 1.55-.4.97 0 1.73.29 2.26.86.54.57.8 1.45.8 2.64v5.7h-1.65v-5.67c0-.8-.16-1.36-.47-1.7s-.79-.5-1.44-.5a2.334 2.334 0 0 0-2.13 1.28v6.59h-1.65v-9.04h1.47Zm8.04 4.43c0-1.34.36-2.44 1.09-3.3.72-.87 1.71-1.3 2.95-1.3s2.24.43 2.97 1.29 1.09 1.97 1.09 3.31v.18c0 1.35-.36 2.45-1.09 3.31s-1.71 1.29-2.96 1.29-2.23-.43-2.96-1.29-1.09-1.96-1.09-3.3v-.18Zm1.64.18c0 .96.2 1.75.61 2.37.4.62 1 .93 1.8.93s1.38-.31 1.79-.93c.41-.62.61-1.41.61-2.37v-.18c0-.95-.21-1.73-.61-2.36-.41-.63-1.01-.94-1.8-.94s-1.38.31-1.78.94c-.4.63-.61 1.42-.61 2.36v.18Zm13.89 2.02c0-.36-.14-.66-.41-.89-.28-.23-.8-.44-1.57-.61-1.1-.24-1.92-.56-2.48-.97-.55-.41-.83-.97-.83-1.67s.31-1.36.93-1.88c.62-.52 1.44-.78 2.44-.78 1.05 0 1.89.27 2.51.81s.92 1.2.89 1.97l-.02.05h-1.57c0-.39-.17-.75-.5-1.06s-.77-.47-1.32-.47c-.58 0-1.02.13-1.3.38-.28.26-.43.57-.43.93s.12.64.38.84c.25.21.76.39 1.53.55 1.14.25 1.99.58 2.55 1 .56.42.84.98.84 1.69 0 .8-.33 1.45-.97 1.95-.65.5-1.5.74-2.54.74-1.15 0-2.06-.29-2.72-.88-.66-.58-.98-1.27-.94-2.05l.02-.05h1.57c.03.58.25 1.01.65 1.28s.88.4 1.43.4c.58 0 1.04-.12 1.37-.36.33-.24.5-.55.5-.93Zm195.86-2.09h-4.09v-1.29h4.09v1.29Zm122.66-.14c0 1.55-.34 2.74-1.03 3.57-.69.83-1.63 1.24-2.83 1.24s-2.14-.42-2.84-1.25c-.7-.83-1.04-2.02-1.04-3.57v-2.88c0-1.55.35-2.74 1.04-3.57.69-.83 1.64-1.25 2.83-1.25s2.14.42 2.84 1.25c.69.83 1.04 2.02 1.04 3.57V179Zm-1.64-3.23c0-1.05-.19-1.84-.57-2.37-.38-.53-.93-.8-1.66-.8s-1.28.27-1.65.8-.57 1.32-.57 2.37v3.56c0 1.05.19 1.85.58 2.38.38.54.94.81 1.66.81s1.27-.27 1.65-.8.56-1.33.56-2.39v-3.56Zm8.06-1.96c0-.71.23-1.3.69-1.79.46-.48 1.07-.73 1.83-.73s1.37.24 1.83.72c.46.48.68 1.08.68 1.79v.64c0 .71-.23 1.3-.68 1.78-.45.48-1.06.72-1.82.72s-1.38-.24-1.84-.72c-.46-.48-.69-1.07-.69-1.78v-.64Zm1.22.64c0 .41.11.76.34 1.05.23.29.55.43.97.43s.72-.14.94-.43c.22-.28.33-.63.33-1.05v-.64c0-.41-.11-.76-.34-1.06-.23-.29-.54-.44-.96-.44s-.74.15-.96.44c-.22.29-.33.64-.33 1.06v.64Zm1.74 8.26-.91-.56 5.94-9.5.91.56-5.94 9.5Zm2.93-2.06c0-.71.23-1.3.68-1.78.46-.48 1.07-.72 1.83-.72s1.37.24 1.82.72c.46.48.69 1.08.69 1.78v.65c0 .71-.23 1.31-.68 1.79-.46.48-1.06.72-1.81.72s-1.38-.24-1.84-.72c-.46-.48-.69-1.07-.69-1.79v-.65Zm1.22.65c0 .42.11.77.34 1.06.23.29.55.43.97.43s.72-.14.94-.43c.22-.29.33-.64.33-1.06v-.65c0-.41-.12-.76-.34-1.05-.23-.29-.55-.43-.95-.43s-.73.15-.96.43c-.22.29-.34.64-.34 1.05v.65Zm126.62-2.16h-4.09v-1.29h4.09v1.29Zm108.35-.14c0 1.55-.34 2.74-1.03 3.57-.69.83-1.63 1.24-2.83 1.24s-2.14-.42-2.84-1.25c-.7-.83-1.04-2.02-1.04-3.57v-2.88c0-1.55.35-2.74 1.04-3.57.69-.83 1.64-1.25 2.83-1.25s2.14.42 2.84 1.25c.69.83 1.04 2.02 1.04 3.57V179Zm-1.65-3.23c0-1.05-.19-1.84-.57-2.37s-.93-.8-1.66-.8-1.27.27-1.65.8-.57 1.32-.57 2.37v3.56c0 1.05.19 1.85.58 2.38.38.54.94.81 1.66.81s1.27-.27 1.65-.8c.38-.53.56-1.33.56-2.39v-3.56Zm8.07-1.96c0-.71.23-1.3.68-1.79.46-.48 1.07-.73 1.83-.73s1.37.24 1.83.72c.46.48.68 1.08.68 1.79v.64c0 .71-.23 1.3-.68 1.78-.45.48-1.06.72-1.82.72s-1.38-.24-1.84-.72c-.46-.48-.69-1.07-.69-1.78v-.64Zm1.22.64c0 .41.11.76.34 1.05.23.29.55.43.97.43s.72-.14.94-.43c.22-.28.33-.63.33-1.05v-.64c0-.41-.11-.76-.34-1.06-.23-.29-.54-.44-.96-.44s-.74.15-.96.44c-.22.29-.33.64-.33 1.06v.64Zm1.74 8.26-.91-.56 5.94-9.5.91.56-5.94 9.5Zm2.93-2.06c0-.71.23-1.3.68-1.78s1.07-.72 1.83-.72 1.37.24 1.82.72.69 1.08.69 1.78v.65c0 .71-.23 1.31-.69 1.79-.46.48-1.06.72-1.81.72s-1.38-.24-1.84-.72c-.46-.48-.69-1.07-.69-1.79v-.65Zm1.22.65c0 .42.11.77.34 1.06.23.29.55.43.97.43s.72-.14.94-.43c.22-.29.33-.64.33-1.06v-.65c0-.41-.11-.76-.34-1.05-.23-.29-.54-.43-.95-.43s-.73.15-.96.43c-.23.29-.34.64-.34 1.05v.65Zm100.53-2.3c0 1.55-.34 2.74-1.03 3.57-.69.83-1.63 1.24-2.83 1.24s-2.14-.42-2.84-1.25c-.7-.83-1.04-2.02-1.04-3.57v-2.88c0-1.55.35-2.74 1.04-3.57.69-.83 1.64-1.25 2.83-1.25s2.14.42 2.84 1.25c.69.83 1.04 2.02 1.04 3.57V179Zm-1.65-3.23c0-1.05-.19-1.84-.57-2.37-.38-.53-.93-.8-1.66-.8s-1.27.27-1.65.8-.57 1.32-.57 2.37v3.56c0 1.05.19 1.85.58 2.38.38.54.94.81 1.66.81s1.27-.27 1.65-.8c.38-.53.56-1.33.56-2.39v-3.56Zm8.06-1.96c0-.71.23-1.3.69-1.79.46-.48 1.07-.73 1.83-.73s1.37.24 1.83.72c.46.48.68 1.08.68 1.79v.64c0 .71-.23 1.3-.68 1.78-.45.48-1.06.72-1.82.72s-1.38-.24-1.84-.72c-.46-.48-.69-1.07-.69-1.78v-.64Zm1.22.64c0 .41.11.76.34 1.05.22.29.55.43.97.43s.72-.14.94-.43c.22-.28.33-.63.33-1.05v-.64c0-.41-.11-.76-.34-1.06-.23-.29-.54-.44-.96-.44s-.74.15-.96.44c-.22.29-.33.64-.33 1.06v.64Zm1.74 8.26-.91-.56 5.94-9.5.91.56-5.94 9.5Zm2.93-2.06c0-.71.23-1.3.68-1.78.46-.48 1.07-.72 1.83-.72s1.37.24 1.83.72.69 1.08.69 1.78v.65c0 .71-.23 1.31-.69 1.79-.46.48-1.06.72-1.81.72s-1.38-.24-1.84-.72c-.46-.48-.69-1.07-.69-1.79v-.65Zm1.22.65c0 .42.11.77.34 1.06.23.29.55.43.97.43s.72-.14.94-.43c.22-.29.33-.64.33-1.06v-.65c0-.41-.11-.76-.34-1.05-.23-.29-.55-.43-.95-.43s-.73.15-.96.43c-.23.29-.34.64-.34 1.05v.65ZM37.92 207.12h-4.26v11.85h-1.79v-11.85h-4.26v-1.41h10.31v1.41Zm.05 6.83c0-1.46.4-2.66 1.18-3.6s1.86-1.42 3.22-1.42 2.45.47 3.24 1.41 1.19 2.14 1.19 3.61v.2c0 1.47-.39 2.67-1.18 3.61s-1.86 1.4-3.23 1.4-2.44-.47-3.23-1.41-1.19-2.14-1.19-3.6v-.2Zm1.79.2c0 1.04.22 1.9.66 2.58.44.68 1.09 1.02 1.96 1.02s1.51-.34 1.95-1.02.67-1.54.67-2.58v-.2c0-1.03-.22-1.89-.67-2.58-.45-.68-1.1-1.03-1.96-1.03s-1.51.34-1.95 1.03c-.44.69-.66 1.54-.66 2.58v.2Zm11.79-7.41v2.38h1.87v1.33h-1.87v5.99c0 .46.1.79.29.97.19.19.44.28.76.28.1 0 .22-.01.34-.04.12-.02.24-.05.33-.09l.24 1.23c-.13.11-.33.2-.59.27-.26.07-.52.1-.78.1-.73 0-1.31-.22-1.74-.66-.43-.44-.65-1.13-.65-2.07v-5.99h-1.57v-1.33h1.57v-2.38h1.79Zm10.33 12.23c-.06-.3-.11-.56-.14-.79s-.05-.46-.06-.69c-.33.47-.77.87-1.31 1.19-.54.32-1.12.48-1.74.48-1.03 0-1.81-.26-2.35-.79s-.81-1.25-.81-2.17.38-1.68 1.14-2.21c.76-.53 1.8-.8 3.1-.8h1.95v-.98c0-.58-.18-1.03-.53-1.37-.35-.34-.85-.51-1.49-.51-.58 0-1.05.15-1.41.44s-.54.65-.54 1.06h-1.71l-.02-.05c-.04-.72.3-1.37 1.02-1.97.71-.6 1.64-.89 2.77-.89s2.02.28 2.7.85c.68.57 1.02 1.39 1.02 2.46v4.75c0 .35.02.69.05 1.02.04.33.1.65.2.97h-1.85Zm-2.98-1.32c.65 0 1.24-.17 1.76-.5.52-.33.86-.71 1.02-1.14v-1.6h-2.01c-.72 0-1.3.18-1.74.54s-.65.79-.65 1.28c0 .44.14.78.41 1.04.27.25.68.38 1.21.38Zm9.29 1.32H66.4v-14.21h1.79v14.21Zm7.38-4.74c0-1.58.35-2.86 1.04-3.84.69-.97 1.65-1.46 2.87-1.46.63 0 1.18.13 1.65.38s.87.61 1.18 1.09l.22-1.28h1.43v9.91c0 1.26-.37 2.23-1.1 2.91-.73.68-1.79 1.02-3.18 1.02-.47 0-.99-.07-1.54-.2s-1.03-.31-1.45-.53l.46-1.39c.32.18.71.33 1.17.44.46.11.91.17 1.35.17.88 0 1.51-.2 1.91-.6s.6-1 .6-1.82v-1.11c-.32.41-.71.72-1.16.93s-.97.31-1.55.31c-1.21 0-2.16-.44-2.85-1.31-.69-.87-1.04-2.02-1.04-3.43v-.19Zm1.79.19c0 .99.21 1.79.63 2.39.42.6 1.06.9 1.91.9.54 0 .99-.12 1.36-.37s.67-.59.9-1.04v-4.54c-.23-.42-.53-.75-.9-1s-.82-.37-1.34-.37c-.86 0-1.5.36-1.92 1.08s-.64 1.64-.64 2.76v.19Zm13.48 4.74c-1.37 0-2.46-.46-3.28-1.37-.81-.91-1.22-2.1-1.22-3.56v-.4c0-1.4.42-2.57 1.25-3.5.84-.93 1.82-1.4 2.97-1.4 1.33 0 2.33.4 3.02 1.2.68.8 1.02 1.87 1.02 3.21v1.12h-6.4l-.03.04c.02.95.26 1.72.72 2.33.46.61 1.11.91 1.94.91.61 0 1.14-.09 1.6-.26.46-.17.85-.41 1.19-.72l.7 1.17c-.35.35-.82.64-1.39.87-.58.23-1.28.35-2.1.35Zm-.27-8.82c-.6 0-1.12.25-1.54.76-.42.51-.69 1.14-.78 1.9l.02.05h4.55v-.24c0-.7-.19-1.29-.56-1.76-.38-.47-.94-.71-1.68-.71Zm7.84-1.23.13 1.47c.33-.52.74-.93 1.23-1.22.5-.29 1.06-.43 1.69-.43 1.06 0 1.88.31 2.47.93.58.62.88 1.58.88 2.88v6.22h-1.79v-6.19c0-.87-.17-1.49-.52-1.85-.34-.36-.87-.55-1.57-.55-.52 0-.97.12-1.37.37-.4.25-.71.59-.95 1.02v7.19h-1.79v-9.86h1.6Zm13.26 10.05c-1.37 0-2.46-.46-3.28-1.37-.81-.91-1.22-2.1-1.22-3.56v-.4c0-1.4.42-2.57 1.25-3.5.83-.93 1.82-1.4 2.97-1.4 1.33 0 2.33.4 3.02 1.2s1.02 1.87 1.02 3.21v1.12h-6.4l-.03.04c.02.95.26 1.72.72 2.33.46.61 1.11.91 1.94.91.61 0 1.14-.09 1.6-.26s.86-.41 1.19-.72l.7 1.17c-.35.35-.82.64-1.39.87s-1.28.35-2.1.35Zm-.27-8.82c-.6 0-1.11.25-1.54.76s-.69 1.14-.78 1.9l.02.05h4.55v-.24c0-.7-.19-1.29-.56-1.76-.38-.47-.94-.71-1.68-.71Zm10.9.36-.92-.05c-.47 0-.87.11-1.2.34s-.58.54-.75.95v7.04h-1.79v-9.86h1.6l.17 1.44c.28-.51.62-.91 1.04-1.19s.88-.43 1.42-.43a2.34 2.34 0 0 1 .68.1l-.25 1.67Zm7.88 8.27c-.06-.3-.11-.56-.14-.79s-.05-.46-.06-.69c-.33.47-.77.87-1.31 1.19-.54.32-1.12.48-1.74.48-1.03 0-1.81-.26-2.35-.79s-.81-1.25-.81-2.17.38-1.68 1.14-2.21c.76-.53 1.8-.8 3.1-.8h1.95v-.98c0-.58-.18-1.03-.53-1.37-.35-.34-.85-.51-1.49-.51-.58 0-1.05.15-1.41.44s-.54.65-.54 1.06h-1.71l-.02-.05c-.04-.72.3-1.37 1.02-1.97.71-.6 1.64-.89 2.77-.89s2.02.28 2.7.85c.68.57 1.02 1.39 1.02 2.46v4.75c0 .35.02.69.05 1.02.04.33.1.65.2.97h-1.85Zm-2.98-1.32c.65 0 1.24-.17 1.76-.5.52-.33.86-.71 1.02-1.14v-1.6h-2.01c-.72 0-1.3.18-1.74.54s-.65.79-.65 1.28c0 .44.14.78.41 1.04.27.25.68.38 1.21.38Zm9.29 1.32h-1.79v-14.21h1.79v14.21Zm93.14-5.98.77-7.28h6.64v1.59h-5.12l-.44 3.73c.28-.21.59-.38.93-.51.34-.14.74-.21 1.19-.22 1.22-.01 2.18.39 2.88 1.19s1.05 1.89 1.05 3.26-.36 2.4-1.07 3.21c-.71.81-1.75 1.21-3.12 1.21-1.12 0-2.06-.31-2.81-.92-.75-.61-1.11-1.52-1.08-2.71l.02-.05h1.62c0 .72.21 1.28.62 1.67.42.4.96.59 1.62.59.76 0 1.35-.27 1.77-.8.42-.53.63-1.26.63-2.19 0-.85-.21-1.55-.64-2.09-.43-.55-1.01-.82-1.76-.82-.7 0-1.21.11-1.53.32-.32.21-.55.54-.69.98l-1.49-.16Zm12.36 5.98h-1.79v-1.86h1.79v1.86Zm11.12-9.8c0 .69-.2 1.3-.58 1.82s-.91.91-1.58 1.16c.77.27 1.38.69 1.84 1.26.46.57.69 1.23.69 1.98 0 1.23-.4 2.16-1.2 2.81-.8.65-1.84.97-3.11.97s-2.35-.32-3.14-.97c-.79-.65-1.19-1.58-1.19-2.81 0-.75.22-1.41.67-1.98.45-.57 1.06-.99 1.82-1.26-.66-.25-1.18-.64-1.56-1.16-.38-.52-.56-1.12-.56-1.82 0-1.17.36-2.07 1.08-2.7.72-.63 1.67-.95 2.86-.95s2.12.32 2.86.95 1.11 1.54 1.11 2.7Zm-1.42 6.17c0-.73-.24-1.32-.72-1.79s-1.09-.7-1.82-.7-1.35.23-1.82.7c-.46.47-.7 1.06-.7 1.79s.23 1.34.69 1.77c.46.43 1.08.64 1.84.64s1.35-.21 1.82-.65c.47-.43.7-1.02.7-1.76Zm-.37-6.14c0-.66-.21-1.2-.62-1.63-.41-.43-.93-.65-1.55-.65s-1.15.21-1.55.62c-.39.42-.59.97-.59 1.65s.2 1.21.6 1.62c.4.41.92.61 1.56.61s1.15-.2 1.55-.61c.4-.41.6-.95.6-1.62Zm12.76 4.72c0 1.69-.38 2.99-1.12 3.89-.75.9-1.78 1.35-3.08 1.35s-2.34-.45-3.1-1.36-1.14-2.2-1.14-3.89v-3.14c0-1.69.38-2.99 1.13-3.9.76-.91 1.79-1.36 3.08-1.36s2.34.45 3.09 1.36c.76.91 1.13 2.21 1.13 3.9v3.14Zm-1.79-3.53c0-1.15-.21-2.01-.62-2.59-.42-.58-1.02-.87-1.81-.87s-1.39.29-1.8.87c-.41.58-.62 1.44-.62 2.59v3.89c0 1.15.21 2.01.63 2.6.42.59 1.02.88 1.81.88s1.39-.29 1.8-.87.62-1.45.62-2.6v-3.89Zm7.67 7.36c.88 0 1.57-.33 2.1-.99s.79-1.64.79-2.95v-.6c-.3.43-.67.76-1.12.98-.45.22-.94.33-1.49.33-1.28 0-2.3-.4-3.05-1.19-.75-.79-1.13-1.88-1.13-3.28s.4-2.42 1.2-3.27 1.77-1.28 2.91-1.28c1.39 0 2.48.43 3.28 1.3.8.87 1.2 2.14 1.2 3.82v3.16c0 1.73-.43 3.06-1.3 3.98-.87.92-1.99 1.38-3.38 1.38-.47 0-.94-.04-1.43-.13-.48-.09-.92-.22-1.3-.41l.27-1.38c.36.19.73.32 1.12.4.38.08.83.11 1.33.11Zm.28-4.64c.66 0 1.21-.14 1.65-.43s.76-.65.95-1.09v-1.15c0-1.16-.22-2.03-.67-2.63s-1.1-.89-1.96-.89c-.66 0-1.21.29-1.68.88-.46.58-.69 1.34-.69 2.25s.21 1.65.64 2.21c.43.56 1.01.85 1.75.85Zm9.01 5.86h-1.79v-1.86h1.79v1.86Zm10.17-4.46h1.83v1.41h-1.83v3.05h-1.79v-3.05h-5.96v-1.01l5.85-9.2h1.89v8.8Zm-5.83 0h4.04v-6.22h-.05l-.17.45-3.82 5.78Zm14.43-8.99c.46 0 .91.05 1.35.15.45.1.82.23 1.11.39l-.38 1.38c-.3-.15-.61-.27-.93-.37-.32-.09-.71-.14-1.14-.14-.95 0-1.71.38-2.29 1.14-.58.76-.87 1.75-.87 2.97v.21c.39-.34.83-.61 1.33-.8.5-.19 1.04-.29 1.62-.29 1.19 0 2.13.41 2.83 1.23.71.82 1.06 1.86 1.06 3.12 0 1.37-.38 2.49-1.12 3.36-.75.87-1.75 1.3-3 1.3s-2.38-.47-3.22-1.41c-.85-.94-1.28-2.27-1.28-3.98v-2.53c0-1.7.47-3.08 1.42-4.14.95-1.06 2.12-1.58 3.53-1.58Zm-.61 5.99c-.61 0-1.14.12-1.57.37-.43.25-.76.58-.98.99v1.07c0 1.22.26 2.16.77 2.82s1.16.99 1.94.99c.73 0 1.31-.31 1.72-.93.41-.62.61-1.39.61-2.32 0-.87-.22-1.59-.66-2.16s-1.05-.85-1.84-.85Zm14.82 7.46h-8.6v-1.24l4.35-4.82c.78-.87 1.3-1.56 1.58-2.07.28-.51.41-1.03.41-1.57 0-.66-.19-1.22-.58-1.67s-.9-.68-1.54-.68c-.92 0-1.59.24-2.03.71-.43.47-.65 1.13-.65 1.98h-1.72l-.02-.05c-.03-1.14.35-2.1 1.14-2.88.79-.78 1.88-1.17 3.28-1.17 1.19 0 2.14.35 2.85 1.04.71.7 1.06 1.58 1.06 2.66 0 .72-.21 1.45-.64 2.17s-1.03 1.5-1.8 2.34l-3.49 3.79.02.05h6.38v1.41Zm64.81 0h-1.75v-11.52l-2.64.04v-1.29l4.39-.49v13.27Zm13.58-5.05c0 1.69-.36 2.99-1.09 3.9-.73.9-1.73 1.35-3 1.35s-2.28-.45-3.01-1.36c-.74-.91-1.11-2.2-1.11-3.89v-3.14c0-1.69.37-2.99 1.1-3.9.74-.91 1.74-1.36 3-1.36s2.27.45 3.01 1.36c.74.91 1.1 2.21 1.1 3.9v3.14Zm-1.75-3.53c0-1.15-.2-2.01-.61-2.59-.4-.58-.99-.87-1.76-.87s-1.35.29-1.75.87c-.4.58-.6 1.44-.6 2.59v3.89c0 1.15.2 2.01.61 2.6.41.59 1 .88 1.76.88s1.35-.29 1.75-.87c.4-.58.6-1.45.6-2.6v-3.89Zm12.17 3.53c0 1.69-.36 2.99-1.09 3.9-.73.9-1.73 1.35-3 1.35s-2.28-.45-3.01-1.36c-.74-.91-1.11-2.2-1.11-3.89v-3.14c0-1.69.37-2.99 1.1-3.9.74-.91 1.74-1.36 3-1.36s2.27.45 3.01 1.36c.74.91 1.1 2.21 1.1 3.9v3.14Zm-1.75-3.53c0-1.15-.2-2.01-.61-2.59-.4-.58-.99-.87-1.76-.87s-1.35.29-1.75.87c-.4.58-.6 1.44-.6 2.59v3.89c0 1.15.2 2.01.61 2.6.41.59 1 .88 1.76.88s1.35-.29 1.75-.87c.4-.58.6-1.45.6-2.6v-3.89Zm8.55-2.13c0-.77.24-1.42.73-1.95.48-.53 1.13-.79 1.94-.79s1.46.26 1.94.79.73 1.18.73 1.95v.7c0 .77-.24 1.42-.72 1.94s-1.12.78-1.93.78-1.47-.26-1.96-.78-.73-1.17-.73-1.94v-.7Zm1.29.7c0 .45.12.83.36 1.14.24.31.58.47 1.03.47s.77-.15 1-.46c.24-.31.35-.69.35-1.15v-.7c0-.45-.12-.83-.36-1.15s-.58-.48-1.01-.48-.78.16-1.02.48-.35.7-.35 1.15v.7Zm1.84 9.01-.97-.61 6.3-10.37.97.61-6.3 10.37Zm3.11-2.25c0-.77.24-1.42.73-1.95.48-.52 1.13-.79 1.94-.79s1.45.26 1.94.79.73 1.17.73 1.95v.71c0 .78-.24 1.43-.73 1.95s-1.13.78-1.92.78-1.47-.26-1.96-.78-.73-1.17-.73-1.95v-.71Zm1.29.71c0 .46.12.84.36 1.15.24.31.58.47 1.03.47s.77-.16 1-.47c.24-.31.35-.7.35-1.15v-.71c0-.45-.12-.83-.36-1.15-.24-.32-.58-.47-1.01-.47s-.78.16-1.02.47c-.24.32-.36.7-.36 1.15v.71Zm84.68-7.26c0 .69-.2 1.3-.58 1.82s-.91.91-1.58 1.16c.77.27 1.38.69 1.84 1.26.46.57.69 1.23.69 1.98 0 1.23-.4 2.16-1.2 2.81-.8.65-1.84.97-3.11.97s-2.35-.32-3.14-.97c-.79-.65-1.19-1.58-1.19-2.81 0-.75.22-1.41.67-1.98.45-.57 1.06-.99 1.82-1.26-.66-.25-1.18-.64-1.56-1.16s-.57-1.12-.57-1.82c0-1.17.36-2.07 1.08-2.7.72-.63 1.67-.95 2.86-.95s2.12.32 2.86.95 1.11 1.54 1.11 2.7Zm-1.42 6.17c0-.73-.24-1.32-.72-1.79s-1.09-.7-1.82-.7-1.35.23-1.82.7c-.46.47-.7 1.06-.7 1.79s.23 1.34.69 1.77c.46.43 1.07.64 1.84.64s1.35-.21 1.82-.65.7-1.02.7-1.76Zm-.37-6.14c0-.66-.21-1.2-.62-1.63-.41-.43-.93-.65-1.55-.65s-1.15.21-1.55.62c-.39.42-.59.97-.59 1.65s.2 1.21.6 1.62c.4.41.92.61 1.56.61s1.15-.2 1.55-.61.6-.95.6-1.62Zm6.54 9.77h-1.79v-1.86h1.79v1.86Zm10.16-4.46h1.83v1.41h-1.83v3.05h-1.79v-3.05h-5.96v-1.01l5.85-9.2h1.89v8.8Zm-5.83 0h4.04v-6.22h-.05l-.17.45-3.82 5.78Zm17.75-.59c0 1.69-.38 2.99-1.12 3.89-.75.9-1.78 1.35-3.08 1.35s-2.34-.45-3.1-1.36-1.14-2.2-1.14-3.89v-3.14c0-1.69.38-2.99 1.13-3.9.76-.91 1.78-1.36 3.08-1.36s2.34.45 3.09 1.36c.76.91 1.13 2.21 1.13 3.9v3.14Zm-1.79-3.53c0-1.15-.21-2.01-.62-2.59-.42-.58-1.02-.87-1.81-.87s-1.39.29-1.8.87c-.41.58-.62 1.44-.62 2.59v3.89c0 1.15.21 2.01.63 2.6.42.59 1.02.88 1.81.88s1.39-.29 1.8-.87.61-1.45.61-2.6v-3.89Zm7.67 7.36c.88 0 1.58-.33 2.1-.99s.79-1.64.79-2.95v-.6c-.3.43-.67.76-1.12.98-.45.22-.94.33-1.49.33-1.28 0-2.3-.4-3.05-1.19-.75-.79-1.13-1.88-1.13-3.28s.4-2.42 1.2-3.27c.8-.85 1.77-1.28 2.91-1.28 1.38 0 2.48.43 3.28 1.3s1.2 2.14 1.2 3.82v3.16c0 1.73-.43 3.06-1.3 3.98-.87.92-1.99 1.38-3.38 1.38-.47 0-.94-.04-1.43-.13-.48-.09-.92-.22-1.3-.41l.27-1.38c.36.19.73.32 1.12.4s.83.11 1.33.11Zm.28-4.64c.66 0 1.21-.14 1.65-.43.44-.29.76-.65.95-1.09v-1.15c0-1.16-.22-2.03-.67-2.63s-1.1-.89-1.95-.89c-.66 0-1.21.29-1.68.88-.46.58-.69 1.34-.69 2.25s.21 1.65.64 2.21c.43.56 1.01.85 1.74.85Zm9.02 5.86h-1.79v-1.86h1.79v1.86Zm6.58-1.22c.88 0 1.57-.33 2.1-.99s.79-1.64.79-2.95v-.6c-.3.43-.67.76-1.12.98-.45.22-.94.33-1.49.33-1.28 0-2.3-.4-3.05-1.19-.75-.79-1.13-1.88-1.13-3.28s.4-2.42 1.2-3.27c.8-.85 1.77-1.28 2.91-1.28 1.38 0 2.48.43 3.28 1.3s1.2 2.14 1.2 3.82v3.16c0 1.73-.43 3.06-1.3 3.98-.87.92-1.99 1.38-3.38 1.38-.47 0-.94-.04-1.43-.13-.48-.09-.92-.22-1.3-.41l.27-1.38c.36.19.73.32 1.12.4s.83.11 1.33.11Zm.28-4.64c.66 0 1.21-.14 1.65-.43s.76-.65.95-1.09v-1.15c0-1.16-.22-2.03-.67-2.63-.45-.59-1.1-.89-1.96-.89-.66 0-1.21.29-1.68.88-.46.58-.69 1.34-.69 2.25s.21 1.65.64 2.21c.43.56 1.01.85 1.75.85Zm11.9-7.59c.46 0 .91.05 1.35.15.45.1.82.23 1.11.39l-.38 1.38c-.3-.15-.61-.27-.93-.37-.33-.09-.71-.14-1.14-.14-.95 0-1.71.38-2.29 1.14-.58.76-.87 1.75-.87 2.97v.21c.39-.34.83-.61 1.34-.8.5-.19 1.04-.29 1.62-.29 1.18 0 2.13.41 2.83 1.23.7.82 1.06 1.86 1.06 3.12 0 1.37-.38 2.49-1.12 3.36-.75.87-1.75 1.3-3 1.3s-2.38-.47-3.23-1.41c-.85-.94-1.28-2.27-1.28-3.98v-2.53c0-1.7.47-3.08 1.42-4.14.95-1.06 2.12-1.58 3.53-1.58Zm-.61 5.99c-.61 0-1.14.12-1.57.37-.43.25-.76.58-.98.99v1.07c0 1.22.26 2.16.78 2.82.52.66 1.16.99 1.94.99.74 0 1.31-.31 1.72-.93s.62-1.39.62-2.32c0-.87-.22-1.59-.66-2.16s-1.05-.85-1.84-.85Zm14.36-2.34c0 .69-.19 1.3-.58 1.82s-.91.91-1.58 1.16c.77.27 1.38.69 1.84 1.26.46.57.69 1.23.69 1.98 0 1.23-.4 2.16-1.2 2.81-.8.65-1.84.97-3.11.97s-2.35-.32-3.14-.97c-.79-.65-1.19-1.58-1.19-2.81 0-.75.22-1.41.67-1.98.45-.57 1.06-.99 1.82-1.26-.66-.25-1.18-.64-1.56-1.16-.38-.52-.57-1.12-.57-1.82 0-1.17.36-2.07 1.08-2.7s1.67-.95 2.86-.95 2.12.32 2.86.95c.74.63 1.11 1.54 1.11 2.7Zm-1.42 6.17c0-.73-.24-1.32-.72-1.79s-1.09-.7-1.82-.7-1.35.23-1.82.7c-.46.47-.7 1.06-.7 1.79s.23 1.34.69 1.77c.46.43 1.07.64 1.84.64s1.36-.21 1.82-.65c.47-.43.7-1.02.7-1.76Zm-.37-6.14c0-.66-.21-1.2-.62-1.63-.41-.43-.93-.65-1.55-.65s-1.15.21-1.55.62-.59.97-.59 1.65.2 1.21.6 1.62c.4.41.92.61 1.56.61s1.15-.2 1.55-.61c.4-.41.6-.95.6-1.62Zm55.37 9.77h-1.79v-11.52l-2.71.04v-1.29l4.51-.49v13.27Zm13.97-5.05c0 1.69-.38 2.99-1.12 3.89-.75.9-1.78 1.35-3.08 1.35s-2.34-.45-3.1-1.36-1.14-2.2-1.14-3.89v-3.14c0-1.69.38-2.99 1.13-3.9.76-.91 1.79-1.36 3.08-1.36s2.34.45 3.09 1.36c.76.91 1.13 2.21 1.13 3.9v3.14Zm-1.79-3.53c0-1.15-.21-2.01-.62-2.59-.42-.58-1.02-.87-1.81-.87s-1.39.29-1.8.87c-.41.58-.62 1.44-.62 2.59v3.89c0 1.15.21 2.01.63 2.6.42.59 1.02.88 1.81.88s1.39-.29 1.8-.87.62-1.45.62-2.6v-3.89Zm12.49 3.53c0 1.69-.38 2.99-1.12 3.89-.75.9-1.78 1.35-3.08 1.35s-2.34-.45-3.1-1.36-1.14-2.2-1.14-3.89v-3.14c0-1.69.38-2.99 1.13-3.9.76-.91 1.79-1.36 3.08-1.36s2.34.45 3.09 1.36c.76.91 1.13 2.21 1.13 3.9v3.14Zm-1.79-3.53c0-1.15-.21-2.01-.62-2.59-.42-.58-1.02-.87-1.81-.87s-1.39.29-1.8.87c-.41.58-.62 1.44-.62 2.59v3.89c0 1.15.21 2.01.63 2.6.42.59 1.02.88 1.81.88s1.39-.29 1.8-.87.62-1.45.62-2.6v-3.89Zm8.79-2.13c0-.77.25-1.42.75-1.95s1.16-.79 2-.79 1.5.26 2 .79.75 1.18.75 1.95v.7c0 .77-.25 1.42-.74 1.94s-1.16.78-1.98.78-1.51-.26-2.01-.78c-.5-.52-.75-1.17-.75-1.94v-.7Zm1.33.7c0 .45.12.83.37 1.14.25.31.6.47 1.06.47s.79-.16 1.03-.46c.24-.31.37-.69.37-1.15v-.7c0-.45-.12-.83-.37-1.15-.25-.32-.59-.48-1.04-.48s-.8.16-1.05.48c-.24.32-.36.7-.36 1.15v.7Zm1.9 9.01-.99-.61 6.48-10.37.99.61-6.48 10.37Zm3.2-2.25c0-.77.25-1.42.75-1.95s1.16-.79 2-.79 1.49.26 1.99.79.75 1.17.75 1.95v.71c0 .78-.25 1.43-.75 1.95s-1.16.78-1.98.78-1.51-.26-2.01-.78c-.5-.52-.75-1.17-.75-1.95v-.71Zm1.33.71c0 .46.12.84.37 1.15.25.31.6.47 1.06.47s.79-.16 1.03-.47c.24-.31.36-.7.36-1.15v-.71c0-.45-.12-.83-.37-1.15-.25-.32-.59-.47-1.04-.47s-.8.16-1.04.47c-.25.32-.37.7-.37 1.15v.71Zm81.55-1.92h1.83v1.41h-1.83v3.05h-1.79v-3.05h-5.96v-1.01l5.85-9.2h1.9v8.8Zm-5.83 0h4.05v-6.22h-.05l-.17.45-3.82 5.78Zm9.87-1.52.76-7.28h6.64v1.59h-5.12l-.44 3.73a3.553 3.553 0 0 1 2.12-.73c1.22-.01 2.18.39 2.88 1.19.7.81 1.05 1.89 1.05 3.26s-.36 2.4-1.07 3.21-1.75 1.21-3.12 1.21c-1.12 0-2.06-.31-2.81-.92-.75-.61-1.11-1.52-1.08-2.71l.02-.05h1.62c0 .72.21 1.28.62 1.67s.96.59 1.62.59c.76 0 1.35-.27 1.77-.8.42-.53.63-1.26.63-2.19 0-.85-.21-1.55-.64-2.09s-1.01-.82-1.76-.82c-.7 0-1.21.11-1.53.32-.32.21-.55.54-.69.98l-1.49-.16Zm14.87-4.73c0-.77.25-1.42.75-1.95s1.16-.79 2-.79 1.5.26 2 .79.75 1.18.75 1.95v.7c0 .77-.25 1.42-.74 1.94-.5.52-1.16.78-1.98.78s-1.51-.26-2.01-.78-.75-1.17-.75-1.94v-.7Zm1.33.7c0 .45.12.83.37 1.14.25.31.6.47 1.06.47s.79-.16 1.03-.46c.24-.31.36-.69.36-1.15v-.7c0-.45-.12-.83-.37-1.15-.25-.32-.59-.48-1.04-.48s-.81.16-1.05.48c-.24.32-.37.7-.37 1.15v.7Zm1.9 9.01-.99-.61 6.48-10.37.99.61-6.48 10.37Zm3.2-2.25c0-.77.25-1.42.75-1.95s1.16-.79 2-.79 1.49.26 1.99.79.75 1.17.75 1.95v.71c0 .78-.25 1.43-.75 1.95s-1.16.78-1.98.78-1.51-.26-2.01-.78-.75-1.17-.75-1.95v-.71Zm1.33.71c0 .46.12.84.37 1.15.25.31.6.47 1.06.47s.79-.16 1.03-.47c.24-.31.36-.7.36-1.15v-.71c0-.45-.12-.83-.37-1.15-.25-.32-.6-.47-1.04-.47s-.8.16-1.04.47c-.25.32-.37.7-.37 1.15v.71Z" style="fill:#4a4a49"/><path d="M35.33 262.58h-5.04v4.89h-1.5v-11.05h7.31v1.18h-5.82v3.81h5.04v1.18Zm7.09 3.67c-.26.44-.59.78-1 1.02-.41.24-.87.36-1.4.36-.9 0-1.59-.29-2.1-.86-.5-.57-.75-1.46-.75-2.67v-4.84h1.5v4.86c0 .88.13 1.48.39 1.81.26.33.66.49 1.21.49s.97-.11 1.32-.32c.35-.21.61-.52.79-.92v-5.92h1.5v8.22h-1.34l-.1-1.21Zm7.18 1.38c-1.14 0-2.05-.38-2.73-1.14s-1.01-1.75-1.01-2.96v-.33c0-1.17.35-2.14 1.04-2.92.7-.78 1.52-1.17 2.47-1.17 1.11 0 1.95.33 2.51 1 .57.67.85 1.56.85 2.67v.93H47.4l-.02.04c.02.79.21 1.43.6 1.94.38.51.92.76 1.62.76.51 0 .95-.07 1.33-.22.38-.14.71-.34.99-.6l.58.97c-.29.29-.68.53-1.16.73-.48.19-1.06.29-1.75.29Zm-.23-7.35c-.5 0-.93.21-1.28.63s-.57.95-.65 1.58l.02.04h3.79v-.2c0-.58-.16-1.08-.47-1.47-.31-.39-.78-.59-1.4-.59Zm6.54-1.03.11 1.22c.27-.44.62-.77 1.03-1.01.41-.24.88-.36 1.41-.36.89 0 1.57.26 2.06.78s.73 1.32.73 2.4v5.19h-1.5v-5.16c0-.72-.14-1.24-.43-1.54s-.72-.46-1.31-.46c-.43 0-.81.1-1.14.31-.33.21-.6.49-.79.85v5.99h-1.5v-8.22h1.34Zm9.57-1.98v1.98h1.56v1.11h-1.56v4.99c0 .38.08.66.24.81.16.16.37.24.63.24.09 0 .18-.01.29-.03.1-.02.2-.05.28-.08l.2 1.02c-.11.09-.28.17-.49.22-.21.06-.43.09-.65.09-.61 0-1.09-.18-1.45-.55-.36-.37-.54-.94-.54-1.73v-4.99h-1.3v-1.11h1.3v-1.98h1.5Zm6.85 10.36c-1.14 0-2.05-.38-2.73-1.14s-1.01-1.75-1.01-2.96v-.33c0-1.17.35-2.14 1.04-2.92.7-.78 1.52-1.17 2.47-1.17 1.11 0 1.95.33 2.51 1 .57.67.85 1.56.85 2.67v.93h-5.33l-.02.04c.02.79.21 1.43.6 1.94.38.51.92.76 1.62.76.51 0 .95-.07 1.33-.22.38-.14.71-.34.99-.6l.58.97c-.29.29-.68.53-1.16.73-.48.19-1.06.29-1.75.29Zm-.23-7.35c-.5 0-.93.21-1.28.63s-.57.95-.65 1.58l.02.04h3.79v-.2c0-.58-.16-1.08-.47-1.47-.31-.39-.78-.59-1.4-.59Zm16.04 2.3H83.1v4.89h-1.5v-11.05h7.31v1.18h-5.82v3.81h5.04v1.18Zm3.63-5.43h-1.5v-1.53h1.5v1.53Zm0 10.32h-1.5v-8.22h1.5v8.22Zm3.77-8.22.11 1.22c.27-.44.62-.77 1.03-1.01.41-.24.88-.36 1.41-.36.89 0 1.57.26 2.06.78s.73 1.32.73 2.4v5.19h-1.5v-5.16c0-.72-.14-1.24-.43-1.54s-.72-.46-1.31-.46c-.43 0-.81.1-1.14.31-.33.21-.6.49-.79.85v5.99h-1.5v-8.22h1.34Zm7.32 4.26c0-1.32.28-2.39.85-3.2s1.36-1.21 2.37-1.21c.48 0 .91.09 1.28.27.37.18.69.44.95.77v-4.52h1.5v11.84h-1.22l-.18-1.01c-.27.38-.6.68-.99.87-.39.2-.84.3-1.36.3-1 0-1.79-.36-2.35-1.09-.57-.73-.85-1.68-.85-2.87v-.16Zm1.5.16c0 .83.17 1.5.51 1.99.34.5.87.75 1.58.75.45 0 .82-.1 1.12-.3.3-.2.55-.49.74-.85v-3.83c-.19-.34-.44-.61-.75-.81-.31-.2-.67-.3-1.11-.3-.72 0-1.25.3-1.59.89-.34.59-.51 1.36-.51 2.31v.16Zm11.24 3.96c-1.14 0-2.05-.38-2.73-1.14s-1.01-1.75-1.01-2.96v-.33c0-1.17.35-2.14 1.04-2.92.7-.78 1.52-1.17 2.47-1.17 1.11 0 1.95.33 2.51 1s.85 1.56.85 2.67v.93h-5.33l-.02.04c.02.79.22 1.43.6 1.94s.92.76 1.62.76c.51 0 .95-.07 1.33-.22.38-.14.71-.34.99-.6l.58.97c-.29.29-.68.53-1.16.73s-1.06.29-1.75.29Zm-.23-7.35c-.5 0-.93.21-1.28.63-.36.42-.57.95-.65 1.58v.04h3.8v-.2c0-.58-.16-1.08-.47-1.47-.31-.39-.78-.59-1.4-.59Zm7.18-3.01v1.98h1.56v1.11h-1.56v4.99c0 .38.08.66.24.81.16.16.37.24.63.24.09 0 .18-.01.28-.03.1-.02.2-.05.28-.08l.2 1.02c-.11.09-.27.17-.49.22-.22.06-.43.09-.65.09-.61 0-1.09-.18-1.45-.55-.36-.37-.54-.94-.54-1.73v-4.99h-1.31v-1.11h1.31v-1.98h1.5Zm6.87 10.36c-1.14 0-2.05-.38-2.73-1.14s-1.01-1.75-1.01-2.96v-.33c0-1.17.35-2.14 1.04-2.92.7-.78 1.52-1.17 2.47-1.17 1.11 0 1.95.33 2.51 1s.85 1.56.85 2.67v.93h-5.33l-.02.04c.02.79.22 1.43.6 1.94s.92.76 1.62.76c.51 0 .95-.07 1.33-.22.38-.14.71-.34.99-.6l.58.97c-.29.29-.68.53-1.16.73s-1.06.29-1.75.29Zm-.23-7.35c-.5 0-.93.21-1.28.63-.36.42-.57.95-.65 1.58v.04h3.8v-.2c0-.58-.16-1.08-.47-1.47-.31-.39-.78-.59-1.4-.59Zm9.09.29-.77-.04c-.4 0-.73.09-1 .28-.27.19-.48.45-.63.79v5.87h-1.5v-8.22h1.34l.14 1.2c.23-.43.52-.76.86-1 .34-.24.74-.36 1.18-.36.11 0 .22 0 .32.03.1.02.18.04.25.06l-.21 1.39Zm12.59 6.9h-7.17v-1.03l3.62-4.02c.65-.72 1.09-1.3 1.32-1.72.23-.43.35-.86.35-1.31 0-.55-.16-1.02-.48-1.39-.32-.38-.75-.57-1.28-.57-.76 0-1.33.2-1.69.59-.36.39-.54.94-.54 1.65h-1.43v-.05c-.04-.95.28-1.75.93-2.4.66-.65 1.57-.97 2.73-.97.99 0 1.78.29 2.37.87.59.58.88 1.32.88 2.21 0 .6-.18 1.21-.54 1.81-.36.61-.86 1.25-1.5 1.95l-2.91 3.16.02.04h5.31v1.18Zm8.75-4.22c0 1.41-.31 2.49-.94 3.25-.63.75-1.48 1.13-2.57 1.13s-1.95-.38-2.58-1.13-.95-1.83-.95-3.24v-2.62c0-1.41.31-2.49.95-3.25s1.49-1.14 2.57-1.14 1.95.38 2.58 1.14c.63.76.95 1.84.95 3.25v2.62Zm-1.5-2.94c0-.96-.17-1.68-.52-2.16-.35-.48-.85-.72-1.51-.72s-1.16.24-1.5.72c-.34.48-.52 1.2-.52 2.16v3.24c0 .96.17 1.68.52 2.17s.85.73 1.51.73 1.16-.24 1.5-.73c.34-.49.51-1.21.51-2.17v-3.24Zm10.58 7.16h-7.17v-1.03l3.62-4.02c.65-.72 1.09-1.3 1.32-1.72.23-.43.35-.86.35-1.31 0-.55-.16-1.02-.48-1.39s-.75-.57-1.28-.57c-.76 0-1.33.2-1.69.59s-.54.94-.54 1.65h-1.44v-.05c-.04-.95.28-1.75.93-2.4.66-.65 1.57-.97 2.73-.97.99 0 1.78.29 2.37.87.59.58.88 1.32.88 2.21 0 .6-.18 1.21-.54 1.81-.36.61-.86 1.25-1.5 1.95l-2.91 3.16.02.04h5.31v1.18Zm3.79-6.22h1.31c.66 0 1.13-.17 1.41-.5.28-.33.41-.79.41-1.39 0-.63-.16-1.11-.47-1.44s-.78-.49-1.39-.49-1.05.17-1.4.51-.53.8-.53 1.36h-1.44l-.02-.05c-.03-.83.28-1.54.91-2.13.63-.58 1.45-.88 2.47-.88s1.84.27 2.45.82.91 1.32.91 2.33c0 .46-.14.91-.41 1.36s-.69.8-1.24 1.04c.66.22 1.13.56 1.41 1.03s.41.99.41 1.56c0 1.01-.33 1.8-.99 2.38s-1.5.87-2.53.87-1.84-.27-2.5-.82c-.66-.54-.98-1.28-.95-2.21l.02-.05h1.43c0 .58.18 1.04.54 1.38.36.34.85.51 1.47.51s1.13-.17 1.49-.51c.36-.34.54-.85.54-1.52s-.16-1.18-.48-1.51c-.32-.32-.82-.48-1.51-.48h-1.31v-1.18Zm13.97 2.13h-3.72v-1.17h3.72v1.17Zm13.63.54v.05c.04 1.04-.33 1.91-1.08 2.61s-1.74 1.05-2.97 1.05-2.27-.44-3.06-1.33-1.18-2.01-1.18-3.37v-1.97c0-1.36.39-2.49 1.18-3.38s1.8-1.33 3.06-1.33 2.25.33 2.98 1c.74.67 1.1 1.55 1.08 2.65v.05h-1.45c0-.77-.23-1.39-.68-1.84-.46-.45-1.1-.68-1.93-.68s-1.5.34-2 1.01c-.5.67-.74 1.51-.74 2.5v1.98c0 1.01.25 1.85.74 2.52s1.16 1.01 2 1.01 1.47-.22 1.93-.67c.46-.45.68-1.07.68-1.86h1.43Zm3.48-6.77h-1.5v-1.53h1.5v1.53Zm0 10.32h-1.5v-8.22h1.5v8.22Zm3.08 0v-7.11h-1.28v-1.11h1.28v-1.04c0-.88.23-1.55.69-2.03.46-.48 1.1-.72 1.92-.72.17 0 .35.01.52.04.17.03.37.07.58.12l-.18 1.14c-.09-.02-.2-.04-.33-.05-.13-.02-.26-.02-.41-.02-.44 0-.76.13-.97.39s-.32.64-.32 1.13v1.04h1.71v1.11h-1.71v7.11h-1.5Zm8.79-6.9-.77-.04c-.4 0-.73.09-1 .28-.27.19-.48.45-.63.79v5.87h-1.5v-8.22h1.34l.14 1.2c.23-.43.52-.76.86-1 .34-.24.74-.36 1.18-.36.11 0 .22 0 .32.03s.18.04.25.06l-.21 1.39Zm6.57 6.9c-.05-.25-.09-.47-.12-.66-.03-.19-.04-.38-.05-.57-.28.4-.64.73-1.09.99s-.93.4-1.45.4c-.86 0-1.51-.22-1.96-.66-.45-.44-.67-1.04-.67-1.81s.32-1.4.95-1.84c.63-.44 1.5-.66 2.58-.66h1.62v-.81c0-.48-.15-.86-.44-1.14-.29-.28-.71-.42-1.25-.42-.48 0-.87.12-1.17.37-.3.25-.45.54-.45.88h-1.43v-.05c-.05-.6.24-1.14.83-1.64.6-.5 1.36-.74 2.3-.74s1.68.24 2.25.71c.57.47.85 1.16.85 2.05v3.96c0 .29.02.58.05.85s.09.54.17.8h-1.54Zm-2.48-1.1c.54 0 1.03-.14 1.46-.42s.72-.6.85-.95v-1.33h-1.68c-.6 0-1.08.15-1.45.45s-.54.66-.54 1.07c0 .36.11.65.34.86s.56.32 1.01.32Zm10.91-1.09c0-.33-.12-.6-.38-.81s-.73-.4-1.42-.55c-1-.22-1.75-.51-2.25-.88s-.76-.88-.76-1.52.28-1.24.85-1.71 1.31-.71 2.22-.71 1.72.25 2.28.74.83 1.09.81 1.79l-.02.05h-1.43c0-.36-.15-.68-.45-.97-.3-.29-.7-.43-1.2-.43-.53 0-.93.12-1.19.35-.26.23-.39.51-.39.84s.11.58.34.77c.23.19.69.35 1.39.5 1.04.22 1.81.53 2.32.91.51.38.76.9.76 1.54 0 .73-.29 1.32-.88 1.77-.59.45-1.36.68-2.31.68-1.05 0-1.87-.27-2.47-.8-.6-.53-.89-1.15-.86-1.86v-.05h1.44c.03.53.22.92.59 1.16.37.24.8.37 1.3.37.53 0 .95-.11 1.25-.32.3-.22.45-.5.45-.85Zm10.93 2.35c-1.14 0-2.05-.38-2.73-1.14s-1.01-1.75-1.01-2.96v-.33c0-1.17.35-2.14 1.04-2.92.7-.78 1.52-1.17 2.47-1.17 1.11 0 1.95.33 2.51 1 .57.67.85 1.56.85 2.67v.93h-5.33l-.02.04c.01.79.22 1.43.6 1.94s.92.76 1.62.76c.51 0 .95-.07 1.33-.22.38-.14.71-.34.99-.6l.58.97c-.29.29-.68.53-1.16.73-.48.19-1.06.29-1.75.29Zm-.23-7.35c-.5 0-.93.21-1.28.63s-.57.95-.65 1.58v.04h3.8v-.2c0-.58-.16-1.08-.47-1.47-.31-.39-.78-.59-1.4-.59Zm6.53-1.03.11 1.22c.27-.44.62-.77 1.03-1.01.41-.24.88-.36 1.41-.36.89 0 1.57.26 2.06.78s.73 1.32.73 2.4v5.19h-1.5v-5.16c0-.72-.14-1.24-.43-1.54-.29-.3-.72-.46-1.31-.46-.43 0-.81.1-1.14.31-.33.21-.6.49-.79.85v5.99h-1.5v-8.22h1.34Zm13.01 0 .11 1.08c.27-.39.61-.69 1.02-.91.41-.21.89-.32 1.44-.32s1.02.13 1.41.38.69.63.88 1.14c.26-.47.6-.83 1.03-1.11.42-.27.92-.41 1.49-.41.83 0 1.5.29 1.98.86.49.58.73 1.44.73 2.59v4.91h-1.5v-4.93c0-.81-.14-1.38-.42-1.72s-.69-.5-1.25-.5c-.51 0-.92.18-1.24.53s-.5.8-.56 1.34v5.28h-1.5v-4.93c0-.77-.14-1.33-.43-1.69-.29-.36-.7-.54-1.23-.54-.46 0-.83.09-1.12.28-.29.19-.52.45-.68.79v6.08h-1.5v-8.22h1.34Zm14.02-2.1h-1.5v-1.53h1.5v1.53Zm0 10.32h-1.5v-8.22h1.5v8.22Zm4.05 0h-1.5v-11.84h1.5v11.84Zm4.08 0h-1.5v-11.84h1.5v11.84Zm2.09-4.19c0-1.21.33-2.22.99-3 .66-.79 1.55-1.18 2.68-1.18s2.04.39 2.7 1.18c.66.79.99 1.79.99 3.01v.17c0 1.22-.33 2.23-.99 3.01-.66.78-1.55 1.17-2.69 1.17s-2.03-.39-2.69-1.17c-.66-.78-.99-1.78-.99-3v-.17Zm1.5.16c0 .87.18 1.59.55 2.15.37.57.91.85 1.64.85s1.25-.28 1.62-.85c.37-.57.55-1.28.55-2.15v-.17c0-.86-.19-1.57-.56-2.15s-.92-.86-1.64-.86-1.25.29-1.62.86-.55 1.29-.55 2.15v.17Zm9.18-4.19.11 1.22c.27-.44.62-.77 1.03-1.01.41-.24.88-.36 1.41-.36.89 0 1.57.26 2.06.78s.73 1.32.73 2.4v5.19h-1.5v-5.16c0-.72-.14-1.24-.43-1.54s-.72-.46-1.31-.46c-.43 0-.81.1-1.14.31-.33.21-.6.49-.79.85v5.99h-1.5v-8.22h1.34Zm11.05 8.38c-1.14 0-2.05-.38-2.73-1.14s-1.01-1.75-1.01-2.96v-.33c0-1.17.35-2.14 1.04-2.92.7-.78 1.52-1.17 2.47-1.17 1.11 0 1.95.33 2.51 1s.85 1.56.85 2.67v.93h-5.33l-.02.04c.01.79.21 1.43.6 1.94.38.51.92.76 1.62.76.51 0 .95-.07 1.33-.22.38-.14.71-.34.99-.6l.58.97c-.29.29-.68.53-1.16.73s-1.06.29-1.75.29Zm-.23-7.35c-.5 0-.93.21-1.28.63-.35.42-.57.95-.65 1.58l.02.04h3.79v-.2c0-.58-.16-1.08-.47-1.47-.31-.39-.78-.59-1.4-.59Zm9.97 5c0-.33-.13-.6-.38-.81s-.72-.4-1.42-.55c-1-.22-1.75-.51-2.25-.88s-.76-.88-.76-1.52.28-1.24.85-1.71 1.31-.71 2.22-.71c.96 0 1.72.25 2.28.74s.83 1.09.81 1.79v.05h-1.44c0-.36-.15-.68-.45-.97-.3-.29-.7-.43-1.2-.43-.53 0-.93.12-1.18.35-.26.23-.39.51-.39.84s.11.58.34.77.69.35 1.39.5c1.04.22 1.81.53 2.32.91.51.38.76.9.76 1.54 0 .73-.29 1.32-.88 1.77-.59.45-1.36.68-2.31.68-1.05 0-1.87-.27-2.48-.8-.6-.53-.89-1.15-.86-1.86l.02-.05h1.43c.03.53.22.92.59 1.16s.8.37 1.3.37c.53 0 .95-.11 1.25-.32.3-.22.45-.5.45-.85Zm7.18-1.77c0-1.32.28-2.39.85-3.2s1.36-1.21 2.37-1.21c.48 0 .91.09 1.28.27.37.18.69.44.95.77v-4.52h1.5v11.84h-1.22l-.17-1.01c-.27.38-.6.68-.99.87-.39.2-.84.3-1.36.3-1 0-1.79-.36-2.35-1.09-.57-.73-.85-1.68-.85-2.87v-.16Zm1.5.16c0 .83.17 1.5.51 1.99.34.5.87.75 1.58.75.45 0 .82-.1 1.12-.3.3-.2.55-.49.74-.85v-3.83c-.19-.34-.44-.61-.75-.81s-.67-.3-1.1-.3c-.72 0-1.25.3-1.59.89-.34.59-.51 1.36-.51 2.31v.16Zm11.24 3.96c-1.14 0-2.05-.38-2.73-1.14s-1.01-1.75-1.01-2.96v-.33c0-1.17.35-2.14 1.04-2.92.7-.78 1.52-1.17 2.47-1.17 1.11 0 1.95.33 2.51 1 .57.67.85 1.56.85 2.67v.93h-5.33l-.02.04c.01.79.22 1.43.6 1.94s.92.76 1.62.76c.51 0 .95-.07 1.33-.22.38-.14.71-.34.99-.6l.58.97c-.29.29-.68.53-1.16.73-.48.19-1.06.29-1.75.29Zm-.23-7.35c-.5 0-.93.21-1.28.63s-.57.95-.65 1.58v.04h3.8v-.2c0-.58-.16-1.08-.47-1.47-.31-.39-.78-.59-1.4-.59Zm16.22 3.39c0 1.18-.28 2.14-.85 2.87s-1.35 1.09-2.35 1.09c-.51 0-.95-.08-1.33-.25-.38-.17-.71-.42-.98-.76v4.02h-1.5v-11.37h1.15l.24 1.06c.27-.39.6-.7 1-.9.4-.21.87-.31 1.4-.31 1.02 0 1.81.4 2.37 1.21s.85 1.87.85 3.2v.16Zm-1.5-.16c0-.93-.18-1.69-.55-2.29-.37-.6-.91-.9-1.62-.9-.43 0-.8.1-1.1.29-.3.19-.55.46-.74.8v3.97c.19.34.43.6.74.79.3.19.68.28 1.12.28.71 0 1.24-.26 1.61-.78.36-.52.55-1.19.55-2.01v-.16Zm6.91 4.12c-1.14 0-2.05-.38-2.73-1.14s-1.01-1.75-1.01-2.96v-.33c0-1.17.35-2.14 1.04-2.92.7-.78 1.52-1.17 2.47-1.17 1.11 0 1.95.33 2.51 1 .57.67.85 1.56.85 2.67v.93h-5.33l-.02.04c.01.79.22 1.43.6 1.94s.92.76 1.62.76c.51 0 .95-.07 1.33-.22.38-.14.71-.34.99-.6l.58.97c-.29.29-.68.53-1.16.73-.48.19-1.06.29-1.75.29Zm-.23-7.35c-.5 0-.93.21-1.28.63s-.57.95-.65 1.58v.04h3.8v-.2c0-.58-.16-1.08-.47-1.47-.31-.39-.78-.59-1.4-.59Zm9.97 5c0-.33-.12-.6-.38-.81-.25-.21-.73-.4-1.42-.55-1-.22-1.75-.51-2.25-.88s-.76-.88-.76-1.52.28-1.24.85-1.71 1.31-.71 2.22-.71c.96 0 1.72.25 2.28.74s.83 1.09.81 1.79l-.02.05h-1.43c0-.36-.15-.68-.45-.97-.3-.29-.7-.43-1.2-.43-.53 0-.93.12-1.18.35-.26.23-.39.51-.39.84s.11.58.34.77c.23.19.69.35 1.39.5 1.04.22 1.81.53 2.32.91.51.38.76.9.76 1.54 0 .73-.29 1.32-.88 1.77-.59.45-1.36.68-2.31.68-1.05 0-1.87-.27-2.47-.8s-.89-1.15-.86-1.86v-.05h1.44c.03.53.22.92.59 1.16.37.24.8.37 1.3.37.53 0 .95-.11 1.25-.32.3-.22.45-.5.45-.85Zm3.15-2c0-1.21.33-2.22.99-3 .66-.79 1.55-1.18 2.68-1.18s2.04.39 2.7 1.18c.66.79.99 1.79.99 3.01v.17c0 1.22-.33 2.23-.99 3.01-.66.78-1.55 1.17-2.69 1.17s-2.03-.39-2.69-1.17c-.66-.78-.99-1.78-.99-3v-.17Zm1.5.16c0 .87.18 1.59.55 2.15.37.57.91.85 1.64.85s1.25-.28 1.62-.85c.37-.57.55-1.28.55-2.15v-.17c0-.86-.19-1.57-.56-2.15s-.92-.86-1.64-.86-1.25.29-1.62.86-.55 1.29-.55 2.15v.17Zm12.6 1.84c0-.33-.12-.6-.38-.81s-.73-.4-1.42-.55c-1-.22-1.75-.51-2.25-.88s-.76-.88-.76-1.52.28-1.24.85-1.71 1.31-.71 2.22-.71 1.72.25 2.28.74.83 1.09.81 1.79l-.02.05h-1.43c0-.36-.15-.68-.45-.97-.3-.29-.7-.43-1.2-.43-.53 0-.93.12-1.19.35-.26.23-.39.51-.39.84s.11.58.34.77c.23.19.69.35 1.39.5 1.04.22 1.81.53 2.32.91.51.38.76.9.76 1.54 0 .73-.29 1.32-.88 1.77-.59.45-1.36.68-2.31.68-1.05 0-1.87-.27-2.47-.8-.6-.53-.89-1.15-.86-1.86v-.05h1.44c.03.53.22.92.59 1.16.37.24.8.37 1.3.37.53 0 .95-.11 1.25-.32.3-.22.45-.5.45-.85Zm4.99 2.19h-1.5v-1.55h1.5v1.55Z" style="fill:#646363"/></g></svg>