<svg id="Layer_2" data-name="Layer 2" xmlns="http://www.w3.org/2000/svg" viewBox="0 0 84.91 84.91"><defs><style>.cls-2{fill:#2566af}</style></defs><g id="Layer_1-2" data-name="Layer 1"><path d="M42.45 84.91c23.45 0 42.45-19.01 42.45-42.45S65.9 0 42.45 0 0 19.01 0 42.45 19.01 84.9 42.45 84.9" style="fill:#fff"/><path class="cls-2" d="M33.54 68.28c-.51-.61-.32-.99.45-2.26.62-1.02.57-1.91.41-2.47-.38-1.35-1.64-2.04-1.79-2.12a.849.849 0 0 0-.22-.09l-2.55-.73c-1.65-.49-2.68-.86-2.95-1.94-.1-.38-.05-.8.13-1.09.11-.18.27-.3.48-.34.07-.01.15-.02.23-.02 3.36 0 5.03-.75 6.11-5.2.16-.64.46-1.27.88-1.88 2.31 2.14 3.76 5.19 3.76 8.58 0 3.94-1.96 7.42-4.94 9.55m-16.29-2.7a6.21 6.21 0 0 0 3.46-2.55c1.22-1.83 1.32-4.05.26-5.95-1.06-1.9.09-2.99 3.08-4.71l.2-.11c.63-.37 1.05-.93 1.22-1.63.22-.93 0-2.08-.68-3.45.64-.11 1.29-.18 1.97-.18 2.23 0 4.32.64 6.1 1.73-.62.87-1.06 1.79-1.29 2.75-.83 3.41-1.58 3.41-3.84 3.41-.25 0-.5.02-.73.07-.83.18-1.53.68-1.97 1.4-.51.82-.66 1.91-.4 2.9.63 2.44 2.9 3.11 4.56 3.6l2.42.7c.19.12.47.37.54.63.02.06.07.25-.16.61-.99 1.63-1.62 2.99-.48 4.63-1.46.65-3.06 1.02-4.76 1.02-3.91 0-7.37-1.93-9.5-4.88m5.22-17.75c.63 1.15.8 1.93.72 2.26-.02.07-.04.11-.11.15l-.19.11c-2.21 1.27-6.33 3.64-3.96 7.88.63 1.12.57 2.4-.16 3.51-.65.97-1.69 1.61-2.74 1.71a11.54 11.54 0 0 1-.99-4.7c0-4.96 3.1-9.2 7.45-10.91m4.28-3.16c-1.37 0-2.7.21-3.96.58h-.02c-5.83 1.72-10.09 7.11-10.09 13.49 0 2.23.53 4.33 1.46 6.2 0 .01.01.03.02.04 2.31 4.63 7.08 7.83 12.59 7.83 2.59 0 5.01-.72 7.09-1.94.05-.02.09-.05.13-.08 4.09-2.46 6.85-6.94 6.85-12.05 0-7.76-6.31-14.07-14.07-14.07m25.53-3.67c-4.94 0-8.95-4.02-8.95-8.95s4.02-8.95 8.95-8.95 8.95 4.02 8.95 8.95-4.02 8.95-8.95 8.95m0-20.25c-6.23 0-11.3 5.07-11.3 11.3s5.07 11.3 11.3 11.3 11.29-5.07 11.29-11.3-5.07-11.3-11.29-11.3"/><path class="cls-2" d="m69.77 33.97-2.4.4c-.72.12-1.31.66-1.51 1.37-.31 1.12-.75 2.2-1.33 3.21-.37.64-.33 1.44.1 2.04l1.41 1.98c-.4.51-.84 1-1.31 1.47-.46.46-.96.9-1.47 1.31l-1.98-1.42c-.6-.42-1.39-.46-2.04-.1-1.01.58-2.09 1.03-3.21 1.33-.71.19-1.25.79-1.37 1.51l-.4 2.4c-1.28.15-2.65.15-3.93 0l-.4-2.4a1.91 1.91 0 0 0-1.37-1.51c-1.12-.31-2.2-.76-3.21-1.33-.64-.36-1.44-.33-2.04.1l-1.98 1.42c-.52-.41-1.01-.85-1.47-1.31-.46-.46-.9-.95-1.31-1.47l1.41-1.98c.43-.6.46-1.39.1-2.04-.58-1.01-1.03-2.09-1.33-3.2-.19-.71-.79-1.25-1.51-1.37l-2.4-.4c-.07-.65-.11-1.31-.11-1.97s.04-1.32.11-1.96l2.39-.4c.72-.12 1.32-.66 1.51-1.37.31-1.12.75-2.19 1.33-3.21.37-.64.33-1.44-.1-2.04l-1.42-1.98c.41-.52.85-1.01 1.31-1.47.46-.46.95-.9 1.47-1.31l1.97 1.41c.6.43 1.4.47 2.04.1 1.01-.58 2.09-1.02 3.21-1.33.71-.19 1.25-.79 1.37-1.51l.4-2.4c1.29-.15 2.64-.15 3.93 0l.4 2.39c.12.72.66 1.31 1.37 1.51 1.12.31 2.2.75 3.21 1.33.64.36 1.44.32 2.03-.1l1.98-1.41c.51.41 1 .84 1.47 1.31.46.46.9.96 1.31 1.47l-1.41 1.98c-.42.6-.46 1.39-.1 2.04.58 1.01 1.02 2.09 1.33 3.21.2.71.79 1.25 1.51 1.37l2.4.4c.07.65.11 1.31.11 1.97 0 .66-.04 1.32-.11 1.97m2.28-4.58c-.11-.82-.74-1.47-1.57-1.61L68 27.38c-.33-1.11-.78-2.2-1.34-3.22l1.44-2.01c.49-.68.48-1.58-.03-2.24-.53-.69-1.11-1.36-1.72-1.97a19.01 19.01 0 0 0-1.98-1.73c-.66-.5-1.56-.51-2.24-.02l-2.01 1.44c-1.02-.56-2.11-1.01-3.23-1.33l-.4-2.43a1.91 1.91 0 0 0-1.61-1.57c-1.71-.23-3.51-.23-5.23 0-.82.11-1.47.74-1.61 1.57l-.41 2.44c-1.12.33-2.2.78-3.22 1.34l-2.01-1.44c-.68-.48-1.58-.47-2.25.03-.7.53-1.36 1.11-1.97 1.72-.61.61-1.2 1.28-1.73 1.97-.5.65-.51 1.58-.03 2.25l1.44 2.01c-.56 1.03-1.01 2.11-1.34 3.23l-2.43.4c-.82.13-1.46.8-1.57 1.61-.11.85-.17 1.73-.17 2.61s.06 1.76.17 2.61c.11.81.76 1.48 1.57 1.61l2.44.41c.33 1.11.78 2.2 1.34 3.22l-1.44 2.01c-.49.68-.48 1.58.03 2.24.53.7 1.11 1.36 1.72 1.98.62.61 1.28 1.2 1.97 1.72.65.5 1.58.51 2.25.03l2.01-1.44c1.03.56 2.11 1.01 3.23 1.34l.4 2.43c.13.81.8 1.46 1.61 1.57.85.11 1.73.17 2.61.17s1.76-.06 2.61-.17c.81-.11 1.48-.75 1.61-1.57l.41-2.44c1.11-.33 2.2-.78 3.22-1.34l2.01 1.44c.68.49 1.58.48 2.24-.03.69-.53 1.36-1.11 1.98-1.73.63-.63 1.21-1.29 1.73-1.98.5-.66.51-1.56.03-2.24l-1.44-2.01c.56-1.02 1.01-2.11 1.34-3.23l2.43-.4c.82-.13 1.46-.8 1.57-1.61.11-.85.17-1.73.17-2.61 0-.88-.05-1.76-.17-2.61Z"/><path class="cls-2" d="M52.29 28.41h.04c.67.01 1.21.56 1.21 1.23s.52 1.17 1.17 1.17 1.17-.52 1.17-1.17c0-1.56-1.01-2.87-2.4-3.36v-1.01c0-.65-.52-1.17-1.17-1.17s-1.17.52-1.17 1.17v1.01c-1.4.49-2.41 1.8-2.41 3.36 0 1.97 1.6 3.57 3.57 3.57.68 0 1.23.55 1.23 1.23s-.54 1.22-1.21 1.23h-.03c-.67 0-1.22-.55-1.22-1.23s-.53-1.17-1.17-1.17-1.17.52-1.17 1.17c0 1.56 1.01 2.88 2.41 3.36v1.01c0 .65.52 1.17 1.17 1.17s1.17-.52 1.17-1.17V37.8c1.39-.49 2.4-1.8 2.4-3.36 0-1.97-1.6-3.57-3.57-3.57a1.23 1.23 0 0 1-.01-2.46M18.12 45.15c.08 0 .17 0 .25-.03.63-.14 1.03-.77.89-1.4-2.17-9.81 5.29-14.95 9.31-16.95l-.83 2.32a1.173 1.173 0 0 0 1.1 1.57c.48 0 .93-.3 1.1-.78l1.74-4.85c.22-.61-.1-1.28-.71-1.5l-4.85-1.73a1.173 1.173 0 1 0-.79 2.21l2.1.75c-4.57 2.36-12.93 8.32-10.46 19.47.12.54.6.92 1.14.92m41.62 4.01c-.64.05-1.13.62-1.08 1.26.79 10.02-7.31 14.07-11.57 15.5l1.14-2.19c.3-.57.08-1.28-.49-1.58-.57-.3-1.28-.08-1.58.49l-2.39 4.56c-.14.27-.17.6-.08.89.09.3.3.54.57.69l4.56 2.39a1.177 1.177 0 0 0 1.58-.5c.3-.57.08-1.28-.49-1.58l-1.97-1.04c4.85-1.71 13.95-6.46 13.05-17.83-.05-.64-.61-1.12-1.26-1.07"/></g></svg>