<svg id="Layer_2" data-name="Layer 2" xmlns="http://www.w3.org/2000/svg" viewBox="0 0 84.91 84.91"><defs><style>.cls-2{fill:#2566af}</style></defs><g id="Layer_1-2" data-name="Layer 1"><path d="M42.45 84.91c23.45 0 42.45-19.01 42.45-42.45S65.9 0 42.45 0 0 19.01 0 42.45 19.01 84.9 42.45 84.9" style="fill:#fff"/><path class="cls-2" d="M61.14 31.82H40v-9.81h21.14l4.2 4.91-4.2 4.9Zm-26.86-2.45H19.56v-9.81h14.72v9.81Zm1.64-9.18 2.45 1.47v9.54l-2.45-1.47v-9.54Zm26.47.76c-.31-.36-.76-.57-1.24-.57H39.42l-3.89-2.34s-.04-.01-.05-.02l-.15-.06a.415.415 0 0 0-.16-.03c-.02 0-.04-.01-.06-.01H19.57c-.9 0-1.63.73-1.63 1.64v9.81c0 .9.73 1.64 1.63 1.64h15.31l3.89 2.34s.04.02.07.03c.02 0 .05.02.07.03.09.04.18.05.28.06h21.96c.48 0 .93-.21 1.24-.57l4.2-4.91c.53-.61.53-1.51 0-2.12l-4.2-4.91Zm-1.25 27.23H40v-9.81h21.14l4.2 4.91-4.2 4.9Zm-26.86-2.45H19.56v-9.81h14.72v9.81Zm1.64-9.18 2.45 1.47v9.54l-2.45-1.47v-9.54Zm26.47.76c-.31-.36-.76-.57-1.24-.57H39.42l-3.89-2.34s-.04-.01-.05-.02l-.15-.06a.453.453 0 0 0-.16-.03c-.02 0-.04-.01-.05-.01H19.59c-.9 0-1.63.73-1.63 1.64v9.81c0 .9.73 1.64 1.63 1.64H34.9l3.89 2.34s.04.02.07.03c.02 0 .05.02.07.03.09.04.18.05.28.06h21.96c.48 0 .93-.21 1.24-.57l4.2-4.91c.53-.61.53-1.51 0-2.12l-4.2-4.91Zm-1.25 28.04H40v-9.81h21.14l4.2 4.91-4.2 4.9ZM34.28 62.9H19.56v-9.81h14.72v9.81Zm1.64-9.18 2.45 1.47v9.54l-2.45-1.47v-9.54Zm26.47.76c-.31-.36-.76-.57-1.24-.57H39.42l-3.89-2.34s-.04-.01-.05-.02l-.15-.06a.453.453 0 0 0-.16-.03c-.02 0-.04-.01-.05-.01H19.59c-.9 0-1.63.73-1.63 1.64v9.81c0 .9.73 1.64 1.63 1.64H34.9l3.89 2.34s.04.02.07.03c.02 0 .05.02.07.03.09.04.18.05.28.06h21.96c.48 0 .93-.21 1.24-.57l4.2-4.91c.53-.61.53-1.51 0-2.12l-4.2-4.91Z"/><path class="cls-2" d="M22.83 23.65c0-.45.37-.82.82-.82s.82.37.82.82v1.64c0 .45-.37.82-.82.82s-.82-.37-.82-.82v-1.64Zm.82 4.09c1.35 0 2.45-1.1 2.45-2.45v-1.64c0-1.36-1.1-2.45-2.45-2.45s-2.45 1.1-2.45 2.45v1.64c0 1.35 1.1 2.45 2.45 2.45m4.09-.82c0 .45.37.82.82.82h1.63c.45 0 .82-.37.82-.82s-.37-.82-.82-.82v-4.09c0-.45-.37-.82-.82-.82-.22 0-.42.09-.58.24l-.82.82a.82.82 0 0 0 .58 1.4v2.45c-.45 0-.82.37-.82.82M22.83 40c0-.45.37-.82.82-.82s.82.37.82.82v1.64c0 .45-.37.82-.82.82s-.82-.37-.82-.82V40Zm.82 4.09c1.35 0 2.45-1.1 2.45-2.45V40c0-1.36-1.1-2.45-2.45-2.45S21.2 38.65 21.2 40v1.64c0 1.35 1.1 2.45 2.45 2.45m-.82 13.08c0-.45.37-.82.82-.82s.82.37.82.82v1.64c0 .45-.37.82-.82.82s-.82-.37-.82-.82v-1.64Zm.82 4.09c1.35 0 2.45-1.1 2.45-2.45v-1.64c0-1.36-1.1-2.45-2.45-2.45s-2.45 1.1-2.45 2.45v1.64c0 1.35 1.1 2.45 2.45 2.45m4.58-21.32c.41.18.9-.01 1.07-.43.07-.2.26-.33.47-.32.23 0 .41.18.41.41a5.514 5.514 0 0 1-1.75 2.87.81.81 0 0 0-.69.93c.06.4.4.7.81.7h3.27c.45 0 .82-.37.82-.82s-.37-.82-.82-.82h-1.19a6 6 0 0 0 1.19-2.86c0-1.13-.92-2.04-2.04-2.04-.87-.01-1.65.51-1.98 1.31-.18.42.02.9.43 1.07m1.51 19.68c-.19 0-.35-.11-.42-.28a.821.821 0 0 0-1.54.56c.4 1.08 1.6 1.63 2.68 1.22a2.1 2.1 0 0 0 1.36-1.91c0-.44-.15-.87-.42-1.23.27-.35.42-.78.42-1.23a2.072 2.072 0 0 0-2.12-2.04c-.86.02-1.62.55-1.91 1.36-.17.42.03.9.45 1.06.42.17.9-.03 1.07-.45 0-.02.01-.04.02-.06.07-.17.24-.28.42-.28.23 0 .43.17.44.41 0 .12-.06.23-.15.31a1.203 1.203 0 0 0 0 1.85c.09.07.15.19.15.31-.01.24-.21.42-.44.41M48.18 26.1h6.54c.45 0 .82-.37.82-.82s-.37-.82-.82-.82h-6.54c-.45 0-.82.37-.82.82s.37.82.82.82m11.44 1.64h-.82c-.45 0-.82.37-.82.82s.37.82.82.82h.82c.45 0 .82-.37.82-.82s-.37-.82-.82-.82m-4.09 0h-8.18c-.45 0-.82.37-.82.82s.37.82.82.82h8.18c.45 0 .82-.37.82-.82s-.37-.82-.82-.82m-11.44 0h-1.64c-.45 0-.82.37-.82.82s.37.82.82.82h1.64c.45 0 .82-.37.82-.82s-.37-.82-.82-.82m4.09 14.71h6.54c.45 0 .82-.37.82-.82s-.37-.82-.82-.82h-6.54c-.45 0-.82.37-.82.82s.37.82.82.82m11.44 1.64h-.82c-.45 0-.82.37-.82.82s.37.82.82.82h.82c.45 0 .82-.37.82-.82s-.37-.82-.82-.82m-4.09 0h-8.18c-.45 0-.82.37-.82.82s.37.82.82.82h8.18c.45 0 .82-.37.82-.82s-.37-.82-.82-.82m-11.44 0h-1.64c-.45 0-.82.37-.82.82s.37.82.82.82h1.64c.45 0 .82-.37.82-.82s-.37-.82-.82-.82m4.09 15.53h6.54c.45 0 .82-.37.82-.82s-.37-.82-.82-.82h-6.54c-.45 0-.82.37-.82.82s.37.82.82.82m11.44 1.64h-.82c-.45 0-.82.37-.82.82s.37.82.82.82h.82c.45 0 .82-.37.82-.82s-.37-.82-.82-.82m-4.09 0h-8.18c-.45 0-.82.37-.82.82s.37.82.82.82h8.18c.45 0 .82-.37.82-.82s-.37-.82-.82-.82m-11.44 0h-1.64c-.45 0-.82.37-.82.82s.37.82.82.82h1.64c.45 0 .82-.37.82-.82s-.37-.82-.82-.82"/></g></svg>