<svg id="Layer_2" data-name="Layer 2" xmlns="http://www.w3.org/2000/svg" xmlns:xlink="http://www.w3.org/1999/xlink" viewBox="0 0 539 650.25"><defs><linearGradient id="linear-gradient" x1="-3574.8" y1="3632.8" x2="-3573.8" y2="3632.8" gradientTransform="matrix(350.67 0 0 -350.67 1253657.63 1274033.3)" gradientUnits="userSpaceOnUse"><stop offset="0" stop-color="#1c336e"/><stop offset=".05" stop-color="#1c336e"/><stop offset=".63" stop-color="#3369a7"/><stop offset="1" stop-color="#4087c7"/></linearGradient><linearGradient id="linear-gradient-2" x1="-3574.8" y1="3631.48" x2="-3573.8" y2="3631.48" gradientTransform="matrix(350.67 0 0 -350.67 1253658.83 1274034.51)" gradientUnits="userSpaceOnUse"><stop offset="0" stop-color="#1e6f41"/><stop offset=".01" stop-color="#1e6f41"/><stop offset=".44" stop-color="#60b254"/><stop offset=".73" stop-color="#43a756"/><stop offset="1" stop-color="#c4d64e"/><stop offset="1" stop-color="#c4d64e"/></linearGradient><linearGradient id="linear-gradient-3" x1="-3574.8" x2="-3573.8" xlink:href="#linear-gradient-2"/><linearGradient id="linear-gradient-4" x1="-3574.8" x2="-3573.8" xlink:href="#linear-gradient-2"/><clipPath id="clippath"><path d="M355.94 101.25h88.5v57.5h-88.5v-57.5Zm-126 0h126v57.5h-126v-57.5Zm-136.17 0h136.17v57.5H93.78v-57.5Z" style="fill:none"/></clipPath><style>.cls-2{fill:#fff}.cls-3{fill:#064796}</style></defs><g id="Layer_1-2" data-name="Layer 1"><rect x=".11" y=".41" width="538" height="649.84" rx="20" ry="20" style="fill:#e5f7fd"/><path d="M18.13 0h502.41C530.73 0 539 8.27 539 18.46V71H0V18.13C0 8.12 8.12 0 18.13 0Z" style="fill:#2d549d"/><path class="cls-2" d="M62.31 46.13V24.8h7.32c2.61 0 4.76.83 6.45 2.5s2.53 3.8 2.53 6.41v3.53c0 2.62-.84 4.75-2.53 6.41s-3.84 2.48-6.45 2.48h-7.32Zm4.28-18.03v14.74h2.83c1.53 0 2.73-.52 3.6-1.55s1.3-2.39 1.3-4.05v-3.56c0-1.65-.43-2.99-1.3-4.02s-2.07-1.55-3.6-1.55h-2.83Zm21.83 18.34c-2.29 0-4.11-.73-5.48-2.2s-2.05-3.33-2.05-5.58v-.59c0-2.35.65-4.29 1.94-5.82s3.03-2.28 5.21-2.27c2.14 0 3.8.64 4.98 1.93s1.77 3.03 1.77 5.23v2.33h-9.46l-.03.09c.08 1.04.43 1.9 1.05 2.57.62.67 1.46 1.01 2.53 1.01.95 0 1.73-.1 2.36-.29s1.31-.49 2.05-.9l1.16 2.64c-.64.53-1.49.97-2.53 1.32s-2.21.52-3.49.52Zm-.38-13.15c-.79 0-1.42.3-1.88.91s-.74 1.4-.85 2.39l.04.07h5.24v-.38c0-.91-.21-1.63-.64-2.18s-1.07-.81-1.93-.81Zm17.63 8.48c0-.47-.23-.87-.68-1.22s-1.3-.64-2.53-.91c-1.88-.38-3.29-.94-4.24-1.69s-1.43-1.77-1.43-3.05c0-1.37.57-2.53 1.72-3.48s2.68-1.43 4.61-1.43c2.02 0 3.63.47 4.83 1.42s1.77 2.14 1.72 3.59l-.03.09h-4.13c0-.63-.2-1.15-.61-1.55s-1-.6-1.78-.6c-.69 0-1.24.17-1.63.51s-.59.76-.59 1.27.21.89.62 1.2 1.26.59 2.53.83c1.95.39 3.4.96 4.35 1.72s1.42 1.8 1.42 3.13c0 1.43-.61 2.59-1.83 3.49s-2.83 1.35-4.83 1.35c-2.11 0-3.78-.53-5-1.6s-1.81-2.29-1.75-3.65l.03-.09h3.91c.03.85.31 1.46.83 1.85s1.22.57 2.07.57c.79 0 1.39-.16 1.81-.47s.62-.74.62-1.27Zm13.56 4.67c-2.29 0-4.11-.73-5.48-2.2s-2.05-3.33-2.05-5.58v-.59c0-2.35.65-4.29 1.94-5.82s3.03-2.28 5.21-2.27c2.14 0 3.8.64 4.98 1.93s1.77 3.03 1.77 5.23v2.33h-9.46l-.03.09c.08 1.04.43 1.9 1.05 2.57.62.67 1.46 1.01 2.53 1.01.95 0 1.73-.1 2.36-.29s1.31-.49 2.05-.9l1.16 2.64c-.64.53-1.49.97-2.53 1.32s-2.21.52-3.49.52Zm-.38-13.15c-.79 0-1.42.3-1.88.91s-.74 1.4-.85 2.39l.04.07h5.24v-.38c0-.91-.21-1.63-.64-2.18s-1.07-.81-1.93-.81Zm13.24-3.01.18 2.09c.51-.76 1.15-1.35 1.91-1.77s1.65-.62 2.66-.62 1.88.22 2.61.67 1.27 1.13 1.64 2.04c.49-.85 1.12-1.51 1.9-1.99s1.7-.72 2.75-.72c1.56 0 2.8.54 3.7 1.62s1.35 2.72 1.35 4.93v9.59h-4.28v-9.63c0-1.2-.2-2.04-.59-2.51-.39-.47-.97-.7-1.74-.7-.61 0-1.13.13-1.57.4s-.8.64-1.06 1.12c0 .19 0 .35.01.48 0 .13.01.27.01.4v10.44h-4.26v-9.63c0-1.17-.2-2-.59-2.49-.39-.48-.98-.73-1.76-.73-.58 0-1.08.11-1.52.33s-.79.53-1.08.93v11.58h-4.26V30.26h3.97Zm36.19 8.37c0 2.36-.53 4.25-1.58 5.67s-2.58 2.12-4.57 2.12c-.92 0-1.72-.19-2.41-.58s-1.27-.95-1.75-1.69l-.32 1.96h-3.66V23.28h4.26v8.69c.46-.63 1.01-1.12 1.65-1.46s1.37-.51 2.2-.51c2.01 0 3.54.76 4.6 2.28s1.58 3.54 1.58 6.07v.31Zm-4.26-.31c0-1.55-.23-2.78-.68-3.69s-1.23-1.36-2.32-1.36c-.66 0-1.23.14-1.68.42-.46.28-.82.68-1.08 1.2v6.75c.26.48.63.85 1.09 1.1s1.03.38 1.71.38c1.1 0 1.88-.39 2.31-1.17s.66-1.89.66-3.32v-.31Zm6.15-.28c0-2.36.66-4.3 1.98-5.81s3.14-2.26 5.48-2.26 4.18.75 5.51 2.26 1.99 3.44 1.99 5.82v.31c0 2.38-.66 4.32-1.98 5.82s-3.15 2.25-5.49 2.25-4.18-.75-5.5-2.25-1.99-3.44-1.99-5.82v-.31Zm4.26.3c0 1.44.25 2.6.76 3.47.51.87 1.33 1.31 2.46 1.31s1.91-.44 2.42-1.32.77-2.03.77-3.47v-.31c0-1.4-.26-2.55-.78-3.44-.52-.89-1.33-1.33-2.45-1.33s-1.91.45-2.42 1.34-.77 2.04-.77 3.43v.31Zm17.59 7.77h-4.28V23.28h4.28v22.85Zm11.82-4.36c0-.47-.23-.87-.68-1.22s-1.3-.64-2.53-.91c-1.88-.38-3.29-.94-4.24-1.69s-1.43-1.77-1.43-3.05c0-1.37.57-2.53 1.72-3.48s2.68-1.43 4.61-1.43c2.02 0 3.63.47 4.83 1.42s1.77 2.14 1.72 3.59l-.03.09h-4.13c0-.63-.2-1.15-.61-1.55s-1-.6-1.78-.6c-.69 0-1.24.17-1.63.51s-.59.76-.59 1.27.21.89.62 1.2 1.26.59 2.53.83c1.95.39 3.4.96 4.35 1.72s1.42 1.8 1.42 3.13c0 1.43-.61 2.59-1.83 3.49s-2.83 1.35-4.83 1.35c-2.11 0-3.78-.53-5-1.6s-1.81-2.29-1.75-3.65l.03-.09h3.91c.03.85.31 1.46.83 1.85s1.22.57 2.07.57c.79 0 1.39-.16 1.81-.47s.62-.74.62-1.27Zm5.97-3.71c0-2.36.66-4.3 1.98-5.81s3.14-2.26 5.48-2.26 4.18.75 5.51 2.26 1.99 3.44 1.99 5.82v.31c0 2.38-.66 4.32-1.98 5.82s-3.15 2.25-5.49 2.25-4.18-.75-5.5-2.25-1.99-3.44-1.99-5.82v-.31Zm4.26.3c0 1.44.25 2.6.76 3.47.51.87 1.33 1.31 2.46 1.31s1.91-.44 2.42-1.32.77-2.03.77-3.47v-.31c0-1.4-.26-2.55-.78-3.44-.52-.89-1.33-1.33-2.45-1.33s-1.91.45-2.42 1.34-.77 2.04-.77 3.43v.31Zm21.63 3.41c0-.47-.23-.87-.68-1.22s-1.3-.64-2.53-.91c-1.88-.38-3.29-.94-4.24-1.69s-1.43-1.77-1.43-3.05c0-1.37.57-2.53 1.72-3.48s2.68-1.43 4.61-1.43c2.02 0 3.63.47 4.83 1.42s1.77 2.14 1.72 3.59l-.03.09h-4.13c0-.63-.2-1.15-.61-1.55s-1-.6-1.78-.6c-.69 0-1.24.17-1.63.51s-.59.76-.59 1.27.21.89.62 1.2 1.26.59 2.53.83c1.95.39 3.4.96 4.35 1.72s1.42 1.8 1.42 3.13c0 1.43-.61 2.59-1.83 3.49s-2.83 1.35-4.83 1.35c-2.11 0-3.78-.53-5-1.6s-1.81-2.29-1.75-3.65l.03-.09h3.91c.03.85.31 1.46.83 1.85s1.22.57 2.07.57c.79 0 1.39-.16 1.81-.47s.62-.74.62-1.27Zm28.67-3.12c0 2.34-.54 4.23-1.63 5.65s-2.6 2.14-4.54 2.14c-.83 0-1.57-.15-2.21-.46s-1.2-.76-1.66-1.35v7.6h-4.26V30.29h3.85l.25 1.88c.47-.69 1.03-1.23 1.69-1.6s1.43-.56 2.31-.56c1.96 0 3.49.77 4.57 2.3s1.63 3.55 1.63 6.05v.31Zm-4.28-.33c0-1.5-.25-2.71-.75-3.64-.5-.93-1.26-1.39-2.29-1.39-.64 0-1.19.13-1.65.4s-.81.64-1.08 1.13v6.95c.26.45.62.79 1.08 1.03s1.01.35 1.68.35c1.04 0 1.79-.41 2.28-1.22.48-.81.73-1.91.73-3.3v-.31Zm6.16-.26c0-2.36.66-4.3 1.98-5.81s3.14-2.26 5.48-2.26 4.18.75 5.51 2.26 1.99 3.44 1.99 5.82v.31c0 2.38-.66 4.32-1.99 5.82s-3.15 2.25-5.49 2.25-4.18-.75-5.5-2.25-1.98-3.44-1.98-5.82v-.31Zm4.26.3c0 1.44.25 2.6.76 3.47.51.87 1.33 1.31 2.46 1.31s1.91-.44 2.42-1.32.77-2.03.77-3.47v-.31c0-1.4-.26-2.55-.78-3.44-.52-.89-1.33-1.33-2.45-1.33s-1.91.45-2.42 1.34-.77 2.04-.77 3.43v.31Zm21.55-4.4-1.57-.04c-.63 0-1.16.13-1.57.4s-.72.63-.94 1.11v10.71h-4.26V30.29h3.97l.19 2.34c.37-.83.85-1.48 1.44-1.94s1.27-.7 2.04-.7c.21 0 .41.02.59.05s.36.08.55.12l-.45 3.79Zm14.14-7.47h-4.28v-3.21h4.28v3.21Zm0 19.64h-4.28V30.28h4.28v15.85Zm7.27-15.85.19 2.27c.53-.81 1.18-1.44 1.95-1.89s1.64-.67 2.59-.67c1.6 0 2.85.5 3.75 1.51s1.35 2.58 1.35 4.73v9.9h-4.29v-9.91c0-1.07-.21-1.82-.64-2.27s-1.08-.67-1.95-.67c-.57 0-1.07.12-1.52.35s-.83.56-1.13.98v11.53h-4.28V30.29h3.98Zm17.99-3.88v3.88h2.67v3h-2.67v8.07c0 .62.13 1.05.38 1.32s.6.4 1.03.4c.22 0 .42-.01.58-.04s.35-.07.56-.12l.37 3.09c-.43.15-.85.26-1.26.33s-.85.11-1.33.11c-1.47 0-2.61-.41-3.41-1.22s-1.19-2.09-1.19-3.85v-8.09h-2.31v-3h2.31V26.4h4.28Zm11.66 20.04c-2.29 0-4.11-.73-5.48-2.2s-2.05-3.33-2.05-5.58v-.59c0-2.35.65-4.29 1.94-5.82s3.03-2.28 5.21-2.27c2.14 0 3.8.64 4.98 1.93s1.77 3.03 1.77 5.23v2.33h-9.46l-.03.09c.08 1.04.43 1.9 1.05 2.57.62.67 1.46 1.01 2.53 1.01.95 0 1.73-.1 2.36-.29s1.31-.49 2.05-.9l1.16 2.64c-.64.53-1.49.97-2.53 1.32s-2.21.52-3.49.52Zm-.38-13.15c-.79 0-1.42.3-1.88.91s-.74 1.4-.85 2.39l.04.07h5.24v-.38c0-.91-.21-1.63-.64-2.18s-1.07-.81-1.93-.81Zm17.6.67-1.57-.04c-.63 0-1.16.13-1.57.4s-.72.63-.94 1.11v10.71H352V30.29h3.97l.19 2.34c.37-.83.85-1.48 1.44-1.94s1.27-.7 2.04-.7c.21 0 .41.02.59.05s.36.08.55.12l-.45 3.79Zm6.14-3.68.18 2.09c.51-.76 1.15-1.35 1.91-1.77s1.65-.62 2.66-.62 1.88.22 2.61.67 1.27 1.13 1.64 2.04c.49-.85 1.12-1.51 1.9-1.99s1.7-.72 2.75-.72c1.56 0 2.8.54 3.7 1.62s1.35 2.72 1.35 4.93v9.59h-4.28v-9.63c0-1.2-.2-2.04-.59-2.51-.39-.47-.97-.7-1.74-.7-.61 0-1.13.13-1.57.4s-.8.64-1.06 1.12c0 .19 0 .35.01.48 0 .13.01.27.01.4v10.44h-4.26v-9.63c0-1.17-.2-2-.59-2.49-.39-.48-.98-.73-1.76-.73-.58 0-1.08.11-1.52.33s-.79.53-1.08.93v11.58h-4.26V30.26h3.97Zm28.74 16.16c-2.29 0-4.11-.73-5.48-2.2s-2.05-3.33-2.05-5.58v-.59c0-2.35.65-4.29 1.94-5.82s3.03-2.28 5.21-2.27c2.14 0 3.8.64 4.98 1.93s1.77 3.03 1.77 5.23v2.33h-9.46l-.03.09c.08 1.04.43 1.9 1.05 2.57.62.67 1.46 1.01 2.53 1.01.95 0 1.73-.1 2.36-.29s1.31-.49 2.05-.9l1.16 2.64c-.64.53-1.49.97-2.53 1.32s-2.21.52-3.49.52Zm-.38-13.15c-.79 0-1.42.3-1.88.91s-.74 1.4-.85 2.39l.04.07h5.24v-.38c0-.91-.21-1.63-.64-2.18s-1.07-.81-1.93-.81Zm8.61 5.05c0-2.5.54-4.52 1.62-6.05s2.6-2.3 4.56-2.3c.79 0 1.5.17 2.14.51s1.19.83 1.67 1.46v-8.69h4.29v22.85h-3.68l-.35-1.93c-.5.73-1.09 1.29-1.76 1.67s-1.46.57-2.34.57c-1.94 0-3.45-.71-4.53-2.14s-1.62-3.31-1.62-5.65v-.31Zm4.26.31c0 1.4.23 2.49.7 3.29.47.8 1.23 1.2 2.29 1.2.62 0 1.15-.12 1.61-.38.46-.25.83-.62 1.13-1.1v-6.79c-.29-.5-.67-.89-1.12-1.17-.45-.28-.98-.42-1.59-.42-1.04 0-1.81.47-2.29 1.4-.48.93-.73 2.15-.73 3.65v.31Zm17.62-12.16h-4.28v-3.21h4.28v3.21Zm0 19.64h-4.28V30.28h4.28v15.85Zm12.64 0c-.16-.36-.29-.74-.4-1.14s-.19-.81-.24-1.23c-.44.77-1.02 1.41-1.74 1.92s-1.58.76-2.57.76c-1.66 0-2.94-.43-3.84-1.28s-1.35-2.02-1.35-3.49c0-1.55.6-2.76 1.79-3.61s2.94-1.28 5.24-1.28h2.39v-1.26c0-.76-.2-1.35-.6-1.77s-.99-.63-1.77-.63c-.69 0-1.23.17-1.6.51s-.56.8-.56 1.4h-4.13l-.01-.1c-.07-1.34.51-2.49 1.74-3.46s2.85-1.46 4.85-1.46c1.89 0 3.43.48 4.61 1.44s1.77 2.33 1.77 4.11v6.55c0 .74.06 1.44.17 2.09s.29 1.3.53 1.95h-4.28Zm-3.91-2.86c.75 0 1.42-.19 2.01-.56s.98-.8 1.19-1.29v-2.24h-2.39c-.91 0-1.6.23-2.07.68s-.7 1-.7 1.65c0 .53.18.95.53 1.27s.83.48 1.44.48Zm18.96-9.31-1.57-.04c-.63 0-1.16.13-1.57.4s-.72.63-.94 1.11v10.71h-4.26V30.29h3.97l.19 2.34c.37-.83.85-1.48 1.44-1.94s1.27-.7 2.04-.7c.21 0 .41.02.59.05s.36.08.55.12l-.45 3.79Zm6.52-7.47h-4.28v-3.21h4.28v3.21Zm0 19.64h-4.28V30.28h4.28v15.85Zm2.61-8.07c0-2.36.66-4.3 1.98-5.81s3.14-2.26 5.48-2.26 4.18.75 5.51 2.26 1.99 3.44 1.99 5.82v.31c0 2.38-.66 4.32-1.98 5.82s-3.15 2.25-5.49 2.25-4.18-.75-5.5-2.25-1.99-3.44-1.99-5.82v-.31Zm4.26.3c0 1.44.25 2.6.76 3.47.51.87 1.33 1.31 2.46 1.31s1.91-.44 2.42-1.32.77-2.03.77-3.47v-.31c0-1.4-.26-2.55-.78-3.44-.52-.89-1.33-1.33-2.45-1.33s-1.91.45-2.42 1.34-.77 2.04-.77 3.43v.31Z"/><path class="cls-3" d="M99.87 617.03h-3.74v3.64h-1.42v-8.53h5.76v1.14h-4.34v2.61h3.74v1.14Zm5.68 2.71c-.2.34-.45.59-.76.78s-.66.27-1.05.27c-.68 0-1.21-.22-1.59-.65s-.57-1.11-.57-2.02v-3.79H103v3.8c0 .55.09.94.27 1.17s.45.33.81.33c.34 0 .63-.06.86-.18s.42-.3.55-.54v-4.58h1.42v6.34h-1.24l-.12-.93Zm5.92 1.05c-.9 0-1.61-.29-2.15-.88s-.8-1.34-.8-2.26v-.23c0-.92.26-1.69.79-2.29s1.19-.91 1.99-.91c.86 0 1.51.26 1.97.78s.68 1.21.68 2.08v.84h-3.96v.03c.01.5.16.91.43 1.23s.65.48 1.13.48c.38 0 .71-.05.98-.14s.54-.23.79-.4l.46.93c-.24.21-.55.39-.95.54s-.85.22-1.37.22Zm-.16-5.44c-.35 0-.64.14-.87.42s-.37.63-.42 1.06v.03h2.53v-.15c0-.4-.1-.73-.31-.98s-.51-.38-.93-.38Zm5.53-1.02.08.91c.21-.32.47-.58.78-.76s.67-.27 1.06-.27c.66 0 1.17.2 1.54.6s.55 1.02.55 1.87v3.98h-1.42v-3.97c0-.48-.1-.82-.3-1.02s-.5-.3-.9-.3c-.28 0-.53.06-.74.18s-.4.29-.54.51v4.6h-1.42v-6.34h1.3Zm7.6-1.54v1.54h1.14v1.05h-1.14v3.5c0 .26.06.45.17.56s.26.17.45.17c.08 0 .15 0 .23-.02s.14-.03.21-.06l.15 1.04c-.12.07-.27.12-.43.16s-.34.06-.52.06c-.52 0-.93-.15-1.23-.46s-.45-.79-.45-1.44v-3.5h-.97v-1.05h.97v-1.54h1.42Zm5.2 8c-.9 0-1.61-.29-2.15-.88s-.8-1.34-.8-2.26v-.23c0-.92.26-1.69.79-2.29s1.19-.91 1.99-.91c.86 0 1.51.26 1.97.78s.68 1.21.68 2.08v.84h-3.96v.03c.01.5.16.91.43 1.23s.65.48 1.13.48c.38 0 .71-.05.98-.14s.54-.23.79-.4l.46.93c-.24.21-.55.39-.95.54s-.85.22-1.37.22Zm-.16-5.44c-.35 0-.64.14-.87.42s-.37.63-.42 1.06v.03h2.53v-.15c0-.4-.1-.73-.31-.98s-.51-.38-.93-.38Zm5.54.19h-1.42v-1.37h1.42v1.37Zm0 5.13h-1.42v-1.37h1.42v1.37Zm10.69-3.64h-3.74v3.64h-1.42v-8.53h5.76v1.14h-4.34v2.61h3.74v1.14Zm3.48-4.25h-1.42v-1.25h1.42v1.25Zm0 7.89h-1.42v-6.34h1.42v6.34Zm3.21-6.34.08.91c.21-.32.47-.58.78-.76s.67-.27 1.06-.27c.66 0 1.17.2 1.54.6s.55 1.02.55 1.87v3.98h-1.42v-3.97c0-.48-.1-.82-.3-1.02s-.5-.3-.9-.3c-.28 0-.53.06-.74.18s-.4.29-.54.51v4.6h-1.42v-6.34h1.3Zm5.63 3.26c0-1.01.22-1.83.65-2.45s1.04-.93 1.83-.93c.34 0 .65.07.92.21s.51.34.71.59v-3.49h1.42v9.14h-1.2l-.14-.79c-.2.3-.45.52-.73.68s-.62.23-1 .23c-.78 0-1.38-.28-1.82-.85s-.65-1.31-.65-2.23v-.12Zm1.42.12c0 .59.11 1.05.34 1.4s.58.52 1.07.52c.3 0 .56-.06.76-.19s.38-.31.51-.55v-2.77c-.13-.23-.3-.42-.52-.55s-.46-.2-.75-.2c-.48 0-.84.2-1.07.61s-.35.94-.35 1.6v.12Zm8.71 3.08c-.9 0-1.61-.29-2.15-.88s-.8-1.34-.8-2.26v-.23c0-.92.26-1.69.79-2.29s1.19-.91 1.99-.91c.86 0 1.51.26 1.97.78s.68 1.21.68 2.08v.84h-3.96v.03c.01.5.16.91.43 1.23s.65.48 1.13.48c.38 0 .71-.05.98-.14s.54-.23.79-.4l.46.93c-.24.21-.55.39-.95.54s-.85.22-1.37.22Zm-.16-5.44c-.35 0-.64.14-.87.42s-.37.63-.42 1.06v.03h2.53v-.15c0-.4-.1-.73-.31-.98s-.51-.38-.93-.38Zm5.97-2.56v1.54h1.14v1.05h-1.14v3.5c0 .26.06.45.17.56s.26.17.45.17c.08 0 .15 0 .23-.02s.14-.03.21-.06l.15 1.04c-.12.07-.27.12-.43.16s-.34.06-.52.06c-.52 0-.93-.15-1.23-.46s-.45-.79-.45-1.44v-3.5h-.97v-1.05h.97v-1.54h1.42Zm5.2 8c-.9 0-1.61-.29-2.15-.88s-.8-1.34-.8-2.26v-.23c0-.92.26-1.69.79-2.29s1.19-.91 1.99-.91c.86 0 1.51.26 1.97.78s.68 1.21.68 2.08v.84h-3.96v.03c.01.5.16.91.43 1.23s.65.48 1.13.48c.38 0 .71-.05.98-.14s.54-.23.79-.4l.46.93c-.24.21-.55.39-.95.54s-.85.22-1.37.22Zm-.16-5.44c-.35 0-.64.14-.87.42s-.37.63-.42 1.06v.03h2.53v-.15c0-.4-.1-.73-.31-.98s-.51-.38-.93-.38Zm7.4.26-.61-.02c-.28 0-.51.06-.69.18s-.33.28-.43.5v4.41h-1.42v-6.34h1.3l.09.92c.16-.32.37-.58.62-.76s.54-.28.87-.28c.09 0 .17 0 .24.02s.14.03.21.05l-.17 1.33Zm11.28 1.42h-6.36v-1.14h6.36v1.14Zm8.28 1.41.15.59h.04l.15-.58 2.04-6.31h1.52l-3.05 8.53h-1.35l-3.04-8.53h1.52l2.03 6.3Zm8.41 2.23c-.05-.16-.09-.32-.13-.47s-.06-.3-.07-.46c-.2.3-.45.55-.77.75s-.67.3-1.07.3c-.66 0-1.17-.17-1.52-.51s-.53-.81-.53-1.4.24-1.09.73-1.43 1.17-.51 2.04-.51h1.11v-.56c0-.33-.1-.59-.29-.78s-.47-.28-.84-.28c-.32 0-.58.08-.77.23s-.29.36-.29.6h-1.37v-.04c-.03-.5.19-.94.67-1.33s1.09-.58 1.85-.58 1.33.19 1.79.56.68.91.68 1.62v2.82c0 .26.02.51.05.75s.09.48.17.71h-1.44Zm-1.75-1.02c.36 0 .68-.09.97-.27s.48-.38.57-.62v-.94h-1.13c-.41 0-.74.1-.97.31s-.35.45-.35.72c0 .24.08.43.24.58s.38.21.68.21Zm6.3 1.02h-1.42v-9.14h1.42v9.14Zm1.66-3.23c0-.94.26-1.71.77-2.32.52-.61 1.23-.91 2.13-.91s1.62.3 2.14.91c.52.6.78 1.38.78 2.32v.12c0 .95-.26 1.73-.78 2.33-.52.6-1.22.9-2.13.9s-1.62-.3-2.14-.9c-.52-.6-.77-1.38-.77-2.33v-.12Zm1.42.12c0 .62.12 1.12.36 1.51.24.39.61.58 1.12.58s.87-.19 1.11-.58c.25-.39.38-.89.38-1.51v-.12c0-.6-.12-1.1-.38-1.49-.25-.39-.62-.59-1.12-.59s-.87.2-1.11.59c-.24.39-.36.89-.36 1.49v.12Zm9.17-1.95-.61-.02c-.28 0-.51.06-.69.18s-.33.28-.43.5v4.41h-1.42v-6.34h1.3l.09.92c.16-.32.37-.58.62-.76s.54-.28.87-.28c.09 0 .17 0 .24.02s.14.03.21.05l-.17 1.33Zm3.99 5.18c-.9 0-1.61-.29-2.15-.88s-.8-1.34-.8-2.26v-.23c0-.92.26-1.69.79-2.29s1.19-.91 1.99-.91c.86 0 1.51.26 1.97.78s.68 1.21.68 2.08v.84h-3.96v.03c.01.5.16.91.43 1.23s.65.48 1.13.48c.38 0 .71-.05.98-.14s.54-.23.79-.4l.46.93c-.24.21-.55.39-.95.54s-.85.22-1.37.22Zm-.16-5.44c-.35 0-.64.14-.87.42s-.37.63-.42 1.06v.03h2.53v-.15c0-.4-.1-.73-.31-.98s-.51-.38-.93-.38Zm7.69 3.6c0-.22-.09-.4-.28-.54s-.54-.27-1.05-.38c-.76-.16-1.33-.39-1.72-.68s-.58-.7-.58-1.2.22-.98.67-1.36 1.04-.56 1.78-.56c.77 0 1.39.19 1.84.57s.67.85.65 1.42v.04h-1.38c0-.26-.1-.49-.3-.67s-.47-.28-.82-.28-.61.08-.79.23-.27.34-.27.57.08.4.25.53.51.25 1.03.35c.8.16 1.39.4 1.77.69s.58.71.58 1.22c0 .57-.24 1.03-.71 1.39s-1.09.53-1.86.53c-.82 0-1.47-.21-1.95-.63s-.7-.91-.68-1.45v-.04h1.34c.02.37.15.63.4.8s.55.25.91.25.65-.07.85-.21.3-.33.3-.57Zm9.08 1.84c-.9 0-1.61-.29-2.15-.88s-.8-1.34-.8-2.26v-.23c0-.92.26-1.69.79-2.29s1.19-.91 1.99-.91c.86 0 1.51.26 1.97.78s.68 1.21.68 2.08v.84h-3.96v.03c.01.5.16.91.43 1.23s.65.48 1.13.48c.38 0 .71-.05.98-.14s.54-.23.79-.4l.46.93c-.24.21-.55.39-.95.54s-.85.22-1.37.22Zm-.16-5.44c-.35 0-.64.14-.87.42s-.37.63-.42 1.06v.03h2.53v-.15c0-.4-.1-.73-.31-.98s-.51-.38-.93-.38Zm5.53-1.02.08.91c.21-.32.47-.58.78-.76s.67-.27 1.06-.27c.66 0 1.17.2 1.54.6s.55 1.02.55 1.87v3.98h-1.42v-3.97c0-.48-.1-.82-.3-1.02s-.5-.3-.9-.3c-.28 0-.53.06-.74.18s-.4.29-.54.51v4.6h-1.42v-6.34h1.3Zm10.49 0 .08.83c.21-.3.47-.53.78-.7s.67-.25 1.08-.25.77.09 1.07.28.52.47.67.84c.2-.35.45-.63.77-.83s.7-.3 1.12-.3c.64 0 1.14.22 1.51.65s.55 1.1.55 1.98v3.82h-1.42v-3.83c0-.54-.09-.92-.28-1.14s-.46-.33-.83-.33c-.3 0-.56.08-.77.25s-.36.38-.46.66v4.38h-1.42v-3.83c0-.52-.09-.89-.28-1.12s-.47-.34-.83-.34c-.29 0-.53.06-.74.17s-.36.27-.48.47v4.65h-1.42v-6.34h1.3Zm10.97-1.55h-1.42v-1.25h1.42v1.25Zm0 7.89h-1.42v-6.34h1.42v6.34Zm3.4 0h-1.42v-9.14h1.42v9.14Zm3.4 0h-1.42v-9.14h1.42v9.14Zm1.66-3.23c0-.94.26-1.71.77-2.32.52-.61 1.23-.91 2.13-.91s1.62.3 2.14.91c.52.6.78 1.38.78 2.32v.12c0 .95-.26 1.73-.78 2.33-.52.6-1.22.9-2.13.9s-1.62-.3-2.14-.9c-.52-.6-.77-1.38-.77-2.33v-.12Zm1.42.12c0 .62.12 1.12.36 1.51.24.39.61.58 1.12.58s.87-.19 1.11-.58c.25-.39.38-.89.38-1.51v-.12c0-.6-.12-1.1-.38-1.49-.25-.39-.62-.59-1.12-.59s-.87.2-1.11.59c-.24.39-.36.89-.36 1.49v.12Zm7.31-3.23.08.91c.21-.32.47-.58.78-.76s.67-.27 1.06-.27c.66 0 1.17.2 1.54.6s.55 1.02.55 1.87v3.98h-1.42v-3.97c0-.48-.1-.82-.3-1.02s-.5-.3-.9-.3c-.28 0-.53.06-.74.18s-.4.29-.54.51v4.6h-1.42v-6.34h1.3Zm8.56 6.46c-.9 0-1.61-.29-2.15-.88s-.8-1.34-.8-2.26v-.23c0-.92.26-1.69.79-2.29s1.19-.91 1.99-.91c.86 0 1.51.26 1.97.78s.68 1.21.68 2.08v.84h-3.96v.03c.01.5.16.91.43 1.23s.65.48 1.13.48c.38 0 .71-.05.98-.14s.54-.23.79-.4l.46.93c-.24.21-.55.39-.95.54s-.85.22-1.37.22Zm-.16-5.44c-.35 0-.64.14-.87.42s-.37.63-.42 1.06v.03h2.53v-.15c0-.4-.1-.73-.31-.98s-.51-.38-.93-.38Zm7.69 3.6c0-.22-.09-.4-.28-.54s-.54-.27-1.05-.38c-.76-.16-1.33-.39-1.72-.68s-.58-.7-.58-1.2.22-.98.67-1.36 1.04-.56 1.78-.56c.77 0 1.39.19 1.84.57s.67.85.65 1.42v.04h-1.38c0-.26-.1-.49-.3-.67s-.47-.28-.82-.28-.61.08-.79.23-.27.34-.27.57.08.4.25.53.51.25 1.03.35c.8.16 1.39.4 1.77.69s.58.71.58 1.22c0 .57-.24 1.03-.71 1.39s-1.09.53-1.86.53c-.82 0-1.47-.21-1.95-.63s-.7-.91-.68-1.45v-.04h1.34c.02.37.15.63.4.8s.55.25.91.25.65-.07.85-.21.3-.33.3-.57Zm6.1-1.36c0-1.01.22-1.83.65-2.45s1.04-.93 1.83-.93c.34 0 .65.07.92.21s.51.34.71.59v-3.49h1.42v9.14h-1.2l-.14-.79c-.2.3-.45.52-.73.68s-.62.23-1 .23c-.78 0-1.38-.28-1.82-.85s-.65-1.31-.65-2.23v-.12Zm1.42.12c0 .59.11 1.05.34 1.4s.58.52 1.07.52c.3 0 .56-.06.76-.19s.38-.31.51-.55v-2.77c-.13-.23-.3-.42-.52-.55s-.46-.2-.75-.2c-.48 0-.84.2-1.07.61s-.35.94-.35 1.6v.12Zm8.71 3.08c-.9 0-1.61-.29-2.15-.88s-.8-1.34-.8-2.26v-.23c0-.92.26-1.69.79-2.29s1.19-.91 1.99-.91c.86 0 1.51.26 1.97.78s.68 1.21.68 2.08v.84h-3.96v.03c.01.5.16.91.43 1.23s.65.48 1.13.48c.38 0 .71-.05.98-.14s.54-.23.79-.4l.46.93c-.24.21-.55.39-.95.54s-.85.22-1.37.22Zm-.16-5.44c-.35 0-.64.14-.87.42s-.37.63-.42 1.06v.03h2.53v-.15c0-.4-.1-.73-.31-.98s-.51-.38-.93-.38Zm13.03 2.36c0 .92-.22 1.67-.65 2.23s-1.04.85-1.81.85c-.36 0-.68-.06-.96-.19s-.52-.32-.71-.57v3.08h-1.42v-8.78h1.2l.14.8c.2-.3.45-.52.74-.68s.62-.23 1-.23c.78 0 1.39.31 1.83.93s.65 1.43.65 2.45v.12Zm-1.42-.13c0-.65-.12-1.18-.37-1.59-.24-.41-.61-.62-1.09-.62-.3 0-.55.06-.76.19s-.37.3-.5.53v2.86c.12.22.29.39.5.51s.46.18.77.18c.48 0 .85-.18 1.09-.54.24-.36.36-.83.36-1.41v-.12Zm5.74 3.21c-.9 0-1.61-.29-2.15-.88s-.8-1.34-.8-2.26v-.23c0-.92.26-1.69.79-2.29s1.19-.91 1.99-.91c.86 0 1.51.26 1.97.78s.68 1.21.68 2.08v.84h-3.96v.03c.01.5.16.91.43 1.23s.65.48 1.13.48c.38 0 .71-.05.98-.14s.54-.23.79-.4l.46.93c-.24.21-.55.39-.95.54s-.85.22-1.37.22Zm-.16-5.44c-.35 0-.64.14-.87.42s-.37.63-.42 1.06v.03h2.53v-.15c0-.4-.1-.73-.31-.98s-.51-.38-.93-.38Zm7.69 3.6c0-.22-.09-.4-.28-.54s-.54-.27-1.05-.38c-.76-.16-1.33-.39-1.72-.68s-.58-.7-.58-1.2.22-.98.67-1.36 1.04-.56 1.78-.56c.77 0 1.39.19 1.84.57s.67.85.65 1.42v.04h-1.38c0-.26-.1-.49-.3-.67s-.47-.28-.82-.28-.61.08-.79.23-.27.34-.27.57.08.4.25.53.51.25 1.03.35c.8.16 1.39.4 1.77.69s.58.71.58 1.22c0 .57-.24 1.03-.71 1.39s-1.09.53-1.86.53c-.82 0-1.47-.21-1.95-.63s-.7-.91-.68-1.45v-.04h1.34c.02.37.15.63.4.8s.55.25.91.25.65-.07.85-.21.3-.33.3-.57Zm2.72-1.51c0-.94.26-1.71.77-2.32.52-.61 1.23-.91 2.13-.91s1.62.3 2.14.91c.52.6.78 1.38.78 2.32v.12c0 .95-.26 1.73-.78 2.33-.52.6-1.22.9-2.13.9s-1.62-.3-2.14-.9c-.52-.6-.77-1.38-.77-2.33v-.12Zm1.42.12c0 .62.12 1.12.36 1.51.24.39.61.58 1.12.58s.87-.19 1.11-.58c.25-.39.38-.89.38-1.51v-.12c0-.6-.12-1.1-.38-1.49-.25-.39-.62-.59-1.12-.59s-.87.2-1.11.59c-.24.39-.36.89-.36 1.49v.12Zm9.49 1.39c0-.22-.09-.4-.28-.54s-.54-.27-1.05-.38c-.76-.16-1.33-.39-1.72-.68s-.58-.7-.58-1.2.22-.98.67-1.36 1.04-.56 1.78-.56c.77 0 1.39.19 1.84.57s.67.85.65 1.42v.04h-1.38c0-.26-.1-.49-.3-.67s-.47-.28-.82-.28-.61.08-.79.23-.27.34-.27.57.08.4.25.53.51.25 1.03.35c.8.16 1.39.4 1.77.69s.58.71.58 1.22c0 .57-.24 1.03-.71 1.39s-1.09.53-1.86.53c-.82 0-1.47-.21-1.95-.63s-.7-.91-.68-1.45v-.04h1.34c.02.37.15.63.4.8s.55.25.91.25.65-.07.85-.21.3-.33.3-.57Zm4.6 1.72h-1.42v-1.37h1.42v1.37Z"/><g style="clip-path:url(#clippath)"><path style="fill:url(#linear-gradient)" d="M93.78 101.25h350.67v57.5H93.78z"/></g><path d="M93.78 196.25h136.17m-.01 0h126m0 0h88.5m-350.66 38h136.17m-.01 0h126m0 0h88.5m-350.66 38h136.17m-.01 0h126m0 0h88.5m-350.66 38h136.17m-.01 0h126m0 0h88.5m-350.66 38h136.17m-.01 0h126m0 0h88.5m-350.66 38h136.17m-.01 0h126m0 0h88.5m-350.66 38h136.17m-.01 0h126m0 0h88.5m-350.66 38h136.17m-.01 0h126m0 0h88.5m-350.66 38h136.17m-.01 0h126m0 0h88.5" style="stroke:#00963e;stroke-miterlimit:10;stroke-width:.5px;fill:none"/><path style="fill:url(#linear-gradient-2)" d="M93.78 593.25h136.17v2H93.78"/><path style="fill:url(#linear-gradient-3)" d="M229.94 593.25h126v2h-126"/><path style="fill:url(#linear-gradient-4)" d="M355.94 593.25h88.5v2h-88.5"/><path d="M93.78 538.25h136.17m-.01 0h126m0 0h88.5" style="stroke:#43a756;stroke-miterlimit:10;stroke-width:.5px;fill:none"/><path class="cls-2" d="M108.56 139.44h-2.57v-12.8h2.57v12.8Zm5.14-9.51.11 1.36c.32-.49.71-.86 1.17-1.13s.98-.4 1.56-.4c.96 0 1.71.3 2.25.91s.81 1.55.81 2.84v5.94h-2.58v-5.95c0-.64-.13-1.09-.39-1.36s-.65-.4-1.17-.4c-.34 0-.64.07-.91.21s-.5.33-.68.59v6.92h-2.57v-9.51h2.39Zm11.37-2.33v2.33h1.6v1.8h-1.6v4.84c0 .37.08.63.23.79s.36.24.62.24c.13 0 .25 0 .35-.02s.21-.04.34-.07l.22 1.85c-.26.09-.51.15-.76.2s-.51.07-.8.07c-.88 0-1.57-.24-2.04-.73s-.72-1.26-.72-2.31v-4.85h-1.39v-1.8h1.39v-2.33h2.57Zm7.59 12.02c-1.37 0-2.47-.44-3.29-1.32s-1.23-2-1.23-3.35v-.35c0-1.41.39-2.58 1.16-3.49s1.82-1.37 3.12-1.36c1.28 0 2.28.39 2.99 1.16s1.06 1.82 1.06 3.14v1.4h-5.68l-.02.05c.05.62.26 1.14.63 1.54s.88.6 1.52.6c.57 0 1.04-.06 1.42-.17s.79-.29 1.23-.54l.69 1.59c-.39.32-.89.58-1.52.79s-1.32.31-2.09.31Zm-.23-7.89c-.47 0-.85.18-1.12.54s-.45.84-.51 1.43l.03.04h3.15v-.23c0-.54-.13-.98-.38-1.31s-.64-.49-1.16-.49Zm11.18.4-.94-.03c-.38 0-.69.08-.94.24s-.43.38-.56.67v6.42h-2.56v-9.51h2.38l.11 1.41c.22-.5.51-.89.87-1.16s.76-.42 1.23-.42c.13 0 .25.01.36.03s.22.05.33.07l-.27 2.28Zm4.26-2.2.11 1.26c.3-.46.69-.81 1.15-1.06s.99-.37 1.6-.37 1.13.13 1.56.4.76.68.98 1.22c.29-.51.67-.91 1.14-1.2s1.02-.43 1.65-.43c.94 0 1.68.32 2.22.97s.81 1.63.81 2.96v5.76h-2.57v-5.78c0-.72-.12-1.22-.35-1.51s-.58-.42-1.05-.42c-.36 0-.68.08-.95.24s-.48.39-.64.67v6.79h-2.56v-5.78c0-.7-.12-1.2-.35-1.49s-.59-.44-1.05-.44c-.35 0-.65.07-.91.2s-.48.32-.65.56v6.95h-2.56v-9.51h2.38Zm17.83 9.69c-1.37 0-2.47-.44-3.29-1.32s-1.23-2-1.23-3.35v-.35c0-1.41.39-2.58 1.16-3.49s1.82-1.37 3.12-1.36c1.28 0 2.28.39 2.99 1.16s1.06 1.82 1.06 3.14v1.4h-5.68l-.02.05c.05.62.26 1.14.63 1.54s.88.6 1.52.6c.57 0 1.04-.06 1.42-.17s.79-.29 1.23-.54l.69 1.59c-.39.32-.89.58-1.52.79s-1.32.31-2.09.31Zm-.23-7.89c-.47 0-.85.18-1.12.54s-.45.84-.51 1.43l.03.04h3.15v-.23c0-.54-.13-.98-.38-1.31s-.64-.49-1.16-.49Zm5.76 3.03c0-1.5.32-2.71.97-3.63s1.56-1.38 2.74-1.38c.47 0 .9.1 1.28.31s.71.5 1 .88v-5.21h2.58v13.71h-2.21l-.21-1.16c-.3.44-.65.77-1.06 1s-.87.34-1.4.34c-1.17 0-2.07-.43-2.72-1.28s-.97-1.99-.97-3.39v-.18Zm2.56.19c0 .84.14 1.5.42 1.98s.74.72 1.37.72c.37 0 .69-.08.97-.23s.5-.37.68-.66v-4.08c-.18-.3-.4-.54-.67-.7s-.59-.25-.95-.25c-.63 0-1.09.28-1.38.84s-.43 1.29-.43 2.19v.19Zm11.15-7.3h-2.57v-1.92h2.57v1.92Zm0 11.79h-2.57v-9.51h2.57v9.51Zm8.17 0c-.09-.22-.17-.45-.24-.69s-.12-.49-.15-.74c-.26.46-.61.85-1.04 1.15s-.95.46-1.54.46c-1 0-1.76-.26-2.3-.77s-.81-1.21-.81-2.1c0-.93.36-1.65 1.08-2.17s1.76-.77 3.14-.77h1.43v-.76c0-.46-.12-.81-.36-1.06s-.59-.38-1.06-.38c-.42 0-.74.1-.96.3s-.34.48-.34.84h-2.48v-.06c-.04-.8.31-1.5 1.05-2.08s1.71-.87 2.91-.87c1.14 0 2.06.29 2.77.87s1.06 1.4 1.06 2.47v3.93c0 .45.03.86.1 1.26s.17.78.32 1.17h-2.57Zm-2.35-1.71c.45 0 .85-.11 1.2-.33s.59-.48.71-.77v-1.34h-1.43c-.54 0-.96.14-1.24.41s-.42.6-.42.99c0 .32.11.57.32.76s.5.29.86.29Zm11.98-5.6-.94-.03c-.38 0-.69.08-.94.24s-.43.38-.56.67v6.42h-2.56v-9.51h2.38l.11 1.41c.22-.5.51-.89.87-1.16s.76-.42 1.23-.42c.13 0 .25.01.36.03s.22.05.33.07l-.27 2.28Zm4.5-4.48h-2.57v-1.92h2.57v1.92Zm0 11.79h-2.57v-9.51h2.57v9.51Zm2.17-4.85c0-1.42.4-2.58 1.19-3.48s1.89-1.36 3.29-1.36 2.51.45 3.3 1.35 1.2 2.07 1.2 3.49v.18c0 1.43-.4 2.59-1.19 3.49s-1.89 1.35-3.29 1.35-2.51-.45-3.3-1.35-1.19-2.06-1.19-3.49v-.18Zm2.56.18c0 .87.15 1.56.46 2.08.3.52.8.79 1.48.79s1.15-.26 1.45-.79c.31-.53.46-1.22.46-2.08v-.18c0-.84-.16-1.53-.47-2.06-.31-.53-.8-.8-1.47-.8s-1.15.27-1.46.8c-.31.54-.46 1.22-.46 2.06v.18Zm58.42-8.13 3.26 9.43h.05l3.29-9.43h3.36v12.8h-2.57v-3.81l.25-5.65h-.05l-3.43 9.47h-1.72l-3.41-9.44h-.05l.25 5.62v3.81h-2.57v-12.8h3.35Zm12.24 7.95c0-1.42.4-2.58 1.19-3.48s1.89-1.36 3.29-1.36 2.51.45 3.3 1.35 1.2 2.07 1.2 3.49v.18c0 1.43-.4 2.59-1.19 3.49s-1.89 1.35-3.29 1.35-2.51-.45-3.3-1.35-1.19-2.06-1.19-3.49v-.18Zm2.56.18c0 .87.15 1.56.46 2.08.3.52.8.79 1.48.79s1.15-.26 1.45-.79c.31-.53.46-1.22.46-2.08v-.18c0-.84-.16-1.53-.47-2.06-.31-.53-.8-.8-1.47-.8s-1.15.27-1.46.8c-.31.54-.46 1.22-.46 2.06v.18Zm10.86-4.84.11 1.36c.32-.49.71-.86 1.17-1.13s.98-.4 1.56-.4c.96 0 1.71.3 2.25.91s.81 1.55.81 2.84v5.94h-2.58v-5.95c0-.64-.13-1.09-.39-1.36s-.65-.4-1.17-.4c-.34 0-.64.07-.91.21s-.5.33-.68.59v6.92h-2.57v-9.51h2.39Zm11.37-2.33v2.33h1.6v1.8h-1.6v4.84c0 .37.08.63.23.79s.36.24.62.24c.13 0 .25 0 .35-.02s.21-.04.34-.07l.22 1.85c-.26.09-.51.15-.76.2s-.51.07-.8.07c-.88 0-1.57-.24-2.04-.73s-.72-1.26-.72-2.31v-4.85h-1.39v-1.8h1.39v-2.33h2.57Zm3.02 6.99c0-1.42.4-2.58 1.19-3.48s1.89-1.36 3.29-1.36 2.51.45 3.3 1.35 1.2 2.07 1.2 3.49v.18c0 1.43-.4 2.59-1.19 3.49s-1.89 1.35-3.29 1.35-2.51-.45-3.3-1.35-1.19-2.06-1.19-3.49v-.18Zm2.56.18c0 .87.15 1.56.46 2.08.3.52.8.79 1.48.79s1.15-.26 1.45-.79c.31-.53.46-1.22.46-2.08v-.18c0-.84-.16-1.53-.47-2.06-.31-.53-.8-.8-1.47-.8s-1.15.27-1.46.8c-.31.54-.46 1.22-.46 2.06v.18Zm60.67-5.67c0-.76.25-1.39.73-1.89s1.17-.76 2.04-.76 1.57.25 2.06.75.73 1.13.73 1.89v.68c0 .76-.24 1.38-.73 1.88s-1.17.75-2.04.75-1.56-.25-2.06-.75-.74-1.12-.74-1.88v-.68Zm1.71.68c0 .34.09.63.28.86s.46.35.81.35.6-.12.79-.35.28-.52.28-.86v-.68c0-.34-.09-.63-.28-.87s-.45-.36-.8-.36-.61.12-.79.36-.28.53-.28.87v.68Zm1.51 8.7-1.25-.66 6.25-10 1.25.66-6.25 10Zm2.9-2.18c0-.75.25-1.38.74-1.88s1.17-.76 2.05-.76 1.56.25 2.05.75.73 1.13.73 1.89v.68c0 .76-.24 1.39-.73 1.89s-1.17.75-2.04.75-1.57-.25-2.06-.75-.74-1.13-.74-1.89v-.68Zm1.71.68c0 .33.1.62.3.86s.47.36.79.36c.38 0 .65-.11.82-.33s.25-.51.25-.88v-.68c0-.33-.09-.62-.28-.86s-.45-.36-.8-.36-.62.12-.8.36-.28.52-.28.86v.68Zm13.94-2.19v4.64h-2.57v-12.8h5.1c1.47 0 2.63.38 3.47 1.12s1.27 1.74 1.27 2.96-.42 2.21-1.27 2.95-2 1.12-3.47 1.12h-2.53Zm0-1.98h2.53c.71 0 1.26-.19 1.63-.58s.55-.89.55-1.49-.18-1.12-.55-1.52-.91-.6-1.63-.6h-2.53v4.2Zm14.84 6.63c-.09-.22-.17-.45-.24-.69s-.12-.49-.15-.74c-.26.46-.61.85-1.04 1.15s-.95.46-1.54.46c-1 0-1.76-.26-2.3-.77s-.81-1.21-.81-2.1c0-.93.36-1.65 1.08-2.17s1.76-.77 3.14-.77h1.43v-.76c0-.46-.12-.81-.36-1.06s-.59-.38-1.06-.38c-.42 0-.74.1-.96.3s-.34.48-.34.84h-2.48v-.06c-.04-.8.31-1.5 1.05-2.08s1.71-.87 2.91-.87c1.14 0 2.06.29 2.77.87s1.06 1.4 1.06 2.47v3.93c0 .45.03.86.1 1.26s.17.78.32 1.17h-2.57Zm-2.35-1.71c.45 0 .85-.11 1.2-.33s.59-.48.71-.77v-1.34h-1.43c-.54 0-.96.14-1.24.41s-.42.6-.42.99c0 .32.11.57.32.76s.5.29.86.29Zm11.96-5.6-.94-.03c-.38 0-.69.08-.94.24s-.43.38-.56.67v6.42h-2.56v-9.51h2.38l.11 1.41c.22-.5.51-.89.87-1.16s.76-.42 1.23-.42c.13 0 .25.01.36.03s.22.05.33.07l-.27 2.28Zm5.37-4.53v2.33h1.6v1.8h-1.6v4.84c0 .37.08.63.23.79s.36.24.62.24c.13 0 .25 0 .35-.02s.21-.04.34-.07l.22 1.85c-.26.09-.51.15-.76.2s-.51.07-.8.07c-.88 0-1.57-.24-2.04-.73s-.72-1.26-.72-2.31v-4.85h-1.39v-1.8h1.39v-2.33h2.57Z"/><path class="cls-3" d="M105.9 180.79h-4.98v4.85h-1.9v-11.38h7.68v1.52h-5.78v3.48h4.98v1.52Zm4.45-5.68h-1.9v-1.66h1.9v1.66Zm0 10.52h-1.9v-8.45h1.9v8.45Zm4.12-8.45.11 1.22c.28-.43.62-.77 1.04-1.01.42-.24.89-.36 1.42-.36.88 0 1.57.27 2.06.8s.74 1.37.74 2.5v5.31h-1.9v-5.3c0-.64-.13-1.09-.39-1.36s-.66-.4-1.2-.4c-.37 0-.7.08-.99.25-.29.16-.53.39-.72.68v6.13h-1.9v-8.45h1.73Zm7.33 4.35c0-1.35.29-2.44.87-3.26.58-.83 1.39-1.24 2.44-1.24.46 0 .87.09 1.23.28.36.19.68.45.94.79v-4.65h1.9v12.19h-1.59l-.19-1.05c-.27.4-.6.7-.98.9-.38.21-.82.31-1.33.31-1.04 0-1.84-.38-2.42-1.13-.58-.75-.87-1.75-.87-2.98v-.16Zm1.9.16c0 .78.15 1.4.45 1.87.3.46.77.7 1.43.7.4 0 .74-.09 1.02-.26s.51-.42.68-.73v-3.69c-.18-.31-.41-.56-.69-.73-.28-.17-.62-.26-1-.26-.65 0-1.12.27-1.43.82-.31.54-.46 1.25-.46 2.13v.16Zm11.41 4.11c-1.2 0-2.15-.39-2.86-1.18-.71-.78-1.07-1.79-1.07-3.02v-.31c0-1.23.35-2.25 1.06-3.06.71-.81 1.59-1.21 2.65-1.21 1.14 0 2.01.35 2.62 1.04.61.69.91 1.62.91 2.78v1.12h-5.27l-.02.04c.03.67.23 1.22.59 1.64.36.43.86.64 1.5.64.51 0 .95-.06 1.31-.19s.72-.3 1.05-.54l.61 1.25c-.32.28-.74.52-1.27.71s-1.14.29-1.83.29Zm-.22-7.25c-.47 0-.85.19-1.16.56-.3.37-.49.85-.56 1.42l.02.04h3.35v-.2c0-.54-.14-.97-.41-1.31-.27-.34-.69-.51-1.24-.51Zm7.79-3.42v2.05h1.52v1.41h-1.52v4.67c0 .35.08.6.23.75s.35.22.6.22c.1 0 .21 0 .3-.03.1-.02.19-.04.28-.07l.2 1.39c-.16.09-.35.16-.58.21-.22.05-.46.07-.7.07-.7 0-1.25-.2-1.64-.61-.4-.41-.59-1.05-.59-1.93v-4.67h-1.29v-1.41h1.29v-2.05h1.89Zm6.78 10.67c-1.2 0-2.15-.39-2.86-1.18-.71-.78-1.07-1.79-1.07-3.02v-.31c0-1.23.35-2.25 1.06-3.06.71-.81 1.59-1.21 2.65-1.21 1.14 0 2.01.35 2.62 1.04.61.69.91 1.62.91 2.78v1.12h-5.27l-.02.04c.03.67.23 1.22.59 1.64.36.43.86.64 1.5.64.51 0 .95-.06 1.31-.19s.72-.3 1.05-.54l.61 1.25c-.32.28-.74.52-1.27.71s-1.14.29-1.83.29Zm-.22-7.25c-.47 0-.85.19-1.16.56-.3.37-.49.85-.56 1.42l.02.04h3.35v-.2c0-.54-.14-.97-.41-1.31-.27-.34-.69-.51-1.24-.51Zm9.69.35-.81-.03c-.37 0-.68.08-.93.23s-.44.38-.57.66v5.88h-1.9v-8.45h1.73l.12 1.23c.21-.43.49-.77.82-1.02.34-.24.72-.37 1.16-.37.11 0 .22 0 .32.03.1.02.19.04.27.07l-.23 1.77Zm93.31 6.79h-.94v-10.45l-2.89.34v-.66l3.83-.69v11.46Zm5.24-.05h-1.07v-1.28h1.07v1.28Zm8.48-3.67h1.78v.8h-1.78v2.87h-.93v-2.87h-5.34v-.54l5.24-7.97h1.02v7.71Zm-5.16 0h4.23v-6.48l-.05-.02-.4.85-3.78 5.65Zm12.96-7.87c.39 0 .78.04 1.16.13.38.09.72.22 1.02.38l-.24.77c-.3-.17-.59-.29-.88-.37-.29-.08-.64-.12-1.05-.12-.84 0-1.54.33-2.1.98s-.83 1.52-.83 2.59v1.01c.31-.41.71-.73 1.2-.98.48-.24 1.02-.37 1.61-.37 1.02 0 1.83.35 2.42 1.05s.89 1.62.89 2.75-.32 2.04-.96 2.77c-.64.73-1.47 1.09-2.49 1.09s-1.91-.39-2.59-1.17-1.02-1.85-1.02-3.21v-2.87c0-1.31.37-2.38 1.12-3.21.74-.83 1.66-1.24 2.75-1.24Zm-.31 4.8c-.63 0-1.18.16-1.65.49-.47.33-.79.75-.96 1.26v.83c0 1.09.25 1.95.75 2.57.5.63 1.14.94 1.92.94s1.37-.3 1.82-.89c.46-.6.68-1.32.68-2.18 0-.91-.22-1.64-.66-2.2-.44-.56-1.08-.83-1.9-.83Zm6.02 1.59.63-6.23h5.52v.87h-4.73l-.42 4.05c.29-.26.6-.46.95-.6s.81-.22 1.4-.23c.97-.02 1.75.31 2.34.98.59.67.89 1.56.89 2.69s-.29 2.07-.86 2.76c-.58.69-1.44 1.03-2.6 1.03-.94 0-1.72-.26-2.34-.79s-.92-1.3-.9-2.32l.02-.05h.84c0 .76.22 1.35.65 1.75.43.41 1.01.61 1.74.61.84 0 1.47-.25 1.89-.76.42-.51.63-1.25.63-2.22 0-.85-.21-1.53-.63-2.04-.42-.51-1.01-.77-1.76-.77s-1.29.12-1.67.35c-.38.23-.66.58-.83 1.05l-.76-.12Zm10.15 5.15h-1.07v-1.28h1.07v1.28Zm5.34-.64c.86 0 1.55-.29 2.06-.86.51-.58.77-1.4.77-2.48v-1.14c-.28.48-.65.85-1.11 1.11-.47.26-.99.39-1.56.39-1.04 0-1.87-.36-2.5-1.08s-.95-1.65-.95-2.79.33-2.11 1-2.89c.66-.78 1.49-1.16 2.46-1.16 1.1 0 1.98.36 2.64 1.07.66.72.99 1.76.99 3.12v3.35c0 1.32-.35 2.34-1.05 3.07-.7.73-1.62 1.09-2.75 1.09-.41 0-.81-.04-1.22-.12-.41-.08-.8-.2-1.17-.36l.17-.78c.35.17.7.29 1.05.36.35.07.74.11 1.17.11Zm.16-3.78c.68 0 1.24-.17 1.7-.52.46-.35.78-.77.97-1.28v-1.2c0-1.08-.24-1.9-.71-2.47-.47-.57-1.11-.85-1.92-.85-.73 0-1.34.32-1.82.95s-.71 1.4-.71 2.3.22 1.6.67 2.19c.45.59 1.05.88 1.81.88Zm8.33-1.78h1.09c.83 0 1.46-.21 1.88-.62.43-.41.64-.95.64-1.6 0-.71-.2-1.27-.6-1.7-.4-.42-1-.63-1.79-.63-.73 0-1.33.21-1.79.64-.47.43-.7 1-.7 1.7h-.88l-.02-.05c-.03-.89.28-1.62.93-2.21.65-.59 1.46-.88 2.45-.88s1.82.28 2.43.84c.6.56.9 1.33.9 2.32 0 .54-.17 1.04-.5 1.51-.33.47-.8.82-1.41 1.05.71.2 1.24.55 1.59 1.03.35.48.53 1.05.53 1.71 0 1.01-.33 1.8-.98 2.38-.65.58-1.49.87-2.52.87s-1.85-.28-2.56-.85c-.71-.56-1.06-1.35-1.03-2.36l.02-.05h.88c0 .72.25 1.31.75 1.77.5.46 1.15.69 1.95.69s1.44-.21 1.89-.63c.45-.42.68-1.02.68-1.8s-.24-1.38-.71-1.77c-.47-.38-1.15-.57-2.03-.57h-1.09v-.8Zm13.99-4.38c-1.23 1.46-2.17 2.94-2.82 4.44-.65 1.5-1.09 3.23-1.3 5.18l-.09.95h-.94l.09-.95c.22-1.93.67-3.67 1.36-5.23.69-1.56 1.6-3.02 2.73-4.39h-6.49v-.8h7.46v.8Zm58.65 4.38h1.09c.83 0 1.46-.21 1.88-.62s.64-.95.64-1.6c0-.71-.2-1.27-.6-1.7s-1-.63-1.79-.63c-.73 0-1.33.21-1.79.64s-.7 1-.7 1.7h-.88l-.02-.05c-.03-.89.28-1.62.93-2.21.65-.59 1.46-.88 2.45-.88s1.82.28 2.43.84c.6.56.9 1.33.9 2.32 0 .54-.17 1.04-.5 1.51-.33.47-.8.82-1.41 1.05.71.2 1.24.55 1.59 1.03.35.48.53 1.05.53 1.71 0 1.01-.33 1.8-.98 2.38s-1.49.87-2.52.87-1.85-.28-2.56-.85c-.71-.56-1.06-1.35-1.03-2.36l.02-.05h.88c0 .72.25 1.31.75 1.77.5.46 1.15.69 1.95.69s1.44-.21 1.89-.63c.45-.42.68-1.02.68-1.8s-.24-1.38-.71-1.77c-.47-.38-1.15-.57-2.03-.57h-1.09v-.8Zm14.01-4.38c-1.23 1.46-2.17 2.94-2.82 4.44-.65 1.5-1.09 3.23-1.3 5.18l-.09.95h-.94l.09-.95c.22-1.93.67-3.67 1.36-5.23.69-1.56 1.6-3.02 2.73-4.39h-6.49v-.8h7.46v.8Zm1.67 10.44-.83 2.16h-.64l.54-2.18v-1.3h.93v1.33Zm8.77-10.44c-1.23 1.46-2.17 2.94-2.82 4.44-.65 1.5-1.09 3.23-1.3 5.18l-.09.95h-.94l.09-.95c.22-1.93.67-3.67 1.36-5.23.69-1.56 1.6-3.02 2.73-4.39h-6.49v-.8h7.46v.8Zm6.5 1.39c0-.66.2-1.22.61-1.67.41-.45.95-.68 1.61-.68s1.2.23 1.61.68c.41.45.61 1.01.61 1.67v.6c0 .66-.2 1.21-.61 1.66-.41.45-.94.68-1.59.68s-1.21-.23-1.62-.68c-.41-.45-.62-1-.62-1.66v-.6Zm.75.6c0 .46.13.85.39 1.17.26.32.63.48 1.11.48s.82-.16 1.07-.48c.25-.32.38-.71.38-1.17v-.6c0-.46-.13-.85-.38-1.18-.26-.33-.62-.49-1.09-.49s-.83.16-1.09.49-.39.72-.39 1.18v.6Zm1.98 7.64-.58-.38 5.55-8.89.58.38-5.55 8.89Zm2.98-1.84c0-.66.2-1.21.61-1.66.41-.45.95-.68 1.61-.68s1.2.23 1.61.68c.41.45.62 1.01.62 1.66v.61c0 .66-.21 1.21-.61 1.66-.41.45-.94.68-1.6.68s-1.21-.23-1.62-.68c-.41-.45-.62-1-.62-1.66v-.61Zm.76.61c0 .46.13.85.38 1.17.25.32.62.48 1.1.48s.82-.16 1.07-.48c.25-.32.38-.71.38-1.17v-.61c0-.47-.13-.87-.38-1.19-.26-.32-.62-.48-1.09-.48s-.83.16-1.09.48c-.26.32-.38.71-.38 1.18v.61ZM99.02 223.64v-11.38h3.78c1.26 0 2.24.26 2.95.78s1.06 1.29 1.06 2.32c0 .52-.15.98-.45 1.38s-.71.71-1.23.91c.68.15 1.2.48 1.56.98.36.5.55 1.08.55 1.74 0 1.07-.35 1.88-1.05 2.43-.7.55-1.66.83-2.89.83h-4.29Zm1.9-6.59h2.09c.59 0 1.05-.14 1.39-.42.34-.28.51-.67.51-1.18 0-.56-.18-.98-.54-1.25s-.89-.41-1.58-.41h-1.88v3.27Zm0 1.41v3.65h2.39c.66 0 1.16-.15 1.52-.45.35-.3.53-.73.53-1.3 0-.6-.15-1.07-.45-1.4s-.76-.5-1.39-.5h-2.6Zm13.48 5.18c-.07-.21-.12-.42-.17-.62-.04-.2-.07-.41-.09-.61-.26.4-.6.73-1.03 1-.42.27-.9.4-1.43.4-.88 0-1.56-.23-2.03-.68-.47-.45-.71-1.08-.71-1.87s.32-1.45.97-1.91c.65-.46 1.55-.68 2.73-.68h1.48v-.74c0-.44-.13-.79-.39-1.04s-.63-.38-1.12-.38c-.43 0-.78.1-1.03.31a.98.98 0 0 0-.38.8h-1.83v-.05c-.04-.67.25-1.26.89-1.77s1.46-.77 2.47-.77 1.78.25 2.38.75c.6.5.91 1.22.91 2.16v3.76c0 .35.02.68.07 1s.12.63.23.94h-1.92Zm-2.33-1.36c.48 0 .91-.12 1.29-.36s.64-.51.76-.82v-1.25h-1.51c-.55 0-.98.14-1.3.41s-.47.6-.47.96c0 .32.11.58.32.77.21.19.51.29.9.29Zm8-7.1.11 1.22c.28-.43.62-.77 1.04-1.01.42-.24.89-.36 1.42-.36.88 0 1.57.27 2.06.8s.74 1.37.74 2.5v5.31h-1.9v-5.3c0-.64-.13-1.09-.39-1.36s-.66-.4-1.2-.4c-.37 0-.7.08-.99.25-.29.16-.53.39-.72.68v6.13h-1.9v-8.45h1.73Zm11.16 7.1c.46 0 .85-.14 1.17-.41s.48-.61.48-1.02h1.72l.02.05c.03.79-.3 1.47-.96 2.05-.67.57-1.48.86-2.42.86-1.25 0-2.2-.4-2.86-1.2-.66-.8-1-1.82-1-3.05v-.27c0-1.22.33-2.24 1-3.04s1.62-1.21 2.86-1.21c1.02 0 1.84.3 2.47.89.63.59.94 1.34.92 2.25l-.02.05h-1.73c0-.46-.15-.86-.46-1.18-.3-.32-.7-.48-1.19-.48-.71 0-1.22.26-1.52.78s-.45 1.17-.45 1.95v.27c0 .8.15 1.45.45 1.96.3.51.8.77 1.52.77Zm4.89-2.95c0-1.25.34-2.29 1.03-3.09.7-.81 1.64-1.21 2.84-1.21s2.16.4 2.85 1.21c.69.8 1.04 1.83 1.04 3.09v.16c0 1.27-.35 2.31-1.04 3.11-.69.8-1.63 1.2-2.84 1.2s-2.16-.4-2.85-1.2c-.69-.8-1.03-1.84-1.03-3.1v-.16Zm1.9.16c0 .82.16 1.49.48 2.01.32.52.82.77 1.5.77s1.16-.26 1.48-.77c.33-.52.5-1.19.5-2.01v-.16c0-.81-.17-1.47-.5-1.99-.33-.53-.83-.79-1.5-.79s-1.16.26-1.48.79c-.32.53-.48 1.19-.48 1.99v.16Zm9.78 4.15h-1.9v-12.19h1.9v12.19Zm2.03-4.31c0-1.25.34-2.29 1.03-3.09.7-.81 1.64-1.21 2.84-1.21s2.16.4 2.85 1.21c.69.8 1.04 1.83 1.04 3.09v.16c0 1.27-.35 2.31-1.04 3.11-.69.8-1.63 1.2-2.84 1.2s-2.16-.4-2.85-1.2c-.69-.8-1.03-1.84-1.03-3.1v-.16Zm1.9.16c0 .82.16 1.49.48 2.01.32.52.82.77 1.5.77s1.16-.26 1.48-.77c.33-.52.5-1.19.5-2.01v-.16c0-.81-.17-1.47-.5-1.99-.33-.53-.83-.79-1.5-.79s-1.16.26-1.48.79c-.32.53-.48 1.19-.48 1.99v.16Zm9.57-4.31.1 1.1c.28-.4.62-.71 1.04-.93s.9-.33 1.45-.33 1.03.12 1.42.38.69.62.89 1.12c.26-.47.6-.84 1.03-1.1s.93-.4 1.5-.4c.85 0 1.52.29 2.01.87.49.58.74 1.46.74 2.64v5.09h-1.9v-5.1c0-.72-.12-1.22-.37-1.52-.25-.29-.62-.44-1.11-.44-.41 0-.75.11-1.03.33s-.48.51-.61.88v5.84h-1.9v-5.1c0-.69-.13-1.19-.38-1.5s-.62-.46-1.11-.46c-.39 0-.71.07-.98.22s-.48.36-.64.63v6.2h-1.9v-8.45h1.73Zm19.92 4.51c0 1.23-.29 2.23-.86 2.98-.58.75-1.39 1.13-2.43 1.13-.53 0-.98-.11-1.37-.32-.39-.21-.71-.53-.97-.94l-.19 1.09h-1.59v-12.19h1.9v4.7c.26-.36.57-.64.94-.83.36-.19.79-.29 1.27-.29 1.06 0 1.87.41 2.45 1.23.58.82.86 1.91.86 3.27v.16Zm-1.9-.16c0-.88-.15-1.59-.45-2.13-.3-.54-.78-.81-1.44-.81-.42 0-.78.09-1.06.28-.28.19-.51.45-.68.78v3.55c.16.34.38.6.67.79.29.19.65.28 1.08.28.66 0 1.13-.23 1.43-.69s.45-1.08.45-1.87v-.16Zm5.87-6.42h-1.9v-1.66h1.9v1.66Zm0 10.52h-1.9v-8.45h1.9v8.45Zm7.43.01c-.07-.21-.12-.42-.17-.62s-.07-.41-.09-.61c-.26.4-.6.73-1.03 1s-.9.4-1.43.4c-.88 0-1.56-.23-2.03-.68s-.71-1.08-.71-1.87.32-1.45.97-1.91c.65-.46 1.55-.68 2.73-.68h1.48v-.74c0-.44-.13-.79-.39-1.04s-.63-.38-1.12-.38c-.43 0-.78.1-1.03.31s-.38.48-.38.8h-1.83v-.05c-.04-.67.25-1.26.89-1.77s1.46-.77 2.47-.77 1.78.25 2.38.75.91 1.22.91 2.16v3.76c0 .35.02.68.07 1s.12.63.23.94h-1.92Zm-2.33-1.36c.48 0 .91-.12 1.29-.36s.64-.51.76-.82v-1.25h-1.51c-.55 0-.98.14-1.3.41s-.47.6-.47.96c0 .32.11.58.32.77.21.19.51.29.9.29Zm64.44-7.09c0 .61-.18 1.15-.54 1.61s-.84.8-1.44 1c.69.21 1.25.57 1.67 1.07.42.5.63 1.08.63 1.75 0 1.02-.34 1.81-1.02 2.36-.68.55-1.56.82-2.63.82s-1.98-.27-2.65-.82-1.01-1.33-1.01-2.36c0-.67.21-1.26.62-1.75.41-.5.96-.85 1.66-1.07-.6-.21-1.07-.54-1.43-1-.35-.46-.53-.99-.53-1.61 0-.98.31-1.74.93-2.28.62-.54 1.42-.81 2.4-.81s1.78.27 2.41.82c.63.54.94 1.3.94 2.28Zm-.62 5.43c0-.72-.26-1.3-.78-1.75s-1.17-.67-1.95-.67-1.44.23-1.95.67-.77 1.03-.77 1.75.25 1.33.76 1.75c.5.42 1.16.63 1.98.63s1.44-.21 1.95-.64.77-1 .77-1.74Zm-.32-5.44c0-.66-.23-1.2-.69-1.64-.46-.43-1.04-.65-1.72-.65s-1.28.21-1.73.62c-.45.42-.67.97-.67 1.66s.23 1.21.68 1.61c.45.4 1.03.61 1.74.61s1.27-.2 1.72-.61c.45-.4.68-.94.68-1.61Zm7.34 8.51h-.94v-10.45l-2.89.34v-.66l3.83-.69v11.46Zm10.69-8.5c0 .61-.18 1.15-.54 1.61s-.84.8-1.44 1c.69.21 1.25.57 1.67 1.07.42.5.63 1.08.63 1.75 0 1.02-.34 1.81-1.02 2.36-.68.55-1.56.82-2.63.82s-1.98-.27-2.65-.82c-.67-.55-1.01-1.33-1.01-2.36 0-.67.21-1.26.62-1.75.41-.5.96-.85 1.66-1.07-.6-.21-1.07-.54-1.43-1-.35-.46-.53-.99-.53-1.61 0-.98.31-1.74.93-2.28.62-.54 1.42-.81 2.4-.81s1.78.27 2.41.82c.63.54.94 1.3.94 2.28Zm-.62 5.43c0-.72-.26-1.3-.78-1.75-.52-.45-1.17-.67-1.95-.67s-1.44.23-1.95.67c-.51.45-.77 1.03-.77 1.75s.25 1.33.76 1.75c.5.42 1.16.63 1.98.63s1.44-.21 1.95-.64c.51-.42.77-1 .77-1.74Zm-.32-5.44c0-.66-.23-1.2-.69-1.64-.46-.43-1.04-.65-1.72-.65s-1.28.21-1.73.62c-.45.42-.67.97-.67 1.66s.22 1.21.68 1.61c.45.4 1.03.61 1.74.61s1.27-.2 1.72-.61c.45-.4.68-.94.68-1.61Zm4.83 8.46h-1.07v-1.28h1.07v1.28Zm3.04-5.15.63-6.23h5.52v.87h-4.73l-.42 4.05c.29-.26.6-.46.95-.6s.81-.22 1.4-.23c.97-.02 1.75.31 2.34.98.59.67.89 1.56.89 2.69s-.29 2.07-.86 2.76c-.58.69-1.44 1.03-2.6 1.03-.94 0-1.72-.26-2.34-.79s-.92-1.3-.9-2.32l.02-.05h.84c0 .76.22 1.35.65 1.75.43.41 1.01.61 1.74.61.84 0 1.47-.25 1.89-.76.42-.51.63-1.25.63-2.22 0-.85-.21-1.53-.63-2.04-.42-.51-1.01-.77-1.76-.77s-1.29.12-1.67.35c-.38.23-.66.58-.83 1.05l-.76-.12Zm15.62 5.15h-7.06v-.73l3.73-4.22c.69-.78 1.17-1.43 1.46-1.95s.43-1.02.43-1.5c0-.71-.2-1.28-.6-1.7-.4-.43-.96-.64-1.69-.64-.86 0-1.52.24-1.97.72-.45.48-.67 1.12-.67 1.92h-.87l-.02-.05c-.03-.95.28-1.75.92-2.41s1.51-.98 2.6-.98c.98 0 1.76.28 2.35.84s.88 1.32.88 2.27c0 .62-.2 1.26-.59 1.9-.39.64-.94 1.36-1.64 2.15l-3.13 3.54.02.04h5.86v.8Zm5.98.05h-.94v-10.45l-2.89.34v-.66l3.83-.69v11.46Zm80.73-.05h-7.06v-.73l3.73-4.22c.69-.78 1.17-1.43 1.46-1.95s.43-1.02.43-1.5c0-.71-.2-1.28-.6-1.7-.4-.43-.96-.64-1.69-.64-.86 0-1.52.24-1.97.72-.45.48-.67 1.12-.67 1.92h-.87l-.02-.05c-.03-.95.28-1.75.92-2.41s1.51-.98 2.6-.98c.98 0 1.76.28 2.35.84s.88 1.32.88 2.27c0 .62-.2 1.26-.59 1.9-.39.64-.94 1.36-1.64 2.15l-3.13 3.54.02.04h5.86v.8Zm5.98.05h-.94v-10.45l-2.89.34v-.66l3.83-.69v11.46Zm5.03-.19-.83 2.16h-.64l.54-2.18v-1.3h.93v1.33Zm5.37.19h-.94v-10.45l-2.89.34v-.66l3.83-.69v11.46Zm9.26-9.24c0-.66.2-1.22.61-1.67.41-.45.95-.68 1.61-.68s1.2.23 1.61.68c.41.45.61 1.01.61 1.67v.6c0 .66-.2 1.21-.61 1.66-.41.45-.94.68-1.59.68s-1.21-.23-1.62-.68c-.41-.45-.62-1-.62-1.66v-.6Zm.75.6c0 .46.13.85.39 1.17.26.32.63.48 1.11.48s.82-.16 1.07-.48c.25-.32.38-.71.38-1.17v-.6c0-.46-.13-.85-.38-1.18-.26-.33-.62-.49-1.09-.49s-.83.16-1.09.49-.39.72-.39 1.18v.6Zm1.98 7.64-.58-.38 5.55-8.89.58.38-5.55 8.89Zm2.98-1.84c0-.66.2-1.21.61-1.66.41-.45.95-.68 1.61-.68s1.2.23 1.61.68c.41.45.62 1.01.62 1.66v.61c0 .66-.21 1.21-.61 1.66-.41.45-.94.68-1.6.68s-1.21-.23-1.62-.68c-.41-.45-.62-1-.62-1.66v-.61Zm.76.61c0 .46.13.85.38 1.17.25.32.62.48 1.1.48s.82-.16 1.07-.48c.25-.32.38-.71.38-1.17v-.61c0-.47-.13-.87-.38-1.19-.26-.32-.62-.48-1.09-.48s-.83.16-1.09.48c-.26.32-.38.71-.38 1.18v.61ZM99.02 261.64v-11.38h3.69c1.44 0 2.62.45 3.52 1.35.9.9 1.36 2.06 1.36 3.48v1.73c0 1.42-.45 2.58-1.36 3.48-.9.9-2.08 1.34-3.52 1.34h-3.69Zm1.9-9.85v8.33h1.73c.94 0 1.68-.31 2.22-.92.54-.61.81-1.41.81-2.38v-1.74c0-.96-.27-1.75-.81-2.37-.54-.61-1.28-.92-2.22-.92h-1.73Zm13.68 9.85c-.07-.21-.12-.42-.17-.62s-.07-.41-.09-.61c-.26.4-.6.73-1.03 1s-.9.4-1.43.4c-.88 0-1.56-.23-2.03-.68s-.71-1.08-.71-1.87.32-1.45.97-1.91c.65-.46 1.55-.68 2.73-.68h1.48v-.74c0-.44-.13-.79-.39-1.04s-.63-.38-1.12-.38c-.43 0-.78.1-1.03.31s-.38.48-.38.8h-1.83v-.05c-.04-.67.25-1.26.89-1.77s1.46-.77 2.47-.77 1.78.25 2.38.75.91 1.22.91 2.16v3.76c0 .35.02.68.07 1s.12.63.23.94h-1.92Zm-2.33-1.36c.48 0 .91-.12 1.29-.36s.64-.51.76-.82v-1.25h-1.51c-.55 0-.98.14-1.3.41s-.47.6-.47.96c0 .32.11.58.32.77.21.19.51.29.9.29Zm8.89-1.5.14.69h.05l.15-.69 1.68-5.59h1.96l-3 8.45h-1.65l-3.02-8.45h1.96l1.73 5.59Zm7.48-7.67h-1.9v-1.66h1.9v1.66Zm0 10.52h-1.9v-8.45h1.9v8.45Zm5.32-2.85.14.69h.05l.15-.69 1.68-5.59h1.96l-3 8.45h-1.65l-3.02-8.45h1.96l1.73 5.59Zm7.48-7.67h-1.9v-1.66h1.9v1.66Zm0 10.52h-1.9v-8.45h1.9v8.45Zm6.01.17c-1.2 0-2.15-.39-2.86-1.18-.71-.78-1.07-1.79-1.07-3.02v-.31c0-1.23.35-2.25 1.06-3.06.71-.81 1.59-1.21 2.65-1.21 1.14 0 2.01.35 2.62 1.04.61.69.91 1.62.91 2.78v1.12h-5.27l-.02.04c.03.67.23 1.22.59 1.64.36.43.86.64 1.5.64.51 0 .95-.06 1.31-.19s.72-.3 1.05-.54l.61 1.25c-.32.28-.74.52-1.27.71s-1.14.29-1.83.29Zm-.22-7.25c-.47 0-.85.19-1.16.56-.3.37-.49.85-.56 1.42l.02.04h3.35v-.2c0-.54-.14-.97-.41-1.31-.27-.34-.69-.51-1.24-.51Zm7.2-1.37.11 1.22c.28-.43.62-.77 1.04-1.01s.89-.36 1.42-.36c.88 0 1.57.27 2.06.8s.74 1.37.74 2.5v5.31h-1.9v-5.3c0-.64-.13-1.09-.39-1.36s-.66-.4-1.2-.4c-.37 0-.7.08-.99.25s-.53.39-.72.68v6.13h-1.9v-8.45h1.73Zm7.33 4.35c0-1.35.29-2.44.87-3.26.58-.83 1.39-1.24 2.44-1.24.46 0 .87.09 1.23.28.36.19.68.45.94.79v-4.65h1.9v12.19h-1.59l-.19-1.05c-.27.4-.6.7-.98.9s-.82.31-1.33.31c-1.04 0-1.84-.38-2.42-1.13-.58-.75-.87-1.75-.87-2.98v-.16Zm1.9.16c0 .78.15 1.4.45 1.87.3.46.77.7 1.43.7.4 0 .74-.09 1.02-.26s.51-.42.68-.73v-3.69c-.18-.31-.41-.56-.69-.73-.28-.17-.61-.26-1-.26-.65 0-1.12.27-1.43.82-.31.54-.46 1.25-.46 2.13v.16Zm12.87 3.95c-.07-.21-.12-.42-.17-.62-.04-.2-.07-.41-.09-.61-.26.4-.6.73-1.03 1-.42.27-.9.4-1.43.4-.88 0-1.56-.23-2.03-.68-.47-.45-.71-1.08-.71-1.87s.32-1.45.97-1.91c.65-.46 1.55-.68 2.73-.68h1.48v-.74c0-.44-.13-.79-.39-1.04s-.63-.38-1.12-.38c-.43 0-.78.1-1.03.31a.98.98 0 0 0-.38.8h-1.83v-.05c-.04-.67.25-1.26.89-1.77s1.46-.77 2.47-.77 1.78.25 2.38.75c.6.5.91 1.22.91 2.16v3.76c0 .35.02.68.07 1s.12.63.23.94h-1.92Zm-2.33-1.36c.48 0 .91-.12 1.29-.36s.64-.51.76-.82v-1.25h-1.51c-.55 0-.98.14-1.3.41s-.47.6-.47.96c0 .32.11.58.32.77.21.19.51.29.9.29Zm74.22-3.79.63-6.23h5.52v.87h-4.73l-.42 4.05c.29-.26.6-.46.95-.6s.81-.22 1.4-.23c.97-.02 1.75.31 2.34.98.59.67.89 1.56.89 2.69s-.29 2.07-.86 2.76-1.44 1.03-2.6 1.03c-.94 0-1.72-.26-2.34-.79s-.92-1.3-.9-2.32l.02-.05h.84c0 .76.22 1.35.65 1.75.43.41 1.01.61 1.74.61.84 0 1.48-.25 1.89-.76s.63-1.25.63-2.22c0-.85-.21-1.53-.63-2.04s-1.01-.77-1.76-.77-1.29.12-1.67.35c-.38.23-.66.58-.83 1.05l-.76-.12Zm12.75 5.2h-.94v-10.45l-2.89.34v-.66l3.83-.69v11.46Zm7.78 0h-.94v-10.45l-2.89.34v-.66l3.83-.69v11.46Zm5.25-.05h-1.07v-1.28h1.07v1.28Zm5.6.05h-.94v-10.45l-2.89.34v-.66l3.83-.69v11.46Zm10.9-.05h-7.06v-.73l3.73-4.22c.69-.78 1.17-1.43 1.46-1.95s.43-1.02.43-1.5c0-.71-.2-1.28-.6-1.7-.4-.43-.96-.64-1.69-.64-.86 0-1.52.24-1.97.72-.45.48-.67 1.12-.67 1.92h-.87l-.02-.05c-.03-.95.28-1.75.92-2.41s1.51-.98 2.6-.98c.98 0 1.76.28 2.35.84s.88 1.32.88 2.27c0 .62-.2 1.26-.59 1.9-.39.64-.94 1.36-1.64 2.15l-3.13 3.54.02.04h5.86v.8Zm7.48-3.67h1.78v.8h-1.78v2.87h-.93v-2.87h-5.34v-.54l5.24-7.97h1.02v7.71Zm-5.16 0h4.23v-6.48l-.05-.02-.4.85-3.78 5.65Zm85.22 3.72h-.94v-10.45l-2.89.34v-.66l3.83-.69v11.46Zm5.95-6.25h1.09c.83 0 1.46-.21 1.88-.62.43-.41.64-.95.64-1.6 0-.71-.2-1.27-.6-1.7-.4-.42-1-.63-1.79-.63-.73 0-1.33.21-1.79.64-.47.43-.7 1-.7 1.7h-.88l-.02-.05c-.03-.89.28-1.62.93-2.21.65-.59 1.46-.88 2.45-.88s1.82.28 2.43.84c.6.56.9 1.33.9 2.32 0 .54-.17 1.04-.5 1.51-.33.47-.8.82-1.41 1.05.71.2 1.24.55 1.59 1.03.35.48.53 1.05.53 1.71 0 1.01-.33 1.8-.98 2.38-.65.58-1.49.87-2.52.87s-1.85-.28-2.56-.85c-.71-.56-1.06-1.35-1.03-2.36l.02-.05h.88c0 .72.25 1.31.75 1.77.5.46 1.15.69 1.95.69s1.44-.21 1.89-.63c.45-.42.68-1.02.68-1.8s-.24-1.38-.71-1.77c-.47-.38-1.15-.57-2.03-.57h-1.09v-.8Zm8.22 6.06-.83 2.16h-.64l.54-2.18v-1.3h.93v1.33Zm5.37.19h-.94v-10.45l-2.89.34v-.66l3.83-.69v11.46Zm9.26-9.24c0-.66.2-1.22.61-1.67.41-.45.95-.68 1.61-.68s1.2.23 1.61.68c.41.45.61 1.01.61 1.67v.6c0 .66-.2 1.21-.61 1.66-.41.45-.94.68-1.59.68s-1.21-.23-1.62-.68c-.41-.45-.62-1-.62-1.66v-.6Zm.75.6c0 .46.13.85.39 1.17.26.32.63.48 1.11.48s.82-.16 1.07-.48c.25-.32.38-.71.38-1.17v-.6c0-.46-.13-.85-.38-1.18-.26-.33-.62-.49-1.09-.49s-.83.16-1.09.49-.39.72-.39 1.18v.6Zm1.98 7.64-.58-.38 5.55-8.89.58.38-5.55 8.89Zm2.98-1.84c0-.66.2-1.21.61-1.66.41-.45.95-.68 1.61-.68s1.2.23 1.61.68c.41.45.62 1.01.62 1.66v.61c0 .66-.21 1.21-.61 1.66-.41.45-.94.68-1.6.68s-1.21-.23-1.62-.68c-.41-.45-.62-1-.62-1.66v-.61Zm.76.61c0 .46.13.85.38 1.17.25.32.62.48 1.1.48s.82-.16 1.07-.48c.25-.32.38-.71.38-1.17v-.61c0-.47-.13-.87-.38-1.19-.26-.32-.62-.48-1.09-.48s-.83.16-1.09.48c-.26.32-.38.71-.38 1.18v.61ZM99.02 299.64v-11.38h3.78c1.26 0 2.24.26 2.95.78s1.06 1.29 1.06 2.32c0 .52-.15.98-.45 1.38s-.71.71-1.23.91c.68.15 1.2.48 1.56.98.36.5.55 1.08.55 1.74 0 1.07-.35 1.88-1.05 2.43-.7.55-1.66.83-2.89.83h-4.29Zm1.9-6.59h2.09c.59 0 1.05-.14 1.39-.42.34-.28.51-.67.51-1.18 0-.56-.18-.98-.54-1.25s-.89-.41-1.58-.41h-1.88v3.27Zm0 1.41v3.65h2.39c.66 0 1.16-.15 1.52-.45.35-.3.53-.73.53-1.3 0-.6-.15-1.07-.45-1.4s-.76-.5-1.39-.5h-2.6Zm8.06.87c0-1.25.34-2.29 1.03-3.09.7-.81 1.64-1.21 2.84-1.21s2.16.4 2.85 1.21c.69.8 1.04 1.83 1.04 3.09v.16c0 1.27-.35 2.31-1.04 3.11-.69.8-1.63 1.2-2.84 1.2s-2.16-.4-2.85-1.2c-.69-.8-1.03-1.84-1.03-3.1v-.16Zm1.9.16c0 .82.16 1.49.48 2.01.32.51.82.77 1.5.77s1.16-.26 1.48-.77c.33-.52.5-1.19.5-2.01v-.16c0-.81-.17-1.47-.5-1.99-.33-.53-.83-.79-1.5-.79s-1.16.26-1.48.79c-.32.53-.48 1.19-.48 1.99v.16Zm7.49.04c0-1.34.29-2.43.88-3.26.59-.83 1.41-1.24 2.45-1.24.5 0 .95.11 1.33.32s.71.53.97.93l.19-1.1h1.58v8.45c0 1.09-.34 1.93-1.01 2.52s-1.62.89-2.86.89c-.41 0-.86-.06-1.33-.18s-.91-.27-1.29-.46l.41-1.49c.31.16.66.29 1.04.38.38.09.77.14 1.17.14.69 0 1.19-.15 1.51-.44.32-.29.48-.75.48-1.36v-.87c-.27.34-.58.59-.94.77-.36.17-.78.26-1.25.26-1.04 0-1.85-.38-2.44-1.13-.59-.75-.88-1.75-.88-2.98v-.16Zm1.9.16c0 .78.15 1.4.46 1.86.31.47.79.7 1.44.7.41 0 .75-.08 1.03-.25.28-.17.5-.41.68-.73v-3.7c-.18-.31-.41-.55-.68-.72-.28-.17-.61-.26-1-.26-.65 0-1.13.27-1.45.82-.32.55-.47 1.25-.47 2.12v.16Zm7.48-.36c0-1.25.34-2.29 1.03-3.09.7-.81 1.64-1.21 2.84-1.21s2.16.4 2.85 1.21c.69.8 1.04 1.83 1.04 3.09v.16c0 1.27-.35 2.31-1.04 3.11-.69.8-1.63 1.2-2.84 1.2s-2.16-.4-2.85-1.2c-.69-.8-1.03-1.84-1.03-3.1v-.16Zm1.9.16c0 .82.16 1.49.48 2.01.32.51.82.77 1.5.77s1.16-.26 1.48-.77c.33-.52.5-1.19.5-2.01v-.16c0-.81-.17-1.47-.5-1.99-.33-.53-.83-.79-1.5-.79s-1.16.26-1.48.79c-.32.53-.48 1.19-.48 1.99v.16Zm10.06-6.36v2.05h1.52v1.41h-1.52v4.67c0 .35.08.6.23.75s.35.22.6.22c.1 0 .21 0 .3-.03s.19-.04.28-.07l.2 1.39c-.16.09-.35.16-.58.21s-.46.07-.7.07c-.7 0-1.25-.2-1.64-.61s-.59-1.05-.59-1.93v-4.67h-1.29v-1.41h1.29v-2.05h1.89Zm8.5 10.51c-.07-.21-.12-.42-.17-.62s-.07-.41-.09-.61c-.26.4-.6.73-1.03 1s-.9.4-1.43.4c-.88 0-1.56-.23-2.03-.68s-.71-1.08-.71-1.87.32-1.45.97-1.91 1.55-.68 2.73-.68h1.48v-.74c0-.44-.13-.79-.39-1.04s-.63-.38-1.12-.38c-.43 0-.78.1-1.03.31s-.38.48-.38.8h-1.83v-.05c-.04-.67.25-1.26.89-1.77s1.46-.77 2.47-.77 1.78.25 2.38.75.91 1.22.91 2.16v3.76c0 .35.02.68.07 1s.12.63.23.94h-1.92Zm-2.33-1.36c.48 0 .91-.12 1.29-.36s.64-.51.76-.82v-1.25h-1.51c-.55 0-.98.14-1.3.41s-.47.59-.47.96c0 .32.11.58.32.77s.51.29.9.29Zm1.11-10.38h2.1l.02.05-2.13 2.03h-1.48l1.49-2.08Zm103.1 5.54h1.09c.83 0 1.46-.21 1.88-.62s.64-.95.64-1.6c0-.71-.2-1.27-.6-1.7s-1-.63-1.79-.63c-.73 0-1.33.21-1.79.64s-.7 1-.7 1.7h-.88l-.02-.05c-.03-.89.28-1.62.93-2.21s1.46-.88 2.45-.88 1.82.28 2.43.84.9 1.33.9 2.32c0 .54-.17 1.04-.5 1.51s-.8.82-1.41 1.05c.71.2 1.24.55 1.59 1.03s.53 1.05.53 1.71c0 1.01-.33 1.8-.98 2.38s-1.49.87-2.52.87-1.85-.28-2.56-.85-1.06-1.35-1.03-2.36l.02-.05h.88c0 .72.25 1.31.75 1.77s1.15.69 1.95.69 1.44-.21 1.89-.63.68-1.02.68-1.8-.24-1.38-.71-1.77-1.15-.57-2.03-.57h-1.09v-.8Zm14.01-4.38c-1.23 1.46-2.17 2.94-2.82 4.44-.65 1.5-1.09 3.23-1.3 5.18l-.09.95h-.94l.09-.95c.22-1.93.67-3.67 1.36-5.23s1.6-3.02 2.73-4.39h-6.49v-.8h7.46v.8Zm9.11 6.16c0 1.47-.32 2.6-.95 3.39s-1.52 1.19-2.65 1.19-2.01-.4-2.65-1.19-.96-1.92-.96-3.39v-2.54c0-1.46.32-2.59.95-3.39s1.52-1.2 2.65-1.2 2.02.4 2.66 1.2.96 1.93.96 3.39v2.54Zm-.94-2.7c0-1.17-.23-2.06-.69-2.69-.46-.63-1.12-.94-1.99-.94s-1.53.31-1.98.94c-.45.63-.68 1.52-.68 2.69v2.83c0 1.16.23 2.05.69 2.69s1.12.96 1.99.96 1.52-.32 1.98-.95.68-1.53.68-2.69v-2.83Zm4.53 7.12h-1.07v-1.28h1.07v1.28Zm9.8 0h-7.06v-.73l3.73-4.22c.69-.78 1.17-1.43 1.46-1.95.28-.52.43-1.02.43-1.5 0-.71-.2-1.28-.6-1.7s-.96-.64-1.69-.64c-.87 0-1.52.24-1.97.72-.45.48-.67 1.12-.67 1.92h-.87l-.02-.05c-.03-.95.28-1.75.92-2.41s1.51-.98 2.6-.98c.98 0 1.76.28 2.35.84.59.56.88 1.32.88 2.27 0 .62-.2 1.26-.59 1.9-.39.64-.94 1.36-1.64 2.15l-3.13 3.54.02.04h5.86v.8Zm2.29-5.15.63-6.23h5.52v.87h-4.73l-.42 4.05c.29-.26.6-.46.95-.6s.81-.22 1.4-.23c.97-.02 1.75.31 2.34.98s.89 1.56.89 2.69-.29 2.07-.86 2.76c-.58.69-1.44 1.03-2.6 1.03-.94 0-1.72-.26-2.34-.79s-.92-1.3-.9-2.32l.02-.05h.84c0 .76.22 1.35.65 1.75.43.41 1.01.61 1.74.61.84 0 1.47-.25 1.89-.76.42-.51.63-1.25.63-2.22 0-.85-.21-1.53-.63-2.04-.42-.51-1.01-.77-1.76-.77s-1.29.12-1.67.35-.66.58-.83 1.05l-.76-.12Zm15.95-5.43c-1.23 1.46-2.17 2.94-2.82 4.44s-1.09 3.23-1.3 5.18l-.09.95h-.94l.09-.95c.22-1.93.67-3.67 1.36-5.23s1.6-3.02 2.73-4.39h-6.49v-.8h7.46v.8Zm72.1 9.94c.86 0 1.55-.29 2.06-.87.51-.58.77-1.4.77-2.48v-1.14c-.28.48-.65.85-1.11 1.11s-.99.39-1.56.39c-1.04 0-1.87-.36-2.5-1.08s-.95-1.65-.95-2.79.33-2.11 1-2.89 1.49-1.16 2.46-1.16c1.1 0 1.98.36 2.64 1.07s.99 1.76.99 3.12v3.35c0 1.32-.35 2.34-1.05 3.07s-1.61 1.09-2.75 1.09c-.41 0-.81-.04-1.22-.12s-.8-.2-1.17-.36l.17-.78c.35.17.7.29 1.05.36s.74.11 1.17.11Zm.16-3.78c.68 0 1.24-.17 1.7-.52.46-.35.78-.77.97-1.28v-1.2c0-1.08-.24-1.9-.71-2.47s-1.11-.85-1.92-.85c-.73 0-1.34.32-1.82.95s-.71 1.4-.71 2.3.22 1.6.67 2.19 1.05.88 1.81.88Zm7.02 4.28-.83 2.16h-.64l.54-2.18v-1.3h.93v1.33Zm2.79-5.01.63-6.23h5.52v.87h-4.73l-.42 4.05c.29-.26.6-.46.95-.6s.81-.22 1.4-.23c.97-.02 1.75.31 2.34.98s.89 1.56.89 2.69-.29 2.07-.86 2.76c-.58.69-1.44 1.03-2.6 1.03-.94 0-1.72-.26-2.34-.79s-.92-1.3-.9-2.32l.02-.05h.84c0 .76.22 1.35.65 1.75.43.41 1.01.61 1.74.61.84 0 1.47-.25 1.89-.76.42-.51.63-1.25.63-2.22 0-.85-.21-1.53-.63-2.04-.42-.51-1.01-.77-1.76-.77s-1.29.12-1.67.35-.66.58-.83 1.05l-.76-.12Zm13.09-4.04c0-.66.2-1.22.61-1.67s.95-.68 1.61-.68 1.2.23 1.61.68.61 1.01.61 1.67v.6c0 .66-.2 1.21-.61 1.66s-.94.68-1.59.68-1.21-.23-1.62-.68-.62-1-.62-1.66v-.6Zm.75.6c0 .46.13.85.39 1.17s.63.48 1.11.48.82-.16 1.07-.48.38-.71.38-1.17v-.6c0-.46-.13-.85-.38-1.18s-.62-.49-1.09-.49-.83.16-1.09.49-.39.72-.39 1.18v.6Zm1.98 7.64-.58-.38 5.55-8.89.58.38-5.55 8.89Zm2.98-1.84c0-.66.2-1.21.61-1.66s.95-.68 1.61-.68 1.2.23 1.61.68.62 1.01.62 1.66v.61c0 .66-.2 1.21-.61 1.66s-.94.68-1.6.68-1.21-.23-1.62-.68-.62-1-.62-1.66v-.61Zm.76.61c0 .46.13.85.38 1.17s.62.48 1.1.48.82-.16 1.07-.48.38-.71.38-1.17v-.61c0-.47-.13-.87-.38-1.19s-.62-.48-1.09-.48-.83.16-1.09.48-.38.71-.38 1.18v.61Zm-298.58 35.51c0 1.39-.44 2.54-1.31 3.46-.87.91-2 1.37-3.39 1.37s-2.47-.46-3.32-1.37-1.28-2.07-1.28-3.46v-2.05c0-1.39.43-2.54 1.28-3.45s1.96-1.38 3.32-1.38 2.52.46 3.4 1.38 1.31 2.07 1.31 3.45v2.05Zm-1.89-2.06c0-.95-.25-1.73-.76-2.34s-1.19-.91-2.06-.91-1.49.3-1.98.91-.73 1.39-.73 2.34v2.06c0 .96.24 1.74.73 2.36s1.15.92 1.98.92 1.56-.3 2.06-.91c.5-.61.75-1.4.75-2.36v-2.06Zm7.53 5.37c.46 0 .85-.14 1.17-.41.32-.27.48-.61.48-1.02h1.72l.02.05c.03.79-.3 1.47-.96 2.05-.67.57-1.48.86-2.42.86-1.25 0-2.2-.4-2.86-1.2s-1-1.82-1-3.05v-.27c0-1.22.33-2.24 1-3.04s1.62-1.21 2.86-1.21c1.02 0 1.84.3 2.47.89s.94 1.34.92 2.25l-.02.05h-1.73c0-.46-.15-.86-.46-1.18s-.7-.48-1.19-.48c-.71 0-1.22.26-1.52.78s-.45 1.17-.45 1.95v.27c0 .8.15 1.45.45 1.96s.8.77 1.52.77Zm8.73 0c.46 0 .85-.14 1.17-.41.32-.27.48-.61.48-1.02h1.72l.02.05c.03.79-.3 1.47-.96 2.05-.67.57-1.48.86-2.42.86-1.25 0-2.2-.4-2.86-1.2s-1-1.82-1-3.05v-.27c0-1.22.33-2.24 1-3.04s1.62-1.21 2.86-1.21c1.02 0 1.84.3 2.47.89s.94 1.34.92 2.25l-.02.05h-1.73c0-.46-.15-.86-.46-1.18s-.7-.48-1.19-.48c-.71 0-1.22.26-1.52.78s-.45 1.17-.45 1.95v.27c0 .8.15 1.45.45 1.96s.8.77 1.52.77Zm7.27-9.17h-1.9v-1.66h1.9v1.66Zm0 10.52h-1.9v-8.45h1.9v8.45Zm2.08-4.1c0-1.35.29-2.44.87-3.26s1.39-1.24 2.44-1.24c.46 0 .87.09 1.23.28s.68.45.94.79v-4.65h1.9v12.19h-1.59l-.19-1.05c-.27.4-.6.7-.98.9s-.82.31-1.33.31c-1.04 0-1.84-.38-2.42-1.13s-.87-1.75-.87-2.98v-.16Zm1.9.16c0 .78.15 1.4.45 1.87s.77.7 1.43.7c.4 0 .74-.09 1.02-.26s.51-.42.68-.73v-3.69c-.18-.31-.41-.56-.69-.73s-.61-.26-1-.26c-.65 0-1.12.27-1.43.82s-.46 1.25-.46 2.13v.16Zm11.41 4.11c-1.2 0-2.15-.39-2.86-1.18s-1.07-1.79-1.07-3.02v-.31c0-1.23.35-2.25 1.06-3.06.71-.81 1.59-1.21 2.65-1.21 1.14 0 2.01.34 2.62 1.04.61.69.91 1.62.91 2.78v1.12h-5.27l-.02.04c.03.67.23 1.22.59 1.64.36.43.86.64 1.5.64.51 0 .95-.06 1.31-.19.36-.12.72-.3 1.05-.54l.61 1.25c-.32.28-.74.52-1.27.71-.53.19-1.14.29-1.83.29Zm-.22-7.25c-.47 0-.85.19-1.16.56-.3.37-.49.84-.56 1.42l.02.04h3.35v-.2c0-.54-.14-.97-.41-1.31s-.69-.51-1.24-.51Zm7.2-1.37.11 1.22c.28-.43.62-.77 1.04-1.01.42-.24.89-.36 1.42-.36.88 0 1.57.27 2.06.8s.74 1.37.74 2.5v5.31h-1.9v-5.3c0-.64-.13-1.09-.39-1.36s-.66-.4-1.2-.4c-.37 0-.7.08-.99.25-.29.16-.53.39-.72.68v6.13h-1.9v-8.45h1.73Zm9.95-2.05v2.05h1.52v1.41h-1.52v4.67c0 .35.08.6.23.75.15.15.35.22.6.22.1 0 .21 0 .3-.03.1-.02.19-.04.28-.07l.2 1.39c-.16.09-.35.16-.58.21-.22.05-.46.07-.7.07-.7 0-1.25-.2-1.64-.61-.4-.41-.59-1.05-.59-1.93v-4.67h-1.29v-1.41h1.29v-2.05h1.89Zm6.78 10.67c-1.2 0-2.15-.39-2.86-1.18s-1.07-1.79-1.07-3.02v-.31c0-1.23.35-2.25 1.06-3.06.71-.81 1.59-1.21 2.65-1.21 1.14 0 2.01.34 2.62 1.04.61.69.91 1.62.91 2.78v1.12h-5.27l-.02.04c.03.67.23 1.22.59 1.64.36.43.86.64 1.5.64.51 0 .95-.06 1.31-.19.36-.12.72-.3 1.05-.54l.61 1.25c-.32.28-.74.52-1.27.71-.53.19-1.14.29-1.83.29Zm-.22-7.25c-.47 0-.85.19-1.16.56-.3.37-.49.84-.56 1.42l.02.04h3.35v-.2c0-.54-.14-.97-.41-1.31s-.69-.51-1.24-.51Zm86.67 7.09h-7.06v-.73l3.73-4.22c.69-.78 1.17-1.43 1.46-1.95s.43-1.02.43-1.5c0-.71-.2-1.28-.6-1.7s-.96-.64-1.69-.64c-.86 0-1.52.24-1.97.72s-.67 1.12-.67 1.92h-.87l-.02-.05c-.03-.95.28-1.75.92-2.41s1.51-.98 2.6-.98c.98 0 1.76.28 2.35.84s.88 1.32.88 2.27c0 .62-.2 1.26-.59 1.9s-.94 1.36-1.64 2.15l-3.13 3.54.02.04h5.86v.8Zm9.23-4.42c0 1.47-.32 2.6-.95 3.39-.64.79-1.52 1.19-2.65 1.19s-2.01-.4-2.65-1.19c-.64-.79-.96-1.92-.96-3.39v-2.54c0-1.46.32-2.59.95-3.39.63-.8 1.52-1.2 2.65-1.2s2.02.4 2.66 1.2.96 1.93.96 3.39v2.54Zm-.94-2.7c0-1.17-.23-2.06-.69-2.69-.46-.63-1.12-.94-1.99-.94s-1.53.31-1.98.94c-.45.63-.68 1.52-.68 2.69v2.83c0 1.16.23 2.05.69 2.69s1.12.96 1.99.96 1.52-.32 1.98-.95c.46-.63.68-1.53.68-2.69v-2.83Zm10.14-3.46c-1.23 1.46-2.17 2.94-2.82 4.44-.65 1.5-1.09 3.23-1.3 5.18l-.09.95h-.94l.09-.95c.22-1.93.67-3.67 1.36-5.23s1.6-3.02 2.73-4.39h-6.49v-.8h7.46v.8Zm1.85 10.58h-1.07v-1.28h1.07v1.28Zm9.82 0h-7.06v-.73l3.73-4.22c.69-.78 1.17-1.43 1.46-1.95s.43-1.02.43-1.5c0-.71-.2-1.28-.6-1.7s-.96-.64-1.69-.64c-.86 0-1.52.24-1.97.72s-.67 1.12-.67 1.92h-.87l-.02-.05c-.03-.95.28-1.75.92-2.41s1.51-.98 2.6-.98c.98 0 1.76.28 2.35.84s.88 1.32.88 2.27c0 .62-.2 1.26-.59 1.9s-.94 1.36-1.64 2.15l-3.13 3.54.02.04h5.86v.8Zm9.38 0h-7.06v-.73l3.73-4.22c.69-.78 1.17-1.43 1.46-1.95.28-.52.43-1.02.43-1.5 0-.71-.2-1.28-.6-1.7s-.96-.64-1.69-.64c-.87 0-1.52.24-1.97.72-.45.48-.67 1.12-.67 1.92h-.87l-.02-.05c-.03-.95.28-1.75.92-2.41s1.51-.98 2.6-.98c.98 0 1.76.28 2.35.84.59.56.88 1.32.88 2.27 0 .62-.2 1.26-.59 1.9-.39.64-.94 1.36-1.64 2.15l-3.13 3.54.02.04h5.86v.8Zm7.47-3.67h1.78v.8h-1.78v2.87h-.93v-2.87h-5.34v-.54l5.24-7.97h1.02v7.71Zm-5.16 0h4.23v-6.48l-.05-.02-.4.85-3.78 5.65Zm77.55-1.48.63-6.23h5.52v.87h-4.73l-.42 4.05c.29-.26.6-.46.95-.6s.81-.22 1.4-.23c.97-.02 1.75.31 2.34.98s.89 1.56.89 2.69-.29 2.07-.86 2.76-1.44 1.03-2.6 1.03c-.94 0-1.72-.26-2.34-.79s-.92-1.3-.9-2.32l.02-.05h.84c0 .76.22 1.35.65 1.75.43.41 1.01.61 1.74.61.84 0 1.48-.25 1.89-.76s.63-1.25.63-2.22c0-.85-.21-1.53-.63-2.04s-1.01-.77-1.76-.77-1.29.12-1.67.35-.66.58-.83 1.05l-.76-.12Zm9.93 5.01-.83 2.16h-.64l.54-2.18v-1.3h.93v1.33Zm4.67-6.06h1.09c.83 0 1.46-.21 1.88-.62s.64-.95.64-1.6c0-.71-.2-1.27-.6-1.7s-1-.63-1.79-.63c-.73 0-1.33.21-1.79.64s-.7 1-.7 1.7h-.88l-.02-.05c-.03-.89.28-1.62.93-2.21s1.46-.88 2.45-.88 1.82.28 2.43.84.9 1.33.9 2.32c0 .54-.17 1.04-.5 1.51s-.8.82-1.41 1.05c.71.2 1.24.55 1.59 1.03s.53 1.05.53 1.71c0 1.01-.33 1.8-.98 2.38s-1.49.87-2.52.87-1.85-.28-2.56-.85-1.06-1.35-1.03-2.36l.02-.05h.88c0 .72.25 1.31.75 1.77s1.15.69 1.95.69 1.44-.21 1.89-.63.68-1.02.68-1.8-.24-1.38-.71-1.77-1.15-.57-2.03-.57h-1.09v-.8Zm11.41-2.99c0-.66.2-1.22.61-1.67.41-.45.95-.68 1.61-.68s1.2.23 1.61.68c.41.45.61 1.01.61 1.67v.6c0 .66-.2 1.21-.61 1.66s-.94.68-1.59.68-1.21-.23-1.62-.68c-.41-.45-.62-1-.62-1.66v-.6Zm.75.6c0 .46.13.85.39 1.17s.63.48 1.11.48.82-.16 1.07-.48c.25-.32.38-.71.38-1.17v-.6c0-.46-.13-.85-.38-1.18-.26-.33-.62-.49-1.09-.49s-.83.16-1.09.49-.39.72-.39 1.18v.6Zm1.98 7.64-.58-.38 5.55-8.89.58.38-5.55 8.89Zm2.98-1.84c0-.66.2-1.21.61-1.66.41-.45.95-.68 1.61-.68s1.2.23 1.61.68c.41.45.62 1.01.62 1.66v.61c0 .66-.21 1.21-.61 1.66-.41.45-.94.68-1.6.68s-1.21-.23-1.62-.68c-.41-.45-.62-1-.62-1.66v-.61Zm.76.61c0 .46.13.85.38 1.17.25.32.62.48 1.1.48s.82-.16 1.07-.48c.25-.32.38-.71.38-1.17v-.61c0-.47-.13-.87-.38-1.19-.26-.32-.62-.48-1.09-.48s-.83.16-1.09.48c-.26.32-.38.71-.38 1.18v.61Zm-299.58 36.4.02.05c.02 1.15-.35 2.09-1.12 2.81-.77.72-1.81 1.08-3.12 1.08s-2.41-.45-3.24-1.34c-.83-.89-1.25-2.04-1.25-3.43v-2.16c0-1.39.41-2.53 1.23-3.43s1.89-1.35 3.2-1.35 2.4.35 3.18 1.06 1.15 1.66 1.13 2.85l-.02.05h-1.84c0-.77-.21-1.36-.62-1.79s-1.03-.64-1.83-.64-1.39.31-1.85.92c-.46.61-.68 1.38-.68 2.31v2.18c0 .94.23 1.71.7 2.33.47.61 1.09.92 1.89.92s1.38-.21 1.79-.63c.41-.42.61-1.01.61-1.78h1.83Zm1.66-.53c0-1.25.34-2.29 1.03-3.09.7-.81 1.64-1.21 2.84-1.21s2.16.4 2.85 1.21c.69.8 1.04 1.83 1.04 3.09v.16c0 1.27-.35 2.31-1.04 3.11-.69.8-1.63 1.2-2.84 1.2s-2.16-.4-2.85-1.2c-.69-.8-1.03-1.84-1.03-3.1v-.16Zm1.9.16c0 .82.16 1.49.48 2.01.32.51.82.77 1.5.77s1.16-.26 1.48-.77c.33-.52.5-1.19.5-2.01v-.16c0-.81-.17-1.47-.5-1.99-.33-.53-.83-.79-1.5-.79s-1.16.26-1.48.79c-.32.53-.48 1.19-.48 1.99v.16Zm9.78 4.15h-1.9v-12.19h1.9v12.19Zm9.79-3.95c0 1.23-.29 2.22-.87 2.98s-1.38 1.13-2.41 1.13a3 3 0 0 1-1.27-.26c-.37-.17-.69-.42-.95-.76v4.1h-1.9v-11.7h1.6l.19 1.06c.27-.4.6-.7.98-.91s.83-.31 1.33-.31c1.04 0 1.85.41 2.43 1.24.58.83.87 1.91.87 3.26v.16Zm-1.89-.17c0-.86-.16-1.57-.49-2.12-.33-.55-.81-.82-1.46-.82-.4 0-.73.08-1.01.25-.28.17-.5.4-.66.71v3.81c.17.3.39.52.66.68.28.16.62.24 1.02.24.65 0 1.13-.24 1.45-.71s.48-1.1.48-1.88v-.16Zm8.87 4.12c-.07-.21-.12-.42-.17-.62-.04-.2-.07-.41-.09-.61-.26.4-.6.73-1.03 1-.42.27-.9.4-1.43.4-.88 0-1.56-.23-2.03-.68-.47-.45-.71-1.08-.71-1.87s.32-1.45.97-1.91c.65-.46 1.55-.68 2.73-.68h1.48v-.74c0-.44-.13-.79-.39-1.04s-.63-.38-1.12-.38c-.43 0-.78.1-1.03.31a.98.98 0 0 0-.38.8h-1.83v-.05c-.04-.67.25-1.26.89-1.77s1.46-.77 2.47-.77 1.78.25 2.38.75c.6.5.91 1.22.91 2.16v3.76c0 .35.02.68.07 1s.12.63.23.94h-1.92Zm-2.33-1.36c.48 0 .91-.12 1.29-.36s.64-.51.76-.82v-1.25h-1.51c-.55 0-.98.14-1.3.41s-.47.59-.47.96c0 .32.11.58.32.77s.51.29.9.29Zm8.56-9.15v2.05h1.52v1.41h-1.52v4.67c0 .35.08.6.23.75.15.15.35.22.6.22.1 0 .21 0 .3-.03.1-.02.19-.04.28-.07l.2 1.39c-.16.09-.35.16-.58.21-.22.05-.46.07-.7.07-.7 0-1.25-.2-1.64-.61-.4-.41-.59-1.05-.59-1.93v-4.67h-1.29v-1.41h1.29v-2.05h1.89Zm7.56 3.77-.81-.03c-.37 0-.68.08-.93.23s-.44.38-.57.66v5.88h-1.9v-8.45h1.73l.12 1.23c.21-.43.49-.77.82-1.02s.72-.37 1.16-.37c.11 0 .22 0 .32.03s.19.04.27.07l-.23 1.77Zm3.67-3.79h-1.9v-1.66h1.9v1.66Zm0 10.52h-1.9v-8.45h1.9v8.45Zm7.44.01c-.07-.21-.12-.42-.17-.62s-.07-.41-.09-.61c-.26.4-.6.73-1.03 1s-.9.4-1.43.4c-.88 0-1.56-.23-2.03-.68s-.71-1.08-.71-1.87.32-1.45.97-1.91 1.55-.68 2.73-.68h1.48v-.74c0-.44-.13-.79-.39-1.04s-.63-.38-1.12-.38c-.43 0-.78.1-1.03.31s-.38.48-.38.8h-1.83v-.05c-.04-.67.25-1.26.89-1.77s1.46-.77 2.47-.77 1.78.25 2.38.75.91 1.22.91 2.16v3.76c0 .35.02.68.07 1s.12.63.23.94h-1.92Zm-2.33-1.36c.48 0 .91-.12 1.29-.36s.64-.51.76-.82v-1.25h-1.51c-.55 0-.98.14-1.3.41s-.47.59-.47.96c0 .32.11.58.32.77s.51.29.9.29Zm92.24 1.41h-.94v-10.45l-2.89.34v-.66l3.83-.69v11.46Zm7.78 0h-.94v-10.45l-2.89.34v-.66l3.83-.69v11.46Zm10.96-10.63c-1.23 1.46-2.17 2.94-2.82 4.44s-1.09 3.23-1.3 5.18l-.09.95h-.94l.09-.95c.22-1.93.67-3.67 1.36-5.23s1.6-3.02 2.73-4.39h-6.49v-.8h7.46v.8Zm1.85 10.58h-1.07v-1.28h1.07v1.28Zm5.61.05h-.94v-10.45l-2.89.34v-.66l3.83-.69v11.46Zm10.7-8.5c0 .61-.18 1.15-.54 1.61s-.84.8-1.44 1c.69.21 1.25.57 1.67 1.07s.63 1.08.63 1.75c0 1.02-.34 1.81-1.02 2.36s-1.56.82-2.63.82-1.98-.27-2.65-.82-1.01-1.33-1.01-2.36c0-.67.21-1.26.62-1.75s.96-.85 1.66-1.07c-.6-.21-1.07-.54-1.43-1s-.53-1-.53-1.61c0-.98.31-1.74.93-2.28s1.42-.81 2.4-.81 1.78.27 2.41.82.94 1.3.94 2.28Zm-.62 5.43c0-.72-.26-1.3-.78-1.75s-1.17-.67-1.95-.67-1.44.22-1.95.67-.77 1.03-.77 1.75.25 1.33.76 1.75 1.16.63 1.98.63 1.44-.21 1.95-.64.77-1 .77-1.74Zm-.32-5.44c0-.66-.23-1.2-.69-1.64s-1.04-.65-1.72-.65-1.28.21-1.73.62-.67.97-.67 1.66.23 1.21.68 1.61 1.03.61 1.74.61 1.27-.2 1.72-.61.68-.94.68-1.61Zm7.49-3.08c.39 0 .78.04 1.16.13s.72.22 1.02.38l-.24.77c-.3-.17-.59-.29-.88-.37s-.64-.12-1.05-.12c-.84 0-1.54.33-2.1.98s-.83 1.52-.83 2.59v1.01c.31-.41.71-.73 1.2-.98s1.02-.37 1.61-.37c1.02 0 1.83.35 2.42 1.05s.89 1.62.89 2.75-.32 2.04-.96 2.77-1.47 1.09-2.49 1.09-1.91-.39-2.59-1.17-1.02-1.85-1.02-3.21v-2.87c0-1.31.37-2.38 1.12-3.21s1.66-1.24 2.75-1.24Zm-.31 4.8c-.63 0-1.18.16-1.65.49-.47.33-.79.75-.96 1.26v.83c0 1.09.25 1.95.75 2.57.5.63 1.14.94 1.92.94s1.37-.3 1.82-.89.68-1.32.68-2.18c0-.91-.22-1.64-.66-2.2s-1.08-.83-1.9-.83Zm80.71.54h1.09c.83 0 1.46-.21 1.88-.62s.64-.95.64-1.6c0-.71-.2-1.27-.6-1.7s-1-.63-1.79-.63c-.73 0-1.33.21-1.79.64s-.7 1-.7 1.7h-.88l-.02-.05c-.03-.89.28-1.62.93-2.21s1.46-.88 2.45-.88 1.82.28 2.43.84.9 1.33.9 2.32c0 .54-.17 1.04-.5 1.51s-.8.82-1.41 1.05c.71.2 1.24.55 1.59 1.03s.53 1.05.53 1.71c0 1.01-.33 1.8-.98 2.38s-1.49.87-2.52.87-1.85-.28-2.56-.85-1.06-1.35-1.03-2.36l.02-.05h.88c0 .72.25 1.31.75 1.77s1.15.69 1.95.69 1.44-.21 1.89-.63.68-1.02.68-1.8-.24-1.38-.71-1.77-1.15-.57-2.03-.57h-1.09v-.8Zm8.22 6.06-.83 2.16h-.64l.54-2.18v-1.3h.93v1.33Zm9.54-4.28c0 1.47-.32 2.6-.95 3.39s-1.52 1.19-2.65 1.19-2.01-.4-2.65-1.19-.96-1.92-.96-3.39v-2.54c0-1.46.32-2.59.95-3.39s1.52-1.2 2.65-1.2 2.02.4 2.66 1.2.96 1.93.96 3.39v2.54Zm-.94-2.7c0-1.17-.23-2.06-.69-2.69-.46-.63-1.12-.94-1.99-.94s-1.53.31-1.98.94c-.45.63-.68 1.52-.68 2.69v2.83c0 1.16.23 2.05.69 2.69s1.12.96 1.99.96 1.52-.32 1.98-.95.68-1.53.68-2.69v-2.83Zm7.68-2.07c0-.66.2-1.22.61-1.67s.95-.68 1.61-.68 1.2.23 1.61.68.61 1.01.61 1.67v.6c0 .66-.2 1.21-.61 1.66s-.94.68-1.59.68-1.21-.23-1.62-.68-.62-1-.62-1.66v-.6Zm.75.6c0 .46.13.85.39 1.17s.63.48 1.11.48.82-.16 1.07-.48.38-.71.38-1.17v-.6c0-.46-.13-.85-.38-1.18s-.62-.49-1.09-.49-.83.16-1.09.49-.39.72-.39 1.18v.6Zm1.98 7.64-.58-.38 5.55-8.89.58.38-5.55 8.89Zm2.98-1.84c0-.66.2-1.21.61-1.66s.95-.68 1.61-.68 1.2.23 1.61.68.62 1.01.62 1.66v.61c0 .66-.2 1.21-.61 1.66s-.94.68-1.6.68-1.21-.23-1.62-.68-.62-1-.62-1.66v-.61Zm.76.61c0 .46.13.85.38 1.17s.62.48 1.1.48.82-.16 1.07-.48.38-.71.38-1.17v-.61c0-.47-.13-.87-.38-1.19s-.62-.48-1.09-.48-.83.16-1.09.48-.38.71-.38 1.18v.61Zm-301.88 37.25c0-.47-.18-.86-.53-1.16s-.97-.57-1.86-.81c-1.27-.33-2.25-.77-2.93-1.32-.69-.55-1.03-1.27-1.03-2.16s.38-1.67 1.14-2.27 1.74-.89 2.93-.89 2.25.34 3.01 1.01 1.12 1.48 1.1 2.43l-.02.05h-1.82c0-.58-.2-1.06-.59-1.42-.4-.36-.96-.54-1.7-.54-.69 0-1.23.15-1.6.45-.37.3-.56.69-.56 1.17 0 .43.2.79.61 1.08.4.29 1.07.56 2 .81 1.22.33 2.15.78 2.79 1.36.63.58.95 1.32.95 2.21 0 .95-.38 1.7-1.14 2.26s-1.75.84-2.99.84-2.23-.32-3.12-.95c-.9-.63-1.33-1.5-1.3-2.59l.02-.05h1.83c0 .69.24 1.21.72 1.55.48.34 1.1.51 1.87.51.7 0 1.25-.14 1.64-.42s.59-.67.59-1.15Zm9.15 1.69c-.27.45-.6.79-1.01 1.04s-.88.36-1.41.36c-.91 0-1.61-.29-2.12-.87s-.77-1.48-.77-2.7v-5.05h1.89v5.07c0 .74.12 1.26.36 1.55s.6.45 1.09.45c.46 0 .84-.08 1.15-.25s.55-.4.73-.71v-6.11h1.9v8.45h-1.66l-.16-1.23Zm3.8-2.87c0-1.35.29-2.44.87-3.26s1.39-1.24 2.44-1.24c.46 0 .87.09 1.23.28.36.18.68.45.94.79v-4.65h1.9v12.19h-1.59l-.19-1.05c-.27.4-.6.7-.98.9-.38.21-.82.31-1.33.31-1.04 0-1.84-.38-2.42-1.13s-.87-1.75-.87-2.98v-.16Zm1.9.16c0 .78.15 1.4.45 1.87.3.46.77.7 1.43.7.4 0 .74-.09 1.02-.26s.51-.42.68-.73v-3.69c-.18-.31-.41-.56-.69-.73s-.62-.26-1-.26c-.65 0-1.12.27-1.43.82-.31.54-.46 1.25-.46 2.13v.16Zm12.89 3.95c-.07-.21-.12-.42-.17-.62s-.07-.41-.09-.61c-.26.4-.6.73-1.03 1s-.9.4-1.43.4c-.88 0-1.56-.23-2.03-.68s-.71-1.08-.71-1.87.32-1.45.97-1.91 1.55-.68 2.73-.68h1.48v-.74c0-.44-.13-.79-.39-1.04s-.63-.38-1.12-.38c-.43 0-.78.1-1.03.31s-.38.48-.38.8h-1.83v-.05c-.04-.67.25-1.26.89-1.77s1.46-.77 2.47-.77 1.78.25 2.38.75.91 1.22.91 2.16v3.76c0 .35.02.68.07 1s.12.63.23.94h-1.92Zm-2.33-1.36c.48 0 .91-.12 1.29-.36s.64-.51.76-.82v-1.25h-1.51c-.55 0-.98.14-1.3.41s-.47.59-.47.96c0 .32.11.58.32.77s.51.29.9.29Zm8.01-7.1.1 1.1c.28-.4.62-.71 1.04-.93.42-.22.9-.33 1.45-.33s1.03.12 1.42.38c.4.25.69.62.89 1.12.26-.47.6-.84 1.03-1.1.43-.27.93-.4 1.5-.4.85 0 1.52.29 2.01.87s.74 1.46.74 2.64v5.09h-1.9v-5.1c0-.72-.12-1.22-.37-1.52-.25-.29-.62-.44-1.11-.44-.41 0-.75.11-1.03.33s-.48.51-.61.88v5.84h-1.9v-5.1c0-.69-.13-1.19-.38-1.5-.25-.3-.62-.46-1.11-.46-.39 0-.71.07-.98.22s-.48.36-.64.63v6.2h-1.9v-8.45h1.73Zm16.06 8.62c-1.2 0-2.15-.39-2.86-1.18s-1.07-1.79-1.07-3.02v-.31c0-1.23.35-2.25 1.06-3.06.71-.81 1.59-1.21 2.65-1.21 1.14 0 2.01.34 2.62 1.04.61.69.91 1.62.91 2.78v1.12h-5.27l-.02.04c.03.67.23 1.22.59 1.64.36.43.86.64 1.5.64.51 0 .95-.06 1.31-.19.36-.12.72-.3 1.05-.54l.61 1.25c-.32.28-.74.52-1.27.71-.53.19-1.14.29-1.83.29Zm-.22-7.25c-.47 0-.85.19-1.16.56-.3.37-.49.84-.56 1.42l.02.04h3.35v-.2c0-.54-.14-.97-.41-1.31s-.69-.51-1.24-.51Zm9.69.35-.81-.03c-.37 0-.68.08-.93.23-.25.16-.44.38-.57.66v5.88h-1.9v-8.45h1.73l.12 1.23c.21-.43.49-.77.82-1.02s.72-.37 1.16-.37c.11 0 .22 0 .32.03.1.02.19.04.27.07l-.23 1.77Zm3.68-3.79h-1.9v-1.66h1.9v1.66Zm0 10.52h-1.9v-8.45h1.9v8.45Zm7.06-2.29c0-.29-.12-.53-.38-.73s-.72-.36-1.4-.51c-1.01-.21-1.78-.52-2.29-.91-.52-.39-.78-.93-.78-1.61s.3-1.31.9-1.81c.6-.5 1.39-.75 2.37-.75 1.03 0 1.85.25 2.46.76.61.51.9 1.14.87 1.89l-.02.05h-1.82c0-.35-.13-.65-.4-.9s-.63-.38-1.09-.38-.81.1-1.05.31-.36.46-.36.75.11.53.34.71.69.33 1.38.46c1.06.22 1.85.53 2.36.93.51.4.77.94.77 1.63 0 .76-.31 1.38-.94 1.85-.63.47-1.46.71-2.48.71-1.1 0-1.97-.28-2.6-.84-.64-.56-.94-1.21-.91-1.94l.02-.05h1.77c.02.49.2.85.53 1.07.33.22.74.34 1.22.34s.87-.09 1.13-.28.4-.44.4-.76Zm79.86-6.15c0 .61-.18 1.15-.54 1.61s-.84.8-1.44 1c.69.21 1.25.57 1.67 1.07s.63 1.08.63 1.75c0 1.02-.34 1.81-1.02 2.36s-1.56.82-2.63.82-1.98-.27-2.65-.82-1.01-1.33-1.01-2.36c0-.67.21-1.26.62-1.75s.96-.85 1.66-1.07c-.6-.21-1.07-.54-1.43-1s-.53-1-.53-1.61c0-.98.31-1.74.93-2.28s1.42-.81 2.4-.81 1.78.27 2.41.82.94 1.3.94 2.28Zm-.62 5.43c0-.72-.26-1.3-.78-1.75s-1.17-.67-1.95-.67-1.44.22-1.95.67-.77 1.03-.77 1.75.25 1.33.76 1.75 1.16.63 1.98.63 1.44-.21 1.95-.64.77-1 .77-1.74Zm-.32-5.44c0-.66-.23-1.2-.69-1.64s-1.04-.65-1.72-.65-1.28.21-1.73.62-.67.97-.67 1.66.23 1.21.68 1.61 1.03.61 1.74.61 1.27-.2 1.72-.61.68-.94.68-1.61Zm7.49-3.08c.39 0 .78.04 1.16.13s.72.22 1.02.38l-.24.77c-.3-.17-.59-.29-.88-.37s-.64-.12-1.05-.12c-.84 0-1.54.33-2.1.98s-.83 1.52-.83 2.59v1.01c.31-.41.71-.73 1.2-.98s1.02-.37 1.61-.37c1.02 0 1.83.35 2.42 1.05s.89 1.62.89 2.75-.32 2.04-.96 2.77-1.47 1.09-2.49 1.09-1.91-.39-2.59-1.17-1.02-1.85-1.02-3.21v-2.87c0-1.31.37-2.38 1.12-3.21s1.66-1.24 2.75-1.24Zm-.31 4.8c-.63 0-1.18.16-1.65.49-.47.33-.79.75-.96 1.26v.83c0 1.09.25 1.95.75 2.57.5.63 1.14.94 1.92.94s1.37-.3 1.82-.89.68-1.32.68-2.18c0-.91-.22-1.64-.66-2.2s-1.08-.83-1.9-.83Zm6.92 6.74h-1.07v-1.28h1.07v1.28Zm9.01-10.58c-1.23 1.46-2.17 2.94-2.82 4.44s-1.09 3.23-1.3 5.18l-.09.95h-.94l.09-.95c.22-1.93.67-3.67 1.36-5.23s1.6-3.02 2.73-4.39h-6.49v-.8h7.46v.8Zm2.28 5.43.63-6.23h5.52v.87h-4.73l-.42 4.05c.29-.26.6-.46.95-.6s.81-.22 1.4-.23c.97-.02 1.75.31 2.34.98s.89 1.56.89 2.69-.29 2.07-.86 2.76-1.44 1.03-2.6 1.03c-.94 0-1.72-.26-2.34-.79s-.92-1.3-.9-2.32l.02-.05h.84c0 .76.22 1.35.65 1.75.43.41 1.01.61 1.74.61.84 0 1.48-.25 1.89-.76s.63-1.25.63-2.22c0-.85-.21-1.53-.63-2.04s-1.01-.77-1.76-.77-1.29.12-1.67.35-.66.58-.83 1.05l-.76-.12Zm14.93 1.48h1.78v.8h-1.78v2.87h-.93v-2.87h-5.34v-.54l5.24-7.97h1.02v7.71Zm-5.16 0h4.23v-6.48l-.05-.02-.4.85-3.78 5.65Zm92.13 3.67h-7.06v-.73l3.73-4.22c.69-.78 1.17-1.43 1.46-1.95s.43-1.02.43-1.5c0-.71-.2-1.28-.6-1.7s-.96-.64-1.69-.64c-.86 0-1.52.24-1.97.72s-.67 1.12-.67 1.92h-.87l-.02-.05c-.03-.95.28-1.75.92-2.41s1.51-.98 2.6-.98c.98 0 1.76.28 2.35.84s.88 1.32.88 2.27c0 .62-.2 1.26-.59 1.9s-.94 1.36-1.64 2.15l-3.13 3.54.02.04h5.86v.8Zm3.36-.14-.83 2.16h-.64l.54-2.18v-1.3h.93v1.33Zm9.56.14h-7.06v-.73l3.73-4.22c.69-.78 1.17-1.43 1.46-1.95s.43-1.02.43-1.5c0-.71-.2-1.28-.6-1.7s-.96-.64-1.69-.64c-.86 0-1.52.24-1.97.72s-.67 1.12-.67 1.92h-.87l-.02-.05c-.03-.95.28-1.75.92-2.41s1.51-.98 2.6-.98c.98 0 1.76.28 2.35.84s.88 1.32.88 2.27c0 .62-.2 1.26-.59 1.9s-.94 1.36-1.64 2.15l-3.13 3.54.02.04h5.86v.8Zm6.43-9.19c0-.66.2-1.22.61-1.67.41-.45.95-.68 1.61-.68s1.2.23 1.61.68c.41.45.61 1.01.61 1.67v.6c0 .66-.2 1.21-.61 1.66s-.94.68-1.59.68-1.21-.23-1.62-.68c-.41-.45-.62-1-.62-1.66v-.6Zm.75.6c0 .46.13.85.39 1.17s.63.48 1.11.48.82-.16 1.07-.48c.25-.32.38-.71.38-1.17v-.6c0-.46-.13-.85-.38-1.18-.26-.33-.62-.49-1.09-.49s-.83.16-1.09.49-.39.72-.39 1.18v.6Zm1.98 7.64-.58-.38 5.55-8.89.58.38-5.55 8.89Zm2.98-1.84c0-.66.2-1.21.61-1.66.41-.45.95-.68 1.61-.68s1.2.23 1.61.68c.41.45.62 1.01.62 1.66v.61c0 .66-.21 1.21-.61 1.66-.41.45-.94.68-1.6.68s-1.21-.23-1.62-.68c-.41-.45-.62-1-.62-1.66v-.61Zm.76.61c0 .46.13.85.38 1.17.25.32.62.48 1.1.48s.82-.16 1.07-.48c.25-.32.38-.71.38-1.17v-.61c0-.47-.13-.87-.38-1.19-.26-.32-.62-.48-1.09-.48s-.83.16-1.09.48c-.26.32-.38.71-.38 1.18v.61Zm-301.72 37.52h-4.45l-.91 2.66H97.9l4.18-11.38h1.8l4.13 11.38h-1.93l-.9-2.66Zm-3.91-1.59h3.37l-1.65-4.86h-.05l-1.67 4.86Zm11 1.27.2.79h.05l.2-.77 2.72-8.41h2.02l-4.06 11.38h-1.8l-4.05-11.38h2.02l2.71 8.4Zm14.77 0 .2.79h.05l.2-.77 2.72-8.41h2.02l-4.06 11.38h-1.8l-4.05-11.38h2.02l2.71 8.4Zm8.72-7.55h-1.9v-1.66h1.9v1.66Zm0 10.52h-1.9v-8.45h1.9v8.45Zm4.34.01h-1.9v-12.19h1.9v12.19Zm4.34 0h-1.9v-12.19h1.9v12.19Zm7.44 0c-.07-.21-.12-.42-.17-.62-.04-.2-.07-.41-.09-.61-.26.4-.6.73-1.03 1-.42.27-.9.4-1.43.4-.88 0-1.56-.23-2.03-.68-.47-.45-.71-1.08-.71-1.87s.32-1.45.97-1.91c.65-.46 1.55-.68 2.73-.68h1.48v-.74c0-.44-.13-.79-.39-1.04s-.63-.38-1.12-.38c-.43 0-.78.1-1.03.31a.98.98 0 0 0-.38.8h-1.83v-.05c-.04-.67.25-1.26.89-1.77s1.46-.77 2.47-.77 1.78.25 2.38.75c.6.5.91 1.22.91 2.16v3.76c0 .35.02.68.07 1s.12.63.23.94h-1.92Zm-2.33-1.36c.48 0 .91-.12 1.29-.36s.64-.51.76-.82v-1.25h-1.51c-.55 0-.98.14-1.3.41s-.47.59-.47.96c0 .32.11.58.32.77s.51.29.9.29Zm10.89-.94c0-.29-.12-.53-.38-.73s-.72-.36-1.4-.51c-1.01-.21-1.77-.52-2.29-.91s-.78-.93-.78-1.61.3-1.31.9-1.81 1.39-.75 2.37-.75c1.03 0 1.85.25 2.46.76s.9 1.14.87 1.89l-.02.05h-1.82c0-.35-.13-.65-.4-.9s-.63-.38-1.09-.38-.81.1-1.05.31-.36.46-.36.75.11.53.34.71.69.33 1.38.46c1.06.22 1.85.53 2.36.93s.77.94.77 1.63c0 .76-.31 1.38-.94 1.85s-1.45.71-2.48.71c-1.1 0-1.97-.28-2.6-.84s-.94-1.21-.91-1.94l.02-.05h1.77c.02.49.2.85.53 1.07s.74.34 1.22.34.87-.09 1.13-.28.4-.44.4-.76Zm94.57-8.28c-1.23 1.46-2.17 2.94-2.82 4.44s-1.09 3.23-1.3 5.18l-.09.95h-.94l.09-.95c.22-1.93.67-3.67 1.36-5.23s1.6-3.02 2.73-4.39h-6.49v-.8h7.46v.8Zm6.54 6.91h1.78v.8h-1.78v2.87h-.93v-2.87h-5.34v-.54l5.24-7.97h1.02v7.71Zm-5.16 0h4.23v-6.48l-.05-.02-.4.85-3.78 5.65Zm10.03 3.67h-1.07v-1.28h1.07v1.28Zm5.6.05h-.94v-10.45l-2.89.34v-.66l3.83-.69v11.46Zm7.78 0h-.94v-10.45l-2.89.34v-.66l3.83-.69v11.46Zm5.95-6.25h1.09c.83 0 1.46-.21 1.88-.62s.64-.95.64-1.6c0-.71-.2-1.27-.6-1.7s-1-.63-1.79-.63c-.73 0-1.33.21-1.79.64s-.7 1-.7 1.7h-.88l-.02-.05c-.03-.89.28-1.62.93-2.21s1.46-.88 2.45-.88 1.82.28 2.43.84.9 1.33.9 2.32c0 .54-.17 1.04-.5 1.51s-.8.82-1.41 1.05c.71.2 1.24.55 1.59 1.03s.53 1.05.53 1.71c0 1.01-.33 1.8-.98 2.38s-1.49.87-2.52.87-1.85-.28-2.56-.85-1.06-1.35-1.03-2.36l.02-.05h.88c0 .72.25 1.31.75 1.77s1.15.69 1.95.69 1.44-.21 1.89-.63.68-1.02.68-1.8-.24-1.38-.71-1.77-1.15-.57-2.03-.57h-1.09v-.8Zm92.49 6.25h-.94v-10.45l-2.89.34v-.66l3.83-.69v11.46Zm5.04-.19-.83 2.16h-.64l.54-2.18v-1.3h.93v1.33Zm5.06-.5c.86 0 1.55-.29 2.06-.87.51-.58.77-1.4.77-2.48v-1.14c-.28.48-.65.85-1.11 1.11-.47.26-.99.39-1.56.39-1.04 0-1.87-.36-2.5-1.08s-.95-1.65-.95-2.79.33-2.11 1-2.89 1.49-1.16 2.46-1.16c1.1 0 1.98.36 2.64 1.07.66.72.99 1.76.99 3.12v3.35c0 1.32-.35 2.34-1.05 3.07-.7.73-1.62 1.09-2.75 1.09-.41 0-.81-.04-1.22-.12-.41-.08-.8-.2-1.17-.36l.17-.78c.35.17.7.29 1.05.36.35.07.74.11 1.17.11Zm.16-3.78c.68 0 1.24-.17 1.7-.52.46-.35.78-.77.97-1.28v-1.2c0-1.08-.24-1.9-.71-2.47-.47-.57-1.11-.85-1.92-.85-.73 0-1.34.32-1.82.95s-.71 1.4-.71 2.3.22 1.6.67 2.19c.45.59 1.05.88 1.81.88Zm10.41-4.77c0-.66.2-1.22.61-1.67s.95-.68 1.61-.68 1.2.23 1.61.68.61 1.01.61 1.67v.6c0 .66-.2 1.21-.61 1.66s-.94.68-1.59.68-1.21-.23-1.62-.68-.62-1-.62-1.66v-.6Zm.75.6c0 .46.13.85.39 1.17s.63.48 1.11.48.82-.16 1.07-.48.38-.71.38-1.17v-.6c0-.46-.13-.85-.38-1.18s-.62-.49-1.09-.49-.83.16-1.09.49-.39.72-.39 1.18v.6Zm1.98 7.64-.58-.38 5.55-8.89.58.38-5.55 8.89Zm2.98-1.84c0-.66.2-1.21.61-1.66s.95-.68 1.61-.68 1.2.23 1.61.68.62 1.01.62 1.66v.61c0 .66-.2 1.21-.61 1.66s-.94.68-1.6.68-1.21-.23-1.62-.68-.62-1-.62-1.66v-.61Zm.76.61c0 .46.13.85.38 1.17s.62.48 1.1.48.82-.16 1.07-.48.38-.71.38-1.17v-.61c0-.47-.13-.87-.38-1.19s-.62-.48-1.09-.48-.83.16-1.09.48-.38.71-.38 1.18v.61Zm-298.06 36.4.02.05c.02 1.15-.35 2.09-1.12 2.81-.77.72-1.81 1.08-3.12 1.08s-2.41-.45-3.24-1.34c-.83-.89-1.25-2.04-1.25-3.43v-2.16c0-1.39.41-2.53 1.23-3.43s1.89-1.35 3.2-1.35 2.4.35 3.18 1.06 1.15 1.66 1.13 2.85l-.02.05h-1.84c0-.77-.21-1.36-.62-1.79s-1.03-.64-1.83-.64-1.39.31-1.85.92c-.46.61-.68 1.38-.68 2.31v2.18c0 .94.23 1.71.7 2.33.47.61 1.09.92 1.89.92s1.38-.21 1.79-.63c.41-.42.61-1.01.61-1.78h1.83Zm6.16-2.96-.81-.03c-.37 0-.68.08-.93.23s-.44.38-.57.66v5.88h-1.9v-8.45H111l.12 1.23c.21-.43.49-.77.82-1.02s.72-.37 1.16-.37c.11 0 .22 0 .32.03s.19.04.27.07l-.23 1.77Zm5.15 6.9c-1.2 0-2.15-.39-2.86-1.18s-1.07-1.79-1.07-3.02v-.31c0-1.23.35-2.25 1.06-3.06s1.59-1.21 2.65-1.21c1.14 0 2.01.34 2.62 1.04s.91 1.62.91 2.78v1.12h-5.27l-.02.04c.03.67.23 1.22.59 1.64s.86.64 1.5.64c.51 0 .95-.06 1.31-.19s.72-.3 1.05-.54l.61 1.25c-.32.28-.74.52-1.27.71-.53.19-1.14.29-1.83.29Zm-.22-7.25c-.47 0-.85.19-1.16.56s-.49.84-.56 1.42l.02.04h3.35v-.2c0-.54-.14-.97-.41-1.31s-.69-.51-1.24-.51Zm5.14 2.98c0-1.35.29-2.44.87-3.26s1.39-1.24 2.44-1.24c.46 0 .87.09 1.23.28s.68.45.94.79v-4.65h1.9v12.19h-1.59l-.19-1.05c-.27.4-.6.7-.98.9s-.82.31-1.33.31c-1.04 0-1.84-.38-2.42-1.13s-.87-1.75-.87-2.98v-.16Zm1.9.16c0 .78.15 1.4.45 1.87s.77.7 1.43.7c.4 0 .74-.09 1.02-.26s.51-.42.68-.73v-3.69c-.18-.31-.41-.56-.69-.73s-.61-.26-1-.26c-.65 0-1.12.27-1.43.82s-.46 1.25-.46 2.13v.16Zm9.78-6.58h-1.9v-1.66h1.9v1.66Zm0 10.52h-1.9v-8.45h1.9v8.45Zm2.95.01v-7.05h-1.29v-1.41h1.29v-.98c0-.93.25-1.65.76-2.16s1.22-.76 2.14-.76c.18 0 .37.01.55.04s.4.07.63.12l-.2 1.47c-.1-.02-.22-.04-.35-.05s-.26-.02-.41-.02c-.41 0-.72.12-.93.35s-.31.57-.31 1.01v.98h1.72v1.41h-1.72v7.05h-1.9Zm10.24 0c-.07-.21-.12-.42-.17-.62-.04-.2-.07-.41-.09-.61-.26.4-.6.73-1.03 1-.42.27-.9.4-1.43.4-.88 0-1.56-.23-2.03-.68-.47-.45-.71-1.08-.71-1.87s.32-1.45.97-1.91c.65-.46 1.55-.68 2.73-.68h1.48v-.74c0-.44-.13-.79-.39-1.04s-.63-.38-1.12-.38c-.43 0-.78.1-1.03.31a.98.98 0 0 0-.38.8h-1.83v-.05c-.04-.67.25-1.26.89-1.77s1.46-.77 2.47-.77 1.78.25 2.38.75c.6.5.91 1.22.91 2.16v3.76c0 .35.02.68.07 1s.12.63.23.94h-1.92Zm-2.33-1.36c.48 0 .91-.12 1.29-.36s.64-.51.76-.82v-1.25h-1.51c-.55 0-.98.14-1.3.41s-.47.59-.47.96c0 .32.11.58.32.77s.51.29.9.29Zm8.01-7.1.1 1.1c.28-.4.62-.71 1.04-.93.42-.22.9-.33 1.45-.33s1.03.12 1.42.38c.4.25.69.62.89 1.12.26-.47.6-.84 1.03-1.1.43-.27.93-.4 1.5-.4.85 0 1.52.29 2.01.87s.74 1.46.74 2.64v5.09h-1.9v-5.1c0-.72-.12-1.22-.37-1.52-.25-.29-.62-.44-1.11-.44-.41 0-.75.11-1.03.33s-.48.51-.61.88v5.84h-1.9v-5.1c0-.69-.13-1.19-.38-1.5-.25-.3-.62-.46-1.11-.46-.39 0-.71.07-.98.22s-.48.36-.64.63v6.2h-1.9v-8.45h1.73Zm14.45-2.07h-1.9v-1.66h1.9v1.66Zm0 10.52h-1.9v-8.45h1.9v8.45Zm4.34.01h-1.9v-12.19h1.9v12.19Zm4.35-10.53h-1.9v-1.66h1.9v1.66Zm0 10.52h-1.9v-8.45h1.9v8.45Zm7.43.01c-.07-.21-.12-.42-.17-.62s-.07-.41-.09-.61c-.26.4-.6.73-1.03 1s-.9.4-1.43.4c-.88 0-1.56-.23-2.03-.68s-.71-1.08-.71-1.87.32-1.45.97-1.91 1.55-.68 2.73-.68h1.48v-.74c0-.44-.13-.79-.39-1.04s-.63-.38-1.12-.38c-.43 0-.78.1-1.03.31s-.38.48-.38.8h-1.83v-.05c-.04-.67.25-1.26.89-1.77s1.46-.77 2.47-.77 1.78.25 2.38.75.91 1.22.91 2.16v3.76c0 .35.02.68.07 1s.12.63.23.94h-1.92Zm-2.33-1.36c.48 0 .91-.12 1.29-.36s.64-.51.76-.82v-1.25h-1.51c-.55 0-.98.14-1.3.41s-.47.59-.47.96c0 .32.11.58.32.77s.51.29.9.29ZM252 478.1c.39 0 .78.04 1.16.13s.72.22 1.02.38l-.24.77c-.3-.17-.59-.29-.88-.37s-.64-.12-1.05-.12c-.84 0-1.54.33-2.1.98s-.83 1.52-.83 2.59v1.01c.31-.41.71-.73 1.2-.98s1.02-.37 1.61-.37c1.02 0 1.83.35 2.42 1.05s.89 1.62.89 2.75-.32 2.04-.96 2.77-1.47 1.09-2.49 1.09-1.91-.39-2.59-1.17-1.02-1.85-1.02-3.21v-2.87c0-1.31.37-2.38 1.12-3.21s1.66-1.24 2.75-1.24Zm-.31 4.8c-.63 0-1.18.16-1.65.49-.47.33-.79.75-.96 1.26v.83c0 1.09.25 1.95.75 2.57.5.63 1.14.94 1.92.94s1.37-.3 1.82-.89.68-1.32.68-2.18c0-.91-.22-1.64-.66-2.2s-1.08-.83-1.9-.83Zm11.76 3.07h1.78v.8h-1.78v2.87h-.93v-2.87h-5.34v-.54l5.24-7.97h1.02v7.71Zm-5.16 0h4.23v-6.48l-.05-.02-.4.85-3.78 5.65Zm10.03 3.67h-1.07v-1.28h1.07v1.28Zm4.95-6.2h1.09c.83 0 1.46-.21 1.88-.62s.64-.95.64-1.6c0-.71-.2-1.27-.6-1.7s-1-.63-1.79-.63c-.73 0-1.33.21-1.79.64s-.7 1-.7 1.7h-.88l-.02-.05c-.03-.89.28-1.62.93-2.21s1.46-.88 2.45-.88 1.82.28 2.43.84.9 1.33.9 2.32c0 .54-.17 1.04-.5 1.51s-.8.82-1.41 1.05c.71.2 1.24.55 1.59 1.03s.53 1.05.53 1.71c0 1.01-.33 1.8-.98 2.38s-1.49.87-2.52.87-1.85-.28-2.56-.85-1.06-1.35-1.03-2.36l.02-.05h.88c0 .72.25 1.31.75 1.77s1.15.69 1.95.69 1.44-.21 1.89-.63.68-1.02.68-1.8-.24-1.38-.71-1.77-1.15-.57-2.03-.57h-1.09v-.8Zm14.04-2.25c0 .61-.18 1.15-.54 1.61s-.84.8-1.44 1c.69.21 1.25.57 1.67 1.07s.63 1.08.63 1.75c0 1.02-.34 1.81-1.02 2.36s-1.56.82-2.63.82-1.98-.27-2.65-.82-1.01-1.33-1.01-2.36c0-.67.21-1.26.62-1.75s.96-.85 1.66-1.07c-.6-.21-1.07-.54-1.43-1s-.53-1-.53-1.61c0-.98.31-1.74.93-2.28s1.42-.81 2.4-.81 1.78.27 2.41.82.94 1.3.94 2.28Zm-.62 5.43c0-.72-.26-1.3-.78-1.75s-1.17-.67-1.95-.67-1.44.22-1.95.67-.77 1.03-.77 1.75.25 1.33.76 1.75 1.16.63 1.98.63 1.44-.21 1.95-.64.77-1 .77-1.74Zm-.32-5.44c0-.66-.23-1.2-.69-1.64s-1.04-.65-1.72-.65-1.28.21-1.73.62-.67.97-.67 1.66.23 1.21.68 1.61 1.03.61 1.74.61 1.27-.2 1.72-.61.68-.94.68-1.61Zm5.8 2.26h1.09c.83 0 1.46-.21 1.88-.62s.64-.95.64-1.6c0-.71-.2-1.27-.6-1.7s-1-.63-1.79-.63c-.73 0-1.33.21-1.79.64s-.7 1-.7 1.7h-.88l-.02-.05c-.03-.89.28-1.62.93-2.21s1.46-.88 2.45-.88 1.82.28 2.43.84.9 1.33.9 2.32c0 .54-.17 1.04-.5 1.51s-.8.82-1.41 1.05c.71.2 1.24.55 1.59 1.03s.53 1.05.53 1.71c0 1.01-.33 1.8-.98 2.38s-1.49.87-2.52.87-1.85-.28-2.56-.85-1.06-1.35-1.03-2.36l.02-.05h.88c0 .72.25 1.31.75 1.77s1.15.69 1.95.69 1.44-.21 1.89-.63.68-1.02.68-1.8-.24-1.38-.71-1.77-1.15-.57-2.03-.57h-1.09v-.8Zm86.07 6.25h-.94v-10.45l-2.89.34v-.66l3.83-.69v11.46Zm5.04-.19-.83 2.16h-.64l.54-2.18v-1.3h.93v1.33Zm8.76-10.44c-1.23 1.46-2.17 2.94-2.82 4.44-.65 1.5-1.09 3.23-1.3 5.18l-.09.95h-.94l.09-.95c.22-1.93.67-3.67 1.36-5.23s1.6-3.02 2.73-4.39h-6.49v-.8h7.46v.8Zm6.5 1.39c0-.66.2-1.22.61-1.67s.95-.68 1.61-.68 1.2.23 1.61.68.61 1.01.61 1.67v.6c0 .66-.2 1.21-.61 1.66s-.94.68-1.59.68-1.21-.23-1.62-.68-.62-1-.62-1.66v-.6Zm.75.6c0 .46.13.85.39 1.17s.63.48 1.11.48.82-.16 1.07-.48.38-.71.38-1.17v-.6c0-.46-.13-.85-.38-1.18s-.62-.49-1.09-.49-.83.16-1.09.49-.39.72-.39 1.18v.6Zm1.98 7.64-.58-.38 5.55-8.89.58.38-5.55 8.89Zm2.98-1.84c0-.66.2-1.21.61-1.66s.95-.68 1.61-.68 1.2.23 1.61.68.62 1.01.62 1.66v.61c0 .66-.2 1.21-.61 1.66s-.94.68-1.6.68-1.21-.23-1.62-.68-.62-1-.62-1.66v-.61Zm.76.61c0 .46.13.85.38 1.17s.62.48 1.1.48.82-.16 1.07-.48.38-.71.38-1.17v-.61c0-.47-.13-.87-.38-1.19s-.62-.48-1.09-.48-.83.16-1.09.48-.38.71-.38 1.18v.61Zm-297.12 35.51c0 1.39-.44 2.54-1.31 3.46-.87.91-2 1.37-3.39 1.37s-2.47-.46-3.32-1.37-1.28-2.07-1.28-3.46v-2.05c0-1.39.43-2.54 1.28-3.45s1.96-1.38 3.32-1.38 2.52.46 3.4 1.38 1.31 2.07 1.31 3.45v2.05Zm-1.89-2.06c0-.95-.25-1.73-.76-2.34s-1.19-.91-2.06-.91-1.49.3-1.98.91-.73 1.39-.73 2.34v2.06c0 .96.24 1.74.73 2.36s1.15.92 1.98.92 1.56-.3 2.06-.91c.5-.61.75-1.4.75-2.36v-2.06Zm6.59-3.78v2.05h1.52v1.41h-1.52v4.67c0 .35.08.6.23.75s.35.22.6.22c.1 0 .21 0 .3-.03s.19-.04.28-.07l.2 1.39c-.16.09-.35.16-.58.21s-.46.07-.7.07c-.7 0-1.25-.2-1.64-.61s-.59-1.05-.59-1.93v-4.67h-1.29v-1.41h1.29v-2.05h1.89Zm7.56 3.77-.81-.03c-.37 0-.68.08-.93.23-.25.16-.44.38-.57.66v5.88h-1.9v-8.45h1.73l.12 1.23c.21-.43.49-.77.82-1.02s.72-.37 1.16-.37c.11 0 .22 0 .32.03.1.02.19.04.27.07l-.23 1.77Zm1.18 2.43c0-1.25.34-2.29 1.03-3.09.7-.81 1.64-1.21 2.84-1.21s2.16.4 2.85 1.21c.69.8 1.04 1.83 1.04 3.09v.16c0 1.27-.35 2.31-1.04 3.11-.69.8-1.63 1.2-2.84 1.2s-2.16-.4-2.85-1.2c-.69-.8-1.03-1.84-1.03-3.1v-.16Zm1.9.16c0 .82.16 1.49.48 2.01.32.51.82.77 1.5.77s1.16-.26 1.48-.77c.33-.52.5-1.19.5-2.01v-.16c0-.81-.17-1.47-.5-1.99-.33-.53-.83-.79-1.5-.79s-1.16.26-1.48.79c-.32.53-.48 1.19-.48 1.99v.16Zm12.47 1.85c0-.29-.12-.53-.38-.73s-.72-.36-1.4-.51c-1.01-.21-1.78-.52-2.29-.91-.52-.39-.78-.93-.78-1.61s.3-1.31.9-1.81c.6-.5 1.39-.75 2.37-.75 1.03 0 1.85.25 2.46.76.61.51.9 1.14.87 1.89l-.02.05h-1.82c0-.35-.13-.65-.4-.9s-.63-.38-1.09-.38-.81.1-1.05.31-.36.46-.36.75.11.53.34.71.69.33 1.38.46c1.06.22 1.85.53 2.36.93.51.4.77.94.77 1.63 0 .76-.31 1.38-.94 1.85-.63.47-1.46.71-2.48.71-1.1 0-1.97-.28-2.6-.84-.64-.56-.94-1.21-.91-1.94l.02-.05h1.77c.02.49.2.85.53 1.07.33.22.74.34 1.22.34s.87-.09 1.13-.28.4-.44.4-.76Zm116.54 2.35h-.94v-10.45l-2.89.34v-.66l3.83-.69v11.46Zm10.98-10.63c-1.23 1.46-2.17 2.94-2.82 4.44-.65 1.5-1.09 3.23-1.3 5.18l-.09.95h-.94l.09-.95c.22-1.93.67-3.67 1.36-5.23s1.6-3.02 2.73-4.39h-6.49v-.8h7.46v.8Zm9.18 10.58h-7.06v-.73l3.73-4.22c.69-.78 1.17-1.43 1.46-1.95s.43-1.02.43-1.5c0-.71-.2-1.28-.6-1.7s-.96-.64-1.69-.64c-.86 0-1.52.24-1.97.72s-.67 1.12-.67 1.92h-.87l-.02-.05c-.03-.95.28-1.75.92-2.41s1.51-.98 2.6-.98c.98 0 1.76.28 2.35.84s.88 1.32.88 2.27c0 .62-.2 1.26-.59 1.9s-.94 1.36-1.64 2.15l-3.13 3.54.02.04h5.86v.8Zm3.51 0h-1.07v-1.28h1.07v1.28Zm5.6.05h-.94v-10.45l-2.89.34v-.66l3.83-.69v11.46Zm7.78 0h-.94v-10.45l-2.89.34v-.66l3.83-.69v11.46Zm4.14-5.2.63-6.23h5.52v.87h-4.73l-.42 4.05c.29-.26.6-.46.95-.6s.81-.22 1.4-.23c.97-.02 1.75.31 2.34.98s.89 1.56.89 2.69-.29 2.07-.86 2.76c-.58.69-1.44 1.03-2.6 1.03-.94 0-1.72-.26-2.34-.79s-.92-1.3-.9-2.32l.02-.05h.84c0 .76.22 1.35.65 1.75.43.41 1.01.61 1.74.61.84 0 1.47-.25 1.89-.76.42-.51.63-1.25.63-2.22 0-.85-.21-1.53-.63-2.04-.42-.51-1.01-.77-1.76-.77s-1.29.12-1.67.35-.66.58-.83 1.05l-.76-.12Zm86.32 1.48h1.78v.8h-1.78v2.87h-.93v-2.87h-5.34v-.54l5.24-7.97h1.02v7.71Zm-5.16 0h4.23v-6.48l-.05-.02-.4.85-3.78 5.65Zm9.85 3.53-.83 2.16h-.64l.54-2.18v-1.3h.93v1.33Zm8.25-3.53h1.78v.8h-1.78v2.87h-.93v-2.87h-5.34v-.54l5.24-7.97h1.02v7.71Zm-5.16 0h4.23v-6.48l-.05-.02-.4.85-3.78 5.65Zm12.92-5.52c0-.66.2-1.22.61-1.67s.95-.68 1.61-.68 1.2.23 1.61.68.61 1.01.61 1.67v.6c0 .66-.2 1.21-.61 1.66s-.94.68-1.59.68-1.21-.23-1.62-.68-.62-1-.62-1.66v-.6Zm.75.6c0 .46.13.85.39 1.17s.63.48 1.11.48.82-.16 1.07-.48.38-.71.38-1.17v-.6c0-.46-.13-.85-.38-1.18s-.62-.49-1.09-.49-.83.16-1.09.49-.39.72-.39 1.18v.6Zm1.98 7.64-.58-.38 5.55-8.89.58.38-5.55 8.89Zm2.98-1.84c0-.66.2-1.21.61-1.66s.95-.68 1.61-.68 1.2.23 1.61.68.62 1.01.62 1.66v.61c0 .66-.2 1.21-.61 1.66s-.94.68-1.6.68-1.21-.23-1.62-.68-.62-1-.62-1.66v-.61Zm.76.61c0 .46.13.85.38 1.17s.62.48 1.1.48.82-.16 1.07-.48.38-.71.38-1.17v-.61c0-.47-.13-.87-.38-1.19s-.62-.48-1.09-.48-.83.16-1.09.48-.38.71-.38 1.18v.61Zm-299.66 39.48h-3.42v10.22h-2.42v-10.22h-3.4v-1.87h9.25v1.87Zm-.38 5.65c0-1.34.37-2.44 1.12-3.29.75-.85 1.78-1.28 3.1-1.28s2.37.43 3.12 1.28c.75.85 1.13 1.95 1.13 3.29v.17c0 1.35-.38 2.45-1.12 3.3s-1.79 1.27-3.11 1.27-2.37-.42-3.12-1.27-1.12-1.95-1.12-3.3v-.17Zm2.42.17c0 .82.14 1.47.43 1.97s.75.74 1.39.74 1.08-.25 1.37-.75c.29-.5.44-1.15.44-1.96v-.17c0-.79-.15-1.44-.44-1.95-.29-.5-.75-.75-1.39-.75s-1.08.25-1.37.76c-.29.51-.44 1.15-.44 1.94v.17Zm10.53-6.78v2.2h1.51v1.7h-1.51v4.57c0 .35.07.6.22.75.14.15.34.22.58.22.13 0 .24 0 .33-.02.09-.01.2-.04.32-.07l.21 1.75c-.24.08-.48.14-.71.19-.23.04-.48.06-.76.06-.83 0-1.48-.23-1.93-.69s-.68-1.19-.68-2.18v-4.58h-1.31v-1.7h1.31v-2.2h2.42Zm8.43 11.18c-.09-.21-.16-.42-.23-.65a5.42 5.42 0 0 1-.14-.7c-.25.44-.58.8-.98 1.09-.41.29-.89.43-1.46.43-.94 0-1.67-.24-2.17-.73-.51-.48-.76-1.14-.76-1.98 0-.88.34-1.56 1.02-2.05.68-.48 1.67-.73 2.97-.73h1.35v-.71c0-.43-.11-.77-.34-1-.23-.24-.56-.36-1-.36-.39 0-.7.09-.91.29-.21.19-.32.46-.32.79h-2.34v-.06c-.04-.76.29-1.41.99-1.96s1.61-.83 2.75-.83c1.07 0 1.95.27 2.62.82.67.54 1 1.32 1 2.33v3.71a6.438 6.438 0 0 0 .4 2.29h-2.42Zm-2.22-1.62c.43 0 .8-.1 1.14-.31.33-.21.56-.45.67-.73v-1.27h-1.35c-.51 0-.9.13-1.17.39-.27.26-.4.57-.4.93 0 .3.1.54.3.72s.47.27.81.27Zm8.75 1.62h-2.42v-12.95h2.42v12.95Zm6.16-4.42c0-1.42.31-2.56.93-3.43.62-.87 1.48-1.3 2.59-1.3.5 0 .95.11 1.33.34.38.23.71.55.98.97l.19-1.15h2.09v8.94c0 1.17-.38 2.07-1.15 2.71-.77.64-1.83.96-3.2.96-.45 0-.94-.06-1.44-.19a6.2 6.2 0 0 1-1.41-.51l.45-1.81c.37.18.75.31 1.13.4.38.09.8.14 1.26.14.66 0 1.15-.14 1.46-.42s.47-.71.47-1.29v-.81c-.27.34-.58.59-.94.77-.36.18-.77.27-1.24.27-1.1 0-1.96-.41-2.58-1.22s-.93-1.88-.93-3.2v-.17Zm2.42.18c0 .79.13 1.41.4 1.87.27.45.7.68 1.29.68.37 0 .69-.07.94-.2.26-.14.46-.34.62-.6v-3.92c-.15-.27-.36-.48-.62-.63-.26-.15-.57-.22-.93-.22-.59 0-1.02.26-1.3.79-.27.53-.41 1.22-.41 2.07v.18Zm11.64 4.41c-1.29 0-2.33-.41-3.1-1.24-.78-.83-1.16-1.88-1.16-3.16v-.33c0-1.33.37-2.43 1.1-3.3s1.72-1.29 2.95-1.29c1.21 0 2.15.37 2.82 1.1.67.73 1 1.72 1 2.96v1.32h-5.36l-.02.05c.04.59.24 1.07.59 1.46.35.38.83.57 1.43.57.54 0 .98-.05 1.34-.16.35-.11.74-.28 1.16-.51l.66 1.5c-.37.3-.84.55-1.44.75-.59.2-1.25.3-1.98.3Zm-.22-7.45c-.45 0-.8.17-1.06.51-.26.34-.42.79-.48 1.35l.02.04h2.97v-.21c0-.52-.12-.93-.36-1.23-.24-.31-.6-.46-1.09-.46Zm7.73-1.7.11 1.29c.3-.46.67-.82 1.1-1.07.44-.25.93-.38 1.47-.38.91 0 1.62.29 2.12.85.51.57.76 1.46.76 2.68v5.61h-2.43v-5.62c0-.6-.12-1.03-.37-1.29-.24-.25-.61-.38-1.1-.38-.32 0-.61.06-.86.2-.25.13-.47.31-.64.55v6.53h-2.42v-8.98h2.26Zm11.46 9.15c-1.29 0-2.33-.41-3.1-1.24-.78-.83-1.16-1.88-1.16-3.16v-.33c0-1.33.37-2.43 1.1-3.3s1.72-1.29 2.95-1.29c1.21 0 2.15.37 2.82 1.1.67.73 1 1.72 1 2.96v1.32h-5.36l-.02.05c.04.59.24 1.07.59 1.46.35.38.83.57 1.43.57.54 0 .98-.05 1.34-.16.35-.11.74-.28 1.16-.51l.66 1.5c-.37.3-.84.55-1.44.75-.59.2-1.25.3-1.98.3Zm-.22-7.45c-.45 0-.8.17-1.06.51-.26.34-.42.79-.48 1.35l.02.04h2.97v-.21c0-.52-.12-.93-.36-1.23-.24-.31-.6-.46-1.09-.46Zm10.22.38-.89-.02c-.36 0-.66.08-.89.22-.23.15-.41.36-.53.63v6.07h-2.42v-8.98h2.25l.11 1.33c.21-.47.48-.84.82-1.1s.72-.39 1.16-.39c.12 0 .23 0 .34.03s.21.04.31.07l-.26 2.15Zm6.6 6.9c-.09-.21-.17-.42-.23-.65s-.11-.46-.14-.7c-.25.44-.58.8-.98 1.09-.41.29-.89.43-1.46.43-.94 0-1.67-.24-2.17-.73-.51-.48-.76-1.14-.76-1.98 0-.88.34-1.56 1.02-2.05s1.67-.73 2.97-.73h1.35v-.71c0-.43-.11-.77-.34-1-.23-.24-.56-.36-1-.36-.39 0-.7.09-.91.29-.21.19-.32.46-.32.79h-2.34v-.06c-.04-.76.29-1.41.99-1.96s1.61-.83 2.75-.83c1.07 0 1.95.27 2.61.82.67.54 1 1.32 1 2.33v3.71c0 .42.03.82.09 1.19s.17.74.3 1.1h-2.42Zm-2.22-1.62c.43 0 .81-.1 1.14-.31.33-.21.56-.45.67-.73v-1.27h-1.35c-.51 0-.91.13-1.17.39-.27.26-.4.57-.4.93 0 .3.1.54.3.72s.47.27.81.27Zm8.75 1.62h-2.42v-12.95h2.42v12.95Zm53.11-7.07h1.36c.58 0 1-.15 1.28-.45.28-.3.42-.72.42-1.26 0-.49-.14-.88-.42-1.17-.28-.29-.68-.44-1.2-.44-.45 0-.84.13-1.15.4-.31.27-.46.61-.46 1.05h-2.35l-.02-.05c-.03-.95.33-1.73 1.09-2.34.76-.61 1.7-.92 2.82-.92 1.25 0 2.25.3 2.99.9s1.12 1.45 1.12 2.56c0 .53-.17 1.02-.5 1.5-.33.47-.79.84-1.37 1.11.67.24 1.18.6 1.53 1.1.35.49.53 1.07.53 1.72 0 1.11-.4 1.98-1.21 2.61-.81.63-1.84.95-3.09.95-1.12 0-2.09-.3-2.89-.89-.8-.59-1.19-1.43-1.17-2.52l.02-.05h2.35c0 .46.17.84.5 1.14s.75.45 1.26.45c.56 0 1-.15 1.32-.46.32-.31.49-.73.49-1.26 0-.63-.16-1.1-.48-1.4-.32-.29-.79-.44-1.41-.44h-1.36v-1.82Zm10.09 7.07h-2.42v-2.12h2.42v2.12Zm10.03-8.88c0 .6-.16 1.14-.48 1.6s-.76.83-1.32 1.09c.64.27 1.15.66 1.52 1.16.37.5.56 1.08.56 1.73 0 1.12-.38 1.98-1.14 2.58-.76.6-1.75.9-2.97.9s-2.23-.3-2.99-.9-1.14-1.46-1.14-2.58c0-.65.18-1.23.55-1.73.37-.5.88-.89 1.52-1.17-.56-.26-1-.62-1.32-1.08s-.47-.99-.47-1.6c0-1.07.35-1.91 1.05-2.49.7-.59 1.63-.88 2.78-.88s2.07.29 2.78.88c.71.59 1.06 1.42 1.06 2.49Zm-2.14 5.41c0-.54-.16-.97-.47-1.3-.32-.33-.72-.49-1.23-.49s-.92.16-1.22.49c-.31.33-.46.76-.46 1.3s.15.99.46 1.3c.31.32.72.48 1.24.48s.91-.16 1.22-.48c.31-.32.46-.75.46-1.3Zm-.27-5.3c0-.49-.13-.88-.39-1.17-.26-.3-.6-.44-1.04-.44s-.79.15-1.04.44c-.25.29-.37.69-.37 1.18s.13.9.38 1.2.6.44 1.05.44.78-.15 1.03-.44c.25-.3.38-.7.38-1.2Zm12.3-.11c0 .6-.16 1.14-.48 1.6s-.76.83-1.32 1.09c.64.27 1.15.66 1.52 1.16.37.5.56 1.08.56 1.73 0 1.12-.38 1.98-1.14 2.58-.76.6-1.75.9-2.97.9s-2.23-.3-2.99-.9-1.14-1.46-1.14-2.58c0-.65.18-1.23.55-1.73.37-.5.88-.89 1.52-1.17-.56-.26-1-.62-1.32-1.08s-.47-.99-.47-1.6c0-1.07.35-1.91 1.05-2.49.7-.59 1.63-.88 2.78-.88s2.07.29 2.78.88c.71.59 1.06 1.42 1.06 2.49Zm-2.14 5.41c0-.54-.16-.97-.47-1.3-.32-.33-.72-.49-1.23-.49s-.92.16-1.22.49c-.31.33-.46.76-.46 1.3s.15.99.46 1.3c.31.32.72.48 1.24.48s.91-.16 1.22-.48c.31-.32.46-.75.46-1.3Zm-.27-5.3c0-.49-.13-.88-.39-1.17-.26-.3-.6-.44-1.04-.44s-.79.15-1.04.44c-.25.29-.37.69-.37 1.18s.13.9.38 1.2.6.44 1.05.44.78-.15 1.03-.44c.25-.3.38-.7.38-1.2Zm12.52-1.45c-1.29 1.52-2.18 2.93-2.65 4.24-.47 1.31-.81 2.89-1.02 4.75l-.12 1.23h-2.42l.12-1.23c.19-1.78.59-3.41 1.21-4.89.62-1.49 1.47-2.85 2.55-4.1h-6.21v-1.87h8.54v1.87Zm2.83 10.22h-2.42v-2.12h2.42v2.12Zm6.75-12.26c.45 0 .87.04 1.26.13s.77.21 1.16.38l-.43 1.78c-.37-.13-.69-.22-.98-.29s-.62-.1-.99-.1c-.74 0-1.33.28-1.77.83-.45.55-.65 1.31-.62 2.29l.03.04c.27-.28.61-.5 1.03-.66s.88-.24 1.4-.24c1.08 0 1.92.38 2.54 1.15s.92 1.74.92 2.93-.38 2.22-1.13 3.01c-.76.79-1.73 1.19-2.93 1.19-1.28 0-2.32-.43-3.12-1.3-.8-.87-1.2-2.07-1.2-3.6v-2.36c0-1.58.46-2.84 1.37-3.78s2.08-1.4 3.49-1.4Zm-.56 5.98c-.45 0-.83.07-1.15.22s-.56.34-.73.59v.8c0 .96.17 1.69.52 2.2s.81.77 1.38.77c.5 0 .9-.23 1.2-.68.3-.46.45-1.01.45-1.65s-.15-1.21-.46-1.62c-.3-.41-.71-.62-1.22-.62Zm10.31 6.28h-2.42v-9.94h-2.46v-1.71l4.88-.43v12.09Zm10.31-4.49h1.37v1.87h-1.37v2.62h-2.42v-2.62h-4.93l-.11-1.45 5.01-8.01h2.44v7.6Zm-5.2 0h2.78v-4.36l-.05-.02-.19.34-2.54 4.03Zm64.48 4.49h-2.42v-9.94h-2.46v-1.71l4.88-.43v12.09Zm11.46-4.71c0 1.6-.37 2.81-1.1 3.64-.73.83-1.73 1.24-2.98 1.24s-2.26-.41-3-1.24c-.74-.83-1.1-2.04-1.1-3.64v-2.66c0-1.59.37-2.81 1.1-3.64.73-.83 1.73-1.25 2.98-1.25s2.25.42 2.98 1.25c.74.83 1.11 2.05 1.11 3.64v2.66Zm-2.42-2.92c0-.96-.14-1.66-.43-2.1-.29-.45-.7-.67-1.25-.67s-.96.22-1.25.66-.42 1.14-.42 2.11v3.14c0 .97.14 1.68.43 2.12.28.44.7.66 1.26.66s.96-.22 1.24-.66.42-1.15.42-2.12v-3.14Zm12.43 2.92c0 1.6-.37 2.81-1.1 3.64-.73.83-1.73 1.24-2.98 1.24s-2.26-.41-3-1.24c-.74-.83-1.1-2.04-1.1-3.64v-2.66c0-1.59.37-2.81 1.1-3.64.73-.83 1.73-1.25 2.98-1.25s2.25.42 2.98 1.25c.74.83 1.11 2.05 1.11 3.64v2.66Zm-2.42-2.92c0-.96-.14-1.66-.43-2.1-.29-.45-.7-.67-1.25-.67s-.96.22-1.25.66-.42 1.14-.42 2.11v3.14c0 .97.14 1.68.43 2.12.28.44.7.66 1.26.66s.96-.22 1.24-.66.42-1.15.42-2.12v-3.14Zm6.59 7.52-1.32 2.61h-1.62l.58-2.69v-1.89h2.36v1.97Zm9.85-4.6c0 1.6-.37 2.81-1.1 3.64s-1.73 1.24-2.98 1.24-2.26-.41-3-1.24c-.74-.83-1.1-2.04-1.1-3.64v-2.66c0-1.59.37-2.81 1.1-3.64s1.73-1.25 2.98-1.25 2.25.42 2.98 1.25c.74.83 1.11 2.05 1.11 3.64v2.66Zm-2.42-2.92c0-.96-.14-1.66-.43-2.1-.29-.45-.7-.67-1.25-.67s-.96.22-1.25.66-.42 1.14-.42 2.11v3.14c0 .97.14 1.68.43 2.12s.7.66 1.26.66.95-.22 1.24-.66.42-1.15.42-2.12v-3.14Zm8.55-2.13c0-.71.23-1.31.69-1.79.46-.48 1.11-.71 1.93-.71s1.48.24 1.94.71c.46.47.69 1.07.69 1.79v.64c0 .71-.23 1.31-.69 1.78-.46.47-1.1.71-1.93.71s-1.48-.24-1.94-.71c-.46-.47-.7-1.06-.7-1.78v-.64Zm1.61.64c0 .32.09.59.27.81.18.22.43.33.76.33s.57-.11.74-.33c.17-.22.26-.49.26-.81v-.64c0-.32-.09-.59-.27-.82-.18-.22-.43-.34-.75-.34s-.58.11-.75.34c-.17.22-.26.5-.26.82v.64Zm1.43 8.22-1.18-.62 5.9-9.45 1.18.62-5.9 9.45Zm2.74-2.06c0-.71.23-1.3.7-1.78.46-.48 1.11-.71 1.93-.71s1.48.24 1.94.71c.46.47.69 1.07.69 1.78v.64c0 .72-.23 1.31-.69 1.79-.46.47-1.1.71-1.93.71s-1.48-.24-1.95-.71-.7-1.07-.7-1.78v-.64Zm1.61.64c0 .32.09.58.29.81.19.22.44.34.75.34.36 0 .62-.1.77-.31.15-.21.23-.49.23-.83v-.64c0-.32-.09-.59-.27-.81-.18-.22-.43-.34-.76-.34s-.58.11-.76.34c-.17.22-.26.49-.26.81v.64Z"/></g></svg>