<svg data-name="Layer 2" xmlns="http://www.w3.org/2000/svg" viewBox="0 0 726.33 222.59"><defs><linearGradient id="b" x1="-7588.78" y1="4453.65" x2="-7587.78" y2="4453.65" gradientTransform="matrix(725.98 0 0 -725.98 5509321.57 3233298.59)" gradientUnits="userSpaceOnUse"><stop offset="0" stop-color="#1c336e"/><stop offset=".05" stop-color="#1c336e"/><stop offset=".63" stop-color="#3369a7"/><stop offset="1" stop-color="#4087c7"/></linearGradient><clipPath id="a"><path d="M572.98 0h153v52h-153V0Zm-153 0h153v52h-153V0Zm-153 0h153v52h-153V0ZM0 0h266.98v52H0V0Z" style="fill:none"/></clipPath></defs><g data-name="Layer 1"><g style="clip-path:url(#a)"><path style="fill:url(#b)" d="M0 0h725.98v52H0z"/></g><path d="M0 52h266.98m0 0h153m0 0h153m0 0h153M0 92.77h726.33M0 133.77h726.33" style="stroke-width:.5px;stroke:#43a756;stroke-miterlimit:10;fill:none"/><path style="stroke-width:2px;fill:none;stroke:#43a756;stroke-miterlimit:10" d="M0 195.77h726.33"/><path d="M49.02 33.45h5.7v1.98h-8.26v-12.8h2.57v10.82Zm9.35-11.05h2.72l.02.05-2.43 2.29h-2.05l1.75-2.34Zm.83 13.03h-2.57v-9.51h2.57v9.51Zm5.02-9.51.11 1.36c.32-.49.71-.86 1.17-1.13s.98-.4 1.56-.4c.96 0 1.71.3 2.25.91s.81 1.55.81 2.84v5.94h-2.58v-5.95c0-.64-.13-1.09-.39-1.36s-.65-.4-1.17-.4c-.34 0-.64.07-.91.21s-.5.33-.68.59v6.92h-2.57v-9.51h2.39Zm12.47 9.7c-1.37 0-2.47-.44-3.29-1.32s-1.23-2-1.23-3.35v-.35c0-1.41.39-2.58 1.16-3.49s1.82-1.37 3.12-1.36c1.28 0 2.28.39 2.99 1.16s1.06 1.82 1.06 3.14v1.4h-5.68l-.02.05c.05.62.26 1.14.63 1.54.37.4.88.6 1.52.6.57 0 1.04-.06 1.42-.17.38-.11.79-.29 1.23-.54l.69 1.59c-.39.32-.89.58-1.52.79s-1.32.31-2.09.31Zm-.23-7.89c-.47 0-.85.18-1.12.54s-.45.84-.51 1.43l.03.04h3.15v-.23c0-.54-.13-.98-.38-1.31-.25-.32-.64-.49-1.16-.49Zm11.64 7.7c-.09-.22-.17-.45-.24-.69-.07-.24-.12-.49-.14-.74-.26.46-.61.85-1.04 1.15-.43.3-.95.46-1.54.46-1 0-1.76-.26-2.3-.77s-.81-1.21-.81-2.1c0-.93.36-1.65 1.08-2.17.72-.51 1.77-.77 3.14-.77h1.43v-.76c0-.46-.12-.81-.36-1.06s-.59-.38-1.06-.38c-.42 0-.74.1-.96.3-.23.2-.34.48-.34.84h-2.48v-.06c-.04-.8.31-1.5 1.05-2.08s1.71-.88 2.91-.88c1.14 0 2.06.29 2.77.87.71.58 1.06 1.4 1.06 2.47v3.93c0 .45.03.86.1 1.26.07.39.17.78.32 1.17h-2.57Zm-2.35-1.71c.45 0 .85-.11 1.2-.33s.59-.48.71-.77v-1.34h-1.43c-.54 0-.96.14-1.24.41-.28.27-.42.6-.42.99 0 .32.11.57.32.76s.5.29.86.29Zm12.01-.91c0-.28-.14-.52-.41-.73-.27-.21-.78-.39-1.52-.54-1.12-.23-1.97-.57-2.54-1.01-.57-.45-.86-1.06-.86-1.83 0-.82.34-1.52 1.03-2.09.69-.57 1.61-.86 2.76-.86 1.21 0 2.18.28 2.9.85.72.57 1.06 1.29 1.03 2.15l-.02.05h-2.48c0-.38-.12-.69-.36-.93-.24-.24-.6-.36-1.07-.36-.42 0-.74.1-.98.3-.24.2-.36.46-.36.76s.12.53.37.72c.25.19.75.35 1.52.5 1.17.23 2.04.58 2.61 1.03.57.46.85 1.08.85 1.88 0 .86-.37 1.55-1.1 2.1-.73.54-1.7.81-2.9.81-1.27 0-2.27-.32-3-.96-.73-.64-1.08-1.37-1.05-2.19l.02-.05h2.35c.02.51.18.88.5 1.11s.73.34 1.24.34c.47 0 .84-.09 1.09-.28.25-.19.37-.44.37-.76Zm13.67.83c.46 0 .82-.13 1.1-.4s.41-.62.41-1.06h2.33l.03.05c.02.96-.34 1.77-1.08 2.41-.75.65-1.67.97-2.78.97-1.42 0-2.51-.45-3.28-1.34s-1.15-2.05-1.15-3.45v-.26c0-1.4.38-2.55 1.15-3.45s1.86-1.35 3.27-1.35c1.17 0 2.12.33 2.83 1s1.06 1.55 1.04 2.64l-.02.05h-2.34c0-.49-.13-.9-.4-1.23-.27-.32-.64-.49-1.12-.49-.68 0-1.16.26-1.44.79s-.42 1.21-.42 2.04v.26c0 .85.14 1.53.42 2.05s.76.78 1.45.78Zm10.94-5.51-.94-.03c-.38 0-.7.08-.94.24s-.43.38-.56.67v6.42h-2.56v-9.51h2.38l.12 1.41c.22-.5.51-.89.87-1.16s.76-.42 1.23-.42c.13 0 .25.01.36.03s.22.04.33.07l-.27 2.28Zm5.92 7.49c-1.37 0-2.47-.44-3.29-1.32s-1.23-2-1.23-3.35v-.35c0-1.41.39-2.58 1.16-3.49s1.82-1.37 3.12-1.36c1.28 0 2.28.39 2.99 1.16s1.06 1.82 1.06 3.14v1.4h-5.68l-.02.05c.05.62.26 1.14.63 1.54.37.4.88.6 1.52.6.57 0 1.04-.06 1.42-.17.38-.11.79-.29 1.23-.54l.69 1.59c-.39.32-.89.58-1.52.79s-1.32.31-2.09.31Zm-.23-7.89c-.47 0-.85.18-1.12.54s-.45.84-.51 1.43l.03.04h3.15v-.23c0-.54-.13-.98-.38-1.31-.25-.32-.64-.49-1.16-.49Zm11.64 7.7c-.09-.22-.17-.45-.24-.69s-.12-.49-.14-.74c-.26.46-.61.85-1.04 1.15s-.94.46-1.54.46c-1 0-1.76-.26-2.3-.77s-.81-1.21-.81-2.1c0-.93.36-1.65 1.08-2.17.72-.51 1.77-.77 3.14-.77h1.43v-.76c0-.46-.12-.81-.36-1.06s-.6-.38-1.06-.38c-.42 0-.74.1-.96.3-.23.2-.34.48-.34.84h-2.48v-.06c-.04-.8.31-1.5 1.04-2.08s1.71-.88 2.91-.88c1.14 0 2.06.29 2.77.87.71.58 1.06 1.4 1.06 2.47v3.93c0 .45.03.86.1 1.26s.17.78.32 1.17h-2.57Zm-2.35-1.71c.45 0 .85-.11 1.21-.33s.59-.48.71-.77v-1.34h-1.43c-.54 0-.96.14-1.24.41-.28.27-.42.6-.42.99 0 .32.11.57.32.76s.5.29.86.29Zm6.52-2.97c0-1.5.32-2.71.97-3.63.65-.92 1.56-1.38 2.74-1.38.47 0 .9.1 1.28.31s.71.5 1 .88v-5.21h2.58v13.71h-2.21l-.21-1.16c-.3.44-.65.77-1.06 1-.41.23-.87.34-1.4.34-1.17 0-2.07-.43-2.72-1.28-.65-.86-.97-1.99-.97-3.39v-.18Zm2.56.19c0 .84.14 1.5.42 1.98s.74.72 1.37.72c.37 0 .69-.08.97-.23s.5-.37.68-.66v-4.08c-.18-.3-.4-.54-.67-.7-.27-.17-.59-.25-.95-.25-.63 0-1.09.28-1.38.84-.29.56-.44 1.29-.44 2.19v.19Zm14.1 4.49c-.09-.22-.17-.45-.24-.69s-.12-.49-.14-.74c-.26.46-.61.85-1.04 1.15s-.94.46-1.54.46c-1 0-1.76-.26-2.3-.77s-.81-1.21-.81-2.1c0-.93.36-1.65 1.08-2.17.72-.51 1.77-.77 3.14-.77h1.43v-.76c0-.46-.12-.81-.36-1.06s-.6-.38-1.06-.38c-.42 0-.74.1-.96.3-.23.2-.34.48-.34.84h-2.48v-.06c-.04-.8.31-1.5 1.04-2.08s1.71-.88 2.91-.88c1.14 0 2.06.29 2.77.87.71.58 1.06 1.4 1.06 2.47v3.93c0 .45.03.86.1 1.26s.17.78.32 1.17h-2.57Zm-2.35-1.71c.45 0 .85-.11 1.21-.33s.59-.48.71-.77v-1.34h-1.43c-.54 0-.96.14-1.24.41-.28.27-.42.6-.42.99 0 .32.11.57.32.76s.5.29.86.29Zm12.01-.91c0-.28-.14-.52-.41-.73-.27-.21-.78-.39-1.52-.54-1.12-.23-1.97-.57-2.54-1.01-.57-.45-.86-1.06-.86-1.83 0-.82.34-1.52 1.03-2.09.69-.57 1.61-.86 2.76-.86 1.21 0 2.18.28 2.9.85.72.57 1.06 1.29 1.03 2.15l-.02.05h-2.48c0-.38-.12-.69-.36-.93-.24-.24-.6-.36-1.07-.36-.42 0-.74.1-.98.3-.24.2-.36.46-.36.76s.12.53.37.72c.25.19.75.35 1.52.5 1.17.23 2.04.58 2.61 1.03.57.46.85 1.08.85 1.88 0 .86-.37 1.55-1.1 2.1-.73.54-1.7.81-2.9.81-1.27 0-2.27-.32-3-.96-.73-.64-1.08-1.37-1.05-2.19l.02-.05h2.35c.02.51.18.88.5 1.11s.73.34 1.24.34c.47 0 .84-.09 1.09-.28.25-.19.37-.44.37-.76Zm18.31 2.62h-8.74v-1.68l4.14-4.44c.6-.69 1.02-1.26 1.28-1.74.25-.47.38-.91.38-1.31 0-.54-.14-.98-.43-1.32-.29-.34-.7-.51-1.24-.51-.59 0-1.04.2-1.35.6-.31.4-.46.94-.46 1.6h-2.5l-.02-.05c-.03-1.15.35-2.13 1.14-2.93.79-.8 1.85-1.2 3.19-1.2s2.35.34 3.11 1.03 1.13 1.6 1.13 2.74c0 .77-.21 1.49-.64 2.14s-1.13 1.51-2.11 2.57l-2.28 2.48.02.04h5.38v1.98Zm10.52-4.98c0 1.69-.39 2.98-1.17 3.85-.78.88-1.83 1.31-3.15 1.31s-2.39-.44-3.17-1.31-1.17-2.16-1.17-3.85v-2.82c0-1.69.39-2.97 1.16-3.85.78-.88 1.83-1.32 3.16-1.32s2.38.44 3.16 1.32c.78.88 1.17 2.17 1.17 3.85v2.82Zm-2.56-3.09c0-1.01-.15-1.75-.46-2.23-.3-.47-.74-.71-1.32-.71s-1.02.23-1.32.7c-.3.47-.45 1.21-.45 2.23v3.33c0 1.03.15 1.78.45 2.25.3.47.75.7 1.33.7s1.01-.23 1.31-.7c.3-.47.45-1.22.45-2.25v-3.33ZM210 35.43h-8.74v-1.68l4.14-4.44c.6-.69 1.02-1.26 1.28-1.74.25-.47.38-.91.38-1.31 0-.54-.14-.98-.43-1.32-.29-.34-.7-.51-1.24-.51-.59 0-1.04.2-1.35.6-.31.4-.46.94-.46 1.6h-2.5l-.02-.05c-.03-1.15.35-2.13 1.14-2.93.79-.8 1.85-1.2 3.19-1.2s2.35.34 3.11 1.03 1.13 1.6 1.13 2.74c0 .77-.21 1.49-.64 2.14s-1.13 1.51-2.11 2.57l-2.28 2.48.02.04H210v1.98Zm4.72-7.49h1.44c.61 0 1.06-.16 1.35-.48s.44-.76.44-1.33c0-.52-.15-.93-.44-1.24s-.72-.47-1.27-.47c-.48 0-.88.14-1.21.42s-.49.65-.49 1.11h-2.49l-.02-.05c-.04-1 .35-1.83 1.15-2.48s1.8-.98 2.99-.98c1.32 0 2.38.32 3.17.95s1.18 1.54 1.18 2.71c0 .56-.18 1.08-.53 1.59-.35.5-.83.89-1.45 1.17.71.25 1.25.64 1.62 1.16s.56 1.13.56 1.82c0 1.17-.43 2.09-1.28 2.76-.85.67-1.94 1.01-3.27 1.01-1.19 0-2.21-.31-3.06-.94s-1.26-1.52-1.24-2.67l.02-.05h2.49c0 .49.18.89.53 1.21s.8.48 1.34.48c.59 0 1.06-.16 1.4-.49.34-.33.51-.77.51-1.33 0-.67-.17-1.16-.51-1.48-.34-.31-.83-.47-1.49-.47h-1.44v-1.92Zm74.99-3.33h-3.62v10.82h-2.57V24.61h-3.6v-1.98h9.79v1.98Zm4.42-.97h-2.57v-1.92h2.57v1.92Zm0 11.79h-2.57v-9.51h2.57v9.51Zm11.16-4.49c0 1.41-.33 2.54-.98 3.39s-1.56 1.28-2.72 1.28c-.5 0-.94-.09-1.33-.28-.39-.19-.72-.46-.99-.81v4.56h-2.56V25.91h2.31l.15 1.12c.28-.42.62-.74 1.02-.96.39-.22.86-.34 1.38-.34 1.18 0 2.09.46 2.74 1.38s.98 2.13.98 3.63v.18Zm-2.57-.2c0-.9-.15-1.63-.45-2.18s-.76-.84-1.37-.84c-.39 0-.71.08-.99.24-.27.16-.49.38-.65.68v4.17c.16.27.38.47.65.62.27.14.61.21 1.01.21.62 0 1.08-.24 1.37-.73.29-.49.44-1.15.44-1.98v-.18Zm4.29-.15c0-1.42.39-2.58 1.19-3.49.79-.9 1.89-1.36 3.29-1.36s2.51.45 3.3 1.35 1.2 2.07 1.2 3.49v.18c0 1.43-.4 2.59-1.19 3.49-.79.9-1.89 1.35-3.29 1.35s-2.51-.45-3.3-1.35c-.79-.9-1.19-2.06-1.19-3.49v-.18Zm2.56.18c0 .87.15 1.56.46 2.08s.8.79 1.48.79 1.15-.26 1.46-.79c.31-.53.46-1.22.46-2.08v-.18c0-.84-.15-1.53-.46-2.06s-.8-.8-1.47-.8-1.15.27-1.46.8c-.31.54-.46 1.22-.46 2.06v.18Zm13.13-.02c0-1.5.32-2.71.97-3.63.65-.92 1.56-1.38 2.74-1.38.47 0 .9.1 1.28.31s.71.5 1 .88v-5.21h2.58v13.71h-2.21l-.21-1.16c-.3.44-.65.77-1.06 1-.41.23-.88.34-1.4.34-1.17 0-2.07-.43-2.72-1.28-.65-.86-.97-1.99-.97-3.39v-.18Zm2.56.19c0 .84.14 1.5.42 1.98s.74.72 1.37.72c.37 0 .69-.08.97-.23s.5-.37.68-.66v-4.08c-.18-.3-.4-.54-.67-.7-.27-.17-.59-.25-.95-.25-.63 0-1.09.28-1.38.84-.29.56-.44 1.29-.44 2.19v.19Zm12.69 4.68c-1.37 0-2.47-.44-3.29-1.32s-1.23-2-1.23-3.35v-.35c0-1.41.39-2.58 1.17-3.49.78-.91 1.82-1.37 3.12-1.36 1.28 0 2.28.39 2.99 1.16s1.06 1.82 1.06 3.14v1.4h-5.68l-.02.05c.05.62.26 1.14.63 1.54.37.4.88.6 1.52.6.57 0 1.04-.06 1.41-.17.38-.11.79-.29 1.23-.54l.7 1.59c-.39.32-.89.58-1.52.79s-1.32.31-2.09.31Zm-.23-7.89c-.47 0-.85.18-1.12.54s-.45.84-.51 1.43l.03.04h3.15v-.23c0-.54-.13-.98-.38-1.31-.25-.32-.64-.49-1.16-.49Zm15.08 5.91c.46 0 .82-.13 1.1-.4s.41-.62.41-1.06h2.33l.03.05c.02.96-.34 1.77-1.09 2.41-.75.65-1.67.97-2.78.97-1.42 0-2.51-.45-3.28-1.34s-1.15-2.05-1.15-3.45v-.26c0-1.4.38-2.55 1.15-3.45.77-.9 1.86-1.35 3.28-1.35 1.17 0 2.12.33 2.83 1 .72.67 1.06 1.55 1.04 2.64l-.02.05h-2.34c0-.49-.13-.9-.4-1.23-.27-.32-.64-.49-1.12-.49-.68 0-1.16.26-1.44.79s-.42 1.21-.42 2.04v.26c0 .85.14 1.53.42 2.05.28.52.76.78 1.45.78Zm10.94-5.51-.94-.03c-.38 0-.7.08-.94.24s-.43.38-.56.67v6.42h-2.56v-9.51h2.38l.12 1.41c.22-.5.51-.89.87-1.16.35-.28.76-.42 1.23-.42.13 0 .25.01.36.03.11.02.22.04.33.07l-.27 2.28Zm5.93 7.49c-1.37 0-2.47-.44-3.29-1.32s-1.23-2-1.23-3.35v-.35c0-1.41.39-2.58 1.16-3.49.78-.91 1.82-1.37 3.12-1.36 1.28 0 2.28.39 2.99 1.16s1.06 1.82 1.06 3.14v1.4h-5.68l-.02.05c.05.62.26 1.14.63 1.54.37.4.88.6 1.52.6.57 0 1.04-.06 1.42-.17.38-.11.79-.29 1.23-.54l.69 1.59c-.39.32-.89.58-1.52.79s-1.32.31-2.09.31Zm-.23-7.89c-.47 0-.85.18-1.12.54s-.45.84-.51 1.43l.03.04h3.15v-.23c0-.54-.13-.98-.38-1.31-.25-.32-.64-.49-1.15-.49Zm.28-5.51h2.71l.02.05-2.43 2.29h-2.05l1.75-2.34Zm5.48 8.53c0-1.5.32-2.71.97-3.63.65-.92 1.56-1.38 2.74-1.38.47 0 .9.1 1.28.31s.71.5 1 .88v-5.21h2.58v13.71h-2.21l-.21-1.16c-.3.44-.65.77-1.06 1-.41.23-.88.34-1.4.34-1.17 0-2.07-.43-2.72-1.28-.65-.86-.97-1.99-.97-3.39v-.18Zm2.56.19c0 .84.14 1.5.42 1.98s.74.72 1.37.72c.37 0 .69-.08.97-.23s.5-.37.68-.66v-4.08c-.18-.3-.4-.54-.67-.7-.27-.17-.59-.25-.95-.25-.63 0-1.09.28-1.38.84-.29.56-.44 1.29-.44 2.19v.19Zm11.15-7.3h-2.57v-1.92h2.57v1.92Zm0 11.79h-2.57v-9.51h2.57v9.51Zm5.62-11.84v2.33h1.6v1.8h-1.6v4.84c0 .37.08.63.23.79s.36.24.62.24c.13 0 .25 0 .35-.02.1-.01.21-.04.34-.07l.22 1.85c-.26.09-.51.15-.76.2-.25.04-.51.07-.8.07-.88 0-1.57-.24-2.04-.73-.48-.49-.71-1.26-.71-2.31v-4.85h-1.39v-1.8h1.39V23.6h2.57Zm3.02 7c0-1.42.4-2.58 1.19-3.49.79-.9 1.89-1.36 3.29-1.36s2.51.45 3.3 1.35 1.2 2.07 1.2 3.49v.18c0 1.43-.4 2.59-1.19 3.49-.79.9-1.89 1.35-3.29 1.35s-2.51-.45-3.3-1.35c-.79-.9-1.19-2.06-1.19-3.49v-.18Zm2.56.18c0 .87.15 1.56.46 2.08s.8.79 1.48.79 1.15-.26 1.46-.79c.31-.53.46-1.22.46-2.08v-.18c0-.84-.16-1.53-.47-2.06s-.8-.8-1.47-.8-1.15.27-1.46.8c-.31.54-.46 1.22-.46 2.06v.18Zm51.8-6.16h-3.62v10.82h-2.57V24.61h-3.6v-1.98h9.79v1.98Zm4.42-.97h-2.57v-1.92h2.57v1.92Zm0 11.79h-2.57v-9.51h2.57v9.51Zm11.15-4.49c0 1.41-.32 2.54-.97 3.39s-1.56 1.28-2.72 1.28c-.5 0-.94-.09-1.33-.28-.39-.19-.72-.46-.99-.81v4.56h-2.56V25.91h2.31l.15 1.12c.28-.42.62-.74 1.02-.96.39-.22.86-.34 1.38-.34 1.18 0 2.09.46 2.74 1.38s.97 2.13.97 3.63v.18Zm-2.57-.2c0-.9-.15-1.63-.45-2.18s-.76-.84-1.37-.84c-.39 0-.72.08-.99.24-.27.16-.49.38-.64.68v4.17c.16.27.37.47.64.62.27.14.61.21 1.01.21.62 0 1.08-.24 1.37-.73.29-.49.44-1.15.44-1.98v-.18Zm4.3-.15c0-1.42.4-2.58 1.19-3.49.79-.9 1.89-1.36 3.29-1.36s2.51.45 3.3 1.35 1.2 2.07 1.2 3.49v.18c0 1.43-.4 2.59-1.19 3.49-.79.9-1.89 1.35-3.29 1.35s-2.51-.45-3.3-1.35c-.79-.9-1.19-2.06-1.19-3.49v-.18Zm2.56.18c0 .87.15 1.56.46 2.08s.8.79 1.48.79 1.15-.26 1.46-.79c.31-.53.46-1.22.46-2.08v-.18c0-.84-.16-1.53-.47-2.06s-.8-.8-1.47-.8-1.15.27-1.46.8c-.31.54-.46 1.22-.46 2.06v.18Zm13.13-.02c0-1.5.32-2.71.97-3.63.65-.92 1.56-1.38 2.74-1.38.47 0 .9.1 1.28.31s.71.5 1 .88v-5.21h2.57v13.71h-2.21l-.21-1.16c-.3.44-.65.77-1.06 1-.41.23-.87.34-1.4.34-1.17 0-2.07-.43-2.72-1.28-.65-.86-.97-1.99-.97-3.39v-.18Zm2.56.19c0 .84.14 1.5.42 1.98s.74.72 1.37.72c.37 0 .69-.08.97-.23s.5-.37.68-.66v-4.08c-.18-.3-.4-.54-.67-.7-.27-.17-.59-.25-.95-.25-.63 0-1.09.28-1.38.84-.29.56-.44 1.29-.44 2.19v.19Zm12.69 4.68c-1.37 0-2.47-.44-3.29-1.32s-1.23-2-1.23-3.35v-.35c0-1.41.39-2.58 1.16-3.49.78-.91 1.82-1.37 3.12-1.36 1.28 0 2.28.39 2.99 1.16s1.06 1.82 1.06 3.14v1.4h-5.68l-.02.05c.05.62.26 1.14.63 1.54.37.4.88.6 1.52.6.57 0 1.04-.06 1.42-.17.38-.11.79-.29 1.23-.54l.69 1.59c-.39.32-.89.58-1.52.79s-1.32.31-2.09.31Zm-.23-7.89c-.47 0-.85.18-1.12.54s-.45.84-.51 1.43l.03.04h3.15v-.23c0-.54-.13-.98-.38-1.31-.25-.32-.64-.49-1.15-.49Zm13.79 7.7h-2.57V21.72h2.57v13.71Zm4.41-13.03h2.71l.02.05-2.43 2.29h-2.05l1.75-2.34Zm.83 13.03h-2.57v-9.51h2.57v9.51Zm5.02-9.51.12 1.36c.32-.49.71-.86 1.17-1.13s.98-.4 1.56-.4c.96 0 1.71.3 2.25.91s.81 1.55.81 2.84v5.94h-2.58v-5.95c0-.64-.13-1.09-.39-1.36s-.65-.4-1.17-.4c-.34 0-.64.07-.91.21s-.5.33-.68.59v6.92h-2.57v-9.51h2.39Zm12.47 9.7c-1.37 0-2.47-.44-3.29-1.32s-1.23-2-1.23-3.35v-.35c0-1.41.39-2.58 1.16-3.49.78-.91 1.82-1.37 3.12-1.36 1.28 0 2.28.39 2.99 1.16s1.06 1.82 1.06 3.14v1.4h-5.68l-.02.05c.05.62.26 1.14.63 1.54.37.4.88.6 1.52.6.57 0 1.04-.06 1.42-.17.38-.11.79-.29 1.23-.54l.69 1.59c-.39.32-.89.58-1.52.79s-1.32.31-2.09.31Zm-.23-7.89c-.47 0-.85.18-1.12.54s-.45.84-.51 1.43l.03.04h3.15v-.23c0-.54-.13-.98-.38-1.31-.25-.32-.64-.49-1.15-.49Zm11.64 7.7c-.09-.22-.18-.45-.24-.69-.07-.24-.12-.49-.14-.74-.26.46-.61.85-1.04 1.15-.43.3-.94.46-1.54.46-1 0-1.76-.26-2.3-.77s-.81-1.21-.81-2.1c0-.93.36-1.65 1.08-2.17.72-.51 1.77-.77 3.14-.77h1.43v-.76c0-.46-.12-.81-.36-1.06s-.6-.38-1.06-.38c-.42 0-.74.1-.96.3-.22.2-.34.48-.34.84h-2.48v-.06c-.04-.8.31-1.5 1.04-2.08s1.71-.88 2.91-.88c1.14 0 2.06.29 2.77.87.71.58 1.06 1.4 1.06 2.47v3.93c0 .45.03.86.1 1.26.07.39.18.78.32 1.17h-2.57Zm-2.35-1.71c.45 0 .85-.11 1.21-.33s.59-.48.71-.77v-1.34h-1.43c-.54 0-.96.14-1.24.41-.28.27-.42.6-.42.99 0 .32.11.57.32.76s.5.29.86.29Zm60.32-11.09 3.26 9.43h.05l3.29-9.43h3.36v12.8h-2.57v-3.81l.25-5.65h-.05l-3.43 9.47h-1.72L604.85 26h-.05l.25 5.62v3.81h-2.57v-12.8h3.35Zm12.24 7.96c0-1.42.39-2.58 1.19-3.49.79-.9 1.89-1.36 3.29-1.36s2.51.45 3.3 1.35 1.2 2.07 1.2 3.49v.18c0 1.43-.4 2.59-1.19 3.49-.79.9-1.89 1.35-3.29 1.35s-2.51-.45-3.3-1.35c-.79-.9-1.19-2.06-1.19-3.49v-.18Zm2.56.18c0 .87.15 1.56.46 2.08s.8.79 1.48.79 1.15-.26 1.46-.79c.31-.53.46-1.22.46-2.08v-.18c0-.84-.15-1.53-.46-2.06s-.8-.8-1.47-.8-1.15.27-1.46.8c-.31.54-.46 1.22-.46 2.06v.18Zm10.86-4.85.11 1.36c.32-.49.71-.86 1.17-1.13s.98-.4 1.55-.4c.96 0 1.71.3 2.25.91s.81 1.55.81 2.84v5.94h-2.57v-5.95c0-.64-.13-1.09-.39-1.36s-.65-.4-1.17-.4c-.34 0-.64.07-.91.21s-.49.33-.68.59v6.92h-2.57v-9.51h2.39Zm11.37-2.33v2.33h1.6v1.8h-1.6v4.84c0 .37.08.63.23.79s.36.24.62.24c.13 0 .25 0 .35-.02.1-.01.21-.04.34-.07l.22 1.85c-.26.09-.51.15-.76.2-.25.04-.51.07-.8.07-.88 0-1.57-.24-2.04-.73-.48-.49-.71-1.26-.71-2.31v-4.85h-1.39v-1.8h1.39V23.6h2.57Zm3.02 7c0-1.42.39-2.58 1.19-3.49.79-.9 1.89-1.36 3.29-1.36s2.51.45 3.3 1.35 1.2 2.07 1.2 3.49v.18c0 1.43-.4 2.59-1.19 3.49-.79.9-1.89 1.35-3.29 1.35s-2.51-.45-3.3-1.35c-.79-.9-1.19-2.06-1.19-3.49v-.18Zm2.56.18c0 .87.15 1.56.46 2.08s.8.79 1.48.79 1.15-.26 1.46-.79c.31-.53.46-1.22.46-2.08v-.18c0-.84-.15-1.53-.46-2.06s-.8-.8-1.47-.8-1.15.27-1.46.8c-.31.54-.46 1.22-.46 2.06v.18Zm23.39.3.02.05c.02 1.38-.4 2.47-1.26 3.28-.87.81-2.06 1.21-3.6 1.21s-2.79-.5-3.75-1.49-1.44-2.26-1.44-3.82v-2.54c0-1.55.47-2.83 1.41-3.82s2.16-1.49 3.66-1.49c1.58 0 2.82.41 3.71 1.22s1.32 1.92 1.3 3.32l-.02.05h-2.5c0-.84-.2-1.49-.61-1.94-.4-.45-1.04-.67-1.89-.67-.77 0-1.38.31-1.83.94-.45.62-.68 1.42-.68 2.38v2.55c0 .98.24 1.78.71 2.4.47.62 1.12.94 1.93.94s1.39-.21 1.78-.65c.38-.43.58-1.07.58-1.92h2.49Zm12.71-.89c0 1.57-.5 2.87-1.49 3.89-.99 1.03-2.29 1.54-3.87 1.54s-2.86-.51-3.84-1.54-1.48-2.32-1.48-3.89v-2.3c0-1.56.49-2.86 1.47-3.89.98-1.03 2.26-1.54 3.84-1.54s2.88.51 3.88 1.54 1.49 2.33 1.49 3.89v2.3Zm-2.57-2.31c0-1-.25-1.82-.75-2.46s-1.18-.96-2.06-.96-1.55.32-2.03.96c-.48.64-.72 1.46-.72 2.46v2.32c0 1.02.24 1.84.73 2.48s1.16.96 2.03.96 1.56-.32 2.06-.96.74-1.47.74-2.48v-2.32Zm7.63 2.92v4.64h-2.57v-12.8h5.1c1.47 0 2.63.38 3.47 1.12s1.27 1.74 1.27 2.96-.42 2.21-1.27 2.95-2 1.12-3.47 1.12h-2.53Zm0-1.98h2.53c.71 0 1.26-.19 1.63-.58.37-.39.55-.89.55-1.49s-.18-1.12-.55-1.52c-.37-.4-.91-.6-1.63-.6h-2.53v4.2Z" style="fill:#fff"/><path d="M15.14 72.24v4.72h-1.9V65.58h4.2c1.27 0 2.25.29 2.95.86s1.04 1.39 1.04 2.45c0 .59-.15 1.09-.46 1.52s-.75.76-1.33 1.02c.64.2 1.1.54 1.38 1s.42 1.03.42 1.7v.95c0 .33.04.66.12.98s.22.56.42.73v.18h-1.95c-.21-.17-.34-.44-.4-.81s-.09-.73-.09-1.09v-.91c0-.58-.17-1.05-.5-1.39s-.79-.52-1.38-.52h-2.53Zm0-1.52h2.2c.76 0 1.32-.15 1.66-.44s.52-.74.52-1.34-.17-1.02-.52-1.35-.87-.49-1.57-.49h-2.3v3.61Zm12.18 6.41c-1.2 0-2.15-.39-2.86-1.18s-1.07-1.79-1.07-3.02v-.31c0-1.23.35-2.25 1.06-3.06.71-.81 1.59-1.21 2.65-1.21 1.14 0 2.01.34 2.62 1.04.61.69.91 1.62.91 2.78v1.12h-5.27l-.02.04c.03.67.23 1.22.59 1.64.36.43.86.64 1.5.64.51 0 .95-.06 1.31-.19.36-.12.71-.3 1.05-.54l.61 1.25c-.32.28-.74.52-1.27.71-.53.19-1.14.29-1.83.29Zm-.22-7.25c-.47 0-.86.19-1.16.56-.3.37-.49.84-.56 1.42l.02.04h3.35v-.2c0-.54-.14-.97-.41-1.31s-.69-.51-1.24-.51Zm10.43 7.08c-.07-.21-.12-.42-.17-.62-.04-.2-.07-.41-.09-.61-.26.4-.6.73-1.03 1-.42.27-.9.4-1.43.4-.88 0-1.56-.23-2.03-.68-.47-.45-.71-1.08-.71-1.87s.32-1.45.97-1.91c.65-.46 1.55-.68 2.73-.68h1.48v-.74c0-.44-.13-.79-.39-1.04s-.63-.38-1.12-.38c-.43 0-.78.1-1.03.31a.98.98 0 0 0-.38.8H32.5v-.05c-.04-.67.25-1.26.89-1.77s1.46-.77 2.47-.77 1.78.25 2.38.75c.6.5.91 1.22.91 2.16v3.76c0 .35.02.68.07 1s.12.63.23.94h-1.92ZM35.2 75.6c.48 0 .91-.12 1.29-.36s.64-.51.76-.82v-1.25h-1.51c-.55 0-.98.14-1.3.41s-.47.59-.47.96c0 .32.11.58.32.77s.51.29.9.29Zm9.68 0c.46 0 .85-.14 1.17-.41.32-.27.48-.61.48-1.02h1.72l.02.05c.03.79-.3 1.47-.96 2.05-.67.57-1.48.86-2.42.86-1.25 0-2.2-.4-2.86-1.2s-1-1.82-1-3.05v-.27c0-1.22.33-2.24 1-3.04s1.62-1.21 2.86-1.21c1.02 0 1.84.3 2.47.89s.94 1.34.92 2.25l-.02.05h-1.73c0-.46-.15-.86-.46-1.18s-.7-.48-1.19-.48c-.71 0-1.22.26-1.52.78s-.45 1.17-.45 1.95v.27c0 .8.15 1.45.45 1.96s.8.77 1.52.77Zm7.72-9.15v2.05h1.52v1.41H52.6v4.67c0 .35.08.6.23.75.15.15.35.22.6.22.1 0 .21 0 .3-.03.1-.02.19-.04.28-.07l.2 1.39c-.16.09-.35.16-.58.21-.22.05-.46.07-.7.07-.7 0-1.24-.2-1.64-.61-.4-.41-.59-1.05-.59-1.93v-4.67h-1.29V68.5h1.29v-2.05h1.89Zm5.3-.01H56v-1.66h1.9v1.66Zm0 10.52H56v-8.45h1.9v8.45Zm5.3-2.86.14.69h.05l.15-.69 1.68-5.59h1.96l-3 8.45h-1.65l-3.02-8.45h1.96l1.73 5.59Zm10.29 2.86c-.07-.21-.12-.42-.17-.62s-.07-.41-.09-.61c-.26.4-.6.73-1.03 1s-.9.4-1.43.4c-.88 0-1.56-.23-2.03-.68s-.71-1.08-.71-1.87.32-1.45.97-1.91 1.55-.68 2.73-.68h1.48v-.74c0-.44-.13-.79-.39-1.04s-.63-.38-1.12-.38c-.43 0-.78.1-1.03.31s-.38.48-.38.8h-1.83v-.05c-.04-.67.25-1.26.89-1.77s1.46-.77 2.47-.77 1.78.25 2.38.75.91 1.22.91 2.16v3.76c0 .35.02.68.07 1s.12.63.23.94h-1.92Zm-2.33-1.36c.48 0 .91-.12 1.29-.36s.64-.51.76-.82v-1.25H71.7c-.55 0-.98.14-1.3.41s-.47.59-.47.96c0 .32.11.58.32.77s.51.29.9.29Zm13.48-1.5.14.69h.05l.15-.69 1.68-5.59h1.96l-3 8.45h-1.65l-3.02-8.45h1.96l1.73 5.59Zm8.8 3.03c-1.2 0-2.15-.39-2.86-1.18s-1.07-1.79-1.07-3.02v-.31c0-1.23.35-2.25 1.06-3.06.71-.81 1.59-1.21 2.65-1.21 1.14 0 2.01.34 2.62 1.04.61.69.91 1.62.91 2.78v1.12h-5.27l-.02.04c.03.67.23 1.22.59 1.64.36.43.86.64 1.5.64.51 0 .95-.06 1.31-.19.36-.12.72-.3 1.05-.54l.61 1.25c-.32.28-.74.52-1.27.71-.53.19-1.14.29-1.83.29Zm-.22-7.25c-.47 0-.85.19-1.16.56-.3.37-.49.84-.56 1.42l.02.04h3.35v-.2c0-.54-.14-.97-.41-1.31s-.69-.51-1.24-.51Zm9.69.34-.81-.03c-.37 0-.68.08-.93.23-.25.16-.44.38-.57.66v5.88h-1.9v-8.45h1.73l.12 1.23c.21-.43.49-.77.82-1.02s.72-.37 1.16-.37c.11 0 .22 0 .32.03.1.02.19.04.27.07l-.23 1.77Zm1.22 2.63c0-1.35.29-2.44.87-3.26s1.39-1.24 2.44-1.24c.46 0 .87.09 1.23.28.36.18.68.45.94.79v-4.65h1.9v12.19h-1.59l-.19-1.05c-.27.4-.6.7-.98.9-.38.21-.82.31-1.33.31-1.04 0-1.84-.38-2.42-1.13s-.87-1.75-.87-2.98v-.16Zm1.9.16c0 .78.15 1.4.45 1.87.3.46.77.7 1.43.7.4 0 .74-.09 1.02-.26s.51-.42.68-.73V70.9c-.18-.31-.41-.56-.69-.73s-.62-.26-1-.26c-.65 0-1.12.27-1.43.82-.31.54-.46 1.25-.46 2.13v.16Zm11.41 4.12c-1.2 0-2.15-.39-2.86-1.18s-1.07-1.79-1.07-3.02v-.31c0-1.23.35-2.25 1.06-3.06.71-.81 1.59-1.21 2.65-1.21 1.14 0 2.01.34 2.62 1.04.61.69.91 1.62.91 2.78v1.12h-5.27l-.02.04c.03.67.23 1.22.59 1.64.36.43.86.64 1.5.64.51 0 .95-.06 1.31-.19.36-.12.72-.3 1.05-.54l.61 1.25c-.32.28-.74.52-1.27.71-.53.19-1.14.29-1.83.29Zm-.22-7.25c-.47 0-.85.19-1.16.56-.3.37-.49.84-.56 1.42l.02.04h3.35v-.2c0-.54-.14-.97-.41-1.31s-.69-.51-1.24-.51Zm12.47 3.69.19.84h.05l1.85-5.91h2.08l-3.5 9.73c-.22.59-.54 1.09-.95 1.51s-.98.62-1.73.62c-.16 0-.32-.02-.5-.05s-.35-.07-.52-.11l.21-1.47c.07 0 .16.01.29.02s.22.02.28.02c.34 0 .62-.12.82-.35s.37-.5.5-.81l.31-.77-3.07-8.35h2.07l1.61 5.06Zm14.67 1.09c0-.29-.12-.53-.38-.73s-.72-.36-1.4-.51c-1.01-.21-1.78-.52-2.29-.91-.52-.39-.78-.93-.78-1.61s.3-1.31.9-1.81c.6-.5 1.39-.75 2.37-.75 1.03 0 1.85.25 2.46.76.61.51.9 1.14.87 1.89l-.02.05h-1.82c0-.35-.13-.65-.4-.9s-.63-.38-1.09-.38-.81.1-1.05.31-.36.46-.36.75.11.53.34.71.69.33 1.38.46c1.06.22 1.85.53 2.36.93.51.4.77.94.77 1.63 0 .76-.31 1.38-.94 1.85-.63.47-1.46.71-2.48.71-1.1 0-1.97-.28-2.6-.84-.64-.56-.94-1.21-.91-1.94l.02-.05h1.77c.02.49.2.85.53 1.07.33.22.74.34 1.22.34s.87-.09 1.13-.28.4-.44.4-.76Zm3.42-2c0-1.25.34-2.29 1.03-3.09.7-.81 1.64-1.21 2.84-1.21s2.16.4 2.85 1.21c.69.8 1.04 1.83 1.04 3.09v.16c0 1.27-.35 2.31-1.04 3.11-.69.8-1.63 1.2-2.84 1.2s-2.16-.4-2.85-1.2c-.69-.8-1.03-1.84-1.03-3.1v-.16Zm1.9.16c0 .82.16 1.49.48 2.01.32.51.82.77 1.5.77s1.16-.26 1.48-.77c.33-.52.5-1.19.5-2.01v-.16c0-.81-.17-1.47-.5-1.99-.33-.53-.83-.79-1.5-.79s-1.16.26-1.48.79c-.32.53-.48 1.19-.48 1.99v.16Zm12.48 1.84c0-.29-.12-.53-.38-.73s-.72-.36-1.4-.51c-1.01-.21-1.78-.52-2.29-.91-.52-.39-.78-.93-.78-1.61s.3-1.31.9-1.81c.6-.5 1.39-.75 2.37-.75 1.03 0 1.85.25 2.46.76.61.51.9 1.14.87 1.89l-.02.05h-1.82c0-.35-.13-.65-.4-.9s-.63-.38-1.09-.38-.81.1-1.05.31-.36.46-.36.75.11.53.34.71.69.33 1.38.46c1.06.22 1.85.53 2.36.93.51.4.77.94.77 1.63 0 .76-.31 1.38-.94 1.85-.63.47-1.46.71-2.48.71-1.1 0-1.97-.28-2.6-.84-.64-.56-.94-1.21-.91-1.94l.02-.05h1.77c.02.49.2.85.53 1.07.33.22.74.34 1.22.34s.87-.09 1.13-.28.4-.44.4-.76Zm6.29-8.21v2.05h1.52v1.41h-1.52v4.67c0 .35.08.6.23.75s.35.22.6.22c.1 0 .21 0 .3-.03s.19-.04.28-.07l.2 1.39c-.16.09-.35.16-.58.21s-.46.07-.7.07c-.7 0-1.25-.2-1.64-.61s-.59-1.05-.59-1.93v-4.67h-1.29V68.5h1.29v-2.05h1.89Zm6.78 10.68c-1.2 0-2.15-.39-2.86-1.18s-1.07-1.79-1.07-3.02v-.31c0-1.23.35-2.25 1.06-3.06.71-.81 1.59-1.21 2.65-1.21 1.14 0 2.01.34 2.62 1.04.61.69.91 1.62.91 2.78v1.12h-5.27l-.02.04c.03.67.23 1.22.59 1.64.36.43.86.64 1.5.64.51 0 .95-.06 1.31-.19.36-.12.71-.3 1.05-.54l.61 1.25c-.32.28-.74.52-1.27.71-.53.19-1.14.29-1.83.29Zm-.22-7.25c-.47 0-.86.19-1.16.56-.3.37-.49.84-.56 1.42l.02.04h3.35v-.2c0-.54-.14-.97-.41-1.31s-.69-.51-1.24-.51Zm7.2-1.37.11 1.22c.28-.43.62-.77 1.04-1.01.42-.24.89-.36 1.42-.36.88 0 1.57.27 2.06.8s.74 1.37.74 2.5v5.31h-1.9v-5.3c0-.64-.13-1.09-.39-1.36s-.66-.4-1.2-.4c-.37 0-.7.08-.99.25-.29.16-.53.39-.72.68v6.13h-1.9v-8.45h1.73Zm9.64-2.07h-1.9v-1.66h1.9v1.66Zm0 10.52h-1.9v-8.45h1.9v8.45Zm9.8-3.94c0 1.23-.29 2.23-.86 2.98-.58.75-1.39 1.13-2.43 1.13-.53 0-.98-.11-1.37-.32-.39-.21-.71-.53-.97-.94l-.19 1.09h-1.59V64.77h1.9v4.7c.26-.36.57-.64.94-.83.37-.19.79-.29 1.27-.29 1.06 0 1.87.41 2.45 1.23.58.82.86 1.91.86 3.27v.16Zm-1.9-.16c0-.88-.15-1.59-.45-2.13-.3-.54-.78-.81-1.44-.81-.42 0-.77.09-1.06.28-.28.19-.51.45-.68.78v3.55c.16.34.39.6.67.79.29.18.65.28 1.08.28.66 0 1.13-.23 1.43-.69s.45-1.08.45-1.87v-.16Zm5.87 4.1h-1.9V64.77h1.9v12.19Zm5.99.17c-1.2 0-2.15-.39-2.86-1.18s-1.07-1.79-1.07-3.02v-.31c0-1.23.35-2.25 1.06-3.06.71-.81 1.59-1.21 2.65-1.21 1.14 0 2.01.34 2.62 1.04.61.69.91 1.62.91 2.78v1.12h-5.27l-.02.04c.03.67.23 1.22.59 1.64.36.43.86.64 1.5.64.51 0 .95-.06 1.31-.19.36-.12.71-.3 1.05-.54l.61 1.25c-.32.28-.74.52-1.27.71-.53.19-1.14.29-1.83.29Zm-.22-7.25c-.47 0-.86.19-1.16.56-.3.37-.49.84-.56 1.42l.02.04h3.35v-.2c0-.54-.14-.97-.41-1.31s-.69-.51-1.24-.51Zm70.53 2.17v4.93h-1.54V65.61h4.12c1.25 0 2.2.28 2.85.83s.98 1.35.98 2.41c0 .58-.15 1.09-.46 1.52s-.75.78-1.33 1.03c.62.2 1.07.53 1.35.99s.41 1.02.41 1.69v1.07c0 .35.04.67.12.95s.21.51.41.69v.19h-1.59c-.2-.18-.33-.44-.39-.78s-.09-.7-.09-1.06V74.1c0-.61-.18-1.11-.54-1.48s-.84-.56-1.45-.56h-2.86Zm0-1.21h2.42c.87 0 1.5-.17 1.88-.5s.57-.83.57-1.51c0-.64-.19-1.13-.56-1.49-.37-.35-.95-.53-1.74-.53h-2.58v4.02Zm12.68 6.31c-1.18 0-2.11-.39-2.81-1.18s-1.04-1.8-1.04-3.05v-.34c0-1.2.36-2.2 1.07-3 .72-.8 1.56-1.2 2.54-1.2 1.14 0 2 .34 2.59 1.03.58.69.88 1.6.88 2.75v.96h-5.48l-.02.04c.02.81.22 1.48.62 2s.95.78 1.66.78c.52 0 .98-.07 1.37-.22.39-.15.73-.35 1.02-.61l.6 1c-.3.3-.7.55-1.2.75-.49.2-1.09.3-1.8.3Zm-.23-7.56c-.52 0-.96.22-1.32.65-.36.43-.59.98-.67 1.63l.02.04h3.9v-.2c0-.6-.16-1.11-.48-1.51-.32-.41-.8-.61-1.44-.61Zm5.3 3.32c0-1.36.29-2.46.87-3.29.58-.83 1.39-1.25 2.44-1.25.49 0 .93.09 1.32.27s.71.45.98.8v-4.65h1.54v12.19h-1.26l-.18-1.04c-.28.4-.62.7-1.02.9-.4.2-.87.3-1.4.3-1.03 0-1.84-.37-2.42-1.12-.58-.75-.88-1.73-.88-2.95v-.16Zm1.54.16c0 .85.17 1.54.52 2.05.35.51.89.77 1.62.77.46 0 .84-.1 1.16-.31s.57-.5.77-.88v-3.95c-.2-.35-.46-.63-.77-.83-.32-.21-.7-.31-1.14-.31-.74 0-1.29.3-1.64.91s-.53 1.4-.53 2.38v.16Zm11.78 4.08c-1.18 0-2.11-.39-2.81-1.18s-1.04-1.8-1.04-3.05v-.34c0-1.2.36-2.2 1.07-3 .72-.8 1.56-1.2 2.54-1.2 1.14 0 2 .34 2.59 1.03.58.69.88 1.6.88 2.75v.96h-5.48l-.02.04c.02.81.22 1.48.62 2s.95.78 1.66.78c.52 0 .98-.07 1.37-.22.39-.15.73-.35 1.02-.61l.6 1c-.3.3-.7.55-1.2.75-.49.2-1.09.3-1.8.3Zm-.23-7.56c-.52 0-.96.22-1.32.65-.36.43-.59.98-.67 1.63l.02.04h3.9v-.2c0-.6-.16-1.11-.48-1.51-.32-.41-.8-.61-1.44-.61Zm10.4 5.14c0-.34-.13-.62-.39-.84s-.75-.41-1.46-.57c-1.03-.22-1.8-.53-2.32-.91-.52-.38-.78-.9-.78-1.56s.29-1.27.88-1.75c.58-.48 1.34-.73 2.28-.73.98 0 1.77.25 2.35.76.58.5.86 1.12.83 1.84l-.02.05h-1.47c0-.37-.16-.7-.46-1-.31-.29-.72-.44-1.23-.44-.55 0-.95.12-1.22.36s-.4.53-.4.87.12.6.35.79.71.36 1.43.52c1.07.23 1.86.54 2.38.93.52.39.78.92.78 1.58 0 .75-.3 1.36-.91 1.82-.61.46-1.4.7-2.38.7-1.08 0-1.93-.27-2.55-.82-.62-.55-.91-1.18-.88-1.91l.02-.05h1.47c.03.54.23.94.61 1.19s.82.38 1.34.38c.55 0 .97-.11 1.29-.33.31-.22.46-.51.46-.87Zm7.26 1.21c.51 0 .96-.16 1.35-.47.39-.32.58-.7.58-1.16h1.38l.02.05c.03.73-.3 1.38-.97 1.95-.67.57-1.46.85-2.36.85-1.23 0-2.17-.4-2.82-1.2-.65-.8-.98-1.81-.98-3.02v-.33c0-1.2.33-2.21.98-3.01.65-.8 1.59-1.21 2.82-1.21.99 0 1.8.29 2.43.88.63.58.93 1.3.91 2.15l-.02.05h-1.39c0-.52-.18-.95-.55-1.32-.36-.36-.82-.54-1.38-.54-.81 0-1.38.29-1.73.87-.35.58-.52 1.29-.52 2.13v.33c0 .86.17 1.58.52 2.16s.92.86 1.73.86Zm10.69-.21c-.27.45-.61.8-1.02 1.05-.42.25-.9.37-1.45.37-.92 0-1.64-.29-2.16-.88s-.77-1.5-.77-2.75v-4.98h1.54v5c0 .9.13 1.52.4 1.86s.68.51 1.24.51 1-.11 1.36-.33c.36-.22.63-.54.81-.94v-6.09h1.54V77h-1.38l-.1-1.25Zm7.59 1.42c-1.18 0-2.11-.39-2.81-1.18s-1.04-1.8-1.04-3.05v-.34c0-1.2.36-2.2 1.07-3 .71-.8 1.56-1.2 2.54-1.2 1.14 0 2 .34 2.59 1.03.58.69.88 1.6.88 2.75v.96h-5.48l-.02.04c.02.81.22 1.48.62 2 .39.52.95.78 1.66.78.52 0 .98-.07 1.37-.22.39-.15.73-.35 1.02-.61l.6 1c-.3.3-.7.55-1.2.75-.5.2-1.09.3-1.8.3Zm-.23-7.56c-.52 0-.96.22-1.32.65-.37.43-.59.98-.67 1.63l.02.04h3.9v-.2c0-.6-.16-1.11-.48-1.51-.32-.41-.8-.61-1.44-.61Zm6.91-1.06.11 1.26c.28-.45.63-.8 1.06-1.04.42-.25.91-.37 1.45-.37.91 0 1.62.27 2.12.8s.75 1.36.75 2.47v5.34h-1.54v-5.3c0-.75-.15-1.27-.44-1.59-.29-.31-.74-.47-1.35-.47-.44 0-.84.11-1.18.32-.34.21-.61.5-.82.88v6.16H354v-8.45h1.38Zm9.94-2.04v2.04h1.6v1.14h-1.6v5.13c0 .4.08.67.25.84s.38.24.65.24c.09 0 .19-.01.29-.03.11-.02.2-.05.29-.08l.2 1.05c-.11.09-.28.17-.5.23-.22.06-.44.09-.67.09-.62 0-1.12-.19-1.49-.57-.37-.38-.55-.97-.55-1.78v-5.13h-1.34v-1.14h1.34v-2.04h1.54Zm3.32 6.19c0-1.25.34-2.28 1.02-3.09.68-.81 1.6-1.21 2.76-1.21s2.1.4 2.78 1.21 1.02 1.84 1.02 3.09v.17c0 1.26-.34 2.29-1.02 3.09-.68.8-1.6 1.2-2.77 1.2s-2.09-.4-2.77-1.21-1.02-1.83-1.02-3.09v-.17Zm1.54.17c0 .89.19 1.63.57 2.22.38.58.94.87 1.68.87s1.29-.29 1.67-.87c.38-.58.57-1.32.57-2.22v-.17c0-.88-.19-1.62-.57-2.21s-.94-.88-1.68-.88-1.29.29-1.67.88c-.38.59-.57 1.32-.57 2.21v.17Zm70.91-6.03h-3.66v10.16h-1.54V66.82h-3.65v-1.21h8.84v1.21Zm2.47 10.16h-1.54v-1.59h1.54v1.59Zm11.03-3.65.02.05c.02 1.07-.35 1.96-1.12 2.68-.77.72-1.79 1.08-3.05 1.08s-2.33-.46-3.14-1.37c-.81-.91-1.21-2.07-1.21-3.47v-2.02c0-1.4.41-2.56 1.21-3.47.81-.91 1.86-1.37 3.14-1.37s2.31.34 3.07 1.03c.76.68 1.13 1.59 1.11 2.72l-.02.05h-1.48c0-.8-.23-1.43-.7-1.89s-1.13-.7-1.98-.7-1.54.35-2.05 1.04c-.51.69-.77 1.55-.77 2.58v2.04c0 1.04.26 1.9.77 2.59s1.2 1.04 2.05 1.04 1.52-.23 1.98-.69.7-1.1.7-1.91h1.48Zm4.16 3.65h-1.54v-1.59h1.54v1.59Zm9.79-11.37 3.62 9.24h.05l3.62-9.24h1.97v11.38h-1.54v-4.5l.16-4.62h-.04l-3.69 9.12h-1.02L468 67.88h-.04l.15 4.61v4.5h-1.54V65.61h1.97Zm13.85.75h-1.54v-1.57h1.54v1.57Zm0 10.62h-1.54v-8.45h1.54v8.45Zm5.63-5.33 1.8-3.12h1.8l-2.74 4.18 2.82 4.27h-1.77l-1.88-3.2-1.88 3.2h-1.78l2.82-4.27-2.74-4.18h1.77l1.77 3.12Zm8-5.16v2.04h1.6v1.14h-1.6v5.13c0 .4.08.67.25.84s.38.24.65.24c.09 0 .19-.01.29-.03.11-.02.2-.05.29-.08l.2 1.05c-.12.09-.28.17-.5.23-.22.06-.45.09-.67.09-.62 0-1.12-.19-1.49-.57-.37-.38-.55-.97-.55-1.78v-5.13h-1.34v-1.14h1.34v-2.04h1.54Zm9.12 10.49c-.05-.25-.09-.48-.12-.68-.03-.2-.05-.39-.05-.59-.29.41-.66.75-1.12 1.02s-.96.41-1.49.41c-.88 0-1.55-.23-2.01-.68s-.69-1.07-.69-1.86.33-1.44.98-1.89c.65-.46 1.54-.68 2.66-.68h1.67v-.84c0-.5-.15-.89-.45-1.18-.3-.29-.73-.43-1.28-.43-.5 0-.9.13-1.21.38-.31.25-.46.56-.46.91h-1.47l-.02-.05c-.03-.61.26-1.18.87-1.69s1.4-.77 2.37-.77 1.73.24 2.31.73c.58.49.88 1.19.88 2.11v4.07c0 .3.02.59.05.88s.09.56.17.83h-1.59Zm-2.55-1.13c.56 0 1.06-.14 1.51-.43.45-.29.74-.61.88-.98v-1.37h-1.73c-.62 0-1.12.16-1.49.47-.37.31-.56.68-.56 1.1 0 .37.12.67.35.89s.58.33 1.04.33ZM635 65.44c.39 0 .78.04 1.16.13s.7.2.95.34l-.33 1.18a4.31 4.31 0 0 0-.8-.32 3.6 3.6 0 0 0-.98-.12c-.81 0-1.47.33-1.96.98-.5.65-.75 1.5-.75 2.55v.18c.33-.29.71-.52 1.14-.68s.89-.25 1.39-.25c1.02 0 1.83.35 2.43 1.05.61.7.91 1.59.91 2.67 0 1.18-.32 2.14-.96 2.88-.64.74-1.5 1.11-2.57 1.11s-2.04-.4-2.77-1.21c-.73-.81-1.09-1.95-1.09-3.41v-2.17c0-1.46.41-2.64 1.22-3.55s1.82-1.36 3.02-1.36Zm-.52 5.13c-.53 0-.97.11-1.34.32-.37.21-.65.5-.84.85v.92c0 1.04.22 1.85.66 2.42.44.57 1 .85 1.66.85.63 0 1.12-.27 1.47-.8s.53-1.19.53-1.99c0-.75-.19-1.37-.57-1.85-.38-.48-.9-.73-1.57-.73Zm11.97 2.58h1.57v1.21h-1.57v2.62h-1.53v-2.62h-5.11v-.87l5.02-7.89h1.62v7.55Zm-5 0h3.47v-5.34h-.05l-.15.38-3.27 4.95Zm10.04 3.83h-1.54v-1.59h1.54v1.59Zm7.17-11.54c.39 0 .78.04 1.16.13s.7.2.95.34l-.33 1.18a4.31 4.31 0 0 0-.8-.32 3.6 3.6 0 0 0-.98-.12c-.81 0-1.47.33-1.96.98-.5.65-.75 1.5-.75 2.55v.18c.33-.29.71-.52 1.14-.68s.89-.25 1.39-.25c1.02 0 1.83.35 2.43 1.05.61.7.91 1.59.91 2.67 0 1.18-.32 2.14-.96 2.88-.64.74-1.5 1.11-2.57 1.11s-2.04-.4-2.77-1.21c-.73-.81-1.09-1.95-1.09-3.41v-2.17c0-1.46.41-2.64 1.22-3.55s1.82-1.36 3.02-1.36Zm-.52 5.13c-.53 0-.97.11-1.34.32-.37.21-.65.5-.84.85v.92c0 1.04.22 1.85.66 2.42.44.57 1 .85 1.66.85.63 0 1.12-.27 1.47-.8s.53-1.19.53-1.99c0-.75-.19-1.37-.57-1.85-.38-.48-.9-.73-1.57-.73Zm10.02-5.13c.39 0 .78.04 1.16.13s.7.2.95.34l-.33 1.18a4.31 4.31 0 0 0-.8-.32 3.6 3.6 0 0 0-.98-.12c-.81 0-1.47.33-1.96.98-.5.65-.75 1.5-.75 2.55v.18c.33-.29.71-.52 1.14-.68s.89-.25 1.39-.25c1.02 0 1.83.35 2.43 1.05.61.7.91 1.59.91 2.67 0 1.18-.32 2.14-.96 2.88-.64.74-1.5 1.11-2.57 1.11s-2.04-.4-2.77-1.21c-.73-.81-1.09-1.95-1.09-3.41v-2.17c0-1.46.41-2.64 1.22-3.55s1.82-1.36 3.02-1.36Zm-.52 5.13c-.53 0-.97.11-1.34.32-.37.21-.65.5-.84.85v.92c0 1.04.22 1.85.66 2.42.44.57 1 .85 1.66.85.63 0 1.12-.27 1.47-.8s.53-1.19.53-1.99c0-.75-.19-1.37-.57-1.85-.38-.48-.9-.73-1.57-.73Zm12.57 6.41h-7.38v-1.06l3.73-4.13c.67-.75 1.12-1.34 1.36-1.77.24-.44.36-.89.36-1.34 0-.57-.17-1.05-.5-1.43-.33-.39-.77-.58-1.32-.58-.79 0-1.37.2-1.74.61-.37.4-.56.97-.56 1.7h-1.48l-.02-.05c-.03-.98.3-1.8.98-2.47.68-.67 1.61-1 2.81-1 1.02 0 1.83.3 2.44.89.61.6.91 1.36.91 2.28 0 .62-.18 1.24-.55 1.86s-.88 1.29-1.54 2l-2.99 3.25.02.04h5.47v1.21ZM15.16 115.01v4.72h-1.9v-11.38h4.2c1.27 0 2.25.29 2.95.86.69.57 1.04 1.39 1.04 2.45 0 .59-.15 1.09-.46 1.52s-.75.76-1.33 1.02c.64.2 1.1.54 1.38 1s.42 1.03.42 1.7v.95c0 .33.04.66.12.98.08.32.22.56.42.73v.18h-1.95c-.21-.17-.34-.44-.4-.81-.06-.37-.09-.73-.09-1.09v-.91c0-.58-.17-1.05-.5-1.39-.33-.34-.79-.52-1.38-.52h-2.53Zm0-1.52h2.2c.76 0 1.31-.15 1.66-.44.35-.29.52-.74.52-1.34s-.17-1.02-.52-1.35-.87-.49-1.57-.49h-2.3v3.61Zm12.17 6.4c-1.2 0-2.15-.39-2.86-1.18s-1.07-1.79-1.07-3.02v-.31c0-1.23.35-2.25 1.06-3.06.71-.81 1.59-1.21 2.65-1.21 1.14 0 2.01.34 2.62 1.04.61.69.91 1.62.91 2.78v1.12h-5.27l-.02.04c.03.67.23 1.22.59 1.64.36.43.86.64 1.5.64.51 0 .95-.06 1.31-.19.36-.12.72-.3 1.05-.54l.61 1.25c-.32.28-.74.52-1.27.71-.53.19-1.14.29-1.83.29Zm-.22-7.25c-.47 0-.85.19-1.16.56-.3.37-.49.84-.56 1.42l.02.04h3.35v-.2c0-.54-.14-.97-.41-1.31s-.69-.51-1.24-.51Zm7.79-3.42v2.05h1.52v1.41H34.9v4.67c0 .35.08.6.23.75.15.15.35.22.6.22.1 0 .21 0 .3-.03.1-.02.19-.04.28-.07l.2 1.39c-.16.09-.35.16-.58.21-.22.05-.46.07-.7.07-.7 0-1.24-.2-1.64-.61-.4-.41-.59-1.05-.59-1.93v-4.67h-1.29v-1.41H33v-2.05h1.89Zm8.5 10.51c-.07-.21-.12-.42-.17-.62-.04-.2-.07-.41-.09-.61-.26.4-.6.73-1.03 1-.43.27-.9.4-1.43.4-.88 0-1.56-.23-2.03-.68-.47-.45-.71-1.08-.71-1.87s.32-1.45.97-1.91c.64-.46 1.55-.68 2.73-.68h1.48v-.74c0-.44-.13-.79-.39-1.04s-.63-.38-1.12-.38c-.43 0-.78.1-1.03.31a.98.98 0 0 0-.38.8h-1.83v-.05c-.04-.67.25-1.26.89-1.77s1.46-.77 2.47-.77 1.78.25 2.38.75c.6.5.91 1.22.91 2.16v3.76c0 .35.02.68.07 1s.12.63.23.94H43.4Zm-2.33-1.36c.48 0 .91-.12 1.29-.36s.64-.51.76-.82v-1.25h-1.51c-.55 0-.98.14-1.3.41s-.47.59-.47.96c0 .32.11.58.32.77s.51.29.9.29Zm8-7.09.11 1.22c.28-.43.62-.77 1.04-1.01.42-.24.89-.36 1.42-.36.88 0 1.57.27 2.06.8s.74 1.37.74 2.5v5.31h-1.9v-5.3c0-.64-.13-1.09-.39-1.36s-.66-.4-1.2-.4c-.37 0-.7.08-.99.25-.29.16-.53.39-.72.68v6.13h-1.9v-8.45h1.73Zm7.33 4.34c0-1.35.29-2.44.87-3.26s1.39-1.24 2.44-1.24c.49 0 .92.1 1.3.3s.7.5.96.88l.22-1.02h1.54v11.7h-1.9v-4.05c-.26.32-.57.56-.92.72-.35.16-.76.24-1.21.24-1.04 0-1.84-.38-2.42-1.13s-.87-1.75-.87-2.98v-.16Zm1.9.16c0 .78.15 1.41.45 1.88.3.47.77.71 1.43.71a2 2 0 0 0 .98-.23c.27-.15.49-.38.67-.67v-3.93c-.18-.28-.4-.5-.67-.66-.27-.16-.59-.24-.96-.24-.65 0-1.12.28-1.43.83-.31.55-.46 1.27-.46 2.14v.16Zm13.07 2.72c-.27.45-.6.79-1.01 1.04s-.88.36-1.41.36c-.91 0-1.61-.29-2.12-.87-.51-.58-.77-1.48-.77-2.7v-5.05h1.89v5.07c0 .74.12 1.26.36 1.55.24.3.6.45 1.09.45.46 0 .84-.08 1.15-.25.31-.16.55-.4.73-.71v-6.11h1.9v8.45h-1.66l-.16-1.23Zm7.72 1.39c-1.2 0-2.15-.39-2.86-1.18s-1.07-1.79-1.07-3.02v-.31c0-1.23.35-2.25 1.06-3.06.71-.81 1.59-1.21 2.65-1.21 1.14 0 2.01.34 2.62 1.04.61.69.91 1.62.91 2.78v1.12h-5.27l-.02.04c.03.67.23 1.22.59 1.64.36.43.86.64 1.5.64.51 0 .95-.06 1.31-.19.36-.12.72-.3 1.05-.54l.61 1.25c-.32.28-.74.52-1.27.71-.53.19-1.14.29-1.83.29Zm-.22-7.25c-.47 0-.85.19-1.16.56-.3.37-.49.84-.56 1.42l.02.04h3.35v-.2c0-.54-.14-.97-.41-1.31s-.69-.51-1.24-.51Zm5.12 2.79c0-1.25.34-2.29 1.03-3.09.7-.81 1.64-1.21 2.84-1.21s2.16.4 2.85 1.21c.69.8 1.04 1.83 1.04 3.09v.16c0 1.27-.35 2.31-1.04 3.11-.69.8-1.63 1.2-2.84 1.2s-2.16-.4-2.85-1.2c-.69-.8-1.03-1.84-1.03-3.1v-.16Zm1.9.16c0 .82.16 1.49.48 2.01.32.51.82.77 1.5.77s1.16-.26 1.48-.77c.33-.52.5-1.19.5-2.01v-.16c0-.81-.17-1.47-.5-1.99-.33-.53-.83-.79-1.5-.79s-1.16.26-1.48.79c-.32.53-.48 1.19-.48 1.99v.16Zm14.46-6.37v2.05h1.52v1.41h-1.52v4.67c0 .35.08.6.23.75.15.15.35.22.6.22.1 0 .21 0 .3-.03.1-.02.19-.04.28-.07l.2 1.39c-.16.09-.35.16-.58.21-.22.05-.46.07-.7.07-.7 0-1.25-.2-1.64-.61-.4-.41-.59-1.05-.59-1.93v-4.67h-1.29v-1.41h1.29v-2.05h1.89Zm7.58 3.77-.81-.03c-.37 0-.68.08-.93.23-.25.16-.44.38-.57.66v5.88h-1.9v-8.45h1.73l.12 1.23c.21-.43.49-.77.82-1.02s.72-.37 1.16-.37c.11 0 .22 0 .32.03.1.02.19.04.27.07l-.23 1.77Zm6.65 6.74c-.07-.21-.12-.42-.17-.62-.04-.2-.07-.41-.09-.61-.26.4-.6.73-1.03 1-.42.27-.9.4-1.43.4-.88 0-1.56-.23-2.03-.68-.47-.45-.71-1.08-.71-1.87s.32-1.45.97-1.91c.65-.46 1.55-.68 2.73-.68h1.48v-.74c0-.44-.13-.79-.39-1.04s-.63-.38-1.12-.38c-.43 0-.78.1-1.03.31a.98.98 0 0 0-.38.8h-1.83v-.05c-.04-.67.25-1.26.89-1.77s1.46-.77 2.47-.77 1.78.25 2.38.75c.6.5.91 1.22.91 2.16v3.76c0 .35.02.68.07 1s.12.63.23.94h-1.92Zm-2.33-1.36c.48 0 .91-.12 1.29-.36s.64-.51.76-.82v-1.25h-1.51c-.55 0-.98.14-1.3.41s-.47.59-.47.96c0 .32.11.58.32.77s.51.29.9.29Zm8-7.09.1 1.1c.28-.4.62-.71 1.04-.93.42-.22.9-.33 1.45-.33s1.03.12 1.42.38c.39.25.69.62.89 1.12.26-.47.6-.84 1.03-1.1.43-.27.93-.4 1.5-.4.85 0 1.52.29 2.01.87s.74 1.46.74 2.64v5.09h-1.9v-5.1c0-.72-.12-1.22-.37-1.52-.25-.29-.62-.44-1.11-.44-.41 0-.75.11-1.03.33s-.48.51-.61.88v5.84h-1.9v-5.1c0-.69-.13-1.19-.38-1.5-.25-.3-.62-.46-1.11-.46-.39 0-.71.07-.98.22s-.48.36-.64.63v6.2h-1.9v-8.45h1.73Zm12.1 4.15c0-1.25.34-2.29 1.03-3.09.7-.81 1.64-1.21 2.84-1.21s2.16.4 2.85 1.21c.69.8 1.04 1.83 1.04 3.09v.16c0 1.27-.35 2.31-1.04 3.11-.69.8-1.63 1.2-2.84 1.2s-2.16-.4-2.85-1.2c-.69-.8-1.03-1.84-1.03-3.1v-.16Zm1.9.16c0 .82.16 1.49.48 2.01.32.51.82.77 1.5.77s1.16-.26 1.48-.77c.33-.52.5-1.19.5-2.01v-.16c0-.81-.17-1.47-.5-1.99-.33-.53-.83-.79-1.5-.79s-1.16.26-1.48.79c-.32.53-.48 1.19-.48 1.99v.16Zm14.36 4.14h-1.9v-11.38h1.9v11.38Zm4.66 0h-1.9v-11.38h1.9v11.38Zm127.13.02v-11.38h3.49c1.49 0 2.69.46 3.59 1.37.9.91 1.35 2.09 1.35 3.54v1.55c0 1.45-.45 2.63-1.35 3.54-.9.91-2.1 1.36-3.59 1.36h-3.49Zm1.54-10.16v8.95h1.95c1.05 0 1.88-.35 2.49-1.04.61-.69.91-1.58.91-2.66v-1.57c0-1.07-.3-1.95-.91-2.65-.61-.69-1.44-1.04-2.49-1.04h-1.95Zm10.74-.46h-1.54v-1.57h1.54v1.57Zm0 10.62h-1.54v-8.45h1.54v8.45Zm6.64-7.09-.79-.05c-.41 0-.75.1-1.03.29-.28.19-.49.46-.64.81v6.04h-1.54v-8.45h1.38l.15 1.23c.24-.44.54-.78.89-1.02s.76-.37 1.21-.37c.11 0 .22 0 .33.03.1.02.19.04.26.06l-.21 1.43Zm5.26 7.25c-1.18 0-2.11-.39-2.81-1.18s-1.04-1.8-1.04-3.05v-.34c0-1.2.36-2.2 1.07-3 .72-.8 1.56-1.2 2.54-1.2 1.14 0 2 .34 2.59 1.03.58.69.88 1.6.88 2.75v.96h-5.48l-.02.04c.02.81.22 1.48.62 2s.95.78 1.66.78c.52 0 .98-.07 1.37-.22.39-.15.73-.35 1.02-.61l.6 1c-.3.3-.7.55-1.2.75-.49.2-1.09.3-1.8.3Zm-.23-7.56c-.52 0-.96.22-1.32.65-.36.43-.59.98-.67 1.63l.02.04h3.9v-.2c0-.6-.16-1.11-.48-1.51-.32-.41-.8-.61-1.44-.61Zm9.09 6.35c.51 0 .96-.16 1.35-.47.39-.32.58-.7.58-1.16h1.38l.02.05c.03.73-.3 1.38-.97 1.95-.68.57-1.46.85-2.36.85-1.23 0-2.17-.4-2.82-1.2-.65-.8-.98-1.81-.98-3.02v-.33c0-1.2.33-2.21.98-3.01.65-.8 1.59-1.21 2.82-1.21.99 0 1.8.29 2.43.88.63.58.93 1.3.91 2.15l-.02.05h-1.39c0-.52-.18-.95-.55-1.32-.37-.36-.83-.54-1.38-.54-.81 0-1.38.29-1.73.87-.35.58-.52 1.29-.52 2.13v.33c0 .86.17 1.58.52 2.16s.92.86 1.73.86Zm7.77-9.44v2.04h1.6v1.14h-1.6v5.13c0 .4.08.67.25.84s.38.24.65.24c.09 0 .19-.01.29-.03.11-.02.2-.05.29-.08l.2 1.05c-.11.09-.28.17-.5.23-.22.06-.44.09-.67.09-.62 0-1.12-.19-1.49-.57-.37-.38-.55-.97-.55-1.78v-5.13h-1.34v-1.14h1.34v-2.04h1.54Zm3.32 6.19c0-1.25.34-2.28 1.02-3.09.68-.81 1.6-1.21 2.76-1.21s2.1.4 2.78 1.21 1.02 1.84 1.02 3.09v.17c0 1.26-.34 2.29-1.02 3.09-.68.8-1.6 1.2-2.77 1.2s-2.09-.4-2.77-1.21-1.02-1.83-1.02-3.09v-.17Zm1.54.17c0 .89.19 1.63.57 2.22.38.58.94.87 1.68.87s1.29-.29 1.67-.87c.38-.58.57-1.32.57-2.22v-.17c0-.88-.19-1.62-.57-2.21s-.94-.88-1.68-.88-1.29.29-1.67.88c-.38.59-.57 1.32-.57 2.21v.17Zm115.04-6.03h-3.66v10.16h-1.54v-10.16h-3.65v-1.21h8.84v1.21Zm2.47 10.16h-1.54v-1.59h1.54v1.59Zm11.03-3.65.02.05c.02 1.07-.35 1.96-1.12 2.68-.77.72-1.79 1.08-3.05 1.08s-2.33-.46-3.14-1.37c-.81-.91-1.21-2.07-1.21-3.47v-2.02c0-1.4.41-2.56 1.21-3.47.81-.91 1.86-1.37 3.14-1.37s2.31.34 3.07 1.03c.76.68 1.13 1.59 1.11 2.72l-.02.05h-1.48c0-.8-.23-1.43-.7-1.89s-1.13-.7-1.98-.7-1.54.35-2.05 1.04c-.51.69-.77 1.55-.77 2.58v2.04c0 1.04.26 1.9.77 2.59s1.2 1.04 2.05 1.04 1.52-.23 1.98-.69.7-1.1.7-1.91h1.48Zm4.15 3.65h-1.54v-1.59h1.54v1.59Zm168.82-8.41c0 .59-.17 1.11-.5 1.56-.33.45-.78.78-1.35 1 .66.23 1.18.59 1.57 1.08.39.49.59 1.05.59 1.7 0 1.05-.34 1.86-1.03 2.41-.68.55-1.57.83-2.67.83s-2.01-.28-2.69-.83-1.02-1.36-1.02-2.41c0-.64.19-1.21.58-1.7.39-.49.91-.85 1.56-1.08-.57-.22-1.01-.55-1.34-1-.32-.45-.48-.96-.48-1.56 0-1 .31-1.77.93-2.32s1.43-.82 2.45-.82 1.82.27 2.45.82.95 1.32.95 2.32Zm-1.22 5.29c0-.62-.21-1.14-.62-1.54-.41-.4-.93-.6-1.56-.6s-1.16.2-1.56.6-.6.91-.6 1.54.2 1.15.59 1.52c.4.37.92.55 1.58.55s1.16-.18 1.56-.55c.4-.37.6-.87.6-1.51Zm-.32-5.26c0-.56-.18-1.03-.53-1.4s-.79-.55-1.33-.55-.99.18-1.33.54c-.34.36-.51.83-.51 1.42s.17 1.04.51 1.39c.34.35.79.52 1.34.52s.98-.17 1.33-.52.52-.81.52-1.39Zm11.23 4.04c0 1.45-.32 2.57-.96 3.34-.64.77-1.52 1.16-2.64 1.16s-2-.39-2.66-1.16c-.65-.78-.98-1.89-.98-3.34v-2.7c0-1.45.32-2.56.97-3.34s1.53-1.17 2.64-1.17 2 .39 2.65 1.17.97 1.89.97 3.34v2.7Zm-1.54-3.03c0-.98-.18-1.72-.54-2.22-.36-.5-.87-.75-1.55-.75s-1.19.25-1.55.75c-.35.5-.53 1.24-.53 2.22v3.33c0 .98.18 1.73.54 2.23.36.5.88.75 1.55.75s1.19-.25 1.54-.75c.35-.5.53-1.24.53-2.23v-3.33Zm11.17 3.03c0 1.45-.32 2.57-.96 3.34-.64.77-1.53 1.16-2.64 1.16s-2.01-.39-2.66-1.16c-.65-.78-.98-1.89-.98-3.34v-2.7c0-1.45.32-2.56.97-3.34s1.53-1.17 2.64-1.17 2 .39 2.65 1.17.97 1.89.97 3.34v2.7Zm-1.54-3.03c0-.98-.18-1.72-.54-2.22-.36-.5-.88-.75-1.55-.75s-1.19.25-1.55.75c-.36.5-.53 1.24-.53 2.22v3.33c0 .98.18 1.73.54 2.23.36.5.88.75 1.55.75s1.19-.25 1.54-.75c.35-.5.53-1.24.53-2.23v-3.33Zm5.47 7.37h-1.54v-1.59h1.54v1.59Zm9.96-4.34c0 1.45-.32 2.57-.96 3.34-.64.77-1.53 1.16-2.64 1.16s-2.01-.39-2.66-1.16c-.65-.78-.98-1.89-.98-3.34v-2.7c0-1.45.32-2.56.97-3.34s1.53-1.17 2.64-1.17 2 .39 2.65 1.17.97 1.89.97 3.34v2.7Zm-1.54-3.03c0-.98-.18-1.72-.54-2.22-.36-.5-.88-.75-1.55-.75s-1.19.25-1.55.75c-.36.5-.53 1.24-.53 2.22v3.33c0 .98.18 1.73.54 2.23.36.5.88.75 1.55.75s1.19-.25 1.54-.75c.35-.5.53-1.24.53-2.23v-3.33Zm11.16 3.03c0 1.45-.32 2.57-.96 3.34-.64.77-1.52 1.16-2.64 1.16s-2-.39-2.66-1.16c-.65-.78-.98-1.89-.98-3.34v-2.7c0-1.45.32-2.56.97-3.34s1.53-1.17 2.64-1.17 2 .39 2.65 1.17.97 1.89.97 3.34v2.7Zm-1.54-3.03c0-.98-.18-1.72-.54-2.22-.36-.5-.87-.75-1.55-.75s-1.19.25-1.55.75c-.35.5-.53 1.24-.53 2.22v3.33c0 .98.18 1.73.54 2.23.36.5.88.75 1.55.75s1.19-.25 1.54-.75c.35-.5.53-1.24.53-2.23v-3.33Zm11.16 3.03c0 1.45-.32 2.57-.96 3.34-.64.77-1.52 1.16-2.64 1.16s-2-.39-2.66-1.16c-.65-.78-.98-1.89-.98-3.34v-2.7c0-1.45.32-2.56.97-3.34s1.53-1.17 2.64-1.17 2 .39 2.65 1.17.97 1.89.97 3.34v2.7Zm-1.54-3.03c0-.98-.18-1.72-.54-2.22-.36-.5-.87-.75-1.55-.75s-1.19.25-1.55.75c-.35.5-.53 1.24-.53 2.22v3.33c0 .98.18 1.73.54 2.23.36.5.88.75 1.55.75s1.19-.25 1.54-.75c.35-.5.53-1.24.53-2.23v-3.33ZM21.56 153.96l.02.05c.02 1.15-.35 2.09-1.12 2.81-.77.72-1.81 1.08-3.12 1.08s-2.41-.45-3.24-1.34c-.83-.89-1.25-2.04-1.25-3.43v-2.16c0-1.39.41-2.53 1.23-3.43s1.89-1.35 3.2-1.35 2.4.35 3.18 1.06 1.15 1.66 1.13 2.85l-.02.05h-1.84c0-.77-.21-1.36-.62-1.79s-1.03-.64-1.83-.64-1.39.31-1.85.92c-.46.61-.68 1.38-.68 2.31v2.18c0 .94.23 1.71.7 2.33.46.61 1.09.92 1.89.92s1.38-.21 1.79-.63c.41-.42.61-1.01.61-1.78h1.83Zm1.68-.53c0-1.25.34-2.29 1.03-3.09.7-.81 1.64-1.21 2.84-1.21s2.16.4 2.85 1.21c.69.8 1.04 1.83 1.04 3.09v.16c0 1.27-.35 2.31-1.04 3.11-.69.8-1.63 1.2-2.84 1.2s-2.16-.4-2.85-1.2c-.69-.8-1.03-1.84-1.03-3.1v-.16Zm1.9.16c0 .82.16 1.49.48 2.01.32.51.82.77 1.5.77s1.16-.26 1.48-.77c.33-.52.5-1.19.5-2.01v-.16c0-.81-.17-1.47-.5-1.99-.33-.53-.83-.79-1.5-.79s-1.16.26-1.48.79c-.32.53-.48 1.19-.48 1.99v.16Zm9.57-4.31.1 1.1c.28-.4.62-.71 1.04-.93.42-.22.9-.33 1.45-.33s1.03.12 1.42.38c.4.25.69.62.89 1.12.26-.47.6-.84 1.03-1.1.43-.27.93-.4 1.5-.4.85 0 1.52.29 2.01.87s.74 1.46.74 2.64v5.09h-1.9v-5.1c0-.72-.12-1.22-.37-1.52-.25-.29-.62-.44-1.11-.44-.41 0-.75.11-1.03.33s-.48.51-.61.88v5.84h-1.9v-5.1c0-.69-.13-1.19-.38-1.5-.25-.3-.62-.46-1.11-.46-.38 0-.71.07-.98.22s-.48.36-.64.63v6.2h-1.9v-8.45h1.73Zm19.92 4.51c0 1.23-.29 2.22-.87 2.98s-1.38 1.13-2.41 1.13a3 3 0 0 1-1.27-.26c-.37-.17-.69-.42-.95-.76v4.1h-1.9v-11.7h1.6l.19 1.06c.27-.4.6-.7.98-.91s.83-.31 1.33-.31c1.04 0 1.85.41 2.43 1.24.58.83.87 1.91.87 3.26v.16Zm-1.89-.17c0-.86-.16-1.57-.49-2.12-.33-.55-.81-.82-1.46-.82-.4 0-.73.08-1.01.25-.28.17-.5.4-.66.71v3.81c.17.3.39.52.66.68.28.16.62.24 1.02.24.65 0 1.13-.24 1.45-.71s.48-1.1.48-1.88v-.16Zm8.11-2.63-.81-.03c-.37 0-.68.08-.93.23-.25.16-.44.38-.57.66v5.88h-1.9v-8.45h1.73l.12 1.23c.21-.43.49-.77.82-1.02s.72-.37 1.16-.37c.11 0 .22 0 .32.03.1.02.19.04.27.07l-.23 1.77Zm1.21 2.44c0-1.25.34-2.29 1.03-3.09.7-.81 1.64-1.21 2.84-1.21s2.16.4 2.85 1.21c.69.8 1.04 1.83 1.04 3.09v.16c0 1.27-.35 2.31-1.04 3.11-.69.8-1.63 1.2-2.84 1.2s-2.16-.4-2.85-1.2c-.69-.8-1.03-1.84-1.03-3.1v-.16Zm1.9.16c0 .82.16 1.49.48 2.01.32.51.82.77 1.5.77s1.16-.26 1.48-.77c.33-.52.5-1.19.5-2.01v-.16c0-.81-.17-1.47-.5-1.99-.33-.53-.83-.79-1.5-.79s-1.16.26-1.48.79c-.32.53-.48 1.19-.48 1.99v.16Zm9.57-4.31.1 1.1c.28-.4.62-.71 1.04-.93.42-.22.9-.33 1.45-.33s1.03.12 1.42.38c.4.25.69.62.89 1.12.26-.47.6-.84 1.03-1.1.43-.27.93-.4 1.5-.4.85 0 1.52.29 2.01.87s.74 1.46.74 2.64v5.09h-1.9v-5.1c0-.72-.12-1.22-.37-1.52-.25-.29-.62-.44-1.11-.44-.41 0-.75.11-1.03.33s-.48.51-.61.88v5.84h-1.9v-5.1c0-.69-.13-1.19-.38-1.5-.25-.3-.62-.46-1.11-.46-.39 0-.71.07-.98.22s-.48.36-.64.63v6.2h-1.9v-8.45h1.73ZM88 147.21h-1.9v-1.66H88v1.66Zm0 10.52h-1.9v-8.45H88v8.45Zm7.08-2.3c0-.29-.12-.53-.38-.73s-.72-.36-1.4-.51c-1.01-.21-1.77-.52-2.29-.91s-.78-.93-.78-1.61.3-1.31.9-1.81 1.39-.75 2.37-.75c1.03 0 1.85.25 2.46.76s.9 1.14.87 1.89l-.02.05h-1.82c0-.35-.13-.65-.4-.9s-.63-.38-1.09-.38-.81.1-1.05.31-.36.46-.36.75.11.53.34.71.69.33 1.38.46c1.06.22 1.85.53 2.36.93s.77.94.77 1.63c0 .76-.31 1.38-.94 1.85s-1.45.71-2.48.71c-1.1 0-1.97-.28-2.6-.84s-.94-1.21-.91-1.94l.02-.05h1.77c.02.49.2.85.53 1.07s.74.34 1.22.34.87-.09 1.13-.28.4-.44.4-.76Zm3.44-2c0-1.25.34-2.29 1.03-3.09.7-.81 1.64-1.21 2.84-1.21s2.16.4 2.85 1.21c.69.8 1.04 1.83 1.04 3.09v.16c0 1.27-.35 2.31-1.04 3.11-.69.8-1.63 1.2-2.84 1.2s-2.16-.4-2.85-1.2c-.69-.8-1.03-1.84-1.03-3.1v-.16Zm1.9.16c0 .82.16 1.49.48 2.01.32.51.82.77 1.5.77s1.16-.26 1.48-.77c.33-.52.5-1.19.5-2.01v-.16c0-.81-.17-1.47-.5-1.99-.33-.53-.83-.79-1.5-.79s-1.16.26-1.48.79c-.32.53-.48 1.19-.48 1.99v.16Zm13.87-4.31.1 1.1c.28-.4.62-.71 1.04-.93.42-.22.9-.33 1.45-.33s1.03.12 1.42.38c.4.25.69.62.89 1.12.26-.47.6-.84 1.03-1.1.43-.27.93-.4 1.5-.4.85 0 1.52.29 2.01.87s.74 1.46.74 2.64v5.09h-1.9v-5.1c0-.72-.12-1.22-.37-1.52-.25-.29-.62-.44-1.11-.44-.41 0-.75.11-1.03.33s-.48.51-.61.88v5.84h-1.9v-5.1c0-.69-.13-1.19-.38-1.5-.25-.3-.62-.46-1.11-.46-.38 0-.71.07-.98.22s-.48.36-.64.63v6.2h-1.9v-8.45h1.73Zm14.47-2.07h-1.9v-1.66h1.9v1.66Zm0 10.52h-1.9v-8.45h1.9v8.45Zm4.77-10.51v2.05h1.52v1.41h-1.52v4.67c0 .35.08.6.23.75s.35.22.6.22c.1 0 .21 0 .3-.03s.19-.04.28-.07l.2 1.39c-.16.09-.35.16-.58.21s-.46.07-.7.07c-.7 0-1.25-.2-1.64-.61s-.59-1.05-.59-1.93v-4.67h-1.29v-1.41h1.29v-2.05h1.89Zm5.33-.01h-1.9v-1.66h1.9v1.66Zm0 10.52h-1.9v-8.45h1.9v8.45Zm2.07-4.11c0-1.34.29-2.43.88-3.26.59-.83 1.41-1.24 2.45-1.24.51 0 .95.11 1.33.32s.71.53.97.93l.19-1.1h1.58v8.45c0 1.09-.34 1.93-1.01 2.52s-1.62.89-2.86.89c-.41 0-.86-.06-1.33-.18s-.91-.27-1.29-.46l.41-1.49c.31.16.66.29 1.04.38.38.09.77.14 1.17.14.69 0 1.19-.15 1.51-.44.32-.29.48-.75.48-1.36v-.87c-.27.34-.58.59-.94.77-.36.17-.78.26-1.25.26-1.04 0-1.85-.38-2.44-1.13-.59-.75-.88-1.75-.88-2.98v-.16Zm1.9.16c0 .78.16 1.4.46 1.86.31.47.79.7 1.44.7.41 0 .75-.08 1.03-.25.28-.17.5-.41.68-.73v-3.7c-.18-.31-.4-.55-.68-.72-.28-.17-.61-.26-1-.26-.65 0-1.13.27-1.45.82-.31.55-.47 1.25-.47 2.12v.16Zm12.9 3.95c-.07-.21-.12-.42-.17-.62-.04-.2-.07-.41-.09-.61-.26.4-.6.73-1.03 1-.43.27-.9.4-1.43.4-.88 0-1.56-.23-2.03-.68-.47-.45-.71-1.08-.71-1.87s.32-1.45.97-1.91c.64-.46 1.55-.68 2.73-.68h1.48v-.74c0-.44-.13-.79-.39-1.04s-.63-.38-1.12-.38c-.43 0-.78.1-1.03.31a.98.98 0 0 0-.38.8h-1.83v-.05c-.04-.67.25-1.26.89-1.77s1.46-.77 2.47-.77 1.78.25 2.38.75c.6.5.91 1.22.91 2.16v3.76c0 .35.02.68.07 1s.12.63.23.94h-1.92Zm-2.33-1.36c.48 0 .91-.12 1.29-.36s.64-.51.76-.82v-1.25h-1.51c-.55 0-.98.14-1.3.41s-.47.59-.47.96c0 .32.11.58.32.77s.51.29.9.29Zm9.69 0c.46 0 .85-.14 1.17-.41.32-.27.48-.61.48-1.02h1.72l.02.05c.03.79-.3 1.47-.96 2.05s-1.48.86-2.42.86c-1.25 0-2.2-.4-2.86-1.2s-1-1.82-1-3.05v-.27c0-1.22.33-2.24 1-3.04s1.62-1.21 2.86-1.21c1.02 0 1.84.3 2.47.89s.94 1.34.92 2.25l-.02.05h-1.73c0-.46-.15-.86-.46-1.18s-.7-.48-1.19-.48c-.71 0-1.22.26-1.52.78s-.45 1.17-.45 1.95v.27c0 .8.15 1.45.45 1.96s.8.77 1.52.77Zm7.26-9.16h-1.9v-1.66h1.9v1.66Zm0 10.52h-1.9v-8.45h1.9v8.45Zm2.03-4.3c0-1.25.34-2.29 1.03-3.09.7-.81 1.64-1.21 2.84-1.21s2.16.4 2.85 1.21c.69.8 1.04 1.83 1.04 3.09v.16c0 1.27-.35 2.31-1.04 3.11-.69.8-1.63 1.2-2.84 1.2s-2.16-.4-2.85-1.2c-.69-.8-1.03-1.84-1.03-3.1v-.16Zm1.9.16c0 .82.16 1.49.48 2.01.32.51.82.77 1.5.77s1.16-.26 1.48-.77c.33-.52.5-1.19.5-2.01v-.16c0-.81-.17-1.47-.5-1.99-.33-.53-.83-.79-1.5-.79s-1.16.26-1.48.79c-.32.53-.48 1.19-.48 1.99v.16Zm2.55-7.6h2.1l.02.05-2.13 2.03h-1.48l1.49-2.08Zm7.02 3.29.11 1.22c.28-.43.62-.77 1.04-1.01.42-.24.89-.36 1.42-.36.88 0 1.57.27 2.06.8s.74 1.37.74 2.5v5.31h-1.9v-5.3c0-.64-.13-1.09-.39-1.36s-.66-.4-1.2-.4c-.37 0-.7.08-.99.25-.29.16-.53.39-.72.68v6.13h-1.9v-8.45h1.73ZM13.63 181.73v-7.05h-1.29v-1.41h1.29v-.98c0-.93.25-1.65.76-2.16s1.22-.76 2.14-.76c.18 0 .37.01.55.04s.4.07.63.12l-.2 1.47c-.11-.02-.22-.04-.35-.05-.13-.02-.27-.02-.41-.02-.41 0-.72.12-.93.35-.21.23-.31.57-.31 1.01v.98h1.72v1.41h-1.72v7.05h-1.9Zm8.71.16c-1.2 0-2.15-.39-2.86-1.18s-1.07-1.79-1.07-3.02v-.31c0-1.23.35-2.25 1.06-3.06.71-.81 1.59-1.21 2.65-1.21 1.14 0 2.01.34 2.62 1.04.61.69.91 1.62.91 2.78v1.12h-5.27l-.02.04c.03.67.23 1.22.59 1.64.36.43.86.64 1.5.64.51 0 .95-.06 1.31-.19.36-.12.72-.3 1.05-.54l.61 1.25c-.32.28-.74.52-1.27.71-.53.19-1.14.29-1.83.29Zm-.22-7.25c-.47 0-.85.19-1.16.56-.3.37-.49.84-.56 1.42l.02.04h3.35v-.2c0-.54-.14-.97-.41-1.31s-.69-.51-1.24-.51Zm7.21-1.36.11 1.22c.28-.43.62-.77 1.04-1.01.42-.24.89-.36 1.42-.36.88 0 1.57.27 2.06.8s.74 1.37.74 2.5v5.31h-1.9v-5.3c0-.64-.13-1.09-.39-1.36s-.66-.4-1.2-.4c-.37 0-.7.08-.99.25-.29.16-.53.39-.72.68v6.13h-1.9v-8.45h1.73Zm7.28 4.15c0-1.25.34-2.29 1.03-3.09.7-.81 1.64-1.21 2.84-1.21s2.16.4 2.85 1.21c.69.8 1.04 1.83 1.04 3.09v.16c0 1.27-.35 2.31-1.04 3.11-.69.8-1.63 1.2-2.84 1.2s-2.16-.4-2.85-1.2c-.69-.8-1.03-1.84-1.03-3.1v-.16Zm1.9.16c0 .82.16 1.49.48 2.01.32.51.82.77 1.5.77s1.16-.26 1.48-.77c.33-.52.5-1.19.5-2.01v-.16c0-.81-.17-1.47-.5-1.99-.33-.53-.83-.79-1.5-.79s-1.16.26-1.48.79c-.32.53-.48 1.19-.48 1.99v.16Zm2.55-7.6h2.1l.02.05-2.13 2.03h-1.48l1.49-2.08Zm7.03 3.29.1 1.1c.28-.4.62-.71 1.04-.93.42-.22.9-.33 1.45-.33s1.03.12 1.42.38c.4.25.69.62.89 1.12.26-.47.6-.84 1.03-1.1.43-.27.93-.4 1.5-.4.85 0 1.52.29 2.01.87s.74 1.46.74 2.64v5.09h-1.9v-5.1c0-.72-.12-1.22-.37-1.52-.25-.29-.62-.44-1.11-.44-.41 0-.75.11-1.03.33s-.48.51-.61.88v5.84h-1.9v-5.1c0-.69-.13-1.19-.38-1.5-.25-.3-.62-.46-1.11-.46-.38 0-.71.07-.98.22s-.48.36-.64.63v6.2h-1.9v-8.45h1.73Zm16.07 8.61c-1.2 0-2.15-.39-2.86-1.18s-1.07-1.79-1.07-3.02v-.31c0-1.23.35-2.25 1.06-3.06.71-.81 1.59-1.21 2.65-1.21 1.14 0 2.01.34 2.62 1.04.61.69.91 1.62.91 2.78v1.12H62.2l-.02.04c.03.67.23 1.22.59 1.64.36.43.86.64 1.5.64.51 0 .95-.06 1.31-.19.36-.12.71-.3 1.05-.54l.61 1.25c-.32.28-.74.52-1.27.71-.53.19-1.14.29-1.83.29Zm-.22-7.25c-.47 0-.86.19-1.16.56-.3.37-.49.84-.56 1.42l.02.04h3.35v-.2c0-.54-.14-.97-.41-1.31s-.69-.51-1.24-.51Zm7.21-1.36.11 1.22c.28-.43.62-.77 1.04-1.01s.89-.36 1.42-.36c.88 0 1.57.27 2.06.8s.74 1.37.74 2.5v5.31h-1.9v-5.3c0-.64-.13-1.09-.39-1.36s-.66-.4-1.2-.4c-.37 0-.7.08-.99.25s-.53.39-.72.68v6.13h-1.9v-8.45h1.73Zm7.28 4.15c0-1.25.34-2.29 1.03-3.09.7-.81 1.64-1.21 2.84-1.21s2.16.4 2.85 1.21c.69.8 1.04 1.83 1.04 3.09v.16c0 1.27-.35 2.31-1.04 3.11-.69.8-1.63 1.2-2.84 1.2s-2.16-.4-2.85-1.2c-.69-.8-1.03-1.84-1.03-3.1v-.16Zm1.9.16c0 .82.16 1.49.48 2.01.32.51.82.77 1.5.77s1.16-.26 1.48-.77c.33-.52.5-1.19.5-2.01v-.16c0-.81-.17-1.47-.5-1.99-.33-.53-.83-.79-1.5-.79s-1.16.26-1.48.79c-.32.53-.48 1.19-.48 1.99v.16Zm11.79.03c0-1.35.29-2.44.87-3.26s1.39-1.24 2.44-1.24c.46 0 .87.09 1.23.28.36.18.68.45.94.79v-4.65h1.9v12.19h-1.59l-.19-1.05c-.27.4-.6.7-.98.9-.38.21-.82.31-1.33.31-1.04 0-1.84-.38-2.42-1.13s-.87-1.75-.87-2.98v-.16Zm1.9.16c0 .78.15 1.4.45 1.87.3.46.77.7 1.43.7.4 0 .74-.09 1.02-.26s.51-.42.68-.73v-3.69c-.18-.31-.41-.56-.69-.73s-.62-.26-1-.26c-.65 0-1.12.27-1.43.82-.31.54-.46 1.25-.46 2.13v.16Zm11.43 4.11c-1.2 0-2.15-.39-2.86-1.18s-1.07-1.79-1.07-3.02v-.31c0-1.23.35-2.25 1.06-3.06s1.59-1.21 2.65-1.21c1.14 0 2.01.34 2.62 1.04s.91 1.62.91 2.78v1.12h-5.27l-.02.04c.03.67.23 1.22.59 1.64s.86.64 1.5.64c.51 0 .95-.06 1.31-.19s.72-.3 1.05-.54l.61 1.25c-.32.28-.74.52-1.27.71-.53.19-1.14.29-1.83.29Zm-.22-7.25c-.47 0-.85.19-1.16.56s-.49.84-.56 1.42l.02.04h3.35v-.2c0-.54-.14-.97-.41-1.31s-.69-.51-1.24-.51Zm7.45 7.09h-1.9v-12.19h1.9v12.19Zm15.88 0h-1.89l-5.05-8.3-.05.02v8.29h-1.9v-11.38h1.9l5.05 8.3.05-.02v-8.28h1.89v11.38Zm4.46-10.52h-1.9v-1.66h1.9v1.66Zm0 10.52h-1.9v-8.45h1.9v8.45Zm4.12-8.45.11 1.22c.28-.43.62-.77 1.04-1.01.42-.24.89-.36 1.42-.36.88 0 1.57.27 2.06.8s.74 1.37.74 2.5v5.31h-1.9v-5.3c0-.64-.13-1.09-.39-1.36s-.66-.4-1.2-.4c-.37 0-.7.08-.99.25-.29.16-.53.39-.72.68v6.13h-1.9v-8.45h1.73Zm4.61-3.5c0 .5-.16.92-.47 1.27s-.7.52-1.17.52c-.37 0-.77-.12-1.2-.35s-.78-.35-1.04-.35c-.2 0-.38.08-.52.25s-.21.37-.21.61l-1.02-.27c0-.49.16-.92.46-1.28.31-.36.7-.54 1.17-.54.29 0 .67.12 1.14.35.47.23.83.35 1.11.35.2 0 .37-.08.52-.25a.88.88 0 0 0 .22-.61l1.02.3Zm2.68 7.65c0-1.25.34-2.29 1.03-3.09.7-.81 1.64-1.21 2.84-1.21s2.16.4 2.85 1.21c.69.8 1.04 1.83 1.04 3.09v.16c0 1.27-.35 2.31-1.04 3.11-.69.8-1.63 1.2-2.84 1.2s-2.16-.4-2.85-1.2c-.69-.8-1.03-1.84-1.03-3.1v-.16Zm1.9.16c0 .82.16 1.49.48 2.01.32.51.82.77 1.5.77s1.16-.26 1.48-.77c.33-.52.5-1.19.5-2.01v-.16c0-.81-.17-1.47-.5-1.99-.33-.53-.83-.79-1.5-.79s-1.16.26-1.48.79c-.32.53-.48 1.19-.48 1.99v.16Zm134.07-18.84v-11.38h3.49c1.49 0 2.69.46 3.59 1.37.9.91 1.35 2.09 1.35 3.54v1.55c0 1.45-.45 2.63-1.35 3.54-.9.91-2.1 1.36-3.59 1.36h-3.49Zm1.54-10.16v8.95h1.95c1.05 0 1.88-.35 2.49-1.04.61-.69.91-1.58.91-2.66v-1.57c0-1.07-.3-1.95-.91-2.65-.61-.69-1.44-1.04-2.49-1.04h-1.95Zm10.74-.46h-1.54v-1.57h1.54v1.57Zm0 10.62h-1.54v-8.45h1.54v8.45Zm6.64-7.09-.79-.05c-.41 0-.75.1-1.03.29-.28.19-.49.46-.64.81v6.04h-1.54v-8.45h1.38l.15 1.23c.24-.44.54-.78.89-1.02s.76-.37 1.21-.37c.11 0 .22 0 .33.03.1.02.19.04.26.06l-.21 1.43Zm5.26 7.25c-1.18 0-2.11-.39-2.81-1.18s-1.04-1.8-1.04-3.05v-.34c0-1.2.36-2.2 1.07-3 .72-.8 1.56-1.2 2.54-1.2 1.14 0 2 .34 2.59 1.03.58.69.88 1.6.88 2.75v.96h-5.48l-.02.04c.02.81.22 1.48.62 2s.95.78 1.66.78c.52 0 .98-.07 1.37-.22.39-.15.73-.35 1.02-.61l.6 1c-.3.3-.7.55-1.2.75-.49.2-1.09.3-1.8.3Zm-.23-7.56c-.52 0-.96.22-1.32.65-.36.43-.59.98-.67 1.63l.02.04h3.9v-.2c0-.6-.16-1.11-.48-1.51-.32-.41-.8-.61-1.44-.61Zm9.09 6.35c.51 0 .96-.16 1.35-.47.39-.32.58-.7.58-1.16h1.38l.02.05c.03.73-.3 1.38-.97 1.95-.68.57-1.46.85-2.36.85-1.23 0-2.17-.4-2.82-1.2-.65-.8-.98-1.81-.98-3.02v-.33c0-1.2.33-2.21.98-3.01.65-.8 1.59-1.21 2.82-1.21.99 0 1.8.29 2.43.88.63.58.93 1.3.91 2.15l-.02.05h-1.39c0-.52-.18-.95-.55-1.32-.37-.36-.83-.54-1.38-.54-.81 0-1.38.29-1.73.87-.35.58-.52 1.29-.52 2.13v.33c0 .86.17 1.58.52 2.16s.92.86 1.73.86Zm7.77-9.44v2.04h1.6v1.14h-1.6v5.13c0 .4.08.67.25.84s.38.24.65.24c.09 0 .19-.01.29-.03.11-.02.2-.05.29-.08l.2 1.05c-.11.09-.28.17-.5.23-.22.06-.44.09-.67.09-.62 0-1.12-.19-1.49-.57-.37-.38-.55-.97-.55-1.78v-5.13h-1.34v-1.14h1.34v-2.04h1.54Zm3.32 6.19c0-1.25.34-2.28 1.02-3.09.68-.81 1.6-1.21 2.76-1.21s2.1.4 2.78 1.21 1.02 1.84 1.02 3.09v.17c0 1.26-.34 2.29-1.02 3.09-.68.8-1.6 1.2-2.77 1.2s-2.09-.4-2.77-1.21-1.02-1.83-1.02-3.09v-.17Zm1.54.17c0 .89.19 1.63.57 2.22.38.58.94.87 1.68.87s1.29-.29 1.67-.87c.38-.58.57-1.32.57-2.22v-.17c0-.88-.19-1.62-.57-2.21s-.94-.88-1.68-.88-1.29.29-1.67.88c-.38.59-.57 1.32-.57 2.21v.17Zm115.04-6.03h-3.66v10.16h-1.54v-10.16h-3.65v-1.21h8.84v1.21Zm2.47 10.16h-1.54v-1.59h1.54v1.59Zm11.03-3.65.02.05c.02 1.07-.35 1.96-1.12 2.68-.77.72-1.79 1.08-3.05 1.08s-2.33-.46-3.14-1.37c-.81-.91-1.21-2.07-1.21-3.47v-2.02c0-1.4.41-2.56 1.21-3.47.81-.91 1.86-1.37 3.14-1.37s2.31.34 3.07 1.03c.76.68 1.13 1.59 1.11 2.72l-.02.05h-1.48c0-.8-.23-1.43-.7-1.89s-1.13-.7-1.98-.7-1.54.35-2.05 1.04c-.51.69-.77 1.55-.77 2.58v2.04c0 1.04.26 1.9.77 2.59s1.2 1.04 2.05 1.04 1.52-.23 1.98-.69.7-1.1.7-1.91h1.48Zm4.15 3.65h-1.54v-1.59h1.54v1.59Zm155.77 0h-1.54v-9.88l-2.33.03v-1.11l3.87-.42v11.38Zm6.93 0h-1.54v-1.59h1.54v1.59Zm10.06-4.34c0 1.45-.32 2.57-.96 3.34-.64.77-1.53 1.16-2.64 1.16s-2.01-.39-2.66-1.16c-.65-.78-.98-1.89-.98-3.34v-2.7c0-1.45.32-2.56.97-3.34s1.53-1.17 2.64-1.17 2 .39 2.65 1.17.97 1.89.97 3.34v2.7Zm-1.54-3.03c0-.98-.18-1.72-.54-2.22-.36-.5-.88-.75-1.55-.75s-1.19.25-1.55.75c-.36.5-.53 1.24-.53 2.22v3.33c0 .98.18 1.73.54 2.23.36.5.88.75 1.55.75s1.19-.25 1.54-.75c.35-.5.53-1.24.53-2.23v-3.33Zm11 3.03c0 1.45-.32 2.57-.96 3.34-.64.77-1.52 1.16-2.64 1.16s-2-.39-2.66-1.16c-.65-.78-.98-1.89-.98-3.34v-2.7c0-1.45.32-2.56.97-3.34s1.53-1.17 2.64-1.17 2 .39 2.65 1.17.97 1.89.97 3.34v2.7Zm-1.54-3.03c0-.98-.18-1.72-.54-2.22-.36-.5-.87-.75-1.55-.75s-1.19.25-1.55.75c-.35.5-.53 1.24-.53 2.22v3.33c0 .98.18 1.73.54 2.23.36.5.88.75 1.55.75s1.19-.25 1.54-.75c.35-.5.53-1.24.53-2.23v-3.33Zm11 3.03c0 1.45-.32 2.57-.96 3.34-.64.77-1.53 1.16-2.64 1.16s-2.01-.39-2.66-1.16c-.65-.78-.98-1.89-.98-3.34v-2.7c0-1.45.32-2.56.97-3.34s1.53-1.17 2.64-1.17 2 .39 2.65 1.17.97 1.89.97 3.34v2.7Zm-1.54-3.03c0-.98-.18-1.72-.54-2.22-.36-.5-.88-.75-1.55-.75s-1.19.25-1.55.75c-.36.5-.53 1.24-.53 2.22v3.33c0 .98.18 1.73.54 2.23.36.5.88.75 1.55.75s1.19-.25 1.54-.75c.35-.5.53-1.24.53-2.23v-3.33Zm5.68 7.37h-1.54v-1.59h1.54v1.59Zm10.05-4.34c0 1.45-.32 2.57-.96 3.34-.64.77-1.52 1.16-2.64 1.16s-2-.39-2.66-1.16c-.65-.78-.98-1.89-.98-3.34v-2.7c0-1.45.32-2.56.97-3.34s1.53-1.17 2.64-1.17 2 .39 2.65 1.17.97 1.89.97 3.34v2.7Zm-1.54-3.03c0-.98-.18-1.72-.54-2.22-.36-.5-.87-.75-1.55-.75s-1.19.25-1.55.75c-.35.5-.53 1.24-.53 2.22v3.33c0 .98.18 1.73.54 2.23.36.5.88.75 1.55.75s1.19-.25 1.54-.75c.35-.5.53-1.24.53-2.23v-3.33Zm11.01 3.03c0 1.45-.32 2.57-.96 3.34-.64.77-1.53 1.16-2.64 1.16s-2.01-.39-2.66-1.16c-.65-.78-.98-1.89-.98-3.34v-2.7c0-1.45.32-2.56.97-3.34s1.53-1.17 2.64-1.17 2 .39 2.65 1.17.97 1.89.97 3.34v2.7Zm-1.54-3.03c0-.98-.18-1.72-.54-2.22-.36-.5-.88-.75-1.55-.75s-1.19.25-1.55.75c-.36.5-.53 1.24-.53 2.22v3.33c0 .98.18 1.73.54 2.23.36.5.88.75 1.55.75s1.19-.25 1.54-.75c.35-.5.53-1.24.53-2.23v-3.33Zm11 3.03c0 1.45-.32 2.57-.96 3.34-.64.77-1.52 1.16-2.64 1.16s-2-.39-2.66-1.16c-.65-.78-.98-1.89-.98-3.34v-2.7c0-1.45.32-2.56.97-3.34s1.53-1.17 2.64-1.17 2 .39 2.65 1.17.97 1.89.97 3.34v2.7Zm-1.54-3.03c0-.98-.18-1.72-.54-2.22-.36-.5-.87-.75-1.55-.75s-1.19.25-1.55.75c-.35.5-.53 1.24-.53 2.22v3.33c0 .98.18 1.73.54 2.23.36.5.88.75 1.55.75s1.19-.25 1.54-.75c.35-.5.53-1.24.53-2.23v-3.33ZM13.76 216.51h-3.74v3.64H8.6v-8.53h5.76v1.14h-4.34v2.61h3.74v1.14Zm5.68 2.71c-.2.34-.45.59-.76.78s-.66.27-1.05.27c-.68 0-1.21-.22-1.59-.65s-.57-1.11-.57-2.02v-3.79h1.42v3.8c0 .55.09.94.27 1.17s.45.33.81.33c.34 0 .63-.06.86-.18s.42-.3.55-.54v-4.58h1.42v6.34h-1.24l-.12-.93Zm5.92 1.05c-.9 0-1.61-.29-2.15-.88s-.8-1.34-.8-2.26v-.23c0-.92.27-1.69.79-2.29s1.19-.91 1.99-.91c.86 0 1.51.26 1.97.78s.68 1.21.68 2.08v.84h-3.96v.03c.01.5.16.91.43 1.23s.65.48 1.13.48c.38 0 .71-.05.98-.14s.54-.23.79-.4l.46.93c-.24.21-.55.39-.95.54s-.85.22-1.37.22Zm-.16-5.44c-.35 0-.64.14-.87.42s-.37.63-.42 1.06v.03h2.53v-.15c0-.4-.1-.73-.31-.98s-.52-.38-.93-.38Zm5.53-1.02.08.91c.21-.32.47-.58.78-.76s.67-.27 1.06-.27c.66 0 1.17.2 1.54.6s.55 1.02.55 1.87v3.98h-1.42v-3.97c0-.48-.1-.82-.3-1.02s-.5-.3-.9-.3c-.28 0-.53.06-.74.18s-.4.29-.54.51v4.6h-1.42v-6.34h1.3Zm7.6-1.54v1.54h1.14v1.05h-1.14v3.5c0 .26.06.45.17.56s.26.17.45.17c.08 0 .15 0 .23-.02s.14-.03.21-.06l.15 1.04c-.12.07-.27.12-.43.16s-.34.06-.52.06c-.52 0-.93-.15-1.23-.46s-.45-.79-.45-1.44v-3.5h-.97v-1.05h.97v-1.54h1.42Zm5.2 8c-.9 0-1.61-.29-2.15-.88s-.8-1.34-.8-2.26v-.23c0-.92.26-1.69.79-2.29s1.19-.91 1.99-.91c.86 0 1.51.26 1.97.78s.68 1.21.68 2.08v.84h-3.96v.03c.01.5.16.91.43 1.23s.65.48 1.13.48c.38 0 .71-.05.98-.14s.54-.23.79-.4l.46.93c-.24.21-.55.39-.95.54s-.85.22-1.37.22Zm-.16-5.44c-.35 0-.64.14-.87.42s-.37.63-.42 1.06v.03h2.53v-.15c0-.4-.1-.73-.31-.98s-.51-.38-.93-.38Zm5.54.19h-1.42v-1.37h1.42v1.37Zm0 5.13h-1.42v-1.37h1.42v1.37Zm10.69-3.64h-3.74v3.64h-1.42v-8.53h5.76v1.14h-4.34v2.61h3.74v1.14Zm3.47-4.25h-1.42v-1.25h1.42v1.25Zm0 7.89h-1.42v-6.34h1.42v6.34Zm3.22-6.34.08.91c.21-.32.47-.58.78-.76s.67-.27 1.06-.27c.66 0 1.18.2 1.54.6s.55 1.02.55 1.87v3.98h-1.42v-3.97c0-.48-.1-.82-.29-1.02s-.5-.3-.9-.3c-.28 0-.53.06-.74.18s-.4.29-.54.51v4.6h-1.42v-6.34h1.3Zm5.63 3.26c0-1.01.22-1.83.65-2.45s1.04-.93 1.83-.93c.34 0 .65.07.92.21s.51.34.71.59V211h1.42v9.14h-1.2l-.14-.79c-.2.3-.45.52-.73.68s-.62.23-1 .23c-.78 0-1.38-.28-1.82-.85s-.65-1.31-.65-2.23v-.12Zm1.42.12c0 .59.11 1.05.34 1.4s.58.52 1.07.52c.3 0 .56-.06.76-.19s.38-.31.51-.55v-2.77c-.13-.23-.3-.42-.52-.55s-.46-.2-.75-.2c-.48 0-.84.2-1.07.61s-.35.94-.35 1.6v.12Zm8.71 3.08c-.9 0-1.61-.29-2.15-.88s-.8-1.34-.8-2.26v-.23c0-.92.26-1.69.79-2.29s1.19-.91 1.99-.91c.86 0 1.51.26 1.97.78s.68 1.21.68 2.08v.84h-3.96v.03c.01.5.16.91.43 1.23s.65.48 1.13.48c.38 0 .71-.05.98-.14s.54-.23.79-.4l.46.93c-.24.21-.55.39-.95.54s-.85.22-1.37.22Zm-.16-5.44c-.35 0-.64.14-.87.42s-.37.63-.42 1.06v.03h2.53v-.15c0-.4-.1-.73-.31-.98s-.51-.38-.93-.38Zm5.97-2.56v1.54H89v1.05h-1.14v3.5c0 .26.06.45.17.56s.26.17.45.17c.08 0 .15 0 .23-.02s.14-.03.21-.06l.15 1.04c-.12.07-.27.12-.43.16s-.34.06-.52.06c-.52 0-.93-.15-1.23-.46s-.45-.79-.45-1.44v-3.5h-.97v-1.05h.97v-1.54h1.42Zm5.2 8c-.9 0-1.61-.29-2.15-.88s-.8-1.34-.8-2.26v-.23c0-.92.26-1.69.79-2.29s1.19-.91 1.99-.91c.86 0 1.51.26 1.97.78s.68 1.21.68 2.08v.84h-3.96v.03c.01.5.16.91.43 1.23s.65.48 1.13.48c.38 0 .71-.05.98-.14s.54-.23.79-.4l.46.93c-.24.21-.55.39-.95.54s-.85.22-1.37.22Zm-.16-5.44c-.35 0-.64.14-.87.42s-.37.63-.42 1.06v.03h2.53v-.15c0-.4-.1-.73-.31-.98s-.51-.38-.93-.38Zm7.4.26-.61-.02c-.28 0-.51.06-.69.18s-.33.28-.43.5v4.41h-1.42v-6.34h1.3l.09.92c.16-.32.37-.58.62-.76s.54-.28.87-.28c.09 0 .17 0 .24.02s.14.03.21.05l-.17 1.33Zm11.28 1.41h-6.36v-1.14h6.36v1.14Zm8.28 1.42.15.59h.04l.15-.58 2.04-6.31h1.52l-3.05 8.53h-1.35l-3.04-8.53h1.52l2.03 6.3Zm8.41 2.23c-.05-.16-.09-.32-.13-.47s-.06-.3-.07-.46c-.2.3-.45.55-.77.75s-.67.3-1.07.3c-.66 0-1.17-.17-1.52-.51s-.53-.81-.53-1.4.24-1.09.73-1.43 1.17-.51 2.04-.51h1.11v-.56c0-.33-.1-.59-.29-.78s-.47-.28-.84-.28c-.32 0-.58.08-.77.23s-.29.36-.29.6h-1.37v-.04c-.03-.5.19-.94.67-1.33s1.09-.58 1.85-.58 1.33.19 1.79.56.68.91.68 1.62v2.82c0 .26.02.51.05.75s.09.48.17.71h-1.44Zm-1.75-1.02c.36 0 .68-.09.97-.27s.48-.38.57-.62v-.94h-1.13c-.41 0-.74.1-.97.31s-.35.45-.35.72c0 .24.08.43.24.58s.38.21.68.21Zm6.3 1.02h-1.42v-9.14h1.42v9.14Zm1.65-3.23c0-.94.26-1.71.77-2.32.52-.61 1.23-.91 2.13-.91s1.62.3 2.14.91c.52.6.78 1.38.78 2.32v.12c0 .95-.26 1.73-.78 2.33-.52.6-1.22.9-2.13.9s-1.62-.3-2.14-.9c-.52-.6-.77-1.38-.77-2.33v-.12Zm1.42.12c0 .62.12 1.12.36 1.51.24.39.61.58 1.12.58s.87-.19 1.11-.58c.25-.39.38-.89.38-1.51v-.12c0-.6-.12-1.1-.38-1.49-.25-.39-.62-.59-1.12-.59s-.87.2-1.11.59c-.24.39-.36.89-.36 1.49v.12Zm9.18-1.95-.61-.02c-.28 0-.51.06-.7.18s-.33.28-.43.5v4.41h-1.42v-6.34h1.3l.09.92c.16-.32.37-.58.62-.76s.54-.28.87-.28c.09 0 .17 0 .24.02s.14.03.21.05l-.17 1.33Zm3.99 5.18c-.9 0-1.61-.29-2.15-.88s-.8-1.34-.8-2.26v-.23c0-.92.27-1.69.79-2.29s1.19-.91 1.99-.91c.86 0 1.51.26 1.97.78s.68 1.21.68 2.08v.84h-3.96v.03c.01.5.16.91.43 1.23s.65.48 1.13.48c.38 0 .71-.05.98-.14s.54-.23.79-.4l.46.93c-.24.21-.55.39-.95.54s-.85.22-1.37.22Zm-.16-5.44c-.35 0-.64.14-.87.42s-.37.63-.42 1.06v.03h2.53v-.15c0-.4-.1-.73-.31-.98s-.52-.38-.93-.38Zm7.69 3.6c0-.22-.09-.4-.28-.54s-.54-.27-1.05-.38c-.76-.16-1.33-.39-1.72-.68s-.58-.7-.58-1.2.22-.98.67-1.36 1.04-.56 1.78-.56c.77 0 1.39.19 1.84.57s.67.85.65 1.42v.04h-1.38c0-.26-.1-.49-.3-.67s-.47-.28-.82-.28-.61.08-.79.23-.27.34-.27.57.09.4.26.53.51.25 1.03.35c.8.16 1.39.4 1.77.69s.58.71.58 1.22c0 .57-.23 1.03-.71 1.39s-1.09.53-1.86.53c-.82 0-1.47-.21-1.95-.63s-.7-.91-.68-1.45v-.04h1.34c.02.37.15.63.4.8s.55.25.91.25.65-.07.85-.21.3-.33.3-.57Zm9.08 1.84c-.9 0-1.61-.29-2.15-.88s-.8-1.34-.8-2.26v-.23c0-.92.26-1.69.79-2.29s1.19-.91 1.99-.91c.86 0 1.51.26 1.97.78s.68 1.21.68 2.08v.84h-3.96v.03c.01.5.16.91.43 1.23s.65.48 1.13.48c.38 0 .71-.05.98-.14s.54-.23.79-.4l.46.93c-.24.21-.55.39-.95.54s-.85.22-1.37.22Zm-.16-5.44c-.35 0-.64.14-.87.42s-.37.63-.42 1.06v.03h2.53v-.15c0-.4-.1-.73-.31-.98s-.51-.38-.93-.38Zm5.52-1.02.08.91c.21-.32.47-.58.78-.76s.67-.27 1.06-.27c.66 0 1.17.2 1.54.6s.55 1.02.55 1.87v3.98h-1.42v-3.97c0-.48-.1-.82-.3-1.02s-.5-.3-.9-.3c-.28 0-.53.06-.74.18s-.4.29-.54.51v4.6h-1.42v-6.34h1.3Zm10.5 0 .08.83c.21-.3.47-.53.78-.7s.67-.25 1.08-.25.77.09 1.07.28.52.47.67.84c.2-.35.45-.63.77-.83s.7-.3 1.12-.3c.64 0 1.14.22 1.51.65s.55 1.1.55 1.98v3.82h-1.42v-3.83c0-.54-.09-.92-.28-1.14s-.46-.33-.84-.33c-.3 0-.56.08-.77.25s-.36.38-.46.66v4.38h-1.42v-3.83c0-.52-.09-.89-.28-1.12s-.47-.34-.84-.34c-.29 0-.53.06-.73.17s-.36.27-.48.47v4.65h-1.42v-6.34h1.3Zm10.97-1.55h-1.42v-1.25h1.42v1.25Zm0 7.89h-1.42v-6.34h1.42v6.34Zm3.4 0h-1.42v-9.14h1.42v9.14Zm3.4 0h-1.42v-9.14h1.42v9.14Zm1.66-3.23c0-.94.26-1.71.77-2.32.52-.61 1.23-.91 2.13-.91s1.62.3 2.14.91c.52.6.78 1.38.78 2.32v.12c0 .95-.26 1.73-.78 2.33-.52.6-1.22.9-2.13.9s-1.62-.3-2.14-.9c-.52-.6-.77-1.38-.77-2.33v-.12Zm1.42.12c0 .62.12 1.12.36 1.51.24.39.61.58 1.12.58s.87-.19 1.11-.58c.25-.39.38-.89.38-1.51v-.12c0-.6-.12-1.1-.38-1.49-.25-.39-.62-.59-1.12-.59s-.87.2-1.11.59c-.24.39-.36.89-.36 1.49v.12Zm7.31-3.23.08.91c.21-.32.47-.58.78-.76s.67-.27 1.06-.27c.66 0 1.17.2 1.54.6s.55 1.02.55 1.87v3.98h-1.42v-3.97c0-.48-.1-.82-.3-1.02s-.5-.3-.9-.3c-.28 0-.53.06-.74.18s-.4.29-.54.51v4.6h-1.42v-6.34h1.3Zm8.56 6.46c-.9 0-1.61-.29-2.15-.88s-.8-1.34-.8-2.26v-.23c0-.92.26-1.69.79-2.29s1.19-.91 1.99-.91c.86 0 1.51.26 1.97.78s.68 1.21.68 2.08v.84h-3.96v.03c.01.5.16.91.43 1.23s.65.48 1.13.48c.38 0 .71-.05.98-.14s.54-.23.79-.4l.46.93c-.24.21-.55.39-.95.54s-.85.22-1.37.22Zm-.16-5.44c-.35 0-.64.14-.87.42s-.37.63-.42 1.06v.03h2.53v-.15c0-.4-.1-.73-.31-.98s-.51-.38-.93-.38Zm7.69 3.6c0-.22-.09-.4-.28-.54s-.54-.27-1.05-.38c-.76-.16-1.33-.39-1.72-.68s-.58-.7-.58-1.2.22-.98.67-1.36 1.04-.56 1.78-.56c.77 0 1.39.19 1.84.57s.67.85.65 1.42v.04h-1.38c0-.26-.1-.49-.3-.67s-.47-.28-.82-.28-.61.08-.79.23-.27.34-.27.57.08.4.25.53.51.25 1.03.35c.8.16 1.39.4 1.77.69s.58.71.58 1.22c0 .57-.24 1.03-.71 1.39s-1.09.53-1.86.53c-.82 0-1.47-.21-1.95-.63s-.7-.91-.68-1.45v-.04h1.34c.02.37.15.63.4.8s.55.25.91.25.65-.07.85-.21.3-.33.3-.57Zm6.1-1.36c0-1.01.22-1.83.65-2.45s1.04-.93 1.83-.93c.34 0 .65.07.92.21s.51.34.71.59V211h1.42v9.14h-1.2l-.14-.79c-.2.3-.45.52-.73.68s-.62.23-1 .23c-.78 0-1.38-.28-1.82-.85s-.65-1.31-.65-2.23v-.12Zm1.42.12c0 .59.11 1.05.34 1.4s.58.52 1.07.52c.3 0 .56-.06.76-.19s.38-.31.51-.55v-2.77c-.13-.23-.3-.42-.52-.55s-.46-.2-.75-.2c-.48 0-.84.2-1.07.61s-.35.94-.35 1.6v.12Zm8.71 3.08c-.9 0-1.61-.29-2.15-.88s-.8-1.34-.8-2.26v-.23c0-.92.26-1.69.79-2.29s1.19-.91 1.99-.91c.86 0 1.51.26 1.97.78s.68 1.21.68 2.08v.84h-3.96v.03c.01.5.16.91.43 1.23s.65.48 1.13.48c.38 0 .71-.05.98-.14s.54-.23.79-.4l.46.93c-.24.21-.55.39-.95.54s-.85.22-1.37.22Zm-.16-5.44c-.35 0-.64.14-.87.42s-.37.63-.42 1.06v.03h2.53v-.15c0-.4-.1-.73-.31-.98s-.51-.38-.93-.38Zm13.03 2.36c0 .92-.22 1.67-.65 2.23s-1.04.85-1.81.85c-.36 0-.68-.06-.96-.19s-.52-.32-.71-.57v3.08h-1.42v-8.78h1.2l.14.8c.2-.3.45-.52.74-.68s.62-.23 1-.23c.78 0 1.39.31 1.83.93s.65 1.43.65 2.45v.12Zm-1.42-.13c0-.65-.12-1.18-.37-1.59-.24-.41-.61-.62-1.09-.62-.3 0-.55.06-.76.19s-.37.3-.5.53v2.86c.12.22.29.39.5.51s.46.18.77.18c.48 0 .85-.18 1.09-.54.24-.36.36-.83.36-1.41v-.12Zm5.74 3.21c-.9 0-1.62-.29-2.15-.88s-.8-1.34-.8-2.26v-.23c0-.92.26-1.69.79-2.29s1.19-.91 1.99-.91c.86 0 1.51.26 1.96.78s.68 1.21.68 2.08v.84h-3.96v.03c.01.5.16.91.43 1.23s.65.48 1.13.48c.38 0 .71-.05.98-.14s.54-.23.79-.4l.46.93c-.24.21-.55.39-.95.54s-.85.22-1.37.22Zm-.16-5.44c-.35 0-.64.14-.87.42s-.37.63-.42 1.06v.03h2.53v-.15c0-.4-.1-.73-.31-.98s-.51-.38-.93-.38Zm7.69 3.6c0-.22-.09-.4-.28-.54s-.54-.27-1.05-.38c-.76-.16-1.33-.39-1.72-.68s-.58-.7-.58-1.2.22-.98.67-1.36 1.04-.56 1.78-.56c.77 0 1.39.19 1.84.57s.67.85.65 1.42v.04h-1.38c0-.26-.1-.49-.3-.67s-.47-.28-.82-.28-.61.08-.79.23-.27.34-.27.57.08.4.25.53.52.25 1.04.35c.8.16 1.39.4 1.77.69s.58.71.58 1.22c0 .57-.24 1.03-.71 1.39s-1.09.53-1.86.53c-.82 0-1.47-.21-1.95-.63s-.7-.91-.68-1.45v-.04h1.34c.02.37.15.63.4.8s.55.25.91.25.65-.07.85-.21.3-.33.3-.57Zm2.72-1.51c0-.94.26-1.71.77-2.32.52-.61 1.23-.91 2.13-.91s1.62.3 2.14.91c.52.6.78 1.38.78 2.32v.12c0 .95-.26 1.73-.78 2.33-.52.6-1.22.9-2.13.9s-1.62-.3-2.14-.9c-.52-.6-.77-1.38-.77-2.33v-.12Zm1.42.12c0 .62.12 1.12.36 1.51.24.39.61.58 1.12.58s.87-.19 1.11-.58c.25-.39.38-.89.38-1.51v-.12c0-.6-.12-1.1-.38-1.49-.25-.39-.62-.59-1.12-.59s-.87.2-1.11.59c-.24.39-.36.89-.36 1.49v.12Zm9.49 1.39c0-.22-.09-.4-.28-.54s-.54-.27-1.05-.38c-.76-.16-1.33-.39-1.72-.68s-.58-.7-.58-1.2.22-.98.67-1.36 1.04-.56 1.78-.56c.77 0 1.39.19 1.84.57s.67.85.65 1.42v.04h-1.38c0-.26-.1-.49-.3-.67s-.47-.28-.82-.28-.61.08-.79.23-.27.34-.27.57.08.4.25.53.52.25 1.04.35c.8.16 1.39.4 1.77.69s.58.71.58 1.22c0 .57-.24 1.03-.71 1.39s-1.09.53-1.86.53c-.82 0-1.47-.21-1.95-.63s-.7-.91-.68-1.45v-.04h1.34c.02.37.15.63.4.8s.55.25.91.25.65-.07.85-.21.3-.33.3-.57Zm4.6 1.72h-1.42v-1.37h1.42v1.37Z" style="fill:#064796"/></g></svg>