<svg data-name="Layer 2" xmlns="http://www.w3.org/2000/svg" viewBox="0 0 92.92 92.92"><path d="M92.92 92.92H63.88v-3.87h29.04v3.87Zm-32.91 0H0v-3.87h60.01v3.87Zm32.91-7.74H25.17v-3.87h67.76v3.87Zm-71.63 0H0v-3.87h21.29v3.87Zm71.63-7.74H77.43v-3.87h15.49v3.87Zm-19.36 0H0v-3.87h73.56v3.87ZM13.55 69.7H1.94C.87 69.7 0 68.83 0 67.76V21.29c0-1.07.87-1.94 1.94-1.94h10.99L39.53.36c.59-.42 1.37-.48 2.01-.15.65.33 1.05 1 1.05 1.72v17.42h48.4c1.07 0 1.94.87 1.94 1.94v46.46c0 1.07-.87 1.94-1.94 1.94H13.55Zm6.04-3.87h69.46v-42.6H42.59V48.4c0 .63-.3 1.21-.81 1.58L19.59 65.83Zm-15.72 0h7.74v-42.6H3.87v42.59Zm11.62-43.54v41.7L38.72 47.4V5.7L15.49 22.29Zm63.88 39.66H75.5v-4.12c-3.34-.86-5.81-3.9-5.81-7.5h3.87c0 2.13 1.74 3.87 3.87 3.87s3.87-1.74 3.87-3.87-1.74-3.87-3.87-3.87c-4.27 0-7.74-3.47-7.74-7.74 0-3.6 2.47-6.64 5.81-7.5V27.1h3.87v4.12c3.34.86 5.81 3.9 5.81 7.5h-3.87c0-2.14-1.74-3.87-3.87-3.87s-3.87 1.74-3.87 3.87 1.74 3.87 3.87 3.87c4.27 0 7.74 3.47 7.74 7.74 0 3.6-2.47 6.64-5.81 7.5v4.12Zm-21.29-5.81H46.46v-3.87h11.62v3.87Zm7.74-9.68H46.46v-3.87h19.36v3.87Zm0-9.68H46.46v-3.87h19.36v3.87Z" style="fill:#fff" data-name="Layer 1"/></svg>