<svg id="Layer_2" data-name="Layer 2" xmlns="http://www.w3.org/2000/svg" viewBox="0 0 590.33 478.93"><defs><clipPath id="clippath"><rect width="590.33" height="478.93" rx="20" ry="20" style="fill:none"/></clipPath><style>.cls-3{fill:#006935}.cls-5{fill:#c4d64e}</style></defs><g id="Layer_1-2" data-name="Layer 1"><rect width="590.33" height="478.93" rx="20" ry="20" style="fill:#e5f7fd"/><g style="clip-path:url(#clippath)"><path style="fill:#2566af" d="M-607.61 0h1293v61.5h-1293z"/></g><path d="M207.14 396.48c0-1.2.25-2.16.76-2.89.51-.72 1.22-1.08 2.13-1.08.52 0 .98.11 1.36.33s.71.54.96.95v-4.47h.83v10.86h-.74l-.07-1.09c-.25.4-.57.71-.97.92-.4.21-.86.32-1.39.32-.9 0-1.6-.33-2.11-1.01s-.76-1.57-.76-2.7v-.15Zm.84.15c0 .91.18 1.64.55 2.18s.91.81 1.65.81c.54 0 .99-.12 1.35-.36.36-.24.64-.58.84-1.01v-3.55a2.72 2.72 0 0 0-.81-1.07c-.35-.27-.8-.41-1.36-.41-.73 0-1.28.3-1.65.91-.37.6-.55 1.39-.55 2.35v.15Zm8.05-6.13h-.83v-1.17h.83v1.17Zm0 9.69h-.83v-7.53h.83v7.53Zm4.83-.57c.55 0 1.04-.16 1.46-.47s.63-.75.63-1.31h.74v.04c.04.7-.24 1.28-.82 1.75s-1.25.7-2.01.7c-1.03 0-1.82-.35-2.38-1.05-.56-.7-.84-1.61-.84-2.71v-.29c0-1.1.28-2 .84-2.7.56-.71 1.35-1.06 2.37-1.06.83 0 1.51.24 2.06.73s.82 1.13.8 1.92v.04h-.76c0-.6-.2-1.08-.61-1.44s-.9-.54-1.49-.54c-.81 0-1.41.29-1.79.87-.39.58-.58 1.3-.58 2.18v.29c0 .89.19 1.62.58 2.2.39.57.99.86 1.8.86Zm5.19-9.12h-.83v-1.17h.83v1.17Zm0 9.69h-.83v-7.53h.83v7.53Zm4.88.14c-.94 0-1.73-.35-2.35-1.04-.62-.7-.94-1.58-.94-2.65v-.38c0-1.08.31-1.97.93-2.68.62-.71 1.37-1.06 2.25-1.06s1.65.29 2.18.88c.53.58.79 1.37.79 2.34v.71h-5.32v.2c0 .85.23 1.56.68 2.13s1.04.85 1.78.85c.52 0 .96-.07 1.33-.22.37-.14.68-.35.94-.62l.35.57c-.28.3-.64.54-1.08.71-.43.18-.95.26-1.55.26Zm-.1-7.11c-.62 0-1.13.24-1.55.7-.42.47-.66 1.06-.73 1.77v.04h4.43v-.21c0-.65-.19-1.2-.58-1.64s-.91-.66-1.57-.66Zm5.08-.57.08 1.25c.24-.44.56-.78.96-1.02.4-.24.88-.36 1.44-.36s1.06.14 1.44.42c.39.28.67.7.83 1.27.23-.53.55-.94.97-1.24.42-.3.93-.45 1.54-.45.8 0 1.42.27 1.86.8.44.53.65 1.36.65 2.48v4.39h-.84v-4.42c0-.93-.16-1.59-.49-1.97-.33-.38-.78-.58-1.37-.58-.65 0-1.14.2-1.5.61-.35.41-.57.92-.65 1.56v4.8h-.84v-4.42c0-.91-.17-1.56-.5-1.96-.33-.39-.79-.59-1.37-.59s-1.06.15-1.4.45c-.35.3-.59.7-.73 1.21v5.3h-.84v-7.53h.75Zm17.72 3.98c0 1.13-.26 2.03-.77 2.7s-1.21 1.01-2.11 1.01c-.55 0-1.03-.11-1.43-.33-.4-.22-.72-.54-.97-.95l-.09 1.13h-.72v-10.86h.84v4.51c.25-.42.57-.75.96-.98.39-.23.85-.34 1.39-.34.91 0 1.61.36 2.12 1.08.51.72.77 1.68.77 2.89v.15Zm-.84-.15c0-.96-.19-1.75-.56-2.35-.37-.6-.92-.91-1.65-.91-.58 0-1.05.14-1.4.43s-.62.66-.79 1.11v3.42c.19.44.46.79.83 1.05.37.26.83.39 1.38.39.73 0 1.28-.27 1.64-.81s.55-1.27.55-2.18v-.15Zm5.96-3.11-.62-.04c-.52 0-.96.15-1.29.44-.34.29-.58.7-.72 1.22v5.2h-.84v-7.53h.73l.1 1.25v.08c.22-.46.51-.83.88-1.09.37-.26.8-.39 1.31-.39.11 0 .21 0 .31.02s.18.04.25.05l-.11.78Zm3.91 6.96c-.94 0-1.73-.35-2.35-1.04-.62-.7-.94-1.58-.94-2.65v-.38c0-1.08.31-1.97.93-2.68.62-.71 1.37-1.06 2.25-1.06s1.65.29 2.18.88c.53.58.79 1.37.79 2.34v.71h-5.32v.2c0 .85.23 1.56.68 2.13s1.04.85 1.78.85c.52 0 .96-.07 1.33-.22.37-.14.68-.35.94-.62l.35.57c-.28.3-.64.54-1.08.71-.43.18-.95.26-1.55.26Zm-.1-7.11c-.62 0-1.13.24-1.55.7-.42.47-.66 1.06-.73 1.77v.04h4.43v-.21c0-.65-.19-1.2-.58-1.64s-.91-.66-1.57-.66Zm13.98 6.97h-6.29v-.65l3.32-3.76c.61-.69 1.05-1.27 1.3-1.74s.38-.91.38-1.34c0-.63-.18-1.14-.53-1.52-.36-.38-.86-.57-1.51-.57-.77 0-1.36.21-1.75.64-.4.43-.6 1-.6 1.71h-.77v-.04c-.04-.84.24-1.56.81-2.14.57-.58 1.34-.88 2.32-.88.87 0 1.57.25 2.1.75.52.5.79 1.17.79 2.02 0 .56-.18 1.12-.53 1.7s-.84 1.21-1.47 1.92l-2.79 3.15v.04h5.24v.71Zm7.6-3.94c0 1.31-.28 2.32-.85 3.02-.57.71-1.35 1.06-2.36 1.06s-1.79-.35-2.36-1.06-.86-1.71-.86-3.02v-2.26c0-1.3.28-2.31.85-3.02s1.35-1.07 2.36-1.07 1.8.36 2.37 1.07c.57.71.86 1.72.86 3.02v2.26Zm-.84-2.4c0-1.04-.2-1.84-.61-2.4-.41-.56-1-.84-1.78-.84s-1.36.28-1.77.84-.61 1.36-.61 2.4v2.53c0 1.03.21 1.83.62 2.4s1 .85 1.77.85 1.36-.28 1.77-.85c.41-.57.61-1.37.61-2.4v-2.53Zm8.37 6.34h-6.29v-.65l3.32-3.76c.61-.69 1.05-1.27 1.3-1.74s.38-.91.38-1.34c0-.63-.18-1.14-.53-1.52-.36-.38-.86-.57-1.51-.57-.77 0-1.36.21-1.75.64-.4.43-.6 1-.6 1.71h-.77v-.04c-.04-.84.24-1.56.81-2.14.57-.58 1.34-.88 2.32-.88.87 0 1.57.25 2.1.75.52.5.79 1.17.79 2.02 0 .56-.18 1.12-.53 1.7s-.84 1.21-1.47 1.92l-2.79 3.15v.04h5.24v.71Zm7.58 0h-6.29v-.65l3.32-3.76c.61-.69 1.05-1.27 1.3-1.74s.38-.91.38-1.34c0-.63-.18-1.14-.53-1.52-.36-.38-.86-.57-1.51-.57-.77 0-1.36.21-1.75.64-.4.43-.6 1-.6 1.71h-.77v-.04c-.04-.84.24-1.56.81-2.14.57-.58 1.34-.88 2.32-.88.87 0 1.57.25 2.1.75.52.5.79 1.17.79 2.02 0 .56-.18 1.12-.53 1.7s-.84 1.21-1.47 1.92l-2.79 3.15v.04h5.24v.71Zm75.48-3.71c0-1.2.25-2.16.76-2.89.51-.72 1.22-1.08 2.13-1.08.52 0 .98.11 1.36.33s.71.54.96.95v-4.47h.83v10.86h-.74l-.07-1.09c-.25.4-.57.71-.97.92-.4.21-.86.32-1.39.32-.9 0-1.6-.33-2.11-1.01s-.76-1.57-.76-2.7v-.15Zm.84.15c0 .91.18 1.64.55 2.18s.91.81 1.65.81c.54 0 .99-.12 1.35-.36.36-.24.64-.58.84-1.01v-3.55a2.72 2.72 0 0 0-.81-1.07c-.35-.27-.8-.41-1.36-.41-.73 0-1.28.3-1.65.91-.37.6-.55 1.39-.55 2.35v.15Zm8.05-6.13h-.83v-1.17h.83v1.17Zm0 9.69h-.83v-7.53h.83v7.53Zm4.83-.57c.55 0 1.04-.16 1.46-.47s.63-.75.63-1.31h.74v.04c.04.7-.24 1.28-.82 1.75s-1.25.7-2.01.7c-1.03 0-1.82-.35-2.38-1.05-.56-.7-.84-1.61-.84-2.71v-.29c0-1.1.28-2 .84-2.7.56-.71 1.35-1.06 2.37-1.06.83 0 1.51.24 2.06.73s.82 1.13.8 1.92v.04h-.76c0-.6-.2-1.08-.61-1.44s-.9-.54-1.49-.54c-.81 0-1.41.29-1.79.87-.39.58-.58 1.3-.58 2.18v.29c0 .89.19 1.62.58 2.2.39.57.99.86 1.8.86Zm5.2-9.12h-.83v-1.17h.83v1.17Zm0 9.69h-.83v-7.53h.83v7.53Zm4.89.14c-.94 0-1.73-.35-2.35-1.04-.62-.7-.94-1.58-.94-2.65v-.38c0-1.08.31-1.97.93-2.68.62-.71 1.37-1.06 2.25-1.06s1.65.29 2.18.88c.53.58.79 1.37.79 2.34v.71h-5.32v.2c0 .85.23 1.56.68 2.13s1.04.85 1.78.85c.52 0 .96-.07 1.33-.22.37-.14.68-.35.94-.62l.35.57c-.28.3-.64.54-1.08.71-.43.18-.95.26-1.55.26Zm-.1-7.11c-.62 0-1.13.24-1.55.7-.42.47-.66 1.06-.73 1.77v.04h4.43v-.21c0-.65-.19-1.2-.58-1.64s-.91-.66-1.57-.66Zm5.08-.57.08 1.25c.24-.44.56-.78.96-1.02.4-.24.88-.36 1.44-.36s1.06.14 1.44.42c.39.28.67.7.83 1.27.23-.53.55-.94.97-1.24.42-.3.93-.45 1.54-.45.8 0 1.42.27 1.86.8.44.53.65 1.36.65 2.48v4.39h-.84v-4.42c0-.93-.16-1.59-.49-1.97-.33-.38-.78-.58-1.37-.58-.65 0-1.14.2-1.5.61-.35.41-.57.92-.65 1.56v4.8h-.84v-4.42c0-.91-.17-1.56-.5-1.96-.33-.39-.79-.59-1.37-.59s-1.06.15-1.4.45c-.35.3-.59.7-.73 1.21v5.3h-.84v-7.53h.75Zm17.72 3.98c0 1.13-.26 2.03-.77 2.7s-1.21 1.01-2.11 1.01c-.55 0-1.03-.11-1.43-.33-.4-.22-.72-.54-.97-.95l-.09 1.13h-.72v-10.86h.84v4.51c.25-.42.57-.75.96-.98.39-.23.85-.34 1.39-.34.91 0 1.61.36 2.12 1.08.51.72.77 1.68.77 2.89v.15Zm-.84-.15c0-.96-.19-1.75-.56-2.35-.37-.6-.92-.91-1.65-.91-.58 0-1.05.14-1.4.43s-.62.66-.79 1.11v3.42c.19.44.46.79.83 1.05.37.26.83.39 1.38.39.73 0 1.28-.27 1.64-.81s.55-1.27.55-2.18v-.15Zm5.96-3.11-.62-.04c-.52 0-.96.15-1.29.44-.34.29-.58.7-.72 1.22v5.2h-.84v-7.53h.73l.1 1.25v.08c.22-.46.51-.83.88-1.09.37-.26.8-.39 1.31-.39.11 0 .21 0 .31.02s.18.04.25.05l-.11.78Zm3.91 6.96c-.94 0-1.73-.35-2.35-1.04-.62-.7-.94-1.58-.94-2.65v-.38c0-1.08.31-1.97.93-2.68.62-.71 1.37-1.06 2.25-1.06s1.65.29 2.18.88c.53.58.79 1.37.79 2.34v.71h-5.32v.2c0 .85.23 1.56.68 2.13s1.04.85 1.78.85c.52 0 .96-.07 1.33-.22.37-.14.68-.35.94-.62l.35.57c-.28.3-.64.54-1.08.71-.43.18-.95.26-1.55.26Zm-.1-7.11c-.62 0-1.13.24-1.55.7-.42.47-.66 1.06-.73 1.77v.04h4.43v-.21c0-.65-.19-1.2-.58-1.64s-.91-.66-1.57-.66Zm13.98 6.97h-6.29v-.65l3.32-3.76c.61-.69 1.05-1.27 1.3-1.74s.38-.91.38-1.34c0-.63-.18-1.14-.53-1.52-.36-.38-.86-.57-1.51-.57-.77 0-1.36.21-1.75.64-.4.43-.6 1-.6 1.71h-.77v-.04c-.04-.84.24-1.56.81-2.14.57-.58 1.34-.88 2.32-.88.87 0 1.57.25 2.1.75.52.5.79 1.17.79 2.02 0 .56-.18 1.12-.53 1.7s-.84 1.21-1.47 1.92l-2.79 3.15v.04h5.24v.71Zm7.6-3.94c0 1.31-.28 2.32-.85 3.02-.57.71-1.35 1.06-2.36 1.06s-1.79-.35-2.36-1.06-.86-1.71-.86-3.02v-2.26c0-1.3.28-2.31.85-3.02s1.35-1.07 2.36-1.07 1.8.36 2.37 1.07c.57.71.86 1.72.86 3.02v2.26Zm-.84-2.4c0-1.04-.2-1.84-.61-2.4-.41-.56-1-.84-1.78-.84s-1.36.28-1.77.84-.61 1.36-.61 2.4v2.53c0 1.03.21 1.83.62 2.4s1 .85 1.77.85 1.36-.28 1.77-.85c.41-.57.61-1.37.61-2.4v-2.53Zm8.37 6.34h-6.29v-.65l3.32-3.76c.61-.69 1.04-1.27 1.3-1.74.25-.47.38-.91.38-1.34 0-.63-.18-1.14-.53-1.52s-.86-.57-1.51-.57c-.77 0-1.36.21-1.75.64-.4.43-.6 1-.6 1.71h-.77v-.04c-.04-.84.24-1.56.81-2.14.57-.58 1.34-.88 2.32-.88.87 0 1.57.25 2.1.75s.79 1.17.79 2.02c0 .56-.18 1.12-.53 1.7-.35.57-.84 1.21-1.47 1.92l-2.79 3.15v.04h5.24v.71Zm3.16-5.52h.97c.74 0 1.3-.18 1.68-.55.38-.37.57-.84.57-1.42 0-.63-.18-1.13-.54-1.51s-.89-.56-1.59-.56c-.65 0-1.18.19-1.6.57s-.62.89-.62 1.51h-.78v-.04c-.04-.79.24-1.45.81-1.97.58-.52 1.3-.79 2.19-.79s1.63.25 2.16.75.8 1.19.8 2.07c0 .48-.15.93-.45 1.35s-.71.73-1.25.94c.63.18 1.1.49 1.42.92.31.43.47.94.47 1.52 0 .9-.29 1.61-.87 2.12-.58.51-1.33.77-2.25.77s-1.65-.25-2.28-.76c-.64-.5-.94-1.2-.92-2.1v-.04h.79c0 .64.22 1.17.67 1.58.45.41 1.03.61 1.74.61s1.28-.19 1.68-.56c.4-.37.61-.91.61-1.6s-.21-1.23-.63-1.57c-.42-.34-1.03-.51-1.81-.51h-.97v-.71ZM97.16 235.08v4.02h-1.35v-10.01h3.83c1.07 0 1.9.28 2.49.82.59.55.89 1.28.89 2.17s-.3 1.64-.89 2.18-1.42.81-2.49.81h-2.48Zm0-1.06h2.48c.68 0 1.18-.18 1.52-.55.33-.36.5-.82.5-1.38s-.17-1.02-.5-1.39-.84-.56-1.52-.56h-2.48V234Zm12.61 5.07c-.05-.22-.08-.42-.11-.59-.02-.17-.04-.34-.04-.52-.25.36-.58.66-.99.9-.41.24-.84.36-1.31.36-.77 0-1.36-.2-1.77-.59-.41-.4-.61-.94-.61-1.64s.29-1.27.86-1.67c.57-.4 1.35-.6 2.34-.6h1.47v-.73c0-.44-.13-.78-.4-1.04-.27-.25-.64-.38-1.13-.38-.44 0-.79.11-1.06.33-.27.22-.41.49-.41.8h-1.29v-.04c-.04-.54.21-1.04.75-1.48s1.23-.67 2.09-.67 1.52.21 2.04.64c.51.43.77 1.05.77 1.85v3.58c0 .27.01.52.04.77s.08.49.15.73h-1.4Zm-2.25-1c.49 0 .93-.13 1.33-.38s.65-.54.77-.86v-1.21h-1.52c-.55 0-.98.14-1.31.41-.33.27-.49.6-.49.97 0 .33.1.59.31.78.21.19.51.29.91.29Zm10.45-.98c0-.3-.11-.54-.34-.74-.23-.19-.66-.36-1.29-.5-.9-.2-1.58-.46-2.04-.8-.46-.34-.68-.79-.68-1.38s.26-1.12.77-1.54 1.18-.64 2.01-.64c.87 0 1.56.22 2.07.67.51.44.76.99.73 1.62v.04h-1.31c0-.32-.14-.62-.41-.88-.27-.26-.63-.39-1.08-.39-.48 0-.84.11-1.07.32s-.35.47-.35.76.1.53.31.7c.21.17.63.32 1.26.45.94.2 1.64.48 2.1.82.46.35.69.81.69 1.39 0 .66-.27 1.19-.8 1.6-.53.41-1.23.61-2.09.61-.95 0-1.7-.24-2.24-.72-.55-.48-.8-1.04-.78-1.68v-.04h1.31c.02.48.2.83.54 1.05s.73.33 1.18.33c.48 0 .86-.1 1.13-.29.27-.2.41-.45.41-.77Zm5.2-7.36h-1.35v-1.38h1.35v1.38Zm0 9.34h-1.35v-7.44h1.35v7.44Zm5.27-2.19.12.52h.04l.13-.52 1.71-5.25h1.38l-2.74 7.44h-1.02l-2.77-7.44h1.39l1.76 5.25Zm4.88-1.6c0-1.1.3-2.01.89-2.72.6-.71 1.4-1.07 2.43-1.07s1.85.36 2.44 1.07.9 1.62.9 2.72v.15c0 1.11-.3 2.02-.89 2.72-.6.71-1.41 1.06-2.43 1.06s-1.84-.35-2.44-1.06c-.6-.71-.9-1.61-.9-2.72v-.15Zm1.35.15c0 .79.17 1.44.5 1.95.33.51.83.77 1.48.77s1.14-.26 1.47-.77c.33-.51.5-1.16.5-1.95v-.15c0-.78-.17-1.43-.51-1.94s-.83-.78-1.48-.78-1.14.26-1.47.78c-.33.52-.5 1.16-.5 1.94v.15Zm-31.16-97.94h-4.19l-.95 2.58h-1.38l3.87-10.01h1.16l3.81 10.01h-1.38l-.93-2.58Zm-3.77-1.13h3.37l-1.65-4.56h-.04l-1.68 4.56Zm10.85 2.79c.45 0 .84-.14 1.19-.42.34-.28.51-.62.51-1.02h1.22v.04c.04.64-.25 1.21-.84 1.71s-1.28.75-2.07.75c-1.08 0-1.91-.35-2.48-1.06-.57-.71-.86-1.59-.86-2.66v-.29c0-1.06.29-1.94.86-2.65.58-.71 1.4-1.06 2.48-1.06.87 0 1.58.26 2.13.77.55.51.82 1.14.8 1.89v.04h-1.24c0-.45-.16-.84-.48-1.16s-.73-.48-1.22-.48c-.71 0-1.22.25-1.52.77s-.46 1.14-.46 1.88v.29c0 .76.15 1.39.45 1.9.3.51.81.76 1.53.76Zm6.86-8.31v1.79h1.41v1h-1.41v4.52c0 .35.07.59.22.74.14.14.34.21.57.21.08 0 .16 0 .26-.03.09-.02.18-.04.25-.07l.18.93c-.1.08-.25.15-.44.2s-.39.08-.59.08c-.55 0-.99-.17-1.31-.5-.33-.33-.49-.85-.49-1.56v-4.52h-1.18v-1h1.18v-1.79h1.35Zm5.16-.11h-1.35v-1.38h1.35v1.38Zm0 9.34h-1.35v-7.44h1.35v7.44Zm5.18-2.19.12.52h.04l.13-.52 1.71-5.25h1.38l-2.74 7.44h-1.02l-2.77-7.44h1.39l1.76 5.25Zm4.91-1.6c0-1.1.3-2.01.89-2.72.6-.71 1.4-1.07 2.43-1.07s1.85.36 2.44 1.07.9 1.62.9 2.72v.15c0 1.11-.3 2.02-.89 2.72-.6.71-1.41 1.06-2.43 1.06s-1.84-.35-2.44-1.06c-.6-.71-.9-1.61-.9-2.72v-.15Zm1.35.15c0 .79.17 1.44.5 1.95.33.51.83.77 1.48.77s1.14-.26 1.47-.77c.33-.51.5-1.16.5-1.95v-.15c0-.78-.17-1.43-.51-1.94s-.83-.78-1.48-.78-1.14.26-1.47.78c-.33.52-.5 1.16-.5 1.94v.15ZM67.17 327.23v4.02h-1.35v-10.01h3.83c1.07 0 1.9.27 2.49.82.59.55.89 1.27.89 2.17s-.3 1.64-.89 2.18-1.42.81-2.49.81h-2.48Zm0-1.07h2.48c.68 0 1.18-.18 1.52-.55.33-.36.5-.82.5-1.38s-.17-1.02-.5-1.39c-.34-.37-.84-.56-1.52-.56h-2.48v3.86Zm12.6 5.09c-.05-.22-.08-.42-.11-.6-.02-.17-.04-.34-.04-.52-.25.36-.58.66-.99.9-.41.24-.84.36-1.31.36-.77 0-1.36-.2-1.77-.6-.41-.4-.61-.94-.61-1.64s.29-1.27.86-1.67c.57-.4 1.35-.6 2.34-.6h1.47v-.74c0-.44-.13-.78-.4-1.03s-.64-.38-1.13-.38c-.44 0-.79.11-1.06.33-.27.22-.41.49-.41.8h-1.29v-.04c-.04-.54.21-1.04.75-1.48s1.23-.67 2.09-.67 1.52.21 2.04.64c.51.43.77 1.05.77 1.85v3.58c0 .27.01.52.04.77s.08.49.15.73h-1.4Zm-2.25-1c.49 0 .93-.12 1.33-.38.39-.25.65-.54.77-.86v-1.21H78.1c-.55 0-.98.14-1.31.41-.33.27-.49.6-.49.97 0 .33.1.59.31.78.21.19.51.29.91.29Zm7.91-8.24v1.79h1.41v1h-1.41v4.52c0 .35.07.59.22.73.14.14.34.21.57.21.08 0 .16 0 .26-.03.09-.02.18-.04.25-.07l.18.93c-.1.08-.25.15-.44.2s-.39.08-.59.08c-.55 0-.99-.17-1.31-.5-.33-.33-.49-.85-.49-1.56v-4.52H82.9v-1h1.18V322h1.35Zm7.31 2.99-.69-.04c-.36 0-.66.08-.9.25-.25.17-.43.41-.57.71v5.31h-1.35v-7.44h1.21l.13 1.09c.21-.38.47-.68.78-.9.31-.21.67-.32 1.07-.32.1 0 .2 0 .29.02s.17.03.23.05l-.19 1.26Zm3.47-3.1h-1.35v-1.38h1.35v1.38Zm0 9.34h-1.35v-7.44h1.35v7.44Zm4-7.43.1.98c.24-.35.55-.63.92-.82.37-.19.81-.29 1.3-.29s.92.11 1.27.34c.36.23.62.57.8 1.03.23-.42.54-.76.93-1 .38-.25.83-.37 1.35-.37.76 0 1.35.26 1.79.78.44.52.66 1.3.66 2.35v4.45h-1.35v-4.46c0-.73-.13-1.25-.38-1.56-.25-.3-.63-.46-1.13-.46-.46 0-.84.16-1.12.48-.29.32-.45.73-.5 1.22v4.78h-1.36v-4.46c0-.7-.13-1.21-.39-1.53-.26-.32-.63-.48-1.12-.48-.41 0-.75.08-1.02.25-.27.17-.47.41-.61.71v5.51H99v-7.44h1.21Zm11.47 3.65c0-1.1.3-2.01.89-2.72s1.4-1.07 2.43-1.07 1.85.35 2.44 1.06c.6.71.9 1.62.9 2.72v.15c0 1.11-.3 2.02-.89 2.72s-1.41 1.06-2.43 1.06-1.84-.35-2.44-1.06c-.6-.71-.9-1.62-.9-2.72v-.15Zm1.35.15c0 .79.17 1.44.5 1.95.33.51.83.77 1.48.77s1.14-.26 1.47-.77c.33-.51.5-1.16.5-1.95v-.15c0-.78-.17-1.43-.51-1.94-.34-.52-.83-.78-1.48-.78s-1.14.26-1.47.78c-.33.52-.5 1.17-.5 1.94v.15Zm8.87-3.8.1 1.11c.25-.39.56-.7.93-.92s.8-.33 1.28-.33c.8 0 1.42.23 1.86.7s.66 1.2.66 2.18v4.7h-1.35v-4.67c0-.66-.13-1.12-.39-1.4-.26-.28-.65-.41-1.19-.41-.39 0-.73.09-1.03.28-.3.19-.54.45-.72.77v5.42h-1.35v-7.44h1.21Zm8.94-1.91h-1.35v-1.38h1.35v1.38Zm0 9.34h-1.35v-7.44h1.35v7.44Zm2.48-3.78c0-1.1.3-2.01.89-2.72s1.4-1.07 2.43-1.07 1.85.35 2.44 1.06c.6.71.9 1.62.9 2.72v.15c0 1.11-.3 2.02-.89 2.72s-1.41 1.06-2.43 1.06-1.84-.35-2.44-1.06c-.6-.71-.9-1.62-.9-2.72v-.15Zm1.35.15c0 .79.17 1.44.5 1.95.33.51.83.77 1.48.77s1.14-.26 1.47-.77c.33-.51.5-1.16.5-1.95v-.15c0-.78-.17-1.43-.51-1.94-.34-.52-.83-.78-1.48-.78s-1.14.26-1.47.78c-.33.52-.5 1.17-.5 1.94v.15Z" style="fill:#575756"/><path d="M70.68 436.47h-3.89v3.77h-1.15v-8.53h5.64v.91h-4.49v2.94h3.89v.91Zm6.28 2.84c-.2.34-.46.6-.77.79s-.67.28-1.08.28c-.69 0-1.23-.22-1.62-.66s-.58-1.13-.58-2.06v-3.74h1.15v3.75c0 .68.1 1.14.3 1.39s.51.38.93.38.75-.08 1.02-.25.47-.4.61-.71v-4.57h1.15v6.34h-1.04l-.08-.94Zm5.95 1.06c-.88 0-1.58-.29-2.11-.88s-.78-1.35-.78-2.29v-.26c0-.9.27-1.65.81-2.25s1.17-.9 1.91-.9c.86 0 1.5.26 1.94.77s.66 1.2.66 2.06v.72h-4.11l-.02.03c.01.61.17 1.11.46 1.5.3.39.71.59 1.25.59.39 0 .73-.06 1.03-.17s.55-.26.76-.46l.45.75c-.23.22-.53.41-.9.56s-.82.22-1.35.22Zm-.18-5.67c-.39 0-.72.16-.99.49s-.44.73-.5 1.22v.03h2.94v-.15c0-.45-.12-.83-.36-1.13s-.6-.46-1.08-.46Zm5.46-.79.08.94c.21-.34.48-.6.79-.78s.68-.28 1.09-.28c.68 0 1.21.2 1.59.6s.56 1.02.56 1.86v4h-1.15v-3.98c0-.56-.11-.96-.33-1.19s-.56-.35-1.01-.35c-.33 0-.63.08-.88.24s-.46.38-.61.66v4.62h-1.15v-6.34h1.03Zm7.84-1.53v1.53h1.2v.86h-1.2v3.85c0 .3.06.51.18.63s.29.18.49.18c.07 0 .14 0 .22-.02s.15-.04.21-.06l.15.79c-.09.07-.21.13-.38.17s-.33.07-.5.07c-.47 0-.84-.14-1.12-.43s-.42-.73-.42-1.33v-3.85h-1.01v-.86h1.01v-1.53h1.15Zm5.78 7.99c-.88 0-1.58-.29-2.11-.88s-.78-1.35-.78-2.29v-.26c0-.9.27-1.65.81-2.25s1.17-.9 1.91-.9c.86 0 1.5.26 1.94.77s.66 1.2.66 2.06v.72h-4.11l-.02.03c.01.61.17 1.11.46 1.5.3.39.71.59 1.25.59.39 0 .73-.06 1.03-.17s.55-.26.76-.46l.45.75c-.23.22-.53.41-.9.56s-.82.22-1.35.22Zm-.18-5.67c-.39 0-.72.16-.99.49s-.44.73-.5 1.22v.03h2.94v-.15c0-.45-.12-.83-.36-1.13s-.6-.46-1.08-.46Zm8.42 5.55v-5.48h-.99v-.86h.99v-.8c0-.68.18-1.2.53-1.57s.85-.55 1.48-.55c.13 0 .27 0 .4.03s.28.05.45.09l-.14.88c-.07-.02-.16-.03-.25-.04s-.2-.02-.31-.02c-.34 0-.59.1-.75.3s-.25.49-.25.88v.8h1.32v.86h-1.32v5.48h-1.15Zm5.43-7.97h-1.15v-1.18h1.15v1.18Zm0 7.96h-1.15v-6.34h1.15v6.34Zm3.34-6.33.08.94c.21-.34.48-.6.79-.78s.68-.28 1.09-.28c.68 0 1.21.2 1.59.6s.56 1.02.56 1.86v4h-1.15v-3.98c0-.56-.11-.96-.33-1.19s-.56-.35-1.01-.35c-.33 0-.63.08-.88.24s-.46.38-.61.66v4.62h-1.15v-6.34h1.03Zm6.05 3.28c0-1.02.22-1.84.65-2.47s1.05-.94 1.83-.94c.37 0 .7.07.99.21s.53.34.74.6v-3.49h1.15v9.14h-.94l-.13-.78c-.21.3-.46.52-.76.67s-.65.23-1.05.23c-.77 0-1.38-.28-1.82-.84s-.66-1.3-.66-2.21v-.12Zm1.15.12c0 .64.13 1.15.39 1.54s.67.58 1.22.58c.34 0 .63-.08.87-.23s.43-.38.57-.66v-2.96c-.15-.26-.34-.47-.58-.62s-.52-.23-.85-.23c-.55 0-.96.23-1.23.69s-.4 1.05-.4 1.78v.12Zm9.1 3.06c-.88 0-1.58-.29-2.11-.88s-.78-1.35-.78-2.29v-.26c0-.9.27-1.65.81-2.25s1.17-.9 1.91-.9c.86 0 1.5.26 1.94.77s.66 1.2.66 2.06v.72h-4.11l-.02.03c.01.61.17 1.11.46 1.5.3.39.71.59 1.25.59.39 0 .73-.06 1.03-.17s.55-.26.76-.46l.45.75c-.23.22-.53.41-.9.56s-.82.22-1.35.22Zm-.18-5.67c-.39 0-.72.16-.99.49s-.44.73-.5 1.22v.03h2.94v-.15c0-.45-.12-.83-.36-1.13s-.6-.46-1.08-.46Zm5.94-2.32v1.53h1.2v.86h-1.2v3.85c0 .3.06.51.18.63s.29.18.49.18c.07 0 .14 0 .22-.02s.15-.04.21-.06l.15.79c-.09.07-.21.13-.38.17s-.33.07-.5.07c-.47 0-.84-.14-1.12-.43s-.42-.73-.42-1.33v-3.85h-1.01v-.86h1.01v-1.53h1.15Zm5.79 7.99c-.88 0-1.58-.29-2.11-.88s-.78-1.35-.78-2.29v-.26c0-.9.27-1.65.81-2.25s1.17-.9 1.91-.9c.86 0 1.5.26 1.94.77s.66 1.2.66 2.06v.72h-4.11l-.02.03c.01.61.17 1.11.46 1.5.3.39.71.59 1.25.59.39 0 .73-.06 1.03-.17s.55-.26.76-.46l.45.75c-.23.22-.53.41-.9.56s-.82.22-1.35.22Zm-.18-5.67c-.39 0-.72.16-.99.49s-.44.73-.5 1.22v.03h2.94v-.15c0-.45-.12-.83-.36-1.13s-.6-.46-1.08-.46Zm7.42.23-.59-.04c-.3 0-.56.07-.77.22s-.37.35-.48.61v4.53h-1.15v-6.34h1.03l.11.93c.18-.33.4-.58.67-.77s.57-.28.91-.28c.09 0 .17 0 .25.02s.14.03.19.04l-.16 1.07Zm2.9 5.32h-1.15v-1.2h1.15v1.2Zm9.89 0c-.04-.19-.07-.36-.09-.51s-.03-.29-.04-.44c-.21.3-.5.56-.84.76s-.72.31-1.12.31c-.66 0-1.16-.17-1.51-.51s-.52-.8-.52-1.4.25-1.08.74-1.42 1.16-.51 2-.51h1.25v-.63c0-.37-.11-.67-.34-.88s-.55-.32-.96-.32c-.37 0-.67.09-.91.28s-.35.42-.35.68h-1.1v-.04c-.04-.46.18-.88.64-1.27s1.05-.57 1.78-.57 1.3.18 1.73.55.66.89.66 1.58v3.05c0 .23.01.45.04.66s.07.42.13.62h-1.19Zm-1.92-.85c.42 0 .79-.11 1.13-.32.34-.21.55-.46.66-.74v-1.03h-1.29c-.46 0-.84.12-1.12.35-.28.23-.42.51-.42.82 0 .28.09.5.26.67s.44.25.78.25Zm6.18-5.49.08.94c.21-.34.48-.6.79-.78s.68-.28 1.09-.28c.68 0 1.21.2 1.59.6s.56 1.02.56 1.86v4h-1.15v-3.98c0-.56-.11-.96-.33-1.19s-.56-.35-1.01-.35c-.33 0-.63.08-.88.24s-.46.38-.61.66v4.62h-1.15v-6.34h1.03Zm3.55-2.58c0 .37-.12.68-.35.93s-.52.38-.88.38c-.28 0-.57-.09-.87-.27s-.55-.27-.75-.27c-.17 0-.31.06-.42.19s-.17.28-.17.46l-.63-.15c0-.36.12-.68.35-.95s.52-.4.88-.4c.22 0 .49.09.82.28s.59.28.8.28c.16 0 .3-.06.42-.19s.18-.28.18-.46l.63.19Zm2.49 5.69c0-.94.25-1.71.76-2.32s1.2-.91 2.07-.91 1.57.3 2.08.91.76 1.38.76 2.32v.13c0 .95-.25 1.72-.76 2.32s-1.2.9-2.07.9-1.57-.3-2.08-.91-.76-1.38-.76-2.32v-.13Zm1.15.12c0 .67.14 1.23.42 1.66.28.44.7.66 1.26.66s.97-.22 1.25-.66c.29-.44.43-.99.43-1.66v-.13c0-.66-.14-1.21-.43-1.66-.29-.44-.71-.66-1.26-.66s-.97.22-1.25.66c-.28.44-.42.99-.42 1.66v.13Zm15.37 3.11h-5.53v-.8l2.79-3.1c.5-.56.84-1 1.02-1.33s.27-.66.27-1.01c0-.43-.12-.79-.37-1.08s-.58-.44-.99-.44c-.59 0-1.02.15-1.3.45s-.42.73-.42 1.28h-1.11v-.04c-.03-.73.21-1.35.72-1.85s1.21-.75 2.11-.75c.77 0 1.38.22 1.83.67s.68 1.02.68 1.71c0 .46-.14.93-.41 1.4s-.66.97-1.16 1.5l-2.24 2.44v.03h4.11v.91Zm7.15-3.25c0 1.09-.24 1.92-.72 2.5s-1.14.87-1.98.87-1.5-.29-1.99-.87-.73-1.42-.73-2.5v-2.02c0-1.09.24-1.92.73-2.51s1.15-.88 1.98-.88 1.5.29 1.99.88.73 1.42.73 2.51V437Zm-1.15-2.27c0-.74-.13-1.29-.4-1.67s-.66-.56-1.16-.56-.89.19-1.16.56-.4.93-.4 1.67v2.5c0 .74.13 1.29.4 1.67s.66.57 1.17.57.89-.19 1.16-.56.4-.93.4-1.67v-2.5Zm8.57 5.52h-5.53v-.8l2.79-3.1c.5-.56.84-1 1.02-1.33s.27-.66.27-1.01c0-.43-.12-.79-.37-1.08s-.58-.44-.99-.44c-.59 0-1.02.15-1.3.45s-.42.73-.42 1.28h-1.11v-.04c-.03-.73.21-1.35.72-1.85s1.21-.75 2.11-.75c.77 0 1.38.22 1.83.67s.68 1.02.68 1.71c0 .46-.14.93-.41 1.4s-.66.97-1.16 1.5l-2.24 2.44v.03h4.11v.91Zm3.33-4.8h1.01c.51 0 .87-.13 1.09-.38s.32-.61.32-1.07c0-.49-.12-.86-.36-1.11s-.6-.38-1.07-.38-.81.13-1.08.39-.41.62-.41 1.05h-1.11v-.04c-.03-.64.2-1.19.69-1.64s1.12-.68 1.91-.68 1.42.21 1.89.63.7 1.02.7 1.8c0 .35-.11.7-.32 1.05s-.53.62-.96.8c.51.17.87.43 1.09.79s.32.76.32 1.21c0 .78-.25 1.39-.76 1.83s-1.16.67-1.95.67-1.42-.21-1.93-.63-.75-.99-.74-1.71l.02-.04h1.1c0 .45.14.8.41 1.07s.65.4 1.13.4.87-.13 1.15-.4.42-.66.42-1.17-.12-.91-.37-1.16-.63-.37-1.17-.37h-1.01v-.91Z"/><path class="cls-3" d="M440.11 109.93H161.4v29.73h278.7v-29.73Zm-29.44 95.71H161.41v29.74h249.26v-29.74Zm-219.82 94.78h-29.44v30.67h29.44v-30.67Z"/><path class="cls-5" d="M161.4 331.08h32.97v29.74H161.4zm0-95.71h280.27v29.73H161.4zm0-95.71h313.25v29.73H161.4z"/><path d="M431.8 223.82h-2.01v-8.24h-2.03v-1.42l4.04-.36v10.01Zm8.22 0h-2.01v-8.24h-2.03v-1.42l4.04-.36v10.01Zm5.87-.09-1.09 2.17h-1.34l.48-2.23v-1.57h1.95v1.63Zm8.39-8.37c-1.07 1.26-1.8 2.43-2.2 3.51-.39 1.09-.67 2.4-.84 3.93l-.1 1.02h-2.01l.1-1.02c.16-1.47.49-2.82 1-4.05s1.22-2.36 2.11-3.39h-5.14v-1.55h7.07v1.55Zm8.22 0c-1.07 1.26-1.8 2.43-2.2 3.51-.39 1.09-.67 2.4-.84 3.93l-.1 1.02h-2.01l.1-1.02c.16-1.47.49-2.82 1-4.05s1.22-2.36 2.11-3.39h-5.14v-1.55h7.08v1.55Zm6.42 39.76h-2.01v-8.24h-2.04v-1.42l4.04-.36v10.01Zm5.71-5.86h1.13c.48 0 .83-.12 1.06-.38.23-.25.34-.6.34-1.04 0-.4-.11-.73-.34-.97-.23-.24-.56-.36-1-.36-.38 0-.69.11-.95.33-.26.22-.38.51-.38.87h-1.95v-.04c-.04-.78.26-1.43.89-1.94s1.41-.76 2.34-.76c1.04 0 1.86.25 2.48.74.62.5.92 1.2.92 2.12 0 .44-.14.85-.41 1.24-.28.39-.65.7-1.13.92.55.2.98.5 1.27.91s.44.88.44 1.42c0 .92-.33 1.64-1 2.16-.67.52-1.52.79-2.56.79-.93 0-1.73-.25-2.4-.74s-.99-1.19-.97-2.09v-.04h1.96c0 .38.14.7.41.95.27.25.62.37 1.04.37.46 0 .83-.13 1.1-.38.27-.26.4-.6.4-1.04 0-.53-.13-.91-.39-1.16-.26-.25-.65-.37-1.17-.37h-1.13v-1.51Zm8.38 5.77-1.09 2.17h-1.34l.48-2.23v-1.57h1.95v1.63Zm8.41.09h-6.83v-1.31l3.24-3.47c.47-.54.8-.99 1-1.36.2-.37.29-.71.29-1.03 0-.42-.11-.77-.34-1.04-.23-.27-.55-.4-.97-.4-.46 0-.82.16-1.06.47s-.36.73-.36 1.25h-1.95v-.04c-.04-.9.26-1.67.88-2.29.62-.63 1.45-.94 2.49-.94s1.84.27 2.43.8c.59.54.88 1.25.88 2.14 0 .61-.17 1.16-.5 1.67-.33.51-.88 1.18-1.65 2.01l-1.78 1.94v.03h4.22v1.55Zm8.22 0h-6.83v-1.31l3.24-3.47c.47-.54.8-.99 1-1.36.2-.37.29-.71.29-1.03 0-.42-.11-.77-.34-1.04-.23-.27-.55-.4-.97-.4-.46 0-.82.16-1.06.47s-.36.73-.36 1.25h-1.95v-.04c-.04-.9.26-1.67.88-2.29.62-.63 1.45-.94 2.49-.94s1.84.27 2.43.8c.59.54.88 1.25.88 2.14 0 .61-.17 1.16-.5 1.67-.33.51-.88 1.18-1.65 2.01l-1.78 1.94v.03h4.22v1.55ZM206.1 321.5h-2.01v-8.24h-2.03v-1.42l4.04-.36v10.01Zm5.87-.08-1.09 2.17h-1.34l.48-2.23v-1.57h1.95v1.63Zm3.61-5.77h1.13c.48 0 .83-.12 1.06-.38.23-.25.34-.6.34-1.04 0-.4-.11-.73-.34-.97-.23-.24-.56-.37-1-.37-.38 0-.69.11-.95.33-.26.22-.38.51-.38.87h-1.95v-.04c-.04-.78.26-1.43.89-1.94s1.41-.76 2.34-.76c1.04 0 1.86.25 2.48.74.62.5.92 1.2.92 2.12 0 .44-.14.85-.41 1.24-.28.39-.65.7-1.13.92.55.2.98.5 1.27.91.29.41.44.88.44 1.42 0 .92-.33 1.64-1 2.16-.67.53-1.52.79-2.56.79-.93 0-1.73-.25-2.4-.74-.67-.49-.99-1.19-.97-2.09v-.04h1.96c0 .38.14.7.41.95.27.25.62.37 1.04.37.46 0 .83-.13 1.1-.38.27-.26.4-.6.4-1.04 0-.53-.13-.91-.4-1.16s-.65-.37-1.17-.37h-1.13v-1.51Zm12.73-1.5c0 .5-.13.94-.4 1.33-.26.38-.63.69-1.09.9.53.22.95.55 1.26.96.31.42.46.89.46 1.43 0 .93-.31 1.64-.94 2.13-.63.5-1.45.75-2.46.75s-1.85-.25-2.48-.75c-.63-.5-.95-1.21-.95-2.13 0-.54.15-1.02.46-1.43.3-.41.73-.74 1.26-.96-.47-.22-.83-.51-1.09-.9s-.39-.82-.39-1.32c0-.89.29-1.58.87-2.07s1.35-.73 2.3-.73 1.72.24 2.3.73c.59.49.88 1.18.88 2.07Zm-1.77 4.48c0-.45-.13-.81-.39-1.08s-.6-.41-1.02-.41-.76.14-1.01.41-.38.63-.38 1.08.13.82.38 1.08c.26.26.6.39 1.02.39s.75-.13 1.01-.4c.26-.26.38-.62.38-1.08Zm-.23-4.39c0-.4-.11-.73-.32-.97s-.5-.37-.86-.37-.65.12-.86.36-.31.57-.31.98.1.75.31.99c.21.25.5.37.87.37s.65-.12.86-.37c.21-.24.31-.58.31-.99Zm-12.46 36.45h-2.01v-8.24h-2.03v-1.42l4.04-.36v10.01Zm5.86-.09-1.09 2.17h-1.34l.48-2.23v-1.57h1.95v1.63Zm1.84-4.34.58-5.58h5.58v1.61h-3.94l-.27 2.31c.18-.14.41-.25.67-.34s.55-.14.87-.14c.96-.01 1.71.28 2.24.87.53.6.79 1.42.79 2.49 0 .96-.29 1.76-.87 2.4-.58.64-1.42.96-2.51.96-.92 0-1.71-.25-2.36-.76-.66-.5-.97-1.2-.95-2.08v-.03l1.95-.1c0 .45.13.79.38 1.04s.58.38.99.38c.47 0 .81-.17 1.03-.5.22-.33.33-.77.33-1.3 0-.58-.12-1.04-.36-1.39s-.59-.52-1.06-.52c-.39 0-.68.07-.88.21-.2.14-.35.33-.44.58l-1.77-.12Zm11.99-5.72c.38 0 .72.04 1.04.11.32.07.64.18.96.31l-.36 1.47c-.3-.11-.57-.18-.81-.24-.24-.05-.51-.08-.82-.08-.61 0-1.1.23-1.47.68-.37.46-.54 1.09-.51 1.89l.02.03c.22-.23.51-.42.85-.55.34-.13.73-.2 1.16-.2.89 0 1.59.32 2.1.95s.76 1.45.76 2.43-.31 1.84-.94 2.5c-.63.66-1.44.98-2.43.98-1.06 0-1.92-.36-2.58-1.08-.67-.72-1-1.71-1-2.98v-1.95c0-1.31.38-2.35 1.13-3.13.76-.77 1.72-1.16 2.89-1.16Zm-.46 4.96c-.37 0-.69.06-.95.18s-.46.28-.6.49v.67c0 .79.14 1.4.43 1.83.29.42.67.64 1.15.64.41 0 .74-.19.99-.57s.38-.83.38-1.37-.13-1-.38-1.34c-.25-.34-.59-.51-1.01-.51Zm240.98-217.75h-2.01v-8.24h-2.04v-1.42l4.04-.36v10.01Zm5.71-5.86h1.13c.48 0 .83-.12 1.06-.38.23-.25.34-.6.34-1.04 0-.4-.11-.73-.34-.97-.23-.24-.56-.36-1-.36-.38 0-.69.11-.95.33-.26.22-.38.51-.38.87h-1.95v-.04c-.04-.78.26-1.43.89-1.94s1.41-.76 2.34-.76c1.04 0 1.86.25 2.48.74.62.49.92 1.2.92 2.12 0 .44-.14.85-.41 1.24-.28.39-.65.7-1.13.92.55.2.98.5 1.27.91s.44.88.44 1.42c0 .92-.33 1.64-1 2.16-.67.52-1.52.79-2.56.79-.93 0-1.73-.25-2.4-.74-.67-.49-.99-1.19-.97-2.09v-.04h1.96c0 .38.14.7.41.95.27.25.62.37 1.04.37.46 0 .83-.13 1.1-.38.27-.26.4-.6.4-1.04 0-.53-.13-.91-.39-1.16-.26-.25-.65-.37-1.17-.37h-1.13v-1.5Zm8.37 5.77-1.09 2.17h-1.34l.48-2.23v-1.57h1.95v1.63Zm6.13.09h-2.01v-8.24h-2.04v-1.42l4.04-.36v10.01Zm3.93-4.43.58-5.57h5.58v1.61h-3.94l-.27 2.31c.18-.14.41-.25.67-.34.26-.09.55-.14.87-.14.96-.01 1.71.28 2.24.87s.79 1.42.79 2.49c0 .96-.29 1.76-.87 2.4-.58.64-1.42.96-2.51.96-.92 0-1.71-.25-2.37-.76-.66-.5-.97-1.2-.95-2.08v-.03l1.95-.1c0 .44.13.79.38 1.04s.58.38.99.38c.47 0 .81-.17 1.03-.5.22-.33.33-.77.33-1.3 0-.58-.12-1.04-.36-1.39-.24-.35-.59-.52-1.06-.52-.38 0-.68.07-.88.21s-.35.33-.44.58l-1.77-.12Zm2.86 37.07h-2.01v-8.24h-2.04v-1.42l4.04-.36v10.01Zm9.57-3.72h1.13v1.55h-1.13v2.17h-2v-2.17h-4.08l-.09-1.2 4.15-6.63h2.02v6.29Zm-4.3 0h2.3v-3.61h-.04l-.16.27-2.1 3.34Zm8.82 3.63-1.09 2.17h-1.34l.48-2.23v-1.57h1.95v1.63Zm8.39-8.38c-1.07 1.26-1.8 2.43-2.2 3.51-.39 1.09-.67 2.4-.84 3.93l-.1 1.02h-2.01l.1-1.02c.16-1.47.49-2.82 1-4.05s1.22-2.36 2.11-3.39h-5.14v-1.55h7.08v1.55Zm7.95 1.11c0 .5-.13.94-.4 1.33s-.63.69-1.09.9c.53.22.95.55 1.26.96.31.42.46.89.46 1.43 0 .93-.31 1.64-.94 2.13-.63.5-1.45.75-2.46.75s-1.85-.25-2.48-.75c-.63-.5-.95-1.21-.95-2.13 0-.54.15-1.02.46-1.43.3-.41.73-.74 1.26-.96-.47-.22-.83-.51-1.09-.9a2.28 2.28 0 0 1-.39-1.32c0-.89.29-1.58.87-2.07s1.35-.73 2.3-.73 1.72.24 2.3.73.88 1.18.88 2.07Zm-1.77 4.48c0-.45-.13-.81-.39-1.08s-.6-.41-1.02-.41-.76.14-1.01.41c-.25.27-.38.63-.38 1.08s.13.82.39 1.08c.26.26.6.39 1.02.39s.75-.13 1.01-.4c.26-.26.39-.62.39-1.08Zm-.23-4.39c0-.4-.11-.73-.32-.97s-.5-.37-.86-.37-.65.12-.86.36c-.21.24-.31.57-.31.98s.1.75.31.99c.21.25.5.37.87.37s.65-.12.86-.37c.21-.24.31-.58.31-.99Z" style="fill:#1d1d1b"/><path d="M152.29 45.72V24.39h7.21c2.51 0 4.47.49 5.87 1.46s2.11 2.44 2.11 4.38c0 .99-.26 1.87-.78 2.64s-1.28 1.36-2.28 1.75c1.28.27 2.24.86 2.88 1.76s.96 1.94.96 3.12c0 2.04-.67 3.59-2.02 4.64s-3.26 1.58-5.73 1.58h-8.22Zm4.28-12.39h3.08c1.14 0 2.02-.23 2.64-.7s.92-1.15.92-2.05c0-.99-.31-1.71-.93-2.18s-1.55-.7-2.78-.7h-2.93v5.64Zm0 2.96v6.14h3.94c1.13 0 2-.25 2.59-.74s.89-1.22.89-2.18c0-1.04-.25-1.84-.76-2.39s-1.31-.83-2.4-.83h-4.26Zm23.86 9.43c-.16-.36-.29-.74-.4-1.14s-.19-.81-.24-1.23c-.44.77-1.02 1.41-1.74 1.92s-1.57.76-2.57.76c-1.66 0-2.94-.43-3.84-1.28s-1.35-2.02-1.35-3.49c0-1.55.6-2.76 1.79-3.61s2.94-1.28 5.24-1.28h2.39v-1.26c0-.76-.2-1.35-.6-1.77s-.99-.63-1.77-.63c-.69 0-1.23.17-1.6.51s-.56.8-.56 1.4h-4.13l-.01-.1c-.07-1.34.51-2.49 1.74-3.46s2.85-1.46 4.85-1.46c1.89 0 3.43.48 4.61 1.44s1.77 2.33 1.77 4.11v6.55c0 .74.06 1.44.17 2.09s.29 1.3.53 1.95h-4.28Zm-3.91-2.86c.75 0 1.42-.19 2.01-.56s.98-.8 1.19-1.29v-2.24h-2.39c-.91 0-1.6.23-2.07.68s-.7 1-.7 1.65c0 .53.18.95.53 1.28s.83.48 1.44.48Zm15.04 2.86h-4.28V22.87h4.28v22.85Zm12.64 0c-.16-.36-.29-.74-.4-1.14s-.19-.81-.24-1.23c-.44.77-1.02 1.41-1.74 1.92s-1.57.76-2.57.76c-1.66 0-2.94-.43-3.84-1.28s-1.35-2.02-1.35-3.49c0-1.55.6-2.76 1.79-3.61s2.94-1.28 5.24-1.28h2.39v-1.26c0-.76-.2-1.35-.6-1.77s-.99-.63-1.77-.63c-.69 0-1.23.17-1.6.51s-.56.8-.56 1.4h-4.13l-.01-.1c-.07-1.34.51-2.49 1.74-3.46s2.85-1.46 4.85-1.46c1.89 0 3.43.48 4.61 1.44s1.77 2.33 1.77 4.11v6.55c0 .74.06 1.44.17 2.09s.29 1.3.53 1.95h-4.28Zm-3.91-2.86c.75 0 1.42-.19 2.01-.56s.98-.8 1.19-1.29v-2.24h-2.39c-.91 0-1.6.23-2.07.68s-.7 1-.7 1.65c0 .53.18.95.53 1.28s.83.48 1.44.48Zm14.57-12.99.19 2.27c.53-.81 1.18-1.44 1.95-1.89s1.64-.67 2.59-.67c1.6 0 2.85.5 3.75 1.51s1.35 2.58 1.35 4.73v9.9h-4.29v-9.91c0-1.07-.21-1.82-.64-2.27s-1.08-.67-1.95-.67c-.57 0-1.07.12-1.52.35s-.83.56-1.13.98v11.53h-4.28V29.88h3.98Zm19.61 12.86c.76 0 1.37-.22 1.83-.66.46-.44.69-1.03.69-1.77h3.88l.04.09c.04 1.6-.56 2.94-1.81 4.02s-2.79 1.62-4.64 1.62c-2.36 0-4.18-.75-5.46-2.24s-1.92-3.41-1.92-5.76v-.44c0-2.33.64-4.25 1.91-5.76s3.09-2.26 5.46-2.26c1.95 0 3.53.56 4.72 1.67s1.77 2.58 1.74 4.39l-.03.09h-3.9c0-.82-.22-1.5-.67-2.04s-1.07-.81-1.86-.81c-1.13 0-1.93.44-2.4 1.32-.46.88-.7 2.01-.7 3.39v.44c0 1.41.23 2.55.7 3.42s1.27 1.29 2.41 1.29Zm15.75 3.29c-2.29 0-4.11-.73-5.48-2.2s-2.05-3.32-2.05-5.58v-.59c0-2.35.65-4.29 1.94-5.82s3.03-2.28 5.21-2.27c2.14 0 3.8.64 4.98 1.93s1.77 3.03 1.77 5.23v2.33h-9.46l-.03.09c.08 1.04.43 1.9 1.05 2.57.62.67 1.46 1.01 2.53 1.01.95 0 1.73-.1 2.36-.29s1.31-.49 2.05-.9l1.16 2.64c-.64.53-1.49.97-2.53 1.32-1.04.35-2.21.52-3.49.52Zm-.38-13.15c-.79 0-1.42.3-1.88.91s-.74 1.4-.85 2.39l.04.07h5.24v-.38c0-.91-.21-1.63-.64-2.17s-1.07-.81-1.93-.81Zm16.05 5.05c0-2.5.54-4.52 1.63-6.05s2.61-2.3 4.58-2.3c.89 0 1.67.2 2.34.6s1.25.97 1.73 1.71l.34-2.02h3.69v15.78c0 2.06-.68 3.66-2.03 4.78s-3.23 1.69-5.65 1.69c-.8 0-1.65-.11-2.55-.33s-1.73-.52-2.49-.9l.79-3.19c.65.31 1.32.55 2 .71s1.42.24 2.22.24c1.17 0 2.03-.24 2.59-.73s.83-1.25.83-2.29v-1.44c-.47.6-1.02 1.05-1.66 1.36s-1.36.47-2.18.47c-1.94 0-3.46-.71-4.55-2.15s-1.63-3.31-1.63-5.65v-.31Zm4.28.31c0 1.4.23 2.49.7 3.29s1.23 1.2 2.29 1.2c.65 0 1.21-.12 1.66-.36s.82-.59 1.09-1.05v-6.93c-.27-.48-.64-.85-1.09-1.12s-1-.4-1.63-.4c-1.04 0-1.81.47-2.29 1.4s-.73 2.15-.73 3.65v.31Zm20.18 7.79c-2.29 0-4.11-.73-5.48-2.2s-2.05-3.32-2.05-5.58v-.59c0-2.35.65-4.29 1.94-5.82s3.03-2.28 5.21-2.27c2.14 0 3.8.64 4.98 1.93s1.77 3.03 1.77 5.23v2.33h-9.46l-.03.09c.08 1.04.43 1.9 1.05 2.57.62.67 1.46 1.01 2.53 1.01.95 0 1.73-.1 2.36-.29s1.31-.49 2.05-.9l1.16 2.64c-.64.53-1.49.97-2.53 1.32-1.04.35-2.21.52-3.49.52Zm-.38-13.15c-.79 0-1.42.3-1.88.91s-.74 1.4-.85 2.39l.04.07h5.24v-.38c0-.91-.21-1.63-.64-2.17s-1.07-.81-1.93-.81Zm13.21-3 .19 2.27c.53-.81 1.18-1.44 1.95-1.89s1.64-.67 2.59-.67c1.6 0 2.85.5 3.75 1.51s1.35 2.58 1.35 4.73v9.9h-4.29v-9.91c0-1.07-.21-1.82-.64-2.27s-1.08-.67-1.95-.67c-.57 0-1.07.12-1.52.35s-.83.56-1.13.98v11.53h-4.28V29.88h3.98Zm19.83 16.15c-2.29 0-4.11-.73-5.48-2.2s-2.05-3.32-2.05-5.58v-.59c0-2.35.65-4.29 1.94-5.82s3.03-2.28 5.21-2.27c2.14 0 3.8.64 4.98 1.93s1.77 3.03 1.77 5.23v2.33h-9.46l-.03.09c.08 1.04.43 1.9 1.05 2.57.62.67 1.46 1.01 2.53 1.01.95 0 1.73-.1 2.36-.29s1.31-.49 2.05-.9l1.16 2.64c-.64.53-1.49.97-2.53 1.32-1.04.35-2.21.52-3.49.52Zm-.38-13.15c-.79 0-1.42.3-1.88.91s-.74 1.4-.85 2.39l.04.07h5.24v-.38c0-.91-.21-1.63-.64-2.17s-1.07-.81-1.93-.81Zm17.61.67-1.57-.04c-.63 0-1.16.13-1.57.39s-.72.63-.94 1.11v10.71h-4.26V29.86h3.97l.19 2.34c.37-.83.85-1.48 1.44-1.94s1.27-.7 2.04-.7c.21 0 .41.02.59.05s.36.08.55.12l-.45 3.79Zm11.29 12.18c-.16-.36-.29-.74-.4-1.14s-.19-.81-.24-1.23c-.44.77-1.02 1.41-1.74 1.92s-1.57.76-2.57.76c-1.66 0-2.94-.43-3.84-1.28s-1.35-2.02-1.35-3.49c0-1.55.6-2.76 1.79-3.61s2.94-1.28 5.24-1.28h2.39v-1.26c0-.76-.2-1.35-.6-1.77s-.99-.63-1.77-.63c-.69 0-1.23.17-1.6.51s-.56.8-.56 1.4h-4.13l-.01-.1c-.07-1.34.51-2.49 1.74-3.46s2.85-1.46 4.85-1.46c1.89 0 3.43.48 4.61 1.44s1.77 2.33 1.77 4.11v6.55c0 .74.06 1.44.17 2.09s.29 1.3.53 1.95h-4.28Zm-3.91-2.86c.75 0 1.42-.19 2.01-.56s.98-.8 1.19-1.29v-2.24h-2.39c-.91 0-1.6.23-2.07.68s-.7 1-.7 1.65c0 .53.18.95.53 1.28s.83.48 1.44.48Zm15.04 2.86h-4.28V22.87h4.28v22.85Zm25.35 0h-14.56v-2.8l6.9-7.4c1-1.14 1.7-2.11 2.12-2.89s.63-1.52.63-2.19c0-.9-.24-1.63-.73-2.2s-1.17-.86-2.06-.86c-.99 0-1.74.33-2.25 1s-.77 1.56-.77 2.67h-4.16l-.03-.09c-.05-1.92.58-3.55 1.9-4.88s3.08-2 5.31-2 3.92.57 5.18 1.71 1.88 2.67 1.88 4.57c0 1.29-.35 2.48-1.06 3.57s-1.88 2.52-3.51 4.29l-3.79 4.13.03.07H388v3.3Zm16.55-8.31c0 2.82-.65 4.96-1.94 6.42s-3.04 2.19-5.25 2.19-3.99-.73-5.29-2.19-1.95-3.6-1.95-6.42v-4.7c0-2.81.65-4.95 1.94-6.42s3.05-2.21 5.27-2.21 3.96.74 5.27 2.21 1.96 3.61 1.96 6.42v4.7Zm-4.26-5.15c0-1.69-.25-2.92-.76-3.71s-1.24-1.18-2.2-1.18-1.7.39-2.2 1.17c-.5.78-.75 2.02-.75 3.72v5.55c0 1.72.25 2.97.75 3.75.5.78 1.24 1.17 2.22 1.17s1.68-.39 2.18-1.17c.5-.78.75-2.03.75-3.75v-5.55Zm21.57 13.46h-14.56v-2.8l6.9-7.4c1-1.14 1.7-2.11 2.12-2.89s.63-1.52.63-2.19c0-.9-.24-1.63-.73-2.2s-1.17-.86-2.06-.86c-.99 0-1.74.33-2.25 1s-.77 1.56-.77 2.67h-4.16l-.03-.09c-.05-1.92.58-3.55 1.9-4.88s3.08-2 5.31-2 3.92.57 5.18 1.71 1.88 2.67 1.88 4.57c0 1.29-.35 2.48-1.06 3.57s-1.88 2.52-3.51 4.29l-3.79 4.13.03.07h8.96v3.3Zm6.88-12.48h2.4c1.02 0 1.77-.27 2.26-.8s.73-1.27.73-2.22c0-.86-.24-1.55-.73-2.07s-1.2-.78-2.12-.78c-.8 0-1.47.23-2.02.7s-.82 1.08-.82 1.85h-4.15l-.03-.09c-.06-1.67.58-3.05 1.92-4.13s3-1.63 4.98-1.63c2.21 0 3.97.53 5.28 1.58s1.97 2.56 1.97 4.51c0 .93-.29 1.81-.88 2.64s-1.39 1.49-2.42 1.96c1.18.42 2.08 1.06 2.7 1.93s.93 1.88.93 3.03c0 1.95-.71 3.49-2.13 4.61s-3.24 1.68-5.46 1.68c-1.98 0-3.68-.52-5.1-1.57s-2.11-2.53-2.06-4.45l.03-.09h4.15c0 .82.29 1.49.88 2.02s1.33.79 2.23.79c.99 0 1.77-.27 2.34-.82.57-.55.86-1.29.86-2.22 0-1.12-.28-1.94-.84-2.46-.56-.52-1.39-.78-2.48-.78h-2.4v-3.21Z" style="fill:#fff"/><path class="cls-5" d="M356.55 403.26a8.42 8.42 0 1 0 0-16.84 8.42 8.42 0 0 0 0 16.84"/><path class="cls-3" d="M188.96 403.26a8.42 8.42 0 1 0 0-16.84 8.42 8.42 0 0 0 0 16.84"/></g></svg>