<svg id="Layer_2" data-name="Layer 2" xmlns="http://www.w3.org/2000/svg" viewBox="0 0 590.33 478.93"><defs><clipPath id="clippath"><rect width="590.33" height="478.93" rx="20" ry="20" style="fill:none"/></clipPath><style>.cls-2,.cls-3{fill:#575756}.cls-2{font-family:Roboto-Regular,Roboto}.cls-2,.cls-6{font-size:14.08px}.cls-7{letter-spacing:-.02em}.cls-10,.cls-8{letter-spacing:0}.cls-11{letter-spacing:-.02em}.cls-3{font-family:Roboto-Light,Roboto;font-size:14.26px;font-weight:300}.cls-6{font-family:Roboto-Bold,Roboto;font-weight:700}.cls-13{fill:#006935}.cls-14{letter-spacing:0}.cls-17{letter-spacing:.04em}.cls-18{letter-spacing:-.03em}.cls-23{letter-spacing:0}.cls-26{fill:#c4d64e}.cls-28{letter-spacing:.05em}.cls-6{fill:#1d1d1b}.cls-34,.cls-35,.cls-38{letter-spacing:-.02em}.cls-39{letter-spacing:0}</style></defs><g id="Layer_1-2" data-name="Layer 1"><rect width="590.33" height="478.93" rx="20" ry="20" style="fill:#e5f7fd"/><g style="clip-path:url(#clippath)"><path style="fill:#2566af" d="M-607.61 0h1293v61.5h-1293z"/></g><text class="cls-3" transform="translate(206.36 400.19)"><tspan class="cls-38" x="0" y="0">d</tspan><tspan class="cls-35" x="7.64" y="0">i</tspan><tspan x="10.6" y="0" style="letter-spacing:-.02em">c</tspan><tspan class="cls-11" x="17.65" y="0">ie</tspan><tspan class="cls-34" x="27.75" y="0">m</tspan><tspan x="40.1" y="0" style="letter-spacing:-.01em">b</tspan><tspan x="47.82" y="0" style="letter-spacing:-.02em">r</tspan><tspan class="cls-8" x="52.38" y="0">e </tspan><tspan class="cls-18" x="62.93" y="0">2</tspan><tspan x="70.41" y="0" style="letter-spacing:-.05em">0</tspan><tspan class="cls-7" x="78.06" y="0">2</tspan><tspan x="85.64" y="0">2</tspan></text><text class="cls-3" transform="translate(373.95 400.19)"><tspan class="cls-38" x="0" y="0">d</tspan><tspan class="cls-35" x="7.64" y="0">i</tspan><tspan class="cls-7" x="10.6" y="0">c</tspan><tspan class="cls-11" x="17.66" y="0">ie</tspan><tspan class="cls-34" x="27.76" y="0">m</tspan><tspan x="40.11" y="0" style="letter-spacing:-.01em">b</tspan><tspan class="cls-38" x="47.84" y="0">r</tspan><tspan class="cls-8" x="52.39" y="0">e </tspan><tspan class="cls-18" x="62.95" y="0">2</tspan><tspan x="70.42" y="0" style="letter-spacing:-.05em">0</tspan><tspan x="78.08" y="0" style="letter-spacing:-.02em">2</tspan><tspan x="85.68" y="0">3</tspan></text><text class="cls-2" transform="translate(94.57 239.09)"><tspan class="cls-17" x="0" y="0">P</tspan><tspan class="cls-28" x="9.64" y="0">asi</tspan><tspan x="30.4" y="0" style="letter-spacing:.04em">v</tspan><tspan x="38.08" y="0">o</tspan></text><text transform="translate(96.85 140.09)" style="letter-spacing:.04em;font-size:14.08px;font-family:Roboto-Regular,Roboto;fill:#575756"><tspan x="0" y="0">Activo</tspan></text><text class="cls-2" transform="translate(64.58 331.25)"><tspan class="cls-17" x="0" y="0">P</tspan><tspan class="cls-28" x="9.64" y="0">atri</tspan><tspan x="33.44" y="0" style="letter-spacing:.05em">mon</tspan><tspan class="cls-28" x="63.82" y="0">i</tspan><tspan x="68.07" y="0">o</tspan></text><text transform="translate(64.58 440.25)" style="font-size:12px;letter-spacing:.04em;font-family:Roboto-Regular,Roboto"><tspan x="0" y="0">Fuente findeter. año 2023</tspan></text><path class="cls-13" d="M440.11 109.93H161.4v29.73h278.7v-29.73Zm-29.44 95.71H161.41v29.74h249.26v-29.74Zm-219.82 94.78h-29.44v30.67h29.44v-30.67Z"/><path class="cls-26" d="M161.4 331.08h32.97v29.74H161.4zm0-95.71h280.27v29.73H161.4zm0-95.71h313.25v29.73H161.4z"/><text class="cls-6" transform="translate(426.59 223.82)"><tspan class="cls-39" x="0" y="0">11,7</tspan><tspan x="28.43" y="0">7</tspan></text><text class="cls-6" transform="translate(463.7 255.12)"><tspan class="cls-39" x="0" y="0">13,2</tspan><tspan x="28.43" y="0">2</tspan></text><text class="cls-6" transform="translate(200.88 321.51)"><tspan class="cls-39" x="0" y="0">1,3</tspan><tspan x="20.21" y="0">8</tspan></text><text class="cls-6" transform="translate(208.63 350.69)"><tspan class="cls-39" x="0" y="0">1,5</tspan><tspan x="20.21" y="0">6</tspan></text><text class="cls-6" transform="translate(468.84 127.75)"><tspan class="cls-39" x="0" y="0">13,1</tspan><tspan x="28.43" y="0">5</tspan></text><text class="cls-6" transform="translate(495.85 160.39)"><tspan class="cls-39" x="0" y="0">14,7</tspan><tspan x="28.43" y="0">8</tspan></text><text transform="translate(150.3 45.72)" style="font-family:Roboto-Bold,Roboto;font-weight:700;fill:#fff;font-size:30px"><tspan class="cls-23" x="0" y="0">B</tspan><tspan class="cls-14" x="19.19" y="0">al</tspan><tspan class="cls-23" x="42.95" y="0">an</tspan><tspan class="cls-10" x="75.88" y="0">c</tspan><tspan x="91.26" y="0">e </tspan><tspan class="cls-10" x="114.61" y="0">g</tspan><tspan x="131.39" y="0" style="letter-spacing:0">e</tspan><tspan x="147.33" y="0" style="letter-spacing:0">n</tspan><tspan x="164.05" y="0" style="letter-spacing:0">e</tspan><tspan class="cls-14" x="179.96" y="0">ra</tspan><tspan x="206.22" y="0">l </tspan><tspan x="221.7" y="0" style="letter-spacing:-.02em">2</tspan><tspan x="238.43" y="0" style="letter-spacing:0">02</tspan><tspan x="272.68" y="0">3</tspan></text><path class="cls-26" d="M356.55 403.26a8.42 8.42 0 1 0 0-16.84 8.42 8.42 0 0 0 0 16.84"/><path class="cls-13" d="M188.96 403.26a8.42 8.42 0 1 0 0-16.84 8.42 8.42 0 0 0 0 16.84"/></g></svg>