<svg id="Layer_2" data-name="Layer 2" xmlns="http://www.w3.org/2000/svg" viewBox="0 0 55.75 49.78"><defs><style>.cls-1{fill:#fff}.cls-2{fill:none;stroke:#fff;stroke-miterlimit:10;stroke-width:.25px}</style></defs><g id="Layer_1-2" data-name="Layer 1"><path class="cls-1" d="M21.57 21.22h2.62v12.97h-2.62V21.22Zm-1.39-.69v14.35c0 .38.31.69.69.69h4.01c.38 0 .69-.31.69-.69V20.53c0-.38-.31-.69-.69-.69h-4.01c-.38 0-.69.31-.69.69"/><path class="cls-2" d="M21.57 21.22h2.62v12.97h-2.62V21.22Zm-1.39-.69v14.35c0 .38.31.69.69.69h4.01c.38 0 .69-.31.69-.69V20.53c0-.38-.31-.69-.69-.69h-4.01c-.38 0-.69.31-.69.69Z"/><path class="cls-1" d="M17.93 34.19h-2.62v-9.38h2.62v9.38Zm-3.31-10.77c-.38 0-.69.31-.69.69v10.76c0 .38.31.69.69.69h4.01c.38 0 .69-.31.69-.69V24.11c0-.38-.31-.69-.69-.69h-4.01Z"/><path class="cls-2" d="M17.93 34.19h-2.62v-9.38h2.62v9.38Zm-3.31-10.77c-.38 0-.69.31-.69.69v10.76c0 .38.31.69.69.69h4.01c.38 0 .69-.31.69-.69V24.11c0-.38-.31-.69-.69-.69h-4.01Z"/><path class="cls-1" d="M9.05 27.5h2.62v6.69H9.05V27.5Zm-.69 8.07h4.01c.38 0 .69-.31.69-.69v-8.07c0-.38-.31-.69-.69-.69H8.36c-.38 0-.69.31-.69.69v8.07c0 .38.31.69.69.69"/><path class="cls-2" d="M9.05 27.5h2.62v6.69H9.05V27.5Zm-.69 8.07h4.01c.38 0 .69-.31.69-.69v-8.07c0-.38-.31-.69-.69-.69H8.36c-.38 0-.69.31-.69.69v8.07c0 .38.31.69.69.69Z"/><path class="cls-1" d="M27.11 37.41H5.8V15.3c0-.38-.31-.69-.69-.69s-.69.31-.69.69v22.1h-.73c-.38 0-.69.31-.69.69s.31.69.69.69h.73v.73c0 .38.31.69.69.69s.69-.31.69-.69v-.73h21.32c.92-.03.92-1.36 0-1.39"/><path class="cls-2" d="M27.11 37.41H5.8V15.3c0-.38-.31-.69-.69-.69s-.69.31-.69.69v22.1h-.73c-.38 0-.69.31-.69.69s.31.69.69.69h.73v.73c0 .38.31.69.69.69s.69-.31.69-.69v-.73h21.32c.92-.03.92-1.36 0-1.39Z"/><path class="cls-1" d="M10.1 22.34c.15 0 .3-.05.42-.14l10.91-8.4-.24 1.85c-.09.91 1.22 1.09 1.38.18l.46-3.51a.697.697 0 0 0-.6-.78l-3.51-.46c-.91-.09-1.09 1.23-.18 1.38l1.85.24-10.91 8.4c-.3.23-.36.67-.13.97.13.17.34.27.55.27"/><path class="cls-2" d="M10.1 22.34c.15 0 .3-.05.42-.14l10.91-8.4-.24 1.85c-.09.91 1.22 1.09 1.38.18l.46-3.51a.697.697 0 0 0-.6-.78l-3.51-.46c-.91-.09-1.09 1.23-.18 1.38l1.85.24-10.91 8.4c-.3.23-.36.67-.13.97.13.17.34.27.55.27Z"/><path class="cls-1" d="M47.12 48.27c-3.93 0-7.11-3.19-7.12-7.12.39-9.44 13.85-9.44 14.23 0 0 3.93-3.19 7.11-7.12 7.12m-16.74-1.88v-1.71c0-.11.07-.21.18-.23h8.71c.32.75.74 1.45 1.26 2.08H30.5c-.07 0-.13-.07-.14-.14M1.51 1.53c3.07.01 14.84-.01 19.92 0 3.31.41 3.68 3.6 4.56 7.35a.694.694 0 0 0 1.08.4c1.7-1.22 4.28-1.57 4.88-1.31v14.25h-1.39c-.88.02-1.58.74-1.57 1.62.02.3-.04 1.75.05 2.02-.54.28-.89.84-.88 1.45v1.62c0 .61.34 1.17.88 1.45-.03.13-.05.27-.05.4.02.3-.04 1.75.05 2.02-.54.28-.88.84-.88 1.45v1.62c0 .61.34 1.17.88 1.45-.1.26-.04 1.82-.05 2.11 0 .3.1.6.27.85-.18.27-.27.58-.27.91v1.71c0 .3.1.6.27.85-.17.26-.27.58-.27.89H1.52L1.51 1.5Zm30.22 5.01c-1.27-.11-3.13.32-4.6 1.09-.51-2.24-.97-4.39-2.1-5.7 3.17.72 5.72 2.09 6.7 4.61m12.69 17.32v1.65a.2.2 0 0 1-.2.2H30.57a.218.218 0 0 1-.18-.23v-1.62c0-.11.07-.21.18-.23h13.67c.11.02.19.11.18.22Zm-4.15 12.26H29.73a.218.218 0 0 1-.18-.23v-1.62c0-.11.07-.21.18-.23h12.74a8.5 8.5 0 0 0-2.2 2.07Zm-1.5 3.47h-8.18c-.09.02-.18-.04-.2-.14v-1.71c0-.11.07-.21.18-.23h8.87c-.32.66-.54 1.36-.68 2.08Zm-8.17 3.47h-.07c-.07 0-.13-.07-.14-.14v-1.71c0-.11.07-.21.18-.23h8.05c-.02.7.05 1.4.21 2.08h-8.24Zm-.21-12.26c0-.11.07-.21.18-.23h13.67c.11.02.19.12.18.23v1.64a.2.2 0 0 1-.2.2H30.57a.218.218 0 0 1-.18-.23v-1.62Zm13.03-3.7c.11.02.19.12.18.23v1.72c0 .07-.03.09-.06.14-.3 0-12.77-.01-13.09 0-.07-.02-.63 0-.71 0a.218.218 0 0 1-.18-.23v-1.62c0-.11.07-.21.18-.23h13.67Zm3.71 5.55c-.45 0-.9.04-1.34.11.06-.18.02-1.73.03-1.96 0-.6-.33-1.16-.86-1.44.06-.18.02-1.8.03-2.03 0-.14-.02-.27-.05-.4.54-.27.88-.82.88-1.42v-1.65c.01-.88-.69-1.6-1.57-1.62H33.36V7.86c0-2.04-1.22-4.01-3.34-5.41C26.66.22 22.49.05 17.63.15H1.29A1.14 1.14 0 0 0 .12 1.26v43.63c.01.64.53 1.17 1.17 1.17h27.7v.33c.01.84.69 1.51 1.52 1.52h11.45c5.48 4.25 13.69.23 13.65-6.76 0-4.7-3.81-8.5-8.5-8.51"/><path class="cls-2" d="M47.12 48.27c-3.93 0-7.11-3.19-7.12-7.12.39-9.44 13.85-9.44 14.23 0 0 3.93-3.19 7.11-7.12 7.12Zm-16.74-1.88v-1.71c0-.11.07-.21.18-.23h8.71c.32.75.74 1.45 1.26 2.08H30.51c-.07 0-.13-.07-.14-.14ZM1.51 1.53c3.07.01 14.84-.01 19.92 0 3.31.41 3.68 3.6 4.56 7.35a.694.694 0 0 0 1.08.4c1.7-1.22 4.28-1.57 4.88-1.31v14.25h-1.39c-.88.02-1.58.74-1.57 1.62.02.3-.04 1.75.05 2.02-.54.28-.89.84-.88 1.45v1.62c0 .61.34 1.17.88 1.45-.03.13-.05.27-.05.4.02.3-.04 1.75.05 2.02-.54.28-.88.84-.88 1.45v1.62c0 .61.34 1.17.88 1.45-.1.26-.04 1.82-.05 2.11 0 .3.1.6.27.85-.18.27-.27.58-.27.91v1.71c0 .3.1.6.27.85-.17.26-.27.58-.27.89H1.52L1.51 1.5Zm30.22 5.01c-1.27-.11-3.13.32-4.6 1.09-.51-2.24-.97-4.39-2.1-5.7 3.17.72 5.72 2.09 6.7 4.61Zm12.69 17.32v1.65a.2.2 0 0 1-.2.2H30.57a.218.218 0 0 1-.18-.23v-1.62c0-.11.07-.21.18-.23h13.67c.11.02.19.11.18.22Zm-4.15 12.26H29.73a.218.218 0 0 1-.18-.23v-1.62c0-.11.07-.21.18-.23h12.74a8.5 8.5 0 0 0-2.2 2.07Zm-1.5 3.47h-8.18c-.09.02-.18-.04-.2-.14v-1.71c0-.11.07-.21.18-.23h8.87c-.32.66-.54 1.36-.68 2.08Zm-8.17 3.47h-.07c-.07 0-.13-.07-.14-.14v-1.71c0-.11.07-.21.18-.23h8.05c-.02.7.05 1.4.21 2.08h-8.24Zm-.21-12.26c0-.11.07-.21.18-.23h13.67c.11.02.19.12.18.23v1.64a.2.2 0 0 1-.2.2H30.57a.218.218 0 0 1-.18-.23v-1.62Zm13.03-3.7c.11.02.19.12.18.23v1.72c0 .07-.03.09-.06.14-.3 0-12.77-.01-13.09 0-.07-.02-.63 0-.71 0a.218.218 0 0 1-.18-.23v-1.62c0-.11.07-.21.18-.23h13.67Zm3.71 5.55c-.45 0-.9.04-1.34.11.06-.18.02-1.73.03-1.96 0-.6-.33-1.16-.86-1.44.06-.18.02-1.8.03-2.03 0-.14-.02-.27-.05-.4.54-.27.88-.82.88-1.42v-1.65c.01-.88-.69-1.6-1.57-1.62H33.36V7.86c0-2.04-1.22-4.01-3.34-5.41C26.66.22 22.49.05 17.63.15H1.29A1.14 1.14 0 0 0 .12 1.26v43.63c.01.64.53 1.17 1.17 1.17h27.7v.33c.01.84.69 1.51 1.52 1.52h11.45c5.48 4.25 13.69.23 13.65-6.76 0-4.7-3.81-8.5-8.5-8.51Z"/><path class="cls-1" d="M47.87 44.54v-2.63c2 .88 1.39 2.13 0 2.63m-2.45-5.52c0-.52.46-1.03 1.06-1.25V40c-.73-.25-1.06-.51-1.06-.98m2.45 1.41v-2.7c.54.11 1.04.35 1.45.72.66.64 1.62-.27 1-.96a4.427 4.427 0 0 0-2.46-1.17v-.67c0-.38-.31-.69-.69-.69s-.69.31-.69.69v.68c-1.36.28-2.45 1.42-2.45 2.69 0 1.6 1.42 2.14 2.45 2.44v3.11c-.65-.14-1.25-.48-1.71-.96-.61-.68-1.62.16-1.07.89.73.8 1.71 1.32 2.77 1.49v.67c0 .38.31.69.69.69s.69-.31.69-.69v-.68c3.38-.78 3.72-4.37 0-5.54"/><path class="cls-2" d="M47.87 44.54v-2.63c2 .88 1.39 2.13 0 2.63Zm-2.45-5.52c0-.52.46-1.03 1.06-1.25V40c-.73-.25-1.06-.51-1.06-.98Zm2.45 1.41v-2.7c.54.11 1.04.35 1.45.72.66.64 1.62-.27 1-.96a4.427 4.427 0 0 0-2.46-1.17v-.67c0-.38-.31-.69-.69-.69s-.69.31-.69.69v.68c-1.36.28-2.45 1.42-2.45 2.69 0 1.6 1.42 2.14 2.45 2.44v3.11c-.65-.14-1.25-.48-1.71-.96-.61-.68-1.62.16-1.07.89.73.8 1.71 1.32 2.77 1.49v.67c0 .38.31.69.69.69s.69-.31.69-.69v-.68c3.38-.78 3.72-4.37 0-5.54Z"/></g></svg>