<svg id="Layer_2" data-name="Layer 2" xmlns="http://www.w3.org/2000/svg" viewBox="0 0 157.07 187.62"><defs><style>.cls-2{fill:#bfbfbf}.cls-3{fill:#a6a6a6}.cls-5{fill:#d9d9d9}.cls-6{fill:#f2f2f2}</style></defs><g id="Layer_1-2" data-name="Layer 1"><path d="M101.82 187.62c30.51 0 55.25-24.74 55.25-55.25s-24.74-55.25-55.25-55.25-55.25 24.74-55.25 55.25 24.74 55.25 55.25 55.25" style="fill:#fff"/><path style="fill:#b7d831" d="m138.58 125.24-79.91 39.54-54.34-27.67 79.91-39.55 54.34 27.68z"/><path class="cls-2" d="m129.19 74.33-1.66 49.34-68.74 34.01 1.67-49.33 68.73-34.02z"/><path class="cls-5" d="m60.46 108.35-1.67 49.33-46.73-23.8 1.66-49.34 46.74 23.81z"/><path class="cls-3" d="m129.16 75.41-.09 1.97-68.54 33.72-.17-.1-46.73-24.1.07-1.7 46.63 24.06.09-.03 68.74-33.82z"/><path class="cls-3" d="m128.83 83.79-.07 1.93-68.56 33.72-.17-.1-46.7-24.1.03-1.7 46.63 24.06.09-.03 68.75-33.78z"/><path class="cls-3" d="m128.51 92.06-.09 1.97-68.53 33.71-.17-.1-46.73-24.09.07-1.68 46.63 24.07.09-.04 68.73-33.84z"/><path class="cls-3" d="m128.19 100.43-.07 1.94-68.56 33.71-.18-.1-46.69-24.09.03-1.71 46.63 24.06.09-.06h.03l68.72-33.75z"/><path class="cls-3" d="m127.88 108.74-.1 1.93-68.53 33.72-.17-.1-46.73-24.06.07-1.71 46.63 24.06.09-.03 68.74-33.81z"/><path class="cls-3" d="m127.54 117.04-.06 1.97-68.57 33.72-.17-.1-46.7-24.1.04-1.71 46.63 24.07.12-.07 68.71-33.78z"/><path class="cls-6" d="m46.17 144.42-34.09-17.6.13-3.15-6.47 3.77 40.43 16.98zm12.15-27.67L13.39 93.56l.24-6.66L0 95.05l58.32 21.7zm70.87-42.42-68.73 34.02-46.74-23.81 68.73-34.01 46.74 23.8z"/><path class="cls-2" d="m138.19 23.81-1.66 49.33-68.74 34.02 1.67-49.34 68.73-34.01z"/><path class="cls-5" d="m69.46 57.82-1.67 49.34-46.74-23.81 1.67-49.33 46.74 23.8z"/><path class="cls-3" d="m138.16 24.89-.1 1.97-68.53 33.71-.17-.1-46.73-24.09.07-1.71 46.63 24.06.09-.03 68.74-33.81z"/><path class="cls-3" d="m137.83 33.26-.07 1.94L69.2 68.91l-.18-.1-46.69-24.09.03-1.71 46.63 24.06.09-.03 68.75-33.78z"/><path class="cls-3" d="m137.51 41.53-.09 1.97-68.53 33.72-.17-.1-46.73-24.1.07-1.67 46.63 24.06.09-.03 68.73-33.85z"/><path class="cls-3" d="m137.18 49.9-.06 1.94-68.56 33.71-.18-.09-46.7-24.1.04-1.71 46.63 24.07.09-.07h.03l68.71-33.75z"/><path class="cls-3" d="m136.88 58.21-.1 1.94-68.53 33.71-.17-.1L21.35 69.7l.07-1.71 46.63 24.06.09-.03 68.74-33.81z"/><path class="cls-3" d="m136.54 66.51-.06 1.97-68.57 33.72-.17-.1L21.04 78l.04-1.7 46.63 24.06.12-.07 68.71-33.78z"/><path class="cls-6" d="M55.17 93.89 21.08 76.3l.13-3.16-6.47 3.77 40.43 16.98zm12.15-27.67L22.39 43.04l.24-6.66L9 44.52l58.32 21.7zm70.87-42.41L69.46 57.82l-46.74-23.8L91.45 0l46.74 23.81z"/></g></svg>