<svg data-name="Layer 2" xmlns="http://www.w3.org/2000/svg" viewBox="0 0 45.88 45.88"><g data-name="Layer 1"><path d="M38.72 29.12V11.51c0-1.03-.83-1.86-1.86-1.86h-7.73c-.2 0-.35-.16-.35-.35s.16-.35.35-.35h7.73a2.57 2.57 0 0 1 2.57 2.57v17.61l1.2-1.2a.35.35 0 0 1 .5 0c.14.14.14.36 0 .5l-1.81 1.81a.35.35 0 0 1-.5 0l-1.81-1.81c-.14-.14-.14-.36 0-.5s.36-.14.5 0l1.2 1.21ZM23.3 22.77v6.35l1.2-1.2a.35.35 0 0 1 .5 0c.14.14.14.36 0 .5l-1.81 1.81a.35.35 0 0 1-.5 0l-1.81-1.81a.35.35 0 0 1 0-.5.35.35 0 0 1 .5 0l1.2 1.2v-6.35c0-.2.16-.35.36-.35s.35.16.35.35M7.05 11.51v17.61l1.2-1.2a.35.35 0 0 1 .5 0c.14.14.14.36 0 .5l-1.81 1.81a.35.35 0 0 1-.5 0l-1.81-1.81a.35.35 0 0 1 0-.5.35.35 0 0 1 .5 0l1.2 1.2V11.51A2.57 2.57 0 0 1 8.9 8.94h7.85c.2 0 .35.16.35.35s-.16.35-.35.35H8.9c-1.03 0-1.86.83-1.86 1.86m24.9 9.13h-2.7v-3.05c0-.2-.16-.35-.35-.35s-.36.16-.36.35v3.05H17.36v-3.05c0-.2-.16-.35-.36-.35s-.35.16-.35.35v3.05h-2.7v-4.82c.06-1.52 1-2.74 2.39-3.09l5.1-1.31-.37 5.7c0 .07.01.14.05.2l1.52 2.56a.356.356 0 0 0 .61 0l1.52-2.56c.04-.06.05-.13.05-.2l-.37-5.7 5.1 1.31c1.39.36 2.33 1.57 2.39 3.09v4.82Zm-7.84-3.59-1.16 1.95-1.16-1.95.37-5.81c.25-.05.51-.07.77-.07h.04c.26 0 .51.03.77.07l.37 5.81ZM19.48 4.71c-.01-1.15.33-2.12 1.01-2.8.65-.63 1.52-.98 2.42-.97h.07c.9 0 1.77.34 2.41.97.68.68 1.02 1.64 1.01 2.8-.03 2.4-.96 5.15-3.46 5.73-2.5-.57-3.43-3.32-3.46-5.73m13.17 16.27v-5.19c-.07-1.86-1.22-3.33-2.93-3.77l-5.38-1.38c1.97-1.14 2.74-3.67 2.76-5.92.02-1.35-.4-2.49-1.22-3.31A4.166 4.166 0 0 0 22.93.23h-.04c-1.09 0-2.14.41-2.92 1.18-.81.82-1.23 1.96-1.22 3.31.03 2.25.79 4.78 2.77 5.92l-5.38 1.38c-1.71.44-2.86 1.92-2.93 3.76v5.2c0 .2.16.35.35.35h18.71c.2 0 .36-.16.36-.35M21.79 39.06l-.23 3.62c0 .07.01.14.05.2l1.01 1.7a.356.356 0 0 0 .61 0l1.01-1.7c.04-.06.05-.13.05-.2l-.23-3.62 3.22.83c.87.22 1.46.99 1.5 1.94v3.08h-1.56v-1.9c0-.2-.16-.35-.35-.35s-.36.16-.36.35v1.9h-7.17v-1.9c0-.2-.16-.35-.36-.35s-.35.16-.35.35v1.9h-1.56v-3.08c.04-.95.62-1.71 1.5-1.94l3.22-.83Zm1.78 3.55-.65 1.09-.65-1.09.24-3.72c.13-.02.27-.03.4-.03h.02c.13 0 .27.01.4.03l.24 3.72Zm-2.83-8.15c0-.73.21-1.35.64-1.77.41-.4.96-.61 1.52-.61h.02c.57-.01 1.13.21 1.54.61.42.43.64 1.04.63 1.77 0 .75-.19 3.2-2.17 3.68-1.98-.47-2.17-2.93-2.18-3.68m-4.38 7.34v3.45c0 .2.16.35.35.35h12.41c.19 0 .35-.16.35-.35v-3.44c-.05-1.29-.84-2.31-2.03-2.62l-3.3-.85c1.18-.84 1.64-2.44 1.66-3.88.01-.93-.28-1.72-.84-2.28a2.967 2.967 0 0 0-4.09 0c-.56.56-.85 1.35-.84 2.28.02 1.44.48 3.04 1.66 3.88l-3.3.85c-1.19.31-1.98 1.33-2.03 2.61m28.54 3.1h-1.56V43c0-.2-.16-.35-.35-.35s-.35.16-.35.35v1.9h-7.17V43c0-.2-.16-.35-.35-.35s-.35.16-.35.35v1.9h-1.56v-3.08c.04-.95.62-1.71 1.5-1.94l3.22-.83-.23 3.62c0 .07.01.14.05.2l1.01 1.7a.356.356 0 0 0 .61 0l1.01-1.7c.04-.06.05-.13.05-.2l-.23-3.62 3.22.83c.87.22 1.46.99 1.5 1.94v3.08Zm-5.2-2.29-.65 1.09-.65-1.09.24-3.72c.13-.02.26-.03.4-.03h.01c.13 0 .27.01.4.03l.24 3.72Zm-2.82-8.15c0-.73.21-1.35.63-1.77.41-.39.96-.61 1.52-.61h.04c.57 0 1.11.21 1.51.61.43.43.64 1.04.63 1.77 0 .75-.19 3.2-2.18 3.68-1.98-.47-2.17-2.93-2.17-3.68m6.7 4.74-3.3-.85c1.18-.84 1.64-2.44 1.66-3.88.01-.93-.28-1.72-.84-2.28a2.967 2.967 0 0 0-4.09 0c-.56.56-.85 1.35-.84 2.28.02 1.44.48 3.04 1.66 3.88l-3.3.85c-1.18.3-1.98 1.33-2.03 2.61v3.45c0 .2.16.35.36.35h12.41c.2 0 .35-.16.35-.35v-3.44c-.05-1.29-.84-2.31-2.03-2.62M.96 41.84c.04-.95.62-1.71 1.5-1.94l3.22-.83-.23 3.62c0 .07.01.14.05.2l1.01 1.7a.356.356 0 0 0 .61 0l1.01-1.7c.04-.06.05-.13.05-.2l-.23-3.62 3.22.83c.87.22 1.46.99 1.5 1.94v3.08h-1.56v-1.9c0-.2-.16-.35-.36-.35s-.35.16-.35.35v1.9H3.22v-1.9c0-.2-.16-.35-.35-.35s-.36.16-.36.35v1.9H.96v-3.08Zm6.5.79-.65 1.09-.65-1.09.24-3.72c.13-.02.27-.03.4-.03h.02c.13 0 .27.01.4.03l.24 3.72Zm-2.82-8.15c0-.73.21-1.35.63-1.77.41-.4.95-.61 1.52-.61h.02c.57-.01 1.13.21 1.54.61.42.43.64 1.04.63 1.77 0 .75-.19 3.2-2.18 3.68-1.98-.47-2.17-2.93-2.18-3.68M.61 45.63h12.41c.2 0 .36-.16.36-.35v-3.44c-.05-1.29-.84-2.31-2.03-2.62l-3.3-.85c1.18-.84 1.64-2.44 1.66-3.88.01-.93-.28-1.72-.84-2.28-.54-.53-1.28-.83-2.04-.81-.76-.01-1.5.28-2.05.81-.56.56-.85 1.35-.84 2.28.02 1.44.48 3.04 1.66 3.88l-3.3.85c-1.19.31-1.98 1.33-2.03 2.61H.25v3.45c0 .2.16.35.36.35" style="fill:#fff"/><path d="M38.72 29.12V11.51c0-1.03-.83-1.86-1.86-1.86h-7.73c-.2 0-.35-.16-.35-.35s.16-.35.35-.35h7.73a2.57 2.57 0 0 1 2.57 2.57v17.61l1.2-1.2a.35.35 0 0 1 .5 0c.14.14.14.36 0 .5l-1.81 1.81a.35.35 0 0 1-.5 0l-1.81-1.81c-.14-.14-.14-.36 0-.5s.36-.14.5 0l1.2 1.21ZM23.3 22.77v6.35l1.2-1.2a.35.35 0 0 1 .5 0c.14.14.14.36 0 .5l-1.81 1.81a.35.35 0 0 1-.5 0l-1.81-1.81a.35.35 0 0 1 0-.5.35.35 0 0 1 .5 0l1.2 1.2v-6.35c0-.2.16-.35.36-.35s.35.16.35.35ZM7.05 11.51v17.61l1.2-1.2a.35.35 0 0 1 .5 0c.14.14.14.36 0 .5l-1.81 1.81a.35.35 0 0 1-.5 0l-1.81-1.81a.35.35 0 0 1 0-.5.35.35 0 0 1 .5 0l1.2 1.2V11.51A2.57 2.57 0 0 1 8.9 8.94h7.85c.2 0 .35.16.35.35s-.16.35-.35.35H8.9c-1.03 0-1.86.83-1.86 1.86Zm24.9 9.13h-2.7v-3.05c0-.2-.16-.35-.35-.35s-.36.16-.36.35v3.05H17.37v-3.05c0-.2-.16-.35-.36-.35s-.35.16-.35.35v3.05h-2.7v-4.82c.06-1.52 1-2.74 2.39-3.09l5.1-1.31-.37 5.7c0 .07.01.14.05.2l1.52 2.56a.356.356 0 0 0 .61 0l1.52-2.56c.04-.06.05-.13.05-.2l-.37-5.7 5.1 1.31c1.39.36 2.33 1.57 2.39 3.09v4.82Zm-7.84-3.59L22.95 19l-1.16-1.95.37-5.81c.25-.05.51-.07.77-.07h.04c.26 0 .51.03.77.07l.37 5.81ZM19.49 4.72c-.01-1.15.33-2.12 1.01-2.8.65-.63 1.52-.98 2.42-.97h.07c.9 0 1.77.34 2.41.97.68.68 1.02 1.64 1.01 2.8-.03 2.4-.96 5.15-3.46 5.73-2.5-.57-3.43-3.32-3.46-5.73Zm13.17 16.27V15.8c-.07-1.86-1.22-3.33-2.93-3.77l-5.38-1.38c1.97-1.14 2.74-3.67 2.76-5.92.02-1.35-.4-2.49-1.22-3.31A4.166 4.166 0 0 0 22.94.24h-.04c-1.09 0-2.14.41-2.92 1.18-.81.82-1.23 1.96-1.22 3.31.03 2.25.79 4.78 2.77 5.92l-5.38 1.38c-1.71.44-2.86 1.92-2.93 3.76v5.2c0 .2.16.35.35.35h18.71c.2 0 .36-.16.36-.35ZM21.82 39.07l-.23 3.62c0 .07.01.14.05.2l1.01 1.7a.356.356 0 0 0 .61 0l1.01-1.7c.04-.06.05-.13.05-.2l-.23-3.62 3.22.83c.87.22 1.46.99 1.5 1.94v3.08h-1.56v-1.9c0-.2-.16-.35-.35-.35s-.36.16-.36.35v1.9h-7.17v-1.9c0-.2-.16-.35-.36-.35s-.35.16-.35.35v1.9H17.1v-3.08c.04-.95.62-1.71 1.5-1.94l3.22-.83Zm1.78 3.55-.65 1.09-.65-1.09.24-3.72c.13-.02.27-.03.4-.03h.02c.13 0 .27.01.4.03l.24 3.72Zm-2.83-8.15c0-.73.21-1.35.64-1.77.41-.4.96-.61 1.52-.61h.02c.57-.01 1.13.21 1.54.61.42.43.64 1.04.63 1.77 0 .75-.19 3.2-2.17 3.68-1.98-.47-2.17-2.93-2.18-3.68Zm-4.38 7.34v3.45c0 .2.16.35.35.35h12.41c.19 0 .35-.16.35-.35v-3.44c-.05-1.29-.84-2.31-2.03-2.62l-3.3-.85c1.18-.84 1.64-2.44 1.66-3.88.01-.93-.28-1.72-.84-2.28a2.967 2.967 0 0 0-4.09 0c-.56.56-.85 1.35-.84 2.28.02 1.44.48 3.04 1.66 3.88l-3.3.85c-1.19.31-1.98 1.33-2.03 2.61Zm28.54 3.1h-1.56v-1.9c0-.2-.16-.35-.35-.35s-.35.16-.35.35v1.9H35.5v-1.9c0-.2-.16-.35-.35-.35s-.35.16-.35.35v1.9h-1.56v-3.08c.04-.95.62-1.71 1.5-1.94l3.22-.83-.23 3.62c0 .07.01.14.05.2l1.01 1.7a.356.356 0 0 0 .61 0l1.01-1.7c.04-.06.05-.13.05-.2l-.23-3.62 3.22.83c.87.22 1.46.99 1.5 1.94v3.08Zm-5.2-2.29-.65 1.09-.65-1.09.24-3.72c.13-.02.26-.03.4-.03h.01c.13 0 .27.01.4.03l.24 3.72Zm-2.82-8.15c0-.73.21-1.35.63-1.77.41-.39.96-.61 1.52-.61h.04c.57 0 1.11.21 1.51.61.43.43.64 1.04.63 1.77 0 .75-.19 3.2-2.18 3.68-1.98-.47-2.17-2.93-2.17-3.68Zm6.7 4.74-3.3-.85c1.18-.84 1.64-2.44 1.66-3.88.01-.93-.28-1.72-.84-2.28a2.967 2.967 0 0 0-4.09 0c-.56.56-.85 1.35-.84 2.28.02 1.44.48 3.04 1.66 3.88l-3.3.85c-1.18.3-1.98 1.33-2.03 2.61v3.45c0 .2.16.35.36.35H45.3c.2 0 .35-.16.35-.35v-3.44c-.05-1.29-.84-2.31-2.03-2.62ZM.96 41.84c.04-.95.62-1.71 1.5-1.94l3.22-.83-.23 3.62c0 .07.01.14.05.2l1.01 1.7a.356.356 0 0 0 .61 0l1.01-1.7c.04-.06.05-.13.05-.2l-.23-3.62 3.22.83c.87.22 1.46.99 1.5 1.94v3.08h-1.56v-1.9c0-.2-.16-.35-.36-.35s-.35.16-.35.35v1.9H3.22v-1.9c0-.2-.16-.35-.35-.35s-.36.16-.36.35v1.9H.96v-3.08Zm6.5.79-.65 1.09-.65-1.09.24-3.72c.13-.02.27-.03.4-.03h.02c.13 0 .27.01.4.03l.24 3.72Zm-2.82-8.15c0-.73.21-1.35.63-1.77.41-.4.95-.61 1.52-.61h.02c.57-.01 1.13.21 1.54.61.42.43.64 1.04.63 1.77 0 .75-.19 3.2-2.18 3.68-1.98-.47-2.17-2.93-2.18-3.68ZM.61 45.63h12.41c.2 0 .36-.16.36-.35v-3.44c-.05-1.29-.84-2.31-2.03-2.62l-3.3-.85c1.18-.84 1.64-2.44 1.66-3.88.01-.93-.28-1.72-.84-2.28-.54-.53-1.28-.83-2.04-.81-.76-.01-1.5.28-2.05.81-.56.56-.85 1.35-.84 2.28.02 1.44.48 3.04 1.66 3.88l-3.3.85c-1.19.31-1.98 1.33-2.03 2.61H.25v3.45c0 .2.16.35.36.35Z" style="fill:none;stroke:#fff;stroke-miterlimit:10;stroke-width:.5px"/></g></svg>