<svg id="Layer_2" data-name="Layer 2" xmlns="http://www.w3.org/2000/svg" viewBox="0 0 176.37 296.46"><defs><style>.cls-1{fill:#001f59}.cls-2{fill:#fff}.cls-3{fill:none;stroke:#001f59;stroke-linecap:round;stroke-linejoin:round;stroke-width:.67px}.cls-4{fill:#007dd9}.cls-5{fill:#00abfa}.cls-7{fill:#8cdbff}</style></defs><g id="Layer_1-2" data-name="Layer 1"><path class="cls-2" d="M89.79 110.5c30.51 0 55.25-24.74 55.25-55.25S120.31 0 89.79 0 34.54 24.74 34.54 55.25s24.74 55.25 55.25 55.25"/><path class="cls-5" d="M125.92 47.88h50.45v33.49h-50.45z"/><path class="cls-4" d="M125.92 78.01h50.45v3.36h-50.45z"/><path class="cls-7" d="M125.92 50.81h50.45v2.82h-50.45z"/><path class="cls-4" d="M134.4 16.93c-.67.04-1.3.19-1.88.45-2.37 1.05-4.88 1.76-7.48 1.76h-23.3c-2.59 0-5.1-.71-7.48-1.76-.58-.26-1.22-.42-1.88-.45-2.99-.16-5.62 2.3-5.66 5.29a5.38 5.38 0 0 0 5.38 5.46c.89 0 1.74-.22 2.48-.61 2.24-1.17 4.79-1.61 7.31-1.61h23.03c2.52 0 5.07.44 7.31 1.61.74.39 1.58.61 2.48.61 3 0 5.42-2.45 5.38-5.46-.04-2.99-2.68-5.45-5.66-5.29"/><path class="cls-5" d="M118.76 14.82c0-2.99-2.45-5.41-5.45-5.37-2.99.04-5.44 2.67-5.28 5.66.07 1.42.71 2.7 1.68 3.61.33.31.52.75.52 1.21v1.38c0 1.71 1.28 3.24 2.98 3.33 1.82.09 3.32-1.35 3.32-3.15v-1.56c0-.45.18-.89.51-1.2 1.04-.98 1.7-2.37 1.7-3.91"/><path class="cls-3" d="M117.84 17.82a5.356 5.356 0 0 1-4.45 2.37"/><path class="cls-4" d="M110.24 25.46h6.31V43.6h-6.31z"/><path class="cls-1" d="M116.54 25.46v3.64c-.81-.42-1.92-.66-3.15-.66s-2.34.24-3.16.66v-3.64c.82-.42 1.92-.66 3.16-.66s2.34.24 3.15.66"/><path class="cls-5" d="M99.9 44.7v-4.95c0-.89.52-1.69 1.33-2.04 3.32-1.41 7.53-2.21 12.17-2.21s8.83.81 12.14 2.21c.81.35 1.33 1.15 1.33 2.04v4.95H99.89Z"/><path class="cls-4" d="M113.39 42.45c-20.05 0-24.78 10.14-24.78 22.65s4.73 22.65 24.78 22.65 24.78-10.14 24.78-22.65-4.73-22.65-24.78-22.65"/><path class="cls-7" d="M114.78 46.88c.35-.14.79-.14 1.14-.17 2.91-.24 5.89-.12 8.7.71 3.62 1.06 6.88 3.62 7.62 7.49.15.76-.35 1.48-1.1 1.63-1.01.19-1.56-.81-2.13-1.46-2.03-2.32-4.8-3.87-7.69-4.87-2.17-.75-4.42-1.19-6.62-1.81h-.02c-.48-.13-.63-.63-.42-1.05.11-.23.3-.37.52-.46"/><path class="cls-3" d="M133.07 81.37c3.87-4.12 5.1-9.88 5.1-16.27 0-1.93-.11-3.8-.38-5.58"/><path class="cls-5" d="M99.17 50.69c-.93-1.65-2.53-2.81-4.43-2.81h-4.38c-20.95 0-37.94 16.98-37.94 37.94v25.46h33.49V85.82c0-2.46 1.99-4.45 4.45-4.45h4.38c1.9 0 3.5-1.16 4.43-2.81 1.93-3.43 3.01-8.75 3.01-13.93s-1.08-10.5-3.01-13.93"/><path class="cls-4" d="M99.45 78.01c-.09.19-.18.37-.28.54-.93 1.65-2.53 2.81-4.43 2.81h-4.39c-2.45 0-4.45 1.99-4.45 4.45v25.45h-3.36V85.57c0-4.17 3.39-7.56 7.57-7.56h9.33Z"/><path class="cls-7" d="M58.75 76.31c1.43-4.75 3.95-9.16 7.31-12.8 3.35-3.65 7.53-6.54 12.14-8.37.21-.08.45.02.53.23.07.17.01.37-.13.48l-.09.07c-3.1 2.36-6.03 4.73-8.46 7.81-3.24 4.1-5.53 8.83-6.81 13.94a2.341 2.341 0 0 1-2.85 1.7 2.341 2.341 0 0 1-1.7-2.85c0-.03.02-.06.03-.1l.03-.11Z"/><path class="cls-3" d="M93.53 81.37h1.21c1.9 0 3.5-1.16 4.43-2.81 1.93-3.43 3.01-8.75 3.01-13.93 0-2.06-.17-4.14-.5-6.12"/><path class="cls-4" d="M69.16 101.68c-4.11 0-8.01.27-10.98.76-2.36.39-7.88 1.3-7.88 5.96s5.52 5.57 7.88 5.96c2.97.49 6.87.76 10.98.76s8.01-.27 10.98-.76c2.36-.39 7.88-1.3 7.88-5.96s-5.52-5.57-7.88-5.96c-2.97-.49-6.87-.76-10.98-.76"/><path class="cls-1" d="M69.16 108.88c-8.03 0-14.53 1.07-14.53 2.39s6.51 2.39 14.53 2.39 14.53-1.07 14.53-2.39-6.51-2.39-14.53-2.39"/><path class="cls-3" d="M52.42 104.38c1.81-1.29 4.35-1.71 5.76-1.94 1.49-.24 3.2-.43 5.06-.56 1.86-.13 3.86-.19 5.91-.19 4.11 0 8.01.27 10.98.76 1.41.24 3.94.65 5.76 1.94"/><path class="cls-7" d="M50.3 158.2c4.89-7.38 7.5-16.03 7.5-24.88v-23.55c2.66-.55 6.76-.9 11.35-.9s8.69.35 11.35.9v23.55c0 8.85 2.61 17.5 7.5 24.88H50.29Z"/><path class="cls-5" d="M88.02 158.2h-2.98c-4.9-7.38-7.5-16.03-7.5-24.88v-24.01c1.12.13 2.13.29 2.98.46v23.54c0 8.85 2.61 17.51 7.5 24.88"/><path class="cls-2" d="M64.48 109.01v24.31c0 8.86-2.53 17.45-7.31 24.88h-2.38c.5-.75 1.3-2.04 1.69-2.71 3.93-6.72 6-14.34 6-22.18v-24.17c.64-.05 1.31-.1 2.01-.14"/><path class="cls-7" d="M69.51 132.73S0 180.99 0 229.98c0 36.71 31.12 66.48 69.51 66.48s69.51-29.76 69.51-66.48c0-49-69.51-97.26-69.51-97.26"/><path d="m19.46 242.93.12 1.21c.3-.44.68-.78 1.15-1.02.46-.24 1-.36 1.62-.36s1.14.14 1.58.43c.44.28.77.71.99 1.28.29-.52.67-.94 1.15-1.24.48-.31 1.03-.46 1.67-.46.94 0 1.68.32 2.22.97.55.65.82 1.62.82 2.91v5.52H29.1v-5.53c0-.91-.16-1.55-.47-1.93-.31-.38-.78-.57-1.4-.57-.57 0-1.04.2-1.39.6-.36.4-.56.9-.63 1.51v5.92h-1.69v-5.53c0-.86-.16-1.5-.48-1.9-.32-.4-.78-.6-1.38-.6-.51 0-.93.11-1.26.32-.33.21-.58.51-.76.89v6.83h-1.68v-9.22h1.5Zm15.85 2.24h1.47c.75 0 1.27-.19 1.58-.56s.46-.89.46-1.56c0-.71-.18-1.25-.53-1.62s-.87-.55-1.56-.55-1.18.19-1.57.58c-.39.38-.59.89-.59 1.53h-1.61l-.02-.05c-.03-.94.31-1.73 1.02-2.39.71-.66 1.63-.98 2.78-.98s2.06.31 2.75.92c.68.61 1.02 1.48 1.02 2.61 0 .51-.15 1.02-.46 1.53-.31.51-.78.9-1.39 1.16.75.24 1.27.63 1.58 1.15.31.52.46 1.11.46 1.76 0 1.13-.37 2.02-1.11 2.67-.74.65-1.69.97-2.84.97s-2.07-.3-2.81-.92c-.74-.61-1.1-1.44-1.07-2.49l.03-.05h1.6c0 .65.2 1.17.6 1.55.4.38.95.58 1.65.58s1.27-.19 1.67-.58.61-.95.61-1.71-.18-1.33-.54-1.69c-.36-.36-.92-.54-1.7-.54h-1.47v-1.32Zm8.09 8.04h-1.43l5.18-13.48h1.42l-5.17 13.48Zm14.75-5.32c0 1.33-.32 2.4-.96 3.22s-1.51 1.22-2.63 1.22c-.57 0-1.07-.09-1.5-.29-.43-.19-.79-.48-1.1-.86v4.51h-1.68v-12.77h1.29l.26 1.19c.3-.44.68-.78 1.12-1.01.45-.23.97-.35 1.57-.35 1.14 0 2.03.45 2.66 1.36.63.91.95 2.1.95 3.59v.18Zm-1.68-.18c0-1.04-.21-1.9-.62-2.58s-1.02-1.01-1.82-1.01c-.48 0-.9.11-1.24.33-.34.22-.62.52-.83.9v4.45c.21.38.49.68.83.89s.76.32 1.25.32c.8 0 1.4-.29 1.81-.87.41-.58.61-1.33.61-2.25v-.18Zm7.57 4.62c-1.28 0-2.31-.43-3.06-1.28-.76-.86-1.14-1.97-1.14-3.33v-.38c0-1.31.39-2.41 1.17-3.28.78-.87 1.71-1.31 2.77-1.31 1.24 0 2.19.38 2.82 1.12.64.75.96 1.75.96 3v1.05h-5.98l-.03.04c.02.88.24 1.61.67 2.18.43.57 1.04.85 1.82.85.57 0 1.07-.08 1.5-.24.43-.16.8-.38 1.11-.67l.66 1.09c-.33.33-.76.6-1.3.81-.54.22-1.19.33-1.96.33Zm-.26-8.25c-.56 0-1.04.24-1.44.71-.4.47-.64 1.07-.73 1.78l.02.04h4.25v-.22c0-.66-.18-1.21-.53-1.65-.35-.44-.88-.66-1.57-.66Zm10.03.33-.86-.05c-.44 0-.82.11-1.12.32-.3.21-.54.51-.7.89v6.59h-1.68v-9.22h1.5l.16 1.35c.26-.48.58-.85.97-1.12.38-.27.83-.4 1.33-.4.12 0 .24 0 .36.03.11.02.21.04.28.06l-.23 1.56Zm6.99 5.28c0-.37-.14-.67-.42-.91-.28-.24-.81-.45-1.6-.62-1.12-.24-1.96-.58-2.53-.99s-.85-.99-.85-1.71.32-1.39.96-1.92c.64-.53 1.47-.79 2.49-.79 1.07 0 1.93.28 2.56.83.63.55.94 1.22.91 2.01l-.02.05h-1.6c0-.4-.17-.77-.51-1.09-.34-.32-.79-.48-1.34-.48-.6 0-1.04.13-1.33.39s-.43.58-.43.95.13.65.38.86c.26.21.78.4 1.56.56 1.17.25 2.03.59 2.6 1.02.57.43.85 1 .85 1.73 0 .82-.33 1.48-.99 1.99s-1.53.76-2.6.76c-1.18 0-2.1-.3-2.78-.89-.68-.6-1-1.29-.96-2.09l.02-.05h1.6c.03.59.25 1.03.67 1.3s.9.41 1.46.41c.6 0 1.06-.12 1.4-.36.34-.24.51-.56.51-.95Zm3.37-2.24c0-1.36.37-2.49 1.11-3.37.74-.88 1.74-1.33 3.01-1.33s2.29.44 3.03 1.32c.74.88 1.11 2.01 1.11 3.38v.19c0 1.38-.37 2.5-1.11 3.38-.74.88-1.75 1.31-3.02 1.31s-2.28-.44-3.02-1.32c-.74-.88-1.11-2-1.11-3.37v-.19Zm1.68.18c0 .98.21 1.78.62 2.42s1.02.95 1.84.95 1.41-.32 1.82-.95c.41-.64.62-1.44.62-2.42v-.19c0-.96-.21-1.77-.63-2.41-.42-.64-1.03-.96-1.84-.96s-1.41.32-1.82.96c-.41.64-.62 1.45-.62 2.41v.19Zm10.14-4.7.12 1.37c.31-.49.69-.87 1.16-1.14.46-.27.99-.41 1.58-.41.99 0 1.76.29 2.31.87.54.58.82 1.48.82 2.7v5.82h-1.68v-5.79c0-.81-.16-1.39-.48-1.73-.32-.34-.81-.51-1.47-.51-.48 0-.91.12-1.28.35-.37.23-.67.55-.89.95v6.73H94.5v-9.22H96Zm14.09 9.22c-.06-.28-.1-.52-.13-.74s-.05-.43-.06-.64c-.31.44-.72.81-1.22 1.11s-1.04.45-1.62.45c-.96 0-1.69-.25-2.2-.74-.5-.49-.75-1.17-.75-2.03s.36-1.57 1.07-2.07c.71-.5 1.68-.75 2.9-.75h1.82v-.91c0-.54-.17-.97-.49-1.28-.33-.32-.8-.47-1.4-.47-.54 0-.98.14-1.32.41-.34.28-.51.61-.51.99h-1.6l-.02-.05c-.03-.67.28-1.28.95-1.84.67-.56 1.53-.84 2.59-.84s1.89.27 2.52.8c.64.53.96 1.3.96 2.3v4.44c0 .33.02.65.05.96.03.31.1.61.19.9h-1.73Zm-2.79-1.24c.61 0 1.16-.16 1.65-.47.49-.31.81-.67.95-1.07v-1.5h-1.88c-.68 0-1.22.17-1.62.51s-.61.74-.61 1.2c0 .41.13.73.38.97.26.24.63.36 1.13.36Zm18.24-5.78h-7.11v-1.42h7.11v1.42Zm0 3.56h-7.11v-1.42h7.11v1.42Zm-83.36-37.21c0 5.02-1.15 8.83-3.46 11.43-2.3 2.6-5.42 3.9-9.34 3.9s-7.1-1.3-9.41-3.9c-2.31-2.6-3.47-6.41-3.47-11.43v-8.37c0-5 1.15-8.81 3.45-11.43 2.3-2.62 5.43-3.92 9.37-3.92s7.05 1.31 9.37 3.92c2.32 2.62 3.48 6.43 3.48 11.43v8.37Zm-7.59-9.16c0-3-.45-5.2-1.36-6.6-.9-1.4-2.21-2.1-3.91-2.1s-3.02.69-3.91 2.08-1.33 3.59-1.33 6.62v9.87c0 3.06.45 5.28 1.34 6.67.89 1.39 2.21 2.08 3.95 2.08s3-.69 3.88-2.08c.89-1.39 1.33-3.61 1.33-6.67v-9.87Zm20.94 23.6-4.14 8.21H46.3l1.83-8.45v-5.94h7.4v6.18Zm20.72-38.16c1.43 0 2.74.13 3.95.4s2.42.67 3.64 1.19l-1.36 5.58c-1.15-.4-2.17-.7-3.06-.9-.9-.2-1.93-.3-3.12-.3-2.31 0-4.17.86-5.57 2.59-1.4 1.73-2.05 4.12-1.94 7.18l.08.13c.85-.89 1.93-1.58 3.23-2.09 1.3-.5 2.77-.76 4.41-.76 3.39 0 6.04 1.2 7.96 3.61s2.88 5.48 2.88 9.21-1.19 6.98-3.56 9.46c-2.37 2.48-5.44 3.73-9.21 3.73-4.01 0-7.28-1.36-9.8-4.08s-3.78-6.49-3.78-11.3v-7.4c0-4.97 1.43-8.92 4.3-11.86 2.87-2.94 6.52-4.41 10.95-4.41Zm-1.75 18.79c-1.41 0-2.61.23-3.6.68-.99.45-1.75 1.07-2.29 1.85v2.52c0 3 .54 5.31 1.63 6.92s2.53 2.42 4.34 2.42c1.56 0 2.82-.72 3.77-2.15.95-1.43 1.42-3.16 1.42-5.19s-.48-3.8-1.43-5.1c-.96-1.3-2.23-1.95-3.83-1.95Zm24.82-2.5h4.27c1.81 0 3.15-.47 4.01-1.42.87-.95 1.3-2.26 1.3-3.95 0-1.53-.43-2.75-1.3-3.67-.87-.92-2.13-1.38-3.78-1.38-1.42 0-2.62.42-3.6 1.25-.97.83-1.46 1.93-1.46 3.28h-7.38l-.05-.16c-.11-2.97 1.03-5.42 3.41-7.35s5.33-2.89 8.86-2.89c3.93 0 7.06.94 9.4 2.82s3.51 4.55 3.51 8.03c0 1.65-.52 3.22-1.56 4.71-1.04 1.49-2.48 2.65-4.3 3.48 2.1.75 3.71 1.89 4.81 3.44 1.1 1.55 1.65 3.35 1.65 5.4 0 3.48-1.26 6.21-3.79 8.2-2.53 1.99-5.76 2.99-9.71 2.99-3.53 0-6.56-.93-9.08-2.8-2.53-1.87-3.75-4.5-3.66-7.91l.05-.16h7.38c0 1.45.52 2.65 1.56 3.59s2.36 1.41 3.96 1.41c1.75 0 3.14-.49 4.16-1.46s1.53-2.29 1.53-3.95c0-1.99-.5-3.46-1.5-4.38-1-.93-2.47-1.39-4.42-1.39h-4.27v-5.71Z" style="fill:#2566af"/></g></svg>