<svg id="Layer_2" data-name="Layer 2" xmlns="http://www.w3.org/2000/svg" viewBox="0 0 227.26 227.26"><defs><style>.cls-1{fill:#1e6f41}</style></defs><g id="Layer_1-2" data-name="Layer 1"><circle cx="113.63" cy="113.63" r="113.08" transform="rotate(-45 113.629 113.634)" style="fill:none;stroke:#fff;stroke-width:1.1px"/><path class="cls-1" d="M60.18 151.91h-5.99l-1.16 3.68h-3.46l5.87-17.06h3.5l5.85 17.06h-3.46l-1.16-3.68Zm-5.14-2.68h4.3l-2.11-6.7h-.07l-2.12 6.7Zm22.67.37c0 1.88-.43 3.38-1.3 4.52s-2.08 1.71-3.63 1.71c-.66 0-1.25-.12-1.77-.37s-.96-.61-1.32-1.08v6.08h-3.41v-17.55h3.08l.2 1.5c.38-.55.83-.98 1.35-1.28s1.14-.45 1.85-.45c1.57 0 2.79.61 3.66 1.84s1.3 2.84 1.3 4.84v.25Zm-3.42-.26c0-1.2-.2-2.17-.6-2.91-.4-.74-1.01-1.12-1.83-1.12-.52 0-.96.11-1.32.32-.36.21-.65.51-.86.9v5.56c.21.36.5.63.86.82.36.19.81.28 1.34.28.83 0 1.44-.32 1.82-.97.39-.65.58-1.53.58-2.64v-.25Zm4.98-.21c0-1.89.53-3.44 1.58-4.65s2.52-1.81 4.38-1.81 3.34.6 4.41 1.8 1.59 2.75 1.59 4.65v.25c0 1.91-.53 3.46-1.59 4.66s-2.52 1.8-4.39 1.8-3.34-.6-4.4-1.8-1.59-2.75-1.59-4.66v-.25Zm3.41.24c0 1.15.2 2.08.61 2.78.41.7 1.06 1.05 1.97 1.05s1.53-.35 1.94-1.05c.41-.7.62-1.63.62-2.77v-.25c0-1.12-.21-2.04-.62-2.75-.41-.71-1.07-1.06-1.96-1.06s-1.53.36-1.94 1.07c-.41.71-.62 1.63-.62 2.74v.25Zm17.26-3.52-1.25-.04c-.51 0-.93.11-1.25.32s-.58.51-.75.89v8.57h-3.41v-12.68h3.18l.15 1.88c.3-.66.68-1.18 1.15-1.55s1.02-.56 1.63-.56c.17 0 .33.01.47.04s.29.06.44.1l-.36 3.04Zm6.42-6.04v3.11h2.13v2.4h-2.13v6.46c0 .49.1.84.3 1.05s.48.32.82.32c.18 0 .33 0 .46-.03s.28-.05.45-.1l.29 2.47c-.34.12-.68.21-1.01.26s-.68.09-1.07.09c-1.18 0-2.09-.32-2.72-.97s-.96-1.68-.96-3.08v-6.47h-1.85v-2.4h1.85v-3.11h3.42Zm9.38 16.03c-1.83 0-3.29-.59-4.38-1.76s-1.64-2.66-1.64-4.46v-.47c0-1.88.52-3.43 1.55-4.65s2.42-1.82 4.17-1.82c1.71 0 3.04.52 3.98 1.55s1.42 2.43 1.42 4.18v1.86h-7.57l-.02.07c.06.83.34 1.52.84 2.05.5.54 1.17.8 2.02.8.76 0 1.39-.08 1.89-.23s1.05-.39 1.64-.72l.93 2.11c-.52.42-1.19.78-2.03 1.05-.84.28-1.77.42-2.79.42Zm-.3-10.52c-.63 0-1.13.24-1.5.73s-.59 1.12-.68 1.91l.04.06h4.2v-.3c0-.73-.17-1.31-.51-1.74s-.85-.65-1.54-.65Zm14.15 6.78c0-.38-.18-.7-.54-.97s-1.04-.52-2.02-.73c-1.5-.3-2.63-.76-3.39-1.35s-1.14-1.41-1.14-2.44c0-1.09.46-2.02 1.38-2.78s2.15-1.14 3.69-1.14c1.62 0 2.9.38 3.86 1.14s1.42 1.71 1.38 2.87l-.02.07h-3.3c0-.51-.16-.92-.49-1.24s-.8-.48-1.42-.48c-.55 0-.99.13-1.31.4s-.47.61-.47 1.01.17.71.5.96 1.01.47 2.02.67c1.56.31 2.72.77 3.48 1.38s1.14 1.44 1.14 2.5c0 1.14-.49 2.07-1.46 2.79s-2.27 1.08-3.87 1.08c-1.69 0-3.02-.43-4-1.28s-1.45-1.83-1.4-2.92l.02-.07h3.13c.02.68.25 1.17.67 1.48s.97.46 1.65.46c.63 0 1.12-.12 1.45-.38s.5-.59.5-1.02Zm18.94 3.49c-.12-.29-.23-.59-.32-.91s-.15-.65-.19-.98c-.35.62-.81 1.13-1.39 1.54s-1.26.61-2.06.61c-1.33 0-2.35-.34-3.07-1.03s-1.08-1.62-1.08-2.79c0-1.24.48-2.21 1.44-2.89s2.35-1.03 4.19-1.03h1.91v-1.01c0-.61-.16-1.08-.48-1.42s-.79-.5-1.42-.5c-.55 0-.98.13-1.28.4s-.45.64-.45 1.12h-3.3l-.01-.08c-.05-1.07.41-1.99 1.39-2.77s2.28-1.17 3.88-1.17c1.52 0 2.75.38 3.69 1.15s1.42 1.87 1.42 3.29v5.24c0 .59.04 1.15.13 1.68s.23 1.04.43 1.56h-3.42Zm-3.13-2.29c.6 0 1.14-.15 1.61-.45s.79-.64.95-1.03v-1.79h-1.91c-.73 0-1.28.18-1.65.54s-.56.8-.56 1.32c0 .42.14.76.42 1.02s.66.39 1.15.39Zm18.15 2.29h-3.42v-18.28h3.42v18.28Zm10.16 0c-.12-.29-.23-.59-.32-.91s-.15-.65-.19-.98c-.35.62-.81 1.13-1.39 1.54s-1.26.61-2.06.61c-1.33 0-2.35-.34-3.07-1.03s-1.08-1.62-1.08-2.79c0-1.24.48-2.21 1.44-2.89s2.35-1.03 4.19-1.03h1.91v-1.01c0-.61-.16-1.08-.48-1.42s-.79-.5-1.42-.5c-.55 0-.98.13-1.28.4s-.45.64-.45 1.12h-3.3l-.01-.08c-.05-1.07.41-1.99 1.39-2.77s2.28-1.17 3.88-1.17c1.52 0 2.75.38 3.69 1.15s1.42 1.87 1.42 3.29v5.24c0 .59.04 1.15.13 1.68s.23 1.04.43 1.56h-3.42Zm-3.13-2.29c.6 0 1.14-.15 1.61-.45s.79-.64.95-1.03v-1.79h-1.91c-.73 0-1.28.18-1.65.54s-.56.8-.56 1.32c0 .42.14.76.42 1.02s.66.39 1.15.39ZM54.31 179.6c0 1.89-.42 3.4-1.27 4.54s-2.06 1.7-3.66 1.7c-.73 0-1.38-.15-1.93-.46s-1.02-.76-1.4-1.35l-.26 1.57h-2.93v-18.28h3.41v6.95c.37-.51.81-.9 1.32-1.17s1.1-.41 1.76-.41c1.61 0 2.84.61 3.68 1.82s1.27 2.83 1.27 4.86v.25Zm-3.41-.25c0-1.24-.18-2.23-.54-2.95-.36-.73-.98-1.09-1.86-1.09-.53 0-.98.11-1.35.34-.37.22-.66.54-.87.96v5.4c.21.39.5.68.87.88.37.21.83.31 1.37.31.88 0 1.5-.31 1.85-.94s.53-1.51.53-2.66v-.25Zm9.04-9.47h-3.42v-2.57h3.42v2.57Zm0 15.71h-3.42v-12.68h3.42v12.68Zm2.15-6.46c0-1.89.53-3.44 1.58-4.65s2.52-1.81 4.38-1.81 3.34.6 4.41 1.8 1.59 2.75 1.59 4.65v.25c0 1.91-.53 3.46-1.59 4.66s-2.52 1.8-4.39 1.8-3.34-.6-4.4-1.8-1.59-2.75-1.59-4.66v-.25Zm3.41.24c0 1.15.2 2.08.61 2.78.41.7 1.06 1.05 1.97 1.05s1.53-.35 1.94-1.05c.41-.7.62-1.63.62-2.77v-.25c0-1.12-.21-2.04-.62-2.75-.41-.71-1.07-1.06-1.96-1.06s-1.53.36-1.94 1.07c-.41.71-.62 1.63-.62 2.74v.25Zm10.11-.01c0-2 .43-3.61 1.29-4.84s2.08-1.84 3.65-1.84c.63 0 1.2.14 1.71.41s.95.66 1.34 1.17v-6.95h3.43v18.28h-2.94l-.28-1.55c-.4.59-.87 1.03-1.41 1.34s-1.17.46-1.87.46c-1.55 0-2.76-.57-3.63-1.71s-1.29-2.65-1.29-4.52v-.25Zm3.41.25c0 1.12.19 1.99.56 2.63s.98.96 1.83.96c.49 0 .92-.1 1.29-.3.37-.2.67-.49.9-.88v-5.43c-.23-.4-.53-.71-.9-.94-.36-.22-.79-.34-1.27-.34-.84 0-1.45.37-1.83 1.12s-.58 1.72-.58 2.92v.25Zm14.12-9.73h-3.42v-2.57h3.42v2.57Zm0 15.71h-3.42v-12.68h3.42v12.68Zm7.25-4.72.22 1.17h.07l.23-1.17 2.09-7.96h3.57l-4.31 12.68h-3.27l-4.31-12.68h3.57l2.13 7.96Zm12.71 4.97c-1.83 0-3.29-.59-4.38-1.76s-1.64-2.66-1.64-4.46v-.47c0-1.88.52-3.43 1.55-4.65s2.42-1.82 4.17-1.82c1.71 0 3.04.52 3.98 1.55s1.42 2.43 1.42 4.18v1.86h-7.57l-.02.07c.06.83.34 1.52.84 2.05.5.54 1.17.8 2.02.8.76 0 1.39-.08 1.89-.23s1.05-.39 1.64-.72l.93 2.11c-.52.42-1.19.78-2.03 1.05-.84.28-1.77.42-2.79.42Zm-.3-10.52c-.63 0-1.13.24-1.5.73s-.59 1.12-.68 1.91l.04.06h4.2v-.3c0-.73-.17-1.31-.51-1.74s-.85-.65-1.54-.65Zm14.13.53-1.25-.04c-.51 0-.93.11-1.25.32s-.58.51-.75.89v8.57h-3.41v-12.68h3.18l.15 1.88c.3-.66.68-1.18 1.15-1.55s1.02-.56 1.63-.56c.17 0 .33.01.47.04s.29.06.44.1l-.36 3.04Zm8.56 6.25c0-.38-.18-.7-.54-.97s-1.04-.52-2.02-.73c-1.5-.3-2.63-.76-3.39-1.35s-1.14-1.41-1.14-2.44c0-1.09.46-2.02 1.38-2.78s2.15-1.14 3.69-1.14c1.62 0 2.9.38 3.86 1.14s1.42 1.71 1.38 2.87l-.02.07h-3.3c0-.51-.16-.92-.49-1.24s-.8-.48-1.42-.48c-.55 0-.99.13-1.31.4s-.47.61-.47 1.01.17.71.5.96 1.01.47 2.02.67c1.56.31 2.72.77 3.48 1.38s1.14 1.44 1.14 2.5c0 1.14-.49 2.07-1.46 2.79s-2.27 1.08-3.87 1.08c-1.69 0-3.02-.43-4-1.28s-1.45-1.83-1.4-2.92l.02-.07h3.13c.02.68.25 1.17.67 1.48s.97.46 1.65.46c.63 0 1.12-.12 1.45-.38s.5-.59.5-1.02Zm8.98-12.22h-3.42v-2.57h3.42v2.57Zm0 15.71h-3.42v-12.68h3.42v12.68Zm2.24-6.23c0-2 .43-3.61 1.29-4.84s2.08-1.84 3.65-1.84c.63 0 1.2.14 1.71.41s.95.66 1.34 1.17v-6.95h3.43v18.28h-2.94l-.28-1.55c-.4.59-.87 1.03-1.41 1.34s-1.17.46-1.87.46c-1.55 0-2.76-.57-3.63-1.71s-1.29-2.65-1.29-4.52v-.25Zm3.41.25c0 1.12.19 1.99.56 2.63s.98.96 1.83.96c.49 0 .92-.1 1.29-.3.37-.2.67-.49.9-.88v-5.43c-.23-.4-.53-.71-.9-.94-.36-.22-.79-.34-1.27-.34-.84 0-1.45.37-1.83 1.12s-.58 1.72-.58 2.92v.25Zm18.05 5.98c-.12-.29-.23-.59-.32-.91s-.15-.65-.19-.98c-.35.62-.81 1.13-1.39 1.54s-1.26.61-2.06.61c-1.33 0-2.35-.34-3.07-1.03s-1.08-1.62-1.08-2.79c0-1.24.48-2.21 1.44-2.89s2.35-1.03 4.19-1.03h1.91v-1.01c0-.61-.16-1.08-.48-1.42s-.79-.5-1.42-.5c-.55 0-.98.13-1.28.4s-.45.64-.45 1.12h-3.3l-.01-.08c-.05-1.07.41-1.99 1.39-2.77s2.28-1.17 3.88-1.17c1.52 0 2.75.38 3.69 1.15s1.42 1.87 1.42 3.29v5.24c0 .59.04 1.15.13 1.68s.23 1.04.43 1.56h-3.42Zm-3.13-2.29c.6 0 1.14-.15 1.61-.45s.79-.64.95-1.03v-1.79h-1.91c-.73 0-1.28.18-1.65.54s-.56.8-.56 1.32c0 .42.14.76.42 1.02s.66.39 1.15.39Zm7.96-3.94c0-2 .43-3.61 1.29-4.84s2.08-1.84 3.65-1.84c.63 0 1.2.14 1.71.41s.95.66 1.34 1.17v-6.95h3.43v18.28h-2.94l-.28-1.55c-.4.59-.87 1.03-1.41 1.34s-1.17.46-1.87.46c-1.55 0-2.76-.57-3.63-1.71s-1.29-2.65-1.29-4.52v-.25Zm3.41.25c0 1.12.19 1.99.56 2.63s.98.96 1.83.96c.49 0 .92-.1 1.29-.3.37-.2.67-.49.9-.88v-5.43c-.23-.4-.53-.71-.9-.94-.36-.22-.79-.34-1.27-.34-.84 0-1.45.37-1.83 1.12s-.58 1.72-.58 2.92v.25ZM103.05 51.83c0-.77.03-1.54.1-2.3l8.72 8.72v4.41a10.6 10.6 0 0 1-8.82-10.43v-.39ZM105.84 40l.18-.35c.16-.32.28-.65.37-.99l5.48 5.48v9.12l-7.99-7.99c.46-1.82 1.12-3.59 1.96-5.27m.73-12.47c0-3.9 3.16-7.06 7.06-7.06s7.06 3.16 7.06 7.06v6.32l-5.29 5.29V27.52h-3.53v11.62l-5.29-5.29v-6.32Zm14.67 12.12.17.35c.84 1.68 1.5 3.45 1.96 5.27l-7.99 7.99v-9.12l5.48-5.48c.09.34.22.67.37.99m2.97 12.18v.39c0 5.16-3.73 9.57-8.82 10.43v-4.41l8.72-8.72c.07.77.1 1.53.1 2.3m-24.7.39c0 7.11 5.3 13.1 12.35 14v12.46h3.53V66.21c7.05-.9 12.34-6.89 12.35-14v-.39c0-4.66-1.09-9.24-3.17-13.41l-.18-.35c-.12-.24-.19-.52-.19-.79v-9.75c0-5.84-4.74-10.58-10.58-10.58s-10.58 4.74-10.58 10.58v9.75c0 .27-.06.54-.19.79l-.18.35a30.184 30.184 0 0 0-3.17 13.41v.39Zm42.59 20.05 1.4-3.5-3.28-1.31-1.4 3.51a8.856 8.856 0 0 0 3.3 10.61l.53.35 1.96-2.93-.53-.35a5.32 5.32 0 0 1-1.98-6.37m20.93-11.23h3.53v3.53h-3.53zm-12.35-12.35h3.53v3.53h-3.53z"/><path class="cls-1" transform="rotate(-45 161.244 53.99)" d="M158.75 52.23h4.99v3.53h-4.99z"/><path class="cls-1" transform="rotate(-45 161.237 71.623)" d="M159.48 69.13h3.53v4.99h-3.53z"/><path class="cls-1" d="m153.27 66.23-3.26-5.98a3.523 3.523 0 0 1 4.86 5.1c-.45.43-1 .73-1.6.88m-.83 8.92c0 .59-.06 1.18-.18 1.76h-5.12v3.53h3.52c-2.92 3.9-8.45 4.69-12.34 1.77a8.833 8.833 0 0 1-3.53-7.06v-.83c0-1.48.37-2.93 1.08-4.22l7.74-14.2 7.74 14.2c.71 1.3 1.08 2.75 1.08 4.22v.83Zm8.82 1.76h-5.42c.09-.58.13-1.17.13-1.76v-.83c0-1.69-.35-3.37-1.03-4.92a7.06 7.06 0 0 0 4.1-9.1 7.06 7.06 0 0 0-9.1-4.1c-.59.22-1.15.52-1.65.89l-1.57-2.88a3.535 3.535 0 0 0-4.79-1.41c-.59.32-1.08.81-1.41 1.41l-7.74 14.2c-.99 1.81-1.51 3.85-1.51 5.91v.83c0 6.82 5.53 12.35 12.35 12.35 4.77 0 9.11-2.75 11.16-7.06h6.49c.97 0 1.76.79 1.76 1.76s-.79 1.76-1.76 1.76h-3.53v3.53h3.53c2.92 0 5.29-2.37 5.29-5.29s-2.37-5.29-5.29-5.29m-36.33 15.45-3.42.86.81 3.23a3.12 3.12 0 0 1-1.65 3.58l1.58 3.16a6.641 6.641 0 0 0 3.49-7.6l-.81-3.23Zm-55.69-8.39c-.85 0-1.54-.69-1.54-1.54 0-.21.04-.42.12-.61l3.09-7.21 3.65.52.5-3.49-8.16-1.17a3.113 3.113 0 0 1-2.64-3.52c.14-.95.7-1.78 1.54-2.26l7.25-4.15v2.25h3.53v-5.08a7.54 7.54 0 0 1 4.57-6.94l.06.09a7.553 7.553 0 0 1 .73 6.99l-.77 1.92c-.84 2.1-.25 4.51 1.47 5.98l7.48 6.41c2.8 2.41 3.13 6.63.72 9.44a6.698 6.698 0 0 1-5.08 2.33h-.36a3.53 3.53 0 1 1 0-7.06h1.76v-3.53h-1.76c-3.9 0-7.05 3.16-7.06 7.05 0 .81.14 1.62.42 2.39l-.69.69c-.29.29-.68.45-1.09.45h-.34c-.85 0-1.54-.69-1.54-1.54 0-.24.06-.47.16-.69l1.14-2.27-3.16-1.58-2.61 5.23c-.26.52-.8.85-1.38.85m3.7 1.93c.96 1.02 2.29 1.6 3.69 1.6h.34c1.34 0 2.64-.53 3.58-1.48l.23-.23a7.023 7.023 0 0 0 4.61 1.72h12.35v-3.53h-4.27c3.7-4.25 3.26-10.69-.99-14.4a.435.435 0 0 0-.07-.06l-7.48-6.41c-.57-.49-.77-1.29-.49-1.99l.77-1.93c1.35-3.39.96-7.22-1.07-10.26l-1.5-2.25-1.21.3a11.073 11.073 0 0 0-8.32 9.47l-9.08 5.19a6.642 6.642 0 0 0 2.35 12.34l.9.13-2.72 6.34a5.074 5.074 0 0 0 8.36 5.47"/><path class="cls-1" d="M69.53 64.57h3.53v3.53h-3.53zm47.14 40.57c-1.03 0-2.04-.3-2.9-.86a5.289 5.289 0 0 0 2.24-5.72l-1.15-4.6c-.25-.99-.67-1.94-1.26-2.78a8.655 8.655 0 0 1 12.04-2.13 8.637 8.637 0 0 1 3.57 5.67l.71 4.25a5.296 5.296 0 0 1-4.35 6.09c-.29.05-.58.07-.87.07h-8.04Zm4.02 14.11c-.97 0-1.76-.79-1.76-1.76 0-2.2.27-4.39.8-6.52l.57-2.3h.77l.57 2.3c.53 2.13.8 4.32.8 6.52 0 .97-.79 1.76-1.76 1.76m-8.42-18.32c-.33.43-.85.68-1.39.68h-8.6c-.97 0-1.76-.79-1.76-1.76 0-.14.02-.29.05-.43l1.15-4.59a5.01 5.01 0 0 1 6.08-3.65c1.8.45 3.2 1.85 3.65 3.65l1.15 4.59c.13.53.01 1.09-.32 1.51m-3.93 16.55c0 .97-.79 1.76-1.76 1.76s-1.76-.79-1.76-1.76v-.67c0-2.96.29-5.91.87-8.81l.57-2.87h.64l.57 2.87c.58 2.9.87 5.85.87 8.81v.67Zm16.37-8.82c4.87 0 8.82-3.95 8.81-8.82 0-.48-.04-.97-.12-1.45l-.71-4.25c-1.11-6.63-7.38-11.11-14.01-10.01-3.05.51-5.79 2.15-7.66 4.61-4.03-2.45-9.29-1.17-11.74 2.86-.45.73-.78 1.53-.99 2.37l-1.15 4.6c-.71 2.83 1.02 5.71 3.85 6.42.42.1.85.16 1.28.16h.39l-.44 2.18c-.62 3.13-.94 6.31-.94 9.5v.67c0 2.92 2.37 5.29 5.29 5.29s5.29-2.37 5.29-5.29v-.67c0-3.19-.32-6.37-.94-9.5l-.19-.95a8.781 8.781 0 0 0 5.93 2.3l-.36 1.44c-.6 2.41-.91 4.89-.91 7.38 0 2.92 2.37 5.29 5.29 5.29s5.29-2.37 5.29-5.29c0-2.49-.3-4.96-.91-7.38l-.36-1.44Zm-24.65-80.77-1.09-3.36a47.951 47.951 0 0 0-24.25 17.85l2.88 2.04a44.427 44.427 0 0 1 22.46-16.53M74.5 90.21l-3.13 1.63a47.57 47.57 0 0 0 25.78 22.71l1.22-3.31A44.113 44.113 0 0 1 74.5 90.21"/><path class="cls-1" d="m128.9 111.25 1.22 3.31a47.649 47.649 0 0 0 25.78-22.71l-3.13-1.63a44.035 44.035 0 0 1-23.87 21.03m22.05-64.9 2.98-1.88a47.784 47.784 0 0 0-25.65-19.94l-1.08 3.36a44.24 44.24 0 0 1 23.75 18.46"/></g></svg>