<svg version="1.1" id="Layer_2_00000032646238731657376330000018327397941144243353_" xmlns="http://www.w3.org/2000/svg" x="0" y="0" viewBox="0 0 38 38" style="enable-background:new 0 0 38 38" xml:space="preserve"><style>.st0{fill:#112d6a}</style><path class="st0" d="M19 0C8.5 0 0 8.5 0 19s8.5 19 19 19 19-8.5 19-19S29.5 0 19 0m0 .9C29 .9 37 9 37 19s-8 18-18 18S.9 29 .9 19 9 .9 19 .9" id="Layer_1-2"/><path class="st0" d="m27.7 27.2-6.8-9.9-.8-1.1-4.9-7.1-.4-.6h-6l1.5 2.1 6.5 9.4.8 1.1 5.2 7.5.4.6h6l-1.5-2zm-3.8.8-5.4-7.8-.8-1.1-6.3-9.1h2.7l5.1 7.4.8 1.1 6.6 9.6h-2.7z"/><path class="st0" d="m17.7 19.1.8 1.1-.9 1-7 8.2H8.8l8-9.3zM28.4 8.6l-7.5 8.8-.9 1-.8-1.1.9-1 5.1-6 1.5-1.7z"/></svg>