<svg id="Layer_2" data-name="Layer 2" xmlns="http://www.w3.org/2000/svg" viewBox="0 0 37.97 37.95"><defs><style>.cls-1{fill:#112d6a}</style></defs><g id="Layer_1-2" data-name="Layer 1"><path class="cls-1" d="M19.01 0C8.53 0 0 8.52 0 18.97c0 8.8 6.26 16.61 14.89 18.55 1.3.29 2.69.43 4.12.43.56 0 1.14 0 1.7-.08 9.64-.78 17.26-9.08 17.26-18.9C37.97 8.52 29.46 0 19.01 0m0 .93c9.97 0 18.03 8.06 18.03 18.04 0 9.46-7.27 17.22-16.49 17.97-.51.09-1.03.09-1.54.09-1.35 0-2.66-.13-3.91-.42C6.99 34.8.93 27.57.93 18.97.93 8.99 9.04.93 19.01.93"/><path class="cls-1" d="M21.06 15.18c.28-.33.84-.56 1.63-.56.74 0 1.63.11 2.47.34l.7-3.79c-1.44-.51-2.93-.65-4.47-.65s-2.75.24-3.73.8c-.98.54-1.63 1.15-2 2.05-.38.8-.56 2.14-.56 3.82v1.49h-2.99v4.33h2.99v13.61c1.25.29 2.56.42 3.91.42.51 0 1.03 0 1.54-.09V23.02h3.96v-4.33h-3.96v-1.4c0-1.07.14-1.73.51-2.1"/></g></svg>