<svg id="Layer_2" data-name="Layer 2" xmlns="http://www.w3.org/2000/svg" viewBox="0 0 37.96 37.97"><defs><style>.cls-1{fill:#112d6a}</style></defs><g id="Layer_1-2" data-name="Layer 1"><path class="cls-1" d="M18.98 0C8.51 0 0 8.51 0 18.98s8.51 18.98 18.98 18.98 18.98-8.52 18.98-18.98S29.44 0 18.98 0m0 .92c9.98 0 18.06 8.1 18.06 18.06s-8.08 18.06-18.06 18.06S.93 28.96.93 18.98 9.01.92 18.98.92"/><path class="cls-1" d="M26.51 25.36c-.02.91-.25 1.16-1.16 1.16H12.59c-.89 0-1.14-.25-1.14-1.16 0-2.36 0-4.75-.03-7.12 0-.67.18-.82.81-.8.89.08.91.03.81.91-.34 3 1.74 5.94 4.71 6.52 3.06.58 6.13-1.25 6.97-4.19.25-.92.33-1.9.14-2.8-.07-.35.02-.4.32-.4 1.35-.11 1.35-.13 1.35 1.27v6.61ZM18.99 15.2c2.04 0 3.79 1.76 3.75 3.79-.02 2.09-1.75 3.8-3.82 3.77-2.05-.03-3.79-1.78-3.74-3.8.05-2.05 1.77-3.75 3.8-3.75m5.59-3.75q1.93 0 1.93 1.93t-1.9 1.89-1.92-1.92 1.89-1.9m1.58-2.21H11.79c-1.71 0-2.59.91-2.59 2.61v14.33c0 1.65.91 2.55 2.51 2.55h14.44c1.67 0 2.58-.9 2.58-2.57V11.8c0-1.64-.92-2.55-2.58-2.55"/></g></svg>