<svg id="Layer_2" data-name="Layer 2" xmlns="http://www.w3.org/2000/svg" viewBox="0 0 106.5 106.5"><defs><style>.cls-1{fill:#fff}</style></defs><g id="Layer_1-2" data-name="Layer 1"><path d="M53.25 106.5c29.41 0 53.25-23.84 53.25-53.25S82.66 0 53.25 0 0 23.84 0 53.25s23.84 53.25 53.25 53.25" style="fill:#112d6a"/><path class="cls-1" d="M81.51 48.67H78.3c-.24-1.28-.59-2.55-1.03-3.79l2.78-1.59c1.15-.66 1.55-2.12.89-3.26l-2.23-3.81c-.32-.55-.84-.95-1.47-1.11-.62-.16-1.28-.08-1.84.24l-2.79 1.59c-.86-1-1.81-1.93-2.82-2.78l1.61-2.75c.32-.55.41-1.19.24-1.81a2.43 2.43 0 0 0-1.12-1.45l-3.86-2.2c-.56-.32-1.21-.4-1.83-.24-.62.17-1.15.56-1.47 1.11l-1.61 2.75c-1.26-.44-2.55-.78-3.85-1.02v-3.17c0-1.31-1.09-2.38-2.42-2.38h-4.46c-1.33 0-2.42 1.07-2.42 2.38v3.17c-1.3.24-2.59.58-3.85 1.02l-1.61-2.75a2.433 2.433 0 0 0-3.3-.87l-3.86 2.2c-.56.32-.96.83-1.13 1.45-.17.62-.08 1.26.24 1.81l1.61 2.75c-1.01.85-1.95 1.78-2.82 2.78l-2.79-1.59c-.56-.32-1.21-.4-1.83-.24-.62.16-1.15.56-1.47 1.11l-2.23 3.81c-.67 1.14-.27 2.6.89 3.26l2.78 1.59c-.45 1.24-.79 2.51-1.03 3.79h-3.21c-1.33 0-2.42 1.07-2.42 2.39v4.4c0 1.32 1.08 2.38 2.42 2.38h3.21c.24 1.28.59 2.55 1.03 3.8l-2.78 1.59c-.56.32-.96.83-1.13 1.45-.17.62-.08 1.26.24 1.81l2.23 3.81c.32.55.84.95 1.47 1.11.62.17 1.28.08 1.84-.24l2.79-1.59c.86 1 1.8 1.93 2.82 2.78l-1.61 2.75c-.67 1.14-.27 2.6.89 3.26l3.86 2.2c1.15.66 2.64.26 3.3-.87l1.61-2.75c1.26.44 2.55.78 3.85 1.02v3.17c0 1.32 1.08 2.38 2.42 2.38h4.46c1.33 0 2.42-1.07 2.42-2.38v-2.72c0-.51-.42-.92-.93-.92s-.93.41-.93.92v2.72c0 .3-.25.55-.56.55h-4.46c-.31 0-.56-.25-.56-.55V77.2c0-.45-.34-.84-.79-.9-1.69-.25-3.37-.7-4.99-1.32-.42-.17-.91 0-1.14.4l-2 3.42c-.15.26-.5.35-.76.2l-3.86-2.2a.547.547 0 0 1-.21-.75l2-3.42c.23-.39.13-.89-.22-1.17a23.962 23.962 0 0 1-3.66-3.6.938.938 0 0 0-1.19-.22l-3.47 1.98a.56.56 0 0 1-.42.05.586.586 0 0 1-.34-.26l-2.23-3.81a.565.565 0 0 1-.06-.42c.04-.14.13-.26.26-.33l3.47-1.97c.4-.23.57-.7.4-1.13-.63-1.6-1.09-3.26-1.34-4.93a.926.926 0 0 0-.92-.78h-4c-.31 0-.56-.25-.56-.55v-4.4c0-.3.25-.55.56-.55h4c.46 0 .85-.33.92-.78.26-1.67.71-3.32 1.34-4.93.17-.42 0-.9-.4-1.13l-3.47-1.97a.536.536 0 0 1-.2-.75l2.23-3.81c.08-.13.2-.22.34-.26.15-.04.29-.02.42.05l3.47 1.98c.4.23.9.13 1.19-.22a23.58 23.58 0 0 1 3.66-3.61.9.9 0 0 0 .22-1.17l-2-3.42a.608.608 0 0 1-.06-.42c.04-.14.13-.26.26-.33l3.86-2.2c.27-.16.61-.06.76.2l2 3.42c.23.39.72.56 1.14.4 1.62-.62 3.3-1.07 4.99-1.33.45-.07.79-.45.79-.91v-3.94c0-.3.25-.55.56-.55h4.46c.31 0 .56.25.56.55v3.94c0 .45.34.84.79.91 1.69.26 3.37.7 4.99 1.33.43.16.91 0 1.14-.4l2-3.42a.53.53 0 0 1 .34-.26c.15-.04.29-.02.42.06l3.86 2.2c.13.07.22.19.26.33.04.14.02.29-.05.42l-2 3.42a.9.9 0 0 0 .22 1.17 23.58 23.58 0 0 1 3.66 3.61c.29.35.8.45 1.19.22l3.47-1.98c.13-.07.28-.1.42-.05.14.04.27.13.34.26l2.23 3.81c.15.26.06.6-.21.75l-3.47 1.97c-.4.23-.57.7-.4 1.13.63 1.6 1.09 3.26 1.34 4.93.07.45.46.78.92.78h4c.31 0 .56.25.56.55v4.4c0 .3-.25.55-.56.55h-2.76a.92.92 0 1 0 0 1.84h2.76c1.33 0 2.42-1.07 2.42-2.38v-4.4c0-1.32-1.09-2.39-2.42-2.39"/><path class="cls-1" d="M57.28 69.57c-1.29.31-2.64.49-4.03.49-5.36 0-10.15-2.46-13.27-6.29l8.08-5.72a7.147 7.147 0 0 0 5.19 2.23c1.63 0 3.13-.55 4.33-1.46l2.96 2.92c-1.88 2.12-3.09 4.84-3.27 7.83m-18.38-7.3c-1.69-2.61-2.69-5.7-2.69-9.03 0-8.96 7.15-16.28 16.11-16.76v9.8c-3.49.45-6.2 3.4-6.2 6.96 0 1.2.31 2.33.85 3.32l-8.07 5.71Zm19.62-9.03c0 2.87-2.36 5.2-5.27 5.2s-5.27-2.33-5.27-5.2 2.36-5.19 5.27-5.19 5.27 2.33 5.27 5.19m-4.34-16.76c4.16.22 7.92 1.92 10.77 4.57l-7.21 6.74c-1-.8-2.22-1.34-3.56-1.51v-9.8Zm16.11 16.76c0 1.38-.18 2.73-.5 4.01a13.37 13.37 0 0 0-7.93 3.19l-2.97-2.93c.92-1.19 1.48-2.67 1.48-4.27s-.51-2.96-1.37-4.12l7.22-6.74c2.53 2.93 4.06 6.72 4.06 10.86m12.67 17.9a.927.927 0 0 0-1.05.78c-.78 5.55-5.66 9.74-11.35 9.74-6.32 0-11.46-5.07-11.46-11.31s5.14-11.31 11.46-11.31c3.05 0 5.93 1.17 8.09 3.29.36.36.95.36 1.31 0 .36-.36.36-.94 0-1.3a13.245 13.245 0 0 0-8.28-3.77c.3-1.3.47-2.64.47-4.03 0-10.28-8.48-18.64-18.9-18.64s-18.9 8.36-18.9 18.64 8.48 18.64 18.9 18.64c1.39 0 2.74-.16 4.04-.45.56 6.74 6.29 12.06 13.27 12.06 6.62 0 12.29-4.87 13.2-11.32.07-.5-.28-.96-.79-1.04"/><path class="cls-1" d="m82.34 64.63-11.5 11.34-6.35-6.26a.93.93 0 0 0-1.31 0c-.36.36-.36.94 0 1.3l7 6.91c.18.18.42.27.66.27s.47-.09.66-.27l12.16-11.99c.36-.36.36-.94 0-1.3a.93.93 0 0 0-1.31 0"/></g></svg>