<svg data-name="Layer 2" xmlns="http://www.w3.org/2000/svg" viewBox="0 0 106.5 106.5"><g data-name="Layer 1"><path d="M53.25 106.5c29.41 0 53.25-23.84 53.25-53.25S82.66 0 53.25 0 0 23.84 0 53.25s23.84 53.25 53.25 53.25" style="fill:#112d6a"/><path d="M74.68 49.47v2.52m-17.65-2.52v2.52m8.83-12.61v3.78m0 15.13v3.78m-3.78-7.56c0 2.09 1.69 3.78 3.78 3.78s3.78-1.69 3.78-3.78-1.69-3.78-3.78-3.78-3.78-1.69-3.78-3.78 1.69-3.78 3.78-3.78 3.78 1.69 3.78 3.78M48.21 30.56h35.3m-31.52 0v6.3m0 5.04v25.21m7.56 0-3.78 15.13m16.39-15.13 3.78 15.13m3.78-51.69v36.56m3.78 0H48.2M29.29 57.02H41.9M29.29 43.15v16.39h-2.52c-1.39 0-2.52-1.13-2.52-2.52v-14.4c0-2.57 1.93-4.73 4.49-5.01l6.86-.76h22.69c1.39 0 2.52 1.13 2.52 2.52s-1.13 2.52-2.52 2.52H41.9v40.34m-6.3-20.17v20.17m-6.3-39.08v39.08m-3.78 0h20.17m-5.04-51.69c0 3.48-2.26 6.3-5.04 6.3s-5.04-2.82-5.04-6.3 2.26-6.3 5.04-6.3 5.04 2.82 5.04 6.3Z" style="fill:none;stroke:#fff;stroke-linejoin:round;stroke-width:2.52px"/></g></svg>