<svg id="Layer_2" data-name="Layer 2" xmlns="http://www.w3.org/2000/svg" viewBox="0 0 106.5 106.5"><defs><style>.cls-1{fill:#fff}.cls-3{fill:none;stroke:#fff;stroke-miterlimit:10;stroke-width:.25px}</style></defs><g id="Layer_1-2" data-name="Layer 1"><path d="M53.25 106.5c29.41 0 53.25-23.84 53.25-53.25S82.66 0 53.25 0 0 23.84 0 53.25s23.84 53.25 53.25 53.25" style="fill:#112d6a"/><path class="cls-1" d="M73.76 37.8c-.4 0-.72-.32-.72-.72V31.3c0-.4.32-.72.72-.72h5.78c.4 0 .72.32.72.72s-.32.72-.72.72h-5.06v5.05c0 .4-.32.72-.72.72"/><path class="cls-3" d="M73.76 37.8c-.4 0-.72-.32-.72-.72V31.3c0-.4.32-.72.72-.72h5.78c.4 0 .72.32.72.72s-.32.72-.72.72h-5.06v5.05c0 .4-.32.72-.72.72Z"/><path class="cls-1" d="M53.25 84.01c-5.12 0-10.19-1.28-14.67-3.71a.724.724 0 0 1 .69-1.27 29.32 29.32 0 0 0 13.98 3.54c16.17 0 29.32-13.15 29.32-29.32 0-8.09-3.39-15.9-9.3-21.42a.725.725 0 0 1-.04-1.02c.27-.29.73-.31 1.02-.03 6.2 5.8 9.76 13.99 9.76 22.48 0 16.96-13.8 30.76-30.76 30.76"/><path class="cls-3" d="M53.25 84.01c-5.12 0-10.19-1.28-14.67-3.71a.724.724 0 0 1 .69-1.27 29.32 29.32 0 0 0 13.98 3.54c16.17 0 29.32-13.15 29.32-29.32 0-8.09-3.39-15.9-9.3-21.42a.725.725 0 0 1-.04-1.02c.27-.29.73-.31 1.02-.03 6.2 5.8 9.76 13.99 9.76 22.48 0 16.96-13.8 30.76-30.76 30.76Z"/><path class="cls-1" d="M32.74 75.92c-.18 0-.35-.06-.49-.19-6.2-5.8-9.76-13.99-9.76-22.48 0-16.96 13.8-30.76 30.76-30.76 5.12 0 10.19 1.29 14.67 3.71a.724.724 0 0 1-.69 1.27 29.32 29.32 0 0 0-13.98-3.54c-16.16 0-29.32 13.15-29.32 29.32 0 8.09 3.39 15.9 9.3 21.42.29.27.31.73.03 1.02a.72.72 0 0 1-.53.23"/><path class="cls-3" d="M32.74 75.92c-.18 0-.35-.06-.49-.19-6.2-5.8-9.76-13.99-9.76-22.48 0-16.96 13.8-30.76 30.76-30.76 5.12 0 10.19 1.29 14.67 3.71a.724.724 0 0 1-.69 1.27 29.32 29.32 0 0 0-13.98-3.54c-16.16 0-29.32 13.15-29.32 29.32 0 8.09 3.39 15.9 9.3 21.42.29.27.31.73.03 1.02a.72.72 0 0 1-.53.23Z"/><path class="cls-1" d="M32.74 75.92h-5.78c-.4 0-.72-.32-.72-.72s.32-.72.72-.72h5.06v-5.06c0-.4.32-.72.72-.72s.72.32.72.72v5.78c0 .4-.32.72-.72.72"/><path class="cls-3" d="M32.74 75.92h-5.78c-.4 0-.72-.32-.72-.72s.32-.72.72-.72h5.06v-5.06c0-.4.32-.72.72-.72s.72.32.72.72v5.78c0 .4-.32.72-.72.72Z"/><path class="cls-1" d="M60.18 48.2c-6.61 0-11.99 5.38-11.99 11.99s5.38 11.99 11.99 11.99 11.99-5.38 11.99-11.99S66.79 48.2 60.18 48.2m0 25.42c-7.41 0-13.43-6.02-13.43-13.43s6.02-13.43 13.43-13.43 13.43 6.02 13.43 13.43-6.03 13.43-13.43 13.43"/><path class="cls-3" d="M60.18 48.2c-6.61 0-11.99 5.38-11.99 11.99s5.38 11.99 11.99 11.99 11.99-5.38 11.99-11.99S66.79 48.2 60.18 48.2Zm0 25.42c-7.41 0-13.43-6.02-13.43-13.43s6.02-13.43 13.43-13.43 13.43 6.02 13.43 13.43-6.03 13.43-13.43 13.43Z"/><path class="cls-1" d="M60.18 53.91a2.77 2.77 0 1 0 0 5.54 2.77 2.77 0 0 0 0-5.54m0 6.99a4.22 4.22 0 1 1 .002-8.442 4.22 4.22 0 0 1-.002 8.442"/><path class="cls-3" d="M60.18 53.91a2.77 2.77 0 1 0 0 5.54 2.77 2.77 0 0 0 0-5.54Zm0 6.99a4.22 4.22 0 1 1 .002-8.442 4.22 4.22 0 0 1-.002 8.442Z"/><path class="cls-1" d="M67.17 67.89c-.4 0-.72-.32-.72-.72 0-3.46-2.81-6.27-6.27-6.27s-6.27 2.81-6.27 6.27c0 .4-.32.72-.72.72s-.72-.32-.72-.72c0-4.25 3.46-7.71 7.71-7.71s7.71 3.46 7.71 7.71c0 .4-.32.72-.72.72"/><path class="cls-3" d="M67.17 67.89c-.4 0-.72-.32-.72-.72 0-3.46-2.81-6.27-6.27-6.27s-6.27 2.81-6.27 6.27c0 .4-.32.72-.72.72s-.72-.32-.72-.72c0-4.25 3.46-7.71 7.71-7.71s7.71 3.46 7.71 7.71c0 .4-.32.72-.72.72Z"/><path class="cls-1" d="M43.83 59.5s-.09 0-.14-.01c-6.26-1.24-10.8-6.78-10.8-13.17 0-7.41 6.02-13.43 13.43-13.43 6.53 0 12.09 4.66 13.23 11.08.07.39-.19.77-.58.84a.714.714 0 0 1-.84-.59c-1.01-5.73-5.98-9.88-11.8-9.88-6.61 0-11.99 5.38-11.99 11.99 0 5.7 4.05 10.64 9.63 11.76.39.08.65.46.57.85-.07.34-.37.58-.71.58"/><path class="cls-3" d="M43.83 59.5s-.09 0-.14-.01c-6.26-1.24-10.8-6.78-10.8-13.17 0-7.41 6.02-13.43 13.43-13.43 6.53 0 12.09 4.66 13.23 11.08.07.39-.19.77-.58.84a.714.714 0 0 1-.84-.59c-1.01-5.73-5.98-9.88-11.8-9.88-6.61 0-11.99 5.38-11.99 11.99 0 5.7 4.05 10.64 9.63 11.76.39.08.65.46.57.85-.07.34-.37.58-.71.58Z"/><path class="cls-1" d="M46.32 40.05a2.77 2.77 0 1 0 0 5.54 2.77 2.77 0 0 0 0-5.54m0 6.99a4.22 4.22 0 1 1 .002-8.442 4.22 4.22 0 0 1-.002 8.442"/><path class="cls-3" d="M46.32 40.05a2.77 2.77 0 1 0 0 5.54 2.77 2.77 0 0 0 0-5.54Zm0 6.99a4.22 4.22 0 1 1 .002-8.442 4.22 4.22 0 0 1-.002 8.442Z"/><path class="cls-1" d="M39.33 54.03c-.4 0-.72-.32-.72-.72 0-4.25 3.46-7.71 7.71-7.71 1.59 0 3.11.48 4.41 1.39.33.23.41.68.18 1.01-.23.33-.68.41-1.01.18a6.175 6.175 0 0 0-3.58-1.12c-3.46 0-6.27 2.81-6.27 6.27 0 .4-.32.72-.72.72"/><path class="cls-3" d="M39.33 54.03c-.4 0-.72-.32-.72-.72 0-4.25 3.46-7.71 7.71-7.71 1.59 0 3.11.48 4.41 1.39.33.23.41.68.18 1.01-.23.33-.68.41-1.01.18a6.175 6.175 0 0 0-3.58-1.12c-3.46 0-6.27 2.81-6.27 6.27 0 .4-.32.72-.72.72Z"/></g></svg>