<svg id="Layer_2" data-name="Layer 2" xmlns="http://www.w3.org/2000/svg" viewBox="0 0 106.5 106.5"><defs><style>.cls-1{fill:#fff}.cls-3{fill:none;stroke:#fff;stroke-linecap:round;stroke-linejoin:round;stroke-width:.25px}</style></defs><g id="Layer_1-2" data-name="Layer 1"><path d="M53.25 106.5c29.41 0 53.25-23.84 53.25-53.25S82.66 0 53.25 0 0 23.84 0 53.25s23.84 53.25 53.25 53.25" style="fill:#112d6a"/><path class="cls-1" d="M53.25 87.63a.77.77 0 0 1-.77-.77V69.59c0-.42.35-.77.77-.77s.77.35.77.77v17.27c0 .43-.35.77-.77.77"/><path class="cls-3" d="M53.25 87.63a.77.77 0 0 1-.77-.77V69.59c0-.42.35-.77.77-.77s.77.35.77.77v17.27c0 .43-.35.77-.77.77Z"/><path class="cls-1" d="M35.98 87.63a.767.767 0 0 1-.7-1.07l7.4-17.27c.17-.39.62-.57 1.01-.4.39.17.57.62.4 1.01l-7.4 17.27c-.12.29-.41.47-.71.47"/><path class="cls-3" d="M35.98 87.63a.767.767 0 0 1-.7-1.07l7.4-17.27c.17-.39.62-.57 1.01-.4.39.17.57.62.4 1.01l-7.4 17.27c-.12.29-.41.47-.71.47Z"/><path class="cls-1" d="M70.52 87.63c-.3 0-.58-.17-.71-.47l-7.4-17.27c-.17-.39.01-.85.4-1.01.39-.17.84.01 1.01.4l7.4 17.27a.767.767 0 0 1-.7 1.07"/><path class="cls-3" d="M70.52 87.63c-.3 0-.58-.17-.71-.47l-7.4-17.27c-.17-.39.01-.85.4-1.01.39-.17.84.01 1.01.4l7.4 17.27a.767.767 0 0 1-.7 1.07Z"/><path class="cls-1" d="M22.42 23.49c-.26 0-.46.21-.46.46v44.4c0 .26.21.46.46.46h61.67c.25 0 .46-.21.46-.46V23.96c0-.26-.21-.46-.46-.46H22.42Zm61.67 46.86H22.42a2 2 0 0 1-2-2V23.96a2 2 0 0 1 2-2h61.67a2 2 0 0 1 2 2v44.4a2 2 0 0 1-2 2"/><path class="cls-3" d="M22.42 23.49c-.26 0-.46.21-.46.46v44.4c0 .26.21.46.46.46h61.67c.25 0 .46-.21.46-.46V23.96c0-.26-.21-.46-.46-.46H22.42Zm61.67 46.86H22.42a2 2 0 0 1-2-2V23.96a2 2 0 0 1 2-2h61.67a2 2 0 0 1 2 2v44.4a2 2 0 0 1-2 2Z"/><path class="cls-1" d="M64.7 57.09H39.81c-3.71 0-6.73-3.02-6.73-6.73s3.02-6.73 6.73-6.73H67.6c2.86 0 5.18-2.32 5.18-5.18s-2.33-5.18-5.18-5.18H42.61c-.43 0-.77-.35-.77-.77s.35-.77.77-.77H67.6c3.71 0 6.73 3.02 6.73 6.73s-3.02 6.73-6.73 6.73H39.81c-2.86 0-5.18 2.32-5.18 5.18s2.33 5.18 5.18 5.18H64.7c.42 0 .77.35.77.77s-.35.77-.77.77"/><path class="cls-3" d="M64.7 57.09H39.81c-3.71 0-6.73-3.02-6.73-6.73s3.02-6.73 6.73-6.73H67.6c2.86 0 5.18-2.32 5.18-5.18s-2.33-5.18-5.18-5.18H42.61c-.43 0-.77-.35-.77-.77s.35-.77.77-.77H67.6c3.71 0 6.73 3.02 6.73 6.73s-3.02 6.73-6.73 6.73H39.81c-2.86 0-5.18 2.32-5.18 5.18s2.33 5.18 5.18 5.18H64.7c.42 0 .77.35.77.77s-.35.77-.77.77Z"/><path class="cls-1" d="M47.54 36.97a.79.79 0 0 1-.46-.15l-4.93-3.7a.772.772 0 0 1 0-1.24l4.93-3.7c.34-.25.82-.19 1.08.15.26.34.19.82-.15 1.08l-4.11 3.08 4.11 3.08c.34.26.41.74.15 1.08-.15.2-.38.31-.62.31"/><path class="cls-3" d="M47.54 36.97a.79.79 0 0 1-.46-.15l-4.93-3.7a.772.772 0 0 1 0-1.24l4.93-3.7c.34-.25.82-.19 1.08.15.26.34.19.82-.15 1.08l-4.11 3.08 4.11 3.08c.34.26.41.74.15 1.08-.15.2-.38.31-.62.31Z"/><path class="cls-1" d="M34.47 30.19c-1.28 0-2.31 1.04-2.31 2.31s1.04 2.31 2.31 2.31 2.31-1.04 2.31-2.31-1.04-2.31-2.31-2.31m0 6.17c-2.12 0-3.85-1.73-3.85-3.85s1.73-3.85 3.85-3.85 3.85 1.73 3.85 3.85-1.73 3.85-3.85 3.85"/><path class="cls-3" d="M34.47 30.19c-1.28 0-2.31 1.04-2.31 2.31s1.04 2.31 2.31 2.31 2.31-1.04 2.31-2.31-1.04-2.31-2.31-2.31Zm0 6.17c-2.12 0-3.85-1.73-3.85-3.85s1.73-3.85 3.85-3.85 3.85 1.73 3.85 3.85-1.73 3.85-3.85 3.85Z"/><path class="cls-1" d="M44.09 52.97c-.2 0-.4-.07-.55-.22-.3-.3-.3-.79 0-1.09l3.66-3.67c.3-.3.79-.3 1.09 0 .3.3.3.79 0 1.09l-3.67 3.67a.77.77 0 0 1-.55.22"/><path class="cls-3" d="M44.09 52.97c-.2 0-.4-.07-.55-.22-.3-.3-.3-.79 0-1.09l3.66-3.67c.3-.3.79-.3 1.09 0 .3.3.3.79 0 1.09l-3.67 3.67a.77.77 0 0 1-.55.22Z"/><path class="cls-1" d="M47.75 52.97c-.2 0-.4-.07-.55-.22l-3.66-3.67c-.3-.3-.3-.79 0-1.09.3-.3.79-.3 1.09 0l3.67 3.67c.3.3.3.79 0 1.09a.77.77 0 0 1-.55.22"/><path class="cls-3" d="M47.75 52.97c-.2 0-.4-.07-.55-.22l-3.66-3.67c-.3-.3-.3-.79 0-1.09.3-.3.79-.3 1.09 0l3.67 3.67c.3.3.3.79 0 1.09a.77.77 0 0 1-.55.22Z"/><path class="cls-1" d="M58.11 41.06c-.2 0-.4-.07-.55-.22-.3-.3-.3-.79 0-1.09l3.67-3.67c.3-.3.79-.3 1.09 0 .3.3.3.79 0 1.09l-3.67 3.67a.77.77 0 0 1-.55.22"/><path class="cls-3" d="M58.11 41.06c-.2 0-.4-.07-.55-.22-.3-.3-.3-.79 0-1.09l3.67-3.67c.3-.3.79-.3 1.09 0 .3.3.3.79 0 1.09l-3.67 3.67a.77.77 0 0 1-.55.22Z"/><path class="cls-1" d="M61.78 41.06c-.2 0-.4-.07-.55-.22l-3.67-3.67c-.3-.3-.3-.79 0-1.09.3-.3.79-.3 1.09 0l3.67 3.67c.3.3.3.79 0 1.09a.77.77 0 0 1-.55.22"/><path class="cls-3" d="M61.78 41.06c-.2 0-.4-.07-.55-.22l-3.67-3.67c-.3-.3-.3-.79 0-1.09.3-.3.79-.3 1.09 0l3.67 3.67c.3.3.3.79 0 1.09a.77.77 0 0 1-.55.22Z"/><path class="cls-1" d="M29.43 64.28c-.2 0-.4-.07-.55-.22-.3-.3-.3-.79 0-1.09l3.67-3.67c.3-.3.79-.3 1.09 0 .3.3.3.79 0 1.09l-3.67 3.67a.77.77 0 0 1-.55.22"/><path class="cls-3" d="M29.43 64.28c-.2 0-.4-.07-.55-.22-.3-.3-.3-.79 0-1.09l3.67-3.67c.3-.3.79-.3 1.09 0 .3.3.3.79 0 1.09l-3.67 3.67a.77.77 0 0 1-.55.22Z"/><path class="cls-1" d="M33.09 64.28c-.2 0-.4-.07-.55-.22l-3.66-3.67c-.3-.3-.3-.79 0-1.09.3-.3.79-.3 1.09 0l3.67 3.67c.3.3.3.79 0 1.09a.77.77 0 0 1-.55.22"/><path class="cls-3" d="M33.09 64.28c-.2 0-.4-.07-.55-.22l-3.66-3.67c-.3-.3-.3-.79 0-1.09.3-.3.79-.3 1.09 0l3.67 3.67c.3.3.3.79 0 1.09a.77.77 0 0 1-.55.22Z"/><path class="cls-1" d="M53.71 64.28c-.2 0-.4-.07-.55-.22-.3-.3-.3-.79 0-1.09l3.67-3.67c.3-.3.79-.3 1.09 0 .3.3.3.79 0 1.09l-3.67 3.67c-.15.15-.35.22-.54.22"/><path class="cls-3" d="M53.71 64.28c-.2 0-.4-.07-.55-.22-.3-.3-.3-.79 0-1.09l3.67-3.67c.3-.3.79-.3 1.09 0 .3.3.3.79 0 1.09l-3.67 3.67c-.15.15-.35.22-.54.22Z"/><path class="cls-1" d="M57.37 64.28c-.2 0-.4-.07-.55-.22l-3.66-3.67c-.3-.3-.3-.79 0-1.09.3-.3.79-.3 1.09 0l3.67 3.67c.3.3.3.79 0 1.09a.77.77 0 0 1-.55.22"/><path class="cls-3" d="M57.37 64.28c-.2 0-.4-.07-.55-.22l-3.66-3.67c-.3-.3-.3-.79 0-1.09.3-.3.79-.3 1.09 0l3.67 3.67c.3.3.3.79 0 1.09a.77.77 0 0 1-.55.22Z"/><path class="cls-1" d="M73.41 52.97c-.2 0-.4-.07-.55-.22-.3-.3-.3-.79 0-1.09l3.67-3.67c.3-.3.79-.3 1.09 0 .3.3.3.79 0 1.09l-3.67 3.67c-.15.15-.35.22-.54.22"/><path class="cls-3" d="M73.41 52.97c-.2 0-.4-.07-.55-.22-.3-.3-.3-.79 0-1.09l3.67-3.67c.3-.3.79-.3 1.09 0 .3.3.3.79 0 1.09l-3.67 3.67c-.15.15-.35.22-.54.22Z"/><path class="cls-1" d="M77.07 52.97c-.2 0-.4-.07-.55-.22l-3.67-3.67c-.3-.3-.3-.79 0-1.09.3-.3.79-.3 1.09 0l3.67 3.67c.3.3.3.79 0 1.09a.77.77 0 0 1-.55.22"/><path class="cls-3" d="M77.07 52.97c-.2 0-.4-.07-.55-.22l-3.67-3.67c-.3-.3-.3-.79 0-1.09.3-.3.79-.3 1.09 0l3.67 3.67c.3.3.3.79 0 1.09a.77.77 0 0 1-.55.22Z"/></g></svg>