<svg id="Layer_2" data-name="Layer 2" xmlns="http://www.w3.org/2000/svg" viewBox="0 0 84.91 84.91"><defs><style>.cls-2{fill:#1e6f41}</style></defs><g id="Layer_1-2" data-name="Layer 1"><path d="M42.45 84.91c23.45 0 42.45-19.01 42.45-42.45S65.9 0 42.45 0 0 19.01 0 42.45 19.01 84.9 42.45 84.9" style="fill:#fff"/><path class="cls-2" d="M44.42 31.56c.56 0 1.02.46 1.02 1.02s-.46 1.02-1.02 1.02-1.02-.46-1.02-1.02.46-1.02 1.02-1.02m-2.92 1.02c0 1.61 1.31 2.92 2.92 2.92s2.92-1.31 2.92-2.92-1.31-2.92-2.92-2.92-2.92 1.31-2.92 2.92m9.78 0c0-.56.46-1.02 1.02-1.02s1.02.46 1.02 1.02-.46 1.02-1.02 1.02-1.02-.46-1.02-1.02m3.94 0c0-1.61-1.31-2.92-2.92-2.92s-2.92 1.31-2.92 2.92 1.31 2.92 2.92 2.92 2.92-1.31 2.92-2.92m-16.71-2.92h-7.88c-.52 0-.95.43-.95.95s.43.95.95.95h7.88c.52 0 .95-.43.95-.95s-.43-.95-.95-.95m0 3.94h-7.88c-.52 0-.95.43-.95.95s.43.95.95.95h7.88c.52 0 .95-.43.95-.95s-.43-.95-.95-.95m6.93 10.8c0 .56-.46 1.02-1.02 1.02s-1.02-.46-1.02-1.02.46-1.02 1.02-1.02 1.02.46 1.02 1.02m-3.94 0c0 1.61 1.31 2.92 2.92 2.92s2.92-1.31 2.92-2.92-1.31-2.92-2.92-2.92-2.92 1.31-2.92 2.92m11.82 0c0 .56-.46 1.02-1.02 1.02s-1.02-.46-1.02-1.02.46-1.02 1.02-1.02 1.02.46 1.02 1.02m-3.94 0c0 1.61 1.31 2.92 2.92 2.92s2.92-1.31 2.92-2.92-1.31-2.92-2.92-2.92-2.92 1.31-2.92 2.92m-10.87-2.92h-7.88c-.52 0-.95.43-.95.95s.43.95.95.95h7.88c.52 0 .95-.43.95-.95s-.43-.95-.95-.95m0 3.94h-7.88c-.52 0-.95.43-.95.95s.43.95.95.95h7.88a.95.95 0 1 0 0-1.9"/><path class="cls-2" d="M62.15 65.11c-1.65 0-2.99-1.34-2.99-2.99s1.34-2.99 2.99-2.99 2.99 1.34 2.99 2.99-1.34 2.99-2.99 2.99M45.44 70c0 1.65-1.34 2.99-2.99 2.99s-2.99-1.34-2.99-2.99 1.34-2.99 2.99-2.99 2.99 1.34 2.99 2.99m-22.68-4.89c-1.65 0-2.99-1.34-2.99-2.99s1.34-2.99 2.99-2.99 2.99 1.34 2.99 2.99-1.34 2.99-2.99 2.99m39.39-7.88c-2.37 0-4.35 1.7-4.8 3.94h-6.07v-9.91h5.03c1.57 0 2.85-1.28 2.85-2.85v-1.93a.95.95 0 1 0-1.9 0v1.93c0 .53-.43.95-.95.95H28.6c-.52 0-.95-.43-.95-.95V40.4c0-.52.43-.95.95-.95h27.71c.52 0 .95.43.95.95v1.93c0 .52.43.95.95.95s.95-.43.95-.95V40.4c0-.35-.06-.68-.17-.99 4.51-.39 8.05-4.19 8.05-8.8s-3.51-8.34-7.93-8.78c.2-2.08-.28-4.44-1.28-6.26a.941.941 0 0 0-1.29-.37c-.46.25-.63.83-.37 1.29.98 1.78 1.32 4.07.92 6.06-.15.74.54 1.12 1.13 1.14 3.78 0 6.93 3.15 6.93 6.93 0 3.55-2.68 6.48-6.12 6.88.1-.29.15-.59.15-.91v-8.01c0-1.57-1.28-2.85-2.85-2.85h-9.81a.95.95 0 1 0 0 1.9h9.81c.52 0 .95.43.95.95v8.01c0 .52-.43.95-.95.95H28.62c-.52 0-.95-.43-.95-.95v-8.01c0-.52.43-.95.95-.95h13.75a.95.95 0 1 0 0-1.9H28.62c-1.57 0-2.85 1.28-2.85 2.85v8.01c0 .32.05.62.15.91-3.44-.39-6.12-3.4-6.12-6.88 0-3.78 3.15-6.93 6.93-6.93.52 0 .95-.42.95-.95 0-5.66 6.76-8.97 11.22-5.44.59.35 1.08.24 1.45-.34 2.35-4.96 8.97-6.63 13.39-3.31.42.32 1.02.23 1.33-.19a.945.945 0 0 0-.19-1.33c-5.03-3.79-12.45-2.33-15.72 3.04-5.44-3.3-12.69.36-13.33 6.66-4.41.45-7.92 4.34-7.92 8.78s3.58 8.41 8.05 8.8c-.11.31-.17.64-.17.98v8.01c0 1.57 1.28 2.85 2.85 2.85h5.02v9.91h-6.07a4.89 4.89 0 1 0-4.8 5.84c2.37 0 4.35-1.7 4.8-3.94h7.02c.53 0 .95-.43.95-.95V51.25h5.98v13.94a4.89 4.89 0 1 0 5.84 4.8c0-2.37-1.7-4.35-3.94-4.8V51.25h5.98v10.86c0 .52.43.95.95.95h7.02a4.89 4.89 0 1 0 4.8-5.84Z"/></g></svg>