<svg id="Layer_2" data-name="Layer 2" xmlns="http://www.w3.org/2000/svg" viewBox="0 0 84.91 84.91"><defs><style>.cls-2{fill:#1e6f41}</style></defs><g id="Layer_1-2" data-name="Layer 1"><path d="M42.45 84.91c23.45 0 42.45-19.01 42.45-42.45S65.9 0 42.45 0 0 19.01 0 42.45 19.01 84.9 42.45 84.9" style="fill:#fff"/><path class="cls-2" d="M59.84 29.72v3.54l-3.47.9c-.31.08-.56.33-.63.64-.33 1.32-.85 2.58-1.55 3.75-.17.28-.17.62 0 .9l1.82 3.09-2.5 2.5-3.09-1.82a.88.88 0 0 0-.9 0c-1.17.7-2.43 1.22-3.75 1.55-.31.08-.56.32-.64.64l-.9 3.47h-3.54l-.9-3.47a.9.9 0 0 0-.64-.64c-1.32-.33-2.58-.85-3.75-1.55a.858.858 0 0 0-.9 0l-3.09 1.82-2.5-2.5 1.82-3.09c.16-.28.16-.63 0-.9-.7-1.17-1.22-2.42-1.55-3.75a.884.884 0 0 0-.64-.64l-3.47-.9v-3.54l3.47-.9a.9.9 0 0 0 .64-.64c.33-1.32.85-2.58 1.55-3.75.17-.28.17-.62 0-.9l-1.82-3.09 2.5-2.5 3.09 1.82c.28.17.63.16.9 0 1.16-.7 2.42-1.22 3.75-1.55.31-.08.56-.32.64-.64l.9-3.47h3.54l.9 3.47a.9.9 0 0 0 .64.64c1.32.33 2.58.85 3.75 1.55.28.17.62.17.9 0l3.09-1.82 2.5 2.5-1.82 3.09c-.16.28-.16.63 0 .9.7 1.16 1.22 2.43 1.55 3.75.08.31.32.56.63.64l3.47.9ZM39.68 63.45h5.54v3.69h-5.54v-3.69Zm32.01-33c.49 0 .88-.39.88-.88V22.3c0-1.46-1.19-2.65-2.65-2.65H57.7l-3.44-3.44a.895.895 0 0 0-1.07-.14l-3.23 1.91a15.25 15.25 0 0 0-3.26-1.35L45.76 13a.877.877 0 0 0-.85-.66H40c-.4 0-.75.27-.85.66l-.94 3.63c-1.14.32-2.23.78-3.26 1.35l-3.23-1.91a.877.877 0 0 0-1.07.14l-3.44 3.44H14.99c-1.46 0-2.65 1.19-2.65 2.65v38.5c0 1.46 1.19 2.65 2.65 2.65h22.93v3.69h-4.66c-1.46 0-2.65 1.19-2.65 2.65v1.9c0 .49.4.88.88.88h13.03c.49 0 .88-.4.88-.88s-.4-.88-.88-.88H32.37v-1.02c0-.49.4-.88.88-.88h18.4c.49 0 .88.4.88.88v1.02h-4.17c-.49 0-.88.4-.88.88s.4.88.88.88h5.05c.49 0 .88-.4.88-.88v-1.9c0-1.46-1.19-2.65-2.65-2.65h-4.66v-3.69h22.93c1.46 0 2.65-1.19 2.65-2.65V33.41c0-.49-.39-.88-.88-.88s-.88.4-.88.88V60.8c0 .49-.4.88-.88.88H14.98c-.49 0-.88-.4-.88-.88V22.3c0-.49.4-.88.88-.88h12.45l1.12 1.89H16.88c-.49 0-.88.4-.88.88v30.89c0 .49.39.88.88.88h23.56c.49 0 .88-.4.88-.88s-.4-.88-.88-.88H17.76V25.08H28.4c-.32.7-.59 1.43-.8 2.17l-3.63.94c-.39.1-.66.45-.66.85v4.91c0 .4.27.75.66.85l3.63.94c.32 1.14.78 2.23 1.35 3.26l-1.91 3.23c-.2.35-.15.79.14 1.07l3.47 3.47c.28.28.73.34 1.07.14L34.95 45c1.03.57 2.12 1.03 3.26 1.35l.94 3.63c.1.39.45.66.85.66h4.91c.4 0 .75-.27.85-.66l.94-3.63c1.14-.32 2.23-.78 3.26-1.35l3.23 1.91c.35.2.79.15 1.07-.14l3.47-3.47c.28-.28.34-.73.14-1.07L55.96 39a15.25 15.25 0 0 0 1.35-3.26l3.64-.94c.39-.1.66-.45.66-.85v-4.91c0-.4-.27-.75-.66-.85l-3.64-.94c-.21-.74-.48-1.47-.8-2.17h10.64V54.2H44.27c-.49 0-.88.39-.88.88s.4.88.88.88h23.76c.49 0 .88-.4.88-.88V24.19c0-.49-.4-.88-.88-.88H56.36l1.11-1.89h12.45c.49 0 .88.4.88.88v7.27c0 .49.39.88.88.88Z"/><path class="cls-2" d="M38.8 58.03c-.49 0-.88.4-.88.88s.39.88.88.88h7.31c.49 0 .88-.4.88-.88s-.4-.88-.88-.88H38.8Zm-18.27-7.38h7.31c.49 0 .88-.39.88-.88s-.4-.88-.88-.88h-7.31c-.49 0-.88.4-.88.88s.39.88.88.88m35.66-.88c0 .49.39.88.88.88h7.31c.49 0 .88-.4.88-.88s-.4-.88-.88-.88h-7.31c-.49 0-.88.4-.88.88m3.65-3.66c0 .49.39.88.88.88h3.66c.49 0 .88-.4.88-.88s-.39-.88-.88-.88h-3.66c-.49 0-.88.4-.88.88M20.53 47h3.65c.49 0 .88-.39.88-.88s-.4-.88-.88-.88h-3.65c-.49 0-.88.4-.88.88s.39.88.88.88m0-3.66h1.83c.49 0 .88-.39.88-.88s-.4-.88-.88-.88h-1.83c-.49 0-.88.4-.88.88s.39.88.88.88m43.85-.03c.49 0 .88-.39.88-.88s-.39-.88-.88-.88h-1.83c-.49 0-.88.4-.88.88s.4.88.88.88h1.83Zm-18.04-2.54v-3.33l3.27-2.21c.24-.16.39-.44.39-.73v-6.66a.9.9 0 0 0-.32-.68l-3.65-2.99c-.75-.5-1.45-.15-1.44.68V31l-2.12 1.29L40.35 31v-6.15c0-.81-.75-1.18-1.44-.68l-3.65 2.99c-.21.17-.32.42-.32.68v6.66c0 .29.15.57.39.73l3.27 2.21v3.33c-3.62-1.52-6.17-5.11-6.17-9.27 0-5.54 4.51-10.05 10.05-10.05s10.05 4.51 10.05 10.05c0 4.17-2.55 7.75-6.17 9.27m-6.01.56v-4.35c0-.29-.15-.57-.39-.73l-3.27-2.21v-5.78l1.89-1.55v4.79c0 .31.16.59.42.75l3 1.83c.28.17.64.17.92 0l3-1.83a.89.89 0 0 0 .42-.75v-4.79l1.89 1.55v5.78l-3.27 2.21c-.24.16-.39.44-.39.73v4.35c-1.41.3-2.83.3-4.24 0m2.12-21.65c-6.52 0-11.82 5.3-11.82 11.82s5.3 11.82 11.82 11.82 11.82-5.3 11.82-11.82-5.3-11.82-11.82-11.82"/></g></svg>