<svg version="1.1" id="Layer_1" xmlns="http://www.w3.org/2000/svg" x="0" y="0" viewBox="0 0 1000 1000" style="enable-background:new 0 0 1000 1000" xml:space="preserve"><style>.st0{fill:#6f9c76;stroke:#fff;stroke-width:.5;stroke-linecap:round;stroke-linejoin:round}</style><g id="features"><path id="CONAR" class="st0" d="m308.8 605.6 4.6 3.1 1.5 1.6.1 1 .3 1.1.6 1.8.1.6v.5l-.2.6-.6 1.8-.1.4v.5l.1.5.8 2 3.7 5.3.1.5.2 1.7.2.4.5.5 1.4.6 1.6.4 1.8.6 1.2.1h.9l2.4-.8h1.6l1.5-.6.8-.6.3-.3 1.4-.2 1.4-.2 1-.3.1-.2.5-.3.2-.2.3-.1.9-.1.6-.1h.8l.5.1.9.4 4.6 2 .5.9-.1 1.5-.8 1.2-.2.8-.2.3-.1.5.2.4.4.4 3.1 2.3.7.4.5.2 1 .5.7 1.3-.6 1.5-.1.2-.3.1-.6.2-.2.2-.2.4v.4l-.4.8-1.8 1.5-.8 2-.1.5v.7l.3.8-.1.7-.2.8-1.3 3 3.1 1 .4-.2h.2l.4.2.6.3 2.5-.9h.9l.8-.3h.3l.2.1.2.3.4.3.9.2.6.1.5-.1.4-.2.5-.5.4-.3.6-.6.3-.2 1.6-.4 2.1-.3 1.6-.5.5.2.3.2 1.6 2.5 1.5 2.2.5.4.2.2.3.4v1l-.3 1-.2.5-.6.7-.5.6-2.5 1.5-.2 1 .3 4.3.5 2.4.1 1.9-1.6 1.4h-.9l-.2-.3-.1-.2h-.2l-.1.2-.1.6.1 1.1v.6l-.2.4-.7.7-.6.4-3.6 1.3-.8.3-.1.7-.1 2.2.3 2.8.1.3h.5l.3.1 1 .8.7.2.2.2.1.5v.4l-.4 1.4-.2.4-2.5 5.3-1.4 2.5-1 .6-.9 1.3-3.1 3.9-1.1 1.1 2 2 2.4 2 .9.6.8.3.3.4.2.5v.8l-.2.3-.2.2-.2.1-.2.3v.5l.1.6 1 2.3.2.8.1 1.5.5 1 .1 1.1-.1.3-.1.4-.3.2-.2.1-.2.8-.1.3-.6-.1-.9.1-2.6 1h-1.1l-.8-.2-.7-.4-1-.3-5.4-1.1-1.7-.7-1.4-1-.5-1.3-.2-1.5-.5-1.7-.3-5.4-.7-2.4-2.1-.5h-.2l-1.5.2-1.9-.7-3.3-2.3-1.1-1.6-.3-3.7-1.5-1.1-1.3-.1-4 1.6-1 .2h-1l-1.1-.3-1.2-.4-.5-.5-.1-.5v-.6l-.2-.5-.5-.5-.2-.1-.3.2h-.6l-3.4-1.3-3.6-.2-2.1-1-6.6-5-1.1-.5-3-.8-.9-.5-1.2-.9-4.8-5.3-.6-.5-.3-.3-2.8-.6-.8.1-.7.4-.3-.8-1.1-1.2-.2-.5v-1l-.5-.1-.7.2-.8.2-1.2-.4-1-.8-.8-1-.5-1.1-.5-.9-1.5-1.2-1-1.5-3-2 .8-.4-.4-.9-.6-.5-.7-.5-.4-.5-.1-.8.1-1v-.9l-.3-.8-.4-.1-.6.3-1 .5-.4-.5-.6-.5-.6-.1-.5-.4-1.1-.6-.5-.3-1.3-.8-.7-.8-.5-.7.3-.9.4-.5.8-.3.9-.2.9-.9.8-1.5.7-.9 1.3-1.3 1.1-1.2.7-.8 1-.8 2.4-.6 1.1.2.9-.1 1.1.3 1 .4 1 .3 1.7.1 1.2.2 1.4.2.3.1.3.5.5.3.5.2.5-.1v-.7l.1-.4.1-.8.7-.8.4-1.3-.4-.8.1-.7v-.2l.2-.3.1-.3v-.4l-.1-.3-.2.2-.3.6-.7.4h-1l-.3-.7v-.9l.2-1.1v-.7l.3-1.3.1-.6-.2-.4-.4-.5-.5-.5-.5-.2-.6.4-.4.6-.5 1.6-.6.3-.4-.4v-1l-.2-1.4-.6-1.8-.5-2.4-.4-1.7-.2-2.2.6-1.2.6-1.4.4-1.3 1.4-.6.4-1.4 1.5-2.7 1.1-2.2.6-1.5.7-.8-.3.8v.9l.1.8.2.9.8-2.3.4-2.5.6-1 .9.3 1.3-1.6 1.2-1.5 1.3-1.8 1-.4.9-.9 1.1-1 1.3-.8h.6l.5 1.2.6 1.4.8 1.3 1 1.4 1.2.1-.6-1.8-.3-1.4.1-1.6.4-.7.7-.7.6.9.4 1.5-.3 1.2.5.8.4 1.1.4.9.8.8.4.3 1.8.9.8.3.5-.1.9-.5 1-.3v-1.1l.1-.3.1-.2v-1.8l-.2-.8-.2-.8-.5-.8-.3-.9.5-.5 1.1.2h0zm-2.9 1 .1.3 1.2 1.4.4 1.1.1 1.7-.6 1.4-1.4.4-1.1-.7-1.4-1.4-1.1-1.5-.5-1.1.2-.7.3-.3.3-.3.3-.5-.4-.6-.7-1.3.1-.6.5-.3.8.5 1.2-.4 1 .6.3.9.4.5.1.6-.1.3h0z"/><path id="COPUT" class="st0" d="m357.9 721.8.1-.3.2-.8.2-.1.3-.2.1-.4.1-.3-.1-1.1-.5-1-.1-1.5-.2-.8-1-2.3-.1-.6v-.5l.2-.3.2-.1.2-.2.2-.3v-.8l-.2-.5-.3-.4-.8-.3-.9-.6-2.4-2-2-2 1.1-1.1 3.1-3.9.9-1.3 1-.6 1.4-2.5 2.5-5.3.2-.4.4-1.4v-.4l-.1-.5-.2-.2-.7-.2-1-.8-.3-.1h-.5l-.1-.3-.3-2.8.1-2.2.1-.7.8-.3 3.6-1.3.6-.4.7-.7.2-.4v-.6l-.1-1.1.1-.6.1-.2h.2l.1.2.2.3h.9l1.6-1.4h1.7l4 .3 1.3-.3 1.4-.8 1.1-1.3 2.7-4 .8-.2.8.3.9.6 1.7.7.8 1 1 1.5.1.6.9.8.6 1.4.2.7v.7l-.2.9-.9 1.7-.2.9-.2 4.4.5 2.2 1.2 1.9 1 .7 3.6 1.1 2 1 1.6.3 7.1.2.8-.2.5-.3.5-.4.6-.5.7-.3.7-.2 1.6.1.9-.2.4-.5.3-.6.5-.5h.1l.7-.1.7.1 1.4.6h.9l1.9-.2.9.2.7.6.2.6v.7l.1.9.6 1.1 2.8 3.3.9.5 2 .2 1 .5.9.6.9.3h1l3.4-.2 2.3.2 2.1 1 3.1 3.3 2 .7 4.3.3 2.8-.4 1 .2 1.2.6.6.3.4.5.2.5-.1 1 .1.5.4.8 1.2 1.4.4.9v.8l-.4 1.7.2.9.7 1.7.8 1.1 1.1.4 1.7-.4 1.2-.5h.6l.7.3.1.3.1.8.2.3.5.1h.5l1-.3 1.9.4.6 1.4-.4 3.4.2.7.7 2.3.2 1.7.4.5 2.2.8 3.2 1.7 5.7 1.1 1.8 1 1.3 1.5.3 2.1-.3.6-.5.6-.2.6.7.4 1 .4.2.2-.2.4-.7 1.3-.3.4-.1.3.6 1.1.1.4.1.9.2.7.4.2.4-.1.8.2.4-.1.3.1.5.2.2.4.4 1.1.2.4.8.4 1 .4 1 .1.8-.1.9-.2.5.2.4.3.9.1.7-.3.5-1.5.8-.3.8.3.3.8v.8l.4.6h.8l1.8-.7 1.1.2 1.8.9.5.4.3.5.1.4v.4l.5 1.5.2.4.4.5.6.3.4-.1.4-.2.5-.1.5.1.3-.1h.3l.5.3.2.3.2 1 .3.3.9.1.9-.4.9-.3.9.5 2.7 2.1 1.7 1.9 1.1.8 2.4 1 3.9 1.1v.1l-27.8 8.6-.1-.5-.1-.6-.3-.2h-.6l-.3-.1-.5-.7-.6-.8-.6-.5-3.1-1.8-1.3-1.1-2.2-2.2-1.4-2.4-.5-.4-.5.1-.4.2-.4.3-.2.1h-.7l-.3-.2-.2-.3-.2-.2-.4-.3-.2-.2-.3-.2-1.3-.1-1-.2-.5-.1-.9-.3.4-.7 1.4-1-1.7-3.6-.7-1-1.1-.9-.6.1-1.3 2.1-.5.4h-.5l-.9-.3-1.7-.3-1.1-.5-.7-.5-2-2.3-.4-.2-.4-.2h-.9l-.5-.1-.5-.6-2-2.7-1-.8-1.1-.5-2.2-.7-1.1-.1-.7.2-.5.5-.2 1-.3.6-.6.8-.8.6-.7.3-1-.6-3.2-1.2-2.8-.5-1-.7-1.2-.4-3-1.8-2.4-2.2-.9-.3-.5-.3-.6-.7-.8-.7-1-.4-1 .1-2.2.5-1.1.2-1.2-.1-1-.3-.8-.3-1.4-.8-2-1.5-.5-.7-3-1.9-1.3-1.2-.6-.8-.2-1-.2-.6-3.4-4.3-.3-.6-.4-.8-1.2.2-1.3.4h-.9l-.3-.4-.2-1.3-.3-.5-.5-.2-.5-.1-1.1.1-1.3-.1-1.1-.2-1-.5-1-.6-1.4-1.5-.5-.2-.5.1-.9.7-.3.2-.3.2-1.2 1.5-.5.2-.6.1-1.1.1-.4-.1v.3l-.1 3.8.5 3.4-.9.6-5 .5-1.3.7-.8.1-.9-.3-1.4-1.3-.8-.5-.7-.2-2.5-.3-1.7-.5-.7.2.2 2.1h-.8l-1.8-.8-.7-.1-3.5.5h-.7l-.8-.3-.8-.6-1.1-1.1-.6-.4-.8-.3-.6-.1h-2l-1.6-.5-1.9-2.2-1.1-.3h0z"/><path id="COCHO" class="st0" d="m363.9 320.1.1.2.6 2.4.3.9.3.9.3 4.3-.3 1.1-.3.5-.2.9-.9.7-.4.5-.4.7-.9 5.2-.7.8-.8.5-1 1.1-1.1.7-1.4-.2v2.1l.1-.1.1.2.1.3.1.2h-.1l-.2.1-.3.1-.1.2.4.7.5.7 6.5 5.9 5.2 3.7 5.3 5.8 4.1 5 1 .8 1.3.9 1.8.2.7.3.5.4 2.3 1.9.6.9 1.1 3.2.2 5.7-.2 1-.2.4-1.7 2.9-1.2-.1-.7-.4-.9-.3-4.2-1-1-.1-3.3.3-1.4.3-1 .4-.8.4-.2.7.2.4.2.7.2.2.3.1.3.3.3.5.2.8.3 2-.3.7-.4.6-.7.6-.1.3-.5.2-2.4-.2-1.6 1-.7.1-1.5.4-.7.3.1.5v1.9l.2.5.7.6.2.5-.1.3-1 1.1h.9l.4.1.1.4.1.6.1.3.3.2.6.1-.1-.3.4-.5.5-.4.2.3-.1.5-.2.4v.5l.3.6.4.1 1.1.1.3.3-.1.7-.3.1-.4-.3h-.3l-.4.8-.1 1 .2.6.7-.3.7.3.5.6.2.7v.9l.5.5.4.6.4.5.7-.2 1.2 1.5.1.4-.5.5-.3.7.1.5.8.2-.1.3-.2.2-.3.2h-.4l.4.8.4.6.1.6-.6.8h.3l.4.3-.4.5-.3.9-.1 1 .1.8.4.3.4.2h.4l.2.2.2 1.1.1.3 1.4 1.5.6.9.1 1 .4.5.1.2.7.5 1.3.4 1.3.1 4-.1 2.3-.5 2.8-.3 2.4-.2 1.7-.4 1.9-.2h2l1.7.2 1 .7.4.9.5 3.1 1.2 3.1 1.4 1.9 1.3.5h1.3l1.3.6.3 2.4-1.4 3.4-.1 1.3.3 1.3.3 1.2 1.4 2.3.4.8.2 1.3-.6 2.1-.1.8.5 1 .3.4 2 2-1.9 2-.1 1.4-.6 2.8-2.6 1.6-1 .8-.9 2.9.1 2.2 4.2 6.8.5 1.8-.1 1.5.8 1.3-.1 2.5-1.5 1.4-.5.4-.8.9-.5.6-1.3 3.7-.1.4-2.1 2.3-4.1 3.6-.4.5-.4.6-.2.7-.1.6.3.5.2.8-.7 1.1-1.5 1.6-1.4.9-2.7 2.4-.4.8-.8 2.7v.6l.4.9.1.9-.7 2.3-.7.6-.3.2-.4.2-.5.1-.6.2-.9.2h-.4l-.6-.2h-.2l-.1.2.1.4.9 1.6.5.6.5.5.4.2.2.3.1.5-.3 2.4.2 1.3 2.1 1.1.8.8-.2.6-.1.3-1.4 1.4-1.2.3-1.2.6-1.3 1.4-1.2 1.6-.2.5v.4l-.1.3-.3.2h-.6l-2.5-.6h-.6l-.6.2-.7.8-.9.6-1.6 1.7-.7.2-.9-.1-1.6-.7-.7-.2-.5-.3-.2-.2v-.2l-.1-.1-.7-.2-1.6.2-1.3-.6-2-3.3-.6-.6-.6-.2h-.5l-.7-.1h-.3l-.3.1-.4.6-.4.3-.5.1-.5.1-1.1-.2h-.8l-.2-.1-.6-.8-2.2-2.3-.6-.1-1-.7-.4-.1h-.5l-1.2.4-.3.1-.2.3-.4.1h-.3l-.5-.4-.4-.4-.3-.4-.1-.5v-1.3l-.3-.8h-.1l.9-1.2H347l-.8-.2-.7-.8-1.9-3.1 1.4-2.1.3-.8.4-2.1.5-.8 1.2-.6v-.3l-1.1.3.2-1.4.5-2.4.1-6.9.1.4.2.4.3.3.4.3.2-.5.1-.9-.1-.7-1.2-.7-.2-.6-.1-.8-.1-.7 1.1.1.9.6.7.9.4.8h.3l-.6-1.6-2.1-2.6-.3-1.7-.3.1-.6.2-.2.1-.5-2.1-.6-6.5-.3-.9-.3-7.6.3-1.7.4-1.7.7-1.5-.8-.4v-1.1l.1-1.1-.2-.6-.5-.4-.3-1-.1-2-.7.2-.5-.2-.2-.6v-.8h.4l.2.2.2.1h.2l.4-.3-.5-.4-.2-.4-.4-1.6.1-.2-.1-.2-.3-.3-.2-.1-.8-.2-.4-.1-.5-.5-.4-.6-.4-.4-.7-.2h-.8l-.5.1-.3.4-.2.5-.6-.5h-.6l-.5.2h-.4l-.3-.6.1-.5.5-.3.6-.1.5-.5 1.1-2.5.6-.8.5-.1 1.1-.1.5-.1.6-.5.5-.4.5-.4.7-.1.9.3.8.5.8.3 1.1-.4.4-.3.1-.3v-.4l.3-.4v-.2l-.1-.6.1-.3h.5l.3.1.2-.2.2-.6.6-.4.6-.4.5-.4.3-.5.3-.6.2-.6.1-.6-.2-2.1-.7-1.8-2.1-3.3-.2-.2-.3-.2-.1-1.2-2-5.4h-.4v1.3h-.3l-.8-2.2-1.3-2-3.1-3.8-.5-.9-.2-.7v-2.1l.4-1.8v-.9l-.4-.6.4-.3 1.9 1.6 1.2 1.5.5-.4.5-.8.7-1.9.2-1v-1.6l-.2-.6-.9-1.3.1-.4 1.2-.4.1.3.2.2.2.1.1.1.3-.8-.2-.7-.5-.5-.6-.4v-.4l.8-1.3.2-.8v-1l.7-.8.2-1.1-.1-1.2-.4-.8-1.7-1.3-.4-.4-.2-.4-.3-.3-.5-.3v-.6l.3-1.1v-.6l-.1-.7-.4-.2-.5-.2-1.7-.9-1.2.2-1 .8-.6.8.2.3.1.4-.4.1-.2.1-.4.2h-.3l-.1-1.3.1-.6.3-.6-2.1-4.5-1-1.4-1.5-1.4-.7-.5-1.4-.3-.2-.3-.2-.2-.6.2-.1.3v.5l-.1.4-.5.2-.2-3.5.4-1.5 1.4-.6.6-.9-.6-2-1.6-3h-.3l.3.6.2.2.2.2v.4h-.4l-.8-1.2-3.8-4-.5-.3-.9-.1-.5-.3-.3-.6-.4-.6-.7-.3.3-.3-.6-.2-.6-.5-.5-.6-.4-.5-.4-.1 2.1-6.6 1.8-5.7 1.2.2 1.1-.1 1-.6.7-1 .5-1.3-.1-.7-.2-.2v-.3l-.1-.1v-.1l-.1-.3-.1-.2-.4-.9-.3-.5-.5-1.6v-.2l-.1-.6-.1-1.4.3-1.8.8-.5.4-.2.5.3 2.6 2.1.5.6-.1.1-.2.5v.2l.2.1.4.1.1.1 1 1.4.4.5.4.7.5 2.1.1.5.6.5h.2l.9-.1 1.3-1 1-1 1.3-1.3.3-.2.8-.5 6-3.8 1.5-1.3-.3-1-.7-.6-.4-.3-.6-1.5.1-.7 1.5-1.8v-.1l1.3-2.9 1.1-1.1 1.5-.8 1.6-.5.1-.1 1.6-.3h1.8l.3-.2-.4-.8-.5-.5-.5-.4-.5-.5-.3-.7-.1-1v-.2l-.7-2.5-.4-1.5-1.5-2.9-.4-.7-.1-.1-1.2-1.8-1.1-2.3-.4-.5-.7-.3-.6-.1-.7-.2-.6-.9-.4-1.8-.4-3.5-.7-1.8-.9-1.4-.5-.5-.9-.3-1.5.2-.4-.3v-1.2l.4-1.5.3-.4.2-.2 1.4-1.4.1-.1.1-.3.5-1-.1-.9-.2-.6v-.3l.9-.6.8-.1.3-.1h.5l.5-.4.1-.5v-.4l.1-.2.1-.1.1-.1v-.1l.3.1.2.2.3.2.5 1.8.6 1 .6.6.6.7.4.7.3 1 .5 2 .4 1 3.3 2.3 2.5 1 .8.6.5.6 4.1 6.8 1.1.8.7.1 1.4.1h.2zm-22.7 209.1h0l.1-.8.3-.6.6-.5.7-.1.7.1.5-.1.2-.7.2-.4.5-.3.6-.2.6.2.8 1 .3.1.8-.2.7-.4v.3l.1.4-.1.2-.1.3-.3.2-.3.2-.3.1-.4-.1-.2-.1-.6-.7-.5-.1-.6.1-2.3 1.8-2 .3h0zm4.1-5.7 1.1.5 1-.1 1.1-.2.9.2-.9 1.4-.6.6-.7-.2-.9-1.1-1.2.4-1.2.2h-2.7l-1-.2-.6-.1-.8.2-.4.3-.4.5-.3.4-1.9.6-.2.1-.2-.4v-.7l.2-.7.5-.3.7-.2 1.1-1 .6-.2.7.1 1.2.3h.7l-.2-.4-.8-.6-.3-.4h1.7l-1.2-.3.1-.5.9-.6.9-.4-.3-.1-.2-.1-.2-.1h-.4l.1-.3.1-.1.2-.3 1.4.7.7.6.6.7.4.9.7.9h0z"/><path id="COGUA" class="st0" d="M725.8 653.3h0l-.2-.2-1.6-.8-2.3-.7-2.4-.2-1.5-.5-2.6-1.4-5.4-4.4-.3-.9.1-.8 2.1-5.3.6-2.6.2-2.2.1-1.1 1.5-1.2 2-1.3.4-.5 1.3-.8.3-.8-.1-.3-.2-.3-1-1.2-.9-1.4-.7-.5h-.6l-.6.4-.8.3-1.5-.1-.6.1-.2.3v.2l-.3.1h-.9l-1.5.5H707l-.6-.2-.3-.3-.3-.2h-.7l-.9.3h-.8l-.4.2v.7l-.1.5-.5.3-.7-.3-1.2-.7h-.6l-2.8-.9-.7-.1-.7.2-.7.3-.3.2-1.9.3-.1-1-.4-.5-.5-.3h-.3l-1.1-.3-2.5-.7-1-.7-.6-.7-.7-1.5-2.1-4.1-2.5-3.5-1.1-1.1-1.1-.6-1.2-.4-2.5-1.3-2.9-.9-.5-.5.1-.4.6-.5 20.1-8.3 1.6-1.4 4.3-1.8 1.2-.7.6-.7.1-.6.2-.6.4-.6 2.6-1.6.3-1v-1.1l-.2-1.1-.5-.8-.1-.5.2-.3.5-.2.6-.3.2-.4-.1-.5-.4-.3-.5-.2-.7-.1-.5-.1-.2-.3.3-.3.4-.3.4-.4.9-1.5 1.1-1.3.7-.6 1.2-.7.2-.4.2-.2h.2l.7.6.4.2.7-.3.1-.6-.2-.6.1-.7.2-.2h.2l.2.4.2.5.1.4.3.2.5-.3.2-.6-.1-.8-.8-1.4.1-.9.4-.3.5-.1h.3l.1-.3-.2-.4-.4-.6-.7-.6-.4-.6-.1-.7.7-.8.4-.5.2-.7.3-.2v-1.3h2.1l.5-.4.4-2.2.3-.8-1.1-1.6-.3-.5 1-.3h1.4l1.2.1.6.4.2.3.5.3.6.1.5.1 1.4-2 .5-.6.7-.4.9-.1.5.2.4.5.2.6.2.3.1.2.4-.4.5-1 .8-.1 3.5.1 1.3-.2.9-.3h.8l1 .8.9.8.5.2.3-.5.2-2.6.3-.5h.7l.9-.8.2-2-.1-.5-.4-.4.2-.5.5-.3.9-.1.8.1h1.1l1.2-.2 1.5-.7 1-.3.8.3.5.5.5.5.4.2.4-.2.9-.3 1-.2 2-.6h1l.9.6h.4v-.7l.4-.6.7-.2.6.4.4.6.4.5h.6l.6-.1.3.1.6.7.9.3.3.3.1.3-.1.7.1.1h.4l1.2-.9.6-.2.5.3.4.2.5.4.4.1-.2 1.4.3.2.2.4.5.3.7-.2.5-.5.7-1.1.6-.5.6.3 3.3.4.7-.4-.1-2 .3-.8.4-.2h.3l.3.1.4.1v.4l.1.2.2.2h.9l1.7-.9.6-.2.5.3.6.8 1.1-.1v-.9l-.3-1 .7-.5h.5l1 .3h.6l.6-.2.2-.6-.1-.7.1-.6.4-.1 1.1-.2 1.1-.9.6.1.9.4.8.3 1.6-.2.6-.3.5-.5.5-.4.6.1.6.4.5.1.3-.2.4-.8.6-.8.8-.6.7-.2.6-.1.3-.1.2-.5.6-.4.6-.2h.4l-.5-.7-.2-.6.3-.7 1.1-.2h2.2l.4-.3.2-.8.3-.9.6-.6-.3-.6-.6-.8v-.8l.7-.4h1.1l2.2.4 1.1.4.3 1.1.1 1.2.4.8 2-1.1 1.3-.5.5.7-.2.5-.3.5-.1.5.3.4.7.2.6-.4 1.2-1.4.4-.5.6-1.3.4-.6.7-.2.5.5.7 1.3 1 .7.7-.3 1.1-1.8.3.7.1 1.8.3.6.6.1.7-.3 1.2-.9 1.8 1.1 1.9.7 2-.1 2.1-1.5 2.4-3.4.7-.5.9-.4.3.2.5 1.2.1 3.1.3 1.1 2 3.5.5 1.3v.1l-.1.2v.2l.1.2-.1.2.1.1v.2l.1.1.1.1.1 1.1.3 1.2.9 1.1 1 .4.9.1 1-.2 1-.1 1.9.9 1.5 1.9 1.2 3.4-.1.1v.2l.1.2.1.6v.3l.2.1.2.1.1.1.1.1.1.2v.6l.1.1.1.2.1.1.1.1h.1l.7 1.9v.7l.1.3v.3l.1.2.1.3.1.2.1.1.1.1.2.1h.8l.1.1h.2l.1.1.3.2.1.1.2.1.2.1h.2l.2.1.3.2.1.2.1.2.1.3v.3l.1.2.1.2.1.2.1.1.1.1.1.2.1.2v.1l.1.2.1.1v.2h.1v.4l.1.3-.4.6-.2.1-.1.2-.1.1v.1l.1.1-.6.8-1.5 1.9-.1.1h-.2l-.2.1-.1.1-.2.3v.4l-.7.9-.6.5-.6.2-1.1.2-.6.3-.9.9-2.2 2-2.2 2-2.1 2-2.2 2-2.2 2-2.1 2-2.2 2-2.2 2-.6.6-.7.6-1.2 1.1v3.8h.2v.1h.2v-.1h.1v-.1h.7l.1-.1v-.1h.1v-.2l.1-.1v-.1l.1-.1v-.1h-.1v-.1l.1-.1v-.1h.1v-.1l.1-.1v-.1l.1-.1v-.1l.1-.1.1-.1.7-.2h.1l.2.1h.1l.1.1h1.1v-.1h.1l.1-.1h.5l.1-.1.1-.1h.1l.1-.1h.7l.3.4-.1.1-.1.1v.1l.1.2v.1h.2l.1.1.1.1h.2l.2.1h.4l.1.1.3.1.2.1h.4l.2.1h.1l.1.1h.8l.1.1h.1l.1.1h.2l.1.1h.1l.1-.1h.2l.1-.1.1-.1v-.1l.1-.1.1-.1.1-.1h.1l.2-.1h.2l.1-.1h.1l.9.7.7 1.2.4.9.3 2.3.3 1.1.3.3v.9l.1.1v.2l.1.1h.1v.1l.1.1.1.1h.3l.1-.1v-.1l.1-.1.1-.1.1-.1.2-.1v-.1h.1l.1-.1h.3l.1-.1h.1l.1-.1h.3l.1.1h.1l.1.1h.1l.1.1h.1l.1.1h.1l.1-.1h.6l.3.3.1.3.1.1.3 1 .1.2v.1l.1.1v.2l.1.1.1.1h.2l.1-.1 1 .5.2.3.2.5.8.9.2.2.7.2.3.5.3.5.3.6.5.3 1.1.7.5.4.2.4v.2l.1.1.1.1v.1l.1.1v.1l.1.1.1.1.2.1.1.1h.1v.1l.1.1.1.1v.2l.1.1h.1v.1h.1l.1.1h.1v.1l.1.1v.4l.1.2v.1l.1.1.1.1v.1h.1l.1.1h.3v.1h.1v.1h.1l.1.1.1.1.1.1h.3l.1-.1h.3l.1.1h.1l.1.1v.1h.1v.1l.1.1v.1l.2.1.1.1.1.1h.1l.1.1v.1h.1l.1.1h.1l.1.1h.1l.2.1.1.1h.1l.1.1.1.1v.1l.1.1h.1v.1l.1.1v.5l.2.1.1.1.1.2.1.2v.1h.1l.1.1.1.1.2.2.1.2.1.1.1.1.1.2v.3l-.1.1-.1.1-.1.2-.1.2v.1l-.1.1v.1l-.1.1h-.1v.1h-.1l-.1.1-.1.1h-.1v.1h-.1l-.1.1h-.1v.1l-.1.1v.1l-.1.1v.5l.1.1v.1h.1v.4l-.1.2v.4l-.1.1-.1.1v.1l-.1.1v.4l.1.1v.1l.1.2.2.2v.1l.1.1.1.1v.1l.1.1.1.1.1.1v.2h.1v.7l.1.1.1.1.1.2v.5l.1.1v.2l.1.2.1.2.1.2v.1l.1.1v.1l.1.1.1.1v.1h.1v.2h.1v.1l.1.1v.1l.1.1v.1l.1.1.1.1.1.1.1.1.1.1v.1l.1.1v.1h.1v.1h.1v.1h.1l.1.1h.2l.1.1h.1l.1-.1h.1v-.1h.1l.2.1.8.4.3.8.2 2.8-.2.8-.2.4-.8 1.1.1.6.4.5.1.2.1.1.1.1.4.7 1 .6.2.4.1.6.9 1.7 1.5 3.9v.4l.1.2v.4l.1.2v.3l.1.1v.1l.1.1v.1l.1.1h.1l.1.2.2.1v.1l.4 1v.6l.1.1.1.1.2.2 1.2 3.3.1 1.1v2.2l.2 1 .5 1.1 1.1 1.8.5 1.1.2 1.1-.4 2.1.2.7.5.5.6.5.5.5.5 1 .4 1.3.1 1.2-.9 1.9.2 1.2 1.1 2.1-2 .4-3.3.9-4.4 1.3-1-.2-.5-1.3-.1-2.6 1.2-14.6-.5-3.2-1.7-5.4-2-3.9-5.5-7.3-1.2-2.2-1.6-4-1-1.8-1.3-1.3-.8-.4-2.2-.8h-.7l-.5.2-.9.9-.4.3-1.8.2-.9.5-1.4 1.2-1.9 1-3.9 4.1-6.1 8.1-1.5 1.5-2.1 1.1-1.6.6-1.8.4-1.8.1-1.7-.5-1.7-1.4-1.4-2-1-2.2-1.1-3.2-.5-.9-.8-.7-1.2-.5-1-.2-.4-.2-.4-.4-.1-.4v-1l-.3-.3-.4.3-3 7.6-1 1.5.3.2 1.3.2.5.6-.1 1.1.1.9 1.9.1.4.2.1.5v.6l.1.3.4.3.9.5h-60.2l-2.1-.2-3.8-1.7-3.7-.7-2 .1-3.4 1.6-2.1.1-1.1-.1h-.9l-.9.2-2.1 1.1-1 .3h-1.7 0z"/><path id="COVAU" class="st0" d="M725.8 653.3h-.7l.3 1.9v13.9l-.1 3.5v13.5l1.1.1 2.1-1.4 1.3-.3h.7l.6.1.4.3.1 1.1.6.1 4.8-.7 1.2.1 2.2.7.5.1h1.7l1.6-.3.5.1.4.2.3.2.1.3.3.2.9.6.5.1 2.4-1.8.8-.2.9.2 2.5 1.3.7.5.9 1.1.9.5.3.4.2.5v.6l.2.5 1.1.7-.3 1.8.8.8 1.2.4.6.4.3.4v.7l-.4.2-.4.1-.4.2-.1 1 .5 2.3v1.2l-.3.5-.5.4-.4.4.1.7.4.4 1.1.5.4.4.6 1.1.2.9-.3.7-1 .3-.5-.1-.9-.3h-.5l-.4.2-.6.8-.3.2-.9.1-1.8-.3-.9.1.2-1.4-.5-.6h-.9l-1.1.3-1 .5-.4-.2-3.5-3.6-1-.6-1-.3-1.3.2-1 .4-1.6 1.1-1 .1-1 .4-.5 1.2-.7.8-1.7-.3-1.4-.7-.8.1-1.9 1.5-1.8.9-1.9.7-2 .4-3.5.2-1 .3-.9.2-1.2-.2h-1.2l-1.1.5-.9.3-.8-.7-.1 3.5v1.3l-.1 3.4-.1 4.8-.2 5.5-.1 5.5-.2 4.8-.1 3.5v1.2l-.1 2.6.3 1.8.6 1 2 2.3 2.6 2.4 1.1 1.6.5.5 1 .4 2 .4.9.6.3.4.5 1.2.3.5.5.3 1.2.6.5.3 1.6 1.7.7.6 4.1 1.5.8.5.9.7.6.9.4 1 .3 1.2v1.5l.1.5.3.5.3.4.3.4.1.6-.3 1.2-1.6 2.4-.3.9.5 1.2 1.9 2.2.4.7-.1 1.3.1.5.4.7.4.3.4.2.3.3.3.5.1.6-.2.5v.5l.3.7.5.3 1.1.5.4.3 1.2 1.6.3.3h.5l.2.2.2.2.2.3-.1.2.3 1.9-.2.5-.3 1.1v.6l1.9 3.1.6 1.5-1.1 2.8-1.7-2-.2-.6-.3-.4-.6-.2-.2-.1h-.7l-3.6-1.8-.7-.1-2.6 1.5-.6.1-.4-.4-.4-.9-.1-1 .2-.8.4-.8.2-.9-.3-.9-.6-.8-2.1-1.8-.7-.4-.7-.2-.8.3-.4.5-.4 1.4-.6.4h-1l-2.3-.9h-1.3l-.8.5-.7.7-.9.4-1-.1-.7-.6-.1-.7.8-1.6V789l.3-.4.6-.5.3-.2.4-.7.2-.6-.3-.4h-1.1l-.8.3-.8.4-.8.3-1.5-.8-.5.3-.5.6-.6.4h-.7l-.2-.1-1-.6-.6.1-.9.4-1.2 1.6.7 1.2 1.3 1 .6 1.4-.5.9-.8.5-1.1.2-.9-.3-2.5-1.9-.5-.5.1-.7.7-1.3.1-.7-.3-.7-.7.3-1.3 1.1-.9.2-.9-.7-.7-1.1-.3-.9.2-.9.6-.6 1.5-.9 1.1-1.8-1-1.6-1.6-1.6-.5-1.8.6-.7.8-.5.6-.5.1-.7-.5-1.6-.2-.8v-.9l.3-2v-1l-.2-.9-.8-.7-.9.1-.8.3h-.5l-.1-1.2 1.1-1.4 3.2-3 .4-.6-.2-.6-1.1-.6-1.2-.3h-.9l-1 .2-1 .6-.5.6.1 1.4-.4.6-.9.1-2.7-.6-2.1.1-.3-.4.2-.8v-.8l-.4-.9-.6-1-.8-.9-.8-.5-.8-.2-2.6.2-.7-.3-1-1.3-.7-.4h-.6l-1.2.2h-.5l-.6-.3-1.4-1.1-.9-.5-1.2-.4-.9.1-.5.9-.3.7-.6.5-.8.1h-1.8l-.4-.2-.3-.4-1.3-2.6-1.1-3.4-2-2.5v-.6l.2-.6.3-.9v-.8l-.3-.8-.3-.8-1.5-2.2-.7-.7-.6-.4h-.7l-1 .5-.6.1-.9-.3-2-.9-1-.4-1.1-.4-.5-.9-.4-2.1-.8-1h-1l-2.1.9-.8.1-.9-.1-.8-.3-.7-.4-1.2-1.1-1.5-1.5-1.8-.6-1.2-.7-.5-.1-1.6.4-.6.1-.4-.1-.9-.3h-.5l-.8.2-.6.3-.6.1-2.5-1.7-5.1-2.4-.6-.7-1-1.8-.6-.4-1.2-.4-.6-.8-.4-.9-.5-.8-.8-.2-1.5 1.1h-.8l-.3-.7.2-.8.3-.9v-.8l-1.1-.9-2-1.3-1.6-1.3v-1.2l.5-.7v-.8l-.3-.8-.6-.7-.8-.5-.4.2-.2.4-.4.2-.8-.6-.4-.9-.3-2-.5-1.1-.8-.5 9.5-9.9 1.5-1.3 1.6-1.6.4-.7.3-.9.8-1.1.7-.6.9-.2.8.1.7.3h.5l.6-.2 2.3-2.3.9-.7.6-.8.6-1.2.1-.5-.1-.6v-.5l.2-.5.4-.2.7.1.1-.3-.1-.6.1-.7.3-.2.3-.1.3.2.1.4.1.7.1.5.4.5.6.2.5-.1.2-.5-.3-.6-.4-.6-.3-.7-.7-1-.2-.5-.7-1.3.1-.6-.1-1.2v-.5l.1-.5.5-.4 2.3-5.5.4-1.4.3-1.3.6-1.1 1-2.5.5-1.8.4-.8 1.4-1.7.3-1.1.2-1.4.2-4.3.8-.2 1.5 1.2 1.7.6 1 1.1.5.1 1 .2.8-.6 1.1-.9.9-.9 2.4-1.8 4.2-2.2 2.6-1 1.7-.9 1.3-.8 2-2.1.8-1.1.4-.1h.4l.4.1 4.7-.1 1.9.1.6-.1.6.2.5.1.5.3.6.2.7.1.8-.1.9-.1 1.5-.9 3.4-.7 1.1-.4 1.9-.4.6-.3.5-.4.8-.7.9-.5 2-.3h.8l.6-.2h.9l1-.1 1.8-.6 2.2-.6 3-.3.9-.4.6-.5 1.2-1.2 2.2-1.5-.2 2.2-.6 2.6-2.1 5.3-.1.8.3.9 5.4 4.4 2.6 1.4 1.5.5 2.4.2 2.3.7 1.6.8.2.2h0z"/><path id="COAMA" class="st0" d="m747.1 802.5.1 2.3-.8 4.7v2.3l-.9 3.5v1l-.7 2.5-.6 3.2-1.5 8.1-1.4 8.2-1.5 8.2-1.5 8.1-1.5 8.2-1.5 8.2-1.5 8.1-1.5 8.2-1.4 8.2-1.5 8.2-1.5 8.1-1.5 8.2-1.5 8.2-1.5 8.2-1.5 8.2-1.5 8.2v.1l-.1.1v.1l-.1.1v.1l-.1.1-.1.1v.1l-.1.2v.1l-.1.1v.1l-.1.1v.1l-.1.1-.1.1-1.4-2.8-.8-1.3-1.1-1.2-1.5-1.2-5.1-2.6-1.4-1.4-.5-1.7-.3-1.8-.6-1.8-1.2-1.7-1.7-1.7-1.9-1.4-1.9-.7-1.5.1-1 .7-2 1.8-1.3.6h-1.4l-2.7-.7-.5-.4-6.9-3.6-2.2-.2 1.7-2.7 4-6.2 3.9-6.2 4-6.2 4-6.2 4-6.2 3.9-6.2 4-6.3 4-6.2 1.1-1.8-.3-.1-.5-.5-.5-.6-.3-.7-.6-2.2-.6-.4-1 .7-.3.4-.2.6-.3.4-.4.1-.5-.3-.1-.4v-.5l-.1-.5-1-.8-.9.2-.8.4-1-.3-.6-.9-.7-2.2-.6-.9-1.1-.6-1 .4-1 .6-1.2.3-.3-.1-.3-.4-.3-.5v-.4l.3-.2.8-.4.3-.1.2-1.1-.6-.5-1.1-.1h-1.1l-.6.1-1.2.5-.5.1-.6-.3-.3-.5-.1-.5-.3-.5-.7-.6-.9-.4-.9-.3-.9-.1-.7-.4-.7-.7-.6-.5-.9.6-.1.5v1l-.4.2H685l-.4-.2-.1-.7v-1.2l-.3-.5-1.6-1.4-.2-.1v-1.4l-.2-.4-.2-.3-1.3-.1-1-.3-1.8-.6-1.8-1.2-2.6-2.8-1.5-.9-1.1.5-1.3-.3-2.1-.9H666l-.5.7.1 1.1.5 1.3-.5.3h-.6l-.6-.1-1.3-.8h-.6l-1.5.3-1.1.5-1 2.4-1.4.7-1 .8-.5.1-.6-.2-.6-.4-.5-.2-.8.3-1 .6-1 .2-.4-.7-3.6 1.8-1.7.3-.6-1 .2-.4.7-.6.2-.5-.2-.5-1.2-1.5-.9-1.6-.5-.2-.7.8-.5 1.9-.4.6-.8-.4-.4-.8v-2.1l-.3-1-.5-.4-3-.6-1-.6-1-.7-1-.6-1.1-.2-1.7.9-1 .1-.5-.8.1-1.8-.4-.3-1.1.5-2.9 1.9h-.5l-.3.5-1.8 2.8-2.4 1.9-.4.4-.2 1.1-.6.6-.9.2-3.2-.4h-1.6l-1.5.6-1.4 1.2-2.2 2.6-.8.2-3.2-.8-.5.1-1.3.2-.3.3v1l-.1.3-.4.2-1.2.1-2 .5-1.2.1-.9-.2-.9-.5-.7-.6-.2-.6-.5-.4-5.2-.8-.9-.3-2.3-1.9-.9-.4-1-.2-.6.8-1.3 2.8-.7.6-.8.3-.3-.1-.2-1.4-.1-.5-.2-.4-.3-.4-.6.3-.4.4-.3.5-.1.6-1.3-1-.9-.3-1.2.7-1.5.5-.6.6-.7.2-2.1.4h-.5l-.4-.3-.5-.8-.9-2.4-.7-.6-.2-.3-3.4-1.9-.2.5-.6 1.2-.6.6-.3-1.1-.5-.4-2.2-.6-.8-.6-.2-.3-.2-1.6-.2-.2-.7-.6-.1-.2-.1-.3-.5-.8-.1-.5.1-.5.1-.3.5-.6 1.8-1.6.5-1.1 1.5-2.5-.7-.6-.4-1.1-.3-1.2-.3-.9-.9-1.3-.3-.7-.2-.8v-.7l.6-1.3.1-.4-.3-.9-1.2-1.4-.3-.7.4-1.9-.4-.5-.4-.3-.5-.2-.4-.4-1.4-1.5h-.5l-.2 1.4-.3.1-1.7-.4-.8.1-.8.8-.4.6-.5-.1-1.3-1.1-.6-.4-.6-.1h-.6l-.7-.1-.5.1h-.3v-.2l-.2-.7-.1-.2-3.3-2-1-1.2.1-2 .6-1.7.4-.8 1.3-.7v-.9l-.5-2.2-.1-.6v-.6l-.1-.5-.4-.5-1-.8-.6-.9-1.9-.9-.4-.7.8-1 .2-.5-.8-.4-.3-.3-.2-.4-.1-.4-.1-1.1-.1-.4-.1-.4h-.2l-.7.1-.2-.1-.1-.2-.1-.6-.3-.7-.2-.6-.2-.5-1.2-.3-1-.7-.5-.2-1.2-.2-1-.5-.7-.8-.4-.9-.8.3-.8 1.3-.8.4h-.6l-.8-.1-1.4-.5-.7-.5-.5-.5-.9-1.4-.8-2-.3-.5-.8-.3-1.6.3-.7-.3-.1-.5.5-.8v-.5l-.5-.3-.2.1-.2.3-.2.3-.5.2-.3.3-.3.1-.6-.3-.4-.3-.3-.5-1.2-3.5-.5-.5-.8 1.4-1.4.1-3.1-1.2-3-.5-1.3-.8-1.2-1.5-.7-2.3-.5-.6-1.3-.9-.3-.4.4-.6.6-.2.8.2h.7l.3-.6-.3-.6-.5-.6-.3-.5.4-.9-.4-.1-.8-.1-.5-.1-.4-.2-1.7-1.9-.3-.8v-.9l.2-.5.7-.5.1-.4-2.4-5.2-.1-.5 27.8-8.6 3.9.7h.9l.7-.3 1.4-.8h.8l.9.4 1.5 1 .2.1h.3l.3.1.3.2.1.4-.2.9.1.4.2.2.2.1.2.1h.7l.6-.1.5.1.5.4.6 1.5.4.7.6.3 3.9.6 2.2-.1 2.3.1 1.1-.2.9-.5.5-.4.4-.1.9.2 1.7 1.3 1.8 1.9 2 1.5 2 .2 1.8-.4h1.3l1.2-.4 1.2-1.2 3-2.2 5.8 3.8 3.5-.6 1.8-1.2 1.5-.3 1.5.6 5.3 4.3 1.3.9 1.3.6.7-.1.5-.7.7-1.1 2.4-2.7 1.6-1.4 1.3-.5 1.6.9 1.6 1.6 1.7 1.1 2.3-.4 1.3-1.1.6-.6.2-1 .1-.3-.1-1.4V765l.3-1.6.9-1.3 1.1-1.2.9-1.2 1.6-2.6.8-.8 2.7-1.5 1.9-1.9 1.3-.6 1.5-.2 6.9.1 2-.4 1.6-.7 1.1-1 .7-1.6.6-2.2 1.9-2.2 3.2-2.2 9.4-4.1 2.6-1.5 3.4-3.3 1.2 1.1.7.4.8.3.9.1.8-.1 2.1-.9h1l.8 1 .4 2.1.5.9 1.1.4 1 .4 2 .9.9.3.6-.1 1-.5h.7l.6.4.7.7 1.5 2.2.3.8.3.8v.8l-.3.9-.2.6v.6l2 2.5 1.1 3.4 1.3 2.6.3.4.4.2h1.8l.8-.1.6-.5.3-.7.5-.9.9-.1 1.2.4.9.5 1.4 1.1.6.3h.5l1.2-.2h.6l.7.4 1 1.3.7.3 2.6-.2.8.2.8.5.8.9.6 1 .4.9v.8l-.2.8.3.4 2.1-.1 2.7.6.9-.1.4-.6-.1-1.4.5-.6 1-.6 1-.2h.9l1.2.3 1.1.6.2.6-.4.6-3.2 3-1.1 1.4.1 1.2h.5l.8-.3.9-.1.8.7.2.9v1l-.3 2v.9l.2.8.5 1.6-.1.7-.6.5-.8.5-.6.7.5 1.8 1.6 1.6 1 1.6-1.1 1.8-1.5.9-.6.6-.2.9.3.9.7 1.1.9.7.9-.2 1.3-1.1.7-.3.3.7-.1.7-.7 1.3-.1.7.5.5 2.5 1.9.9.3 1.1-.2.8-.5.5-.9-.6-1.4-1.3-1-.7-1.2 1.2-1.6.9-.4.6-.1 1 .6.2.1h.7l.6-.4.5-.6.5-.3 1.5.8.8-.3.8-.4.8-.3h1.1l.3.4-.2.6-.4.7-.3.2-.6.5-.3.4v1.3l-.8 1.6.1.7.7.6 1 .1.9-.4.7-.7.8-.5h1.3l2.3.9h1l.6-.4.4-1.4.4-.5.8-.3.7.2.7.4 2.1 1.8.6.8.3.9-.2.9-.4.8-.2.8.1 1 .4.9.4.4.6-.1 2.6-1.5.7.1 3.6 1.8h.7l.2.1.6.2.3.4.2.6 1.7 2h0z"/><path id="COLAG" class="st0" d="m570.1 208.6-1.2.3-2 .8-.8.2-.9.1h-.9l-.8-.2-.8-.3-.8-.2-1 .1-.9.4-.8.2-.5-.2-.2-.9-.4-.7-.5-.7-1-.4.3-.6.3-.4.6-.4 1-1.8.7-.4.6-1.8.7-.8.4-1.3.2-.6.6-.8-.5-.8-1.9-1.7-2.1-1.2-1.5-.4-1.4-.8-1.4-.4-.4-.8v-.5l.3-.7v-.6l-.2-1.4-.2-.8-.6-.9-.7-.5-.9.1-1.8-.3-1.4-.1-1.1-.2-3.3-.2-7.8 1.1-1.1-3.8-.2-2.1-.3-.7-.6-1-.1-.4.1-.5.3-1.2.3-.8.1-2.7.1-.6v-.6l-.2-.8.1-.3.2-.2.4-.1.4-.2.2-.2.7-.8.2-.2.4-.2.2-.5 1-2.9-.1-1.3v-.2h8.2l5.6-.8.5-.3.3-.5 1.6-1.2 1.3-.7.2-.2.4-.4.6-1.3.3-.2.5-.1.5-.5.7-1 .6-.4 1.6-.8 2.9-2.8 6.2-3.2 8.8-7.3.9-.5 1.9-.7 3.1-.7.7-.3 1.6-1.1 1 .3 1.1-.6 1.1-.8 1.2-.4 3-.1.9-.2.8-.5 1.3-1.1 1.7-.4 2.2-1.6 2.6-1.1.7-.8.9-.9.2-.5.1-.5.6-1.9 1.9-2.8.5-1.7 1.1-1.6.3-.6.1-1-.2-2.9-.2-1.1-.3-.4-.5-.4-.4-.3-.2.1.1-.7.5-.4 1.1-.7 1.6.5 5.2-.9 1.8.4-.2 1-2.1 2.2.8.4.7 1.3.9.4 1.5-.7.3-.2.1-.6.4-.6.4-.5.5-.2.6-.1.7.1h.6l.2-.5-.2-.6-.4-.4-.2-.5.4-.5-.5-.4-.3-.4-.3-.4-.6-.2-.7-.1-.6.1-.5.3-.3.4h-.4l-.3-.7 2.3-1.6 1.9-1.6.1-.3.2-.7.2-.1.9.1.3-.1.7-.6h.4l.6.3-.9.4-.6.6-.2.7.7.8.3.2h.3l.8-.2v-.2l-.1-.2v-.3l.2-.1.7.1.2-.1 1-.5.6-.4.3-.6.2-1h-.1l-.3-.1-.2-.1.2-.5.4-.3.4-.2.5-.2h.5l-.3.9.3.5.5.4.2.7h.3l.1-.2.2-.3.1-.4-.2-.2-.4-.1.3-.2.4-.3.2-.1.6-.3.7-.2.7-.3.5-.6-.7.1-.5.2-.4.3-.4.1-.5-.2.1-.4.5-.4.5-.4h-.6l-.5.1-.4.2-.3.4.1-.8.1-.3.2-.3-.7.4-1.3 1.2-.5.5-.3-.3.5-1 .8-.8.9-.5 1.1-.2 1 .1 1.5.7 1.1.3h3.7l1 .2 1.1.5 1.5 1 .7.7.4.2.6.2h1.9l.4.2 1 .7 1.1.4 2.3.5 1.7.8.9.8.6.8.2.3.2.4.2 1 3.1 5.3.3 1.4 2 2.9.3 1-.3 1.1-.7 1.1-.6.8-1.3 1-3.5 2-1.1 1.1-.7.4-.8.3-.7.2-.3.4-.9 2.8-.3.4H649l-.9.5-1.7 1.5-2 .8-1.4.4-3 .8-2.9.7-3 .8-3 .8-3 .8-2.9.7-3 .8-3 .8-1.3.3-1 .7-.8 1.3-.5.9-1.6 2.9-1.5 2.8-1.5 2.8-1.5 2.8-1.5 2.9-1.5 2.8-1.5 2.8-1.5 2.9-.6.6-.8.3-1.9-.5-1-.1-1 .2-2.9 1-2.1.1-1.1.2-.9.6-.3.5v.9l-.1.5-.4.6-1 1-.4.6-1.7 4.3-.9 1.3-1 .9-2.2 1.6-1.3 1.5-1.2 2.3-2.4 7-1.4 2.2-3.1 3.7-1 2.7-.7.9-.8.9-.8 1.1-.4 1v.2h0z"/><path id="COCES" class="st0" d="m535.1 187.1 7.8-1.1 3.3.2 1.1.2 1.4.1 1.8.3.9-.1.7.5.6.9.2.8.2 1.4v.6l-.3.7v.5l.4.8 1.4.4 1.4.8 1.5.4 2.1 1.2 1.9 1.7.5.8-.6.8-.2.6-.4 1.3-.7.8-.6 1.8-.7.4-1 1.8-.6.4-.3.4-.3.6 1 .4.5.7.4.7.2.9.5.2.8-.2.9-.4 1-.1.8.2.8.3.8.2h.9l.9-.1.8-.2 2-.8 1.2-.3v1.8l-1 11.2-2.7 9.1v2l-.2 1.1v.1h-.1v.3l-.1.1v.1l-.1.1v.2h.1v1.1l.2 1v.3h.1l.4.9.2 1-.4 1.3-1.5 3.3-2.8 4.3-1.3 3.5-.5.9-.8.9-2.1 1.3-.7.7-1 2.2-4 6-1.8 4.4-.6 1.1-.9.8-1.9 1.3-.6 1v1.1l.7.5.7-.1-2.3.6-.4.2-1 1.7.2 2-.6 7 .2 2.1v.4l-.4 1.4.7 2.5.4 1.2v.6l-.2.5-.7.7-1.3.8-.3.3-.2.4.2.5v.3l-.2.4-.5.5-1.8 1.5-.7.6-.4.5-.4.6-.2.5-.2.8v1l.5 1.3 1.5 2 .9 2.3.3.2.4.7-.6 2.1-1.2 1.4-.1.4.1.2.3.1.9.1.3.1.4.2.3.2.8.6.1 1.1.2.3.3.2.3-.1.4-.8.3-.4 1.5-1.2-.3-1.9v-.3l-.4-.6-.2-.8v-.2l.2-.4.5-.1.7.1 1.1.1.6.4.4.3.1 2.3-.7 3.2-.8 1.8-.4 1.5-.5 1-.4 1.1-.2 1.1.2 4 .7.4.8 1.8v2.1l.2.7.6.7 2.2.2.7 1 .5.2h.2l.2.2.1.2v1l-.2.8-.6.8-.5.6-.6.4-.9.4-.4.3-.3.6-.1.9.1 1.8-.1 1.1-.1.5-.3.4-1.1 1.5-.5.8-.5.6-.6.7-.7.7-1 .7-1.6.7-.6.2-.5-.1-.5-.2-.9-.8-.4-.2-.5-.1-.5-.2-.4-.3-.6-.7-.4-.3-.5-.1-1.9-.4-.2-.1.7.6-6.4-.3.1-1.5.2-.3.3-.6v-.5l-.1-.5-.2-.7.1-.5.3-.5.8-.9.3-.2.6-.4 1.4-1.2.4-.9v-.9l-.3-.9-.2-.3-.1-.2-.4-.3-.2-.1-.4-.4-.1-.1-.2-.1h-.4l-.2-.1-.2-.2-.3-.3v-1l-2.1-3.6-.4-1.1-.1-.7-.3-2.5.1-.5-.2-.5-.1-.9-.3-.5v-.3l.1-.2.5-.5.1-.1.1-.6.4-1 .1-.5.1-1.4-.1-.2.2-.4.5-.7.1-.3-.2-.6-.3-.4-.2-.5.5-.8.2-.8-.4-3.6-.4-1.2-1.1-2-.2-1.2v-1.7l-.2-.6-.9-1.2-.3-.5-.3-1-.1-3.4.2-1.1 1-1.8.2-1.1-.2-1.5-.6-1-1.8-1.6-.8-1 1.4-4.2.5-1 .5-1.5 1.2-1.9-1.3-1.8-1.5-1.4-.6-1.2-.3-1v-.9l-.3-.4h-.3l-.4.1h-.5l-2-.4-.6-.3-.2-.3-.2-.4-.1-.2v-.3l.1-.2.2-.3.2-.2.1-.2v-.7l-.1-.4-.1-1.8-.2-.4-.3-.3-.5-.3-.4-.4-.6-1.1-.3-2.9-.9-.8-1-.6-2.2-2-2.8-1.7 1.5-1 2.5-2.9.8-.5.8-.3 1.1-.2.4.1.4.1.6.2h.8l.4.1.7.5.4.2h1.9l.4.1h.5l.5-.2 2.1-1.3h.4l.2.1.2.3.2.3.3.3.8-1-1.6-4.9-1.4-2.4.3-.8v-.4l-.2-1.4-2.2-2-.5-.4-2.9-4-.9-.7-.7-.5-.7-.4-.5-.6-1.4-2.2-1.6-2.7-.1-.6v-.7l.2-.6.4-1.6.3-2.5.9-1.2.5-1.1.5-.6.8-1.1 1.5-1.6.6-.8.4-1.3.4-.9 1-1 .7-.6.7-.3 1.8-.3.6-.2h.9l.4.2h.6l1.9-.6 1.8-1.3.7-.2.8-.3.7-.9.5-.2h.6l.7-.1.4-.4.3-.8.2-.4.4-.2 1.5-.4 1.1-.6.4-.4v-.6l-.5-.4-.4-.2-.3-.3-.2-.4.2-.8v-.8l-.3-1.9-.2-.8-.5-.9 1.4-2.6.6-.6.7-1-.1-.7-.6-.6-.8-.4-.8-.2h-1.6l-.4-.2.3-.7 1.7-2.6v-.5h0z"/><path id="CONSA" class="st0" d="m534.1 346.8-.7-.6.2.1 1.9.4.5.1.4.3.6.7.4.3.5.2.5.1.4.2.9.8.5.2.5.1.6-.2 1.6-.7 1-.7.7-.7.6-.7.5-.6.5-.8 1.1-1.5.3-.4.1-.5.1-1.1-.1-1.8.1-.9.3-.6.4-.3.9-.4.6-.4.5-.6.6-.8.2-.8v-1l-.1-.2-.2-.2h-.2l-.5-.2-.7-1-2.2-.2-.6-.7-.2-.7v-2.1l-.8-1.8-.7-.4-.2-4 .2-1.1.4-1.1.5-1 .4-1.5.8-1.8.7-3.2-.1-2.3-.4-.3-.6-.4-1.1-.1-.7-.1-.5.1-.2.4v.2l.2.8.4.6v.3l.3 1.9-1.5 1.2-.3.4-.4.8-.3.1-.3-.2-.2-.3-.1-1.1-.8-.6-.3-.2-.4-.2-.3-.1-.9-.1-.3-.1-.1-.2.1-.4 1.2-1.4.6-2.1-.4-.7-.3-.2-.9-2.3-1.5-2-.5-1.3v-1l.2-.8.2-.5.4-.6.4-.5.7-.6 1.8-1.5.5-.5.2-.4v-.3l-.2-.5.2-.4.3-.3 1.3-.8.7-.7.2-.5v-.6l-.4-1.2-.7-2.5.4-1.4v-.4l-.2-2.1.6-7-.2-2 1-1.7.4-.2 2.3-.6 3.8-.1v.1h.1l.1.1h.1l.1.1h.2v-.1h.2v-.1l.1.1h.3l.1.1h.4v.1-.1h.2l-.1.1.1.1h.1l.1-.1.1-.1v-.2h.1v-.1h.1v.1h.1v-.1h.1v-.1l1.3-.2.5-.3h.2v.1h.1l.1.1h.1v.1-.1h.6v-.1h.3l.1-.1v-.2h.2v-.2h.2v-.1h.1v-.1h.2l.1-.1h-.1v-.1h.2v-.1l.1-.1.1-.1v-.1h-.1v-.4h.3v-.1l.1.1v-.1h.2v-.2h.1v.1h.1v-.1l.1-.1h.1v-.3h.1v-.2h.4v.1l.1-.1h.1v-.1l.1-.1.1.1.1.1.1-.1h.1v.1h.1v-.1h.1v-.1.1h.2v.1h.1v.1h.6v-.3h.1v-.2h.1v-.1h.1v-.1h.2v.1-.1l.1-.1h.1v-.2h-.2v-.4h.1l.4-.5v.1h.1l.1.1v-.2h.3l.1.1h.1v.1h.3v-.1h.3v-.2h-.1v-.2h.1l.1-.1v-.1l.1-.1v-.3h.1l.1-.1.1-.1h.1v.2h.1l.1.1v-.1h.1v-.2h.1v-.1h.1l.1-.1h.3l.1-.1h.2l.1.1v.1h.1v.2h-.1v.2l-.1.1v.1h.1v.1h.3l.2.6-.1.1.1.1v.1l.1.1.1.1v.2l-.3.4v.2l.2.3.2.1-.1.1h-.3v.3h.4v-.1h.2l.1.1v.1h.1v.1l.2 1.2-.1 2.2v.1h-.1v.1h-.2v.1h-.1v.1l.1.1h.2v.1h.1l.1.1h.1l.1.4.9 1.3.4.1h-.1v.1h-.1v.2l.1.1v.1h.5v.1h.1v.2l.1.1h.3l.1-.1h.2v-.1h.1v-.2h.1v-.1h.3l.1-.1h.1v-.1h.7v-.3h.5v-.3h.1v-.2h-.2v-.1h.1v-.1h.1v-.1h-.1v-.2h.1v-.3h.1l.3-.2h.1v.1h.2v.1h.7v-.1h.6v.1h.1v.1h.1v.1h.1l.1.1h.2v.1h.5v-.6l-.1-.1v-.2l.8.7-.1.1-.1.1h.1v.1h.1v-.1h.1l.1-.1.4.3v.3h-.1v.2h.1v.2h.2v-.1h.1v-.1l.1-.1v-.1l.2.4-.8 1.2.9 1 .3 1 .5 2.2.6 2.3.6 2.2.6 2.3.6 2.2.6 2.2.5 2.3.6 2.2.6 2.1 1 1.7v.2h.2l.7.8 1 1.1 1 1.1 1 1 1 1.1 1 1.1 1 1.1 1 1.1 1 1 1.2 1.3.6.5.3.2.2.1.3.4.1-.1h.3v.1h.2v.1h.2v.1h.1v.1h.1v.3h-.2l-.1.1h-.1v.2h.2-.1.2v-.1h.1v-.1h.1l.1-.1v-.1.1l.4.6.1.1.1.1.1.2.1.3.1.3.1.9v.3l-.1.5-.4 1.7-.1.8.3 1.1.8 1.6.2.3v.1l.1.2.1.1.1.1.1.3.1.1.1.2v.1l.1.1v.2l.1.2 1 3.1.1 2-.8 1-.1.1h-.8l-1.1-.1-.9.1-.3.5-.2.2-.1.2-.2.9v.1l-.4.8-.5.6h-.1v.1l-.1.1-.6.5h-.1l-.5.3-.4.1-.2.1-.4.3-.2.6.1.2v.1l.1.2.1.1 1 1.1.3.6.1.1v.2l.1.4v.2l.2 2.2-.1.9-.1.1v.1l-.1.3-.7 2v.1l-.1.2v.3l-.5 5.3.1 1.1.7 2 .2 1-.2 1.1-.4 1-.3 1.1.1 1.2 1.4 2.2.5.4 1.4 1 .3.1-.1.1v.1h-.2v.4h.4l1.3.1h.5v.1h.3l.1.1h.3v-.1h.4v.1h.1v.1h.1l.1.1h.1v.1h.1l.1.1.1.1.1.1.1.1h.1l.1.1v.1h.3l.1-.1h.1l.1-.1h.2v-.2h.1l.1-.1v-.1h.1v-.1h.7v.1h.3v.1h.2v.1h.3v.1h.4v-.1h.1v.1h.1l.1.1h.2v.1h.1l.1-.1h.2v-.2h.1v-.1l.1-.1h.1l.1-.1h.4l1.4.4 1.8 2.3.2.2.2.2-.5 2.1-.1.4.1.9v.2h-.1v.1h.2v.4l.4 1.4.5 1.5 2.8 5.4.9 1 .5.4.7.3.3.5.2.3v-.1l.3.1.2.1h.6l1 .8.6.3v.1l-2-.1-1-.5-1-.4-1.4-.3-4.1-.1-1.1.3-.3.4-.2.4-.1.4-.1.4-.3.4-.5.5-.5.3-.5.1-.3-.2-.3-1-1.2-.3-.9 1.8-.6 1.4-.5.8-.6.7-1.4 1.3-.8.5-1 .2-1-.2-2.9-1.6-1.3-.3-.4.7-.2.3-.3.3-.2.2-1 .1-.2-1.4.2-1.5-.1-.8-.2-1.2-.1-.6-.3-.4-.3-.1-.5-.1-.4.1h-.3l-.6.3-1.4.3-.4-.1-.4-.1-.3-.1-.2.1-.2.2-.2.5-.1.2-.3.2-.1-.2-.2-.8-.3-.5-.3-.2-.4.1h-1l-.2.1-.4.2-.9.5-1.3-1.2-.6-.4-.5-.6-.4-.2-1.3-.3-1.1-.2-1.4-.6-.2-.1-.3-.8 1.8-2.9.7-.9.3-.7v-.2l-.1-.3-.1-.4V374l-.1-.3-.5-.2-.3-.3-.2-.2-.4-.6-.2-.2-.7-1 1.9-2.3.1-2.8-.7-.3-.1-.1v-.4l-.5-.6-1.5-2.3-.3-1 .1-.7-.1-.7-3.6-2.9-.5-.7-.2-.7-.4-1.7.1-.3v-.2l.2-.5-1.9-.4-1 .3-.4.4-.9-.3h-.9l-.2-.1-.2-.1-.3-.1h-1.7l-1.6-.2h-1l-.3-.1-.2-.1-.2-.1-.6-.1-.4.1-.4.4-.8 1.2-.5 2.3-.2.4-.9-.1-1.5-.1-1.7.1-.9-.2-.6-.1-.2-.5-.9-.6-2.8-.4-1-.2-.7-.3-.7-.5-.4-.3-.5-.9-.1-.1v-.2l-.1-.2-.1-.4-1.3-1.4-1.2-1.1-1.2-.6-.5-.3-.4-.4-.8-.9h0z"/><path id="COARA" class="st0" d="m618.3 384 4.2 1 1.7.1.7-.1.6-.3.5-.5.6-.4h.6l.5.1.3-.2-.1-.9h1.5l1.2-.2h1v-.1h.2l1.4.4-.1-.4h.3l.1.1h.2l.2-.2.1-.1.1-.1.1-.1v-.2l.1-.1v-.1l.2-.1h.5l.2.1.1.1.2.2.2.1h.5l.2.3.6.4h.1v.1l.1.1v.4l.1.1h.2l.1-.1h.1v-.1l.1-.1.1-.1.1-.1.2-.1h.1l.2-.1.2.1h.4l.2-.1v.1h1l.1-.1h.2l.1.1.1.1.1.1.1.1h.3v-.1l.1-.1v-.1l.1-.1.1-.2.6.2.1.1v.1l.1.1v.2l.1.1v.1h.1l.2.1.1-.1h.1l.1-.1.3.3.5-.1v.1l.1.1h.3l.1-.1v-.1l-.1-.1v-.1l.7-.3.4-.2.8-.2.8.1.7.2v.1l.1.1v.1h.1v.1h.1l.1.1h.5l.2-.1.1-.1h.5l.2.1h.3l.1.1.1-.1h.6l.1-.1h.1l.1-.1h.3l.2-.1.1-.1h.1l.1-.1.5.1.5.3.1.6v.7l.3.5.6.3 2.5.1.6.2.4.4.5.1.9-.3.6-.4.5-.5.4-.3 2 .2h.1l.1.1v.1h.1v.1h.1l.1-.1h.2l.1.1h.1v.1h.2l.1-.1h.2v.1h.2l.1-.1h.2l.1.1h.6l.1-.1h.3v.1l.2.1h.1v.1h.2l.1.1h.4l.1-.1h.1l.1-.1h.3l.1-.1h.2v-.1h.3v-.1l.1-.1v-.2h.1v-.1h.1l.1-.1v-.3h.4l.1-.1v-.1h.1l.7-.3.5-.3h.2l.1.1h.1l.1.1h.1v-.1l.1-.1v-.1l.1-.1.1-.1h.5l.1-.1h.1v-.3h-.1l-.1-.1h-.1v-.2l.3-.2.3-.3v.1h.1l.1.1h.2v-.1h.1l.1-.1v-.1l.1-.1v-.1l.1-.1v-.1l.1-.1v-.1l.1-.1h.1v-.1h.2l.1-.1h.7l.1.1v.2l.1.1h.1v.1h.7l.1-.1h.1v-.1h-.2v-.2l.1-.1v-.1h.1l.1-.1v-.1h-.2v.1h-.3l-.1-.1v-.1h.1v-.1l.3-.1.1.1h.2l.1-.1.1-.1h.3v.2h.4l.1.1v.1h.2v-.1l.1-.1v-.2h.4l.1-.1h.2l.1-.1h.9l.1.1v.1h.1l.1.1h.1l.1-.1h.1v-.2l.1-.1v-.2h.1v-.1h.3v-.1h-.1l.6-.1.1.1h.2v.1h.2l.1.1h.4l.1-.1h.3v-.1h.3l.1-.1h.5l.1.1h.3v-.1h.2l.1-.1.6.6.5.2 1.5.3v.3h.2l.1-.1h.2l.1.1h.2v-.1h.2v.1h.1v.1h.5v.1h.1l.1.1h.1v-.1h.4l.1-.1h.2v-.1h.4l-.1-.1v-.2h.1v-.1h.2v.1h.2v-.1h.1v-.1l.1-.1v.1l2.6 3.2.5.3.4.1v.1h1.1v.1h.2v.1h.2v.1h.3l.1-.1h-.1.1v-.1h.1v.1h.2v-.3h.4l.1.1h-.3v.1h.3v.1h.2l.2.3.2.2.7.2v.1h.1v.1h.1l.1.1v.1h.2l.1-.1 2.6 1.2v.2h.2v-.1l.2.1-.1.1v.1h.1l.1-.1h.1v.2h.1v.1h.1v.1l.1.1h.1v-.1h.2v.1h.1v.1h.4v.1l.1.1v.1h.7v-.1h.6v.1h.1l.1.1h.1l.1-.1h.2v-.1l.3-.1h.1v.1h.2v-.1h.1v-.1h.5l.1-.1.1-.1h.1v-.1h.1v-.1h.1v-.1l.1-.1h.1v-.2l.1-.1h.2l.1-.1h.1v-.1h.3l.1-.1h.1v-.1h.1v-.1l1.3-.4h.6v-.1h.2l.1.1h.2v-.1h.2l.1.1h.2v-.1h.7l1.4.3 1.7 1.4.9 1.1 3.8 4.9 3.8 4.9 3.9 4.9 3.8 4.8 3.9 4.9 3.8 4.9 3.8 4.8 3.9 4.9 1.5 1.9h.2l.1.1-4.8 2.9-2 .4-10.8-.4-1.7.4-1.4.9-.5.6-1.7-.8-.8-1v-.9l-.2-.4-.4-.5-1.2-1-1-.5-3.3-1.3-.7-.5-.3-.6-.1-.6-.3-.5-.4-.4-1.5-.9-.4-.3-.6-.9-.4-.3-1.7-.8-.7-.1-1.3-.2h-1.7l-1.5.2h-2.1l-1.6-.5-1-.1-1.3.1-3.5 1.3-2.1 1-1.1.3h-1.9l-2.6.2-4 .6h-2.8l-.2-.1-2-.9-.9-.2-1.1.2-1 .3-1.2.4h-.5l-4.8-.3-3.7-1.3-1.7-.3h-2.7l-1.2-.1-1.6-.7-1.7-.3-1 .7-.8-.1-.8.2-.6-.1-.6.1-1.2.8-1.9.8h-1.5l-1 .2-.8.2-.7.4-2 .7-1.3.1-1.1-.1h-.9l-1.5.4-.8-.2-1.3-.7-.5-.1-.8.1-1.1.4h-3.8l-1.4.3-5.4 2-1.6.2-.9-.2h-1.1l-1 .3-2.9 1.3-2.8.7-2.9 2.1h-.8l-1.2-.3-1.7-1.1-2-1-.9-.6-.7-.6-1.2-2.4-2-2-1.1-1.9-.3-1.3v-.5l.2-.6 1.3-2.1 1.3-1.2.4-1.2v-.7l.3-.5.5-.5.4-.3h.5l.2.3.3.2.4.1.4-.3.5-.6.5-.6.5-.4.5-.2h.7l.9-.4.6-.7.5-.8.5-1.8 1.2-9.7.4-.9 1.1-.5 1-1.3.6-2.2 1-1.8 1.9-4.9.6-1 .3-1.3.1-.2h0z"/><path id="COBOY" class="st0" d="m590.9 388.6 1.3.3 2.9 1.6 1 .2 1-.2.8-.5 1.4-1.3.6-.7.5-.8.6-1.4.9-1.8 1.2.3.3 1 .3.2.5-.1.5-.3.5-.5.3-.4.1-.4.1-.4.2-.4.3-.4 1.1-.3 4.1.1 1.4.3 1 .4 1 .5 2 .1 1.5.3-.1.2-.3 1.3-.6 1-1.9 4.9-1 1.8-.6 2.2-1 1.3-1.1.5-.4.9-1.2 9.7-.5 1.8-.5.8-.6.7-.9.4h-.7l-.5.2-.5.4-.5.6-.5.6-.4.3-.4-.1-.3-.2-.2-.3h-.5l-.4.3-.5.5-.3.5v.7l-.4 1.2-1.3 1.2-1.7.8-2.1 3.5-1 3.2v.5l.1.4.8.4.3.3.2 1.2.4.7.1.7.4.6 1.5 1.6-.1 1-.8 1.3-.4 2.6-1.1 3.7-.2.4-1.2.3-.8.3-.5.4-.3.4v1l4.9 2.6 2 1.5.4 1.2 1 .8 1.2 1.6 1.1 1-.7.7-.4.1-.3.4-.3.5-.2 1-.2.6-.2.6-.7.6-.3.6-.1.4-.7 3.5-.4.3-.4-.1-.7-.4-1.1-.8-.3-.4-.5-.8-.3-.5-.3-.2h-.5l-.6.3-1.2 1.4-5.6 6-1.1 1.9-.7 1.1-2.2 1.2-2.9 2.6h-1l-1.4-1.9-.9-.8-1.3-1.8-.4-.4-1-.5-1.1 1-.6.3-.8.7-.8.9-2.8 4-.5.4.2 1.8-.4.4-.1.3-.2.5-.2 1.1v.7l.2.7.5.9 1.3 1 .4.7-.8 1.4-.3 1.2-.3.5-.9.8-1.1 1.4-2-.9-.7.1-.3.4-.7 3.4-.2 2.3-.8 2.2-.2 1 1 2.9-.2 1h-.7l-.3.3-.1.2.1.3-.1.3-.1.3-.6 1-.2.4-.4.4-.6.4-2.1.1-2.1-.8h-1.1l-.4-.9-.2-1.5-.4-.3-.5-.2h-1l-.9.3-.6-.1-.4-.4-.2-.6-1.1-1.7-1.9-.7-.1-.4.2-.8-.4-.5-.7-.9-.8-1.2-.4-.3-1.5-.5h-4.2l-1.1-1.6v-.7l1.6-3-.2-1.6 2-1.5.1-.7-.8-1.4-.1-1.1.2-.8-.2-.5-1.2-2.2-.4-1.4.2-1.3-.8-1.3-.2-.4-.9-.7-1.3-1-.3-.6-.2-.7.1-.6.2-.7.3-.6-.4-.5v-.5l-.5-.3-2.1-1.9-.5-1.1-.1-.5h-.3l-.4.1h-.6l-.8-.3-1.2-1.1-1 .2-2.7-1.3v-2.5l-.3-.3h-.3l-.4.1-.5.2-1.1 1-2.8 2.9v.9l-.4 1.1-1.4.4-3.3 3-2.4-1.3-.8-.1-.8-.4-.5-.5-.5-.8v-1l-2.5.1-.6-.2-.9-.4-1.6-1h-1.2l-.6.1-.3-.4-.1-.4.1-.9v-.4l-.3-1-2.2-2.1-.7-1.4-.1-.6.1-.6.6-1.1.5-.6.2-.6-.1-.5-.4-.5-.3-.8.1-.9-.1-.6v-.4l-.4-.5-.1-.5v-1l-.1-.1-.2-.1-.2-.1-.2-.2-.1-.2v-.3l-.2-.3-.3-.3-.4-.1-.8.5-1.5 1.3-.7.5-.5.4-1.3.3-2.3-.4-.7-.3-.8-.3-.9-.1h-.3l-.6.5-1.2.5-2.8.5-.8.4-.2-.3-.4-.3-.2-.4.7-1.4.5-3.2.3-.7.6-.8.7-.7.6-.2.2-.4-.7-2.2v-.9l.3-.2.8-.4.3-.1.2-.5v-.4l-.1-.3-.1-.4.1-2.1-.1-.7-.3-.9-.8-.8-.2-.5-.1-.7.2-.7.7-1.2.4-2.2.7-1.3.9-1.1 1.5-1 .2 1.2.1.4.4 1.5.5 1 .8 2.4 1.9 3 1.1 1.1.7.6.7.4.4.3.4.2.5.2.5.1.7-.2 1.3-1 .7-.3.7-.1.5.4.5.7.6 1.5.5.9.5 1-.1.9-1.2 2.3-.3 1.1v.7l.6 1.8.9.2.3-.1.6-.4.7-.6.7-1.1 1-.7 1.1 1 2.2.6.7.7.4 1.6.9.1.6.1.5.4.9 1.7 1.1 1.4 1.8 1h.6l.6-.3.4-.1 1-.3.9-.1.5.1.6.2.3.3-.1 1.3 2.3-1.4 3.3-.9 1.6-.2 1.1.1 1 .3 1 .6.9.8.5.5.5-.4.1-.5.1-.5v-1.2l.5-2.5.5-1.5.1-1.2-.1-1-.2-.9.2-.8 1-1.6.3-1.8.5-1 2.2-1.8.2-.5 1.6-2.8.8.8 2.3 1.1 2.1 2 .6.9.2.6v.9l-.2 1.1-.8 2-.7 1.2-1.2.6-.1.9-.1.2-1.1.7-.4.2.2 1.8 2 2.5.7.5.6-.1.7-1.8 1-1 .6-1.2.1-1.2.2-.2.3-.1 1.7.6 1.3-.2 2.5-3.9.9-2.5.9-.4.3-.1.6.2 1.2.8 1.7.9 4.7.7h.9l.5-.5.7-2.5 3.8-4.5.5-1 .7-.8 1.4-.5 1.5-.4 1-.6.9-2.5.9-.5.6-.3.7-.6.4-.6.1-.5v-1l.2-.9-.7-1.6 1-2.9-.2-2.1.3-2-.2-.7-.3-.8-.5-.5-.5-.3-1.6-1.6-.3-.9.5-.8 1-.3h.5l.9.9 1.8 1.3.8 1.1.6 1.1 1 2.6.9.3 1.3-.4 1.9-1.9.9-.5.6-.3.4-.6v-3l.3-.9 2-3.4.8-3.9.2-1.9-.5-1.8v-.8l.1-.6.4-1.1-1.4-3.7h0z"/><path id="COVID" class="st0" d="m833.4 535-.9.4-.7.5-2.4 3.4-2.1 1.5-2 .1-1.9-.7-1.8-1.1-1.2.9-.7.3-.6-.1-.3-.6-.1-1.8-.3-.7-1.1 1.8-.7.3-1-.7-.7-1.3-.5-.5-.7.2-.4.6-.6 1.3-.4.5-1.2 1.4-.6.4-.7-.2-.3-.4.1-.5.3-.5.2-.5-.5-.7-1.3.5-2 1.1-.4-.8-.1-1.2-.3-1.1-1.1-.4-2.2-.4h-1.1l-.7.4v.8l.6.8.3.6-.6.6-.3.9-.2.8-.4.3h-2.2l-1.1.2-.3.7.2.6.5.7h-.4l-.6.2-.6.4-.2.5-.3.1-.6.1-.7.2-.8.6-.6.8-.4.8-.3.2-.5-.1-.6-.4-.6-.1-.5.4-.5.5-.6.3-1.6.2-.8-.3-.9-.4-.6-.1-1.1.9-1.1.2-.4.1-.1.6.1.7-.2.6-.6.2h-.6l-1-.3h-.5l-.7.5.3 1v.9l-1.1.1-.6-.8-.5-.3-.6.2-1.7.9h-.9l-.2-.2-.1-.2v-.4l-.4-.1-.3-.1h-.3l-.4.2-.3.8.1 2-.7.4-3.3-.4-.6-.3-.6.5-.7 1.1-.5.5-.7.2-.5-.3-.2-.4-.3-.2.2-1.4-.4-.1-.5-.4-.4-.2-.5-.3-.6.2-1.2.9h-.4l-.1-.1.1-.7-.1-.3-.3-.3-.9-.3-.6-.7-.3-.1-.6.1h-.6l-.4-.5-.4-.6-.6-.4-.7.2-.4.6v.7h-.4l-.9-.6h-1l-2 .6-1 .2-.9.3-.4.2-.4-.2-.5-.5-.5-.5-.8-.3-1 .3-1.5.7-1.2.2h-1.1l-.8-.1-.9.1-.5.3-.2.5.4.4.1.5-.2 2-.9.8h-.7l-.3.5-.2 2.6-.3.5-.5-.2-.9-.8-1-.8h-.8l-.9.3-1.3.2-3.5-.1-.8.1-.5 1-.4.4-.1-.2-.2-.3-.2-.6-.4-.5-.5-.2-.9.1-.7.4-.5.6-1.4 2-.5-.1-.6-.1-.5-.3-.2-.3-.6-.4-1.2-.1h-1.4l-1 .3.3.5 1.1 1.6-.3.8-.4 2.2-.5.4h-2.1v1.3l-.3.2-.2.7-.4.5-.7.8.1.7.4.6.7.6.4.6.2.4-.1.3h-.3l-.5.1-.4.3-.1.9.8 1.4.1.8-.2.6-.5.3-.3-.2-.1-.4-.2-.5-.2-.4h-.2l-.2.2-.1.7.2.6-.1.6-.7.3-.4-.2-.7-.6h-.2l-.2.2-.2.4-1.2.7-.7.6-1.1 1.3-.9 1.5-.4.4-.4.3-.3.3.2.3.5.1.7.1.5.2.4.3.1.5-.2.4-.6.3-.5.2-.2.3.1.5.5.8.2 1.1v1.1l-.3 1-2.6 1.6-.4.6-.2.6-.1.6-.6.7-1.2.7-4.3 1.8-1.6 1.4-4.8-2.9-.8-.2h-1l-.6.6h-.5l-1.2-1.5-.5-.3h-.5l-.2.3.1.4.3.5.2.6v.5l-.3.4-2.1 1.7-.3-.1-.2-.5v-.6l-.2-.4-.4-.1-.6.2-.7.4-.7.4-.8.2-.5-.2-.6-1.2-.8-.5h-.8l-1.3.7-.1-.3.1-.6v-.6l-.7-.6h-.4l-.4.5.1.6-.3.3-.5-.3-.6-.9-.8-.7-.5.1-.1.5.2.9v.6l-.2.5-.4.1-.3-.2v-.5l.1-.5.1-.5-.2-.4-1-.3h-.8l-1-.6-1.1.2v-25l.2-79.1.6-.6 1.1-1.4 3.3-8.1.8-.9 2-.5.9-.5 8.9-7.8.8-.3.5-.5.2-2.4.2-.9.8-.8 2.2-.9 1-.6 1-.8 3.4-1.8 3.2-2.4 1.1-.4 1.1-.2 3.2-1.2 1.9-.4 4-.2 2.1-.4 1.5-.7 1.7-1 1.5-1.3 1.2-1.2 1.7-2.6.3-.8 2.2-2.2.8-1.4 3.6-8.3 1.1-1.7 1.1-1.1.5-.6 1.4-.9 1.7-.4 10.8.4 2-.4 4.8-2.9.2-.1h.1l1.3-.4 2.4-1.1 1.3-.3 1.1.5 2.1 2.5 1.2.9 1-.6 1.8-1 3-3 1.1-.6 1.5-1.4.9-.4 1.3-.1.2.1.8.2 1.9.8.9-.2 1.1.2 1.3.5 1.1.2 3.2-.2 1.1.2 3.2 1 1.1.1 1.1.2 2.1 1 1.2.2.6-.3h.1l1-.9.3-.3.6-.3 3.1-.1.5-.2.7-.2 2.5-.7 1.1-.2 1.1.2 1.6.4h.1l1.6.5h1.9l2-.8.8-.3 2.9-1 1.1-.2 1.2-.1 4.4.4 2 .2 2.1-.3 1.2-.4.1-.1h.2v-.1h.2l.1-.1h.2v-.1h.2l.1-.1h.1v-.1h.2v-.1h.1v-.1h.1v-.1h.1v-.1l.1-.1v-.1h.1v-.1h.1v-.1h.1v-.1h.1v-.1l.1-.3.2-.6.6-.2h.7l.6-.1.5-.4.9-1 .6-.3h.5l.9.3h.8l2.7.3.5.1.3.1 1.3.2 4.5 1.1 1.4.3.1.1 1.3.9 1.4 1.3 1.4 1 1.5.2h.5l-.3.2v.3h-.1v.1h-.1v.1h-.1v.1h-.1v.1h-.1v.1h-.1l-.1.1h-.1v.1h-.1v.1h-.1v.1h-.1v.1h-.1v.1h-.2v.1h-.1v.2h-.1v.3h-.1v.2h-.1v.4h-.1v.8h.1v.3h.1v.2h.1v.2h.1v.1h.1v.2h.1v.1h.1l.1.1v.1h.1v.2h.1v.4h.1v.5h.1v.1l.1.1v.1h.1v.2h.1v.1h.1v.1l.1.1v.1h.1v.1h.1v.1h.1v.1h.1v.1h.1v.1h.1l.1.1h.1v.1h.1v.1h.1l.1.1h.1v.1h.1l.3.2.1.2v.1h-.1v.3h.1v.2h.1v.1h.1v.1h.1v.1l.1 1.1-.1.7h-.1v.1h-.3v.1h-.2v.1h-.2v.1h-.2v.1h-.2v.1h-.1v.1h-.2v.1h-.1v.1h-.2v.1h-.1v.1h-.2v.1h-.1v.1h-.1v.1l-.2.1-.7.4-1.2 1.3-.1.1h-.2v.1h-.2v.1h-.2v.1h-.1l-.1.1h-.1v.1h-.1v.1h-.1v.1h-.1v.1h-.1v.1h-.1v.1h-.1v.1h-.1v.1h-.1v.2h-.1v.1h-.1v.2h-.1v.1h-.1v.2h-.1v.1h-.1v.1h-.1v.2h-.1v.2h-.1v.2h-.1v.2h-.1l-.1.1h-.1v.1h-.1v.1h-.1l-.1.1h-.1v.1h-.1v.1h-.1v.1h-.1v.1h-.1v.1h-.2v.2h-.1v.1h-.1v.1h-.1v.1h-.1v.2h-.1v.2l-.1.1-1.2 1.9-.8 2-.4 2.2v2.3l.5 3 .1 1 .2.2.7.8.2.2-.1.6-.3.4-.4.4-.3.3-.5 1.9-.3.3-.6.1-.6.4-.9 1-.4.3-1.5.6-.3.2-.5.6-.3.2-.2.1-.6-.1h-.2l-1.9 1.6-1.2 2-.3 1v.1l-.1.1-.1.2-.2.2-.1.2v.8l-.1.4.1.2v.1l.1.3.2.1h.1l.1.1h.1l.1.1.1.2.4.8.1.1-.2.3v.1l-.1.3v1l.1.2.1.1.1.3-.1.2-.2.3-.2.2-.2.2v.2l-.1.1-.1.4-.1.2-.1.1v.2l-.1.1v.1l-.1.2-.1.1-.1.2-.1.2.1.1v.2l.1.2v.1l.3.2.2.3.1.1.1.2.2.2v.1l.1.2.1.2.2.3.1.1.1.2v.3l-.1.3.1.3.3.2.2.1.2.1.1.2v.3l-.2.3-.2.3-.3.4-.1.3v.6l.1.2v.4l-.1.2v.7l-.1.2v.3l-.1.3-.1.1-.1.3v.1l-.1.1-.1.1-.1.1-.1.2-.1.2v.2l.1.2.1.2v2.5l.1.2v.2l.1.2.1.2.1.1.1.3.1.3v2l.1.3-.1.5v.1l-.1.4v1.5l.1.4v.4l-.3.7-.5.8-.3 1.1-.2 2.9-.3 1.3.1 1.6-.1.5-.3.4-.3.3-.3.3-.1.7.2.6.3.5.4.4.5.3v-.3l.9.6.4.7.4 1.8.2.2.7.2.2.3v.4l-.3.7-.1.4.2.7.7 1.1.2.7-.2.5h-.4l-.2.1-.1.1-.1.1-.3.4-.1.6.2.6.1.2-.2 1.6.2 1.6.5 1.6.2 1.6.4 1 1 .8.9 1 .5 1.6.5.6.1.3v.3l.1.2.1.1v.2l-.1.7h0z"/><path id="COCAU" class="st0" d="m317.5 603.1.7.5 1.9 2.5.8.6 1.7 1 .8.6-1.1.8-1.6.1-1.5-.4-1-.5.4-.3-.4-.4 1.1-1v-.6l-.7-.3-.9-.1-.8-.6-.3-1 .2-.9h.7zm4.9 1.8 1.9 1.5.7.7-.2.8-.9.1-1.3-.7-2.3-1.7-1.4-1.9-.3-.6-.2-.6v-.5l.1-.3.4.4.2.1.5.2.2-.3.1-.1.2-.1.2-.2 1.4 1.4.2.4.3 1 .2.4h0zm45.3 68.3-.1-1.9-.5-2.4-.3-4.3.2-1 2.5-1.5.5-.6.6-.7.2-.5.3-1v-1l-.3-.4-.2-.2-.5-.4-1.5-2.2-1.6-2.5-.3-.2-.5-.2-1.6.5-2.1.3-1.6.4-.3.2-.6.6-.4.3-.5.5-.4.2-.5.1-.6-.1-.9-.2-.4-.3-.2-.3-.2-.1h-.3l-.8.3h-.9l-2.5.9-.6-.3-.4-.2h-.2l-.4.2-3.1-1 1.3-3 .2-.8.1-.7-.3-.8v-.7l.1-.5.8-2 1.8-1.5.4-.8v-.4l.2-.4.2-.2.6-.2.3-.1.1-.2.6-1.5-.7-1.3-1-.5-.5-.2-.7-.4-3.1-2.3-.4-.4-.2-.4.1-.5.2-.3.2-.8.8-1.2.1-1.5-.5-.9-4.6-2-.9-.4-.5-.1h-.8l-.6.1-.9.1-.3.1-.2.2-.5.3-.1.2-1 .3-1.4.2-1.4.2-.3.3-.8.6-1.5.6H330l-2.4.8h-.9l-1.2-.1-1.8-.6-1.6-.4-1.4-.6-.5-.5-.2-.4-.2-1.7-.1-.5-3.7-5.3-.8-2-.1-.5v-.5l.1-.4.6-1.8.2-.6v-.5l-.1-.6-.6-1.8-.3-1.1-.1-1-1.5-1.6-4.6-3.1.5-.3 1.2-.1 1 .1.8-.1.7-.4 1.1-.7 1 .1.7.7.5.9.4.6.6.1.9-.2-.4.8-.5 1 .1.9 1 .4.6.1 1 .2.7.1 1.3-.3.6-.1 1.2-.2.9-.8.5-.9-.1-.9-.3-.6-.5-.9-.8-.7-.7-.2v-.3h1v-.4l-.7-.1-.3-.4v-.4l.3-.5-.6-.1-.1-.3.1-.5.3-.5-.5-.1-.2-.1-.1-.3.1-.5.8.3.8-.3.6-.5.7-.2.3-.1.5-.1.3-.2-.2-.3-.5-.1-.8.4h-.4l-.8-.5.2-.3.6-.4.3-.3.3.1.8.2h1l.7-.1.2.3.3.4.1.3h.4l-.5-1.1-1.8-.5.6-.9.7-.4.8-.1.7-.1.6-.7.4.2.4.2.3.3.2.3.3-1.2-1.1-.3-1.6.2-1 .6-.3-.8v-1.1l.2-1 .7-.6.7.1.5.4.4.5.5.4.6.2.2-.1v-.3l.3-.5.4-.4.3-.2v-.8l-.2-.2-.7-.2-.2-.2v-.3l.3-.2.2-.6.3-.1.1-.1-.2-.5-.3-.2h-.8l-.3-.5v.4h-.1v.1l.1.2-.5.3-.6.1-.4-.2-.2-.5-1.3 1.1-.4.3v-.7l1.9-2.2 1.2-1.6.7-.8 3.9-3.3 1-1.9.6-1.1.7-.2.8.4.2-.5.1-.5.1-.5h.3l.5.1.3-.3-.3-.5-.8-.4-.7.3-1.2.1-.1-.4.6-.8 1.2-1.1.9-.5 1.2-.5 2 2 .3.2.7 1.3.5.6.2.5.1.4.1.3.1.4.6 1 .5.3.7-.1.4-.2.4-.1.1-.1.2-.1h.4l1.3.6.1.3-.2.1-.1.2.1.2.4.3.2-.1.4.1.8.9.1-.2h.1l.2.2.4.1.5-.1.3-.2.4-.5.2-.1.6-.5.4-.4.2-.2.4-.4h.3l.4.1h.3l.9-.7 1-.3 1-.2 2.3.4 2.5.8.3.2.8.8.2.2v.1l.2.1.5.3 2.9 1.5 1.5.5.9.1.8-.1.6-.1.3-.2.4-.2.9-1 1.6-3 .7.6 2.6 1.8 1.1 1 1 .5.7.1.4-.3.2-.2.2-.3.2-.2h.3l.4.7.4.5.4.2.3-.1.1-.1.1-.3.1-.2.1-.1.1-.1.2-.2.3-.2.4-.1.3.1.2.2.6.4.8-.7.3-.5.5-1.1.3-.3.7-.3 1.3-.3.5-.2.6-.6.4-.7.2-.8.1-1.8-.2-.4-.7-.7-.2-.4.2-.4 1.1-1.3 1.1.5.9.5 2.2.4 5 .4 1.4.4 1.8 1.4.8.3 3.2.7 1.9.7-.8.5-.2 1.2.2.9-.3 1.3-.5.5-.2.5-.1.6v.5l1 .8.7.3.7 1 1.1.9.7 2v3.4l.3.9 5.4 4.7 1.3 1.1 1.3 1.6.7.6.8.3.9.7.7.7.6 1.4.7 1.2-1.1 3.6-1 2-.1 1.4 1.4 2.9-1.2.6-.6.7-.7 1-1.6.1-1-.5-1.7-1.5-1.8-1.3-.7.3-1.2 1.4-1.2 1-1.2.9-3.6 1.8-1.7.6-4 1.1h-1.2l-1-.2-2.8-2.2-.8-.7-1.5-.4-.7 2.7 1.8 4.1v.8l-.4.5-.2.6-.7 1.9-.7 1.3-.6.3-.7.8v.4l.1.5.1.4.1.4-.2.2-.4.3-.7.3-.7.1-1-.2h-.9l-.8-.1-.6-.3-.8-.2-.7.4-.9 1.1.1 2.3.2 1.5-.2.5-1.3 1.3-.4.9-.1.6.2 2.2 1 1.8 3.7 2.9 2.6 3.4 2.3 3.6 1.3 1.3 1.8 1 2.5.8 1.3.4.8.5 1.8.6 1.9.1 1.9.8-1 .7-.9 1.4-2.2 3.6-1.2 2.5-.3 1.7-.4.8-.9 1.3-.2.6-.6 6.7.1.5.6 1.2.6.8.8.4 2.4.5 2-.3.5.1 5 4.5h-.1l-.5.5-.3.6-.4.5-.9.2-1.6-.1-.7.2-.7.3-.6.5-.5.4-.5.3-.8.2-7.1-.2-1.6-.3-2-1-3.6-1.1-1-.7-1.2-1.9-.5-2.2.2-4.4.2-.9.9-1.7.2-.9v-.7l-.2-.7-.6-1.4-.9-.8-.1-.6-1-1.5-.8-1-1.7-.7-.9-.6-.8-.3-.8.2-2.7 4-1.1 1.3-1.4.8-1.3.3-4-.3h-1.7 0zm-64.6-85 .7-.6.4.1-.1.7v1.4l-.8.8-.5.5-.8.2-.6-.2v-.5l.8-.1.2-.8.3-1 .4-.5h0z"/><path id="COVAC" class="st0" d="M350.3 524.7h.1l.3.8v1.3l.1.5.3.4.4.4.5.4h.3l.4-.1.2-.3.3-.1 1.2-.4h.5l.4.1 1 .7.6.1 2.2 2.3.6.8.2.1h.8l1.1.2.5-.1.5-.1.4-.3.4-.6.3-.1h.3l.7.1h.5l.6.2.6.6 2 3.3 1.3.6 1.6-.2.7.2.1.1v.2l.2.2.5.3.7.2 1.6.7.9.1.7-.2 1.6-1.7.9-.6.7-.8.6-.2h.6l2.5.6h.6l.3-.2.1-.3v-.4l.2-.5 1.2-1.6 1.3-1.4 1.2-.6 1.2-.3 1.4-1.4.1-.3.2-.6-.8-.8-2.1-1.1-.2-1.3.3-2.4-.1-.5-.2-.3-.4-.2-.5-.5-.5-.6-.9-1.6-.1-.4.1-.2h.2l.6.2h.4l.9-.2.6-.2.5-.1.4-.2.3-.2.7-.6.7-2.3-.1-.9-.4-.9v-.6l.8-2.7.4-.8 2.7-2.4 1.4-.9 1.5-1.6.7-1.1-.2-.8-.3-.5.1-.6.2-.7.4-.6.4-.5 4.1-3.6 2.1-2.3.1-.4 1.3-3.7.5-.6.8-.9.5-.4 1.5-1.4.4.4 1.4 2.7.3.7.6 1 1.5 1.2.4.3-.1 1.5.3.5.4.2.5.2 1.3-.1.6-.3h.2v.3l-.1 1.2-.3.6-.5.4.4.8.4.7v.5l-.1.2.1.2.2.3.6.3.7.1h.5l.3-.2.2-.3.2-.2.3-.1h.7l.2.2.1.6v.5l-.4 1 1.1-.2.5.1 1.9.6 3.5.5.3 1.4v.9l-.1.2-.3.2h-1.5l-.5.3-3.5-.6-1.9 2.7.1.6-.1.3-.3.4v.4l-.4 1.3.1 3.9.4.9-.6.4-.1.1-.2.2-.3 1.1.9.4h1l2.2.9 1.1 2.4-.1.1v3l-.8 1.9-.7 1-.2.6-.2.5-.1.5v1.3l-.1.4-.3.7-.1.8.1.8.1.4.3.2 1.5.6 1 .6.9.4.8 1.3.1.6-1.6.7-.6.4-.4.6-.7 2-.5.7-.8 1.5-1.1 2.8-3.4 5.1-.6 1.3-.1.3-.9 1.1-.3.2-.5 1.8-.4.6-.5.9-.4 2.8.1 1-.1.7-.4.6-.3.7-.5.8-.4.7-.2.8-.5 1.3-.3 1-.1 1.7-.1 1.2-.6 1.4.6 1.2.3.5.1.5-.2.3-.3.3-.3.4-.2.6-.1 2.8-.5.7-1.9-.7-3.2-.7-.8-.3-1.8-1.4-1.4-.4-5-.4-2.2-.4-.9-.5-1.1-.5-1.1 1.3-.2.4.2.4.7.7.2.4-.1 1.8-.2.8-.4.7-.6.6-.5.2-1.3.3-.7.3-.3.3-.5 1.1-.3.5-.8.7-.6-.4-.2-.2-.3-.1-.4.1-.3.2-.2.2-.1.1-.1.1-.1.2-.1.3-.1.1-.3.1-.4-.2-.4-.5-.4-.7h-.3l-.2.2-.2.3-.2.2-.4.3-.7-.1-1-.5-1.1-1-2.6-1.8-.7-.6-1.6 3-.9 1-.4.2-.3.2-.6.1-.8.1-.9-.1-1.5-.5-2.9-1.5-.5-.3-.2-.1v-.1l-.2-.2-.8-.8-.3-.2-2.5-.8-2.3-.4-1 .2-1 .3-.9.7h-.3l-.4-.1h-.3l-.4.4-.2.2-.4.4-.6.5-.2.1-.4.5-.3.2-.5.1-.4-.1-.2-.2h-.1l-.1.2-.8-.9-.4-.1-.2.1-.4-.3-.1-.2.1-.2.2-.1-.1-.3-1.3-.6h-.4l-.2.1-.1.1-.4.1-.4.2-.7.1-.5-.3-.6-1-.1-.4-.1-.3-.1-.4-.2-.5-.5-.6-.7-1.3-.3-.2-2-2-.7-.6.1-1 .4-.6.5-.5.6-.4.5.1.9-.2.7-.1.2-.1 1-.9 1.1 2.1.8.8 1.3.5-.3-.6-1.7-2-.4-.7-.1-.9.2-.8.5-.6.2.5.3.4.4.3.1-.3-.1-.3-.4-.7-.1-.2.2-1 .5-.9.3-.9-.4-1 .6-.1.5.1-.2.2-.1.3v.7l.1.4h.3l.5-.4.9.1.2.1.5.5.2.1v-.4l-.2-.4-.4-.3-.4-.2.2-.1.2-.2.2-.1-.9-.3h-.4l.2-.5.2-.1.2.1.4.2.2-.8-.7-.3-1.1.1-.8.2.2-.8.6-.1.8.2h.8l-.2-.1-.6-.4-.2-.1.3-.1.1-.2h.2l.4-.1-.1-.2-.2-.5 1-.2 1.1-.1v.3l-.3.4h.5l1.5-.4-.7-.2-.2-.4.2-.4.9-1.1.3-.6.5-1.5.6.4.4.1.4-.1.5-.5.6-.3.8-.1.3-.3-.8-.2-.6.1-.7.2h-.5l-.3-.8.4-.1.8-.2.8-.3.5-.7-.9.2-2.1.5-.7-.3-.2-.8.1-.9.3-.7 1.4 1 .8.2 1.1.1.2-.1-.1-.2-.3-.2-.5-.1h-.6l-.4-.1-.3-.2-.3-.4h.9l.7-.1.5-.4.4-.6-.8-.5-.5-.6.1-.7.8-.6.4.2.3.3v.9l.8-.7-.4-1.1-.1-.9 2.3-.8.7-.8.5-1 .7-.6v-.4l-3.1.7v-.3l.4-.2.3-.2-1.3.1-.6-.1-.5-.3.2 2.2-3 1.7-3.6.6-2-1 .1-.5.8-.4.1-.4-.1-.2-.9-.4-.6-.4h-.3l-.1-.2v-.9l.1-.4.2-.4.3-1.3.3-.5.5-.3.7-.1.5.1v.4l-.6.6 2.5-.4.7-.3v-.3l-1.7.3.2-.6.3-.6 1.4-1.6.8-1.7h-.5l-.3-.1-.1-.2-.1-.4-.8.2-.6-.4-.6-.7-.8-.5.2.5.1.5-.1.6-.2.5-.4-.3h-.9l-.4.3v.3l.2.3-.1.1-.1.4-.3-.2-.1-.1h-.2l-.4-.1.1.9-.1 1.5-.4 1.2-.5.6-.2.3-.2 1.4-.1.4h-.8l-.7-.4-.2-.7.3-.7-2.6-2-.3-.5-.2-.8.2-.7 1.1-.1-.6-.8-.2-.3-.3-1.4-.2-1.6v-1.4l2-.3 2.3-1.8.6-.1.5.1.6.7.2.1.4.1.3-.1.3-.2.3-.2.1-.3.1-.2-.1-.4v-.3l.2-.2.8-.7.5-.7z"/><path id="COANT" class="st0" d="m411.7 456.8-2-2-.3-.4-.5-1 .1-.8.6-2.1-.2-1.3-.4-.8-1.4-2.3-.3-1.2-.3-1.3.1-1.3 1.4-3.4-.3-2.4-1.3-.6h-1.3l-1.3-.5-1.4-1.9-1.2-3.1-.5-3.1-.4-.9-1-.7-1.7-.2h-2l-1.9.2-1.7.4-2.4.2-2.8.3-2.3.5-4 .1-1.3-.1-1.3-.4-.7-.5-.1-.2-.4-.5-.1-1-.6-.9-1.4-1.5-.1-.3-.2-1.1-.2-.2h-.4l-.4-.2-.4-.3-.1-.8.1-1 .3-.9.4-.5-.4-.3h-.3l.6-.8-.1-.6-.4-.6-.4-.8h.4l.3-.2.2-.2.1-.3-.8-.2-.1-.5.3-.7.5-.5-.1-.4-1.2-1.5-.7.2-.4-.5-.4-.6-.5-.5v-.9l-.2-.7-.5-.6-.7-.3-.7.3-.2-.6.1-1 .4-.8h.3l.4.3.3-.1.1-.7-.3-.3-1.1-.1-.4-.1-.3-.6v-.5l.2-.4.1-.5-.2-.3-.5.4-.4.5.1.3-.6-.1-.3-.2-.1-.3-.1-.6-.1-.4-.4-.1h-.9l1-1.1.1-.3-.2-.5-.7-.6-.2-.5v-1.9l-.1-.5.7-.3 1.5-.4.7-.1 1.6-1 2.4.2.5-.2.1-.3.7-.6.4-.6.3-.7-.3-2-.2-.8-.3-.5-.3-.3-.3-.1-.2-.2-.2-.7-.2-.4.2-.7.8-.4 1-.4 1.4-.3 3.3-.3 1 .1 4.2 1 .9.3.7.4 1.2.1 1.7-2.9.2-.4.2-1-.2-5.7-1.1-3.2-.6-.9-2.3-1.9-.5-.4-.7-.3-1.8-.2-1.3-.9-1-.8-4.1-5-5.3-5.8-5.2-3.7-6.5-5.9-.5-.7-.4-.7.1-.2.3-.1.2-.1h.1l-.1-.2-.1-.3-.1-.2-.1.1v-2.1l1.4.2 1.1-.7 1-1.1.8-.5.7-.8.9-5.2.4-.7.4-.5.9-.7.2-.9.3-.5.3-1.1-.3-4.3-.3-.9-.3-.9-.6-2.4-.1-.2.5.1.3-.6h.4l.3.5v.8h-.3l-.2-.1-.2-.2v1.3l.4.9.6.3.8-.4v1.1l.7-.8.2.6-.5.8-.1.8-.2-.1-.6-.2-.2-.1.3 1.8 1.2.8 1.2-.2.1-1h3.1l-.3.5-.3.5-.1.5v.6h.4l.1-.1.5-.3v.4l-1.7.7v.3l.4.1.3.2.5.4-.1.1v.3l-.3-.2-.3-.2h-.8l.4.5.5.3.5.4.3.6-1.3-.6-1.3-.4-1.2.2-.7.8v.3h.3l-.9 2.9 1.3 1.8 2.7.9 3.2.1.6-.1.6-.3.5-.3.4-.4.1-.4v-.3l-.1-.4v-.4l.1-.5.4-.5.1-.5.4-3.1-.1-1.4-.6-1.3-.2.5v.5l.2.4h-.3l-.3-.8-.2-1.1v-1.2l.6-1.8-.2-1.1-.7-1.6-.3-1.7.1-7.2-.3-.9-.7-.4-.7-.3-.3-.7-.2-.9-.3-.9-1-1.1-1.6-1.1-1.9-.9-1.4-.1v.4l-.6-.6.8-1.3 1.3-1.5.6-1 5-1.6 1.2-.1 5-1.4.6-.4.3-.4v-.6l.1-.5.2-.6.4-.2v-.4h-.3v-.3l.9-.2 3.5-1.3.7-.5 2.2-2.2 2.6-1.8.3-.3.3.2 1.4 1.3.3 1.1.9 4.1 1.2 1.7.9 1.6.8.7 2.7 1 .8.7.8 1.3.9 1.3.6 4.1.1 2.2-.1 2.2-2.7 3.2-2.4 3.4-2.7 5.4-1.5 2.3-1 1.7.1 4.7-.1 1.4-.7 2.4-1.8 2.9-1.8 6.9v4.9l.4 2.3 3.1 6.9 1.4 4.3 19.1.5 3.3.1 4.9.2.6-.1.6-.4.1-.5.2-.8 3.5-5.1 1.5-1 1.8-.6 3-.6 1.9-.7.9-.7 1.3-1.9.9-4.2.7-.9.9-.8 1.3-.8 1.6-3.6.9-.8 2.5-1.8 1.5-1.2 1.9-2.5 3.1-3.3.6-.9 1.1-1.6.7-.4 1.3-.3 3.8-.4h1.2l.9.3.6.1.7-.2.8-.4.7-.2h1l2.8.1 1.6-2.1 1.3-2.1.8-.9.9-.6.9-.2 11.9 9.7.9 1.6.9 1.3.6.6.5 1.5.6 5.1.4 1.5.6 1 .7.4.6.4.2.6-.1.9-.8 1.5-.9.8-1.2.7-1 .9-.7 1.3-.7 4.2.1 1.6.2 1.3 1 2.2 1.7 2.1 1 1 1 .2 1-.1 1.2-1 .6-.8.9-2.2.6-.9 2-1.7.9 2.9-.3 1.3-.3.8-.5.6-1.1 1.2-.3.7-.2 1.1.2 1.2v2l-.5 1.8v1.2l.4 1.6.9 2 .4 1.6.5 1.5.2 1.1.2 1.1.5.8 1.3.5.9.1 1.5-.1 1 .2 16.3-15.5v.1l-.3 2.2.5 6.6.2 1 .5.8.6.7.4.8.2 2.1-.6 1.4-1.2.9-4.2 2-.5.4-.3.8-2.1 2.2-1.6 3.1-.6.9-9.4 6.9-1.9 1-2 .2-.8.3-.3.7-.1.4-.7 1.5v.4l.1 4.7.1.6.9.9.3.6.1.5-.3.6-.4.5-.5.1-.6-.2-2.3 3.6-1.3 1.4-1.7 1.2-1.5 1-.9 1.1-.7 1.3-.4 2.2-.7 1.2-.2.7.1.7.2.5.8.8.3.9.1.7-.1 2.1.1.4.1.3v.4l-.2.5-.3.1-.8.4-.3.2v.9l.7 2.2-.2.4-.6.2-.7.7-.6.8-.3.7-.5 3.2-.7 1.4-.4.3-.2-.2-.4-.4-.2-.1h-.2l-.4.2h-.3l-.4.1-.2.1-.1.1v.4l-.2.4-.2.5-.3 1.1-.6 1.2-1.7.5-.5-.2-2.1-1.4-.5-.5-.2-.2-.2-.2-1-.3-1.2.2-1.9.4-3.2 1-.3.5-.2.3-.2.3-.3.3-.2.2-.4.3-.6.3-1 .3-1.9.2-.1 1.4v1.4l.1.2v.2l-.5.8-1.7 1.9v.4l-.2.2-.2.1-1.3.1-.2.1-.5.2-.7.3-1 .7-.5.4-.3.3-.5.9-.2.3-.3.2-.1.3-.6.9-.3.2h-.3l-.7-2-1.4.5.2-1.9v-.2l-.1-.6-1.2-3.6-.4-.5-.3-.2-.3-.1-.4-.2-.5-.6-.1-.5.1-.5.1-1-.2-.5-.3-.3-.7-.3-.4-.1-.2-.2-.2-.2-.6-.2-2.2 1.2h-.8l-.4-.2-1.9-.7-.2-.2-.2-.3-.1-.2v-.2l-.2-.2v-.1l-.6-.5-.6-.1-1.6-.6h-.6v1.7l.3.7.7.2-.3 1.6v.7l.8 2.8.1 1.1v1l-.3 1.2-.7-.2-.6-.2-1.2.1-1-.2-1.1.1-.5-.1-.6-.6-.5-.4-.8-.6-.7.1-3.3 2.4-2.7 1.1-1.1.1-2.4-.3-1.7-.7-1.2-.7-.9-1-.6-1.1-1.5-.8h0z"/><path id="COCOR" class="st0" d="m472.9 323.6-.9.2-.9.6-.8.9-1.3 2.1-1.6 2.1-2.8-.1h-1l-.7.2-.8.4-.7.2-.6-.1-.9-.3h-1.2l-3.8.4-1.3.3-.7.4-1.1 1.6-.6.9-3.1 3.3-1.9 2.5-1.5 1.2-2.5 1.8-.9.8-1.6 3.6-1.3.8-.9.8-.7.9-.9 4.2-1.3 1.9-.9.7-1.9.7-3 .6-1.8.6-1.5 1-3.5 5.1-.2.8-.1.5-.6.4-.6.1-4.9-.2-3.3-.1-19.1-.5-1.4-4.3-3.1-6.9-.4-2.3v-4.9l1.8-6.9 1.8-2.9.7-2.4.1-1.4-.1-4.7 1-1.7 1.5-2.3 2.7-5.4 2.4-3.4 2.7-3.2.1-2.2-.1-2.2-.6-4.1-.9-1.3-.8-1.3-.8-.7-2.7-1-.8-.7-.9-1.6-1.2-1.7-.9-4.1-.3-1.1-1.4-1.3-.3-.2.9-.8v-.3l-.4-.6.4-.4 3.1-.8 1.2-.7.9-.1.5-.3.2-.5.5-.6 1.9-1.4.4-.6-.5-1.8.5-1.4 1-1.2 1.7-1.5.5-.6.3-.8.6-4.2.3-.8h.3l1.5-.6.2-.1.6-.2.3-.6-.1-.9.1-.9.2-.5.6-.6.5-.3.4-.2 2.1-.7 1.6-.5 1.4-.8 1.2-1 .1-1.3.4-.7 1.1.1.6.5 1.7-.1 1.7-.3 1.2-.5.4.1.4.3.3.4v.6l-.7-.3-.8-.1-.7.2-.6.6.4.2.3.1.3-.1.4-.2.3.3.2.1.1.2.1.4 1.5-1.1 1-.4 1.2-.2 1.1.1.9.3v3.2l1.3.5.5.3 1.5.4 2.7 1.3.7 1 .9 1 1.9.4.2.4.2.2.4-.1.7.1.8.5.4 2.2 1.4 2.2 8.8 4.1 2.2 1.6-.5.9.2.4.9 1.3.2.4-.2.3-.2.2-.2 2.5-.6.4-2.5.7-.7.1-.6.2-.7.5-1.1 1.1-.5.3-.4.4-.4.5-.1 2 .9 3.2-.3 1.3.1.8.1 1.1 1 3.2v2.2l.2 2.6.4.9.3.7.6.5 2.1 1 1.6 1.1 1.9 1.9 5.4-2.6 2.2-.6 2.7-1 1.2-.1h.7l1 .9 1.9 1.4 1.4 2.4 1.2 1.1.6.5.7.7.2.7v2.9l.2.9.1.3-.1.3-.8.8-.3.4-.2.5-.1.7-.3.8h0z"/><path id="COSUC" class="st0" d="M474.4 318.9V316l-.2-.7-.7-.7-.6-.5-1.2-1.1-1.4-2.4-1.9-1.4-1-.9h-.7l-1.2.1-2.7 1-2.2.6-5.4 2.6-1.9-1.9-1.6-1.1-2.1-1-.6-.5-.3-.7-.4-.9-.2-2.6v-2.2l-1-3.2-.1-1.1-.1-.8.3-1.3-.9-3.2.1-2 .4-.5.4-.4.5-.3 1.1-1.1.7-.5.6-.2.7-.1 2.5-.7.6-.4.2-2.5.2-.2.2-.3-.2-.4-.9-1.3-.2-.4.5-.9-2.2-1.6-8.8-4.1-1.4-2.2-.4-2.2-.8-.5-.7-.1-.4.1-.2-.2-.2-.4-1.9-.4-.9-1-.7-1-2.7-1.3-1.5-.4-.5-.3-1.3-.5v-3.2h.1l1.2.4.8-.5 1.9-1.7 1.2-2.4 1-3.3v-3l-.5-1.4-.7-.7-.3-.4-.6-1h-.8l-.7-.5-.5-.3h-1l-.7.3-.6.4-.1-.5 2.8-2.8.5-1.4.9-2.8-.1-1.2.3-1.1.7-1.4.5-1.8.3-1-.1-1.1.7-2.9.1-1.7-.3-.9 4.8-2.6-2.3 4.1-.3.8.2.5.5.3h.7l.8-.3.9-.1.1 1.8.1.6.4 1v.4l-.2.6-.7 1-.1.4.3.6 1.2.6 4 1.3.7.2.7-.4h1l.1.8-.4.9-.4 1.6.2 1.2-.1.8-.5 1.6-.2 1-.1.9-.1.7-.4.7-.5 2.2 1-.8 1 .4.9-.8.4-.4.6-.3.8.1.9.3 1.5 1.1.7.1.6-.2.6.1.8.3 2 1.7 1 1.3 2.2 1.9.6.4h1.5l1.5.4-1.1 2.5.1.4.4.4.8.3 1 .2 1.1-.3.7-.2.3-.1.1.2.4.5 1 .7.5.3.2.3-.2.3-.7 1.2-1 2.3-.2.5.5.7-.3.9.1.6.2 1 .7 1.5.5 2.2v.6l.1.8.3.4.5.4.5.3.9.7.9 1.9 1 1.9 2.1 1.4 1.4.5 4.9 3.8 2.4 2.6 2.5 3.9.7.7.3.5v.4l-.3.3-.4.4-.6 1.2-1.3 1.1-.5 1.1.9 5.9.6 1.5.6.6-.1.3v1.1l.1 1.5.5 1.7.1.9-.2.6-.7 2-.3.6-.9-.1-.4-.2-.2.1-.2.4-.1 1.3-.6 1.2-.8.8-1 .8-1.2.4h-1.3l-1.7-.1-.5.2-1.1.9-.4.3-1.3.2h0z"/><path id="COBOL" class="st0" d="m521.7 287.8.8 1 1.8 1.6.6 1 .2 1.5-.2 1.1-1 1.8-.2 1.1.1 3.4.3 1 .3.5.9 1.2.2.6v1.7l.2 1.2 1.1 2 .4 1.2.4 3.6-.2.8-.5.8.2.5.3.4.2.6-.1.3-.5.7-.2.4.1.2-.1 1.4-.1.5-.4 1-.1.6-.1.1-.5.5-.1.2v.3l.3.5.1.9.2.5-.1.5-.5.5-.6.2-.4.4-.3.6-.5.6h-.2l-1 .5v.1l-.5 1.4-.4 1.6v2l.9 2.8-.1.7.7 3 .5.5.2.4.6 3.1.1 1.1-.4 2.9-.2.6-.3.4-.1.4.4.7.2.5-.1.5-.2.4-.1.5.1 1.8-.3.7-.6.3-.2.5-2.8 3.6-.3.7v2l.1.5.5.7.1.6-.1.5-.6 1.4-.6 2.1-.3 2.2-16.3 15.5-1-.2-1.5.1-.9-.1-1.3-.5-.5-.8-.2-1.1-.2-1.1-.5-1.5-.4-1.6-.9-2-.4-1.6v-1.2l.5-1.8v-2l-.2-1.2.2-1.1.3-.7 1.1-1.2.5-.6.3-.8.3-1.3-.9-2.9-2 1.7-.6.9-.9 2.2-.6.8-1.2 1-1 .1-1-.2-1-1-1.7-2.1-1-2.2-.2-1.3-.1-1.6.7-4.2.7-1.3 1-.9 1.2-.7.9-.8.8-1.5.1-.9-.2-.6-.6-.4-.7-.4-.6-1-.4-1.5-.6-5.1-.5-1.5-.6-.6-.9-1.3-.9-1.6-11.9-9.7.3-.8.1-.7.2-.5.3-.4.8-.8.1-.3-.1-.3-.2-.9 1.3-.2.4-.3 1.1-.9.5-.2 1.7.1h1.3l1.2-.4 1-.8.8-.8.6-1.2.1-1.3.2-.4.2-.1.4.2.9.1.3-.6.7-2 .2-.6-.1-.9-.5-1.7-.1-1.5v-1.1l.1-.3-.6-.6-.6-1.5-.9-5.9.5-1.1 1.3-1.1.6-1.2.4-.4.3-.3v-.4l-.3-.5-.7-.7-2.5-3.9-2.4-2.6-4.9-3.8-1.4-.5-2.1-1.4-1-1.9-.9-1.9-.9-.7-.5-.3-.5-.4-.3-.4-.1-.8v-.6l-.5-2.2-.7-1.5-.2-1-.1-.6.3-.9-.5-.7.2-.5 1-2.3.7-1.2.2-.3-.2-.3-.5-.3-1-.7-.4-.5-.1-.2-.3.1-.7.2-1.1.3-1-.2-.8-.3-.4-.4-.1-.4 1.1-2.5-1.5-.4h-1.5l-.6-.4-2.2-1.9-1-1.3-2-1.7-.8-.3-.6-.1-.6.2-.7-.1-1.5-1.1-.9-.3-.8-.1-.6.3-.4.4-.9.8-1-.4-1 .8.5-2.2.4-.7.1-.7.1-.9.2-1 .5-1.6.1-.8-.2-1.2.4-1.6.4-.9-.1-.8h-1l-.7.4-.7-.2-4-1.3-1.2-.6-.3-.6.1-.4.7-1 .2-.6v-.4l-.4-1-.1-.6-.1-1.8-.9.1-.8.3h-.7l-.5-.3-.2-.5.3-.8 2.3-4.1-4.8 2.6-.4-.8V224l.2-.3.2-.2.4-.1.4-.2.2-.3.5-1.1.4-.6.1-.3.2-.5.1-.6-.1-.5.1-.5.2-.5-1.6.9-2.1 1.4-2 2.1-2.1 1.2-.9-.2.7-1.7 1.5-.8.7-.5.4-.5.4-.5.2-.7.5-.6.1-.6-.2-.6.2-.4h1.1l-.3-.4v-.9l.3-.4.4 1 1.1-.2 1.8-1.2.6-.5v-1.1l-.3-1.4-.1-1.2h-.4l-.4.3-.3-.4-.3-1.3h-.4l-.1.5-.2.3-.2.2h-.5l.2-.4.3-.9.2-.4.3-.3.6-.3.3-.3 1.5-1.6.4-.4-.2.9-.6 1.1-.1.9.8.3.6-.4.3-1.1.1-1.3-.2-1.1-.2-.2-.3-.1h-.5v-.3l.3-.7v-1.2l-.2-.5-.7-.1-.2-.2.3-.5.5-.5.5-.2.6-.1.6-.2.6-.4.5-.4v-.3l-.4-.5v-.2l.2-.1.4-.2.1-.1.4-.2h.5l.3-.1.2-.6h.2l.3-.5.4-.5v-.3l.3-.1 1.2-.5 3.3-.9.6-.4.5-.8.3-.5.3-.1.3.2h.3l.2.2.1.3-.1.2-.2.2v.2l.3.3v.3l-.3.5v.2l-.1.5v.2l.1.3.3.4 1 .8.2.2.1.3.1.3.1.4v1.1l-.2.3-.2.3-.4.2-.5.4-.1.7-.5 1.8-.1.2.2.7.4.8.1.2.2.3.3.2 1.9.2.9.1.7.2.1.1.1.3.1.1-.4.6.7.5 1.5 2.3 2.8-.6 2.3 2.3.9.2.3.1 1.3 1.1 2.3 2.6 1 1.3-.4.7-.3 1.7-.7 1.7-.1 1.1.2 1.5.6.6.8.3 1 .6.3.2 1.6.3.3.3.3.2.4.6.7 1.6.1.2.4.1.4.3.1.4-.1 1.4-.3.7-.6.4-1.8.9-.5.5-.3.7-.2 1.1.1 2.3.2 1.1.4 1 .5.7 1.8 1.6.3.8-.3 1.1-.4 1.2-.2.9.2 1.1.4.7 1.4 1.2.6.9.1.8-.6 2-.7 4.6.3 2 1.5-.2.3.4 1.1 1.3.6-.3.7-.3.6.1.7.3.2.4.3.8.2.2.3.2.6-.1.3.1.8.5.4.3.1.5.1.6.3.5.3.4.4.4 1.7 1.1.7.8.5 1.7.3.5.5.3.5.2.5-.1.3-.2.3-.4.3-.4.8-.4.8-.1 1.6.2.3.3.3 1.3.3.5.7.2.4-.1.5-.3.5-.2 1 .1 1.1.4 1 .5.4.6.1 1.4.3.5h2l.9.6 1.3 2.1.8 1 2.1 1.2.7.6-.6.5 1.4.6 1.8.4 1.5-.2.9-1.1.5.5.7.5.4.6-.3.8 1.7 1 4.2.1 1.4.7-.6 1.5.1 1.5.6 1.4h0zm-68.8-96.5v-.2l-.8.7-.2.3-1.1-.5-.2-1 .4-.9 1.8-.6.1-.2.2.3.2 1.3-.4.8h0zm-18.1 20.4.5-.5.4.3.7.2.9.3.1.6-.6.6-.4-.1-.6-.1-.5.2-.1.7-.2.3h-.4l-.2-.6-.1-.8.2-.7.3-.4h0z"/><path id="COATL" class="st0" d="m468.7 216.9-1-1.3-2.3-2.6-1.3-1.1-.3-.1-.9-.2-2.3-2.3-2.8.6-1.5-2.3-.7-.5.4-.6-.1-.1-.1-.3-.1-.1-.7-.2-.9-.1-1.9-.2-.3-.2-.2-.3-.1-.2-.4-.8-.2-.7.1-.2.5-1.8.1-.7.5-.4.4-.2.2-.3.2-.3v-1.1l-.1-.4-.1-.3-.1-.3-.2-.2-1-.8-.3-.4-.1-.3v-.2l.1-.5v-.2l.3-.5v-.1.2h.4l.3-.5 1.1-1-.3-.4-.1-.4v-.7l.4-.8-.2-1.3-.2-.3.7-.8.5-.3h.6l.6-.1.5-.3 3.2-2.1 2-.5 1-.6.7-.8-.1-.8.2-.5.3-1.2.2-.4.5-.4.7-.3h.9l1-.4.6-.8 1.3-.9.1-.9h1.4l1.7-.2.8-.7v-.9l-.1-.4.5.8 2.1 1.9 1.1 1.3.5.8.3 2.1.5.7.5.5.6.6.2 1-.3.9-.4 1-.2 1.1v.7l.9 2.3.1.4v1.1l-.3 4.4.1 3.3-.1 1.1-1 1.7-3 2.1-.9 1.8-.3 2.4-.3 1.1-.6 1-.8.9-2.7 5.3h0z"/><path id="COMAG" class="st0" d="M537.2 164.8v.2l.1 1.3-1 2.9-.2.5-.4.2-.2.2-.7.8-.2.2-.4.2-.4.1-.2.2-.1.3.2.8v.6l-.1.6-.1 2.7-.3.8-.3 1.2-.1.5.1.4.6 1 .3.7.2 2.1 1.1 3.8v.5l-1.7 2.6-.3.7.4.2h1.6l.8.2.8.4.6.6.1.7-.7 1-.6.6-1.4 2.6.5.9.2.8.3 1.9v.8l-.2.8.2.4.3.3.4.2.5.4v.6l-.4.4-1.1.6-1.5.4-.4.2-.2.4-.3.8-.4.4-.7.1h-.6l-.5.2-.7.9-.8.3-.7.2-1.8 1.3-1.9.6h-.6l-.4-.2h-.9l-.6.2-1.8.3-.7.3-.7.6-1 1-.4.9-.4 1.3-.6.8-1.5 1.6-.8 1.1-.5.6-.5 1.1-.9 1.2-.3 2.5-.4 1.6-.2.6v.7l.1.6 1.6 2.7 1.4 2.2.5.6.7.4.7.5.9.7 2.9 4 .5.4 2.2 2 .2 1.4v.4l-.3.8 1.4 2.4 1.6 4.9-.8 1-.3-.3-.2-.3-.2-.3-.2-.1h-.4l-2.1 1.3-.5.2h-.5l-.4-.1h-1.9l-.4-.2-.7-.5-.4-.1h-.8l-.6-.2-.4-.1-.4-.1-1.1.2-.8.3-.8.5-2.5 2.9-1.5 1 2.8 1.7 2.2 2 1 .6.9.8.3 2.9.6 1.1.4.4.5.3.3.3.2.4.1 1.8.1.4v.7l-.1.2-.2.2-.2.3-.1.2v.3l.1.2.2.4.2.3.6.3 2 .4h.5l.4-.1h.3l.3.4v.9l.3 1 .6 1.2 1.5 1.4 1.3 1.8-1.2 1.9-.5 1.5-.5 1-1.4 4.2-.6-1.4-.1-1.5.6-1.5-1.4-.7-4.2-.1-1.7-1 .3-.8-.4-.6-.7-.5-.5-.5-.9 1.1-1.5.2-1.8-.4-1.4-.6.6-.5-.7-.6-2.1-1.2-.8-1-1.3-2.1-.9-.6h-2l-.3-.5-.1-1.4-.4-.6-1-.5-1.1-.4-1-.1-.5.2-.5.3-.4.1-.7-.2-.3-.5-.3-1.3-.3-.3-1.6-.2-.8.1-.8.4-.3.4-.3.4-.3.2-.5.1-.5-.2-.5-.3-.3-.5-.5-1.7-.7-.8-1.7-1.1-.4-.4-.3-.4-.3-.5-.1-.6-.1-.5-.4-.3-.8-.5-.3-.1-.6.1-.3-.2-.2-.2-.3-.8-.2-.4-.7-.3-.6-.1-.7.3-.6.3-1.1-1.3-.3-.4-1.5.2-.3-2 .7-4.6.6-2-.1-.8-.6-.9-1.4-1.2-.4-.7-.2-1.1.2-.9.4-1.2.3-1.1-.3-.8-1.8-1.6-.5-.7-.4-1-.2-1.1-.1-2.3.2-1.1.3-.7.5-.5 1.8-.9.6-.4.3-.7.1-1.4-.1-.4-.4-.3-.4-.1-.1-.2-.7-1.6-.4-.6-.3-.2-.3-.3-1.6-.3-.3-.2-1-.6-.8-.3-.6-.6-.2-1.5.1-1.1.7-1.7.3-1.7.4-.7 2.7-5.3.8-.9.6-1 .3-1.1.3-2.4.9-1.8 3-2.1 1-1.7.1-1.1-.1-3.3.3-4.4v-1.1l-.1-.4-.9-2.3v-.7l.2-1.1.4-1 .3-.9-.2-1-.6-.6-.5-.5-.5-.7-.3-2.1-.5-.8-1.1-1.3-2.1-1.9-.5-.8v-.5l-.1-.3.3-.3 1.3.6 1.1.4 2.7.9 5 2 3.7 1.3 2.5.6 2.6.4 3.4.3 3.4-.2 2-.2-.8.5-2.5.5-4.8-.1-.6-.1-.6-.2h-.5l-.6.3-.2.4.1.6v.5l-.4.2-.2.7.5 1.5 1.3 2.4-.8-.4-.8-.8-.6-.5-.6.6-.4-.5h-1.2l-.7-.3-.4.2-.4.8-.3 1.1-.1.7v2.3l.4.4.7-.3.3-.8.2-.9.5-.6v.6l.2.4.3.2h.5l-.1.5.1 1.9.8.4.8-.1.7-.4.2-.9-.6.3-.5-.1-.2-.5-.1-.8.2-.7.4-.4.2-.5-.1-.6 1 .2.6.7.3 1 .3 2.5.4.6.8.1 2-.1h.4l.4-.3 1-.9.2-.2.1-.5 1.5-2.7v-1.8l.6-1.1.1-.4.1-.3.7-.8.2-.3.4-2 .5-1.1 3.1-4.7.2-.4-.2-.6-.7-.8-.2-.5v-.6l.3-.9.1-.5-.1-.5-.5-.9-.1-.5.1-.2.5-.5.1-.2-.1-.3-.1-.2h-.1l-.1-.2.1-.5.3-.5.7-1 .2-.3.3-.1.1-.2.1-.6.7-1.2.8-.1.6.2.4-.3-.1-1.2h.4v.3l.1.2.2.5.6-.7.1-.3.1.1h.1l.2.2h.3v-1l.5.4.4.8.5.2.5-.3.2-.5.3-.3.4.4h.3l.1-.4.2-.2.3-.1h.5l1.2.1 1 .4.9.6.8.8.4.1 2.3.5 1.7 1 2 .6 6.1.5 5.7-.5h1.4z"/><path id="COSAP" class="st0" d="m124.6 100.3-.5-1 .2-1.1.5-.8.8-.6.2.6-.9 3.9-.6.1-.4-.5.7-.6zM141.2 59l-.2-1.2.4-1.1.7-.6.7.4.3.9-.3.8-.7.5-.9.3z"/><path id="COCAQ" class="st0" d="M522 759.7h0l-3.9-1.2-2.4-1-1.1-.8-1.7-1.9-2.7-2.1-.9-.5-.9.3-.9.4-.9-.1-.3-.3-.2-1-.2-.3-.5-.3h-.3l-.3.1-.5-.1-.5.1-.4.2-.4.1-.6-.3-.4-.5-.2-.4-.5-1.5v-.4l-.1-.4-.3-.5-.5-.4-1.8-.9-1.1-.2-1.8.7h-.8l-.4-.6v-.8l-.3-.8-.8-.3-.8.3-.5 1.5-.7.3-.9-.1-.4-.3-.5-.2-.9.2-.8.1-1-.1-1-.4-.8-.4-.2-.4-.4-1.1-.2-.4-.5-.2-.3-.1-.4.1-.8-.2-.4.1-.4-.2-.2-.7-.1-.9-.1-.4-.6-1.1.1-.3.3-.4.7-1.3.2-.4-.2-.2-1-.4-.7-.4.2-.6.5-.6.3-.6-.3-2.1-1.3-1.5-1.8-1-5.7-1.1-3.2-1.7-2.2-.8-.4-.5-.2-1.7-.7-2.3-.2-.7.4-3.4-.6-1.4-1.9-.4-1 .3h-.5l-.5-.1-.2-.3-.1-.8-.1-.3-.7-.3h-.6l-1.2.5-1.7.4-1.1-.4-.8-1.1-.7-1.7-.2-.9.4-1.7v-.8l-.4-.9-1.2-1.4-.4-.8-.1-.5.1-1-.2-.5-.4-.5-.6-.3-1.2-.6-1-.2-2.8.4-4.3-.3-2-.7-3.1-3.3-2.1-1-2.3-.2-3.4.2h-1l-.9-.3-.9-.6-1-.5-2-.2-.9-.5-2.8-3.3-.6-1.1-.1-.9v-.7l-.2-.6-.7-.6-.9-.2-1.9.2h-.9l-1.4-.6-.7-.1-.7.1-5-4.5-.5-.1-2 .3-2.4-.5-.8-.4-.6-.8-.6-1.2-.1-.5.6-6.7.2-.6.9-1.3.4-.8.3-1.7 1.2-2.5 2.2-3.6.9-1.4 1-.7 3.2.6 2.6.1 1.2.1 1.3-.2 1.1-.4.9-.9.8-1 1-1 2.6-1.9.7-.7.7-1.2 1-1.2 3.3-3.5 2.5-3.5 3.4-5 3.8-3.4 3.8-6.2 1.6-2.6 1.2-2.1 1-.9 2.4-1.7.5-.3 1.9-2.1.7-1 .7-1.5 1.6-5.7.8-1.2.6-.6.6-.2.6.1 1.4.9.6.2 1.7-.5 4.3-3.4 1.8-1.9.3-.9-.4-1.5-1.1-1.2-1.2-.8-.4-1.2.2-1 .7-1.6 1-1.8 2.2-2.9 2-1.8.7-.7.4-.2.9-.3 5.1 1.7 2.4.3 1 .2.9.6.6.6.5.7 1.4 3.8.8 1.1 1 1 .9.7.7 1v1.8l-2.8 11.2-.4 2.5v1.6l.2 1.8.5 1.5.8 1.3 3 3.4.8 1.1.5 1.1.1 1-.4 1-.7 1-1.2 1.2-.9 1.3-.5 1.5-.1 1.8.5 2.3 1.1 2.5 1.8 2.2 2 1.3 30 10.6 1.4.2h1.9l4.8-.3 4.2.7.4 1.3.1.7 5.2 7.5.8.8 2.5 2 .7.8.8 1.5.8.9.5.8.5 1.6.1.7.1 1.2.2 1.2 2.5 2.9 5.1 4.5 1.4 1.8 1.8.5.6.4.4.6.3.8.5.7.9.7 1.2.7 2.6.8h1l.8-.1.7-.3.7-.4.4-.3.8-1.2 1.1-.9 1.1-1.1.7-.7 1.6-.7.7-.5.3-.6.2-.7.1-.5-.2-1v-.6l.5-.8.1-.9.2-.5.6-.8.4-.2.5-.1.4-.1.2-.3.2-.4.3-.1.7.2.8.5.7.9.7.6 1.1-1.7.1-.5 1.1-.2.6-.1 1.7.6.8.5 1.4 1.3 4.2 2.7 1.2.3 1.7.3.7.3 2.3 2.2.5.8.2.9.1 1.6.2.8.3.7.5.4h.8l.7.3.4.9.2 1.6.2.3.5.3.5-.2.4-.4h.4l.3 1.1v.7l-.3.9v.9l.5.5 1.4.5.5.4.9 2 .4.4 3.4.3.9.2 2.4.9.4.3.2.4.2.6.2.5.4.3 2.2.2.8.5.5 1.1.3 2 .4.9.8.6.4-.2.2-.4.4-.2.8.5.6.7.3.8v.8l-.5.7v1.2l1.6 1.3 2 1.3 1.1.9v.8l-.3.9-.2.8.3.7h.8l1.5-1.1.8.2.5.8.4.9.6.8 1.2.4.6.4 1 1.8.6.7 5.1 2.4 2.5 1.7.6-.1.6-.3.8-.2h.5l.9.3.4.1.6-.1 1.6-.4.5.1 1.2.7 1.8.6 1.5 1.5-3.4 3.3-2.6 1.5-9.4 4.1-3.2 2.2-1.9 2.2-.6 2.2-.7 1.6-1.1 1-1.6.7-2 .4-6.9-.1-1.5.2-1.3.6-1.9 1.9-2.7 1.5-.8.8-1.6 2.6-.9 1.2-1.1 1.2-.9 1.3-.3 1.6v1.8l.1 1.4-.1.3-.2 1-.6.6-1.3 1.1-2.3.4-1.7-1.1-1.6-1.6-1.6-.9-1.3.5-1.6 1.4-2.4 2.7-.7 1.1-.5.7-.7.1-1.3-.6-1.3-.9-5.3-4.3-1.5-.6-1.5.3-1.8 1.2-3.5.6-5.8-3.8-3 2.2-1.2 1.2-1.2.4h-1.3l-1.8.4-2-.2-2-1.5-1.8-1.9-1.7-1.3-.9-.2-.4.1-.5.4-.9.5-1.1.2-2.3-.1-2.2.1-3.9-.6-.6-.3-.4-.7-.6-1.5-.5-.4-.5-.1-.6.1h-.7l-.2-.1-.2-.1-.2-.2-.1-.4.2-.9-.1-.4-.3-.2-.3-.1h-.3l-.2-.1-1.5-1-.9-.4h-.8l-1.4.8-.7.3h-.9l-3.9-.7h0z"/><path id="COHUI" class="st0" d="m406.5 659.9-1.9-.8-1.9-.1-1.8-.6-.8-.5-1.3-.4-2.5-.8-1.8-1-1.3-1.3-2.3-3.6-2.6-3.4-3.7-2.9-1-1.8-.2-2.2.1-.6.4-.9 1.3-1.3.2-.5-.2-1.5-.1-2.3.9-1.1.7-.4.8.2.6.3.8.1h.9l1 .2.7-.1.7-.3.4-.3.2-.2-.1-.4-.1-.4-.1-.5v-.4l.7-.8.6-.3.7-1.3.7-1.9.2-.6.4-.5v-.8l-1.8-4.1.7-2.7 1.5.4.8.7 2.8 2.2 1 .2h1.2l4-1.1 1.7-.6 3.6-1.8 1.2-.9 1.2-1 1.2-1.4.7-.3 1.8 1.3 1.7 1.5 1 .5 1.6-.1.7-1 .6-.7 1.2-.6-1.4-2.9.1-1.4 1-2 1.1-3.6-.7-1.2-.6-1.4-.7-.7-.9-.7-.8-.3-.7-.6-1.3-1.6-1.3-1.1-5.4-4.7-.3-.9 1.5-1 .6-.1.8.2.4.4.6.5 1 .5 4 1.5 1.4.1.8-.2.4-.6 1.1-2.2 1.9-2.1 5-4 .9-1.1.4-1.7 1.3-1.3.1-2 1.2-2.3 1.4-2.3 1.5-2 1-1.5.7-.7.6-.1.5.1.5.1h.5l.6-.1.4-.4.5-.2 1-.3.4-.3.3-.3.3-.6.3-.2.3-.1 1.5-.2h.5l.5.3 1 .7.7.4.8.6.2-.2.4-.3.3-.6.7-.7.6-.1.4.1.3.3.1.3 1 .4v-.8l.5-.6.6-.3.3-.3.4-.2.4-.1h5l-.3.6-.3 1.1v.5l-.2.5-.4.5-.1.4-.1.8-.1.7-.2.6-.1.6.2.4.4.4 2.3.6 2.4.2 2.9-.6 2.7-2.7 1.9-2.8 1.1-1.2 1-1 .3-.6-.1-.5-.2-.6-.1-.8.2-1.2.3-.6.5-.4.5-.2.6-.7.2-.4v-.5l-.2-.4v-.6l.2-.5.3-.4.2-.3.4-.1.3-.1.4-.5.5-1.1.5-.6.6-.7 2-1.3 3.2-2.9.2-.7 1.7 2 1.9 1.4-.3 1.5-1.1 2.7-1.1 1.9-3.7 5-.6 1.8-.3 2.1-.2 4.2-.2 1.7-.5 1.6-1.5 2.6-1 .8-2.4 1.5-1.3 1.4-1.4.7-1.2.8-.5.7-1.8 3-1.3 3.9-.1.3-.9.3-.4.2-.7.7-2 1.8-2.2 2.9-1 1.8-.7 1.6-.2 1 .4 1.2 1.2.8 1.1 1.2.4 1.5-.3.9-1.8 1.9-4.3 3.4-1.7.5-.6-.2-1.4-.9-.6-.1-.6.2-.6.6-.8 1.2-1.6 5.7-.7 1.5-.7 1-1.9 2.1-.5.3-2.4 1.7-1 .9-1.2 2.1-1.6 2.6-3.8 6.2-3.8 3.4-3.4 5-2.5 3.5-3.3 3.5-1 1.2-.7 1.2-.7.7-2.6 1.9-1 1-.8 1-.9.9-1.1.4-1.3.2-1.2-.1-2.6-.1-3.2-.6h0z"/><path id="COGUV" class="st0" d="m692.5 598.7-20.1 8.3-.6.5-.1.4.5.5 2.9.9 2.5 1.3 1.2.4 1.1.6 1.1 1.1 2.5 3.5 2.1 4.1.7 1.5.6.7 1 .7 2.5.7 1.1.3h.3l.5.3.4.5.1 1 1.9-.3.3-.2.7-.3.7-.2.7.1 2.8.9h.6l1.2.7.7.3.5-.3.1-.5v-.7l.4-.2h.8l.9-.3h.7l.3.2.3.3.6.2h1.2l1.5-.5h.9l.3-.1v-.2l.2-.3.6-.1 1.5.1.8-.3.6-.4h.6l.7.5.9 1.4 1 1.2.2.3.1.3-.3.8-1.3.8-.4.5-2 1.3-1.5 1.2-.1 1.1-2.2 1.5-1.2 1.2-.6.5-.9.4-3 .3-2.2.6-1.8.6-1 .1h-.9l-.6.2h-.8l-2 .3-.9.5-.8.7-.5.4-.6.3-1.9.4-1.1.4-3.4.7-1.5.9-.9.1-.8.1-.7-.1-.6-.2-.5-.3-.5-.1-.6-.2-.6.1-1.9-.1-4.7.1-.4-.1h-.4l-.4.1-.8 1.1-2 2.1-1.3.8-1.7.9-2.6 1-4.2 2.2-2.4 1.8-.9.9-1.1.9-.8.6-1-.2-.5-.1-1-1.1-1.7-.6-1.5-1.2-.8.2-.2 4.3-.2 1.4-.3 1.1-1.4 1.7-.4.8-.5 1.8-1 2.5-.6 1.1-.3 1.3-.4 1.4-2.3 5.5-.5.4-.1.5v.5l.1 1.2-.1.6.7 1.3.2.5.7 1 .3.7.4.6.3.6-.2.5-.5.1-.6-.2-.4-.5-.1-.5-.1-.7-.1-.4-.3-.2-.3.1-.3.2-.1.7.1.6-.1.3-.7-.1-.4.2-.2.5v.5l.1.6-.1.5-.6 1.2-.6.8-.9.7-2.3 2.3-.6.2h-.5l-.7-.3-.8-.1-.9.2-.7.6-.8 1.1-.3.9-.4.7-1.6 1.6-1.5 1.3-9.5 9.9-2.2-.2-.4-.3-.2-.5-.2-.6-.2-.4-.4-.3-2.4-.9-.9-.2-3.4-.3-.4-.4-.9-2-.5-.4-1.4-.5-.5-.5v-.9l.3-.9v-.7l-.3-1.1h-.4l-.4.4-.5.2-.5-.3-.2-.3-.2-1.6-.4-.9-.7-.3h-.8l-.5-.4-.3-.7-.2-.8-.1-1.6-.2-.9-.5-.8-2.3-2.2-.7-.3-1.7-.3-1.2-.3-4.2-2.7-1.4-1.3-.8-.5-1.7-.6-.6.1-1.1.2-.1.5-1.1 1.7-.7-.6-.7-.9-.8-.5-.7-.2-.3.1-.2.4-.2.3-.4.1-.5.1-.4.2-.6.8-.2.5-.1.9-.5.8v.6l.2 1-.1.5-.2.7-.3.6-.7.5-1.6.7-.7.7-1.1 1.1-1.1.9-.8 1.2-.4.3-.7.4-.7.3-.8.1h-1l-2.6-.8-1.2-.7-.9-.7-.5-.7-.3-.8-.4-.6-.6-.4-1.8-.5-1.4-1.8-5.1-4.5-2.5-2.9-.2-1.2-.1-1.2-.1-.7-.5-1.6-.5-.8-.8-.9-.8-1.5-.7-.8-2.5-2-.8-.8-5.2-7.5-.1-.7-.4-1.3.7-.9.2-24.5-.1-6.5.3-2.1.3-.4.4-.9.5-.6.3-.4v-.4l-.1-.4v-.5l.4-.5.6-.4.4-.1h.3l.1.4v.4l.3.4h.4l.5-.1 1.5-1h.4l.2.3.5 1 .3.3 1.6-.2.5.1.3.2.4.1.2-.3.3-1.6.6 1.2-.1.5v.6l.2.4.2.1.3-.3.4-.4h.9l.4.2.3.5h.2l.2-.3.2-.5.3-.4h.6l.3.2-.1.8.2.3.4-.1.3-.4.2-.3.4-.2 1.3.5.9-.2 1.2-.1.5-.3v-.4l-.3-.4v-.3l1.6-.9.9.4 1.2-.2.3.1.2.4.1.4.4.3h.5l.5-.2.2-.4v-.8l.3-.2.4.1.3.2.4.3.4-.1.7-.7 1-.8.8-.3.5.1.3.2.5.1.7-.4 1-.9.9-.4.4-.5.4-.5 1.1-.2.2-.4-.2-.5-.3-.3-.3-.3.3-.8.9-.5.3-.5.4-.7 4.3-2.5 1-.3.5.1.5.7.5.3.5.7 1.2.4.7-.8.5-1.1.5-.6 1.7-.3.7.3.3 1.7.1.4.4.2.5-.2.3-2.1.8-.6.5.3.8 1.4h-.4l.2.1.6.3v-1.5l.1-1.1.6-.6h1.3v-.3l-.2-.2-.4-.2-.3-.3-.1-.2.1-.5h.4l.4.2.4.1.6.1.3.1h.3l1.2-.9.4-.2 1.8-.2.9-.2.8-.4 2-1.8.9-.1 2 1.2.3-1.1.4-.6.6-.1.8.8.6 1.7.2.3.2-1V601l-.1-.5.1-.3.7-.5.7-.4.6-.2.7.1h.1V598l-.2-.9v-.9l.2-.7.6-.3 2-.4 1-.3.8.2.7 1.2.7.6 1.2.3 1.9.2.6.5.2-.2.4.6h.7l.7-.2.7-.1.2-.1.2-.2h.2l.8-.2 4.4-.8 1.1-.5.5-.6.7-.4h.4l.4.5.3 1.5.6.2.4-.5.2-.9-.1-1.5.3-.4.4.1 1.9 1.8.7.2.6-.3.4-.4.4-.4h.3l.2.3-.1 1.3.2.6 1.1.2 2.2-1 .5-.6.4-.4.5-.2h.7l1.4-.2 1 .2 1.1.3.6-.1.7-1.1h.4l1.7 1.1 1 .4.6-.1.2-.5.1-.5.3-.3h.5l.4.4.5.4.5-.1.3-.5.3-1.3.3-.5h.5l.4.4.2.7.4.6.4.4h.9l.5.1.6.4h.5l.6-.2 1.8-1.3.4.1.6.4.5.4.5.1.5-.2.4-.4.3.1 1.1.5 1-.2 1.1-.2 1 .6h.8l1 .3.2.4-.1.5-.1.5v.5l.3.2.4-.1.2-.5v-.6l-.2-.9.1-.5.5-.1.8.7.6.9.5.3.3-.3-.1-.6.4-.5h.4l.7.6v.6l-.1.6.1.3 1.3-.7h.8l.8.5.6 1.2.5.2.8-.2.7-.4.7-.4.6-.2.4.1.2.4v.6l.2.5.3.1 2.1-1.7.3-.4v-.5l-.2-.6-.3-.5-.1-.4.2-.3h.5l.5.3 1.2 1.5h.5l.6-.6h1l.8.2 4.8 2.9h0z"/><path id="COCAL" class="st0" d="m481.6 446.9.2.4.4.3.2.3v1.7l.1.2.1.3.2.1.4.2-.1.3-.2.3-.3.6-.4.5-.1.5.5.2.3.6-.3 1.4-.9 2.2.8.2.2.3-.3.4-.9.1-.7.2-.1.5.3.5.7.2-.3.8-.1.9.1 1 .3.8-.7.1-.2.3.3 1.2-.2.2-.4.3-.3.3-.4 1.4-1 1.7-.2 1-.2.2-.8.8-.2.1-.3.3.1.6-.5.1-1.9-.8-1.8-.5h-.5l-1 .2-1 .4-1.9-.4h-1.1l-1.8.7-1.1.1h-.7l-.9.4-.4.3-1.3.6-.2.9-2.2 3.1-.3.6v.3l-.2.3-.2.2-.5.1-.7-.2-1.1-.5-1.5.7-.5.5-.7.4-.9.3h-.7l-.6-.1h-.6l-.8.4-1.1 1-1.2 1.3-.4 1.3.9.5.6 1.2-1.5 3.1-.2.7-.1.7.8 1.5.4.8v.7l-.4.8-.9 1.3-1.1 1.9-1.3-1.2-1.5-1.2-.9-.9-.7-.9-1-1.5-.4-.3-.6-.2h-1l-1.4-.4-.5-.1-1.2.1-1.3-.2-.2-.3v-.2l-.1-.3-.5-.9-.4-.2-.2-.1-.1.1v.1l-.1.1-1 .9-.3.2-.3.1h-.7l-.5-.1-.4-.1-.2-.2-.2-.5-1.8-4.2h-.3l-1.5 2.3-.1.4-.1 1.7-.1.5-.3.5-.8.7-.4.2-1-.2-1-.4-.1-.4-1.2-.9-.6-.8-.3-.7-.1-.3v-.4l-.1-.8-.4-.7-.6-.6 1.1-2.9.6-1.1.3-.1.4-.1h.9l.3.2.9.5.4-1.9 1.1-2.2.1-.4.1-.4-.1-1-.1-.3-.3-.3-.2-.2-.1-.4-.1-.5.2-.6 1-.8h.2l.4.1.9.4.8-.2.8.7.2.1.4.2 1.6.3.9-.3.4-.1 1-1.5.2-.5-.6-.6-.3-.4-.1-.7v-.3l-.3-.5-1.5-1.5-.5-.4-.5-.3h-.3l-.2.1-.6.4-.2.1h-.6l-2 .9-.3.1-1.9.2-.9-.7v-5.8l2.7-1.1 3.3-2.4.7-.1.8.6.5.4.6.6.5.1 1.1-.1 1 .2 1.2-.1.6.2.7.2.3-1.2v-1l-.1-1.1-.8-2.8v-.7l.3-1.6-.7-.2-.3-.7v-1.7h.6l1.6.6.6.1.6.5v.1l.2.2v.2l.1.2.2.3.2.2 1.9.7.4.2h.8l2.2-1.2.6.2.2.2.2.2.4.1.7.3.3.3.2.5-.1 1-.1.5.1.5.5.6.4.2.3.1.3.2.4.5 1.2 3.6.1.6v.2l-.2 1.9 1.4-.5.7 2h.3l.3-.2.6-.9.1-.3.3-.2.2-.3.5-.9.3-.3.5-.4 1-.7.7-.3.5-.2.2-.1 1.3-.1.2-.1.2-.2v-.4l1.7-1.9.5-.8v-.2l-.1-.2V454l.1-1.4 1.9-.2 1-.3.6-.3.4-.3.2-.2.3-.3.2-.3.2-.3.3-.5 3.2-1 1.9-.4 1.2-.2 1 .3.2.2.2.2.5.5 2.1 1.4.5.2 1.7-.5.6-1.2.3-1.1.2-.5.2-.4v-.4l.1-.1.2-.1.4-.1h.3l.4-.2h.2l.2.1.4.4.2.2.4-.3h0z"/><path id="COCAS" class="st0" d="m600.2 417.4-1.3 2.1-.2.6v.5l.3 1.3 1.1 1.9 2 2 1.2 2.4.7.6.9.6 2 1 1.7 1.1 1.2.3h.8l2.9-2.1 2.8-.7 2.9-1.3 1-.3h1.1l.9.2 1.6-.2 5.4-2 1.4-.3h3.8l1.1-.4.8-.1.5.1 1.3.7.8.2 1.5-.4h.9l1.1.1 1.3-.1 2-.7.7-.4.8-.2 1-.2h1.5l1.9-.8 1.2-.8.6-.1.6.1.8-.2.8.1 1-.7 1.7.3 1.6.7 1.2.1h2.7l1.7.3 3.7 1.3 4.8.3h.5l1.2-.4 1-.3 1.1-.2.9.2 2 .9.2.1h2.8l4-.6 2.6-.2h1.9l1.1-.3 2.1-1 3.5-1.3 1.3-.1 1 .1 1.6.5h2.1l1.5-.2h1.7l1.3.2.7.1 1.7.8.4.3.6.9.4.3 1.5.9.4.4.3.5.1.6.3.6.7.5 3.3 1.3 1 .5 1.2 1 .4.5.2.4v.9l.8 1 1.7.8-1.1 1.1-1.1 1.7-3.6 8.3-.8 1.4-2.2 2.2-.3.8-1.7 2.6-1.2 1.2-1.5 1.3-1.7 1-1.5.7-2.1.4-4 .2-1.9.4-3.2 1.2-1.1.2-1.1.4-3.2 2.4-3.4 1.8-1 .8-1 .6-2.2.9-.8.8-.2.9-.2 2.4-.5.5-.8.3-8.9 7.8-.9.5-2 .5-.8.9-3.3 8.1-1.1 1.4-.6.6-1.4 1.2-.6.3-.7.2-.9.4-1.4.8-2.5 1.9-.4.5-3 .4-14.7 6.3-4 2.8-2.1 1-4.6 1.4-.6.1-.6-.1-.5.1-.5.4-3.9 4.3-3.9 3.3-1.9 1.1-2 .6-1-.3-.5-.8-.5-.7-1.9-1.2-.5-.2h-.6l-8.1 1.8-.7.3-2.2 3.3-1.1.3-1.3-.1-1-.7-2.4 1.3-1.2.4-.5-.8-.3-.4-.7-.2-.7-.2-.6-.1-.3.3-1.1 2-.4.1-.3-.2-.3-.3-.4-.2-.1.1-.1.1-.3.2h-.3l-2-.4h-.5l-.4.2-.7.6-.2.2-.6.1-.4-.1-1.1-.6-.2-1.4-.1-.4-.4-.2h-.4l-.4.1h-.4v-.3l.1-.3.1-.5-.4-.4v-.3l-.1-.5-.9-.9-.2-.4v-.3l-.2-.2h-1l-4.6-4.8-3.4-6.3-2.3-2.3-.3-.5-.4-1.5.2-1-1-2.9.2-1 .8-2.2.2-2.3.7-3.4.3-.4.7-.1 2 .9 1.1-1.4.9-.8.3-.5.3-1.2.8-1.4-.4-.7-1.3-1-.5-.9-.2-.7v-.7l.2-1.1.2-.5.1-.3.4-.4-.2-1.8.5-.4 2.8-4 .8-.9.8-.7.6-.3 1.1-1 1 .5.4.4 1.3 1.8.9.8 1.4 1.9h1l2.9-2.6 2.2-1.2.7-1.1 1.1-1.9 5.6-6 1.2-1.4.6-.3h.5l.3.2.3.5.5.8.3.4 1.1.8.7.4.4.1.4-.3.7-3.5.1-.4.3-.6.7-.6.2-.6.2-.6.2-1 .3-.5.3-.4.4-.1.7-.7-1.1-1-1.2-1.6-1-.8-.4-1.2-2-1.5-4.9-2.6v-1l.3-.4.5-.4.8-.3 1.2-.3.2-.4 1.1-3.7.4-2.6.8-1.3.1-1-1.5-1.6-.4-.6-.1-.7-.4-.7-.2-1.2-.3-.3-.8-.4-.1-.4v-.5l1-3.2 2.1-3.5 1.7-.8h0z"/><path id="COMET" class="st0" d="m664.1 490.3-.2 79.1v25l-1 .2-1.1-.5-.3-.1-.4.4-.5.2-.5-.1-.5-.4-.6-.4-.4-.1-1.8 1.3-.6.2h-.5l-.6-.4-.5-.1h-.9l-.4-.4-.4-.6-.2-.7-.4-.4h-.5l-.3.5-.3 1.3-.3.5-.5.1-.5-.4-.4-.4h-.5l-.3.3-.1.5-.2.5-.6.1-1-.4-1.7-1.1h-.4l-.7 1.1-.6.1-1.1-.3-1-.2-1.4.2h-.7l-.5.2-.4.4-.5.6-2.2 1-1.1-.2-.2-.6.1-1.3-.2-.3h-.3l-.4.4-.4.4-.6.3-.7-.2-1.9-1.8-.4-.1-.3.4.1 1.5-.2.9-.4.5-.6-.2-.3-1.5-.4-.5h-.4l-.7.4-.5.6-1.1.5-4.4.8-.8.2h-.2l-.2.2-.2.1-.7.1-.7.2h-.7l-.4-.6-.2.2-.6-.5-1.9-.2-1.2-.3-.7-.6-.7-1.2-.8-.2-1 .3-2 .4-.6.3-.2.7v.9l.2.9v1.2h-.1l-.7-.1-.6.2-.7.4-.7.5-.1.3.1.5v1.1l-.2 1-.2-.3-.6-1.7-.8-.8-.6.1-.4.6-.3 1.1-2-1.2-.9.1-2 1.8-.8.4-.9.2-1.8.2-.4.2-1.2.9h-.3l-.3-.1-.6-.1-.4-.1-.4-.2h-.4l-.1.5.1.2.3.3.4.2.2.2v.3H588l-.6.6-.1 1.1v1.5l-.6-.3-.2-.1h.4l-.8-1.4-.5-.3-.8.6-.3 2.1-.5.2-.4-.2-.1-.4-.3-1.7-.7-.3-1.7.3-.5.6-.5 1.1-.7.8-1.2-.4-.5-.7-.5-.3-.5-.7-.5-.1-1 .3-4.3 2.5-.4.7-.3.5-.9.5-.3.8.3.3.3.3.2.5-.2.4-1.1.2-.4.5-.4.5-.9.4-1 .9-.7.4-.5-.1-.3-.2-.5-.1-.8.3-1 .8-.7.7-.4.1-.4-.3-.3-.2-.4-.1-.3.2v.8l-.2.4-.5.2h-.5l-.4-.3-.1-.4-.2-.4-.3-.1-1.2.2-.9-.4-1.6.9v.3l.3.4v.4l-.5.3-1.2.1-.9.2-1.3-.5-.4.2-.2.3-.3.4-.4.1-.2-.3.1-.8-.3-.2h-.6l-.3.4-.2.5-.2.3h-.2l-.3-.5-.4-.2h-.9l-.4.4-.3.3-.2-.1-.2-.4v-.6l.1-.5-.6-1.2-.3 1.6-.2.3-.4-.1-.3-.2-.5-.1-1.6.2-.3-.3-.5-1-.2-.3h-.4l-1.5 1-.5.1h-.4l-.3-.4v-.4l-.1-.4h-.3l-.4.1-.6.4-.4.5v.5l.1.4v.4l-.3.4-.5.6-.4.9-.3.4-.3 2.1.1 6.5-.2 24.5-.7.9-4.2-.7-4.8.3h-1.9l-1.4-.2-30-10.6-2-1.3-1.8-2.2-1.1-2.5-.5-2.3.1-1.8.5-1.5.9-1.3 1.2-1.2.7-1 .4-1-.1-1-.5-1.1-.8-1.1-3-3.4-.8-1.3-.5-1.5-.2-1.8v-1.6l.4-2.5 2.8-11.2v-1.8l-.7-1-.9-.7-1-1-.8-1.1-1.4-3.8-.5-.7-.6-.6-.9-.6-1-.2-2.4-.3-5.1-1.7.1-.3 1.3-3.9 1.8-3 .5-.7 1.2-.8 1.4-.7 1.3-1.4 2.4-1.5 1-.8 1.5-2.6.5-1.6.2-1.7.2-4.2.3-2.1.6-1.8 3.7-5 1.1-1.9 1.1-2.7.3-1.5 1.4 1.4 1.5.1.4-.2.2-.5.1-.2.4-.5.6-1.5 3.3-4 1-1.6.4-1.2v-1.1l.5-.6.9-.9 1.3-1.6.6-1 1-2.1.8-.5 2.7.6 1.6.1 2.5-2.4 1.8-1.2.8-.9.9-.4.7-.2.7-.1.9-.2.5-.6.4-1 1.2-.5.9-.3 3.4-1.5.5-.4.5-.4h1.1l.6.2 1.4-.1-.5-1.7-.1-.5v-.8l-.4-.8-.8-.8-.1-.5v-.5l.1-1-.6-2.7-.6-.7.1-1.1.3-.5.5-.7.4-.2 1.2-.6 1.1-.6.3-.7.8-1.2.5-.4.6-.2.5.2.6.3.3.3.2.4.6.4h.7l.4.1.5.2.6 1.1.6.7.7.9.2.5v.7l.3 1.4 1.1 2.4v.6l.3.3.4.4.6.4.8.2.5.3.8.2.8-.2.8-.3 1.3-1 3.2-.4 6.2 1.6 1.1.4.7.5.3.6.2.2.6.3 1.3 1 .8.3.3-.2.3-.5.1-1.2 1.7-11 1.7-12 .5-.9.4 1.5.3.5 2.3 2.3 3.4 6.3 4.6 4.8h1l.2.2v.3l.2.4.9.9.1.5v.3l.4.4-.1.5-.1.3v.3h.4l.4-.1h.4l.4.2.1.4.2 1.4 1.1.6.4.1.6-.1.2-.2.7-.6.4-.2h.5l2 .4h.3l.3-.2.1-.1.1-.1.4.2.3.3.3.2.4-.1 1.1-2 .3-.3.6.1.7.2.7.2.3.4.5.8 1.2-.4 2.4-1.3 1 .7 1.3.1 1.1-.3 2.2-3.3.7-.3 8.1-1.8h.6l.5.2 1.9 1.2.5.7.5.8 1 .3 2-.6 1.9-1.1 3.9-3.3 3.9-4.3.5-.4.5-.1.6.1.6-.1 4.6-1.4 2.1-1 4-2.8 14.7-6.3 3-.4.4-.5 2.5-1.9 1.4-.8.9-.4.7-.2.6-.3 1.4-1.2h0z"/><path id="COCUN" class="st0" d="m482.4 447.9.8-.4 2.8-.5 1.2-.5.6-.5h.3l.9.1.8.3.7.3 2.3.4 1.3-.3.5-.4.7-.5 1.5-1.3.8-.5.4.1.3.3.2.3v.3l.1.2.2.2.2.1.2.1.1.1v1l.1.5.4.5v.4l.1.6-.1.9.3.8.4.5.1.5-.2.6-.5.6-.6 1.1-.1.6.1.6.7 1.4 2.2 2.1.3 1v.4l-.1.9.1.4.3.4.6-.1h1.2l1.6 1 .9.4.6.2 2.5-.1v1l.5.8.5.5.8.4.8.1 2.4 1.3 3.3-3 1.4-.4.4-1.1v-.9l2.8-2.9 1.1-1 .5-.2.4-.1h.3l.3.3v2.5l2.7 1.3 1-.2 1.2 1.1.8.3h.6l.4-.1h.3l.1.5.5 1.1 2.1 1.9.5.3v.5l.4.5-.3.6-.2.7-.1.6.2.7.3.6 1.3 1 .9.7.2.4.8 1.3-.2 1.3.4 1.4 1.2 2.2.2.5-.2.8.1 1.1.8 1.4-.1.7-2 1.5.2 1.6-1.6 3v.7l1.1 1.6h4.2l1.5.5.4.3.8 1.2.7.9.4.5-.2.8.1.4 1.9.7 1.1 1.7.2.6.4.4.6.1.9-.3h1l.5.2.4.3.2 1.5.4.9h1.1l2.1.8 2.1-.1.6-.4.4-.4.2-.4.6-1 .1-.3.1-.3-.1-.3.1-.2.3-.3h.7l-.5.9-1.7 12-1.7 11-.1 1.2-.3.5-.3.2-.8-.3-1.3-1-.6-.3-.2-.2-.3-.6-.7-.5-1.1-.4-6.2-1.6-3.2.4-1.3 1-.8.3-.8.2-.8-.2-.5-.3-.8-.2-.6-.4-.4-.4-.3-.3v-.6l-1.1-2.4-.3-1.4v-.7l-.2-.5-.7-.9-.6-.7-.6-1.1-.5-.2-.4-.1h-.7l-.6-.4-.2-.4-.3-.3-.6-.3-.5-.2-.6.2-.5.4-.8 1.2-.3.7-1.1.6-1.2.6-.4.2-.5.7-.3.5-.1 1.1.6.7.6 2.7-.1 1v.5l.1.5.8.8.4.8v.8l.1.5.5 1.7-1.4.1-.6-.2h-1.1l-.5.4-.5.4-3.4 1.5-.9.3-1.2.5-.4 1-.5.6-.9.2-.7.1-.7.2-.9.4-.8.9-1.8 1.2-2.5 2.4-1.6-.1 1-2.5.1-1.6.2-.4.4-.3.5-.4.4-.4.5-.7v-.5l-.5-1.1-.6-.9-1.2-1.4-.7-2v-.8l.2-.7 2.1-3.3.2-1.5-.2-.4-.4-1.3v-1.3l.2-.6.3-.5.9-.7.6-1.1.6-.9 1.5-2.4.3-.3.8-.4.9-3.3h-1l-.7-.6-.1-.4.1-.3.1-.3.5-.4.2-.5-.2-.5-.1-4.1.1-1 .3-1.2-1.4-.6-1-.2-.4.1-.8-.4-.2.2.2.2v.8l-.1.3-.3.4-.7.4-.4.3-1 2.5-.1.3-.9.2-.3.7-.9.7.1.4v.2l-.1.2h.5l.2.1v.3l-.2.4-.4.3-1.3.6-1.3 1 .6 1.2.3.3.3.1.3.3.3.5.6 2.1-.1 2.1-1.9 5.1 1.1-.1.2.4-.1.8-.5 1.9-.4 2.7-.1.8-.1.8-.3.8-.5 1-1 1.2v2.2l-.6 2.2-.2.4-.3.2-1.3-.4-.5-.3-1.1-.7-.4.3-.3.4-1.5 4 .1 1.1v1.2l.4 1 .1.6v.6l-.2.8-.3 1-1.3 2.9-1.3 2.4-3.6 5.1-1.9-1.4-1.7-2 .6-3.8 1.4-2.4.4-1.3.3-.9-.1-.6-1-1.8.6-2-.3-.8.1-.7.2-.6.3-.6.7-.7.3-.3.6-.7.1-1.2-.3-1.3-.1-.5-.3-.8-.3-.5-1.2-2.4-.9-.7-.4-.4-.3-.3-.5-.2h-.8l-1.3.6-.5.2-.3.4-.2.7-.2.3-.3.2-.4.6-.2.2-.3.1-.3-.2-.3-.1-.5.1-.6-.1-.6-.2-1.6-1.5-.9.3-.3-.8-.2-.1-1.2-.6v-.6l-1.3.2-1.1.1-1.5.3-1 .1-.6-.5.2-1.5 3.6-8 .6-1.9v-2.1l-.7-2.2.7-.2-.1-.3-.6-.5.4-.6.8-1.1.2-.6-.1-.3-.3-.2-.4-.1-.2-.3-.1-.3v-.3l.1-.2v-.2l-.7-1-.2-.6.4-.6.5-.4.7-.2.5-.3.2-.5.1-.6.7-.7.2-.6-.4-2.5v-.8l.1-.6.4-.5.6-.2-.2-.4v-.4l.2-.4v-.5l-.6-1.8-.1-.3.3-.3 1.2-.5.3-.3-.2-.3-.7-1.2-.2-.6v-1l.7-3.1-.3-8.2-.4-1.1-.1-.6.3-.3.2-.1.8-.8.2-.2.2-1 1-1.7.4-1.4.3-.3.4-.3.2-.2-.3-1.2.2-.3.7-.1-.3-.8-.1-1 .1-.9.3-.8-.7-.2-.3-.5.1-.5.7-.2.9-.1.3-.4-.2-.3-.8-.2.9-2.2.3-1.4-.3-.6-.5-.2.1-.5.4-.5.3-.6.2-.3.1-.3-.4-.2-.2-.1-.1-.3-.1-.2v-1.7h0z"/><path id="COSAN" class="st0" d="m526 325 .3 2.5.1.7.4 1.1 2.1 3.6v1l.3.3.2.2.2.1h.4l.2.1.1.1.4.4.2.1.4.3.1.2.2.3.3.9v.9l-.4.9-1.4 1.2-.6.4-.3.2-.8.9-.3.5-.1.5.2.7.1.5v.5l-.3.6-.2.3-.1 1.5 6.4.3.8.9.4.4.5.3 1.2.6 1.2 1.1 1.3 1.4.1.4.1.2v.2l.1.1.5.9.4.3.7.5.7.3 1 .2 2.8.4.9.6.2.5.6.1.9.2 1.7-.1 1.5.1.9.1.2-.4.5-2.3.8-1.2.4-.4.4-.1.6.1.2.1.2.1.3.1h1l1.6.2h1.7l.3.1.2.1.2.1h.9l.9.3.4-.4 1-.3 1.9.4-.2.5v.2l-.1.3.4 1.7.2.7.5.7 3.6 2.9.1.7-.1.7.3 1 1.5 2.3.5.6v.4l.1.1.7.3-.1 2.8-1.9 2.3.7 1 .2.2.4.6.2.2.3.3.5.2.1.3v1.1l.1.4.1.3v.2l-.3.7-.7.9-1.8 2.9.3.8.2.1 1.4.6 1.1.2 1.3.3.4.2.5.6.6.4 1.3 1.2.9-.5.4-.2.2-.1h1l.4-.1.3.2.3.5.2.8.1.2.3-.2.1-.2.2-.5.2-.2.2-.1.3.1.4.1.4.1 1.4-.3.6-.3h.3l.4-.1.5.1.3.1.3.4.1.6.2 1.2.1.8-.2 1.5.2 1.4 1-.1.2-.2.3-.3.2-.3.4-.7 1.4 3.7-.4 1.1-.1.6v.8l.5 1.8-.2 1.9-.8 3.9-2 3.4-.3.9v3l-.4.6-.6.3-.9.5-1.9 1.9-1.3.4-.9-.3-1-2.6-.6-1.1-.8-1.1-1.8-1.3-.9-.9h-.5l-1 .3-.5.8.3.9 1.6 1.6.5.3.5.5.3.8.2.7-.3 2 .2 2.1-1 2.9.7 1.6-.2.9v1l-.1.5-.4.6-.7.6-.6.3-.9.5-.9 2.5-1 .6-1.5.4-1.4.5-.7.8-.5 1-3.8 4.5-.7 2.5-.5.5h-.9l-4.7-.7-1.7-.9-1.2-.8-.6-.2-.3.1-.9.4-.9 2.5-2.5 3.9-1.3.2-1.7-.6-.3.1-.2.2-.1 1.2-.6 1.2-1 1-.7 1.8-.6.1-.7-.5-2-2.5-.2-1.8.4-.2 1.1-.7.1-.2.1-.9 1.2-.6.7-1.2.8-2 .2-1.1v-.9l-.2-.6-.6-.9-2.1-2-2.3-1.1-.8-.8-1.6 2.8-.2.5-2.2 1.8-.5 1-.3 1.8-1 1.6-.2.8.2.9.1 1-.1 1.2-.5 1.5-.5 2.5v1.2l-.1.5-.1.5-.5.4-.5-.5-.9-.8-1-.6-1-.3-1.1-.1-1.6.2-3.3.9-2.3 1.4.1-1.3-.3-.3-.6-.2-.5-.1-.9.1-1 .3-.4.1-.6.3h-.6l-1.8-1-1.1-1.4-.9-1.7-.5-.4-.6-.1-.9-.1-.4-1.6-.7-.7-2.2-.6-1.1-1-1 .7-.7 1.1-.7.6-.6.4-.3.1-.9-.2-.6-1.8v-.7l.3-1.1 1.2-2.3.1-.9-.5-1-.5-.9-.6-1.5-.5-.7-.5-.4-.7.1-.7.3-1.3 1-.7.2-.5-.1-.5-.2-.4-.2-.4-.3-.7-.4-.7-.6-1.1-1.1-1.9-3-.8-2.4-.5-1-.4-1.5-.1-.4-.2-1.2 1.7-1.2 1.3-1.4 2.3-3.6.6.2.5-.1.4-.5.3-.6-.1-.5-.3-.6-.9-.9-.1-.6-.1-4.7v-.4l.7-1.5.1-.4.3-.7.8-.3 2-.2 1.9-1 9.4-6.9.6-.9 1.6-3.1 2.1-2.2.3-.8.5-.4 4.2-2 1.2-.9.6-1.4-.2-2.1-.4-.8-.6-.7-.5-.8-.2-1-.5-6.6.3-2.2v-.1l.3-2.2.6-2.1.6-1.4.1-.5-.1-.6-.5-.7-.1-.5v-2l.3-.7 2.8-3.6.2-.5.6-.3.3-.7-.1-1.8.1-.5.2-.4.1-.5-.2-.5-.4-.7.1-.4.3-.4.2-.6.4-2.9-.1-1.1-.6-3.1-.2-.4-.5-.5-.7-3 .1-.7-.9-2.8v-2l.4-1.6.5-1.4v-.1l1-.5h.2l.5-.6.3-.6.4-.4.6-.2.5-.5h0z"/><path id="COTOL" class="st0" d="M412.3 591.3v-3.4l-.7-2-1.1-.9-.7-1-.7-.3-1-.8v-.5l.1-.6.2-.5.5-.5.3-1.3-.2-.9.2-1.2.8-.5.5-.7.1-2.8.2-.6.3-.4.3-.3.2-.3-.1-.5-.3-.5-.6-1.2.6-1.4.1-1.2.1-1.7.3-1 .5-1.3.2-.8.4-.7.5-.8.3-.7.4-.6.1-.7-.1-1 .4-2.8.5-.9.4-.6.5-1.8.3-.2.9-1.1.1-.3.6-1.3 3.4-5.1 1.1-2.8.8-1.5.5-.7.7-2 .4-.6.6-.4 1.6-.7-.1-.6-.8-1.3 2.6-3 .9-1.4.3-.8 1.1-1.4.3-.9 1.1-.9 1.3-1.7.5-1 .7-3.1.3-3.5 1.2-2.5 1.5-1.8.8-2.4.4-.6 1.2-1.2 2.4-1.3.3-.4.3-.5.3-1.2 1.4-2.4-.1-.4.7-4.3 1.1-1.9.9-1.3.4-.8v-.7l-.4-.8-.8-1.5.1-.7.2-.7 1.5-3.1-.6-1.2-.9-.5.4-1.3 1.2-1.3 1.1-1 .8-.4h.6l.6.1h.7l.9-.3.7-.4.5-.5 1.5-.7 1.1.5.7.2.5-.1.2-.2.2-.3v-.3l.3-.6 2.2-3.1.2-.9 1.3-.6.4-.3.9-.4h.7l1.1-.1 1.8-.7h1.1l1.9.4 1-.4 1-.2h.5l1.8.5 1.9.8.5-.1.4 1.1.3 8.2-.7 3.1v1l.2.6.7 1.2.2.3-.3.3-1.2.5-.3.3.1.3.6 1.8v.5l-.2.4v.4l.2.4-.6.2-.4.5-.1.6v.8l.4 2.5-.2.6-.7.7-.1.6-.2.5-.5.3-.7.2-.5.4-.4.6.2.6.7 1v.2l-.1.2v.3l.1.3.2.3.4.1.3.2.1.3-.2.6-.8 1.1-.4.6.6.5.1.3-.7.2.7 2.2v2.1l-.6 1.9-3.6 8-.2 1.5.6.5 1-.1 1.5-.3 1.1-.1 1.3-.2v.6l1.2.6.2.1.3.8.9-.3 1.6 1.5.6.2.6.1.5-.1.3.1.3.2.3-.1.2-.2.4-.6.3-.2.2-.3.2-.7.3-.4.5-.2 1.3-.6h.8l.5.2.3.3.4.4.9.7 1.2 2.4.3.5.3.8.1.5.3 1.3-.1 1.2-.6.7-.3.3-.7.7-.3.6-.2.6-.1.7.3.8-.6 2 1 1.8.1.6-.3.9-.4 1.3-1.4 2.4-.6 3.8-.2.7-3.2 2.9-2 1.3-.6.7-.5.6-.5 1.1-.4.5-.3.1-.4.1-.2.3-.3.4-.2.5v.6l.2.4v.5l-.2.4-.6.7-.5.2-.5.4-.3.6-.2 1.2.1.8.2.6.1.5-.3.6-1 1-1.1 1.2-1.9 2.8-2.7 2.7-2.9.6-2.4-.2-2.3-.6-.4-.4-.2-.4.1-.6.2-.6.1-.7.1-.8.1-.4.4-.5.2-.5v-.5l.3-1.1.3-.6h-5l-.4.1-.4.2-.3.3-.6.3-.5.6v.8l-1-.4-.1-.3-.3-.3-.4-.1-.6.1-.7.7-.3.6-.4.3-.2.2-.8-.6-.7-.4-1-.7-.5-.3h-.5l-1.5.2-.3.1-.3.2-.3.6-.3.3-.4.3-1 .3-.5.2-.4.4-.6.1h-.5l-.5-.1-.5-.1-.6.1-.7.7-1 1.5-1.5 2-1.4 2.3-1.2 2.3-.1 2-1.3 1.3-.4 1.7-.9 1.1-5 4-1.9 2.1-1.1 2.2-.4.6-.8.2-1.4-.1-4-1.5-1-.5-.6-.5-.4-.4-.8-.2-.6.1-1.5 1h0z"/><path id="COQUI" class="st0" d="m425.9 533-.9-.4-1-.6-1.5-.6-.3-.2-.1-.4-.1-.8.1-.8.3-.7.1-.4v-1.3l.1-.5.2-.5.2-.6.7-1 .8-1.9v-3l.1-.1-1.1-2.4-2.2-.9h-1l-.9-.4.3-1.1.2-.2.1-.1.6-.4-.4-.9-.1-3.9.4-1.3v-.4l.3-.4.1-.3-.1-.6 1.9-2.7 3.5.6.5-.3h1.5l.3-.2.1-.2v-.9l-.3-1.4.6-.4h.4l.3.2 1.1.6.4.1 4.5-.1 1.9.3 1.8 1.3.3.1h.4l.3-.2.3-.1.8-.2.5-.1.3-.1.3-.3.2-.1.4-.1.3-.2.2-.2 1.1-.7.1.4-1.4 2.4-.3 1.2-.3.5-.3.4-2.4 1.3-1.2 1.2-.4.6-.8 2.4-1.5 1.8-1.2 2.5-.3 3.5-.7 3.1-.5 1-1.3 1.7-1.1.9-.3.9-1.1 1.4-.3.8-.9 1.4-2.6 3h0z"/><path id="COCUN_00000165944341348554703330000014944823758942556338_" class="st0" d="m482.4 447.9.8-.4 2.8-.5 1.2-.5.6-.5h.3l.9.1.8.3.7.3 2.3.4 1.3-.3.5-.4.7-.5 1.5-1.3.8-.5.4.1.3.3.2.3v.3l.1.2.2.2.2.1.2.1.1.1v1l.1.5.4.5v.4l.1.6-.1.9.3.8.4.5.1.5-.2.6-.5.6-.6 1.1-.1.6.1.6.7 1.4 2.2 2.1.3 1v.4l-.1.9.1.4.3.4.6-.1h1.2l1.6 1 .9.4.6.2 2.5-.1v1l.5.8.5.5.8.4.8.1 2.4 1.3 3.3-3 1.4-.4.4-1.1v-.9l2.8-2.9 1.1-1 .5-.2.4-.1h.3l.3.3v2.5l2.7 1.3 1-.2 1.2 1.1.8.3h.6l.4-.1h.3l.1.5.5 1.1 2.1 1.9.5.3v.5l.4.5-.3.6-.2.7-.1.6.2.7.3.6 1.3 1 .9.7.2.4.8 1.3-.2 1.3.4 1.4 1.2 2.2.2.5-.2.8.1 1.1.8 1.4-.1.7-2 1.5.2 1.6-1.6 3v.7l1.1 1.6h4.2l1.5.5.4.3.8 1.2.7.9.4.5-.2.8.1.4 1.9.7 1.1 1.7.2.6.4.4.6.1.9-.3h1l.5.2.4.3.2 1.5.4.9h1.1l2.1.8 2.1-.1.6-.4.4-.4.2-.4.6-1 .1-.3.1-.3-.1-.3.1-.2.3-.3h.7l-.5.9-1.7 12-1.7 11-.1 1.2-.3.5-.3.2-.8-.3-1.3-1-.6-.3-.2-.2-.3-.6-.7-.5-1.1-.4-6.2-1.6-3.2.4-1.3 1-.8.3-.8.2-.8-.2-.5-.3-.8-.2-.6-.4-.4-.4-.3-.3v-.6l-1.1-2.4-.3-1.4v-.7l-.2-.5-.7-.9-.6-.7-.6-1.1-.5-.2-.4-.1h-.7l-.6-.4-.2-.4-.3-.3-.6-.3-.5-.2-.6.2-.5.4-.8 1.2-.3.7-1.1.6-1.2.6-.4.2-.5.7-.3.5-.1 1.1.6.7.6 2.7-.1 1v.5l.1.5.8.8.4.8v.8l.1.5.5 1.7-1.4.1-.6-.2h-1.1l-.5.4-.5.4-3.4 1.5-.9.3-1.2.5-.4 1-.5.6-.9.2-.7.1-.7.2-.9.4-.8.9-1.8 1.2-2.5 2.4-1.6-.1 1-2.5.1-1.6.2-.4.4-.3.5-.4.4-.4.5-.7v-.5l-.5-1.1-.6-.9-1.2-1.4-.7-2v-.8l.2-.7 2.1-3.3.2-1.5-.2-.4-.4-1.3v-1.3l.2-.6.3-.5.9-.7.6-1.1.6-.9 1.5-2.4.3-.3.8-.4.9-3.3h-1l-.7-.6-.1-.4.1-.3.1-.3.5-.4.2-.5-.2-.5-.1-4.1.1-1 .3-1.2-1.4-.6-1-.2-.4.1-.8-.4-.2.2.2.2v.8l-.1.3-.3.4-.7.4-.4.3-1 2.5-.1.3-.9.2-.3.7-.9.7.1.4v.2l-.1.2h.5l.2.1v.3l-.2.4-.4.3-1.3.6-1.3 1 .6 1.2.3.3.3.1.3.3.3.5.6 2.1-.1 2.1-1.9 5.1 1.1-.1.2.4-.1.8-.5 1.9-.4 2.7-.1.8-.1.8-.3.8-.5 1-1 1.2v2.2l-.6 2.2-.2.4-.3.2-1.3-.4-.5-.3-1.1-.7-.4.3-.3.4-1.5 4 .1 1.1v1.2l.4 1 .1.6v.6l-.2.8-.3 1-1.3 2.9-1.3 2.4-3.6 5.1-1.9-1.4-1.7-2 .6-3.8 1.4-2.4.4-1.3.3-.9-.1-.6-1-1.8.6-2-.3-.8.1-.7.2-.6.3-.6.7-.7.3-.3.6-.7.1-1.2-.3-1.3-.1-.5-.3-.8-.3-.5-1.2-2.4-.9-.7-.4-.4-.3-.3-.5-.2h-.8l-1.3.6-.5.2-.3.4-.2.7-.2.3-.3.2-.4.6-.2.2-.3.1-.3-.2-.3-.1-.5.1-.6-.1-.6-.2-1.6-1.5-.9.3-.3-.8-.2-.1-1.2-.6v-.6l-1.3.2-1.1.1-1.5.3-1 .1-.6-.5.2-1.5 3.6-8 .6-1.9v-2.1l-.7-2.2.7-.2-.1-.3-.6-.5.4-.6.8-1.1.2-.6-.1-.3-.3-.2-.4-.1-.2-.3-.1-.3v-.3l.1-.2v-.2l-.7-1-.2-.6.4-.6.5-.4.7-.2.5-.3.2-.5.1-.6.7-.7.2-.6-.4-2.5v-.8l.1-.6.4-.5.6-.2-.2-.4v-.4l.2-.4v-.5l-.6-1.8-.1-.3.3-.3 1.2-.5.3-.3-.2-.3-.7-1.2-.2-.6v-1l.7-3.1-.3-8.2-.4-1.1-.1-.6.3-.3.2-.1.8-.8.2-.2.2-1 1-1.7.4-1.4.3-.3.4-.3.2-.2-.3-1.2.2-.3.7-.1-.3-.8-.1-1 .1-.9.3-.8-.7-.2-.3-.5.1-.5.7-.2.9-.1.3-.4-.2-.3-.8-.2.9-2.2.3-1.4-.3-.6-.5-.2.1-.5.4-.5.3-.6.2-.3.1-.3-.4-.2-.2-.1-.1-.3-.1-.2v-1.7h0z"/><path id="CORIS" class="st0" d="m410 484.4.1-2.5-.8-1.3.1-1.5-.5-1.8-4.2-6.8-.1-2.2.9-2.9 1-.8 2.6-1.6.6-2.8.1-1.4 1.9-2 1.5.8.6 1.1.9 1 1.2.7 1.7.7 2.4.3 1.1-.1v5.8l.9.7 1.9-.2.3-.1 2-.9h.6l.2-.1.6-.4.2-.1h.3l.5.3.5.4 1.5 1.5.3.5v.3l.1.7.3.4.6.6-.2.5-1 1.5-.4.1-.9.3-1.6-.3-.4-.2-.2-.1-.8-.7-.8.2-.9-.4-.4-.1h-.2l-1 .8-.2.6.1.5.1.4.2.2.3.3.1.3.1 1-.1.4-.1.4-1.1 2.2-.4 1.9-.9-.5-.3-.2h-.9l-.4.1-.3.1-.6 1.1-1.1 2.9.6.6.4.7.1.8v.4l.1.3.3.7.6.8 1.2.9.1.4 1 .4 1 .2.4-.2.8-.7.3-.5.1-.5.1-1.7.1-.4 1.5-2.3h.3l1.8 4.2.2.5.2.2.4.1.5.1h.7l.3-.1.3-.2 1-.9.1-.1v-.1l.1-.1.2.1.4.2.5.9.1.3v.2l.2.3 1.3.2 1.2-.1.5.1 1.4.4h1l.6.2.4.3 1 1.5.7.9.9.9 1.5 1.2 1.3 1.2-.7 4.3-1.1.7-.2.2-.3.2-.4.1-.2.1-.3.3-.3.1-.5.1-.8.2-.3.1-.3.2h-.4l-.3-.1-1.8-1.3-1.9-.3-4.5.1-.4-.1-1.1-.6-.3-.2h-.4l-.6.4-3.5-.5-1.9-.6-.5-.1-1.1.2.4-1v-.5l-.1-.6-.2-.2h-.7l-.3.1-.2.2-.2.3-.3.2h-.5l-.7-.1-.6-.3-.2-.3-.1-.2.1-.2v-.5l-.4-.7-.4-.8.5-.4.3-.6.1-1.2v-.3h-.2l-.6.3-1.3.1-.5-.2-.4-.2-.3-.5.1-1.5-.4-.3-1.5-1.2-.6-1-.3-.7-1.4-2.7-.4-.4h0z"/><path class="st0" d="m514.5 508.2-.8.4-.3.3-1.5 2.4-.6.9-.6 1.1-.9.7-.3.5-.2.6v1.3l.4 1.3.2.4-.2 1.5-2.1 3.3-.2.7v.8l.7 2 1.2 1.4.6.9.5 1.1v.5l-.5.7-.4.4-.5.4-.4.3-.2.4-.1 1.6-.9 2.4-2.7-.6-.8.5-1 2.1-.6 1-1.3 1.6-1 .9-.5.6v1.1l-.4 1.2-1 1.6-3.3 4-.6 1.5-.4.5-.1.2-.2.5-.4.2-1.5-.1-1.4-1.4 3.5-5 1.3-2.4 1.3-2.9.3-1 .2-.8v-.6l-.1-.6-.4-1v-1.2l-.1-1.1 1.5-4 .3-.4.4-.3 1.1.7.5.3 1.3.4.3-.2.2-.4.6-2.2V527l1-1.2.5-1 .3-.8.1-.8.1-.8.4-2.7.5-1.9.1-.8-.2-.4-1.1.1 1.9-5.1.1-2.1-.6-2.1-.3-.5-.3-.3-.3-.1-.3-.3-.6-1.2 1.3-1 1.3-.6.4-.3.2-.4v-.3l-.2-.1h-.5l.1-.2v-.2l-.1-.4.9-.7.3-.7.9-.2.1-.3 1-2.5.4-.3.7-.4.3-.4.1-.3v-.8l-.2-.2.2-.2.8.4.4-.1 1 .2 1.4.6-.3 1.2-.1 1 .1 4.1.2.5-.2.5-.5.4-.1.3-.1.3.1.4.7.6h1l-.8 3.3z"/></g></svg>