<svg id="Layer_2" data-name="Layer 2" xmlns="http://www.w3.org/2000/svg" viewBox="0 0 1300 763"><defs><clipPath id="clippath"><path class="cls-1" d="M8.92.35v630.62s244.8 26.54 533.57 69.42c288.77 42.88 381.07 48.71 446.49 48.71h4.51c68.05 0 223.48-2.09 253.42-183.76l42.08-349.15V.35H8.92Z"/></clipPath><clipPath id="clippath-1"><path class="cls-1" d="M0 0h1300v763H0z"/></clipPath><linearGradient id="linear-gradient" x1="1769.08" y1="903.65" x2="1770.24" y2="903.65" gradientTransform="rotate(-90 114763.24 352423.13) scale(263.72)" gradientUnits="userSpaceOnUse"><stop offset="0" stop-color="#fff"/><stop offset="1"/></linearGradient><filter id="luminosity-noclip" x="0" y="-129.89" width="1300" height="892.89" color-interpolation-filters="sRGB" filterUnits="userSpaceOnUse"><feFlood flood-color="#fff" result="bg"/><feBlend in="SourceGraphic" in2="bg"/></filter><style>.cls-1{fill:#fff}</style><mask id="mask" x="0" y="-129.89" width="1300" height="892.89" maskUnits="userSpaceOnUse"><g style="filter:url(#luminosity-noclip)"><path style="fill:url(#linear-gradient)" d="M8.92-129.89H1289V735.5H8.92z"/></g></mask></defs><g id="Layer_1-2" data-name="Layer 1"><path class="cls-1" d="M8.92.35v630.62s244.8 26.54 533.57 69.42c288.77 42.88 381.07 48.71 446.49 48.71h4.51c68.05 0 223.48-2.09 253.42-183.76l42.08-349.15V.35H8.92Z"/><g style="clip-path:url(#clippath)"><g style="mask:url(#mask)"><path class="cls-1" d="M0 0h1300v763H0z"/><path class="cls-1" d="M9 1.16h1282v753.75H9z" style="clip-path:url(#clippath-1)"/></g></g></g></svg>