<svg id="Layer_2" data-name="Layer 2" xmlns="http://www.w3.org/2000/svg" viewBox="0 0 53.68 57"><defs><style>.cls-1{fill:#fff}</style></defs><g id="Layer_1-2" data-name="Layer 1"><path class="cls-1" d="M35.98 8.26c.81-.33 1.38-1.14 1.38-2.08V4.84c0-.19.15-.34.33-.34h4.36c.18 0 .33.15.33.34v1.34c0 .94.57 1.75 1.38 2.08v4.56h-7.79V8.26ZM34.6 4.84c0-1.75 1.39-3.17 3.1-3.17h4.36c1.71 0 3.1 1.42 3.1 3.17v1.34c0 .32-.25.58-.57.58s-.57-.26-.57-.58V4.84c0-1.11-.88-2.01-1.97-2.01h-4.36c-1.08 0-1.97.9-1.97 2.01v1.34c0 .32-.25.58-.57.58s-.57-.26-.57-.58V4.84Zm-5.88 22.19v4.95c0 .85-.67 1.53-1.5 1.53H26.1v-8.02h1.12c.83 0 1.5.69 1.5 1.53m2.4 16.95c.83 0 1.5.69 1.5 1.54v4.88c0 .85-.67 1.53-1.5 1.53h-.77v-7.94h.77ZM47.1 54.62c0 .34-.27.62-.61.62s-.6-.28-.6-.62v-1.5h1.21v1.5Zm-13.23 0c0 .34-.27.62-.6.62s-.61-.28-.61-.62v-1.44l.09-.06h1.12v1.5Zm-8.01-16.26h-3.93v-.63h3.93v.63ZM12.6 25.49h9.09v8.02H12.6v-8.02Zm-.25 12.87H8.42v-.63h3.93v.63ZM7.06 33.5c-.83 0-1.5-.69-1.5-1.53v-4.95c0-.85.67-1.53 1.5-1.53h1.12v8.02H7.06Zm3.91 2.55H9.81V25.48h1.16v10.57Zm4.12-13.63c0-1.16.92-2.11 2.06-2.11s2.06.95 2.06 2.11v1.39h-4.12v-1.39Zm9.4 11.9v1.71h-1.16V25.46h1.16v8.85ZM3.13 51.92c-.83 0-1.5-.69-1.5-1.53v-4.88c0-.85.67-1.54 1.5-1.54h.77v7.94h-.77Zm49.73-29.46c.45 0 .82-.37.82-.83v-5.27c0-1.95-1.55-3.54-3.47-3.54h-4.82V8.26c.81-.33 1.38-1.14 1.38-2.08V4.84c0-2.67-2.12-4.84-4.73-4.84h-4.36c-2.61 0-4.73 2.17-4.73 4.84v1.34c0 .94.57 1.75 1.38 2.08v4.56h-4.82c-1.91 0-3.46 1.59-3.46 3.54v7.47h-5.24v-1.39c0-2.08-1.66-3.78-3.69-3.78s-3.69 1.69-3.69 3.78v1.39H7.04c-1.73 0-3.13 1.44-3.13 3.2v10.52c0 .46.37.84.82.84s.82-.37.82-.84v-2.76c.45.25.96.39 1.5.39h1.12v.89c-.77.07-1.38.74-1.38 1.55v.85c0 .86.68 1.56 1.52 1.56h4.15c.84 0 1.52-.7 1.52-1.56v-.85c0-.81-.61-1.48-1.38-1.55v-.89h9.09v.89c-.77.07-1.38.74-1.38 1.55v.85c0 .86.68 1.56 1.53 1.56h4.14c.84 0 1.52-.7 1.52-1.56v-.85c0-.81-.61-1.48-1.38-1.55v-.89h1.12c.54 0 1.05-.14 1.5-.39v19c0 .84-.67 1.53-1.5 1.53H7.04c-.83 0-1.5-.69-1.5-1.53V41.47c0-.46-.37-.84-.82-.84s-.82.37-.82.84v.84h-.77C1.4 42.31 0 43.75 0 45.51v4.88c0 1.77 1.41 3.2 3.13 3.2h.77v.2c0 1.77 1.41 3.2 3.13 3.2h20.18c1.73 0 3.13-1.44 3.13-3.2v-.2h.67v1.03c0 1.26 1 2.29 2.24 2.29s2.24-1.03 2.24-2.29v-1.5h8.76v1.5c0 1.26 1 2.29 2.24 2.29s2.24-1.03 2.24-2.29v-1.5h1.49c1.91 0 3.47-1.59 3.47-3.54V25.57c0-.46-.37-.83-.82-.83s-.82.37-.82.83v24.01c0 1.03-.82 1.87-1.83 1.87H34.08c.12-.33.18-.69.18-1.07V45.5c0-.94-.4-1.79-1.04-2.38V17.49c0-.46-.37-.83-.82-.83s-.82.37-.82.83v24.85a3.57 3.57 0 0 0-.46-.04h-.77V27.02c0-1.6-1.15-2.93-2.65-3.17v-7.51c0-1.03.82-1.87 1.83-1.87h20.69c1.01 0 1.83.84 1.83 1.87v5.27c0 .46.37.83.82.83"/><path class="cls-1" d="M36.56 17.5v29.33c0 .46.37.84.82.84s.82-.37.82-.84V17.5c0-.46-.37-.83-.82-.83s-.82.37-.82.83m4.99 0v29.33c0 .46.37.84.82.84s.82-.37.82-.84V17.5c0-.46-.37-.83-.82-.83s-.82.37-.82.83m4.98 0v29.33c0 .46.37.84.82.84s.82-.37.82-.84V17.5c0-.46-.37-.83-.82-.83s-.82.37-.82.83M10.02 50.3v-6.12c0-.19.15-.35.34-.35h13.52c.19 0 .34.16.34.35v6.12c0 .19-.15.35-.34.35H10.36c-.19 0-.34-.16-.34-.35m13.87 2.02c1.09 0 1.97-.91 1.97-2.02v-6.12c0-1.11-.89-2.02-1.97-2.02H10.37c-1.09 0-1.97.91-1.97 2.02v6.12c0 1.11.89 2.02 1.97 2.02h13.52Z"/></g></svg>