<svg id="Layer_2" data-name="Layer 2" xmlns="http://www.w3.org/2000/svg" viewBox="0 0 57.52 57.52"><defs><style>.cls-1{fill:#fff}</style></defs><g id="Layer_1-2" data-name="Layer 1"><path class="cls-1" d="M8.63 34.51h7.67v1.92H8.63zm46.98 18.22h-2.05a3.83 3.83 0 0 0-3.7-2.88c-.68 0-1.34.19-1.92.53v-9.16h1.92v4.79c0 .53.43.96.96.96h4.79v5.75Zm-5.75 2.88a1.92 1.92 0 1 1 .001-3.841 1.92 1.92 0 0 1-.001 3.841m1.92-14.38h1.33l1.92 3.84h-3.24v-3.84Zm-5.75 11.51h-6.85a3.84 3.84 0 0 0-3.7-2.88c-1.74 0-3.26 1.19-3.7 2.88h-3.01V37.4h17.26v15.34Zm-10.55 2.88a1.92 1.92 0 1 1 .001-3.841 1.92 1.92 0 0 1-.001 3.841M57.43 45.6l-2.88-5.75a.943.943 0 0 0-.86-.53h-5.75v-2.88a.96.96 0 0 0-.96-.96H27.81a.96.96 0 0 0-.96.96V53.7c0 .53.43.96.96.96h3.97c.52 2.04 2.6 3.28 4.64 2.76 1.36-.35 2.41-1.4 2.76-2.76h6.98c.52 2.04 2.6 3.28 4.64 2.76 1.36-.35 2.42-1.4 2.76-2.76h3.01c.53 0 .96-.43.96-.96v-7.67c0-.15-.03-.3-.1-.43M21.09 13.42h1.92v1.92h-1.92zm3.84 0h1.92v1.92h-1.92zm3.83 0h1.92v1.92h-1.92zm3.84 0h1.92v1.92H32.6z"/><path class="cls-1" d="M51.69 18.52c-.16.4-.55.66-.98.66H34.04l.29-.41c.3-.43.2-1.03-.24-1.34a.967.967 0 0 0-.55-.17h-5.75c-.38 0-.72.22-.88.57l-.6 1.35H25.2c-3 0-5.88-1.19-7.99-3.32l-4.36-4.35h28.66c2.09 0 4.12.68 5.81 1.92h-7.06v1.92h9.16l2.03 2.03c.31.3.4.75.23 1.15m-25.23 8.15-1.19-.4 3.15-7.09h3.28l-5.24 7.49ZM11.5 1.92h3.12l2.3 7.67H11.5V1.92Zm16.72 1.92 3.6 5.75h-3.27l-1.44-5.75h1.12ZM52.8 16.02l-2.97-2.97c-2.21-2.21-5.2-3.45-8.32-3.46h-7.44l-4.51-7.22a.948.948 0 0 0-.81-.45h-2.88a.96.96 0 0 0-.96.96c0 .08 0 .16.03.23l1.62 6.48h-7.65L16.26.68a.945.945 0 0 0-.92-.68h-4.79a.96.96 0 0 0-.96.96v9.59c0 .25.09.5.27.68l5.99 5.99c2.47 2.49 5.84 3.88 9.34 3.88h.26l-2.38 5.36c-.22.48 0 1.05.49 1.27l.09.03 2.87.96c.4.13.85-.01 1.09-.36l5.08-7.26H50.7a2.979 2.979 0 0 0 2.11-5.08M19.02 54.15c-.35.22-.68.47-.97.76a1.789 1.789 0 0 1-2.85 0c-.49-.51-1.1-.89-1.78-1.09V40.65l9.31 3.1-3.72 10.4ZM12.16 38.4l-7.09 2.36 1.48-8.17h11.82l1.49 8.17-7.09-2.36a.912.912 0 0 0-.61 0m-.66 15.42c-.67.21-1.28.58-1.76 1.09a1.789 1.789 0 0 1-2.85 0c-.3-.29-.63-.55-.98-.76L2.2 43.75l9.31-3.1v13.17Zm0-25.05h1.92v1.92H11.5v-1.92Zm12 26.14c-.6-.65-1.41-1.07-2.29-1.19l3.66-10.25a.961.961 0 0 0-.58-1.23h-.02l-2.34-.78-1.82-9.99a.954.954 0 0 0-.94-.79h-3.83V27.8a.96.96 0 0 0-.96-.96h-3.84a.96.96 0 0 0-.96.96v2.88H5.74c-.46 0-.86.33-.94.79l-1.82 9.99-2.34.78c-.5.17-.77.71-.6 1.21v.02L3.7 53.72c-.88.12-1.68.54-2.29 1.18-.35.44-.87.7-1.43.71v1.92c1.04 0 2.03-.45 2.73-1.21.35-.44.87-.7 1.43-.71.2 0 .4.04.59.11l.02.02c.3.15.57.35.81.59.71.76 1.7 1.2 2.74 1.2 1.04 0 2.03-.45 2.73-1.21a1.8 1.8 0 0 1 2.86 0c.7.77 1.69 1.21 2.73 1.21s2.03-.44 2.73-1.2c.23-.24.5-.44.8-.59l.02-.02c.19-.08.39-.11.59-.11.56 0 1.08.27 1.43.7.7.77 1.69 1.21 2.73 1.21V55.6c-.56 0-1.08-.27-1.43-.71"/><path class="cls-1" d="M36.43 13.42h1.92v1.92h-1.92z"/></g></svg>