<svg data-name="Layer 2" xmlns="http://www.w3.org/2000/svg" viewBox="0 0 54.07 52.76"><path d="M1.8 6.53h14.16v8.02H8.88c-.23 0-.46.09-.63.25l-3.8 3.66v-3.02c0-.49-.4-.89-.9-.89H1.81V6.53Zm10.25-4.74H26.2v8.02h-1.73c-.5 0-.9.4-.9.89v3.02l-3.82-3.66a.91.91 0 0 0-.63-.25h-1.36V5.63c0-.49-.4-.89-.9-.89h-4.81V1.79ZM.9 16.34h1.74v4.24a.894.894 0 0 0 .9.89c.23 0 .46-.09.63-.25l5.07-4.88h7.62c.5 0 .9-.4.9-.89v-3.84h1l5.08 4.88c.17.17.4.25.63.25a.904.904 0 0 0 .9-.89v-4.23h1.73c.5 0 .9-.4.9-.9V.89c0-.49-.4-.89-.9-.89H11.15c-.5 0-.9.4-.9.89v3.84H.9c-.5 0-.9.4-.9.89v9.81c0 .49.4.89.9.89m50.64 34.65H32.2V36.52l.12-.09c.42-.29.84-.59 1.23-.92.06-.05.12-.11.18-.16.41-.35.8-.72 1.16-1.12l3.57-3.85 13.07 20.58ZM15.63 34.35 39.12 9.07c2.3 2.42 3.61 5.63 3.61 8.98s-1.24 6.44-3.49 8.86l-1.3 1.4-4.37 4.71c-.81.87-1.73 1.63-2.74 2.25-4.75 2.93-10.87 2.52-15.19-.93m28.91-16.31c0-4.14-1.76-8.13-4.82-10.93a.909.909 0 0 0-1.27.05L13.69 33.81c-.17.18-.25.41-.24.64 0 .23.11.45.29.62 2.84 2.6 6.49 3.93 10.17 3.93 2.22 0 4.44-.49 6.5-1.48v14.33c0 .49.4.89.9.89h21.87c.33 0 .63-.18.79-.46.16-.28.15-.63-.03-.91l-14.2-22.36.84-.91a14.75 14.75 0 0 0 3.97-10.08" style="fill:#fff" data-name="Layer 1"/></svg>