<svg id="Layer_2" data-name="Layer 2" xmlns="http://www.w3.org/2000/svg" viewBox="0 0 52.06 52.07"><defs><style>.cls-1{fill:#fff}</style></defs><g id="Layer_1-2" data-name="Layer 1"><path class="cls-1" d="M32.96 25.23 23.38 37.9l1.76-9.1a.891.891 0 0 0-.18-.72.88.88 0 0 0-.67-.32h-5.16l-.03-.06 9.58-12.67-1.76 9.1c-.05.26.02.52.18.72.16.2.41.32.67.32l5.19.06Zm-3.16-13c-.6-.21-1.24.02-1.58.54L17.66 26.74s-.04.05-.05.08c-.33.56-.34 1.23-.02 1.79s.9.9 1.55.9h4.11l-1.89 9.75c-.08.65.29 1.24.91 1.46.15.05.3.08.45.08.45 0 .87-.22 1.13-.61l10.56-13.97s.03-.05.05-.08c.33-.56.34-1.23.02-1.79-.32-.57-.9-.9-1.55-.9h-4.11l1.89-9.75c.08-.64-.29-1.24-.91-1.46Z"/><path class="cls-1" d="m1.94 15.22 2.04-3.83 7.66 4.08L9.6 19.3c-.22.41-.58.71-1.03.84-.44.13-.91.09-1.32-.13l-4.6-2.45c-.84-.45-1.17-1.5-.72-2.35Zm2.91-7.3 9.19 4.9-.81 1.53-9.19-4.89.82-1.53ZM8.88 2.2a.87.87 0 0 1 1.17-.36c.41.22.58.76.36 1.17l-2.45 4.6-1.53-.82s2.44-4.59 2.45-4.6Zm6.13 3.26c.23-.42.75-.58 1.17-.36.2.11.35.29.42.51.07.22.05.46-.06.66l-2.45 4.6-1.53-.82 2.45-4.6Zm11.46 43.13c12.2 0 22.13-9.93 22.13-22.13S38.67 4.34 26.47 4.34h-.43a.87.87 0 0 1 0-1.74h.43c13.16 0 23.86 10.71 23.86 23.86S39.62 50.32 26.47 50.32 2.6 39.63 2.6 26.47c0-2.21.32-4.38.91-6.48l1.57.84c-.49 1.83-.75 3.73-.75 5.64 0 12.2 9.93 22.13 22.13 22.13m0 3.47c14.12 0 25.6-11.48 25.6-25.6S40.58.87 26.47.87h-.43c-1.44 0-2.6 1.17-2.6 2.6s1.17 2.6 2.6 2.6h.43c11.24 0 20.39 9.15 20.39 20.39s-9.15 20.39-20.39 20.39-20.4-9.14-20.4-20.38c0-1.63.2-3.25.59-4.82.45.2.92.3 1.4.3.34 0 .68-.05 1.02-.15.89-.27 1.61-.87 2.05-1.69l2.15-4.04c.15 0 .3-.02.44-.07.44-.14.81-.44 1.03-.85l.82-1.53c.22-.41.26-.88.13-1.32-.04-.15-.11-.28-.19-.41l2.56-4.81c.33-.61.4-1.32.19-1.98a2.56 2.56 0 0 0-1.27-1.54 2.614 2.614 0 0 0-3.52 1.07l-2.45 4.6-1.53-.82 2.45-4.6c.67-1.25.17-2.86-1.07-3.52C10.26-.04 9.55-.1 8.89.1c-.67.2-1.21.65-1.54 1.27L4.79 6.18c-.15 0-.3.02-.44.07-.44.14-.81.44-1.02.84l-.82 1.53c-.22.41-.26.88-.13 1.32.04.15.11.28.19.41L.41 14.4c-.9 1.69-.26 3.79 1.43 4.69l.11.06c-.7 2.36-1.08 4.82-1.08 7.31 0 14.12 11.48 25.6 25.6 25.6"/></g></svg>