<svg id="Layer_2" data-name="Layer 2" xmlns="http://www.w3.org/2000/svg" viewBox="0 0 57.52 47.92"><defs><style>.cls-1{fill:#fff}</style></defs><g id="Layer_1-2" data-name="Layer 1"><path class="cls-1" d="M25.95 14.26c0-.26.97-.99 2.81-.99s2.81.74 2.81.99-.97.99-2.81.99-2.81-.74-2.81-.99m28.7 1.77-23.34 10.2c-1.62.71-3.48.71-5.1 0l-17.84-7.8 16.34-2.9c.74.89 2.23 1.47 4.04 1.47 2.58 0 4.53-1.18 4.53-2.75s-1.95-2.75-4.53-2.75c-2.35 0-4.17.98-4.49 2.33l-18.62 3.3c-.05.01-.11.02-.16.04l-2.63-1.15c-.72-.31-1.15-.98-1.15-1.77s.43-1.46 1.15-1.78L26.21 2.29c.81-.36 1.68-.53 2.56-.53s1.74.18 2.55.53l23.34 10.2c.72.31 1.15.98 1.15 1.77s-.43 1.46-1.15 1.78m-10.22 8.67c0 2.27-1.83 4.49-5.03 6.08-.43.21-.6.74-.4 1.17a.853.853 0 0 0 1.15.4c1.77-.88 3.19-1.96 4.2-3.16-.32 1.85-1.83 3.6-4.33 4.99-3 1.67-7 2.59-11.27 2.59s-8.28-.92-11.27-2.59c-2.49-1.39-3.99-3.13-4.32-4.98.87 1.02 2.04 1.96 3.5 2.77 3.25 1.81 7.54 2.81 12.1 2.81 1.27 0 2.55-.08 3.78-.23.47-.06.81-.5.75-.98a.864.864 0 0 0-.96-.76c-1.16.15-2.36.22-3.57.22-4.27 0-8.28-.92-11.27-2.59-2.83-1.58-4.39-3.62-4.39-5.75v-2.29l12.44 5.44c1.02.45 2.13.67 3.23.67s2.21-.22 3.23-.67l12.43-5.43v2.29ZM5.81 35.86a.99.99 0 0 1 0-1.98.99.99 0 0 1 0 1.98M7.6 46.14s-.03.02-.04.02h-3.5s-.03 0-.04-.02c-.02-.02-.01-.04-.01-.04l.66-7.42c.06-.61.55-1.07 1.15-1.07s1.09.46 1.15 1.07l.66 7.42s0 .02-.01.04m47.71-35.27L31.99.67c-2.05-.9-4.41-.9-6.46 0L2.19 10.87C.84 11.46 0 12.76 0 14.26s.84 2.8 2.19 3.39l2.76 1.21v13.4c-1.07.37-1.84 1.4-1.84 2.61 0 .7.26 1.34.68 1.83-.47.47-.78 1.11-.85 1.83l-.66 7.42c-.04.51.12 1.01.46 1.39.34.38.81.59 1.31.59h3.5c.5 0 .98-.21 1.31-.59.34-.38.5-.88.46-1.39l-.66-7.42c-.06-.72-.38-1.36-.85-1.83.42-.49.68-1.13.68-1.83 0-1.21-.77-2.24-1.84-2.61V19.61l4.71 2.06v6.79c0 2.8 1.88 5.39 5.29 7.29 3.25 1.81 7.54 2.81 12.1 2.81s8.85-1 12.1-2.81c3.41-1.9 5.29-4.49 5.29-7.29v-6.79l9.19-4.02c1.35-.59 2.19-1.89 2.19-3.39 0-1.5-.84-2.8-2.19-3.39"/><path class="cls-1" d="M35.19 34.08c.06 0 .13 0 .19-.02.65-.15 1.29-.33 1.9-.53.45-.15.7-.64.56-1.1a.855.855 0 0 0-1.08-.57c-.57.18-1.17.35-1.77.49-.46.11-.75.58-.65 1.05.09.41.45.68.84.68"/></g></svg>