<svg data-name="Layer 2" xmlns="http://www.w3.org/2000/svg" viewBox="0 0 48.2 49.72"><path d="M11.83 33.41h5.68v10.26h-5.68V33.41ZM7.1 16.59l11.92-9.32 9.06 7.09-8.09 6.33c-.67.52-1.09 1.28-1.21 2.13-.11.85.1 1.7.6 2.39.61.83 1.55 1.27 2.49 1.27.12 0 .25-.01.37-.03v17.22h-2.85V32.43c0-.54-.42-.97-.94-.97h-7.56c-.52 0-.94.44-.94.97v11.24H7.1V16.59Zm-4.51-.53c-.2-.27-.28-.61-.24-.94.04-.34.22-.64.48-.84L18.27 2.21c.22-.17.48-.26.75-.26s.53.09.75.27l11.92 9.32-2.05 1.6-10.05-7.86a.93.93 0 0 0-1.14 0L5.63 15.3s-.05.04-.08.06l-1.22.95c-.55.43-1.33.32-1.74-.25M28.62 1.95h3.33V9.3l-3.33-2.6V1.95Zm17.22 21.12c.05.34-.04.67-.24.95-.41.56-1.19.67-1.74.24l-10.05-7.85a.93.93 0 0 0-1.14 0l-10.06 7.87c-.55.43-1.33.32-1.74-.24-.2-.27-.28-.61-.24-.94.05-.34.21-.64.48-.85l9.06-7.08s.02-.02.03-.02l3.04-2.38 12.11 9.47c.26.21.43.51.48.84m-21.71 2.46 9.12-7.13 9.11 7.12v18.15H24.12V25.54Zm23.13 18.14h-3.02V26.45c1.07.13 2.17-.3 2.86-1.25.5-.68.72-1.53.6-2.39a3.2 3.2 0 0 0-1.21-2.13l-12.67-9.91V.97c0-.54-.42-.97-.94-.97h-5.21c-.52 0-.94.44-.94.97v4.25L20.91.66a3.04 3.04 0 0 0-3.78 0L1.7 12.72a3.28 3.28 0 0 0-1.21 2.13c-.11.85.1 1.7.6 2.39a3.066 3.066 0 0 0 4.12.8v25.63H.94c-.52 0-.94.44-.94.97v4.1c0 .54.42.97.94.97h18.93c.52 0 .94-.43.94-.97s-.42-.97-.94-.97H1.88v-2.15h44.44v2.15H28.33c-.52 0-.94.44-.94.97s.42.97.94.97h18.94c.52 0 .94-.43.94-.97v-4.1c0-.54-.42-.97-.94-.97" style="fill:#fff" data-name="Layer 1"/></svg>