<svg id="Layer_2" data-name="Layer 2" xmlns="http://www.w3.org/2000/svg" viewBox="0 0 57.52 57.62"><defs><style>.cls-1{fill:#fff}</style></defs><g id="Layer_1-2" data-name="Layer 1"><path class="cls-1" d="M50.81 38.33c-2.65 0-4.79-2.26-4.79-5.04s2.15-5.04 4.79-5.04 4.79 2.26 4.79 5.04c0 2.79-2.15 5.04-4.79 5.04m-37.39 2.02c-.86 0-.96-1.41-.96-2.02v-2.14c.08 0 .16.01.23.02l.29.03c.45.04.91.07 1.37.07h.05c.46 0 .92-.03 1.37-.07.1 0 .2-.02.3-.03.08 0 .16-.01.23-.02v2.14c0 .61-.09 2.02-.96 2.02h-1.92ZM1.92 22.27v-.08H4.8v.11c.07 4.39 2.84 8.21 6.84 9.45 2.1.7 4.35.7 6.44 0 4-1.23 6.78-5.06 6.85-9.45v-.11h1.92v.08c0 5.61-4.11 10.55-9.78 11.74-1.33.28-2.69.35-4.04.21-.44-.04-.89-.11-1.32-.21-5.67-1.19-9.78-6.13-9.78-11.74m6.7-20.25c.53 0 .96.45.96 1.01s-.43 1.01-.96 1.01-.96-.45-.96-1.01.43-1.01.96-1.01m11.5 2.02c-.53 0-.96-.45-.96-1.01s.43-1.01.96-1.01.96.45.96 1.01-.43 1.01-.96 1.01m37.32 28.25c-.43-3.1-2.74-5.53-5.68-5.98v-1.83c0-5.06-3.66-9.18-8.15-9.18s-8.02 3.99-8.15 8.9h.06-.06v19.89c0 6.35-4.52 11.52-10.07 11.52s-10.07-5.17-10.07-11.52v-1.72c1.39 0 2.88-1.06 2.88-4.04v-2.54c6.15-1.65 10.55-7.21 10.55-13.52v-2.1h-1.92L26.8 7.04c-.01-2.43-1.67-4.51-3.94-4.94-.49-1.58-2.1-2.44-3.61-1.93-1.5.52-2.32 2.22-1.83 3.8.49 1.58 2.1 2.44 3.61 1.93.8-.28 1.45-.91 1.77-1.74 1.23.37 2.08 1.54 2.09 2.89l.04 13.12h-1.92v2.13c-.08 3.51-2.31 6.56-5.52 7.53-1.72.57-3.56.57-5.27 0-3.2-.97-5.43-4.02-5.51-7.53v-2.13H3.83V7.06c0-1.36.88-2.55 2.13-2.91.58 1.56 2.26 2.33 3.75 1.72 1.49-.61 2.22-2.38 1.63-3.94C10.76.37 9.08-.4 7.6.21A2.95 2.95 0 0 0 5.91 2.1c-2.3.41-3.98 2.51-3.99 4.96v13.11H0v2.1c0 6.31 4.4 11.87 10.55 13.52v2.54c0 2.98 1.49 4.04 2.88 4.04v1.72c0 7.47 5.38 13.53 11.98 13.53s11.98-6.08 11.98-13.53V24.26c.1-3.83 2.89-6.94 6.23-6.94s6.23 3.21 6.23 7.16v1.83c-3.67.56-6.21 4.14-5.68 8 .53 3.86 3.93 6.54 7.6 5.98 3.67-.56 6.21-4.14 5.68-8"/><path class="cls-1" d="M50.81 34.3c-.53 0-.96-.45-.96-1.01s.43-1.01.96-1.01.96.45.96 1.01-.43 1.01-.96 1.01m0-4.04c-1.59 0-2.88 1.36-2.88 3.03s1.29 3.03 2.88 3.03 2.88-1.35 2.88-3.03-1.29-3.03-2.88-3.03"/></g></svg>