<svg id="Layer_2" data-name="Layer 2" xmlns="http://www.w3.org/2000/svg" viewBox="0 0 52.06 52.07"><defs><style>.cls-1{fill:#fff}</style></defs><g id="Layer_1-2" data-name="Layer 1"><path class="cls-1" d="M3.3 47.22c-.91 0-1.64.72-1.64 1.61s.74 1.61 1.64 1.61h17.32c.91 0 1.64-.72 1.64-1.61s-.74-1.61-1.64-1.61H3.3Zm17.32 4.84H3.3c-1.82 0-3.3-1.45-3.3-3.23s1.48-3.23 3.3-3.23h17.32c1.82 0 3.3 1.45 3.3 3.23s-1.48 3.23-3.3 3.23"/><path class="cls-1" d="M3.3 42.38c-.91 0-1.64.72-1.64 1.61S2.4 45.6 3.3 45.6h17.32c.91 0 1.64-.72 1.64-1.61s-.74-1.61-1.64-1.61H3.3Zm17.32 4.84H3.3c-1.82 0-3.3-1.45-3.3-3.23s1.48-3.23 3.3-3.23h17.32c1.82 0 3.3 1.45 3.3 3.23s-1.48 3.23-3.3 3.23"/><path class="cls-1" d="M3.3 37.54c-.91 0-1.64.72-1.64 1.61s.74 1.61 1.64 1.61h17.32c.91 0 1.64-.72 1.64-1.61s-.74-1.61-1.64-1.61H3.3Zm17.32 4.84H3.3c-1.82 0-3.3-1.45-3.3-3.23s1.48-3.23 3.3-3.23h17.32c1.82 0 3.3 1.45 3.3 3.23s-1.48 3.23-3.3 3.23"/><path class="cls-1" d="M3.3 32.69c-.91 0-1.64.72-1.64 1.61s.74 1.61 1.64 1.61h17.32c.91 0 1.64-.72 1.64-1.61s-.74-1.61-1.64-1.61H3.3Zm17.32 4.84H3.3c-1.82 0-3.3-1.45-3.3-3.23s1.48-3.23 3.3-3.23h17.32c1.82 0 3.3 1.45 3.3 3.23s-1.48 3.23-3.3 3.23m10.83 9.69c-.91 0-1.64.72-1.64 1.61s.74 1.61 1.64 1.61h17.32c.91 0 1.64-.72 1.64-1.61s-.74-1.61-1.64-1.61H31.45Zm17.32 4.84H31.45c-1.82 0-3.3-1.45-3.3-3.23s1.48-3.23 3.3-3.23h17.32c1.82 0 3.3 1.45 3.3 3.23s-1.48 3.23-3.3 3.23"/><path class="cls-1" d="M31.45 42.38c-.91 0-1.64.72-1.64 1.61s.74 1.61 1.64 1.61h17.32c.91 0 1.64-.72 1.64-1.61s-.74-1.61-1.64-1.61H31.45Zm17.32 4.84H31.45c-1.82 0-3.3-1.45-3.3-3.23s1.48-3.23 3.3-3.23h17.32c1.82 0 3.3 1.45 3.3 3.23s-1.48 3.23-3.3 3.23"/><path class="cls-1" d="M31.45 37.54c-.91 0-1.64.72-1.64 1.61s.74 1.61 1.64 1.61h17.32c.91 0 1.64-.72 1.64-1.61s-.74-1.61-1.64-1.61H31.45Zm17.32 4.84H31.45c-1.82 0-3.3-1.45-3.3-3.23s1.48-3.23 3.3-3.23h17.32c1.82 0 3.3 1.45 3.3 3.23s-1.48 3.23-3.3 3.23"/><path class="cls-1" d="M31.45 32.69c-.91 0-1.64.72-1.64 1.61s.74 1.61 1.64 1.61h17.32c.91 0 1.64-.72 1.64-1.61s-.74-1.61-1.64-1.61H31.45Zm17.32 4.84H31.45c-1.82 0-3.3-1.45-3.3-3.23s1.48-3.23 3.3-3.23h17.32c1.82 0 3.3 1.45 3.3 3.23s-1.48 3.23-3.3 3.23"/><path class="cls-1" d="M31.45 27.85c-.91 0-1.64.72-1.64 1.61s.74 1.61 1.64 1.61h17.32c.91 0 1.64-.72 1.64-1.61s-.74-1.61-1.64-1.61H31.45Zm17.32 4.84H31.45c-1.82 0-3.3-1.45-3.3-3.23s1.48-3.23 3.3-3.23h17.32c1.82 0 3.3 1.45 3.3 3.23s-1.48 3.23-3.3 3.23M11.96 6.47c-5.42 0-9.82 4.32-9.82 9.62s4.41 9.62 9.82 9.62 9.82-4.32 9.82-9.62-4.41-9.62-9.82-9.62m0 20.86c-1.55 0-3.05-.3-4.47-.88-1.37-.57-2.6-1.38-3.65-2.41a11.168 11.168 0 0 1-2.46-3.58c-.6-1.39-.9-2.86-.9-4.38s.31-2.99.9-4.38c.58-1.34 1.4-2.54 2.46-3.58a11.6 11.6 0 0 1 3.65-2.41c1.42-.59 2.92-.88 4.47-.88s3.05.3 4.47.88c1.37.57 2.6 1.38 3.65 2.41 1.05 1.03 1.88 2.23 2.46 3.58.6 1.39.9 2.86.9 4.38s-.3 2.99-.9 4.38c-.58 1.34-1.4 2.54-2.46 3.58a11.6 11.6 0 0 1-3.65 2.41c-1.42.59-2.92.88-4.47.88"/><path class="cls-1" d="M15.45 16.68c-.28-.41-.72-.75-1.29-1.01-.39-.17-1.1-.38-2.12-.6-1.21-.27-1.64-.48-1.79-.61a.86.86 0 0 1-.3-.67c0-.32.15-.59.44-.83.31-.24.82-.36 1.53-.36s1.19.13 1.52.4c.23.19.4.44.5.76.1.34.41.57.76.57h.06c.18-.01.36-.08.49-.2.23-.21.32-.51.24-.79-.08-.29-.21-.56-.38-.81-.31-.46-.75-.81-1.32-1.04-.56-.23-1.2-.35-1.93-.35-.66 0-1.27.11-1.81.33-.55.22-.98.56-1.27 1-.29.43-.44.91-.44 1.41 0 .46.12.88.36 1.25s.6.68 1.08.93c.36.19.99.39 1.87.59.85.2 1.41.35 1.65.44.36.13.62.3.76.48s.21.4.21.64-.08.47-.23.68c-.16.21-.4.38-.73.5-.34.13-.74.19-1.19.19-.51 0-.97-.09-1.37-.26-.39-.17-.68-.39-.86-.65-.11-.17-.2-.37-.27-.59a.813.813 0 0 0-.78-.59h-.07a.79.79 0 0 0-.58.33c-.14.19-.19.42-.13.65a3.205 3.205 0 0 0 1.9 2.21c.6.25 1.35.38 2.22.38.7 0 1.34-.13 1.9-.38.57-.25 1.01-.62 1.32-1.08.31-.46.46-.97.46-1.49s-.14-1.01-.43-1.42"/><path class="cls-1" d="M11.96 22.34c-.46 0-.83-.36-.83-.81v-.58c0-.45.37-.81.83-.81s.83.36.83.81v.58c0 .45-.37.81-.83.81m0-10.29c-.46 0-.83-.36-.83-.81v-.58c0-.45.37-.81.83-.81s.83.36.83.81v.58c0 .45-.37.81-.83.81M40.11 1.63c-5.42 0-9.82 4.32-9.82 9.62s4.41 9.62 9.82 9.62 9.82-4.32 9.82-9.62-4.41-9.62-9.82-9.62m0 20.87c-1.55 0-3.05-.3-4.47-.88-1.37-.57-2.6-1.38-3.65-2.41a11.011 11.011 0 0 1-2.46-3.58c-.6-1.39-.9-2.86-.9-4.38s.3-2.99.9-4.38c.58-1.34 1.4-2.54 2.46-3.58 1.05-1.03 2.28-1.84 3.65-2.41C37.05.29 38.56 0 40.11 0s3.05.3 4.47.88c1.37.57 2.6 1.38 3.65 2.41 1.06 1.03 1.88 2.23 2.46 3.58.6 1.39.9 2.86.9 4.38s-.3 2.99-.9 4.38c-.58 1.34-1.4 2.54-2.46 3.58a11.488 11.488 0 0 1-3.65 2.41c-1.42.59-2.92.88-4.47.88"/><path class="cls-1" d="M35.54 16.56a.84.84 0 0 1-.59-.24.792.792 0 0 1 0-1.15l9.3-9.11c.32-.32.85-.32 1.17 0 .32.32.32.83 0 1.15l-9.3 9.11c-.16.16-.37.24-.58.24Zm1.1-9.61c-.51 0-.93.41-.93.91s.41.91.93.91.93-.41.93-.91-.42-.91-.93-.91m0 3.44c-1.43 0-2.59-1.14-2.59-2.53s1.16-2.54 2.59-2.54 2.59 1.14 2.59 2.54-1.16 2.53-2.59 2.53m6.93 3.35c-.51 0-.93.41-.93.91s.41.91.93.91.93-.41.93-.91-.42-.91-.93-.91m0 3.44c-1.43 0-2.59-1.14-2.59-2.53s1.16-2.54 2.59-2.54 2.59 1.14 2.59 2.54-1.16 2.53-2.59 2.53"/></g></svg>