<svg id="Layer_2" data-name="Layer 2" xmlns="http://www.w3.org/2000/svg" viewBox="0 0 84.91 84.91"><defs><style>.cls-2{fill:none;stroke:#2566af;stroke-miterlimit:10;stroke-width:.29px}.cls-3{fill:#2566af}</style></defs><g id="Layer_1-2" data-name="Layer 1"><path d="M42.45 84.91c23.45 0 42.45-19.01 42.45-42.45S65.9 0 42.45 0 0 19.01 0 42.45 19.01 84.9 42.45 84.9" style="fill:#fff"/><path class="cls-3" d="M57.89 68.38c.38-1.59 1.81-2.79 3.52-2.79s3.14 1.19 3.52 2.79h-7.04Zm-15.66 0c.41-3.45 3.35-6.13 6.91-6.13s6.5 2.68 6.91 6.13H42.22ZM31.02 26.84c0-5.69 4.63-10.31 10.32-10.31s10.32 4.63 10.32 10.31-4.63 10.32-10.32 10.32-10.32-4.63-10.32-10.32m-2.15 41.54c.41-2.83 2.83-5.02 5.77-5.02s5.36 2.19 5.77 5.02H28.87Zm-8.9 0c.38-1.59 1.81-2.79 3.52-2.79s3.14 1.19 3.52 2.79h-7.03Zm16.9-11.71c-6.64 0-12.09-5.18-12.52-11.71h3.6c6.64 0 12.09 5.18 12.52 11.71h-3.6ZM54.71 40.5h3.6c-.43 6.53-5.88 11.71-12.52 11.71h-3.6c.43-6.53 5.88-11.71 12.52-11.71m14.5 27.88h-2.59c-.4-2.52-2.58-4.46-5.21-4.46-1.73 0-3.26.85-4.23 2.14-1.26-3.21-4.39-5.49-8.04-5.49-2.86 0-5.4 1.4-6.97 3.55V53.88h3.62c7.84 0 14.22-6.38 14.22-14.22 0-.46-.38-.84-.84-.84h-4.46c-5.43 0-10.15 3.06-12.55 7.54v-7.58c6.22-.43 11.15-5.62 11.15-11.95s-5.38-11.99-11.99-11.99-11.99 5.38-11.99 11.99 4.93 11.51 11.15 11.95v12.04c-2.4-4.48-7.12-7.54-12.55-7.54h-4.46c-.46 0-.84.37-.84.84 0 7.84 6.38 14.22 14.22 14.22h3.62v6.15a7.5 7.5 0 0 0-5.85-2.8c-3.05 0-5.68 1.83-6.86 4.45a5.27 5.27 0 0 0-4.29-2.22c-2.64 0-4.81 1.94-5.21 4.46h-2.59c-.46 0-.84.38-.84.84s.38.84.84.84H69.2c.46 0 .84-.38.84-.84s-.37-.84-.84-.84"/><path class="cls-2" d="M57.89 68.38c.38-1.59 1.81-2.79 3.52-2.79s3.14 1.19 3.52 2.79h-7.04Zm-15.66 0c.41-3.45 3.35-6.13 6.91-6.13s6.5 2.68 6.91 6.13H42.22ZM31.02 26.84c0-5.69 4.63-10.31 10.32-10.31s10.32 4.63 10.32 10.31-4.63 10.32-10.32 10.32-10.32-4.63-10.32-10.32Zm-2.15 41.54c.41-2.83 2.83-5.02 5.77-5.02s5.36 2.19 5.77 5.02H28.87Zm-8.9 0c.38-1.59 1.81-2.79 3.52-2.79s3.14 1.19 3.52 2.79h-7.03Zm16.9-11.71c-6.64 0-12.09-5.18-12.52-11.71h3.6c6.64 0 12.09 5.18 12.52 11.71h-3.6ZM54.71 40.5h3.6c-.43 6.53-5.88 11.71-12.52 11.71h-3.6c.43-6.53 5.88-11.71 12.52-11.71Zm14.5 27.88h-2.59c-.4-2.52-2.58-4.46-5.21-4.46-1.73 0-3.26.85-4.23 2.14-1.26-3.21-4.39-5.49-8.04-5.49-2.86 0-5.4 1.4-6.97 3.55V53.88h3.62c7.84 0 14.22-6.38 14.22-14.22 0-.46-.38-.84-.84-.84h-4.46c-5.43 0-10.15 3.06-12.55 7.54v-7.58c6.22-.43 11.15-5.62 11.15-11.95s-5.38-11.99-11.99-11.99-11.99 5.38-11.99 11.99 4.93 11.51 11.15 11.95v12.04c-2.4-4.48-7.12-7.54-12.55-7.54h-4.46c-.46 0-.84.37-.84.84 0 7.84 6.38 14.22 14.22 14.22h3.62v6.15a7.5 7.5 0 0 0-5.85-2.8c-3.05 0-5.68 1.83-6.86 4.45a5.27 5.27 0 0 0-4.29-2.22c-2.64 0-4.81 1.94-5.21 4.46h-2.59c-.46 0-.84.38-.84.84s.38.84.84.84H69.2c.46 0 .84-.38.84-.84s-.37-.84-.84-.84Z"/><path class="cls-3" d="M41.33 26.01c-1.52 0-2.29-.68-2.29-2.01 0-1.11 1.03-2.01 2.29-2.01.96 0 1.82.53 2.15 1.32.18.42.67.62 1.09.44a.83.83 0 0 0 .45-1.09c-.49-1.17-1.57-1.99-2.86-2.25v-.82c0-.46-.38-.84-.84-.84s-.84.38-.84.84v.81c-1.78.36-3.13 1.83-3.13 3.59s1.04 3.68 3.96 3.68c1.53 0 2.3.67 2.3 2.01 0 1.11-1.03 2.01-2.29 2.01-.96 0-1.82-.53-2.15-1.32a.847.847 0 0 0-1.09-.45c-.43.18-.63.67-.45 1.1.49 1.17 1.57 1.99 2.85 2.25v.82c0 .46.37.84.84.84s.84-.38.84-.84v-.81c1.79-.35 3.14-1.83 3.14-3.6S44.26 26 41.32 26"/><path class="cls-2" d="M41.33 26.01c-1.52 0-2.29-.68-2.29-2.01 0-1.11 1.03-2.01 2.29-2.01.96 0 1.82.53 2.15 1.32.18.42.67.62 1.09.44a.83.83 0 0 0 .45-1.09c-.49-1.17-1.57-1.99-2.86-2.25v-.82c0-.46-.38-.84-.84-.84s-.84.38-.84.84v.81c-1.78.36-3.13 1.83-3.13 3.59s1.04 3.68 3.96 3.68c1.53 0 2.3.67 2.3 2.01 0 1.11-1.03 2.01-2.29 2.01-.96 0-1.82-.53-2.15-1.32a.847.847 0 0 0-1.09-.45c-.43.18-.63.67-.45 1.1.49 1.17 1.57 1.99 2.85 2.25v.82c0 .46.37.84.84.84s.84-.38.84-.84v-.81c1.79-.35 3.14-1.83 3.14-3.6S44.26 26 41.32 26Z"/><path class="cls-3" d="M34.65 26.01c-.46 0-.84.38-.84.84s.37.84.84.84.84-.38.84-.84-.38-.84-.84-.84"/><path class="cls-2" d="M34.65 26.01c-.46 0-.84.38-.84.84s.37.84.84.84.84-.38.84-.84-.38-.84-.84-.84Z"/><path class="cls-3" d="M48.03 26.01c-.46 0-.84.38-.84.84s.38.84.84.84.84-.38.84-.84-.38-.84-.84-.84"/><path class="cls-2" d="M48.03 26.01c-.46 0-.84.38-.84.84s.38.84.84.84.84-.38.84-.84-.38-.84-.84-.84Z"/></g></svg>