<svg id="Layer_2" data-name="Layer 2" xmlns="http://www.w3.org/2000/svg" viewBox="0 0 84.91 84.91"><defs><clipPath id="clippath"><path class="cls-8" d="M4.31 23.79C1.55 29.43 0 35.76 0 42.45s1.55 13.03 4.31 18.66H80.6c2.76-5.63 4.31-11.96 4.31-18.66s-1.55-13.03-4.31-18.66H4.31Z"/></clipPath><clipPath id="clippath-1"><path class="cls-8" d="M0 23.79h84.91v37.32H0z"/></clipPath><style>.cls-3{fill:#fefeff}.cls-5{fill:#3ad4ad}.cls-7{fill:#014895}.cls-8{fill:none}.cls-9{fill:#fefefe}.cls-10{fill:#8ca1c2}</style></defs><g id="Layer_1-2" data-name="Layer 1"><path d="M42.45 84.91c23.45 0 42.45-19.01 42.45-42.45S65.9 0 42.45 0 0 19.01 0 42.45 19.01 84.9 42.45 84.9" style="fill:#fff"/><g style="clip-path:url(#clippath)"><g style="clip-path:url(#clippath-1)"><path class="cls-3" d="M0 60.9V24.06c0-.21.04-.3.26-.25 0 .06-.02.14 0 .18.1.18-.02.61.44.39.07-.03.1.04.05.11-.09.13.04.14.1.16.09.02.15-.04.13-.13-.03-.11 0-.18.11-.15.34.09.68.02 1.02.02 1.19 0 2.39.01 3.58.01 3.62 0 7.24-.04 10.86-.02 4.34.03 8.68-.03 13.02.02.49 0 .98 0 1.47-.02 1.57-.02 3.15-.01 4.73-.01 4.07 0 8.15-.02 12.22 0 3.81.03 7.61-.03 11.42.03.54 0 1.09-.01 1.63-.02 2.13 0 4.25 0 6.38-.01h13.21c.99 0 1.98-.03 2.97.03.48.03.66.22.57.69-.05.28-.05.55-.05.83v26.96c0 .33.03.65.02.98a206.1 206.1 0 0 0 0 5.56c0 .24-.02.49 0 .73.01.22-.09.3-.3.28H.6c-.18 0-.33.02-.34.26 0 .15-.12.18-.24.17Zm78.87-30.75c0-.09-.02-.17-.12-.06H51.63c-.22-.06-.29.02-.27.24.02.14 0 .28 0 .42-.21.07-.11.25-.11.37V54.3c0 .07.04.11.11.12v.12c-.37 0-.32.33-.41.54-.05.13-.08.32.19.23.06-.02.13-.02.15.06.1.42.39.32.66.22.13-.05.26-.05.4-.05h19.43c.43 0 .86.13 1.29-.11.18-.1.33-.15.33-.38.18-.12.39-.13.6-.15.14.09.09.15-.02.23-.07.05-.25.06-.14.2.09.11.21.08.32-.02.35-.29.43-.27.59.12.06.16.13.22.25.07.19-.24.35-.5.72-.36.04.01.1-.02.14-.05.28-.17.53-.36.85-.46.2-.07.35-.31.49-.49.37-.47.8-.89 1.15-1.38.36-.5.65-1.02.85-1.6.02-.05.07-.12-.02-.15-.06-.02-.1.02-.12.07-.09.18-.28.29-.28.54-.08-.07-.13-.1-.18-.15-.13-.13-.22-.08-.22.07.01.23-.07.36-.29.37-.11 0-.04.3-.23.12.05-.21.19-.38.29-.57.44-.89.68-1.84.73-2.83.22-.13.18-.35.18-.55V31.22c0-.25-.02-.49.04-.74.04-.16-.02-.33-.24-.36ZM49.98 54.5V31.49c0-.1.04-.21-.05-.29v-.93c.19-.09.26-.38.55-.3 0 0 .06-.08.06-.13.01-.22-.09-.35-.32-.38-.22-.03-.47.02-.66-.03-.53-.14-1.07-.09-1.6-.09-6.18-.01-12.37 0-18.55 0H12.45c-.14 0-.27.02-.4.07-.11.04-.17.1-.1.23.18.34-.46.04-.3.37-.07.01-.17.04-.2-.03-.2-.42-.56-.14-.85-.18-.11-.02-.17.14-.17.26 0 .1.1.11.16.09.25-.1.39.01.5.22-.58.19-1.13.45-1.67.73-.13-.1-.12-.46-.35-.32-.2.12-.05.36.07.52-.16.12-.32.24-.47.36-.02-.1.06-.24-.08-.3-.15-.06-.23.03-.29.15-.01.02-.04.05-.07.05-.43.04-.5.44-.71.7-.04.05-.05.12.01.17.07.04.09-.02.14-.06.15-.12.26-.31.5-.28-.23.27-.45.54-.68.81-.09-.03-.13-.1-.14-.19 0-.07-.05-.14-.11-.08-.17.14-.43.28-.47.43-.13.4-.51.7-.44 1.17.01.08-.07.2-.19.21-.22.02-.22.12-.14.29.08.17.11.4-.06.47-.23.1-.2.25-.2.42v18.51c0 .3-.03.6-.04.91.38-.14.4-.14.49.26.1.43.29.54.74.46.12-.02.25-.01.37-.01 13.82 0 27.64 0 41.46.01.42 0 .85-.11 1.27.02.1.03.13-.07.18-.26-.01.02-.03.04-.04.07 0 .07.04 0 .05.02.01-.02.03-.04.04-.06-.02 0-.03-.01-.1.07-.15 0-.23-.04-.15-.2.03-.06.06-.15.14-.15.13.01.21.11.24.22.04.14.09.3.25.2.14-.08.13-.28.02-.38-.13-.12-.13-.22-.05-.35.06-.1.05-.22.05-.33 0-.51.01-1.02.01-1.54-.02-6.75-.02-13.49 0-20.24 0-.6-.03-1.19-.02-1.78 0-.1-.02-.2-.03-.31-.02-.13-.09-.19-.24-.18-.17 0-.14.13-.17.24-.1.45 0 .9 0 1.35v18.44c0 1.4-.1 2.81.09 4.21.01.07 0 .13-.07.15-.07.02-.12-.03-.14-.09-.04-.1-.04-.23-.19-.26.02-.04.03-.08.05-.12Zm29.9-14.76V30.8c0-.1.07-.27-.12-.26-.16 0-.28.14-.23.3.07.29.04.58.04.86v15.93c0 .13-.04.27-.02.4.04.35-.05.69-.04 1.04 0 .08.01.16.09.18.1.03.11-.07.14-.13.1-.19.15-.39.15-.62v-8.76Zm-69.65-9.5c0-.08-.06-.1-.13-.09-.1 0-.11.08-.11.15 0 .06 0 .14.09.12.08-.02.13-.09.15-.18Zm40.73 25.68c.08 0 .18 0 .18-.11 0-.08-.09-.07-.14-.07-.08 0-.16.02-.17.1-.01.09.07.08.13.08ZM9.68 30.53c0-.07-.02-.13-.1-.12a.13.13 0 0 0-.13.11c-.01.08.03.11.11.12.07 0 .12-.03.12-.11Zm70.03-.48c.06-.15.08-.23 0-.32-.1.09-.07.17 0 .32Z"/><path class="cls-9" d="M0 60.9c.13 0 .24-.02.24-.17 0-.24.16-.26.34-.26h83.24c.21.02.31-.06.3-.28-.01-.24.01-.49 0-.73a206.1 206.1 0 0 1 0-5.56c0-.33-.02-.65-.02-.98V25.96c0-.28 0-.55.05-.83.09-.47-.09-.66-.57-.69-.99-.06-1.98-.03-2.97-.03H67.4c-2.13 0-4.25 0-6.38.01-.54 0-1.09.02-1.63.02-3.81-.06-7.61 0-11.42-.03-4.07-.03-8.15 0-12.22 0-1.58 0-3.15-.01-4.73.01-.49 0-.99.02-1.47.02-4.34-.06-8.68 0-13.02-.02-3.62-.02-7.24.01-10.86.02-1.19 0-2.39-.02-3.58-.01-.34 0-.68.07-1.02-.02-.12-.03-.13.04-.11.15.02.08-.04.15-.13.13-.06-.02-.19-.03-.1-.16.05-.08.02-.14-.05-.11-.46.21-.34-.22-.44-.39-.03-.05 0-.12 0-.18h.25c.07.23.27.12.4.12h83.02c.17 0 .33 0 .49.06.07.03.13.05.12.15-.02.33-.03.65-.03.98v35.13c.01.33.08.37.37.22 0 .21.08.5-.02.6-.1.1-.39.02-.6.02H.28c-.12 0-.33.09-.28-.18Z"/><path class="cls-3" d="M84.88 60.46c-.29.16-.36.12-.37-.22V25.11c0-.33.01-.65.03-.98 0-.1-.06-.12-.12-.15-.16-.07-.32-.06-.49-.06H.91c-.13 0-.32.11-.4-.12h84.31l.06.06v36.59Z"/><path class="cls-9" d="m84.88 23.87-.06-.06c.05-.01.07 0 .06.06Z"/><path class="cls-5" d="M51.78 30.1h26.97c.02.06.08.05.12.06v18.11c0 .13 0 .27.01.4a7.32 7.32 0 0 1-.73 2.83c-.09.19-.24.35-.29.57-.11.09-.19.2-.25.33-.12.14-.24.29-.37.43s-.25.29-.38.43c-.23.19-.46.38-.68.57-.16.08-.3.19-.43.31l-.87.45-.25.11s-.04 0-.06.01c-.2.07-.39.15-.59.22-.21.02-.41.03-.6.15-.36.02-.72.05-1.08.05H51.95q-.57 0-.61-.56s0-.08 0-.12V30.78c0-.14.02-.28 0-.42-.02-.22.06-.3.27-.24.05.05.1.05.15 0Zm19.49 6.27v-1.41c.17-.07.35 0 .52-.09.13-.06.11-.16.11-.26 0-.09-.06-.12-.14-.12-.3 0-.6-.01-.88.11-.06.02-.14.02-.13.16.03.48.02.97.02 1.45 0 .14-.05.31.12.38.17.07.28-.07.39-.18 0 0 .02 0 .02-.01-.01 0-.02-.02-.03-.02Zm-4.3 7.01.06-.06c.03 0 .06-.02.05-.06.05-.24.25-.4.35-.61.18-.19.36-.38.55-.56.08-.07.21-.07.25-.19.25-.14.5-.29.74-.43.06-.02.15.02.19-.07.09 0 .17-.02.24-.08.07 0 .14.02.19-.05.16.02.29-.07.44-.08h.06c.21.08.4-.02.6-.04.56-.06 1.28-.7 1.2-1.36.12-.56-.16-.95-.55-1.29a.588.588 0 0 0-.31-.14c-.03-.02-.06-.06-.09-.07-.6-.23-1.19-.05-1.79.07-.17 0-.32.04-.48.09-.54.18-1.09.31-1.58.62-.25.15-.53.25-.72.49-.02 0-.03 0-.03.01-.04-.01-.05 0-.05.04-.02.02-.05.04-.07.06-.1.06-.19.14-.25.25-.27.19-.52.39-.68.68-.05.11-.19.16-.2.3-.2.18-.31.41-.44.63-.06.02-.05.08-.06.12-.22.18-.25.46-.36.69-.02.04-.05.08-.07.12-.02.02-.03.04-.05.07v.07c-.18.2-.19.45-.25.68 0 .02-.01.04-.01.06-.03.01-.06.02-.04.06 0 .17-.14.33-.07.51-.1.03-.07.11-.07.18v6.22c-.03.1 0 .18.06.25 0 .13.06.23.15.32.06.18.23.28.34.43 0 .04.01.06.05.05.06.03.12.05.18.08.07.07.16.11.26.11.03 0 .06.01.09.02.31.09.61.1.91-.07.07-.01.14 0 .19-.06.09 0 .15-.03.17-.12.1-.15.3-.23.33-.43.07-.05.15-.09.17-.19v-.12c0-.04 0-.09.01-.13.02-.11.06-.22.06-.33V44.3c.07-.09.1-.2.12-.31l.09-.29c.07-.08.1-.17.12-.27Zm1.3-7.41c.02.51.76.77 1.28.58.5-.18.54-.59.53-1.04 0-.79-.3-1.08-1.08-1.02-.46.03-.7.22-.73.57-.06.05-.06.1-.02.16 0 .17-.01.34-.02.51-.01.08-.03.17.04.23Zm-9.48-2.16c-.15.04-.13.13-.07.23v.95l-.02.02.02.02c0 .38 0 .76-.01 1.14-.04.12-.07.24.03.34.08.03.16.09.23.08.46-.1.93-.02 1.39-.05.15-.01.26-.05.26-.23 0-.19-.13-.21-.28-.21h-.68c-.49 0-.48 0-.48-.5 0-.2.07-.25.25-.24.22.01.44 0 .65 0 .16 0 .29-.02.29-.23 0-.22-.15-.21-.3-.21h-.62c-.34.03-.25-.21-.27-.39-.01-.19 0-.32.25-.3.27.02.54 0 .81 0 .16 0 .3 0 .31-.21.01-.21-.14-.22-.29-.23H58.8Zm3.64 1.48v.19c-.01.02 0 .04 0 .05v.46c-.04.03-.04.07 0 .1v.14c-.05.06-.05.12 0 .17.04.11.08.23.23.18.14-.05.21-.14.21-.3v-1.12c0-.11 0-.2.14-.24.32-.08.54.07.55.39v.99c0 .17.08.24.25.24.17 0 .25-.06.24-.24 0-.36 0-.72-.01-1.09-.02-.43-.29-.75-.69-.73-.53.02-1.05 0-1.57 0-.09 0-.18.03-.27.05-.22.04-.31.17-.31.39v1.33c0 .12-.05.28.11.31.14.03.29-.02.35-.19.06-.11.03-.23.02-.34v-.52c.01-.1.04-.19-.03-.28-.02-.16-.03-.31.2-.33.34-.03.48.04.54.32v.05Zm-1.45 15.92c.14-.03.24-.12.32-.23.38-.34.47-.79.47-1.26 0-2.53 0-5.07-.02-7.6 0-.87.06-1.74 0-2.61l.02-.02-.02-.02c-.08-.34-.17-.65-.44-.94-.34-.36-.71-.51-1.18-.5-.55.02-.97.32-1.21.75-.15.27-.18.65-.18 1.01.01 3.25 0 6.5 0 9.75 0 .2.02.39.04.59.11 1.04 1.36 1.58 2.2 1.07Zm5.79-16.72h-.15c-.38.04-.66.31-.65.65 0 .3.29.55.67.58.14.01.28.05.42.07.11.02.16.07.16.19s-.08.16-.18.18c-.25.05-.47.03-.66-.17-.12-.12-.27-.08-.37.01-.12.11-.02.22.07.31.36.36.79.4 1.24.22.27-.11.39-.34.38-.61-.01-.28-.16-.47-.47-.52-.2-.03-.4-.1-.6-.15-.1-.02-.18-.06-.17-.18.01-.12.12-.14.21-.14.19 0 .39-.06.54.14.13.17.28.11.39-.02.12-.14.03-.25-.09-.34-.21-.15-.44-.23-.74-.22Zm-1.49 1.05v-.8c0-.17-.11-.26-.29-.25-.17.01-.24.16-.23.27.05.48.05.95 0 1.43-.01.14.02.39.25.39.21 0 .28-.16.27-.37-.01-.23 0-.45 0-.68Zm0-1.54c.02-.17-.08-.24-.24-.25-.18-.01-.26.11-.28.27-.03.19.14.26.26.26.13 0 .27-.09.26-.28Z"/><path class="cls-9" d="M50.18 55.62c-.01.09-.04.19-.14.16-.42-.14-.85-.02-1.27-.02-13.82-.02-27.64-.01-41.46-.01-.12 0-.25 0-.37.01-.45.08-.64-.03-.74-.46-.09-.4-.11-.4-.49-.26.02-.31.04-.61.04-.91V35.62c0-.17-.03-.32.2-.42.17-.07.14-.31.06-.47-.08-.17-.08-.27.14-.29.13-.01.2-.13.19-.21-.07-.47.31-.77.44-1.17.05-.15.31-.29.47-.43.07-.06.11.01.11.08 0 .09.05.16.14.19-.13.29-.37.51-.5.79-.44.99-.72 2-.71 3.1.03 5.93.01 11.86.01 17.8q0 .57.56.54h42.62q.43.02.44-.4s0-.06 0-.09c.15.03.15.15.19.26.02.06.07.11.14.09.07-.02.08-.08.07-.15-.2-1.4-.09-2.81-.09-4.21-.01-6.15 0-12.29 0-18.44 0-.45-.1-.9 0-1.35.02-.11 0-.23.17-.24.14 0 .22.05.24.18.02.1.04.2.03.31-.02.59.02 1.19.02 1.78-.02 6.75-.02 13.49 0 20.24 0 .51-.02 1.02-.01 1.54 0 .11.02.23-.05.33-.08.13-.08.22.05.35.11.1.12.3-.02.38-.16.1-.21-.06-.25-.2-.03-.11-.11-.21-.24-.22-.09 0-.11.08-.14.15-.08.16 0 .21.15.2Z"/><path class="cls-7" d="M49.94 54.62v.09q0 .42-.44.4c-.06-.35.13-.66.13-1.01V31.15c0-.09.01-.19 0-.28-.04-.19-.12-.34-.36-.36-.49-.06-.99-.05-1.48-.05H14.06c-.28 0-.55.02-.83.04-.45.02-.89.14-1.35.03-.09-.02-.22-.03-.27.02-.25.25-.61.26-.9.4-.69.33-1.36.66-1.94 1.18-.3.27-.47.69-.9.81-.02 0-.03.03-.04.05-.43.81-.75 1.66-1.01 2.53-.08.26-.2.52-.08.81.02.04-.03.1-.04.14-.09.23-.13.47-.13.72v16.89c0 .37.02.74.31 1.02q-.56.03-.56-.54c0-5.93.01-11.86-.01-17.8 0-1.11.27-2.12.71-3.1.12-.28.37-.5.5-.79.23-.27.45-.54.68-.81l.49-.43c.16-.12.32-.24.47-.36.09-.07.22-.08.28-.2.54-.28 1.09-.54 1.67-.73.53-.12 1.07-.21 1.62-.23.07.03.14.04.2-.02.3 0 .6.01.9.01h35.4c.09.05.18.05.27 0 .16.03.36-.06.44.17v23.94c0 .1-.03.21.05.29-.02.04-.03.08-.05.12Z"/><path class="cls-9" d="M49.23 30.1h-35.4c-.3 0-.6 0-.9-.01-.08-.11-.15-.11-.2.02-.55.02-1.08.12-1.62.23-.11-.2-.25-.31-.5-.22-.06.02-.17 0-.16-.09 0-.12.06-.28.17-.26.28.05.64-.24.85.18.03.07.13.04.2.03-.15-.33.48-.03.3-.37-.07-.13-.02-.19.1-.23.13-.05.26-.07.4-.07h35.51c.53 0 1.06-.06 1.6.09.19.05.44 0 .66.03.23.03.33.16.32.38 0 .05-.05.13-.06.13-.29-.09-.36.21-.55.3-.08-.22-.28-.14-.44-.17a.416.416 0 0 0-.27 0Zm2.13 24.46q.04.56.61.56h20.35c.36 0 .72-.03 1.08-.05 0 .22-.15.28-.33.38-.43.24-.85.11-1.29.11H52.35c-.13 0-.26 0-.4.05-.27.1-.55.21-.66-.22-.02-.08-.09-.08-.15-.06-.27.09-.24-.1-.19-.23.09-.21.04-.53.41-.54Zm28.52-14.82v8.76c0 .22-.04.43-.15.62-.03.06-.04.16-.14.13-.08-.02-.09-.1-.09-.18-.01-.35.08-.69.04-1.04-.02-.13.02-.27.02-.4V31.7c0-.29.04-.58-.04-.86-.04-.17.07-.29.23-.3.19 0 .12.16.12.26v8.94Zm-5.89 15.18c.2-.07.39-.15.59-.22-.02.2.17.24.28.34.12.12.27.15.29-.1 0-.13.08-.24.2-.24.24.01.38-.26.63-.21.08.02.1-.06.05-.13-.07-.09-.1-.24-.26-.24.13-.12.27-.23.43-.31.03.34.06.38.33.2.26-.17.31-.48.35-.77.13-.14.25-.29.38-.43.08.14.21.27.36.23.13-.04.13-.21.14-.34 0-.13.17-.32-.14-.32.07-.12.14-.24.25-.33.19.18.11-.12.23-.12.22 0 .3-.14.29-.37 0-.15.09-.2.22-.07.04.04.09.08.18.15 0-.25.19-.36.28-.54.02-.05.06-.09.12-.07.09.04.04.1.02.15-.2.58-.49 1.1-.85 1.6-.35.49-.78.91-1.15 1.38-.14.18-.29.42-.49.49-.32.11-.57.29-.85.46-.04.03-.11.06-.14.05-.38-.14-.54.12-.72.36-.12.16-.19.09-.25-.07-.16-.4-.24-.42-.59-.12-.12.1-.24.13-.32.02-.11-.14.07-.16.14-.2.11-.07.16-.14.02-.23Zm4.91-6.26c0-.13-.01-.27-.01-.4V30.15c.22.03.28.2.24.36-.06.25-.04.49-.04.74v16.86c0 .2.05.42-.18.55ZM51.36 30.77v23.67c-.07-.01-.11-.05-.11-.12V31.14c0-.13-.09-.3.11-.37Z"/><path class="cls-10" d="M49.99 54.5c-.09-.09-.05-.2-.05-.29V31.2c.09.09.05.2.05.29V54.5Z"/><path class="cls-9" d="m8.68 31.64-.49.43c-.24-.03-.35.16-.5.28-.05.04-.08.1-.14.06-.06-.04-.05-.12-.01-.17.21-.26.28-.66.71-.7.02 0 .06-.03.07-.05.06-.12.14-.21.29-.15.14.06.06.2.08.3Zm.75-.56c-.05.12-.19.13-.28.2-.13-.17-.28-.41-.07-.52.23-.13.22.22.35.32Zm.8-.84c-.01.09-.07.16-.15.18-.09.02-.09-.06-.09-.12 0-.08.01-.15.11-.15.07 0 .12.02.13.09Zm40.73 25.69c-.06 0-.14 0-.13-.08.01-.08.09-.1.17-.1.06 0 .14-.02.14.07 0 .11-.1.11-.18.11ZM9.67 30.53c0 .08-.05.11-.12.11-.07 0-.12-.04-.11-.12.01-.07.06-.11.13-.11.08 0 .1.05.1.12Zm70.03-.48c-.07-.15-.1-.23 0-.32.08.09.06.18 0 .32Zm-.82.1s-.1 0-.12-.06c.1-.11.12-.03.12.06ZM50.22 55.52s.04.02.05.02l-.04.06s-.06.05-.05-.02c0-.02.02-.05.04-.07Z"/><path class="cls-10" d="M51.78 30.1s-.1.05-.15 0h.15Z"/><path class="cls-3" d="M67.97 42.07c-.18.19-.36.38-.55.56-.3-.06-.31.22-.42.37-.06.09-.08.2.07.24.01.04-.01.06-.05.06l-.06.06c-.18.03-.11.17-.12.27l-.09.29c-.27.07-.3.13-.12.31v.25c-.11.01-.16-.05-.2-.15-.06-.14-.19-.19-.34-.15-.21.05-.2.24-.24.39-.05.17.09.14.19.16.13.03.1.14.1.23 0 .07-.02.13-.11.11-.27-.08-.26.11-.26.28v1.83c-.01.79.05 1.59-.06 2.38-.03.22-.06.43-.3.53-.2.09-.39.15-.52-.11-.02-.04-.11-.05-.17-.07-.06-.03-.11-.12-.19-.03-.06.07-.12.19-.06.26.15.15.27.35.48.42.36.12.65-.14.98-.2.18-.04.02-.28.11-.41 0-.01.04 0 .05-.01q.07.32.47.45s0 .09-.01.13c0 0-.02.01-.02.02s.01.03.02.04v.06c-.12 0-.26 0-.17.19-.04.2-.23.28-.33.43-.09 0-.17.01-.17.12-.05.07-.12.05-.19.06-.32-.16-.61-.02-.91.07-.03 0-.06-.01-.09-.02-.02-.18-.12-.19-.26-.11-.06-.03-.12-.05-.18-.08l-.05-.05c-.11-.14-.28-.25-.34-.43.07-.04.16-.07.11-.17-.05-.11-.15-.16-.27-.15-.07-.07-.1-.15-.06-.25.05-.04.05-.08 0-.12V50c.15-.03.11-.15.11-.25v-.84c.03-1.29-.07-2.58.06-3.86.01-.12-.04-.2-.17-.21v-.81c.12-.02.15-.08.07-.18-.07-.18.06-.34.07-.51.01-.02.03-.04.04-.06 0-.02 0-.04.01-.06.11.03.24-.12.34.02.04.05.08.11.15.06.08-.06.02-.12.01-.19-.02-.18-.2-.1-.31-.19.13-.11.09-.24.05-.38 0-.02 0-.04.01-.07.02-.02.03-.04.05-.07.02-.04.05-.08.07-.12.18-.04.19.32.35.2.22-.16-.1-.28-.1-.44 0-.05 0-.1.02-.14.02-.04.07-.02.11 0 .09.05.17.22.27.08.08-.13-.09-.2-.17-.29-.03-.04-.08-.06-.12-.09 0-.05 0-.1.06-.12.07 0 .15-.01.22.01.25.09.41-.11.5-.23.12-.17-.13-.23-.23-.33-.02-.02-.03-.05-.05-.08 0-.14.15-.19.2-.3.26.03.34-.41.72-.16-.14-.23-.08-.38-.04-.52.18 0 .26-.07.25-.25.02-.02.05-.04.07-.06.02-.01.04-.03.05-.04 0-.02.01-.02.03-.01.14-.04.23.04.33.12.1.09.24.09.34 0 .08-.08.17-.2.07-.32-.09-.1-.03-.19-.01-.28.49-.3 1.04-.44 1.58-.62.16-.05.31-.1.48-.09.03.07.07.13.03.2-.05.09 0 .16.08.2.09.04.2.07.26 0 .31-.43.76-.17 1.14-.21.17-.02.29-.03.37-.18.12.02.22.07.31.14.01.17-.11.21-.23.23-.11.01-.2.09-.18.18.07.24-.09.24-.24.29-.25.08-.28.21-.08.36.18.14.05.23-.04.32-.04.05-.13.06-.19.09-.05.03-.12.08-.13.12-.01.09.09.1.15.12.36.17.56-.19.84-.28.21-.07.4-.21.64-.15.08.66-.64 1.3-1.2 1.36-.2.02-.4.13-.6.04h-.05c-.15.02-.28.1-.44.08 0-.05 0-.11-.08-.1-.08 0-.1.08-.11.15-.07.05-.15.08-.24.08-.09-.04-.18-.1-.19.07-.25.14-.5.29-.74.43-.11.03-.32-.09-.25.19Zm.68-1.53c0-.13-.06-.16-.17-.12-.48.19-.94.44-1.34.77-.27.22-.5.47-.68.78-.16.27-.24.58-.43.84-.12.16-.14.4-.17.6-.01.1.05.24.18.26.21.03.33-.13.47-.25.05-.04.09-.09.06-.16-.03-.08-.09-.06-.16-.04-.05.02-.1.04-.12-.04-.02-.06.05-.08.07-.11.14-.23.28-.47.4-.71.03-.06 0-.16.09-.18.12-.03.09.08.11.14.04.07.1.09.15.04.2-.18.4-.37.6-.57.04-.04.07-.11.02-.17-.05-.06-.11-.03-.17 0-.05.03-.1.07-.16.1-.05.03-.1.14-.17.06-.06-.07 0-.13.06-.18.3-.31.63-.59 1.04-.74.15-.05.27-.15.3-.31Zm.29-1.39c.16.23.33.3.53.3.14 0 .18-.12.22-.22.02-.06.04-.13-.02-.17-.1-.08-.18 0-.25.05-.14.08-.28.11-.49.04Zm-4.16 4.5c-.01-.06.04-.17-.07-.19-.15-.02-.1.12-.12.19 0 .03-.02.06-.02.09-.01.14-.21.33 0 .39.14.04.16-.23.21-.37.01-.03 0-.06 0-.11Zm3.45-4.73c.17.05.27.09.37.1.11.01.15-.09.19-.17.02-.05.03-.1-.02-.14-.09-.08-.15.01-.21.05-.09.05-.18.09-.34.17Zm1.5 1.39c.07.02.14.04.2-.02a.06.06 0 0 0 0-.08c-.05-.09-.14-.06-.22-.05-.11.02-.22.04-.33.07-.05.01-.1.06-.08.11.02.06.08.05.13.03.09-.03.18-.12.29-.06Zm-1.03-.9c.01-.08-.02-.12-.08-.12-.09 0-.15.06-.19.14-.03.07.03.09.08.09.09 0 .16-.03.18-.11Zm-3.74 3.57c0-.06-.04-.09-.1-.08-.06 0-.1.04-.11.09 0 .07.05.08.1.08.06 0 .1-.03.11-.09Zm-.43 2.31s.07-.06.06-.11c0-.04 0-.09-.06-.09s-.09.04-.1.09c0 .06.04.09.1.11Zm.13-.84c0-.05 0-.11-.07-.11-.05 0-.1.04-.09.1 0 .03.04.08.07.09.07.03.08-.03.09-.08Zm3.36-5.34s-.04-.07-.08-.07c-.05 0-.08.04-.06.08.01.03.05.06.08.07.05 0 .06-.04.06-.08Zm-3.13 11.83s-.03-.01-.05-.02c0 .02-.02.04-.02.05 0 .01.03.02.05.02 0-.02.01-.03.02-.05Z"/><path class="cls-9" d="M61.75 39.51c.05.87-.01 1.74 0 2.61.01 2.53.02 5.07.02 7.6 0 .47-.08.92-.47 1.26-.02-.12-.05-.23-.2-.2-.13.03-.12.14-.12.24v.18c-.83.51-2.08-.03-2.2-1.07-.02-.2-.04-.39-.04-.59v-9.75c0-.36.03-.74.18-1.01.24-.43.67-.74 1.21-.75.46-.01.83.13 1.18.5.27.29.36.6.44.94v.04Zm-2.33 10.2c.31-.24.32-.06.32.15 0 .1.05.2.05.3 0 .12.04.29-.19.14-.16-.11-.26.04-.32.15-.09.15.1.1.15.16.03.03.08.05.09.08.04.11.11.14.22.13.14-.02.11-.13.12-.22 0-.06.01-.13.09-.13.06 0 .08.05.09.1.02.13.1.15.21.11.1-.04.09-.11.06-.2-.05-.19.06-.31.17-.44.1-.1.19-.2.26-.34.2-.37.15-.78.16-1.17.02-1.84.01-3.69.01-5.53v-1.71c0-.49-.13-.96-.14-1.46 0-.38-.48-.7-.85-.63-.12.02-.25.04-.1.2.17.18.08.34-.12.34-.32 0-.29.18-.29.38v9.58Zm2.18-4.33v-4.13c0-.45-.09-.9-.06-1.36 0-.1-.02-.18-.15-.19-.11 0-.18.06-.2.15-.02.08-.03.16-.02.24.04.38 0 .75 0 1.13v8.04c.04.33 0 .65-.12.96-.03.08-.19.17-.07.26.1.07.17-.08.27-.1.11-.02.08-.09.03-.16-.04-.06-.06-.13.03-.14.32-.04.29-.27.29-.49v-4.22Zm4.99 5.02q-.4-.13-.47-.45s-.05 0-.05.01c-.09.13.07.38-.11.41-.33.07-.62.32-.98.2-.21-.07-.33-.27-.48-.42-.06-.07 0-.18.06-.26.07-.08.13 0 .19.03s.15.03.17.07c.13.26.32.2.52.11.24-.1.27-.31.3-.53.11-.79.05-1.59.06-2.38v-1.83c0-.17 0-.36.26-.28.09.02.11-.04.11-.11 0-.09.03-.2-.1-.23-.1-.02-.24 0-.19-.16.05-.15.03-.35.24-.39.15-.03.28.01.34.15.04.1.09.16.2.15v5.57c0 .11-.04.22-.06.33Zm-4.14-14.65v-.21s.01-.01.01-.02-.01-.02-.02-.03v-.19s.01-.01.01-.02-.01-.02-.02-.04c-.06-.27-.2-.35-.54-.32-.23.02-.22.17-.2.33-.01.1-.03.19.02.28v.52c-.05.11-.03.23-.02.34-.06.17-.21.22-.35.19-.17-.03-.11-.2-.11-.31v-1.33c0-.22.09-.35.31-.39.09-.02.18-.05.27-.05.52 0 1.05.03 1.57 0 .4-.02.67.29.69.73.02.36 0 .72.01 1.09 0 .18-.07.24-.24.24-.17 0-.25-.07-.25-.24v-.99c0-.33-.23-.48-.55-.39-.14.04-.14.13-.14.24v1.12c0 .16-.07.26-.21.3-.15.05-.2-.07-.23-.18v-.62a.03.03 0 0 0 0-.04ZM58.71 35v-.95c.02-.08.05-.16.07-.23h1.46c.15 0 .31.01.29.23-.01.2-.16.21-.31.21-.27 0-.54.01-.81 0-.25-.02-.27.12-.25.3.01.18-.07.42.27.39.21-.02.41 0 .62 0 .15 0 .3 0 .3.21s-.13.23-.29.23h-.65c-.18 0-.25.05-.25.24 0 .5 0 .5.48.5h.68c.15 0 .27.02.28.21 0 .18-.1.22-.26.23-.46.03-.93-.05-1.39.05-.07.01-.15-.05-.23-.08l-.03-.34c0-.38 0-.76.01-1.14 0-.01.01-.03 0-.04Zm8.06-.51c.3-.01.53.07.74.22.12.09.21.2.09.34-.11.13-.26.19-.39.02-.15-.2-.35-.14-.54-.14-.09 0-.19.02-.21.14-.01.12.07.16.17.18.2.05.39.12.6.15.31.05.46.25.47.52.01.27-.11.51-.38.61-.44.18-.87.13-1.24-.22-.09-.09-.19-.2-.07-.31.1-.09.25-.13.37-.01.19.19.41.22.66.17.1-.02.18-.05.18-.18 0-.11-.05-.17-.16-.19-.14-.02-.28-.06-.42-.07-.37-.03-.66-.27-.67-.58 0-.34.27-.61.65-.65h.15Zm1.5.57c.03-.35.27-.54.73-.57.78-.06 1.08.23 1.08 1.02 0 .44-.04.85-.53 1.04-.52.19-1.26-.07-1.28-.58 0-.08.01-.16-.04-.23 0-.17.01-.34.02-.51 0-.05.01-.11.02-.16Zm.45.52v.24c.02.21.13.34.36.35.25.01.51-.01.56-.31.04-.22.05-.44-.04-.67-.11-.29-.31-.38-.6-.29-.34.11-.28.39-.29.68Zm3.17 4.19c-.24-.07-.43.08-.64.15-.28.09-.48.45-.84.28-.06-.03-.16-.03-.15-.12 0-.05.08-.09.13-.12.06-.04.15-.04.19-.09.08-.09.21-.19.04-.32-.2-.15-.17-.29.08-.36.15-.05.31-.05.24-.29-.02-.08.06-.16.18-.18.13-.02.25-.06.23-.23.4.34.67.73.55 1.29Zm-.63-4.79v1.32s-.02.01-.02.02.01.03.02.04v.05c-.1.12-.21.25-.39.18-.17-.07-.12-.24-.12-.38 0-.48 0-.97-.02-1.45 0-.14.07-.13.13-.16.28-.12.58-.11.88-.11.08 0 .14.03.14.12 0 .1.02.19-.11.26-.17.08-.35.02-.51.09h-.03l.02.02Zm-5.98.57c0 .23-.01.45 0 .68.01.21-.06.37-.27.37-.23 0-.27-.25-.25-.39.05-.48.05-.96 0-1.43-.01-.12.05-.26.23-.27.18-.01.28.08.29.25.01.27 0 .54 0 .8Zm-1.61 9.32c.13.01.18.09.17.21-.13 1.29-.02 2.57-.06 3.86v.84c0 .1.04.22-.11.25v-5.16Zm7.36-6.53c-.08.15-.19.16-.37.18-.38.04-.83-.22-1.14.21-.06.08-.17.05-.26 0-.09-.04-.13-.1-.08-.2.04-.08 0-.14-.03-.2.59-.12 1.18-.3 1.79-.07.04.01.06.05.09.07Z"/><path class="cls-3" d="M75.77 54.12c.16 0 .19.15.26.24.05.06.03.14-.05.13-.25-.05-.39.22-.63.21-.12 0-.19.11-.2.24-.02.25-.16.22-.29.1-.1-.1-.29-.14-.28-.34.02 0 .04 0 .06-.01.1 0 .26.14.25-.11l.87-.45Z"/><path class="cls-9" d="M65.09 40.88s.03.06.05.08c.1.1.36.16.23.33-.09.13-.26.32-.5.23-.06-.02-.14 0-.22-.01.13-.22.24-.45.44-.63Zm2-1.83c-.02.09-.08.18.01.28.11.12.02.24-.07.32-.1.1-.23.09-.34 0-.1-.08-.19-.16-.33-.12.19-.23.47-.34.72-.49Z"/><path class="cls-3" d="M76.88 53.24c-.05.29-.09.6-.35.77-.27.17-.3.13-.33-.2.23-.19.46-.38.68-.57Z"/><path class="cls-9" d="M64.59 41.63s.09.05.12.09c.07.09.25.16.17.29-.1.15-.18-.03-.27-.08-.04-.02-.08-.04-.11 0-.02.04-.02.1-.02.14 0 .16.31.28.1.44-.16.12-.17-.24-.35-.2.12-.23.15-.51.36-.69Z"/><path class="cls-3" d="M77.63 52.38c.3 0 .15.19.14.32 0 .13-.01.31-.14.34-.16.04-.28-.09-.36-.23.12-.14.24-.29.37-.43Z"/><path class="cls-9" d="M65.28 34.01c.02.19-.12.28-.26.28-.13 0-.29-.07-.26-.26.02-.16.1-.28.28-.27.15 0 .26.08.24.25Zm-1.18 8.56c.05.13.09.27-.05.38.1.09.28 0 .31.19 0 .07.06.14-.01.19-.07.05-.11 0-.15-.06-.1-.14-.23.01-.34-.02.06-.23.07-.49.24-.68Zm1.87-2.67c-.04.15-.1.29.04.52-.38-.25-.46.19-.72.16.16-.29.41-.5.68-.68Zm-1.16 11.62c.3-.09.59-.23.91-.07-.29.17-.59.16-.91.07Zm2.27-8.27c-.15-.04-.13-.15-.07-.24.11-.16.12-.43.42-.37-.1.22-.29.37-.35.61Z"/><path class="cls-3" d="M60.98 51.21v-.18c0-.1 0-.22.12-.24.15-.03.18.08.2.2-.08.11-.18.2-.32.23Z"/><path class="cls-9" d="M63.74 50.52c.12-.01.22.04.27.15.05.1-.04.14-.11.17a.441.441 0 0 1-.15-.32Zm2.91-6.27c-.18-.18-.15-.24.12-.31-.02.11-.05.22-.12.31Zm1.32-2.18c-.07-.27.14-.16.25-.19-.04.12-.17.12-.25.19Zm-1.75-2.42c.01.18-.07.26-.25.25a.55.55 0 0 1 .25-.25ZM64.46 51.4c.14-.08.24-.07.26.11-.1 0-.19-.04-.26-.11Zm4.94-10.09c0-.07.03-.14.11-.15.07 0 .07.05.08.1-.05.07-.12.05-.19.05Zm-2.99 9.52c-.09-.19.05-.18.17-.19-.02.1-.1.14-.17.19Zm8.48 3.74c.02.25-.15.11-.25.11.08-.04.17-.08.25-.11Z"/><path class="cls-10" d="M61.69 36.4c0-.11-.03-.23.02-.34.01.12.04.23-.02.34Z"/><path class="cls-9" d="M66.85 43.65c0-.1-.06-.24.12-.27a.55.55 0 0 1-.12.27Z"/><path class="cls-10" d="m58.7 36.18.03.34c-.11-.1-.07-.22-.03-.34Z"/><path class="cls-9" d="M63.74 43.88c.08.1.05.16-.07.18 0-.07-.03-.15.07-.18Z"/><path class="cls-10" d="M58.79 33.82c-.02.08-.05.16-.07.23-.06-.1-.09-.2.07-.23Z"/><path class="cls-9" d="M68.96 41.46c.01-.17.11-.11.19-.07-.04.09-.13.04-.19.07Z"/><path class="cls-10" d="M61.7 35.54a.536.536 0 0 1-.02-.28c.06.09.04.19.02.28Z"/><path class="cls-9" d="M65.91 51.39c0-.11.08-.13.17-.12-.02.09-.08.12-.17.12Z"/><path class="cls-10" d="M68.23 35.74c.05.07.04.15.04.23-.07-.07-.05-.15-.04-.23Zm-5.78.5v.17c-.06-.06-.06-.11 0-.17Zm5.82-1.18c0 .05-.01.11-.02.16-.04-.06-.05-.11.02-.16Zm-5.82.94v.1c-.04-.03-.04-.07 0-.1Z"/><path class="cls-9" d="M63.68 50.15c.05.04.05.08 0 .12v-.12Z"/><path class="cls-10" d="M61.75 39.51s-.01-.02 0-.04l.02.02-.02.02Zm9.51-3.15s-.01-.03-.02-.04l.02-.02v.06Z"/><path class="cls-9" d="M64.16 42.44s-.03.04-.05.07c.02-.02.03-.04.05-.07Z"/><path class="cls-10" d="m71.26 34.98-.01-.02h.02l-.01.02z"/><path class="cls-9" d="M70.03 41.18h.05l-.03.01h-.03Z"/><path class="cls-10" d="M58.71 35v.04l-.02-.02.02-.02Z"/><path class="cls-9" d="M63.85 43.31s-.03.04-.04.06c-.02-.04 0-.05.04-.06Zm3.12.07.06-.06-.06.06Zm-.39 7.2s-.01-.03-.02-.04l.02-.02v.06Z"/><path class="cls-10" d="m62.42 35.24.02.04s0 .01-.01.02c0-.02-.01-.03 0-.05Zm.01.25s.01.02.02.03c0 0 0 .01-.01.02-.02-.02-.02-.03 0-.05Z"/><path class="cls-9" d="m64.23 51.27.05.05c-.04 0-.05-.01-.05-.05Z"/><path class="cls-10" d="M62.45 35.75s.01.03 0 .04l-.02-.02v-.02Z"/><path class="cls-9" d="M66.35 39.55s-.04.03-.05.04c0-.03.02-.05.05-.04Z"/><path class="cls-10" d="M71.28 36.41s-.01-.02 0-.04c.01 0 .02.02.03.03 0 0-.02 0-.02.01Z"/><path d="M6.87 55.11c-.29-.29-.31-.65-.31-1.02V37.2c0-.25.04-.49.13-.72.02-.05.06-.11.04-.14-.12-.29 0-.55.08-.81.26-.87.58-1.72 1.01-2.53 0-.02.02-.05.04-.05.43-.12.6-.54.9-.81.58-.53 1.25-.86 1.94-1.18.3-.14.65-.15.9-.4.05-.05.19-.04.27-.02.46.11.9-.01 1.35-.03.27-.01.55-.04.83-.04h33.73c.49 0 .99 0 1.48.05.24.03.32.17.36.36.02.09 0 .19 0 .28v22.95c0 .35-.19.66-.13 1.01H6.87ZM23.59 40.2c0-.17-.09-.27-.21-.39-.34-.33-.73-.43-1.19-.51-.63-.12-1.25-.24-1.89-.27-.45-.02-.45 0-.27.36-.1.05-.19.13-.31.14-.07-.22-.2-.14-.29-.04-.08.09-.35.17-.1.36-.09.13-.14.27-.18.42-.17.1-.19.16-.06.25 0 .12 0 .25.01.37.02.02.03.04.05.06 0 .04.01.08.02.12-.31.06-.15.26-.08.37.4.65 1.1.83 1.76.97.35.07.69.19.95.36.49.32.95.71 1.17 1.3.08.22.19.51.49.6.08.18.09.37.06.56-.15.01-.15.13-.18.24-.05.16.02.39-.13.48-.19.11-.19.27-.24.44-.15.47-.3.95-.79 1.21-.22.12-.43.25-.66.33-.19.07-.3.26-.51.28-.66.06-1.33.28-1.91-.25-.04-.04-.12-.03-.17-.06-.32-.2-.74-.15-1.01-.46-.06-.06-.16-.03-.24-.04-.05-.03-.1-.06-.09-.13-.01-.24-.04-.47-.03-.71.02-.31-.03-.59-.25-.83-.12-.13-.13-.29-.13-.46 0-1.22.04-2.44 0-3.65-.04-.97.16-1.92.09-2.9-.05-.69.03-1.38.05-2.07 0-.05 0-.11.02-.15.13-.35-.11-.71.03-1.07 0-.02-.01-.06-.03-.08-.39-.33-.36-.86-.64-1.25-.16-.22-.22-.53-.6-.37-.05.02-.12-.03-.18-.04-.64-.09-1.22 0-1.74.45-.2.17-.15.43-.32.57-.16.13-.15.27-.07.41.1.19.1.39.11.6.02.31-.07.61-.07.92v6.61c0 .39.12.78.04 1.17-.04.22-.07.43-.02.64.06.27.03.52-.03.79-.07.35-.22.72-.04 1.05.17.31.24.65.39.96.28.56.64 1.08 1 1.58.25.35.64.61.92.95.29.35.71.62 1.08.73.61.2 1.16.65 1.86.57.05 0 .12.03.17.07.21.16.41.1.64.05.32-.07.66-.32.98.03.08.08.23.06.33.03.6-.2 1.24-.24 1.8-.6.21-.13.48-.23.7-.35.32-.18.69-.33.92-.64.33-.43.72-.8 1.11-1.17.18-.18.45-.24.56 0 .2.39.51.69.7 1.09.25.51.68.88 1.14 1.2.31.21.68.23 1.05.19.23-.02.42-.18.66-.13.28.05.49-.1.63-.31s.39-.35.38-.65c0-.09.12-.14.2-.18a.7.7 0 0 0 .2-.15c.26-.33.33-.81.75-1.02.04-.02.06-.11.06-.17.02-.1.06-.18.17-.19.11-.01.18.05.22.14.05.13.16.22.24.32.29.39.66.7.99 1.05.35.36.81.53 1.17.85.04.04.13.07.17.05.4-.15.63.21.92.34.33.15.59.29.95.13.12-.05.24-.03.38.05.24.14.51.29.79.03.09-.08.23-.08.32 0 .22.21.46.15.7.08.43-.13.85-.25 1.28-.37.35-.1.68-.22 1-.38.3-.15.54-.37.81-.56.47-.33.73-.79.82-1.35 0-.06 0-.14.05-.17.27-.15.18-.41.2-.64.02-.18-.19-.26-.18-.41.01-.31-.26-.46-.43-.55a2.82 2.82 0 0 0-1.62-.29c-.1.01-.17.07-.24.13-.36.27-.69.57-1.08.79-.26.15-.58.23-.87.29-.41.09-.86.13-1.26-.02-.8-.3-1.45-.82-1.99-1.47-.21-.24-.38-.52-.28-.87.02-.06.03-.15 0-.18-.21-.17-.11-.35-.04-.55.04-.1.08-.23.06-.33-.16-.72.35-1.15.75-1.58.51-.54 1.19-.88 1.91-1.08.23-.06.5-.14.67.05.17.19.37.25.6.28.08.01.16.01.23.07.33.3.73.53 1.1.77.52.34 1.08.37 1.6.06.2-.12.52-.17.58-.45.05-.23.19-.38.34-.53.22-.22.25-.56.08-.81-.08-.12-.11-.24-.14-.37-.06-.36-.49-.6-.81-.47-.04-.04-.08-.08-.13-.12.12-.26.04-.44-.21-.59-.22-.14-.41-.34-.61-.52-.07-.06-.12-.15-.23-.13-.54.1-.99-.24-1.52-.26-.37-.01-.75-.18-1.12-.17-.86.02-1.73.06-2.57.31-.43.13-.84.31-1.23.53-.42.24-.76.58-1.15.88-.3.23-.59.5-.74.79-.26.48-.63.87-.88 1.36-.42.81-1.08 1.5-1.45 2.35-.02.04-.04.08-.06.11-.34.39-.69.78-1.03 1.17-.19.22-.35.25-.5 0-.16-.27-.42-.47-.53-.74-.2-.5-.52-.91-.87-1.3-.08-.09-.15-.29-.34-.12-.06-.02-.06-.07-.06-.12 0-.2.06-.45-.12-.58-.29-.21-.32-.53-.47-.81-.16-.32-.42-.61-.64-.91-.24-.31-.54-.58-.71-.95-.05-.11-.11-.22-.24-.27-.19-.07-.33-.2-.47-.34-.13-.12-.27-.26-.47-.11-.08-.03-.18 0-.24-.09Z" style="fill:#004896"/><path class="cls-10" d="M12.72 30.12c.05-.13.12-.14.2-.02-.06.06-.13.05-.2.02Zm36.51-.02a.36.36 0 0 1 .27 0c-.09.06-.18.05-.27 0Z"/><path class="cls-9" d="M68.65 40.55c-.03.15-.15.25-.3.31-.42.15-.74.43-1.04.74-.05.05-.12.11-.06.18.08.08.12-.02.17-.06.05-.03.1-.07.16-.1.05-.03.12-.06.17 0 .05.06.02.13-.02.17-.2.19-.39.38-.6.57-.05.04-.12.03-.15-.04-.03-.05 0-.17-.11-.14-.08.02-.06.12-.09.18-.12.24-.26.48-.4.71-.02.04-.09.05-.07.11.02.07.07.05.12.04.06-.02.13-.03.16.04s-.02.12-.06.16c-.14.12-.26.28-.47.25-.13-.02-.2-.15-.18-.26.03-.21.05-.45.17-.6.19-.26.27-.57.43-.84.19-.31.42-.56.68-.78.4-.33.85-.58 1.34-.77.11-.04.16 0 .17.12Zm.29-1.39c.21.07.35.03.49-.04.07-.04.16-.12.25-.05.05.04.04.12.02.17-.04.1-.08.22-.22.22-.2 0-.37-.07-.53-.3Zm-4.16 4.49v.11c-.06.14-.07.41-.21.37-.2-.06 0-.25 0-.39 0-.03.01-.06.02-.09.02-.08-.03-.22.12-.19.11.02.06.13.07.19Zm3.45-4.73c.16-.08.25-.12.34-.17.07-.04.12-.13.21-.05.05.04.04.09.02.14-.04.09-.08.18-.19.17-.11-.01-.21-.05-.37-.1Zm1.5 1.39c-.12-.06-.2.03-.29.06-.05.02-.11.03-.13-.03-.02-.06.03-.1.08-.11.11-.03.22-.05.33-.07.08-.01.17-.04.22.05.01.02 0 .07 0 .08-.06.07-.13.04-.2.02Zm-1.03-.9c-.02.08-.09.12-.18.11-.05 0-.11-.02-.08-.09.03-.08.09-.14.19-.14.06 0 .09.04.08.12Zm-3.74 3.57c-.01.06-.05.08-.11.09-.06 0-.11-.01-.1-.08 0-.05.05-.09.11-.09s.09.02.1.08Zm-.43 2.3c-.06-.02-.1-.05-.1-.11s.04-.09.1-.09c.05 0 .06.05.06.09 0 .05-.01.1-.06.11Zm.12-.84c0 .05-.02.11-.09.08-.03-.01-.06-.05-.07-.09-.01-.06.03-.1.09-.1.07 0 .07.06.07.11Zm3.37-5.33s0 .09-.06.08c-.03 0-.07-.04-.08-.07-.02-.04 0-.08.06-.08.04 0 .08.02.08.07Zm-3.14 11.83s-.01.03-.02.05c-.02 0-.04-.01-.05-.02 0-.01.01-.03.02-.05.02 0 .03.01.05.02Z"/><path class="cls-3" d="M59.42 49.72v-9.58c0-.2-.03-.38.29-.38.21 0 .3-.15.12-.34-.15-.16-.02-.18.1-.2.37-.06.85.25.85.63 0 .49.13.97.14 1.46v1.71c0 1.84.01 3.69-.01 5.53 0 .38.04.79-.16 1.17-.07.13-.16.23-.26.34-.12.12-.23.25-.17.44.03.09.04.17-.06.2-.1.04-.19.02-.21-.11 0-.05-.03-.11-.09-.1-.08 0-.09.07-.09.13 0 .09.02.2-.12.22-.11.02-.18-.02-.22-.13-.01-.03-.06-.05-.09-.08-.05-.06-.24 0-.15-.16.06-.11.16-.25.32-.15.22.15.19-.02.19-.14 0-.1-.05-.2-.05-.3 0-.21 0-.39-.32-.15Zm2.18-4.33v4.22c0 .22.03.45-.29.49-.09.01-.07.08-.03.14.05.07.08.14-.03.16-.1.02-.18.18-.27.1-.12-.09.04-.18.07-.26.13-.31.16-.63.12-.96-.01-.09 0-.19 0-.28v-7.76c0-.38.05-.75 0-1.13 0-.08 0-.17.02-.24.02-.1.09-.16.2-.15.13 0 .15.09.15.19-.03.45.06.9.06 1.36v4.13Z"/><path class="cls-5" d="M68.72 35.58c0-.29-.06-.56.29-.68.29-.09.49 0 .6.29.09.22.07.45.04.67-.05.3-.31.32-.56.31-.23-.01-.33-.14-.36-.35-.01-.09 0-.19 0-.24Z"/><path class="cls-3" d="M19.1 40.89c0-.12 0-.25-.01-.37l.06-.25c.04-.15.09-.29.18-.42.08-.17.28-.19.4-.32.12 0 .21-.08.31-.14.16-.03.33-.08.5-.04 0 .14.04.23.2.24.17 0 .27-.07.3-.24h.19c.02.02.04.03.06.05.17-.02.34 0 .5.07.04.1-.11.21 0 .28.11.06.17-.09.26-.13.04-.02.08-.02.12-.03.16 0 .3.06.43.13-.12.19-.31.18-.5.18-.09 0-.17.04-.18.14 0 .11.08.09.15.11.33.07.48-.01.65-.38.26.1.52.22.74.39-.08.11-.2.23-.08.35.13.14.3.28.47.35.1.03.15-.16.17-.28.38.23.65.56.93.88.02.02.04.04.05.06.05.02.07.07.07.12-.01.23.04.4.32.37s.04.05.06.07c.19.23.37.47.5.74-.1.1-.02.11.07.12.18.21.35.42.44.68-.09.11-.28.23-.22.33.08.14.28.23.47.23h.12l.11.08c0 .05 0 .1.06.12l.63 1.05c-.13.17.03.16.12.19.17.21.31.44.44.68l.05.06c.25.33.45.69.64 1.06-.01.14.02.22.17.28.16.06.2-.05.27-.13.15-.19.37-.3.49-.51.06-.1.14-.05.17.01.12.22.23.08.34 0 .14-.1.2-.31.42-.31.02 0 .06-.08.05-.1-.09-.18.08-.27.12-.4.06-.19.26-.17.32-.31.12-.26.18-.56.47-.7.05-.02.06-.09.04-.14-.15-.32.13-.42.31-.53.11-.07.16-.12.12-.23-.07-.17 0-.23.15-.3.13-.05.27-.15.33-.26.13-.23-.12-.29-.29-.42.15-.05.26-.08.39-.08.26 0 .53-.13.65-.3.21-.28.47-.52.7-.77.2-.21.38-.44.55-.66.14-.17.53-.23.37-.59 0 0 .03-.04.04-.04.25 0 .43-.47.75-.12.02.02.11.01.12 0 .11-.31.35-.24.59-.22.06 0 .15-.08.19-.14.22-.33.54-.49.86-.28.3.19.46.11.73-.03.34-.18.76.09.9.49.02.04.04.08.08.08.17 0 .37.06.51-.06.13-.11.21-.15.31.02.06.1.16.16.2-.03.01-.06.05-.08.1-.1.4-.2.4-.21.06-.48v-.09h.4c.21.06.39.18.56.31-.04.17-.12.29-.32.22-.07-.02-.12 0-.15.06-.03.07.02.12.08.14.17.06.35.23.47-.07.04-.1.14-.1.24-.1l.3.2s.08.08.13.12c.12.17.31.28.38.49-.32.06-.43.34-.62.54-.16.18-.04.27.01.39.04.09.12.05.18 0 .12-.09.29-.15.22-.35-.12-.32.08-.38.32-.4.03.14.14.26.11.42-.16.81-.69 1.27-1.54 1.31-.04-.21.12-.31.22-.45.04-.06.12-.14.03-.21-.09-.07-.19-.14-.31-.12-.09.02-.15.13-.12.19.09.23-.04.36-.2.48L40.6 43c.03-.22-.05-.37-.24-.48-.13-.08-.23-.05-.32.07a.219.219 0 0 1-.12-.13c0-.28-.53-.63-.78-.52-.02 0-.02.06-.03.08-.08-.02-.19.04-.25-.06.03-.28-.19-.3-.36-.31-.21-.01-.49-.11-.58.23-.06 0-.12.01-.18.02-.16-.25-.3-.22-.56.12-.15.06-.29.12-.44.18-.22-.08-.4-.09-.37.23-.04.03-.08.05-.12.08-.31.01-.39.09-.38.31-.32.24-.53.58-.81.87-.1 0-.21 0-.24.12-.03.09.04.12.12.13-.01.1-.05.18-.13.25-.13 0-.18.07-.2.19-.02.13-.09.22-.26.31-.01-.59.05-1.11.35-1.58.04-.06.14-.13.04-.21-.06-.05-.18-.05-.23.01-.26.26-.49.61-.48.94 0 .32 0 .58-.14.88-.17.37-.2.79-.08 1.2.02.09-.04.24.13.21.13-.02.14-.15.1-.25-.07-.16-.03-.3.02-.45.03-.09.07-.15.18-.11.09.03.16.1.12.19-.14.34.07.39.33.4.07.11.12.22.11.35-.1.12-.08.84.03.93.07.06.16.09.26.09h.28l.06.06.04.04c-.07.04-.13.09-.07.17.05.06.11.03.15-.03l.12.12c0 .08-.02.16.04.24.23.27.38.56.17.92-.06.09 0 .2.08.24.09.05.15-.05.2-.11.06-.08.09-.18.13-.27.07-.16.16-.28.35-.13.11.08.17.03.22-.06.23.09.46.17.69.26-.02.12.16.09.15.21-.04 0-.08.02-.12.02-.12 0-.24-.02-.39-.03.02.14.06.29-.1.37-.09.05-.15.13-.06.22.09.08.19.09.26-.02.13-.22.34-.24.57-.23.21 0 .41.03.62-.03.1-.03.2 0 .23.1.08.27.18.16.27.01.07-.11.16-.11.23-.03.09.11.19.31.32.14.12-.16.27-.05.4-.14.22-.16.16-.52.48-.57.03 0 .06-.12.13-.08.08.05.02.1-.02.15-.04.06-.04.12.02.16.03.02.1.01.11 0 .07-.12.22-.19.25-.34.02-.08-.03-.18.07-.22.11-.03.24.09.25.13.07.29.27.16.43.16 0 .14.02.24.15.34.15.1.16.28 0 .38-.25.16-.17.33-.06.51.04.07.1.13.11.21-.11.1-.22.21-.38.24.12-.27-.04-.46-.17-.68-.11-.17-.2-.15-.32-.1-.13.05-.15.14-.08.27.12.2.02.32-.19.38-.07.02-.14.03-.21.05-.41.14-.8.38-1.25.14h-.06c-.24.04-.49.07-.66.26-.06.07-.13.14-.21.08-.24-.15-.45-.11-.64.09-.04.04-.09.05-.14.02-.16-.1-.34-.09-.51-.09-.06 0-.14 0-.14-.08 0-.07.07-.09.13-.11.12-.03.24-.07.37-.1-.4-.09-.79-.08-1.18 0-.1.02-.19.05-.22-.08-.06-.25-.2-.25-.39-.13-.13.08-.21-.04-.31-.08-.04-.02-.04-.07 0-.1.21-.16.05-.19-.07-.19-.16 0-.25-.1-.33-.2-.12-.14-.28-.25-.46-.23-.34.03-.51-.2-.67-.42-.09-.13-.17-.26-.31-.33.05-.1.25-.03.18-.17-.05-.11-.08-.3-.23-.29-.12 0-.09.16-.1.26 0 .07.02.17-.09.16-.08 0-.1-.1-.1-.17.01-.19-.01-.35-.19-.48-.16-.12-.04-.39.16-.4.11 0 .17 0 .13-.12-.03-.08-.06-.19-.2-.1-.18.12-.26.04-.29-.15-.03-.22-.12-.36-.37-.2-.05.03-.12.03-.18.04-.36.05-.47.16-.51.53-.02.16-.05.31-.28.25 0-.12.14-.09.15-.19 0-.06-.01-.16-.07-.14-.12.05-.24.13-.33.23-.07.08 0 .18.08.24.07.05.1.11.07.19-.04.08-.11.12-.2.11-.08-.01-.15-.07-.21.04-.11.18-.17.11-.19-.05-.02-.11-.05-.21-.17-.1-.15.15-.16.33-.02.5.13.15.27.13.4-.07.03.25.07.42-.25.35-.13-.03-.29.07-.44.02 0 .25-.2.24-.39.23.16.2.17.65.02.7-.26.09-.46.29-.71.37-.17.06-.15.14-.06.25.04.05.1.08.06.2-.15-.07-.36 0-.47-.14-.17-.23-.4-.35-.61-.51-.2-.15-.43-.24-.69-.16-.16-.13-.23-.33-.34-.49.08 0 .17-.02.24.04.13.11.21.04.27-.07.07-.12-.03-.17-.12-.24-.18-.14-.56-.21-.24-.58.07-.08.05-.26-.08-.36-.08-.06-.07-.26-.23-.19-.12.05-.01.18-.02.28 0 .01-.03.03-.05.05-.17-.09-.34-.23-.56-.12-.02-.04-.03-.08-.05-.11.18.04.31-.11.46-.15.06-.02.09-.08.08-.15-.01-.07-.06-.13-.12-.11-.24.05-.18-.09-.14-.21.05-.16-.02-.23-.17-.25-.08-.01-.17-.02-.23-.07-.36-.26-.7.03-1.06.03-.06 0-.05.09 0 .12.22.15.07.21-.06.3-.12.09-.36.22-.03.37.09.04.09.1.05.18-.1.16-.18.34-.47.21.32.25.06.49.05.71-.01.2-.33.31-.45.15-.27-.37-.26.15-.43.11-.12-.02-.13.05-.12.17.03.24-.26.43-.5.35-.19-.06-.71.15-.79.34-.06.16-.18.18-.32.15-.35-.07-.7-.05-1.03.05-.33.09-.61.36-.99.19-.03-.01-.09.05-.14.06-.26.04-.44.27-.72.24-.11-.01-.19-.03-.14-.17.03-.09.18-.18.02-.25-.14-.07-.31-.17-.45.02-.05.08-.14.08-.22.11-.1.05-.18.03-.26-.04-.09-.08-.07-.16 0-.24.07-.08.02-.14-.05-.17-.14-.05-.23-.32-.44-.11-.04.04-.13-.03-.15-.08-.09-.27-.35-.37-.52-.56-.18-.21-.28-.14-.29.11-.28.04-.43-.21-.55-.35-.22-.24-.4-.36-.7-.21.03-.2.11-.4-.04-.59a1.53 1.53 0 0 1-.32-.62c-.05-.17-.18-.31-.39-.28-.14-.09-.16-.25-.23-.38.24-.06.22-.24.12-.38a.756.756 0 0 1-.13-.52c.02-.19-.08-.23-.24-.22.01-.14-.15-.28-.02-.43 0-.09.03-.18-.03-.26v-.35c.05-.09.03-.18.03-.27v-8.55c0-.09.02-.19-.03-.27v-.16c.04-.03.04-.06 0-.09 0-.1-.01-.2-.02-.3.23-.03.3.08.31.31.01.27-.07.53-.07.8v8.29c0 .27.07.54 0 .82-.06.24.27.36.25.6 0 .08.04.14.13.16.1.02.12-.06.16-.12.13-.2.21-.41.21-.66v-9.13c0-.26-.17-.6.28-.75.13-.04.27-.22.42-.17.18.06.18.26.16.43-.06.69-.05 1.37-.06 2.06-.03 2.59.07 5.19-.06 7.78v.09c0 .1.02.2.14.21.14 0 .15-.1.17-.21.07-.34.13-.67.07-1.03-.08-.46.07-.92.06-1.39-.02-.67 0-1.34 0-2 0-.46-.02-.93-.06-1.39-.03-.41.08-.82.06-1.23-.03-.68 0-1.36-.06-2.04-.04-.41.06-.83.04-1.25 0-.24.13-.43.15-.65 0-.08.07-.09.14-.08.05 0 .09.05.07.08-.15.2 0 .42-.03.63-.1.56-.03 1.13-.02 1.69.04 1.39.01 2.78.01 4.18 0 1.24-.03 2.49.02 3.73.01.33-.33.55-.16.87-.41.14-.35.4-.27.75.04.19.1.27.24.36.2.13.2-.12.32-.14.07-.01.12-.1.07-.17-.04-.07-.11-.04-.17-.02-.1.03-.22.07-.24-.09-.01-.12-.07-.29.05-.34.11-.04.33-.08.39.04.14.25.32.5.24.82-.03.13-.06.16-.18.09-.11-.07-.26-.12-.31.04-.04.15-.16.37.07.46.22.09.29.26.35.46.09.32.27.41.6.3.08-.03.16-.03.23.04.04.04.05.09.03.14-.04.09-.11.12-.2.09-.04-.01-.1-.06-.13.06.19-.03.32.35.55.04.04-.05.09.06.14.09.23.15.45.39.73.38.7-.04 1.41.18 2.09-.15.03-.02.08 0 .12 0q.44.05.54-.4c.01-.06.04-.1.1-.1.05 0 .06.05.06.09 0 .35.25.22.34.12.28-.29.79-.33.91-.8 0-.03.09-.05.13-.07.13-.06.16-.18.09-.28-.16-.23.1-.59-.24-.77-.01 0 .01-.08.02-.12.22-.56.52-1.1.43-1.74.03-.19.02-.38-.06-.56 0-.06 0-.13.01-.19 0-.02-.01-.03-.02-.04-.14-.29-.24-.61-.42-.89 0-.05-.01-.09-.06-.12 0-.07-.03-.12-.1-.12-.29-.39-.64-.72-1.07-.94-.3-.15-.63-.25-.95-.38-.02-.03-.03-.03-.06 0-.67-.08-1.23-.35-1.62-.91 0-.04-.01-.08-.02-.12.01-.04-.02-.05-.05-.06Zm3.99-.24c-.27-.05-.43.05-.46.42.15-.2.44-.12.51-.52-.01.02-.03.04-.04.07 0 .07.04 0 .05.02l.04-.06s-.03-.01-.1.08Zm1.32 3.97c-.1.14-.12.27-.13.4-.04.42.23.87-.21 1.25-.1.08.09.28.21.37.06.04.1-.06.13-.14.15-.48.16-.97.13-1.47 0-.14-.03-.26-.12-.41Zm-3.57-4.48c-.09 0-.23-.04-.27.04-.11.26-.35.37-.55.54a.8.8 0 0 0-.13.13c-.05.06-.07.13 0 .19.05.05.12.03.16-.02.12-.13.24-.18.43-.16.1 0 .28-.09.3-.26.01-.1.06-.17.13-.23.06-.05.18-.06.15-.17-.03-.1-.14-.04-.22-.06Zm19.99 2.28s.12.06.15-.05c.04-.12-.1-.1-.15-.15-.26-.2-.54-.38-.79-.59-.09-.08-.17-.14-.3-.12-.06 0-.11.04-.09.1.03.12.1.23.21.28.15.06.28.14.41.24.15.11.24.36.56.29Zm-12.07 5.52c-.06-.14-.07-.36-.36-.32-.09.01-.15-.04-.17-.11-.05-.15-.15-.22-.28-.14-.14.08 0 .17.04.26.02.06.04.12.07.17.05.1.12.15.21.03.08-.11.16-.12.25-.01.12.15-.04.17-.12.2-.16.05-.1.12-.03.2.06.05.11.15.2.09.11-.07.22-.17.19-.37Zm-6.56-7.36c0-.12-.08-.15-.14-.17-.12-.03-.24-.04-.36-.06-.23-.04-.24.1-.22.26 0 .08.07.17.14.13.18-.12.42-.04.59-.16Zm-1.13.88c-.12-.13-.3-.15-.44-.23-.06-.03-.1.01-.1.07 0 .2.14.26.28.31.12.04.19-.04.26-.15Zm-5.39 6.83c-.1.02-.14.08-.14.17 0 .25.29.19.38.35.02.03.08-.04.1-.09.01-.04-.3-.43-.34-.43Zm6.94-7.77c.17-.01.28-.11.33-.27.02-.08-.05-.12-.12-.1-.17.04-.33.14-.39.3-.03.07.11.05.18.07Zm1.06 2.63c-.19-.15-.33-.26-.38-.45-.02-.06-.08-.14-.17-.08-.03.02-.04.12-.02.14.15.15.2.44.57.39Zm.52.74c-.05-.1-.09-.22-.22-.25-.08-.02-.14.03-.14.12 0 .14.09.22.23.24.07 0 .12-.01.13-.11Zm14.23 6.52c-.06-.09-.17-.1-.26-.12-.09-.02-.2 0-.2.12 0 .11.11.14.2.16.1.02.19-.04.26-.15Zm-15.42-7.99c-.07-.13-.21-.19-.33-.25-.05-.03-.09.05-.07.1.05.16.21.17.33.23.04.02.07-.02.08-.08Zm-7.52 5.67c.11 0 .14-.09.16-.16.03-.09-.02-.13-.11-.14-.09 0-.17 0-.18.12 0 .09.04.16.13.18Zm15.81-.71s.12.06.16.02c.08-.08.23-.11.23-.26 0-.02-.03-.06-.05-.06-.12 0-.15.12-.22.19-.04.04-.13.02-.12.12Zm-3.41 2.46c.07 0 .12-.03.13-.1 0-.09-.02-.17-.13-.17-.07 0-.1.06-.11.13 0 .08.01.14.11.15Zm-.37-.91s-.03-.11-.13-.13c-.06-.01-.11.02-.1.08 0 .09.03.19.15.2.06 0 .09-.05.08-.15Zm14.05.55c.07-.12.2-.17.15-.31-.01-.04-.06-.07-.1-.04-.1.08-.15.18-.05.35Zm-2.32-7.99c0-.08-.06-.1-.13-.1-.06 0-.13 0-.15.07-.02.08.04.11.11.11s.15.01.17-.08ZM23.6 47.1s.1-.03.1-.11c0-.07-.04-.11-.11-.11s-.1.06-.11.12c0 .06.03.09.11.09Zm12.91 2.15c-.01-.07-.04-.12-.13-.14-.04 0-.09 0-.09.06 0 .07.03.14.11.17.06.02.09-.01.11-.08Zm-12.6-2.96c.05-.03.07-.08.06-.14 0-.05-.04-.08-.08-.06-.06.02-.1.07-.08.14 0 .05.05.06.11.06Zm3.01-.26c.05-.02.09-.05.1-.11 0-.06-.02-.1-.08-.1s-.09.04-.09.1c0 .05 0 .1.07.11Zm-8.52 4.05c.06 0 .1-.03.11-.08.02-.07-.04-.09-.09-.09-.05 0-.1.01-.11.08 0 .06.03.09.09.09Zm17.2-8.55s-.07.04-.07.09c0 .05.04.08.08.07.06 0 .09-.04.08-.1-.01-.05-.05-.06-.09-.06Zm-1.19 5.78s-.07.04-.07.08c0 .05.04.08.08.06.03-.01.06-.05.07-.08.01-.05-.04-.06-.08-.06Zm3.08 2.5c0-.07-.05-.08-.09-.08-.05 0-.07.04-.07.08 0 .05.04.08.08.06.03-.01.06-.05.08-.07Zm-4.24-1.73s.05-.05.05-.09c0-.05-.04-.06-.08-.06-.05 0-.07.04-.07.08 0 .05.03.07.1.06Zm3-6.16c0-.05-.04-.08-.08-.06-.03.01-.06.05-.07.09 0 .05.04.06.08.06.05 0 .06-.04.07-.08Zm-20.23 6.02s-.04-.05-.07-.06c-.05-.01-.08.03-.06.07.01.03.05.06.09.07.03 0 .05-.02.05-.07Zm6.33-5.86s.08-.06.09-.09c.02-.04 0-.09-.05-.07-.03 0-.06.04-.08.07 0 .01.02.04.04.09Zm1.81 6.34s-.08.06-.09.09c-.02.04 0 .09.05.07.03 0 .06-.04.08-.07 0-.01-.02-.04-.04-.09Zm10.89-5.71s-.06.07-.07.1c-.01.06.04.07.07.05a.18.18 0 0 0 .06-.09l-.06-.06Zm-.03 5.53s-.05-.08-.08-.1c-.02-.01-.07 0-.07.01-.02.06.01.1.06.11.02 0 .05-.01.1-.03Zm-5.13-.5s-.05-.05-.07-.05c-.02 0-.07.01-.07.03-.01.05.02.07.06.07.02 0 .04-.02.08-.05Zm-5.74-.5s-.05-.05-.07-.05a.15.15 0 0 0-.07.03c-.01.05.03.07.07.07.02 0 .04-.03.08-.05Zm.27 1.93s-.05.06-.06.09c0 .01.01.04.02.05.02-.02.06-.03.07-.05a.23.23 0 0 0-.03-.09Zm12.88-8.93s-.06-.04-.08-.03c-.02 0-.05.03-.05.06 0 .01.03.04.04.05.02-.02.04-.03.09-.08Zm-20.59 8.57s0-.04-.02-.05c-.01 0-.03.01-.05.02 0 .02 0 .04.02.05.01 0 .03-.01.05-.02Zm20.04.57s-.01.03-.02.05c.02 0 .04.02.05.02.01 0 .02-.03.02-.05-.02 0-.03-.01-.05-.02Zm1.6-8.52s.04.02.05.02c.01 0 .02-.03.02-.05-.02 0-.04-.02-.05-.02-.01 0-.02.03-.02.05Zm-11.53 6.43s-.04-.02-.05-.02c-.01 0-.02.03-.02.05.02 0 .04.02.05.02.01 0 .02-.03.02-.05Zm10.9 2.52s.04.02.05.02c.01 0 .02-.03.02-.05-.02 0-.04-.02-.05-.02-.01 0-.02.03-.02.05Zm3.18-8.57s.04.02.05.02c.01 0 .02-.03.02-.05-.02 0-.04-.02-.05-.02-.01 0-.02.03-.02.05ZM25 43.17s0-.04-.02-.05c-.01 0-.03.01-.05.02 0 .02 0 .04.02.05.01 0 .03-.01.05-.02Zm-1.12 5.62s-.04-.02-.05-.02c-.01 0-.02.03-.02.05.02 0 .04.02.05.02.01 0 .02-.03.02-.05Z"/><path class="cls-7" d="M14.06 35.42c0 .1.01.2.02.3v.25c0 .09-.03.18-.03.28v8.54c0 .09.02.18.03.28v.35c-.03.09-.05.18.03.26-.13.15.03.29.02.43.03.06.08.12.08.18-.01.33.1.63.17.94.06.13.08.29.23.38-.01.06-.06.11-.01.19.24.45.45.9.78 1.3.49.47.93.96 1.53 1.33.76.47 1.54.79 2.41.96.26.05.54.03.8.04.56.02 1.13-.09 1.69-.2.51-.1 1-.29 1.44-.58.76-.49 1.51-.98 2.05-1.75.22-.32.36-.7.65-.99.04.18.18.23.29.32.02.04.03.08.05.11-.07.03-.05.06 0 .08.26.37.52.75.77 1.12.11.16.18.36.34.49.16.4.5.64.8.91.47.43 1.31.31 1.75-.05.46-.39.78-.89 1.13-1.36.34-.45.66-.92.99-1.38.18-.24.3-.24.4 0 .51 1.11 1.35 1.9 2.41 2.48 1.05.57 2.17.83 3.38.79 1.18-.04 2.26-.34 3.24-1 .16-.03.26-.14.38-.24.26-.16.44-.38.61-.64.37-.57.35-1.17-.1-1.69-.26-.3-1-.52-1.56-.2-.22.13-.44.27-.65.41-.79.5-1.63.83-2.6.69-.23-.09-.46-.17-.69-.26-.43-.22-.82-.5-1.18-.81l-.12-.12a.15.15 0 0 0-.09-.14l-.04-.04a.435.435 0 0 1-.06-.07c-.19-.34-.38-.67-.57-1.01 0-.13-.04-.25-.11-.35-.14-.59-.04-1.17.13-1.74.07-.07.11-.15.13-.25.07-.07.11-.15.13-.25.27-.29.48-.63.81-.87.13-.1.25-.21.38-.31.04-.03.08-.05.12-.08.12-.08.25-.16.37-.23.15-.06.29-.12.44-.18.19-.04.38-.08.56-.12.06 0 .12-.01.18-.02.32-.02.62.07.93.08.07.1.17.03.25.06.27.14.54.29.81.43.02.06.07.1.12.13.19.14.38.28.56.42l.25.14c.11.1.23.14.38.11.84-.04 1.37-.5 1.54-1.31.03-.16-.08-.28-.11-.42-.04-.06-.07-.12-.11-.19-.07-.21-.27-.32-.38-.49.31-.13.74.11.81.47.02.14.06.26.14.37.17.26.14.59-.08.81-.15.16-.29.3-.34.53-.06.28-.38.34-.58.45-.52.3-1.08.28-1.6-.06-.38-.25-.77-.47-1.1-.77-.07-.06-.15-.06-.23-.07-.23-.03-.42-.09-.6-.28-.18-.19-.45-.11-.67-.05-.73.2-1.41.54-1.91 1.08-.4.43-.91.86-.75 1.58.02.1-.02.23-.06.33-.08.19-.17.37.04.55.03.03.02.12 0 .18-.1.35.07.63.28.87.55.64 1.2 1.17 1.99 1.47.4.15.85.11 1.26.02.29-.06.61-.15.87-.29.39-.22.72-.52 1.08-.79.07-.06.14-.12.24-.13.57-.06 1.12.03 1.62.29.18.09.44.24.43.55 0 .15.2.23.18.41-.03.23.07.49-.2.64-.06.03-.04.11-.05.17-.09.56-.35 1.02-.82 1.35-.27.19-.51.41-.81.56-.32.16-.66.28-1 .38-.43.12-.85.25-1.28.37-.24.07-.48.13-.7-.08-.09-.08-.23-.09-.32 0-.28.26-.55.11-.79-.03-.13-.08-.26-.1-.38-.05-.35.16-.62.01-.95-.13-.29-.13-.52-.49-.92-.34-.05.02-.13-.02-.17-.05-.36-.32-.82-.49-1.17-.85-.33-.34-.71-.65-.99-1.05-.08-.11-.18-.2-.24-.32-.04-.1-.11-.15-.22-.14-.11.01-.15.08-.17.19 0 .06-.02.15-.06.17-.42.22-.49.69-.75 1.02-.05.07-.12.11-.2.15-.09.04-.2.09-.2.18 0 .3-.25.44-.38.65-.14.22-.35.36-.63.31-.24-.04-.44.11-.66.13-.38.04-.75.02-1.05-.19-.46-.32-.89-.68-1.14-1.2-.19-.39-.5-.7-.7-1.09-.12-.23-.38-.17-.56 0-.39.37-.78.74-1.11 1.17-.24.31-.6.47-.92.64-.22.12-.5.22-.7.35-.56.36-1.2.4-1.8.6-.1.03-.25.06-.33-.03-.32-.35-.66-.09-.98-.03-.23.05-.44.12-.64-.05a.31.31 0 0 0-.17-.07c-.7.08-1.25-.37-1.86-.57-.37-.12-.78-.38-1.08-.73-.28-.34-.66-.59-.92-.95-.36-.5-.72-1.02-1-1.58-.16-.31-.23-.65-.39-.96-.18-.33-.03-.71.04-1.05.05-.27.09-.52.03-.79-.05-.21-.02-.43.02-.64.08-.39-.04-.78-.04-1.17v-6.61c0-.31.09-.61.07-.92-.01-.21-.01-.41-.11-.6-.08-.14-.09-.28.07-.41.17-.14.12-.4.32-.57.52-.44 1.1-.54 1.74-.45.06 0 .13.06.18.04.38-.16.44.16.6.37.28.38.26.92.64 1.25.02.02.04.06.03.08-.14.35.1.71-.03 1.07-.02.05-.02.1-.02.15-.02.69-.1 1.39-.05 2.07.07.97-.12 1.93-.09 2.9.05 1.22.01 2.44 0 3.65 0 .17.01.33.13.46.22.24.27.52.25.83-.01.23.02.47.03.71-.1-.08-.15-.19-.22-.29-.43-.71-.5-1.49-.47-2.3.03-.03.03-.06 0-.09v-7.27c0-.67 0-1.34-.04-2.01-.03-.41-.16-.73-.46-.98-.46-.38-1-.38-1.54-.18-.56.21-.71.72-.82 1.24Z"/><path class="cls-9" d="M16.89 41.21v.16c-.04.03-.04.06 0 .09v.16c-.04.03-.04.06 0 .09v.16c-.04.03-.04.06 0 .08v.41c-.04.03-.04.06 0 .09v.16c-.04.03-.04.06 0 .09v.16c-.04.03-.04.06 0 .09v.16c-.04.03-.04.06 0 .09v.16c-.04.03-.04.06 0 .09v.16c-.04.03-.04.06 0 .09v.16c-.04.03-.04.06 0 .09v.16c-.04.03-.04.06 0 .09v.16c-.04.03-.04.06 0 .09v.16c-.03.03-.03.06 0 .09-.03.81.04 1.59.47 2.3.06.1.12.21.22.29 0 .07.04.1.09.13.36.45.81.78 1.35 1 .96.38 1.87.31 2.76-.21.53-.31.96-.73 1.32-1.22 0 .04-.03.11-.02.12.33.18.08.54.24.77.07.1.05.22-.09.28-.05.02-.13.04-.13.07-.12.47-.63.51-.91.8-.09.1-.34.23-.34-.12 0-.04 0-.09-.06-.09s-.09.04-.1.1q-.11.45-.54.4s-.09-.02-.12 0c-.67.33-1.39.12-2.09.15-.28.02-.5-.23-.73-.38-.05-.03-.1-.14-.14-.09-.23.31-.36-.07-.55-.04.03-.11.08-.07.13-.06.09.03.17 0 .2-.09.02-.05.01-.1-.03-.14-.07-.07-.15-.07-.23-.04-.32.1-.51.02-.6-.3-.06-.21-.13-.37-.35-.46-.23-.1-.11-.32-.07-.46.04-.16.2-.11.31-.04.12.07.15.05.18-.09.08-.32-.1-.57-.24-.82-.06-.12-.28-.08-.39-.04-.12.05-.06.22-.05.34.01.16.14.12.24.09.06-.02.13-.05.17.02.04.08 0 .16-.07.17-.12.02-.13.27-.32.14-.14-.09-.2-.17-.24-.36-.08-.35-.14-.61.27-.75-.17-.33.18-.54.16-.87-.05-1.24-.02-2.48-.02-3.73 0-1.39.03-2.79-.01-4.18-.02-.57-.09-1.13.02-1.69.04-.21-.12-.42.03-.63.02-.03-.02-.07-.07-.08-.07 0-.13 0-.14.08-.02.22-.15.41-.15.65.02.42-.08.84-.04 1.25.06.68.03 1.36.06 2.04.02.42-.1.82-.06 1.23.04.46.06.93.06 1.39 0 .67-.01 1.34 0 2 .01.47-.14.93-.06 1.39.06.36 0 .69-.07 1.03-.02.11-.03.22-.17.21-.12 0-.14-.11-.14-.21v-.09c.13-2.59.03-5.19.06-7.78 0-.69 0-1.38.06-2.06.02-.17.01-.37-.16-.43-.15-.06-.29.12-.42.17-.45.15-.28.49-.28.75v9.13c0 .25-.09.46-.21.66-.04.06-.07.14-.16.12-.08-.02-.13-.08-.13-.16.02-.25-.31-.36-.25-.6.07-.28 0-.55 0-.82v-8.29c0-.27.08-.53.07-.8 0-.22-.07-.33-.31-.31.1-.53.25-1.03.82-1.24.53-.2 1.07-.2 1.54.18.29.24.43.57.46.98.04.67.04 1.34.04 2.01v3.04c-.04.02-.04.05 0 .08v.17c-.04.03-.04.06 0 .08v.16c-.04.03-.04.06 0 .08v.16c-.04.03-.04.06 0 .09Zm5.95 7.09c-.02-.11-.1-.15-.2-.14-.11.01-.16.08-.16.19 0 .12.09.12.17.12.1 0 .18-.05.18-.16Zm.13-.71s0-.09-.06-.09c-.05 0-.06.05-.06.09 0 .04 0 .09.06.09.05 0 .05-.05.06-.09Zm-.73.88s-.07.04-.07.08c0 .05.04.08.08.06.03-.01.06-.05.07-.08.01-.05-.04-.06-.08-.06Z"/><path class="cls-7" d="M28.22 46.29c-.12-.24-.27-.47-.44-.68 0-.08-.04-.15-.12-.19l-.63-1.05c.19-.17.26.03.34.12.35.39.67.8.87 1.3.11.27.37.48.53.74.15.25.31.21.5 0 .34-.39.69-.78 1.03-1.17.03-.03.05-.07.06-.11.37-.86 1.03-1.54 1.45-2.35.25-.48.62-.88.88-1.36.16-.29.45-.56.74-.79.38-.29.73-.63 1.15-.88.39-.23.8-.41 1.23-.53.84-.25 1.7-.29 2.57-.31.38 0 .75.16 1.12.17.53.02.98.36 1.52.26.11-.02.16.07.23.13.2.18.39.38.61.52.24.16.32.33.21.59l-.3-.2c-.07-.13-.2-.18-.32-.25-.17-.13-.34-.26-.56-.31-.02-.02-.04-.05-.07-.06-.65-.26-1.31-.46-2.03-.52-.9-.07-1.77 0-2.63.26-.97.28-1.79.83-2.52 1.5-.04 0-.06.02-.06.06-.17.14-.37.23-.49.42l-1.4 2.06-1.07 1.58-.03.1c-.13.02-.17.14-.22.22-.38.56-.76 1.13-1.14 1.7-.08.12-.14.28-.32.13-.19-.37-.39-.73-.64-1.06.01-.04-.02-.05-.05-.06Zm-5.12.69c-.36.49-.79.91-1.32 1.22-.89.52-1.8.59-2.76.21-.54-.21-.99-.55-1.35-1 .08 0 .18-.03.24.04.27.3.69.26 1.01.46.05.03.13.02.17.06.58.53 1.26.3 1.91.25.21-.02.32-.21.51-.28.23-.08.44-.22.66-.33.49-.26.64-.74.79-1.21.05-.16.05-.33.24-.44.16-.09.09-.32.13-.48.03-.12.03-.23.18-.24.09.64-.2 1.18-.43 1.74Zm-3.93-5.9c.39.57.95.83 1.62.91h.06c.32.12.65.22.95.38.43.22.78.54 1.07.94 0 .07.04.1.1.12.02.04 0 .1.06.12.18.28.28.59.42.89l-.02.02c.01 0 .02.02.04.03 0 .06 0 .13-.01.19-.3-.09-.4-.38-.49-.6-.23-.6-.68-.99-1.17-1.3-.26-.17-.6-.29-.95-.36-.66-.14-1.36-.32-1.76-.97-.07-.11-.22-.31.08-.37Zm7.79 3.18-.11-.08c-.08-.22-.2-.41-.38-.56-.09-.26-.26-.48-.44-.68-.01-.05 0-.1-.07-.12a3.7 3.7 0 0 0-.5-.74L25.4 42c-.08-.15-.17-.29-.32-.37 0-.05-.02-.1-.07-.12-.02-.02-.04-.04-.05-.06-.29-.32-.56-.66-.93-.88-.07-.09-.13-.19-.2-.28.2-.15.34-.02.47.11.14.14.29.27.47.34.13.05.19.15.24.27.17.37.47.64.71.95.22.29.48.59.64.91.14.28.18.6.47.81.18.13.12.38.12.58Zm-3.49-4.1c-.23-.17-.48-.29-.74-.39a.13.13 0 0 0-.13-.05c-.14-.07-.27-.13-.43-.13-.11-.08-.25-.08-.38-.11-.16-.07-.32-.09-.5-.07-.01-.03-.02-.06-.06-.05h-.69c-.17-.04-.33.01-.5.04-.18-.37-.18-.38.27-.36.64.03 1.26.15 1.89.27.45.08.85.18 1.19.51.12.12.21.22.21.39-.04-.01-.08-.02-.13-.04Z"/><path class="cls-9" d="M23.47 40.16s.08.02.13.04c.06.08.16.06.24.09.07.09.13.19.2.28-.02.12-.07.31-.17.28-.18-.06-.34-.2-.47-.35-.12-.12 0-.24.08-.35Z"/><path class="cls-7" d="M19.73 39.53c-.12.13-.31.15-.4.32-.25-.2.02-.27.1-.36.09-.1.22-.17.29.04Zm-.58.74-.06.25c-.13-.09-.11-.15.06-.25Zm-.05.62s.06.02.05.06c-.02-.02-.03-.04-.05-.06Z"/><path class="cls-9" d="M28.9 47.42c.19.14.24-.02.32-.13.38-.57.75-1.14 1.14-1.7.06-.08.09-.21.22-.22.06.2.05.5.42.29-.27-.01-.29-.24-.39-.4l1.07-1.58 1.4-2.06c.13-.18.32-.28.49-.42l.06-.06c.74-.68 1.55-1.22 2.52-1.5.86-.25 1.73-.33 2.63-.26.72.06 1.38.25 2.03.52.03.01.04.04.07.06h-.4c0 .05-.01.08 0 .09.34.26.34.28-.06.48-.05.02-.09.04-.1.1-.03.19-.14.13-.2.03-.11-.17-.18-.13-.31-.02-.15.12-.34.06-.51.06-.05 0-.06-.03-.08-.08-.15-.4-.57-.66-.9-.49-.27.14-.43.22-.73.03-.32-.21-.65-.05-.86.28-.04.06-.13.15-.19.14-.24-.02-.48-.09-.59.22 0 .01-.1.02-.12 0-.31-.35-.49.12-.75.12-.01 0-.04.04-.04.04.16.36-.23.42-.37.59-.18.22-.36.45-.55.66-.24.25-.49.48-.7.77-.12.16-.39.3-.65.3-.13 0-.23.03-.39.08.16.12.42.19.29.42-.06.12-.21.21-.33.26-.16.06-.22.13-.15.3.05.11 0 .16-.12.23-.18.11-.46.21-.31.53.02.05.01.12-.04.14-.3.14-.35.44-.47.7-.06.14-.27.11-.32.31-.04.13-.21.22-.12.4.01.02-.03.1-.05.1-.22 0-.28.21-.42.31-.1.08-.22.22-.34 0-.03-.06-.11-.11-.17-.01-.12.21-.35.32-.49.51-.07.09-.11.19-.27.13-.15-.05-.19-.14-.17-.28Zm1.31-.7c.15-.05.34-.04.36-.26 0-.11-.08-.22-.14-.19-.15.06-.25.19-.32.34-.03.07.03.11.1.11Zm4.1-5.19v-.06c-.06-.09-.05-.26-.19-.23-.09.02-.26.09-.24.2.02.15.19.04.29.09.04.02.09.05.15 0Zm.97-1.13c-.19.05-.32.09-.35.24 0 .01.04.05.06.05.15-.02.22-.12.29-.29Zm3.09-.74c-.02-.08-.09-.06-.15-.06s-.13.02-.12.1c.01.08.08.08.14.07.06 0 .12-.04.12-.11Zm-2.29.56c.08-.08.14-.13.06-.27-.04.1-.12.14-.06.27Zm3.8-.31s.05-.05.05-.06c0-.02-.03-.05-.05-.05-.04 0-.08.01-.07.06 0 .02.04.03.07.05Zm-5.43 1.02s-.02.04-.02.05c0 .01.03.02.05.02 0-.02.02-.04.02-.05 0-.01-.03-.02-.05-.02Zm7.06 9.47c-.98.66-2.06.96-3.24 1-1.21.04-2.33-.22-3.38-.79-1.06-.57-1.9-1.37-2.41-2.48-.1-.23-.23-.23-.4 0-.34.46-.65.93-.99 1.38-.36.47-.67.98-1.13 1.36-.44.37-1.28.48-1.75.05-.3-.28-.64-.51-.8-.91.26-.09.49 0 .69.16.21.16.45.29.61.51.1.14.32.07.47.14.04-.12-.02-.16-.06-.2-.09-.11-.12-.19.06-.25.25-.09.45-.28.71-.37.15-.05.14-.5-.02-.7.19 0 .39.02.39-.23.15.05.3-.05.44-.02.33.07.29-.1.25-.35-.14.2-.27.22-.4.07-.15-.17-.13-.35.02-.5.11-.11.15 0 .17.1.02.16.08.23.19.05.06-.11.14-.05.21-.04.09.01.17-.02.2-.11.03-.07 0-.14-.07-.19-.09-.06-.15-.16-.08-.24.09-.1.21-.18.33-.23.06-.03.08.07.07.14 0 .1-.15.07-.15.19.23.06.26-.1.28-.25.04-.37.15-.48.51-.53.06 0 .13-.01.18-.04.25-.16.34-.02.37.2.03.19.1.27.29.15.13-.09.17.02.2.1.04.12-.03.11-.13.12-.21.01-.32.28-.16.4.18.14.2.29.19.48 0 .08.02.17.1.17.11 0 .08-.1.09-.16 0-.1-.03-.25.1-.26.16-.01.18.18.23.29.07.14-.13.07-.18.17.14.07.22.2.31.33.16.22.33.45.67.42.17-.01.33.09.46.23.09.1.18.2.33.2.12 0 .29.04.07.19-.04.03-.05.08 0 .1.1.04.18.16.31.08.19-.12.33-.12.39.13.03.13.11.1.22.08.39-.08.78-.1 1.18 0-.12.03-.24.07-.37.1-.06.02-.13.04-.13.11 0 .08.08.08.14.08.18 0 .35 0 .51.09.05.03.1.02.14-.02.19-.2.4-.24.64-.09.08.05.15-.02.21-.08.18-.19.42-.23.66-.26h.06c.45.23.84 0 1.25-.14.07-.02.14-.03.21-.05.2-.06.31-.17.19-.38-.08-.13-.06-.22.08-.27.12-.05.22-.07.32.1.14.22.29.4.17.68Zm-15.28-2.18c-.1-.09-.25-.14-.29-.32-.29.29-.43.67-.65.99-.54.77-1.29 1.26-2.05 1.75-.44.28-.93.48-1.44.58-.56.1-1.13.22-1.69.2-.26-.01-.54.01-.8-.04-.86-.17-1.65-.49-2.41-.96-.6-.37-1.04-.87-1.53-1.33.3-.15.48-.03.7.21.12.14.27.39.55.35 0 .13.03.24.18.24.06.13.05.3.22.34.02 0 .09-.1.08-.15 0-.17-.15-.16-.31-.19.01-.13.02-.26-.18-.24 0-.26.11-.32.29-.11.16.19.43.29.52.56.02.05.1.12.15.08.21-.21.3.05.44.11.07.03.12.09.05.17-.07.08-.09.16 0 .24.08.06.16.08.26.04.07-.04.16-.04.22-.11.14-.19.31-.09.45-.02.15.07.01.17-.02.25-.05.14.03.16.14.17.28.03.47-.2.72-.24.05 0 .11-.07.14-.06.38.17.67-.1.99-.19.33-.1.68-.12 1.03-.05.14.03.26 0 .32-.15.08-.19.6-.41.79-.34.24.08.53-.11.5-.35-.02-.13 0-.2.12-.17.17.04.16-.48.43-.11.12.16.44.05.45-.15.02-.22.27-.46-.05-.71.28.13.37-.05.47-.21.04-.07.04-.13-.05-.18-.33-.15-.09-.27.03-.37.12-.1.27-.15.06-.3-.05-.03-.05-.12 0-.12.35 0 .69-.29 1.06-.03.06.05.15.06.23.07.16.02.23.08.17.25-.04.12-.1.26.14.21.07-.02.11.04.12.11.01.07-.02.13-.08.15-.16.05-.28.19-.46.15Z"/><path class="cls-9" d="M37.58 48.73c.96.14 1.8-.19 2.6-.69.22-.14.43-.28.65-.41.56-.32 1.3-.1 1.56.2.45.52.48 1.12.1 1.69-.17.25-.35.48-.61.64 0-.09-.07-.14-.11-.21-.1-.18-.19-.35.06-.51.16-.1.15-.28 0-.38-.13-.09-.16-.2.04-.61.17-.26.13-.25.1-.22-.12.12-.15.29-.28.42-.08.08.05.09.11.08.23-.03.22-.32.42-.4.04-.02-.05-.14-.35.13-.35.28-.56.41-.62.12 0-.04-.14-.17-.25-.13-.1.03-.05.14-.07.22-.03.15-.18.21-.25.34-.01.02-.08.02-.11 0-.06-.04-.07-.1-.02-.16.03-.05.1-.11.02-.15-.07-.04-.1.07-.13.08-.33.05-.27.42-.48.57-.13.09-.28-.02-.4.14-.13.17-.23-.03-.32-.14-.07-.08-.16-.08-.23.03-.09.15-.18.25-.27-.01-.03-.1-.13-.13-.23-.1-.2.06-.41.03-.62.03-.23 0-.43.01-.57.23-.07.11-.18.11-.26.02-.1-.09-.04-.17.06-.22.16-.09.12-.23.1-.37l.39.03c.04 0 .08-.01.12-.02 0-.12-.17-.09-.15-.21Zm2.83-.24c.18-.12.32-.21.4-.36.02-.04-.04-.08-.07-.06-.15.08-.3.17-.33.43Zm-.61.62s0-.04-.02-.05c-.01 0-.03.01-.05.02 0 .02 0 .04.02.05.01 0 .03-.01.05-.02Zm-.9.15s.02-.04.02-.05c0-.01-.03-.02-.05-.02 0 .02-.02.04-.02.05 0 .01.03.02.05.02Zm-4.06-5.07c-.16.57-.26 1.14-.13 1.74-.26-.01-.47-.06-.33-.4.04-.09-.04-.15-.12-.19-.11-.04-.15.03-.18.11-.05.15-.09.29-.02.45.04.1.03.23-.1.25-.17.03-.11-.13-.13-.21-.11-.41-.09-.84.08-1.2.14-.3.15-.56.14-.88 0-.32.23-.67.48-.94.06-.06.17-.06.23-.01.09.08 0 .14-.04.21-.3.47-.36.99-.35 1.58.17-.09.25-.18.26-.31.02-.12.07-.19.2-.19Zm-7.79 5.35c-.26-.37-.52-.75-.77-1.12v-.08c.22-.11.39.04.56.12.03-.02.05-.04.05-.05 0-.1-.1-.23.02-.28.15-.07.15.13.23.19.13.1.14.28.08.36-.31.37.06.44.24.58.09.07.18.12.12.24-.06.11-.14.18-.27.07-.07-.06-.15-.05-.24-.04Z"/><path class="cls-10" d="M14.08 45.06c0-.09-.03-.18-.03-.28v-8.54c0-.09.02-.18.03-.28.05.09.03.18.03.27v8.55c0 .09.02.19-.03.27Z"/><path class="cls-9" d="M35.71 47.66c.36.32.75.59 1.18.81-.05.1-.11.15-.22.06-.19-.14-.28-.03-.35.13-.04.09-.08.19-.13.27-.04.06-.1.16-.2.11-.08-.05-.13-.15-.08-.24.21-.36.06-.64-.17-.92-.06-.07-.04-.16-.04-.24Zm-11.3-3.04c.09.15.11.27.12.41.03.5.02.99-.13 1.47-.02.07-.07.18-.13.14-.12-.09-.3-.28-.21-.37.44-.37.17-.83.21-1.25.01-.13.03-.26.13-.4Zm-3.56-4.48c.07.02.18-.04.22.06.03.1-.09.12-.15.17-.08.06-.12.13-.13.23-.02.17-.2.27-.3.26a.456.456 0 0 0-.43.16c-.04.05-.11.07-.16.02-.06-.06-.04-.13 0-.19.04-.05.09-.09.13-.13.2-.16.43-.28.55-.54.03-.08.17-.03.27-.04Zm-5.49 8.95c-.32-.39-.54-.85-.78-1.3-.05-.09 0-.13.01-.19.22-.03.35.11.39.28.06.24.18.44.32.62.15.19.07.39.04.59Zm25.47-6.66c-.32.07-.41-.18-.56-.29-.13-.09-.26-.17-.41-.24a.358.358 0 0 1-.21-.28c-.01-.06.04-.09.09-.1.12-.02.21.05.3.12.25.21.53.39.79.59.06.04.19.02.15.15-.03.11-.14.05-.15.05Zm-12.06 5.51c.03.2-.08.29-.19.37-.1.06-.15-.03-.2-.09-.08-.07-.13-.14.03-.2.08-.03.24-.05.12-.2-.08-.11-.16-.1-.25.01-.08.12-.16.07-.21-.03-.03-.05-.04-.12-.07-.17-.03-.09-.18-.18-.04-.26.13-.07.23 0 .28.14.02.06.08.12.17.11.28-.04.3.18.36.32Zm13.8-6.61c.04.06.07.12.11.19-.24.03-.44.09-.32.4.08.21-.09.27-.22.35-.06.05-.15.08-.18 0-.05-.12-.18-.21-.01-.39.19-.21.3-.48.62-.54Zm-7.75 4.95c.19.34.38.68.57 1.01h-.28a.41.41 0 0 1-.26-.09c-.11-.09-.14-.8-.03-.93Zm6.44-3.04c-.15.03-.27 0-.38-.11.16-.12.29-.25.2-.48-.02-.06.03-.17.12-.19.12-.02.22.06.31.12.09.07 0 .15-.03.21-.1.14-.27.24-.22.45Zm-2.38-1.28c-.31-.01-.62-.1-.93-.08.08-.34.36-.24.58-.23.17.01.39.03.36.31Zm-16.67-1.38c-.17.11-.41.04-.59.16-.06.04-.13-.05-.14-.13-.01-.16 0-.3.22-.26.12.02.24.03.36.06.07.02.14.05.14.17Zm-7.84 6.65c-.07-.31-.18-.61-.17-.94 0-.06-.05-.12-.08-.18.16-.02.26.03.24.22-.02.19.02.36.13.52.09.14.12.32-.12.38Zm8.23-7.51c.05 0 .1.01.13.05-.17.36-.33.45-.65.38-.07-.02-.16 0-.15-.11 0-.1.08-.14.18-.14.19 0 .38 0 .5-.18Zm3.87 3.9c.18.15.29.34.38.56h-.12c-.19 0-.39-.09-.47-.23-.06-.1.13-.22.22-.33Zm14.97-3.35c.12.07.25.12.32.25-.09 0-.2 0-.24.1-.12.3-.3.14-.47.07-.06-.02-.11-.07-.08-.14s.08-.09.15-.06c.2.07.28-.05.32-.22Zm-1.49 2.18c-.27-.14-.54-.29-.81-.43 0-.03 0-.08.03-.08.25-.11.78.24.78.52Zm.68.54c-.19-.14-.38-.28-.56-.42.09-.11.19-.14.32-.07.19.11.27.27.24.48Zm-19.54-1.52c-.07.11-.14.2-.26.15-.14-.05-.29-.12-.28-.31 0-.06.05-.1.1-.07.14.08.32.1.44.23Zm-5.4 6.82s.35.39.34.43c-.02.05-.09.12-.1.09-.09-.16-.38-.1-.38-.35 0-.09.05-.15.14-.17Zm6.94-7.77c-.07-.01-.21 0-.18-.07.07-.16.22-.26.39-.3.06-.02.14.02.12.1-.05.16-.16.26-.33.27Zm1.06 2.63c-.37.05-.42-.24-.57-.39-.02-.02 0-.12.02-.14.08-.06.15.02.17.08.06.19.19.31.38.45Zm.52.73c0 .09-.06.12-.13.11-.14-.02-.22-.1-.23-.24 0-.09.05-.14.14-.12.14.03.17.15.22.25Zm14.23 6.53c-.07.11-.16.17-.26.15-.08-.01-.2-.05-.2-.16 0-.12.11-.14.2-.12.09.02.2.03.26.12Zm-15.35-9.76c-.03.3-.31.21-.46.42.03-.37.19-.47.46-.42Zm-2.55-1.3h.5c-.03.16-.13.24-.3.24-.16 0-.21-.1-.2-.24Zm17.23 2.55c-.19.04-.38.08-.56.12.26-.34.4-.37.56-.12Zm-14.76.51c0 .06-.04.1-.08.08-.12-.06-.28-.07-.33-.23-.01-.05.02-.13.07-.1.13.06.26.12.33.25Zm-7.52 5.68c-.09-.02-.13-.09-.13-.18 0-.12.09-.12.18-.12s.14.05.11.14c-.02.07-.05.16-.16.16Zm15.82-.71c0-.1.09-.08.12-.12.06-.07.1-.19.22-.19.02 0 .05.04.05.06 0 .15-.15.18-.23.26-.04.04-.11.03-.16-.02Zm-9.52-7.91c.13.03.27.03.38.11l-.12.03c-.09.05-.15.19-.26.13-.12-.07.04-.18 0-.28Zm6.11 10.36c-.1 0-.12-.07-.11-.15 0-.07.04-.13.11-.13.11 0 .13.09.13.17 0 .08-.05.11-.13.1Zm-.38-.91c0 .11-.03.16-.08.15-.11-.01-.14-.11-.15-.2 0-.06.04-.09.1-.08.1.02.13.09.13.13Zm-2.42-7.29c.15.08.24.22.32.37-.28.03-.34-.14-.32-.37Zm11.66.57c-.12.08-.25.16-.37.23-.03-.32.15-.31.37-.23Zm4.81 7.28c-.1-.17-.05-.27.05-.35.04-.03.09 0 .1.04.05.14-.08.19-.15.31Zm-5.3-6.97c-.13.1-.25.21-.38.31-.02-.22.07-.29.38-.31Zm2.98-1.02c-.02.1-.1.09-.17.08-.07 0-.13-.03-.11-.11.02-.08.09-.07.15-.07s.12.01.13.1Zm-4.16 2.2c-.02.1-.05.18-.13.25-.08 0-.14-.04-.12-.13.03-.12.14-.12.24-.12ZM23.6 47.1c-.08 0-.12-.03-.11-.09 0-.07.04-.12.11-.12s.11.04.11.11-.07.09-.1.11Zm12.91 2.14c-.02.07-.05.1-.11.08-.08-.02-.11-.09-.11-.17 0-.05.05-.06.09-.06.08.01.12.07.13.14Zm-12.6-2.96c-.06 0-.1-.01-.11-.06-.01-.07.02-.12.08-.14.04-.01.08.01.08.06.01.07 0 .12-.06.14Zm3.01-.26c-.07 0-.07-.06-.07-.11 0-.06.03-.1.09-.1s.09.04.08.1c0 .06-.04.09-.1.11Zm-8.52 4.06c-.06 0-.1-.03-.09-.09 0-.06.06-.08.11-.08.06 0 .11.02.09.09-.01.05-.06.08-.11.08Zm17.09-2.68c.06.03.08.08.09.14-.04.06-.1.09-.15.03-.07-.08 0-.13.07-.17Zm.1-5.87s.08 0 .09.06c.01.06-.02.1-.08.1-.04 0-.08-.03-.08-.07 0-.04.02-.08.07-.09Zm-1.18 5.77s.09 0 .08.06c0 .03-.04.07-.07.08-.04.02-.08 0-.08-.06 0-.04.02-.08.07-.09Zm3.08 2.5s-.04.06-.08.07c-.04.02-.08 0-.08-.06 0-.04.02-.08.07-.08.04 0 .08 0 .09.08Zm-4.23-1.73c-.07 0-.1-.01-.1-.06 0-.04.02-.08.07-.08.04 0 .09 0 .08.06 0 .03-.04.06-.05.09Zm2.99-6.16s-.02.08-.07.08c-.04 0-.09 0-.08-.06 0-.03.04-.07.07-.09.04-.02.08 0 .08.06Zm-20.23 6.03c0 .06-.02.08-.05.07a.202.202 0 0 1-.09-.07c-.02-.04.01-.08.06-.07.03 0 .06.05.07.06Zm6.33-5.87s-.05-.07-.04-.09c.02-.03.05-.07.08-.07.06-.01.07.03.05.07-.02.03-.05.05-.09.09Zm1.81 6.34s.05.07.04.09c-.02.03-.05.07-.08.07-.06.01-.07-.04-.05-.07.02-.03.05-.05.09-.09Zm3.5-2.99c.08.04.11.11.12.19-.09-.03-.25-.02-.12-.19Zm7.39-2.72s.07.05.06.06a.18.18 0 0 1-.06.09c-.04.02-.09 0-.07-.05 0-.03.04-.06.07-.1Zm-.03 5.53s-.08.03-.1.03c-.05-.02-.08-.06-.06-.11 0-.01.06-.02.07-.01.03.02.05.05.08.1Zm-5.13-.5s-.06.04-.08.05c-.04 0-.08-.02-.06-.07 0-.02.05-.03.07-.03.02 0 .04.03.07.05Zm-5.74-.5s-.05.05-.08.05c-.04 0-.08-.02-.07-.07 0-.02.05-.03.07-.03.02 0 .04.03.07.05Zm.26 1.93s.04.08.03.09c-.01.02-.04.03-.07.05 0-.02-.02-.04-.02-.05 0-.02.03-.04.06-.09Zm12.88-8.94c-.05.05-.07.06-.09.08-.02-.02-.05-.04-.04-.05 0-.02.03-.05.05-.06.02 0 .05.02.08.03ZM16.71 48.8s-.04.02-.05.02c-.01 0-.01-.03-.02-.05.02 0 .04-.02.05-.02.01 0 .02.03.02.05Zm20.04.57s.03.01.05.02c0 .02-.01.04-.02.05-.01 0-.03-.01-.05-.02 0-.02.01-.03.02-.05Zm1.6-8.52s.01-.04.02-.05c.01 0 .03.01.05.02 0 .02-.01.04-.02.05-.01 0-.03-.01-.05-.02Zm-15.21-.3s.04.02.05.02c-.01.02-.03.04-.04.06-.02-.01-.06.05-.05-.02 0-.02.02-.05.04-.07Zm3.68 6.73s-.01.04-.02.05c-.01 0-.03-.01-.05-.02 0-.02.01-.04.02-.05.01 0 .03.01.05.02Zm-.85-4.46c.06.02.05.08.07.12-.08-.01-.17-.02-.07-.12Zm11.75 6.97s.01-.04.02-.05c.01 0 .03.01.05.02 0 .02-.01.04-.02.05-.01 0-.03-.01-.05-.02Zm3.19-8.57s.01-.04.02-.05c.01 0 .03.01.05.02 0 .02-.01.04-.02.05-.01 0-.03-.01-.05-.02Z"/><path class="cls-10" d="M14.1 45.68c-.08-.08-.06-.17-.03-.26.06.08.03.17.03.26Z"/><path class="cls-9" d="M25.01 43.15s-.04.02-.05.02c-.01 0-.01-.03-.02-.05.02 0 .04-.02.05-.02.01 0 .02.03.02.05Zm-1.12 5.61s-.01.04-.02.05c-.01 0-.03-.01-.05-.02 0-.02.01-.04.02-.05.01 0 .03.01.05.02Zm-.92-5.32c-.06-.02-.1-.06-.1-.12.07 0 .1.05.1.12Zm.07.12c-.06-.02-.04-.08-.06-.12.05.03.06.07.06.12Zm2.38-1.57.06.08-.06-.08Zm-4.57.01h-.06c.02-.03.04-.02.06 0Zm4.12-.54s.04.04.05.06c-.02-.02-.04-.04-.05-.06Zm10.42 5.83s.04.04.06.07a.435.435 0 0 1-.06-.07Z"/><path class="cls-10" d="M14.08 35.81v-.09c.04.03.04.06 0 .09Z"/><path class="cls-9" d="M28.22 46.29s.06.02.05.06l-.05-.06Zm-6.99-6.94s.05.02.06.05c-.02-.02-.04-.03-.06-.05Zm2.24 5.14s-.02-.02-.04-.03l.02-.02c.01.01.02.03.02.04Z"/><path class="cls-10" d="M16.89 44.69s-.02-.06 0-.09c.03.03.02.06 0 .09Z"/><path class="cls-3" d="M26.27 48.34v.08c-.05-.02-.08-.05 0-.08Z"/><path class="cls-10" d="M16.89 41.96s-.04-.06 0-.08v.08Zm0-.25s-.04-.06 0-.09v.09Zm0 1s-.04-.06 0-.09v.09Zm0 .24s-.04-.06 0-.09v.09Zm0 .25s-.04-.06 0-.09v.09Zm0-1.74s-.04-.06 0-.09v.09Zm0-.25s-.04-.06 0-.09v.09Zm0 2.24s-.04-.06 0-.09v.09Zm0-2.48s-.04-.06 0-.08v.08Zm0-.25s-.04-.06 0-.08v.08Zm0 2.98s-.04-.06 0-.09v.09Zm.01-3.23s-.03-.06 0-.08v.08Zm-.01 3.48s-.04-.06 0-.09v.09Zm0 .25s-.04-.06 0-.09v.09Zm0 .25s-.03-.06 0-.09v.09Zm0-1.99s-.04-.06 0-.09v.09Z"/><path class="cls-3" d="M22.84 48.31c0 .12-.08.16-.18.16-.09 0-.17 0-.17-.12 0-.11.05-.18.16-.19.1 0 .18.03.2.14Zm.13-.71s0 .09-.06.09c-.05 0-.06-.05-.06-.09 0-.04 0-.09.06-.09.05 0 .05.05.06.09Zm-.73.88s.09 0 .08.06c0 .03-.04.07-.07.08-.04.02-.08 0-.08-.06 0-.04.02-.08.07-.09Zm8.38-3.22c.1.16.12.38.39.4-.38.2-.36-.09-.42-.29l.03-.1Zm3.02-4.11-.06.06c0-.04.02-.06.06-.06Zm-3.43 5.57c-.08 0-.13-.04-.1-.11.06-.15.17-.28.32-.34.07-.03.15.08.14.19-.02.22-.21.21-.36.26Zm4.09-5.19c-.05.05-.1.02-.15 0-.1-.05-.27.06-.29-.09-.02-.11.15-.18.24-.2.14-.03.13.15.19.23v.06Zm.97-1.13c-.07.18-.15.28-.29.29-.02 0-.06-.04-.06-.05.04-.15.16-.19.35-.24Zm3.09-.75c0 .08-.06.11-.12.11s-.13 0-.14-.07c-.01-.08.05-.1.12-.1.06 0 .13-.02.15.06Zm-2.29.56c-.06-.13.02-.17.06-.27.08.14.01.19-.06.27Zm3.8-.31s-.07-.03-.07-.05c-.01-.05.03-.07.07-.06.02 0 .05.03.05.05 0 .02-.03.04-.05.06Zm-5.43 1.02s.04.01.05.02c0 .01-.01.03-.02.05-.02 0-.04-.01-.05-.02 0-.01.01-.03.02-.05Zm-17.67 8.96c.17.04.32.03.32.2 0 .05-.07.15-.08.15-.17-.04-.16-.21-.23-.35Z"/><path class="cls-3" d="M16.61 49.65c.2-.02.19.12.19.25-.16 0-.19-.11-.19-.25Zm25.47-1.48c.11.01.2.13.16.15-.2.08-.19.37-.42.4-.06 0-.19 0-.11-.08.12-.13.16-.3.28-.42.03-.03.07-.04.1-.05Zm-1.67.32c.03-.26.18-.34.33-.43.04-.02.09.03.07.06-.08.15-.22.24-.4.36Zm-.61.62s-.04.02-.05.02c-.01 0-.01-.03-.02-.05.02 0 .04-.02.05-.02.01 0 .02.03.02.05Zm-.9.15s-.04-.01-.05-.02c0-.01.01-.03.02-.05.02 0 .04.01.05.02 0 .01-.01.03-.02.05Z"/></g></g></g></svg>