<svg id="Layer_2" data-name="Layer 2" xmlns="http://www.w3.org/2000/svg" viewBox="0 0 84.91 84.91"><defs><style>.cls-2{fill:#2566af}</style></defs><g id="Layer_1-2" data-name="Layer 1"><path d="M42.45 84.91c23.45 0 42.45-19.01 42.45-42.45S65.9 0 42.45 0 0 19.01 0 42.45 19.01 84.9 42.45 84.9" style="fill:#fff"/><path class="cls-2" d="M38.39 54.65h2.03v2.03h-2.03z"/><path class="cls-2" d="M69.89 62.78H58.71v2.03h9.14c.56 0 1.02.46 1.02 1.02s-.46 1.02-1.02 1.02H54.64v2.03h2.42l-.08.16a3.396 3.396 0 0 1-2.82 1.87c-1.21.08-2.36-.5-3.03-1.5l-1.85-2.78a4.057 4.057 0 0 0-3.38-1.81h-1.42V54.66h3.05c.16 0 .31-.03.45-.1 2.53-1.26 5.32-1.93 8.15-1.93h10.7c.56 0 1.02.46 1.02 1.02s-.45 1.02-1.02 1.02H58.7v2.03h9.14c.56 0 1.02.46 1.02 1.02s-.46 1.02-1.02 1.02h-7.11v2.03h9.15c.56 0 1.02.46 1.02 1.02s-.46 1.02-1.02 1.02m3.05-1.02c0-1.37-.93-2.57-2.26-2.93.56-1.36.05-2.93-1.2-3.7.26-.45.4-.97.41-1.5a3.05 3.05 0 0 0-3.05-3.05h-10.7c-3.06 0-6.08.7-8.84 2.03h-2.82v-1.02c0-.56-.45-1.02-1.02-1.02h-7.11v2.03h6.1v14.23h-6.1v2.03h7.11c.56 0 1.02-.45 1.02-1.02v-1.02h1.42c.68 0 1.31.34 1.69.9l1.85 2.78a5.415 5.415 0 0 0 4.85 2.4 5.411 5.411 0 0 0 4.51-2.99l.53-1.07h8.52a3.045 3.045 0 0 0 2.83-4.19 3.058 3.058 0 0 0 2.26-2.93M69.4 33.77l-2.78 1.85A4.057 4.057 0 0 0 64.81 39v1.42H54.65v-3.05c0-.16-.03-.31-.1-.45a18.296 18.296 0 0 1-1.93-8.15v-10.7c0-.56.45-1.02 1.02-1.02s1.02.46 1.02 1.02v8.13h2.03v-9.14c0-.56.46-1.02 1.02-1.02s1.02.45 1.02 1.02v7.11h2.03v-9.14c0-.56.46-1.02 1.02-1.02s1.02.46 1.02 1.02v11.18h2.03v-9.14c0-.56.46-1.02 1.02-1.02s1.02.45 1.02 1.02v13.21h2.03v-2.42l.16.08c1.08.54 1.79 1.61 1.87 2.82.08 1.21-.5 2.36-1.5 3.03m.55-7.67-1.07-.53v-8.52c0-1.01-.5-1.96-1.34-2.53-.84-.57-1.91-.68-2.84-.3-.35-1.33-1.56-2.26-2.93-2.26s-2.58.93-2.93 2.26a3.018 3.018 0 0 0-3.7 1.2c-.45-.26-.97-.4-1.49-.41a3.05 3.05 0 0 0-3.05 3.05v10.7c0 3.06.7 6.08 2.03 8.84v2.82h-1.02c-.56 0-1.02.46-1.02 1.02v7.11h2.03v-6.1h14.22v6.1h2.03v-7.11c0-.56-.45-1.02-1.02-1.02h-1.02v-1.42c0-.68.34-1.31.91-1.69l2.78-1.85a5.415 5.415 0 0 0 2.4-4.85 5.411 5.411 0 0 0-2.99-4.51"/><path class="cls-2" d="M54.65 44.49h2.03v2.03h-2.03zm-39.14 6.65 2.78-1.85a4.057 4.057 0 0 0 1.81-3.38v-1.42h10.16v3.05c0 .16.04.31.11.45 1.26 2.53 1.92 5.33 1.93 8.15v10.7c0 .56-.46 1.02-1.02 1.02s-1.02-.46-1.02-1.02v-8.13h-2.03v9.15c0 .56-.46 1.02-1.02 1.02s-1.02-.45-1.02-1.02v-7.11h-2.03v9.14c0 .56-.46 1.02-1.02 1.02s-1.02-.46-1.02-1.02V58.71h-2.03v9.15c0 .56-.46 1.02-1.02 1.02s-1.02-.45-1.02-1.02V54.65h-2.03v2.42l-.16-.08a3.396 3.396 0 0 1-1.87-2.82c-.07-1.21.5-2.36 1.5-3.03Zm-.54 7.67 1.07.53v8.52c0 1.01.5 1.96 1.34 2.53.84.57 1.91.68 2.84.3a3.029 3.029 0 0 0 5.86 0c1.36.56 2.93.05 3.7-1.2.45.26.97.4 1.5.41a3.05 3.05 0 0 0 3.05-3.05v-10.7c0-3.06-.7-6.08-2.03-8.84v-2.82h1.02c.56 0 1.02-.46 1.02-1.02v-7.11h-2.03v6.1H18.08v-6.1h-2.03v7.11c0 .56.45 1.02 1.02 1.02h1.02v1.42c0 .68-.34 1.31-.91 1.69l-2.78 1.85A5.415 5.415 0 0 0 12 54.3a5.411 5.411 0 0 0 2.99 4.51"/><path class="cls-2" d="M28.23 38.39h2.03v2.03h-2.03zm16.26-10.16h2.03v2.03h-2.03z"/><path class="cls-2" d="M15.02 22.13H26.2V20.1h-9.15c-.56 0-1.02-.46-1.02-1.02s.46-1.02 1.02-1.02h13.21v-2.03h-2.42l.08-.16A3.396 3.396 0 0 1 30.74 14c1.21-.07 2.36.5 3.03 1.5l1.85 2.78A4.057 4.057 0 0 0 39 20.09h1.42v10.16h-3.05c-.16 0-.31.04-.45.11a18.43 18.43 0 0 1-8.15 1.93h-10.7c-.56 0-1.02-.46-1.02-1.02s.46-1.02 1.02-1.02h8.13v-2.03h-9.15c-.56 0-1.02-.46-1.02-1.02s.46-1.02 1.02-1.02h7.11v-2.03h-9.15c-.56 0-1.02-.46-1.02-1.02s.46-1.02 1.02-1.02m-.79 3.95a3.006 3.006 0 0 0 1.2 3.7c-.26.45-.4.97-.41 1.49a3.05 3.05 0 0 0 3.05 3.05h10.7c3.06 0 6.08-.7 8.84-2.03h2.82v1.02c0 .56.45 1.02 1.02 1.02h7.11v-2.03h-6.1V18.05h6.1v-2.03h-7.11c-.56 0-1.02.46-1.02 1.02v1.02H39c-.68 0-1.31-.34-1.69-.9l-1.85-2.78a5.415 5.415 0 0 0-4.85-2.4 5.411 5.411 0 0 0-4.51 2.99l-.53 1.07h-8.52c-1.01 0-1.96.5-2.53 1.34-.57.84-.68 1.91-.3 2.84a3.029 3.029 0 0 0 0 5.86"/></g></svg>