<svg data-name="Layer 2" xmlns="http://www.w3.org/2000/svg" viewBox="0 0 84.91 84.91"><g data-name="Layer 1"><path d="M42.45 84.91c23.45 0 42.45-19.01 42.45-42.45S65.9 0 42.45 0 0 19.01 0 42.45 19.01 84.9 42.45 84.9" style="fill:#fff"/><path d="M57.46 47.39a12.83 12.83 0 0 0-3.32 5.84H43.28V46.7c.69.35 1.46.53 2.25.53 1.5 0 2.91-.66 3.87-1.8a5.102 5.102 0 0 0 1.1-4.16c-.36-2.06-2.06-3.74-4.13-4.08-1.08-.17-2.16 0-3.09.46v-4.2h8.83c.28 0 .55-.14.72-.36.17-.22.24-.52.17-.79a.899.899 0 0 0-.3-.48 3.176 3.176 0 0 1-1.13-2.78c.14-1.47 1.36-2.71 2.83-2.87.93-.11 1.83.18 2.52.8.68.61 1.07 1.48 1.07 2.4s-.42 1.85-1.16 2.47c-.3.25-.41.66-.27 1.02.13.36.48.61.86.61h6.13a20.914 20.914 0 0 1-6.08 13.94m-3.77 9.21v6.33c0 .17-.14.31-.31.31H31.34c-.17 0-.31-.14-.31-.31v-2.82h18.68c.51 0 .92-.41.92-.92s-.41-.92-.92-.92H31.03v-1.85c0-.46-.03-.91-.07-1.35h22.83c-.06.51-.1 1.01-.1 1.53m-6.65 11.76h-9.36c-2 0-3.68-1.41-4.1-3.28h17.56a4.203 4.203 0 0 1-4.1 3.28M27.33 47.31c-3.66-3.75-5.74-8.64-5.97-13.84h8.69a.926.926 0 0 0 .59-1.63 3.185 3.185 0 0 1-1.1-3c.21-1.29 1.29-2.39 2.58-2.62a3.22 3.22 0 0 1 3.81 3.16c0 .95-.42 1.85-1.16 2.47-.3.25-.4.66-.27 1.02s.48.61.87.61h6.08v6.07c0 .25.11.5.3.67.19.17.43.27.7.24.25-.02.48-.14.64-.33.74-.88 1.86-1.29 3-1.1 1.31.21 2.39 1.27 2.62 2.58.17.97-.08 1.92-.7 2.66-1.23 1.46-3.7 1.46-4.93 0a.918.918 0 0 0-1.62.59v8.41H30.65c-.55-2.23-1.67-4.28-3.3-5.94m14.11-35.84v6.02c0 .33.18.63.46.79.28.17.64.16.92 0 .1-.05.18-.12.25-.21.69-.82 1.7-1.23 2.78-1.13 1.47.14 2.71 1.36 2.87 2.83.1.93-.18 1.83-.8 2.52-1.25 1.39-3.66 1.35-4.86-.09a.918.918 0 0 0-1.62.59v8.84h-4.21a5.1 5.1 0 0 0 .53-2.25c0-1.5-.66-2.91-1.81-3.87a5.102 5.102 0 0 0-4.16-1.1c-2.06.36-3.74 2.06-4.08 4.14-.18 1.08 0 2.16.46 3.09h-6.82c.47-10.89 9.2-19.64 20.07-20.16m1.84-.01c10.96.43 19.78 9.22 20.26 20.17h-4.25a5.062 5.062 0 0 0-1.15-6.02 5.107 5.107 0 0 0-3.94-1.26 5.064 5.064 0 0 0-4.46 4.52c-.09.96.09 1.92.51 2.76h-6.96V24.7c1.94.97 4.53.51 6.02-1.15a5.069 5.069 0 0 0 1.26-3.94 5.064 5.064 0 0 0-4.52-4.46c-.96-.1-1.92.09-2.76.51v-4.17Zm-.83-1.88c-12.67 0-22.97 10.3-22.97 22.97 0 6.03 2.32 11.73 6.53 16.04 2.05 2.1 3.18 4.89 3.18 7.85v6.51c0 1.18.96 2.14 2.14 2.14h.4c.45 2.89 2.93 5.12 5.95 5.12h9.36c3.02 0 5.5-2.23 5.95-5.12h.4c1.18 0 2.14-.96 2.14-2.14v-6.33c0-3 1.15-5.81 3.24-7.92a22.821 22.821 0 0 0 6.65-16.16c0-12.66-10.3-22.97-22.97-22.97" style="fill:#2566af"/></g></svg>