<svg xmlns="http://www.w3.org/2000/svg" xmlns:xlink="http://www.w3.org/1999/xlink" viewBox="0 0 1920 21" style="enable-background:new 0 0 1920 21" xml:space="preserve"><defs><path id="a" d="M0 0h1920v21H0z"/></defs><clipPath id="b"><use xlink:href="#a" style="overflow:visible"/></clipPath><g style="clip-path:url(#b)"><linearGradient id="c" gradientUnits="userSpaceOnUse" x1="1" y1="-1092.768" x2="2.5" y2="-1092.768" gradientTransform="matrix(1285.5601 0 0 -1285.5601 -1282.78 -1404808.875)"><stop offset="0" style="stop-color:#00acec"/><stop offset=".37" style="stop-color:#4087c7"/><stop offset=".79" style="stop-color:#2d549d"/><stop offset=".99" style="stop-color:#1d386d"/><stop offset="1" style="stop-color:#1d386d"/></linearGradient><path style="fill:url(#c)" d="M0 0h1920v21H0z"/><path d="m1640.5 400.5 163.5-42.3c23.5-4.8 37.1-25.4 29.4-48 0 0-67.1-287.7-232.5-550.6-29.9-47.5-116.8-169.6-138.1-189.9-15.2-14.4-108.4-55.7-123.9-59.7-9.5-3.4-21.7-5.3-31.8 2.7-.5.4-1 .9-1.4 1.4l-.6.6c-.3.3-.6.6-.8 1l-.6.9c-.1.2-.4.5-.6.9-.3.4-.5.8-.7 1.2-.1.3-.3.5-.5.8-.2.5-.5 1-.7 1.5-.1.2-.2.5-.3.6-.3.6-.6 1.2-.8 1.7l-.2.5c-.2.6-.5 1.3-.7 2l-.2.3c-.3.8-.5 1.6-.8 2.3l-.1.1c-1.9 6.6-2.6 13.7-1.3 19.4v.4l.1.1c.2 5.2 51.5 85.2 112.8 223.1 107.6 242.2 176.8 597.9 176.8 597.9 6.7 22.5 29.2 35.8 54 31.1" style="fill:#005ca8"/><path d="M1132.7 504.7c5.4-.3 157.8-33.5 157.8-33.5 5-.5 9.5-1.8 13.7-3.8 16.1-6.8 29.3-22.4 34.1-42.2 0 0 68.9-346.9 103.9-575.1-10.3-27.1-21.1-53.6-32.3-78.8-61.3-137.9-112.7-217.9-112.8-223.1l-.1-.1c-.1-.1 0-.3 0-.4-1.2-5.3-.6-11.9 1.1-18.1-.8 1-1.6 2.1-2 3.6-3.5 12.5-97.4 477.1-97.4 477.1v-.2L1089 443.4c-16.2 65.5 26.5 62 43.7 61.3" style="fill:#009ee3"/><path d="M864.2 419.1s-51.5-65.5-69.5-89.8C636.9 115.9 547-253.1 547-253.1c-9.5-20.4-34.7-31.4-57.3-21.4L332-201.8c-23.6 10.6-29.4 34-24.1 51.8C327.8-85.5 511 226.1 671.2 342.4l137.9 74.3 36 19.4c18.5 11.1 29.6-.1 19.1-17" style="fill:#006936"/><path d="m672.1-520.9-96.7 464c52.8 203.2 114.2 441 130.5 509.7-.5-7.8.5-17.4 3.4-29.4L819-9.9v.2s.5-2.7 1.5-7.3L681.4-519.7c-1.7-7.8-5.4-13.6-10.2-17.4 1.6 4 2.1 9.3.9 16.2" style="fill:#c7d41f"/><path d="M782.9 335.5c18 24.3 69.5 89.8 69.5 89.8 2.5 4 3.7 7.6 3.9 10.7.1-.7.2-1.2.4-2l194.8-934.9c3.9-23-9.1-30.9-28.9-17.6l-160.9 92.1c-27 17.8-37.5 27.6-47.4 66L677.4 154c30.7 64.8 66 128.1 105.5 181.5M639.2 333c2.3 2.2 4.8 4.2 7.4 6-2.5-2-4.9-4-7.4-6" style="fill:#00993d"/></g></svg>