<?xml version="1.0" encoding="UTF-8"?>
<svg id="Layer_2" data-name="Layer 2" xmlns="http://www.w3.org/2000/svg" viewBox="0 0 102.24 100.15">
  <defs>
    <style>
      .cls-1 {
        fill: #1e6f41;
      }
    </style>
  </defs>
  <g id="Layer_1-2" data-name="Layer 1">
    <g>
      <path class="cls-1" d="m59.07,74.16v-2.37c0-.39.25-.75.7-.95l.04-.02c.42-.18.86-.1,1.15.18l1.7,1.69c2,1.99,5.27,1.99,7.27,0l3.97-3.94c2.01-1.99,2.01-5.23,0-7.22l-1.7-1.69c-.29-.29-.36-.72-.17-1.18.17-.42.55-.69.96-.69h2.39c2.84,0,5.15-2.29,5.15-5.11v-5.57c0-2.81-2.31-5.1-5.15-5.1h-2.39c-.41,0-.79-.27-.98-.73-.17-.41-.1-.86.18-1.14l1.7-1.69c2.01-1.99,2.01-5.23,0-7.22l-3.97-3.94c-1.94-1.93-5.33-1.93-7.27,0l-1.7,1.69c-.28.28-.73.35-1.19.17-.42-.17-.7-.55-.7-.95v-2.38c0-2.82-2.31-5.11-5.14-5.11h-5.62c-2.83,0-5.14,2.29-5.14,5.11v2.38c0,.41-.27.78-.74.97-.41.17-.87.1-1.15-.18l-1.7-1.69c-1.94-1.93-5.33-1.93-7.27,0l-3.97,3.94c-2,1.99-2,5.23,0,7.22l1.7,1.69c.28.28.36.73.17,1.18-.18.42-.55.69-.96.69h-2.39c-2.84,0-5.15,2.29-5.15,5.1v5.57c0,2.81,2.31,5.11,5.15,5.11h2.39c.41,0,.79.27.98.73.17.41.1.86-.19,1.14l-1.7,1.69c-2,1.99-2,5.23,0,7.22l3.97,3.94c2,1.99,5.27,1.99,7.27,0l1.7-1.69c.28-.28.73-.35,1.19-.17.42.18.69.55.69.95v2.37c0,2.81,2.31,5.11,5.14,5.11h5.61c2.84,0,5.14-2.29,5.15-5.11Zm-4.12-2.37v2.37c0,.56-.46,1.01-1.02,1.01h-5.61c-.56,0-1.02-.45-1.02-1.01v-2.37c0-2.07-1.28-3.93-3.29-4.75-.66-.27-1.35-.4-2.03-.4-1.33,0-2.64.51-3.6,1.47l-1.7,1.69c-.4.4-1.05.4-1.44,0l-3.97-3.94c-.4-.39-.4-1.04,0-1.43l1.7-1.69c1.46-1.46,1.89-3.65,1.07-5.63-.81-1.96-2.69-3.23-4.77-3.23h-2.39c-.56,0-1.02-.46-1.02-1.01v-5.57c0-.56.46-1.01,1.02-1.01h2.39c2.09,0,3.96-1.27,4.79-3.26.81-1.94.38-4.14-1.08-5.59l-1.7-1.69c-.4-.4-.4-1.04,0-1.44l3.97-3.94c.26-.26.56-.3.72-.3s.46.04.72.3l1.7,1.69c1.46,1.46,3.68,1.87,5.67,1.06,1.98-.81,3.25-2.66,3.25-4.74v-2.38c0-.56.46-1.01,1.02-1.01h5.62c.56,0,1.02.46,1.02,1.01v2.38c0,2.07,1.28,3.93,3.29,4.75,1.96.8,4.17.38,5.64-1.07l1.7-1.69c.26-.26.57-.3.72-.3s.46.04.72.3l3.97,3.94c.4.4.4,1.04,0,1.44l-1.7,1.69c-1.47,1.45-1.89,3.65-1.06,5.63.81,1.96,2.68,3.23,4.77,3.23h2.39c.56,0,1.02.46,1.02,1.01v5.57c0,.56-.46,1.01-1.02,1.01h-2.39c-2.09,0-3.96,1.27-4.75,3.18l-.08.2c-.74,1.91-.31,4.05,1.13,5.47l1.7,1.69c.4.4.4,1.04,0,1.43l-3.97,3.94c-.4.4-1.05.4-1.45,0l-1.7-1.69c-1.44-1.44-3.61-1.86-5.55-1.1l-.12.05c-1.97.81-3.25,2.66-3.25,4.74Z"/>
      <path class="cls-1" d="m62.58,50.07c0-6.27-5.14-11.37-11.46-11.37s-11.46,5.1-11.46,11.37,5.14,11.37,11.46,11.37,11.46-5.1,11.46-11.37Zm-11.46,7.28c-4.04,0-7.34-3.27-7.34-7.28s3.29-7.28,7.34-7.28,7.34,3.27,7.34,7.28-3.29,7.28-7.34,7.28Z"/>
      <path class="cls-1" d="m7.69,44.94c.1.02.2.02.3.02,1.01,0,1.89-.73,2.04-1.75,2.32-15.89,13.93-29.05,29.3-33.58l-1.59,4.35c-.39,1.06.17,2.23,1.24,2.62.23.08.47.12.7.12.84,0,1.64-.51,1.94-1.35l3.37-9.23c.19-.51.16-1.07-.07-1.56-.23-.49-.65-.87-1.17-1.06L34.27.12c-1.07-.38-2.25.16-2.64,1.23-.39,1.06.17,2.23,1.24,2.62l5.03,1.81C21.13,10.82,8.48,25.23,5.94,42.62c-.16,1.12.62,2.15,1.74,2.32Z"/>
      <path class="cls-1" d="m42.19,89.44c-15.83-3.45-28.1-15.76-31.59-31.23l4.17,3.01c.92.66,2.21.46,2.88-.45.67-.92.46-2.19-.46-2.86l-8-5.77c-.92-.67-2.21-.46-2.88.45L.39,60.67c-.67.92-.47,2.19.45,2.86.37.27.79.39,1.21.39.64,0,1.26-.29,1.67-.84l2.87-3.91c3.86,16.98,17.33,30.48,34.71,34.27.15.03.3.05.44.05.95,0,1.8-.65,2.01-1.6.25-1.1-.46-2.2-1.57-2.44Z"/>
      <path class="cls-1" d="m94.68,52.54c-1.14-.14-2.16.66-2.3,1.78-2.07,16.45-14.19,30.15-30.07,34.56l2.88-3.41c.73-.86.62-2.16-.26-2.88-.87-.72-2.17-.61-2.9.25l-6.36,7.52c-.35.42-.52.95-.47,1.49.05.54.31,1.04.73,1.39l7.72,6.42c.39.32.86.48,1.32.48.59,0,1.17-.25,1.59-.73.73-.86.61-2.16-.26-2.88l-4.08-3.4c18.05-4.49,31.93-19.82,34.26-38.31.14-1.12-.66-2.14-1.79-2.28Z"/>
      <path class="cls-1" d="m101.2,33.41c-.99-.56-2.25-.22-2.81.76l-2.74,4.76c-4.08-17.63-18.35-31.24-36.55-34.42-1.12-.2-2.19.55-2.39,1.66-.19,1.11.56,2.17,1.68,2.37,16.42,2.86,29.32,15.07,33.15,30.91l-3.92-2.22c-.99-.56-2.25-.22-2.81.76-.57.98-.22,2.23.77,2.79l8.59,4.86c.32.18.67.27,1.02.27.72,0,1.41-.37,1.79-1.03l4.99-8.69c.57-.98.22-2.23-.77-2.79Z"/>
    </g>
  </g>
</svg>