<?xml version="1.0" encoding="UTF-8"?>
<svg id="Layer_2" data-name="Layer 2" xmlns="http://www.w3.org/2000/svg" viewBox="0 0 100.53 100.15">
  <defs>
    <style>
      .cls-1 {
        fill: #fff;
      }
    </style>
  </defs>
  <g id="Layer_1-2" data-name="Layer 1">
    <g>
      <path class="cls-1" d="m27.77,23.86c1.62,0,2.97-1.32,2.97-2.97v-8.85c0-1.62-1.33-2.96-2.97-2.96h-8.85c-1.62,0-2.97,1.32-2.97,2.96v8.85c0,1.62,1.33,2.97,2.97,2.97h8.85Zm-9.05-2.97v-8.85c0-.11.09-.2.21-.2h8.85c.11,0,.21.09.21.2v8.85c0,.11-.09.21-.21.21h-8.85c-.11,0-.21-.1-.21-.21Z"/>
      <path class="cls-1" d="m39.21,14.86h20.47c.76,0,1.39-.61,1.39-1.39s-.62-1.39-1.39-1.39h-20.47c-.76,0-1.39.61-1.39,1.39s.63,1.39,1.39,1.39Z"/>
      <path class="cls-1" d="m68.29,19.48c0-.76-.61-1.39-1.39-1.39h-27.7c-.76,0-1.39.61-1.39,1.39s.61,1.39,1.39,1.39h27.7c.77-.02,1.39-.63,1.39-1.39Z"/>
      <path class="cls-1" d="m15.96,40.25c0,1.62,1.33,2.96,2.97,2.96h8.85c1.62,0,2.97-1.32,2.97-2.96v-8.85c0-1.62-1.33-2.97-2.97-2.97h-8.85c-1.62,0-2.97,1.33-2.97,2.97v8.85Zm2.76-8.85c0-.11.09-.2.21-.2h8.85c.11,0,.21.09.21.2v8.85c0,.11-.09.2-.21.2h-8.85c-.11,0-.21-.09-.21-.2v-8.85Z"/>
      <path class="cls-1" d="m61.07,32.82c0-.76-.61-1.39-1.39-1.39h-20.47c-.76,0-1.39.61-1.39,1.39s.62,1.39,1.39,1.39h20.47c.77,0,1.39-.61,1.39-1.39Z"/>
      <path class="cls-1" d="m39.21,37.44c-.76,0-1.39.61-1.39,1.39s.61,1.39,1.39,1.39h16.32c.76,0,1.39-.61,1.39-1.39s-.62-1.39-1.39-1.39h-16.32Z"/>
      <path class="cls-1" d="m15.96,59.6c0,1.62,1.33,2.97,2.97,2.97h8.85c1.62,0,2.97-1.32,2.97-2.97v-8.85c0-1.62-1.33-2.97-2.97-2.97h-8.85c-1.62,0-2.97,1.32-2.97,2.97v8.85Zm2.76-8.85c0-.11.09-.21.21-.21h8.85c.11,0,.21.09.21.21v8.85c0,.11-.09.21-.21.21h-8.85c-.11,0-.21-.09-.21-.21v-8.85Z"/>
      <path class="cls-1" d="m18.94,81.93h8.85c1.62,0,2.96-1.32,2.96-2.96v-8.86c-.02-1.62-1.34-2.95-2.96-2.95h-8.85c-1.62,0-2.97,1.32-2.97,2.96v8.85c0,1.62,1.33,2.96,2.97,2.96Zm-.22-11.83c0-.11.1-.21.21-.21h8.85c.11,0,.2.09.2.21v8.85c0,.11-.09.21-.2.21h-8.85c-.11,0-.21-.09-.21-.21v-8.85Z"/>
      <path class="cls-1" d="m76.48,53.15c-3.06-3.06-7.13-4.75-11.47-4.75s-8.41,1.69-11.47,4.75c-6.33,6.32-6.33,16.61,0,22.93,3.06,3.06,7.13,4.75,11.47,4.75s8.41-1.69,11.47-4.75c6.33-6.32,6.33-16.61,0-22.93Zm-1.96,20.98c-2.54,2.54-5.91,3.94-9.51,3.94s-6.97-1.4-9.51-3.94c-5.25-5.25-5.25-13.78,0-19.04,2.54-2.54,5.92-3.94,9.51-3.94s6.97,1.4,9.51,3.94c5.25,5.25,5.25,13.78,0,19.04Z"/>
      <path class="cls-1" d="m98.97,91l-10.2-10.2.09-.09c.95-.95,1.37-2.3,1.12-3.63-.25-1.32-1.15-2.43-2.38-2.95l-1.83-.77c3.44-8.19,1.83-18.01-4.83-24.67-8.79-8.78-23.08-8.78-31.86,0-8.79,8.78-8.79,23.07,0,31.86,4.38,4.38,10.16,6.59,15.93,6.59,2.98,0,5.95-.6,8.74-1.77l.77,1.83c.52,1.25,1.62,2.13,2.95,2.38.25.05.52.08.77.08,1.06,0,2.1-.43,2.85-1.18l.09-.09,10.2,10.2c1.04,1.04,2.41,1.56,3.79,1.56s2.74-.52,3.79-1.56c2.08-2.1,2.08-5.5,0-7.59Zm-47.93-12.41c-7.71-7.71-7.71-20.25,0-27.95,3.85-3.85,8.91-5.77,13.97-5.77s10.13,1.92,13.97,5.77c7.71,7.71,7.71,20.25,0,27.95-7.7,7.71-20.23,7.71-27.95,0Zm29.19,6.86l-1.07,1.07c-.3.3-.72.43-1.15.35-.43-.08-.77-.36-.95-.76l-.85-1.99c1.69-.96,3.28-2.15,4.72-3.58,1.44-1.44,2.62-3.03,3.58-4.72l1.99.85c.4.17.68.51.76.95.08.43-.05.85-.35,1.15l-1.07,1.07-5.6,5.6Zm16.78,11.17c-1.01,1.01-2.65,1.01-3.66,0l-10.2-10.2,3.66-3.66,10.2,10.2c1.01,1.01,1.01,2.65,0,3.66Z"/>
      <path class="cls-1" d="m71.86,91.07H13.99c-2.71,0-4.94-2.21-4.94-4.94V7.7c0-2.71,2.21-4.94,4.94-4.94h56.29c2.71,0,4.94,2.21,4.94,4.94v32.03c0,.76.62,1.39,1.39,1.39s1.39-.61,1.39-1.39V7.7c0-4.24-3.45-7.7-7.7-7.7H13.99c-3.82,0-6.96,2.79-7.56,6.43-3.64.61-6.44,3.77-6.44,7.59v78.43c0,4.24,3.45,7.7,7.7,7.7h56.29c3.77,0,6.89-2.73,7.56-6.31h.35c.76,0,1.39-.61,1.39-1.39s-.65-1.39-1.42-1.39Zm-7.89,6.31H7.68c-2.71,0-4.94-2.21-4.94-4.94V14.02c0-2.24,1.52-4.12,3.55-4.72v76.82c0,4.24,3.45,7.7,7.7,7.7h54.68c-.6,2.05-2.46,3.55-4.7,3.55Z"/>
      <path class="cls-1" d="m70.64,58.89l-8.52,8.52-2.73-2.73c-.54-.54-1.42-.54-1.96,0-.54.54-.54,1.42,0,1.96l3.71,3.71c.27.27.62.41.98.41s.71-.14.98-.41l9.5-9.49c.54-.54.54-1.42,0-1.96-.54-.54-1.42-.54-1.96,0Z"/>
    </g>
  </g>
</svg>