<?xml version="1.0" encoding="UTF-8"?>
<svg id="Layer_2" data-name="Layer 2" xmlns="http://www.w3.org/2000/svg" viewBox="0 0 84.91 84.91">
  <defs>
    <style>
      .cls-1 {
        fill: #fff;
      }

      .cls-2 {
        fill: #43a756;
      }
    </style>
  </defs>
  <g id="Layer_1-2" data-name="Layer 1">
    <g>
      <path class="cls-1" d="m42.45,84.91c23.45,0,42.45-19.01,42.45-42.45S65.9,0,42.45,0,0,19.01,0,42.45s19.01,42.45,42.45,42.45"/>
      <g>
        <path class="cls-2" d="m66.45,15.33h-4c-1.72,0-3.12,1.4-3.12,3.12v42c0,.14.03.28.08.4v.03s4.04,8.08,4.04,8.08c.19.38.58.62,1.01.62s.81-.24,1.01-.62l4.04-8.08v-.02c.05-.13.08-.26.08-.4V18.45c0-1.72-1.4-3.12-3.12-3.12Zm.18,46.25l-2.18,4.36-2.18-4.36h4.36Zm-3.3-38v35.75h-1.75V23.58h1.75Zm4,0v35.75h-1.75V23.58h1.75Zm-4.88-6h4c.48,0,.88.39.88.88v2.88h-5.75v-2.88c0-.48.39-.88.88-.88Z"/>
        <path class="cls-2" d="m55.53,26.16c-.06-.21-.15-.37-.28-.5l-10-10c-.09-.09-.2-.17-.33-.22l-.11-.04c-.09-.03-.17-.05-.2-.05,0,0,0,0-.01,0l-.08-.02h-28.06c-.62,0-1.12.5-1.12,1.12v52c0,.62.5,1.12,1.12,1.12h38c.62,0,1.12-.5,1.12-1.12V26.38s-.05-.21-.05-.21Zm-9.95-.83v-6.16l6.16,6.16h-6.16Zm-1.12,2.25h8.88v39.75H17.58V17.58h25.75v8.88c0,.62.5,1.12,1.12,1.12Z"/>
        <path class="cls-2" d="m42.53,30.76l-2.16,1.29-1.06-.44-.61-2.44c-.12-.5-.57-.85-1.09-.85h-4.33c-.52,0-.97.35-1.09.85l-.61,2.44-1.06.44-2.16-1.29c-.18-.1-.38-.16-.58-.16-.3,0-.58.12-.8.33l-3.06,3.07c-.37.37-.44.93-.17,1.37l1.29,2.16-.44,1.06-2.44.61c-.5.12-.85.57-.85,1.09v4.33c0,.52.35.97.85,1.09l2.44.61.44,1.06-1.29,2.15c-.27.44-.2,1.01.17,1.38l3.06,3.07c.21.21.5.33.8.33.2,0,.4-.05.58-.16l2.16-1.29,1.06.44.61,2.44c.12.5.57.85,1.09.85h4.33c.52,0,.97-.35,1.09-.85l.61-2.44,1.06-.44,2.16,1.29c.17.1.37.16.58.16.3,0,.58-.12.8-.33l3.06-3.07c.37-.37.44-.93.17-1.37l-1.29-2.16.44-1.06,2.44-.61c.5-.12.85-.57.85-1.09v-4.33c0-.52-.35-.97-.85-1.09l-2.44-.61-.44-1.06,1.29-2.16c.27-.44.2-1.01-.17-1.37l-3.06-3.06c-.21-.21-.5-.33-.8-.33-.2,0-.4.05-.58.16Zm1.09,6.09c-.18.3-.21.68-.07,1.01l.87,2.1c.14.33.42.58.77.66l2.14.53v2.58l-2.13.53c-.35.08-.64.33-.77.66l-.87,2.11c-.14.33-.11.7.07,1.01l1.13,1.89-1.82,1.82-1.89-1.13c-.18-.11-.38-.16-.58-.16-.15,0-.3.03-.43.09l-2.1.87c-.33.13-.58.42-.66.77l-.53,2.14h-2.58l-.53-2.14c-.09-.34-.33-.63-.66-.77l-2.1-.87c-.14-.06-.28-.09-.43-.09-.2,0-.4.06-.58.16l-1.89,1.13-1.82-1.82,1.13-1.89c.18-.3.21-.68.08-1.01l-.87-2.1c-.14-.33-.42-.58-.77-.66l-2.14-.53v-2.58l2.13-.53c.34-.08.63-.33.77-.66l.87-2.11c.14-.33.11-.71-.08-1.01l-1.13-1.89,1.82-1.82,1.89,1.13c.18.1.38.16.58.16.15,0,.29-.03.43-.08l2.1-.87c.33-.14.58-.42.66-.77l.53-2.14h2.58l.53,2.14c.09.34.33.63.66.77l2.1.87c.14.06.28.08.43.08.2,0,.4-.05.58-.16l1.89-1.13,1.82,1.82-1.13,1.89Z"/>
        <path class="cls-2" d="m35.45,37.33c-2.83,0-5.12,2.3-5.12,5.12s2.3,5.12,5.12,5.12,5.12-2.3,5.12-5.12-2.3-5.12-5.12-5.12Zm0,8c-1.59,0-2.88-1.29-2.88-2.88s1.29-2.88,2.88-2.88,2.88,1.29,2.88,2.88-1.29,2.88-2.88,2.88Z"/>
      </g>
    </g>
  </g>
</svg>