<?xml version="1.0" encoding="UTF-8"?>
<svg id="Layer_2" data-name="Layer 2" xmlns="http://www.w3.org/2000/svg" viewBox="0 0 99.58 99.58">
  <defs>
    <style>
      .cls-1 {
        fill: #1e6f41;
      }
    </style>
  </defs>
  <g id="Layer_1-2" data-name="Layer 1">
    <g>
      <path class="cls-1" d="m77.7,33.49c-3.37,0-6.2,2.4-6.85,5.58H16.3c-.78,0-1.41.63-1.41,1.41s.63,1.41,1.41,1.41h54.55c.66,3.18,3.48,5.58,6.85,5.58,3.86,0,7-3.14,7-7s-3.14-7-7-7Zm4.17,7c0,2.3-1.87,4.17-4.17,4.17s-4.17-1.87-4.17-4.17,1.87-4.17,4.17-4.17,4.17,1.87,4.17,4.17Z"/>
      <path class="cls-1" d="m16.3,23.29h22.92c.66,3.18,3.48,5.58,6.85,5.58s6.2-2.4,6.85-5.58h30.36c.78,0,1.41-.63,1.41-1.41s-.63-1.41-1.41-1.41h-30.36c-.66-3.18-3.48-5.58-6.85-5.58s-6.2,2.4-6.85,5.58h-22.92c-.78,0-1.41.63-1.41,1.41s.63,1.41,1.41,1.41Zm25.6-1.41c0-2.3,1.87-4.17,4.17-4.17s4.17,1.87,4.17,4.17-1.87,4.17-4.17,4.17-4.17-1.87-4.17-4.17Z"/>
      <path class="cls-1" d="m16.3,60.51h35.94c.66,3.18,3.48,5.58,6.85,5.58s6.2-2.4,6.85-5.58h17.34c.78,0,1.41-.63,1.41-1.41s-.63-1.41-1.41-1.41h-17.34c-.66-3.18-3.48-5.58-6.85-5.58s-6.2,2.4-6.85,5.58H16.3c-.78,0-1.41.63-1.41,1.41s.63,1.41,1.41,1.41Zm38.63-1.41c0-2.3,1.87-4.17,4.17-4.17s4.17,1.87,4.17,4.17-1.87,4.17-4.17,4.17-4.17-1.87-4.17-4.17Z"/>
      <path class="cls-1" d="m83.28,76.29h-43.39c-.66-3.18-3.48-5.58-6.85-5.58s-6.2,2.4-6.85,5.58h-9.89c-.78,0-1.41.63-1.41,1.41s.63,1.41,1.41,1.41h9.89c.66,3.18,3.48,5.58,6.85,5.58s6.2-2.4,6.85-5.58h43.39c.78,0,1.41-.63,1.41-1.41s-.63-1.41-1.41-1.41Zm-46.07,1.41c0,2.3-1.87,4.17-4.17,4.17s-4.17-1.87-4.17-4.17,1.87-4.17,4.17-4.17,4.17,1.87,4.17,4.17Z"/>
      <path class="cls-1" d="m94.45,0H5.13C2.3,0,0,2.3,0,5.13v89.31c0,2.83,2.3,5.13,5.13,5.13h89.31c2.83,0,5.13-2.3,5.13-5.13V5.13c0-2.83-2.3-5.13-5.13-5.13ZM2.83,5.13c0-1.27,1.04-2.31,2.31-2.31h89.31c1.27,0,2.31,1.04,2.31,2.31v89.31c0,1.27-1.04,2.31-2.31,2.31H5.13c-1.27,0-2.31-1.04-2.31-2.31V5.13Z"/>
    </g>
  </g>
</svg>