<?xml version="1.0" encoding="UTF-8"?>
<svg id="Layer_2" data-name="Layer 2" xmlns="http://www.w3.org/2000/svg" viewBox="0 0 100.87 99.83">
  <defs>
    <style>
      .cls-1 {
        fill: #b7d831;
      }
    </style>
  </defs>
  <g id="Layer_1-2" data-name="Layer 1">
    <g>
      <path class="cls-1" d="m61.29,60.48h-22.18c-.85,0-1.54.69-1.54,1.54s.69,1.53,1.54,1.53h22.18c.85,0,1.54-.68,1.54-1.53s-.69-1.54-1.54-1.54Z"/>
      <path class="cls-1" d="m66.41,55.37c-.85,0-1.54.69-1.54,1.54v10.24c0,.85.69,1.54,1.54,1.54s1.54-.69,1.54-1.54v-10.24c0-.85-.69-1.54-1.54-1.54Z"/>
      <path class="cls-1" d="m86.55,35.91c-.85,0-1.54.69-1.54,1.54s.69,1.53,1.54,1.53c6.03,0,11.08,4.68,11.25,10.42.09,2.94-.99,5.71-3.03,7.82-2.04,2.1-4.78,3.26-7.72,3.26h-15.52c-.85,0-1.54.69-1.54,1.54s.69,1.54,1.54,1.54h15.52c3.77,0,7.3-1.49,9.92-4.2,2.63-2.71,4.01-6.28,3.9-10.05-.22-7.38-6.64-13.4-14.32-13.4Z"/>
      <path class="cls-1" d="m32.45,56.9v10.24c0,.85.69,1.54,1.54,1.54s1.54-.69,1.54-1.54v-10.24c0-.85-.69-1.54-1.54-1.54s-1.54.69-1.54,1.54Z"/>
      <path class="cls-1" d="m44.05,85.06H13.82c-2.93,0-5.67-1.16-7.72-3.26-2.04-2.11-3.12-4.89-3.03-7.82.17-5.74,5.22-10.42,11.26-10.42h14.53c.85,0,1.54-.68,1.54-1.53s-.69-1.54-1.54-1.54h-14.53C6.66,60.48.23,66.49,0,73.88c-.11,3.78,1.27,7.34,3.89,10.05,2.63,2.71,6.15,4.2,9.92,4.2h30.23c2.54,0,4.61,2.07,4.61,4.61v5.56c0,.85.69,1.54,1.54,1.54s1.53-.69,1.53-1.54v-5.56c0-4.24-3.44-7.68-7.68-7.68Z"/>
      <path class="cls-1" d="m65.38,37.45c0-.84-.67-1.54-1.53-1.54s-1.54.69-1.54,1.54.7,1.54,1.54,1.54,1.53-.69,1.53-1.54Z"/>
      <path class="cls-1" d="m80.88,38.98c.84,0,1.54-.69,1.54-1.54s-.7-1.53-1.54-1.53-1.54.69-1.54,1.53.68,1.54,1.54,1.54Z"/>
      <path class="cls-1" d="m75.21,38.98c.84,0,1.51-.69,1.51-1.54s-.67-1.53-1.51-1.53-1.54.69-1.54,1.53.68,1.54,1.54,1.54Z"/>
      <path class="cls-1" d="m71.05,37.45c0-.84-.67-1.54-1.53-1.54s-1.52.69-1.52,1.54.68,1.54,1.52,1.54,1.53-.69,1.53-1.54Z"/>
      <path class="cls-1" d="m7.17,74.31c0,3.67,2.98,6.65,6.66,6.65s6.66-2.98,6.66-6.65-2.99-6.65-6.66-6.65-6.66,2.98-6.66,6.65Zm10.24,0c0,1.97-1.61,3.58-3.58,3.58s-3.58-1.61-3.58-3.58,1.61-3.58,3.58-3.58,3.58,1.61,3.58,3.58Z"/>
      <path class="cls-1" d="m34.8,38.98h23.38c.85,0,1.54-.69,1.54-1.54s-.69-1.53-1.54-1.53h-23.38c-6.03,0-11.08-4.68-11.25-10.42-.09-2.94.99-5.71,3.03-7.82,2.04-2.1,4.78-3.27,7.71-3.27h9.76c4.08,0,7.39-3.21,7.62-7.24h2.63s-4.12-7.17-4.12-7.17l-4.15,7.15h2.57c-.22,2.34-2.16,4.18-4.55,4.18h-9.77c-3.77,0-7.29,1.49-9.91,4.2-2.63,2.71-4.01,6.27-3.9,10.05.22,7.39,6.65,13.4,14.32,13.4Z"/>
      <path class="cls-1" d="m28.15,25.16c0,3.67,2.99,6.65,6.66,6.65s6.65-2.98,6.65-6.65-2.99-6.66-6.65-6.66-6.66,2.99-6.66,6.66Zm10.24,0c0,1.97-1.61,3.58-3.58,3.58s-3.58-1.61-3.58-3.58,1.61-3.58,3.58-3.58,3.58,1.6,3.58,3.58Z"/>
      <path class="cls-1" d="m82.35,47.2l2.53,2.54-2.53,2.53c-.6.6-.6,1.57,0,2.17.3.3.69.45,1.09.45s.79-.15,1.08-.45l2.53-2.53,2.53,2.53c.3.3.69.45,1.09.45s.79-.15,1.09-.45c.6-.6.6-1.57,0-2.17l-2.53-2.53,2.53-2.54c.6-.6.6-1.57,0-2.17-.6-.6-1.57-.6-2.17,0l-2.53,2.53-2.53-2.53c-.6-.6-1.57-.6-2.17,0-.6.6-.6,1.57,0,2.17Z"/>
      <path class="cls-1" d="m54.89,45.03c-.6-.6-1.57-.6-2.17,0l-2.53,2.53-2.53-2.53c-.6-.6-1.57-.6-2.17,0s-.6,1.57,0,2.17l2.53,2.54-2.53,2.53c-.6.6-.6,1.57,0,2.17.3.3.69.45,1.09.45s.79-.15,1.09-.45l2.53-2.53,2.53,2.53c.3.3.69.45,1.09.45s.79-.15,1.09-.45c.6-.6.6-1.57,0-2.17l-2.53-2.53,2.53-2.54c.6-.6.6-1.57,0-2.17Z"/>
    </g>
  </g>
</svg>