<?xml version="1.0" encoding="UTF-8"?>
<svg id="Layer_2" data-name="Layer 2" xmlns="http://www.w3.org/2000/svg" viewBox="0 0 100.33 100.33">
  <defs>
    <style>
      .cls-1 {
        fill: #b7d831;
      }
    </style>
  </defs>
  <g id="Layer_1-2" data-name="Layer 1">
    <g>
      <path class="cls-1" d="m61.36,39.17h-22.38c-6.06,0-10.99,4.93-10.99,10.99s4.93,10.99,10.99,10.99h22.38c6.06,0,10.99-4.93,10.99-10.99s-4.93-10.99-10.99-10.99Zm7.66,10.99c0,4.22-3.44,7.66-7.66,7.66h-22.38c-4.22,0-7.66-3.44-7.66-7.66s3.44-7.66,7.66-7.66h22.38c4.22,0,7.66,3.44,7.66,7.66Z"/>
      <path class="cls-1" d="m61.36,78.35h-22.38c-6.06,0-10.99,4.93-10.99,10.99s4.93,10.99,10.99,10.99h22.38c6.06,0,10.99-4.93,10.99-10.99s-4.93-10.99-10.99-10.99Zm7.66,10.99c0,4.22-3.44,7.66-7.66,7.66h-22.38c-4.22,0-7.66-3.44-7.66-7.66s3.44-7.66,7.66-7.66h22.38c4.22,0,7.66,3.44,7.66,7.66Z"/>
      <path class="cls-1" d="m61.36,0h-22.38c-6.06,0-10.99,4.93-10.99,10.99s4.93,10.99,10.99,10.99h22.38c6.06,0,10.99-4.93,10.99-10.99S67.42,0,61.36,0Zm7.66,10.99c0,4.22-3.44,7.66-7.66,7.66h-22.38c-4.22,0-7.66-3.44-7.66-7.66s3.44-7.66,7.66-7.66h22.38c4.22,0,7.66,3.44,7.66,7.66Z"/>
      <path class="cls-1" d="m96.8,9.33h-18.65c-.92,0-1.67.75-1.67,1.67s.75,1.67,1.67,1.67h18.65c.11,0,.2.09.2.2v35.44c0,.11-.09.2-.2.2h-14.63l4.62-4.62c.32-.31.49-.73.49-1.18s-.17-.86-.49-1.18c-.63-.63-1.73-.63-2.36,0l-7.46,7.46s-.08.1-.12.15c-.03.04-.06.07-.09.11-.03.04-.05.09-.08.14-.03.05-.06.1-.08.15-.02.04-.02.07-.03.11-.02.07-.05.13-.06.2,0,.02,0,.04,0,.06-.01.09-.03.17-.03.26s.01.18.03.26c0,.02,0,.04,0,.06.01.07.04.13.06.19.01.04.02.08.04.12.02.05.05.09.07.14.03.05.05.1.08.15.02.02.04.04.05.07.05.06.09.13.15.18l7.46,7.46c.31.31.73.49,1.18.49s.86-.17,1.18-.49c.32-.31.49-.73.49-1.18s-.17-.86-.49-1.18l-4.62-4.62h14.63c1.95,0,3.53-1.58,3.53-3.53V12.86c0-1.95-1.58-3.53-3.53-3.53Z"/>
      <path class="cls-1" d="m3.53,51.83h18.65c.92,0,1.67-.75,1.67-1.67s-.75-1.67-1.67-1.67H3.53c-1.95,0-3.53,1.58-3.53,3.53v35.44c0,1.95,1.58,3.53,3.53,3.53h14.63l-4.62,4.62c-.32.31-.49.73-.49,1.18s.17.86.49,1.18c.31.31.73.49,1.18.49s.86-.17,1.18-.49l7.46-7.46c.07-.07.12-.14.18-.22,0-.01.02-.02.03-.03.04-.05.06-.11.09-.17.02-.04.05-.08.07-.12.02-.04.03-.09.04-.13.02-.06.04-.12.05-.18,0-.02,0-.05,0-.07.01-.08.03-.16.03-.25,0-.1-.01-.19-.03-.28,0-.01,0-.03,0-.04-.01-.07-.04-.14-.06-.21-.01-.03-.02-.07-.03-.1-.02-.06-.06-.11-.09-.17-.02-.04-.04-.08-.07-.12-.03-.05-.08-.1-.12-.14-.03-.04-.06-.08-.09-.11l-7.46-7.46c-.63-.63-1.73-.63-2.35,0-.32.31-.49.73-.49,1.18s.17.86.49,1.18l4.62,4.62H3.53c-.11,0-.2-.09-.2-.2v-35.44c0-.11.09-.2.2-.2Z"/>
    </g>
  </g>
</svg>