<?xml version="1.0" encoding="UTF-8"?>
<svg id="Layer_2" data-name="Layer 2" xmlns="http://www.w3.org/2000/svg" viewBox="0 0 91.16 83.95">
  <defs>
    <style>
      .cls-1 {
        fill: #4087c7;
      }

      .cls-2 {
        fill: none;
        stroke: #4087c7;
        stroke-miterlimit: 10;
        stroke-width: .28px;
      }
    </style>
  </defs>
  <g id="Layer_1-2" data-name="Layer 1">
    <g>
      <path class="cls-1" d="m63.81,35.62l-17.09,19.13c-.76.85-1.88,1.36-3.06,1.4-1.18.04-2.34-.41-3.16-1.21l-11.54-11.3c-.77-.76-1.19-1.76-1.17-2.81.02-1.05.48-2.04,1.28-2.76.81-.73,1.86-1.1,2.9-1.1,1.1,0,2.2.4,3.02,1.21l6.95,6.8c.35.34.83.53,1.34.51.5-.02.98-.23,1.3-.59l12.83-14.35c.72-.81,1.73-1.3,2.84-1.39,1.11-.09,2.2.23,3.05.91.85.68,1.38,1.63,1.47,2.68.09,1.05-.25,2.07-.97,2.88m1.78-8.11c-1.58-1.25-3.59-1.85-5.64-1.69-2.06.17-3.93,1.08-5.26,2.57l-11.56,12.93-5.58-5.47c-2.96-2.9-7.86-2.99-10.94-.2-1.49,1.35-2.33,3.16-2.37,5.11-.04,1.95.73,3.79,2.16,5.19l11.53,11.3c1.45,1.42,3.48,2.24,5.58,2.24.08,0,.17,0,.26,0,2.19-.07,4.25-1.01,5.66-2.59l17.09-19.13c1.33-1.49,1.97-3.38,1.79-5.32-.18-1.94-1.15-3.7-2.72-4.95"/>
      <path class="cls-2" d="m63.81,35.62l-17.09,19.13c-.76.85-1.88,1.36-3.06,1.4-1.18.04-2.34-.41-3.16-1.21l-11.54-11.3c-.77-.76-1.19-1.76-1.17-2.81.02-1.05.48-2.04,1.28-2.76.81-.73,1.86-1.1,2.9-1.1,1.1,0,2.2.4,3.02,1.21l6.95,6.8c.35.34.83.53,1.34.51.5-.02.98-.23,1.3-.59l12.83-14.35c.72-.81,1.73-1.3,2.84-1.39,1.11-.09,2.2.23,3.05.91.85.68,1.38,1.63,1.47,2.68.09,1.05-.25,2.07-.97,2.88Zm1.78-8.11c-1.58-1.25-3.59-1.85-5.64-1.69-2.06.17-3.93,1.08-5.26,2.57l-11.56,12.93-5.58-5.47c-2.96-2.9-7.86-2.99-10.94-.2-1.49,1.35-2.33,3.16-2.37,5.11-.04,1.95.73,3.79,2.16,5.19l11.53,11.3c1.45,1.42,3.48,2.24,5.58,2.24.08,0,.17,0,.26,0,2.19-.07,4.25-1.01,5.66-2.59l17.09-19.13c1.33-1.49,1.97-3.38,1.79-5.32-.18-1.94-1.15-3.7-2.72-4.95Z"/>
      <path class="cls-1" d="m45.58,71.73c-17.41,0-31.58-13.35-31.58-29.75s14.17-29.75,31.58-29.75,31.58,13.35,31.58,29.75-14.17,29.75-31.58,29.75m0-62.84c-19.37,0-35.13,14.85-35.13,33.09s15.76,33.09,35.13,33.09,35.13-14.85,35.13-33.09S64.95,8.88,45.58,8.88"/>
      <path class="cls-2" d="m45.58,71.73c-17.41,0-31.58-13.35-31.58-29.75s14.17-29.75,31.58-29.75,31.58,13.35,31.58,29.75-14.17,29.75-31.58,29.75Zm0-62.84c-19.37,0-35.13,14.85-35.13,33.09s15.76,33.09,35.13,33.09,35.13-14.85,35.13-33.09S64.95,8.88,45.58,8.88Z"/>
      <path class="cls-1" d="m85.61,45.92c-.89,1.31-1.82,2.66-2.19,4.19-.38,1.58-.17,3.22.03,4.8.21,1.62.4,3.15-.12,4.17-.54,1.06-1.96,1.88-3.45,2.74-1.42.82-2.9,1.67-3.96,2.92-1.07,1.25-1.62,2.8-2.16,4.3-.56,1.56-1.09,3.03-2.06,3.75-.96.72-2.6.88-4.33,1.05-1.67.16-3.41.34-4.95,1.04-1.51.69-2.71,1.84-3.88,2.96-1.23,1.18-2.4,2.3-3.64,2.57-1.16.25-2.69-.27-4.31-.82-1.6-.54-3.26-1.1-5.01-1.1s-3.41.56-5.01,1.1c-1.62.55-3.15,1.07-4.31.82-1.24-.26-2.4-1.38-3.64-2.57-1.16-1.12-2.37-2.27-3.88-2.96-1.54-.7-3.27-.87-4.95-1.04-1.73-.17-3.37-.33-4.33-1.05-.97-.73-1.5-2.2-2.06-3.75-.54-1.5-1.1-3.04-2.16-4.3-1.06-1.25-2.53-2.1-3.96-2.92-1.49-.86-2.91-1.68-3.45-2.74-.53-1.03-.33-2.56-.12-4.17.2-1.58.41-3.21.03-4.8-.37-1.53-1.29-2.88-2.19-4.19-.96-1.4-1.86-2.73-1.86-3.94s.9-2.54,1.86-3.94c.89-1.31,1.82-2.66,2.19-4.19.38-1.59.17-3.22-.03-4.8-.21-1.62-.4-3.15.12-4.18.54-1.06,1.96-1.88,3.45-2.74,1.42-.82,2.9-1.68,3.96-2.92,1.07-1.25,1.62-2.8,2.16-4.3.56-1.55,1.09-3.02,2.06-3.75.96-.72,2.6-.88,4.33-1.05,1.67-.17,3.41-.34,4.95-1.04,1.51-.69,2.72-1.84,3.88-2.96,1.23-1.18,2.4-2.3,3.64-2.57,1.16-.25,2.69.27,4.31.82,1.6.54,3.26,1.1,5.01,1.1s3.41-.56,5.01-1.1c1.62-.55,3.15-1.07,4.31-.82,1.24.26,2.4,1.38,3.64,2.57,1.16,1.12,2.37,2.27,3.88,2.96,1.54.7,3.27.87,4.95,1.04,1.73.17,3.37.33,4.33,1.05.97.73,1.5,2.2,2.06,3.75.54,1.5,1.1,3.04,2.16,4.3,1.06,1.24,2.53,2.1,3.96,2.92,1.49.86,2.91,1.68,3.45,2.74.53,1.03.33,2.56.12,4.18-.2,1.58-.41,3.21-.03,4.8.37,1.53,1.29,2.88,2.19,4.19.96,1.4,1.86,2.73,1.86,3.94s-.9,2.54-1.86,3.94Zm2.99,1.81c1.14-1.66,2.42-3.55,2.42-5.75s-1.29-4.08-2.42-5.75c-.76-1.12-1.48-2.17-1.71-3.12-.25-1.02-.08-2.3.09-3.65.26-2.03.53-4.12-.45-6.03-1-1.94-3.01-3.11-4.79-4.14-1.22-.7-2.37-1.37-3.04-2.16-.68-.8-1.11-2.01-1.58-3.29-.67-1.85-1.43-3.95-3.21-5.29-1.77-1.33-4.11-1.56-6.17-1.76-1.44-.14-2.79-.28-3.78-.72-.95-.43-1.89-1.33-2.89-2.29-1.47-1.41-3.13-3.01-5.39-3.49-2.17-.46-4.27.25-6.3.93-1.38.47-2.68.91-3.81.91s-2.43-.44-3.81-.91c-2.03-.69-4.12-1.39-6.3-.93-2.26.48-3.92,2.08-5.39,3.49-.99.95-1.93,1.85-2.89,2.29-.99.45-2.34.58-3.78.72-2.06.2-4.4.43-6.17,1.76-1.78,1.34-2.54,3.44-3.21,5.29-.46,1.28-.9,2.49-1.58,3.29-.67.79-1.82,1.45-3.04,2.16-1.78,1.03-3.79,2.19-4.79,4.14-.98,1.91-.71,4.01-.45,6.03.17,1.36.34,2.63.09,3.65-.23.96-.95,2.01-1.71,3.12-1.14,1.67-2.42,3.55-2.42,5.75s1.29,4.08,2.42,5.75c.76,1.12,1.48,2.17,1.71,3.12.25,1.02.08,2.3-.09,3.65-.26,2.03-.53,4.12.45,6.03,1,1.94,3.01,3.11,4.79,4.14,1.22.7,2.37,1.37,3.04,2.16.68.8,1.11,2.01,1.58,3.29.67,1.85,1.43,3.95,3.21,5.29,1.77,1.33,4.11,1.56,6.17,1.76,1.44.14,2.79.28,3.78.72.95.43,1.89,1.33,2.89,2.29,1.47,1.41,3.13,3,5.39,3.49,2.17.46,4.27-.24,6.3-.93,1.38-.47,2.68-.91,3.81-.91s2.43.44,3.81.91c1.58.53,3.19,1.08,4.85,1.08.48,0,.96-.04,1.44-.15,2.26-.48,3.92-2.08,5.39-3.49.99-.95,1.93-1.86,2.89-2.29.99-.45,2.34-.58,3.78-.72,2.06-.2,4.4-.43,6.17-1.76,1.78-1.34,2.54-3.44,3.21-5.29.46-1.28.9-2.49,1.58-3.29.67-.79,1.82-1.45,3.04-2.16,1.78-1.03,3.79-2.19,4.79-4.13.98-1.91.71-4.01.45-6.03-.17-1.36-.34-2.64-.09-3.65.23-.95.95-2.01,1.71-3.12"/>
      <path class="cls-2" d="m85.61,45.92c-.89,1.31-1.82,2.66-2.19,4.19-.38,1.58-.17,3.22.03,4.8.21,1.62.4,3.15-.12,4.17-.54,1.06-1.96,1.88-3.45,2.74-1.42.82-2.9,1.67-3.96,2.92-1.07,1.25-1.62,2.8-2.16,4.3-.56,1.56-1.09,3.03-2.06,3.75-.96.72-2.6.88-4.33,1.05-1.67.16-3.41.34-4.95,1.04-1.51.69-2.71,1.84-3.88,2.96-1.23,1.18-2.4,2.3-3.64,2.57-1.16.25-2.69-.27-4.31-.82-1.6-.54-3.26-1.1-5.01-1.1s-3.41.56-5.01,1.1c-1.62.55-3.15,1.07-4.31.82-1.24-.26-2.4-1.38-3.64-2.57-1.16-1.12-2.37-2.27-3.88-2.96-1.54-.7-3.27-.87-4.95-1.04-1.73-.17-3.37-.33-4.33-1.05-.97-.73-1.5-2.2-2.06-3.75-.54-1.5-1.1-3.04-2.16-4.3-1.06-1.25-2.53-2.1-3.96-2.92-1.49-.86-2.91-1.68-3.45-2.74-.53-1.03-.33-2.56-.12-4.17.2-1.58.41-3.21.03-4.8-.37-1.53-1.29-2.88-2.19-4.19-.96-1.4-1.86-2.73-1.86-3.94s.9-2.54,1.86-3.94c.89-1.31,1.82-2.66,2.19-4.19.38-1.59.17-3.22-.03-4.8-.21-1.62-.4-3.15.12-4.18.54-1.06,1.96-1.88,3.45-2.74,1.42-.82,2.9-1.68,3.96-2.92,1.07-1.25,1.62-2.8,2.16-4.3.56-1.55,1.09-3.02,2.06-3.75.96-.72,2.6-.88,4.33-1.05,1.67-.17,3.41-.34,4.95-1.04,1.51-.69,2.72-1.84,3.88-2.96,1.23-1.18,2.4-2.3,3.64-2.57,1.16-.25,2.69.27,4.31.82,1.6.54,3.26,1.1,5.01,1.1s3.41-.56,5.01-1.1c1.62-.55,3.15-1.07,4.31-.82,1.24.26,2.4,1.38,3.64,2.57,1.16,1.12,2.37,2.27,3.88,2.96,1.54.7,3.27.87,4.95,1.04,1.73.17,3.37.33,4.33,1.05.97.73,1.5,2.2,2.06,3.75.54,1.5,1.1,3.04,2.16,4.3,1.06,1.24,2.53,2.1,3.96,2.92,1.49.86,2.91,1.68,3.45,2.74.53,1.03.33,2.56.12,4.18-.2,1.58-.41,3.21-.03,4.8.37,1.53,1.29,2.88,2.19,4.19.96,1.4,1.86,2.73,1.86,3.94s-.9,2.54-1.86,3.94Zm2.99,1.81c1.14-1.66,2.42-3.55,2.42-5.75s-1.29-4.08-2.42-5.75c-.76-1.12-1.48-2.17-1.71-3.12-.25-1.02-.08-2.3.09-3.65.26-2.03.53-4.12-.45-6.03-1-1.94-3.01-3.11-4.79-4.14-1.22-.7-2.37-1.37-3.04-2.16-.68-.8-1.11-2.01-1.58-3.29-.67-1.85-1.43-3.95-3.21-5.29-1.77-1.33-4.11-1.56-6.17-1.76-1.44-.14-2.79-.28-3.78-.72-.95-.43-1.89-1.33-2.89-2.29-1.47-1.41-3.13-3.01-5.39-3.49-2.17-.46-4.27.25-6.3.93-1.38.47-2.68.91-3.81.91s-2.43-.44-3.81-.91c-2.03-.69-4.12-1.39-6.3-.93-2.26.48-3.92,2.08-5.39,3.49-.99.95-1.93,1.85-2.89,2.29-.99.45-2.34.58-3.78.72-2.06.2-4.4.43-6.17,1.76-1.78,1.34-2.54,3.44-3.21,5.29-.46,1.28-.9,2.49-1.58,3.29-.67.79-1.82,1.45-3.04,2.16-1.78,1.03-3.79,2.19-4.79,4.14-.98,1.91-.71,4.01-.45,6.03.17,1.36.34,2.63.09,3.65-.23.96-.95,2.01-1.71,3.12-1.14,1.67-2.42,3.55-2.42,5.75s1.29,4.08,2.42,5.75c.76,1.12,1.48,2.17,1.71,3.12.25,1.02.08,2.3-.09,3.65-.26,2.03-.53,4.12.45,6.03,1,1.94,3.01,3.11,4.79,4.14,1.22.7,2.37,1.37,3.04,2.16.68.8,1.11,2.01,1.58,3.29.67,1.85,1.43,3.95,3.21,5.29,1.77,1.33,4.11,1.56,6.17,1.76,1.44.14,2.79.28,3.78.72.95.43,1.89,1.33,2.89,2.29,1.47,1.41,3.13,3,5.39,3.49,2.17.46,4.27-.24,6.3-.93,1.38-.47,2.68-.91,3.81-.91s2.43.44,3.81.91c1.58.53,3.19,1.08,4.85,1.08.48,0,.96-.04,1.44-.15,2.26-.48,3.92-2.08,5.39-3.49.99-.95,1.93-1.86,2.89-2.29.99-.45,2.34-.58,3.78-.72,2.06-.2,4.4-.43,6.17-1.76,1.78-1.34,2.54-3.44,3.21-5.29.46-1.28.9-2.49,1.58-3.29.67-.79,1.82-1.45,3.04-2.16,1.78-1.03,3.79-2.19,4.79-4.13.98-1.91.71-4.01.45-6.03-.17-1.36-.34-2.64-.09-3.65.23-.95.95-2.01,1.71-3.12Z"/>
    </g>
  </g>
</svg>