<?xml version="1.0" encoding="UTF-8"?>
<svg id="Layer_2" data-name="Layer 2" xmlns="http://www.w3.org/2000/svg" viewBox="0 0 93.66 94.07">
  <defs>
    <style>
      .cls-1 {
        fill: #4087c7;
      }
    </style>
  </defs>
  <g id="Layer_1-2" data-name="Layer 1">
    <path class="cls-1" d="m46.83,33.89c2.45,0,4.44,2,4.44,4.46s-1.99,4.46-4.44,4.46-4.44-2-4.44-4.46,1.99-4.46,4.44-4.46m0,11.59c3.91,0,7.1-3.2,7.1-7.13s-3.18-7.13-7.1-7.13-7.1,3.2-7.1,7.13,3.18,7.13,7.1,7.13M73.05,2.67c4.27,0,7.74,3.49,7.74,7.77s-3.47,7.77-7.74,7.77-7.74-3.49-7.74-7.77,3.47-7.77,7.74-7.77m0,18.21c5.73,0,10.39-4.68,10.39-10.44S78.79,0,73.05,0s-10.39,4.68-10.39,10.44c0,5.76,4.66,10.44,10.39,10.44m10.21,70.52h-8.88v-16.9h8.88v16.9Zm-20.42-16.9h8.88v16.9h-8.88v-16.9Zm-14.69,16.9v-17.23c0-.74-.59-1.33-1.33-1.33s-1.33.6-1.33,1.33v17.23h-4.69v-31.57h0v-4.96c0-.3-.1-.58-.28-.82l-12.4-16.01c-.64-.83-.49-2.03.33-2.67.82-.64,2.02-.49,2.66.33l11.64,15.03c.25.32.64.51,1.05.51h6.03c.41,0,.8-.19,1.05-.51l11.65-15.03c.64-.83,1.83-.98,2.66-.33.83.64.97,1.84.33,2.67l-12.4,16.01c-.18.23-.28.52-.28.82v4.95h0v31.57h-4.69ZM86.76,24.14h-27.42c-3.8,0-6.9,3.11-6.9,6.93,0,.74.59,1.33,1.33,1.33s1.33-.6,1.33-1.33c0-2.35,1.9-4.26,4.24-4.26h27.42c2.34,0,4.24,1.91,4.24,4.26v26.73c0,1.7-1,3.18-2.46,3.86l-2.63-25.85c-.07-.73-.72-1.27-1.46-1.19-.73.08-1.26.73-1.18,1.46l3.64,35.76h-27.72l1.56-15.35c.07-.73-.46-1.39-1.18-1.46-.73-.07-1.38.46-1.46,1.19l-.55,5.44c-.9-.42-1.64-1.15-2.07-2.08v-4.24l12.12-15.65c1.54-1.99,1.18-4.86-.8-6.41-.96-.75-2.15-1.08-3.36-.93-1.2.15-2.28.77-3.02,1.73l-11.25,14.52h-4.73l-11.25-14.52c-1.54-1.99-4.4-2.35-6.38-.8-1.98,1.54-2.34,4.42-.8,6.41l12.12,15.65v4.24c-.69,1.49-2.21,2.48-3.85,2.48h-.84v-5.71c0-.74-.59-1.33-1.33-1.33s-1.33.6-1.33,1.33v35.05h-8.88v-27.83c0-.74-.59-1.33-1.33-1.33s-1.33.6-1.33,1.33v27.83h-8.88v-55.46c0-.74-.59-1.33-1.33-1.33s-1.33.6-1.33,1.33v26.12h-.84c-2.34,0-4.24-1.91-4.24-4.26v-26.73c0-2.35,1.9-4.26,4.24-4.26h27.42c2.34,0,4.24,1.91,4.24,4.26,0,.74.6,1.33,1.33,1.33s1.33-.6,1.33-1.33c0-3.82-3.09-6.93-6.9-6.93H6.9c-3.8,0-6.9,3.11-6.9,6.93v26.73c0,3.82,3.09,6.93,6.9,6.93h.84v28.01c0,.74.59,1.33,1.33,1.33h23.07c.73,0,1.33-.6,1.33-1.33v-28.01h.84c1.41,0,2.74-.42,3.85-1.17v29.19c0,.74.59,1.33,1.33,1.33h14.68c.73,0,1.33-.6,1.33-1.33v-29.19c.55.37,1.15.66,1.79.86l-.88,8.63c-.04.38.08.75.34,1.03.25.28.61.44.98.44h2.46v18.23c0,.74.59,1.33,1.33,1.33h23.07c.73,0,1.33-.6,1.33-1.33v-18.23h2.46c.38,0,.73-.16.99-.44.25-.28.37-.65.33-1.03l-.88-8.63c2.83-.89,4.83-3.53,4.83-6.61v-26.73c0-3.82-3.09-6.93-6.9-6.93M20.61,2.67c4.27,0,7.74,3.49,7.74,7.77s-3.47,7.77-7.74,7.77-7.74-3.49-7.74-7.77,3.47-7.77,7.74-7.77m0,18.21c5.73,0,10.39-4.68,10.39-10.44S26.34,0,20.61,0s-10.39,4.68-10.39,10.44,4.66,10.44,10.39,10.44"/>
  </g>
</svg>