<?xml version="1.0" encoding="UTF-8"?>
<svg id="Layer_2" data-name="Layer 2" xmlns="http://www.w3.org/2000/svg" viewBox="0 0 112.92 112.91">
  <defs>
    <style>
      .cls-1 {
        fill: #4087c7;
      }
    </style>
  </defs>
  <g id="Layer_1-2" data-name="Layer 1">
    <g>
      <path class="cls-1" d="m109.15,107.27c0,1.04-.84,1.88-1.88,1.88H5.65c-1.04,0-1.88-.84-1.88-1.88v-50.81h52.69c3.12,0,5.64-2.53,5.65-5.65v-7.53c0-1.04.84-1.88,1.88-1.88h20.7c1.04,0,1.88.84,1.88,1.88v7.53c0,3.11,2.53,5.64,5.65,5.65h15.06c1.04,0,1.88.84,1.88,1.88v48.93ZM3.76,50.81c0-1.04.84-1.88,1.88-1.88h9.41v3.76H3.76v-1.88Zm15.06-16.94h15.06v18.82h-15.06v-18.82Zm18.82,15.05h7.53v3.76h-7.53v-3.76Zm11.29-30.11h15.06v18.82c-3.11,0-5.64,2.53-5.65,5.65v7.53c0,1.04-.84,1.88-1.88,1.88h-7.53V18.82Zm30.11-15.05h15.06v48.93h-1.88c-1.04,0-1.88-.84-1.88-1.88v-7.53c0-3.11-2.53-5.64-5.65-5.65h-5.65V3.76Zm18.82,45.16h5.64c1.04,0,1.88.84,1.88,1.88v1.88h-7.53v-3.76Zm11.29,4.1v-2.22c0-3.11-2.53-5.64-5.65-5.65h-5.64V1.88c0-1.04-.84-1.88-1.88-1.88h-18.82c-1.04,0-1.88.84-1.88,1.88v35.76h-7.53v-20.7c0-1.04-.84-1.88-1.88-1.88h-18.82c-1.04,0-1.88.84-1.88,1.88v28.23h-7.53v-13.17c0-1.04-.84-1.88-1.88-1.88h-18.82c-1.04,0-1.88.84-1.88,1.88v13.17H5.65c-3.11,0-5.64,2.53-5.65,5.65v56.46c0,3.11,2.53,5.64,5.65,5.65h101.62c3.11,0,5.64-2.53,5.65-5.65v-48.93c-.01-2.38-1.52-4.51-3.76-5.31"/>
      <path class="cls-1" d="m41.4,97.86c0,1.04-.84,1.88-1.88,1.88h-22.58c-1.04,0-1.88-.84-1.88-1.88v-22.58c0-1.04.84-1.88,1.88-1.88h22.58c1.04,0,1.88.84,1.88,1.88v22.58Zm-1.88-28.23h-22.58c-3.12,0-5.65,2.53-5.65,5.65v22.58c0,3.12,2.53,5.65,5.65,5.65h22.58c3.12,0,5.65-2.53,5.65-5.65v-22.58c0-3.12-2.53-5.65-5.65-5.65"/>
      <path class="cls-1" d="m30.11,97.86v-2.07c3.28-.62,5.65-2.78,5.65-5.46,0-3.16-3.31-5.64-7.53-5.64-2.3,0-3.76-1.11-3.76-1.88s1.47-1.88,3.76-1.88,3.76,1.11,3.76,1.88c0,1.04.84,1.88,1.88,1.88s1.88-.84,1.88-1.88c0-2.67-2.37-4.84-5.65-5.46v-2.07c0-1.04-.84-1.88-1.88-1.88s-1.88.84-1.88,1.88v2.07c-3.28.62-5.65,2.78-5.65,5.46,0,3.16,3.31,5.64,7.53,5.64,2.3,0,3.76,1.11,3.76,1.88s-1.47,1.88-3.76,1.88-3.76-1.11-3.76-1.88c0-1.04-.84-1.88-1.88-1.88s-1.88.84-1.88,1.88c0,2.68,2.37,4.84,5.65,5.46v2.07c0,1.04.84,1.88,1.88,1.88s1.88-.84,1.88-1.88"/>
    </g>
  </g>
</svg>