<?xml version="1.0" encoding="UTF-8"?>
<svg id="Layer_2" data-name="Layer 2" xmlns="http://www.w3.org/2000/svg" viewBox="0 0 95.71 83.95">
  <defs>
    <style>
      .cls-1 {
        fill: #4087c7;
      }

      .cls-2 {
        fill: none;
        stroke: #4087c7;
        stroke-miterlimit: 10;
        stroke-width: .28px;
      }
    </style>
  </defs>
  <g id="Layer_1-2" data-name="Layer 1">
    <g>
      <path class="cls-1" d="m92.48,10.03v11.88h-14.1v-11.86c0-3.76,3.22-6.89,7.08-6.89h.04c3.88.04,6.99,3.11,6.97,6.87h0Zm-17.19,61.03c0,5.34-4.4,9.75-9.9,9.75h-.03c-5.53-.04-9.98-4.41-9.97-9.77v-7.24c0-.84-.68-1.53-1.54-1.56H16.78l.4-52.76c0-3.49,2.97-6.34,6.62-6.34h54.41c-1.76,1.88-2.92,4.25-2.92,6.9v61.02Zm-62.1,9.75h-.01c-5.5,0-9.94-4.41-9.94-9.75v-5.82h49.06v5.8c-.01,3.38,1.36,6.62,3.82,9.01.26.26.54.39.81.76H13.18ZM85.5.14H23.8c-5.35,0-9.71,4.19-9.71,9.33l-.4,52.77H1.65c-.85,0-1.5.73-1.5,1.56v7.26c0,6.8,5.6,12.36,12.36,12.66v.09h51.96v-.1c.39.01.62.1.89.1h.04c7.21-.04,13.02-5.75,12.98-12.75V24.91h15.69c.85,0,1.51-.75,1.51-1.58v-13.33c.01-5.41-4.49-9.82-10.06-9.86"/>
      <path class="cls-2" d="m92.48,10.03v11.88h-14.1v-11.86c0-3.76,3.22-6.89,7.08-6.89h.04c3.88.04,6.99,3.11,6.97,6.87h0Zm-17.19,61.03c0,5.34-4.4,9.75-9.9,9.75h-.03c-5.53-.04-9.98-4.41-9.97-9.77v-7.24c0-.84-.68-1.53-1.54-1.56H16.78l.4-52.76c0-3.49,2.97-6.34,6.62-6.34h54.41c-1.76,1.88-2.92,4.25-2.92,6.9v61.02Zm-62.1,9.75h-.01c-5.5,0-9.94-4.41-9.94-9.75v-5.82h49.06v5.8c-.01,3.38,1.36,6.62,3.82,9.01.26.26.54.39.81.76H13.18ZM85.5.14H23.8c-5.35,0-9.71,4.19-9.71,9.33l-.4,52.77H1.65c-.85,0-1.5.73-1.5,1.56v7.26c0,6.8,5.6,12.36,12.36,12.66v.09h51.96v-.1c.39.01.62.1.89.1h.04c7.21-.04,13.02-5.75,12.98-12.75V24.91h15.69c.85,0,1.51-.75,1.51-1.58v-13.33c.01-5.41-4.49-9.82-10.06-9.86Z"/>
      <path class="cls-1" d="m34.72,18.41l10.53-5.04,10.53,5.06v9.77c0,2.26-1.53,5.14-3.45,6.41l-7.1,4.71-7.07-4.71c-1.93-1.28-3.44-4.15-3.44-6.41v-9.78Zm1.71,18.67l7.97,5.29c.52.35,1.21.35,1.73,0l7.94-5.29c2.76-1.83,4.8-5.65,4.8-8.89v-10.7c.02-.57-.31-1.09-.82-1.35l-12.13-5.79c-.42-.21-.92-.21-1.35,0l-12.11,5.78c-.52.26-.84.78-.82,1.35v10.72c0,3.24,2.04,7.06,4.8,8.89"/>
      <path class="cls-2" d="m34.72,18.41l10.53-5.04,10.53,5.06v9.77c0,2.26-1.53,5.14-3.45,6.41l-7.1,4.71-7.07-4.71c-1.93-1.28-3.44-4.15-3.44-6.41v-9.78Zm1.71,18.67l7.97,5.29c.52.35,1.21.35,1.73,0l7.94-5.29c2.76-1.83,4.8-5.65,4.8-8.89v-10.7c.02-.57-.31-1.09-.82-1.35l-12.13-5.79c-.42-.21-.92-.21-1.35,0l-12.11,5.78c-.52.26-.84.78-.82,1.35v10.72c0,3.24,2.04,7.06,4.8,8.89Z"/>
      <path class="cls-1" d="m42.63,30.46c.29.29.68.45,1.09.45h0c.41,0,.8-.16,1.09-.44l6.15-5.97c.6-.59.6-1.54,0-2.12-.6-.59-1.58-.59-2.19,0l-5.05,4.9-2.02-1.98c-.6-.59-1.58-.59-2.19-.01s-.61,1.54-.01,2.12l3.11,3.05Z"/>
      <path class="cls-2" d="m42.63,30.46c.29.29.68.45,1.09.45h0c.41,0,.8-.16,1.09-.44l6.15-5.97c.6-.59.6-1.54,0-2.12-.6-.59-1.58-.59-2.19,0l-5.05,4.9-2.02-1.98c-.6-.59-1.58-.59-2.19-.01s-.61,1.54-.01,2.12l3.11,3.05Z"/>
      <path class="cls-1" d="m64.47,46.67H27.38c-.85,0-1.55.67-1.55,1.5s.69,1.5,1.55,1.5h37.09c.85,0,1.54-.67,1.54-1.5s-.69-1.5-1.54-1.5"/>
      <path class="cls-2" d="m64.47,46.67H27.38c-.85,0-1.55.67-1.55,1.5s.69,1.5,1.55,1.5h37.09c.85,0,1.54-.67,1.54-1.5s-.69-1.5-1.54-1.5Z"/>
      <path class="cls-1" d="m64.47,53.61H27.38c-.85,0-1.55.67-1.55,1.5s.69,1.5,1.55,1.5h37.09c.85,0,1.54-.67,1.54-1.5s-.69-1.5-1.54-1.5"/>
      <path class="cls-2" d="m64.47,53.61H27.38c-.85,0-1.55.67-1.55,1.5s.69,1.5,1.55,1.5h37.09c.85,0,1.54-.67,1.54-1.5s-.69-1.5-1.54-1.5Z"/>
    </g>
  </g>
</svg>