<?xml version="1.0" encoding="UTF-8"?>
<svg id="Layer_2" data-name="Layer 2" xmlns="http://www.w3.org/2000/svg" viewBox="0 0 84.91 84.91">
  <defs>
    <style>
      .cls-1 {
        fill: #fff;
      }

      .cls-2 {
        fill: #2566af;
      }
    </style>
  </defs>
  <g id="Layer_1-2" data-name="Layer 1">
    <g>
      <path class="cls-1" d="m42.45,84.91c23.45,0,42.45-19.01,42.45-42.45S65.9,0,42.45,0,0,19.01,0,42.45s19.01,42.45,42.45,42.45"/>
      <path class="cls-2" d="m70.06,37.98h-3.14c-.24-1.25-.57-2.49-1.01-3.71l2.72-1.55c1.13-.64,1.51-2.07.86-3.18l-2.18-3.72c-.32-.54-.82-.93-1.43-1.09-.61-.16-1.25-.08-1.79.23l-2.73,1.55c-.84-.97-1.76-1.88-2.75-2.71l1.57-2.69c.32-.54.4-1.16.24-1.77-.16-.6-.55-1.1-1.1-1.41l-3.78-2.15c-.54-.31-1.18-.39-1.79-.23-.61.16-1.12.55-1.43,1.09l-1.57,2.68c-1.23-.43-2.49-.76-3.76-1v-3.1c0-1.28-1.06-2.33-2.36-2.33h-4.36c-1.3,0-2.36,1.05-2.36,2.33v3.1c-1.27.23-2.53.57-3.76,1l-1.57-2.68c-.65-1.11-2.1-1.49-3.23-.85l-3.77,2.15c-.55.31-.94.81-1.1,1.41-.16.6-.08,1.23.24,1.77l1.57,2.69c-.99.83-1.91,1.74-2.75,2.71l-2.73-1.55c-.55-.31-1.18-.39-1.79-.23-.61.16-1.12.55-1.43,1.09l-2.18,3.72c-.65,1.11-.26,2.54.86,3.18l2.72,1.55c-.44,1.21-.77,2.45-1.01,3.71h-3.14c-1.3,0-2.36,1.05-2.36,2.33v4.3c0,1.28,1.06,2.33,2.36,2.33h3.14c.23,1.25.57,2.49,1.01,3.71l-2.72,1.55c-.55.31-.94.81-1.1,1.41-.16.6-.08,1.23.24,1.77l2.18,3.72c.31.54.82.92,1.43,1.08.61.16,1.24.08,1.79-.23l2.73-1.55c.84.97,1.76,1.88,2.75,2.71l-1.57,2.69c-.65,1.11-.26,2.54.86,3.18l3.77,2.15c1.13.64,2.57.26,3.23-.85l1.57-2.69c1.23.43,2.49.77,3.76,1v3.1c0,1.28,1.06,2.33,2.36,2.33h4.36c1.3,0,2.36-1.05,2.36-2.33v-2.66c0-.5-.41-.9-.91-.9s-.91.4-.91.9v2.66c0,.3-.24.54-.54.54h-4.36c-.3,0-.55-.24-.55-.54v-3.85c0-.44-.33-.82-.77-.88-1.65-.25-3.29-.68-4.88-1.29-.41-.16-.89,0-1.12.39l-1.95,3.34c-.15.26-.48.35-.74.2l-3.77-2.15c-.26-.15-.35-.48-.2-.74l1.96-3.34c.22-.38.13-.87-.22-1.15-1.31-1.04-2.51-2.22-3.57-3.52-.28-.34-.78-.44-1.16-.21l-3.39,1.93c-.13.07-.27.09-.41.05-.14-.04-.26-.12-.33-.25l-2.18-3.72c-.07-.12-.09-.27-.05-.41.04-.14.13-.25.25-.33l3.39-1.93c.39-.22.56-.69.39-1.1-.62-1.56-1.06-3.18-1.31-4.81-.07-.44-.45-.76-.9-.76h-3.91c-.3,0-.55-.24-.55-.54v-4.3c0-.3.24-.54.55-.54h3.91c.45,0,.83-.32.9-.76.25-1.63.69-3.25,1.31-4.81.16-.41,0-.88-.39-1.1l-3.39-1.93c-.26-.15-.35-.48-.2-.73l2.18-3.72c.07-.12.19-.21.33-.25.14-.04.29-.02.41.05l3.39,1.93c.39.22.88.13,1.16-.21,1.05-1.3,2.26-2.48,3.57-3.52.35-.28.44-.76.22-1.15l-1.96-3.34c-.07-.12-.09-.27-.05-.41.04-.14.13-.25.26-.32l3.77-2.15c.27-.15.59-.06.74.2l1.95,3.34c.23.38.7.54,1.12.39,1.59-.61,3.23-1.04,4.88-1.29.44-.07.77-.44.77-.89v-3.85c0-.3.24-.54.55-.54h4.36c.3,0,.54.24.54.54v3.85c0,.44.33.82.77.89,1.65.25,3.29.68,4.88,1.29.42.16.89,0,1.12-.39l1.96-3.34c.07-.12.19-.21.33-.25.14-.04.29-.02.42.05l3.77,2.15c.13.07.22.19.25.32.04.14.02.28-.05.41l-1.96,3.34c-.22.38-.13.87.22,1.15,1.32,1.04,2.52,2.22,3.57,3.52.28.34.78.44,1.16.21l3.39-1.93c.13-.07.27-.09.41-.05.14.04.26.12.33.25l2.18,3.72c.15.26.06.59-.2.73l-3.38,1.93c-.39.22-.55.69-.39,1.1.62,1.56,1.06,3.18,1.31,4.81.07.44.45.76.9.76h3.9c.3,0,.54.24.54.54v4.3c0,.3-.24.54-.54.54h-2.69c-.5,0-.91.4-.91.9s.41.9.91.9h2.69c1.3,0,2.36-1.04,2.36-2.33v-4.3c0-1.28-1.06-2.33-2.36-2.33"/>
      <path class="cls-2" d="m46.39,58.4c-1.26.3-2.58.48-3.93.48-5.24,0-9.91-2.4-12.97-6.15l7.89-5.58c1.27,1.34,3.07,2.18,5.07,2.18,1.59,0,3.06-.54,4.23-1.43l2.89,2.85c-1.84,2.07-3.01,4.73-3.19,7.65m-17.96-7.13c-1.65-2.55-2.62-5.57-2.62-8.82,0-8.75,6.98-15.9,15.74-16.37v9.57c-3.41.44-6.05,3.32-6.05,6.8,0,1.17.3,2.27.82,3.24l-7.89,5.58Zm19.17-8.82c0,2.8-2.31,5.08-5.15,5.08s-5.14-2.28-5.14-5.08,2.31-5.07,5.14-5.07,5.15,2.28,5.15,5.07m-4.24-16.37c4.07.22,7.74,1.87,10.52,4.47l-7.04,6.58c-.97-.78-2.17-1.3-3.47-1.47v-9.57Zm15.74,16.37c0,1.35-.18,2.66-.49,3.92-2.95.17-5.64,1.32-7.74,3.11l-2.9-2.86c.9-1.16,1.45-2.6,1.45-4.17s-.5-2.89-1.33-4.02l7.05-6.59c2.47,2.86,3.96,6.57,3.96,10.61m12.38,17.49c-.5-.07-.96.27-1.03.77-.76,5.42-5.53,9.51-11.09,9.51-6.18,0-11.2-4.96-11.2-11.05s5.02-11.04,11.2-11.04c2.98,0,5.79,1.14,7.9,3.22.36.35.93.35,1.28,0,.36-.35.35-.92,0-1.27-2.19-2.16-5.03-3.44-8.09-3.69.29-1.27.46-2.58.46-3.93,0-10.04-8.28-18.21-18.46-18.21s-18.46,8.17-18.46,18.21,8.28,18.21,18.46,18.21c1.36,0,2.68-.16,3.95-.44.55,6.59,6.14,11.78,12.96,11.78,6.46,0,12-4.75,12.89-11.05.07-.49-.28-.94-.77-1.01"/>
      <path class="cls-2" d="m70.87,53.57l-11.23,11.08-6.2-6.11c-.36-.35-.93-.35-1.28,0-.36.35-.36.92,0,1.27l6.84,6.75c.18.18.41.26.64.26s.46-.09.64-.26l11.88-11.71c.35-.35.35-.92,0-1.27-.36-.35-.93-.35-1.28,0"/>
    </g>
  </g>
</svg>