<?xml version="1.0" encoding="UTF-8"?>
<svg id="Layer_2" data-name="Layer 2" xmlns="http://www.w3.org/2000/svg" viewBox="0 0 99.35 94.07">
  <defs>
    <style>
      .cls-1 {
        fill: #4087c7;
      }
    </style>
  </defs>
  <g id="Layer_1-2" data-name="Layer 1">
    <path class="cls-1" d="m47.57,42.04c9.07-7.05,17.13-16.44,23.3-27.16.39-.68.22-1.54-.41-2.01l-6-4.54,17.43-4.75.14,18.05-4.2-3.18c-.68-.52-1.66-.38-2.17.3,0,0,0,0,0,0-9.88,13.27-22.99,23.47-36.92,29.25,3.08-1.78,6.03-3.78,8.84-5.97Zm-32.71,14.38h.04c11.71-.31,23.97-4.05,35.45-10.83,10.37-6.15,19.48-14.2,26.85-23.74l5.48,4.15c.68.52,1.66.38,2.17-.3.21-.27.32-.61.32-.95l-.18-23.22c0-.86-.71-1.55-1.56-1.54-.13,0-.27.02-.4.06l-22.42,6.11c-.83.22-1.31,1.08-1.09,1.9.09.33.29.62.56.83l7.41,5.61c-12.79,21.53-31.99,35.65-52.87,38.83-.85.13-1.43.92-1.3,1.77.12.76.77,1.32,1.53,1.32Zm-3.28,17.85h11.32v16.69h-11.32v-16.69Zm21.63-12.05h11.32v28.74h-11.32v-28.74Zm21.63-12.05h11.32v40.79h-11.32v-40.79Zm21.63-12.05h11.32v52.83h-11.32v-52.83Zm21.34,52.83h-6.92v-54.39c0-.86-.7-1.55-1.55-1.55h-14.43c-.86,0-1.55.69-1.55,1.55v54.39h-4.1v-42.34c0-.86-.7-1.55-1.55-1.55h-14.43c-.86,0-1.55.69-1.55,1.55v42.34h-4.1v-30.29c0-.86-.7-1.55-1.55-1.55h-14.43c-.86,0-1.55.69-1.55,1.55v30.29h-4.1v-18.25c0-.86-.7-1.55-1.55-1.55h-14.43c-.86,0-1.55.69-1.55,1.55v18.25H1.55c-.86,0-1.55.69-1.55,1.55s.7,1.55,1.55,1.55h96.25c.86,0,1.55-.69,1.55-1.55s-.69-1.55-1.55-1.55"/>
  </g>
</svg>