<?xml version="1.0" encoding="UTF-8"?>
<svg id="Layer_2" data-name="Layer 2" xmlns="http://www.w3.org/2000/svg" viewBox="0 0 99.28 117.1">
  <defs>
    <style>
      .cls-1 {
        fill: #4087c7;
      }
    </style>
  </defs>
  <g id="Layer_1-2" data-name="Layer 1">
    <g>
      <path class="cls-1" d="m4.23,112.87h90.82v-19.53H4.23v19.53Zm92.93,4.23H2.12c-1.17,0-2.12-.95-2.12-2.12v-23.76c0-1.17.95-2.12,2.12-2.12h95.05c1.17,0,2.12.95,2.12,2.12v23.76c0,1.17-.95,2.12-2.12,2.12"/>
      <path class="cls-1" d="m97.16,93.34c-.99,0-1.87-.69-2.07-1.7l-5.6-28H9.79l-5.6,28c-.23,1.15-1.34,1.9-2.49,1.66-1.15-.23-1.89-1.34-1.66-2.49l5.94-29.7c.2-.99,1.07-1.7,2.07-1.7h83.17c1.01,0,1.88.71,2.07,1.7l5.94,29.7c.23,1.15-.51,2.26-1.66,2.49-.14.03-.28.04-.42.04"/>
      <path class="cls-1" d="m57.7,17.82h31.41V4.23h-31.41v13.59Zm33.53,4.23h-35.64c-1.17,0-2.12-.95-2.12-2.12V2.12c0-1.17.95-2.12,2.12-2.12h35.64c1.17,0,2.12.95,2.12,2.12v17.82c0,1.17-.95,2.12-2.12,2.12"/>
      <path class="cls-1" d="m73.4,33.93c-1.17,0-2.12-.95-2.12-2.12v-11.88c0-1.17.95-2.12,2.12-2.12s2.12.95,2.12,2.12v11.88c0,1.17-.95,2.12-2.12,2.12"/>
      <path class="cls-1" d="m61.52,105.22h-23.76c-1.17,0-2.12-.95-2.12-2.12s.95-2.12,2.12-2.12h23.76c1.17,0,2.12.95,2.12,2.12s-.95,2.12-2.12,2.12"/>
      <path class="cls-1" d="m57.7,49.51h19.53v-5.69h-19.53v5.69Zm21.65,4.23h-23.76c-1.17,0-2.12-.95-2.12-2.12v-9.93c0-1.17.95-2.12,2.12-2.12h23.76c1.17,0,2.12.95,2.12,2.12v9.93c0,1.17-.95,2.12-2.12,2.12"/>
      <path class="cls-1" d="m43.7,53.75h-23.76c-1.17,0-2.12-.95-2.12-2.12s.95-2.12,2.12-2.12h23.76c1.17,0,2.12.95,2.12,2.12s-.95,2.12-2.12,2.12"/>
      <path class="cls-1" d="m22.59,22.55h-14.53c-1.13,0-2.07-.89-2.11-2.02-.24-5.33.71-8.91,2.98-11.26,3.34-3.46,8.6-3.41,15.27-3.35.93,0,1.87,0,2.9.02,1.17,0,2.12.95,2.12,2.11s-.98,2.1-2.23,2.12c-.97,0-1.91,0-2.83-.02-5.65-.06-10.12-.1-12.19,2.05-1.14,1.18-1.74,3.19-1.82,6.11h12.44c1.17,0,2.12.95,2.12,2.12s-.95,2.11-2.12,2.11"/>
      <path class="cls-1" d="m23.65,73.44h-5.94c-1.17,0-2.12-.95-2.12-2.12s.95-2.12,2.12-2.12h5.94c1.17,0,2.12.95,2.12,2.12s-.95,2.12-2.12,2.12"/>
      <path class="cls-1" d="m42.96,73.44h-5.94c-1.17,0-2.12-.95-2.12-2.12s.95-2.12,2.12-2.12h5.94c1.17,0,2.12.95,2.12,2.12s-.95,2.12-2.12,2.12"/>
      <path class="cls-1" d="m62.27,73.44h-5.94c-1.17,0-2.12-.95-2.12-2.12s.95-2.12,2.12-2.12h5.94c1.17,0,2.12.95,2.12,2.12s-.95,2.12-2.12,2.12"/>
      <path class="cls-1" d="m81.57,73.44h-5.94c-1.17,0-2.12-.95-2.12-2.12s.95-2.12,2.12-2.12h5.94c1.17,0,2.12.95,2.12,2.12s-.95,2.12-2.12,2.12"/>
      <path class="cls-1" d="m23.65,83.53h-5.94c-1.17,0-2.12-.95-2.12-2.12s.95-2.12,2.12-2.12h5.94c1.17,0,2.12.95,2.12,2.12s-.95,2.12-2.12,2.12"/>
      <path class="cls-1" d="m42.96,83.53h-5.94c-1.17,0-2.12-.95-2.12-2.12s.95-2.12,2.12-2.12h5.94c1.17,0,2.12.95,2.12,2.12s-.95,2.12-2.12,2.12"/>
      <path class="cls-1" d="m62.27,83.53h-5.94c-1.17,0-2.12-.95-2.12-2.12s.95-2.12,2.12-2.12h5.94c1.17,0,2.12.95,2.12,2.12s-.95,2.12-2.12,2.12"/>
      <path class="cls-1" d="m81.57,83.53h-5.94c-1.17,0-2.12-.95-2.12-2.12s.95-2.12,2.12-2.12h5.94c1.17,0,2.12.95,2.12,2.12s-.95,2.12-2.12,2.12"/>
      <path class="cls-1" d="m24.71,49.51h13.79V13.84c0-2.02-1.65-3.67-3.67-3.67h-11.61c.75,2.17,1.49,5.42,1.49,9.76v29.58Zm15.9,4.23h-18.02c-1.17,0-2.12-.95-2.12-2.12v-31.69c0-7.17-2.26-10.66-2.29-10.69-.43-.65-.48-1.49-.11-2.18.37-.68,1.08-1.12,1.86-1.12h14.89c4.36,0,7.9,3.55,7.9,7.9v37.79c0,1.17-.95,2.12-2.11,2.12"/>
      <path class="cls-1" d="m91.22,63.64c-1.17,0-2.12-.95-2.12-2.12v-27.59h-48.5c-1.17,0-2.12-.95-2.12-2.12s.95-2.12,2.12-2.12h50.61c1.17,0,2.12.95,2.12,2.12v29.7c0,1.17-.95,2.12-2.12,2.12"/>
      <path class="cls-1" d="m8.06,63.64c-1.17,0-2.12-.95-2.12-2.12v-29.7c0-1.17.95-2.12,2.12-2.12h14.53c1.17,0,2.12.95,2.12,2.12s-.95,2.12-2.12,2.12h-12.42v27.59c0,1.17-.95,2.12-2.12,2.12"/>
    </g>
  </g>
</svg>