<?xml version="1.0" encoding="UTF-8"?>
<svg id="Layer_2" data-name="Layer 2" xmlns="http://www.w3.org/2000/svg" viewBox="0 0 94.06 94.06">
  <defs>
    <style>
      .cls-1 {
        fill: #4087c7;
      }

      .cls-2 {
        fill: none;
        stroke: #4087c7;
        stroke-miterlimit: 10;
        stroke-width: .28px;
      }
    </style>
  </defs>
  <g id="Layer_1-2" data-name="Layer 1">
    <g>
      <path class="cls-1" d="m26.93,76.77c.29,0,.58.08.84.25,3.61,2.32,7.54,3.96,11.68,4.85.71.15,1.22.79,1.22,1.52v5.33c0,1.15.94,2.09,2.09,2.09h8.53c1.15,0,2.09-.94,2.09-2.09v-5.33c0-.73.51-1.36,1.22-1.52,4.14-.9,8.07-2.53,11.68-4.85.62-.39,1.42-.31,1.94.21l3.78,3.78c.82.81,2.14.82,2.96,0l6.03-6.03c.82-.82.82-2.14,0-2.96l-3.78-3.78c-.52-.52-.6-1.32-.21-1.94,2.32-3.61,3.95-7.54,4.85-11.68.15-.72.79-1.22,1.52-1.22h5.33c1.15,0,2.09-.94,2.09-2.09v-8.53c0-1.15-.94-2.09-2.09-2.09h-5.33c-.73,0-1.36-.51-1.52-1.22-.9-4.14-2.53-8.07-4.85-11.68-.4-.61-.31-1.42.21-1.94l3.78-3.78c.82-.82.82-2.14,0-2.96l-6.03-6.03c-.82-.82-2.14-.82-2.96,0l-3.78,3.78c-.52.52-1.32.6-1.94.21-3.61-2.32-7.54-3.96-11.68-4.85-.71-.15-1.22-.79-1.22-1.52v-5.33c0-1.15-.94-2.09-2.09-2.09h-8.53c-1.15,0-2.09.94-2.09,2.09v5.33c0,.73-.51,1.36-1.22,1.52-4.14.9-8.07,2.53-11.68,4.85-.62.39-1.42.31-1.94-.21l-3.78-3.78c-.79-.79-2.17-.79-2.96,0l-6.03,6.03c-.82.82-.82,2.14,0,2.96l3.78,3.78c.52.52.6,1.32.21,1.94-2.32,3.61-3.96,7.54-4.85,11.68-.15.71-.79,1.22-1.52,1.22h-5.33c-1.15,0-2.09.94-2.09,2.09v8.53c0,1.15.94,2.09,2.09,2.09h5.33c.73,0,1.36.51,1.52,1.22.9,4.14,2.53,8.07,4.85,11.68.4.61.31,1.42-.21,1.94l-3.78,3.78c-.82.82-.82,2.14,0,2.96l6.03,6.03c.79.79,2.17.79,2.96,0l3.78-3.78c.3-.3.7-.45,1.1-.45m24.37,17.15h-8.53c-2.87,0-5.2-2.33-5.2-5.2v-4.1c-3.66-.92-7.15-2.37-10.41-4.33l-2.91,2.91c-.98.98-2.29,1.52-3.68,1.52s-2.69-.54-3.68-1.52l-6.03-6.03c-.98-.98-1.52-2.29-1.52-3.68s.54-2.69,1.52-3.68l2.91-2.91c-1.96-3.26-3.41-6.75-4.33-10.41h-4.1c-2.87,0-5.2-2.33-5.2-5.2v-8.53c0-2.87,2.33-5.2,5.2-5.2h4.1c.92-3.65,2.37-7.15,4.33-10.41l-2.91-2.91c-.98-.98-1.52-2.29-1.52-3.68s.54-2.69,1.52-3.68l6.03-6.03c.98-.98,2.29-1.52,3.68-1.52s2.69.54,3.68,1.52l2.91,2.91c3.26-1.96,6.76-3.41,10.41-4.33v-4.1c0-2.87,2.33-5.2,5.2-5.2h8.53c2.87,0,5.2,2.33,5.2,5.2v4.1c3.66.92,7.15,2.37,10.41,4.33l2.91-2.91c.98-.98,2.29-1.52,3.68-1.52s2.69.54,3.68,1.52l6.03,6.03c2.03,2.03,2.03,5.33,0,7.35l-2.91,2.91c1.96,3.26,3.41,6.76,4.33,10.41h4.1c2.87,0,5.2,2.33,5.2,5.2v8.53c0,2.87-2.33,5.2-5.2,5.2h-4.1c-.92,3.65-2.37,7.15-4.33,10.41l2.91,2.91c2.03,2.03,2.03,5.33,0,7.35l-6.03,6.03c-.98.98-2.29,1.52-3.68,1.52s-2.69-.54-3.68-1.52l-2.91-2.91c-3.26,1.96-6.76,3.41-10.41,4.33v4.1c0,2.87-2.33,5.2-5.2,5.2"/>
      <path class="cls-2" d="m26.93,76.77c.29,0,.58.08.84.25,3.61,2.32,7.54,3.96,11.68,4.85.71.15,1.22.79,1.22,1.52v5.33c0,1.15.94,2.09,2.09,2.09h8.53c1.15,0,2.09-.94,2.09-2.09v-5.33c0-.73.51-1.36,1.22-1.52,4.14-.9,8.07-2.53,11.68-4.85.62-.39,1.42-.31,1.94.21l3.78,3.78c.82.81,2.14.82,2.96,0l6.03-6.03c.82-.82.82-2.14,0-2.96l-3.78-3.78c-.52-.52-.6-1.32-.21-1.94,2.32-3.61,3.95-7.54,4.85-11.68.15-.72.79-1.22,1.52-1.22h5.33c1.15,0,2.09-.94,2.09-2.09v-8.53c0-1.15-.94-2.09-2.09-2.09h-5.33c-.73,0-1.36-.51-1.52-1.22-.9-4.14-2.53-8.07-4.85-11.68-.4-.61-.31-1.42.21-1.94l3.78-3.78c.82-.82.82-2.14,0-2.96l-6.03-6.03c-.82-.82-2.14-.82-2.96,0l-3.78,3.78c-.52.52-1.32.6-1.94.21-3.61-2.32-7.54-3.96-11.68-4.85-.71-.15-1.22-.79-1.22-1.52v-5.33c0-1.15-.94-2.09-2.09-2.09h-8.53c-1.15,0-2.09.94-2.09,2.09v5.33c0,.73-.51,1.36-1.22,1.52-4.14.9-8.07,2.53-11.68,4.85-.62.39-1.42.31-1.94-.21l-3.78-3.78c-.79-.79-2.17-.79-2.96,0l-6.03,6.03c-.82.82-.82,2.14,0,2.96l3.78,3.78c.52.52.6,1.32.21,1.94-2.32,3.61-3.96,7.54-4.85,11.68-.15.71-.79,1.22-1.52,1.22h-5.33c-1.15,0-2.09.94-2.09,2.09v8.53c0,1.15.94,2.09,2.09,2.09h5.33c.73,0,1.36.51,1.52,1.22.9,4.14,2.53,8.07,4.85,11.68.4.61.31,1.42-.21,1.94l-3.78,3.78c-.82.82-.82,2.14,0,2.96l6.03,6.03c.79.79,2.17.79,2.96,0l3.78-3.78c.3-.3.7-.45,1.1-.45Zm24.37,17.15h-8.53c-2.87,0-5.2-2.33-5.2-5.2v-4.1c-3.66-.92-7.15-2.37-10.41-4.33l-2.91,2.91c-.98.98-2.29,1.52-3.68,1.52s-2.69-.54-3.68-1.52l-6.03-6.03c-.98-.98-1.52-2.29-1.52-3.68s.54-2.69,1.52-3.68l2.91-2.91c-1.96-3.26-3.41-6.75-4.33-10.41h-4.1c-2.87,0-5.2-2.33-5.2-5.2v-8.53c0-2.87,2.33-5.2,5.2-5.2h4.1c.92-3.65,2.37-7.15,4.33-10.41l-2.91-2.91c-.98-.98-1.52-2.29-1.52-3.68s.54-2.69,1.52-3.68l6.03-6.03c.98-.98,2.29-1.52,3.68-1.52s2.69.54,3.68,1.52l2.91,2.91c3.26-1.96,6.76-3.41,10.41-4.33v-4.1c0-2.87,2.33-5.2,5.2-5.2h8.53c2.87,0,5.2,2.33,5.2,5.2v4.1c3.66.92,7.15,2.37,10.41,4.33l2.91-2.91c.98-.98,2.29-1.52,3.68-1.52s2.69.54,3.68,1.52l6.03,6.03c2.03,2.03,2.03,5.33,0,7.35l-2.91,2.91c1.96,3.26,3.41,6.76,4.33,10.41h4.1c2.87,0,5.2,2.33,5.2,5.2v8.53c0,2.87-2.33,5.2-5.2,5.2h-4.1c-.92,3.65-2.37,7.15-4.33,10.41l2.91,2.91c2.03,2.03,2.03,5.33,0,7.35l-6.03,6.03c-.98.98-2.29,1.52-3.68,1.52s-2.69-.54-3.68-1.52l-2.91-2.91c-3.26,1.96-6.76,3.41-10.41,4.33v4.1c0,2.87-2.33,5.2-5.2,5.2Z"/>
      <path class="cls-1" d="m59.39,74.18c-.58,0-1.13-.32-1.4-.88-.37-.77-.05-1.7.72-2.08.7-.34,1.4-.72,2.07-1.11.74-.44,1.69-.2,2.13.54.44.74.2,1.69-.54,2.13-.75.45-1.52.86-2.31,1.24-.22.11-.45.16-.68.16"/>
      <path class="cls-2" d="m59.39,74.18c-.58,0-1.13-.32-1.4-.88-.37-.77-.05-1.7.72-2.08.7-.34,1.4-.72,2.07-1.11.74-.44,1.69-.2,2.13.54.44.74.2,1.69-.54,2.13-.75.45-1.52.86-2.31,1.24-.22.11-.45.16-.68.16Z"/>
      <path class="cls-1" d="m63.72,25.59c-.32,0-.64-.1-.91-.3-1.3-.95-2.69-1.78-4.14-2.47-.77-.37-1.1-1.3-.73-2.07.37-.77,1.3-1.1,2.07-.72,1.61.78,3.16,1.7,4.61,2.76.69.51.85,1.48.34,2.17-.3.42-.78.64-1.26.64m9.44,11.82c-.6,0-1.18-.35-1.43-.94-.63-1.48-1.4-2.9-2.29-4.24-.47-.72-.28-1.68.44-2.15.71-.47,1.68-.28,2.15.44.99,1.5,1.85,3.09,2.55,4.73.34.79-.03,1.7-.82,2.04-.2.09-.41.13-.61.13m2.03,15c-.07,0-.14,0-.21-.01-.85-.11-1.45-.9-1.33-1.75.16-1.19.24-2.41.24-3.62,0-.4,0-.8-.03-1.2-.04-.86.62-1.58,1.48-1.62.83-.06,1.58.62,1.62,1.48.02.44.03.89.03,1.34,0,1.35-.09,2.71-.27,4.03-.1.78-.77,1.35-1.54,1.35m-5.96,13.91c-.34,0-.68-.11-.97-.34-.67-.54-.78-1.51-.24-2.18,1-1.25,1.9-2.61,2.66-4.02.41-.76,1.35-1.04,2.1-.63.76.41,1.04,1.35.63,2.11-.85,1.57-1.85,3.08-2.97,4.48-.31.38-.76.58-1.21.58"/>
      <path class="cls-2" d="m63.72,25.59c-.32,0-.64-.1-.91-.3-1.3-.95-2.69-1.78-4.14-2.47-.77-.37-1.1-1.3-.73-2.07.37-.77,1.3-1.1,2.07-.72,1.61.78,3.16,1.7,4.61,2.76.69.51.85,1.48.34,2.17-.3.42-.78.64-1.26.64Zm9.44,11.82c-.6,0-1.18-.35-1.43-.94-.63-1.48-1.4-2.9-2.29-4.24-.47-.72-.28-1.68.44-2.15.71-.47,1.68-.28,2.15.44.99,1.5,1.85,3.09,2.55,4.73.34.79-.03,1.7-.82,2.04-.2.09-.41.13-.61.13Zm2.03,15c-.07,0-.14,0-.21-.01-.85-.11-1.45-.9-1.33-1.75.16-1.19.24-2.41.24-3.62,0-.4,0-.8-.03-1.2-.04-.86.62-1.58,1.48-1.62.83-.06,1.58.62,1.62,1.48.02.44.03.89.03,1.34,0,1.35-.09,2.71-.27,4.03-.1.78-.77,1.35-1.54,1.35Zm-5.96,13.91c-.34,0-.68-.11-.97-.34-.67-.54-.78-1.51-.24-2.18,1-1.25,1.9-2.61,2.66-4.02.41-.76,1.35-1.04,2.1-.63.76.41,1.04,1.35.63,2.11-.85,1.57-1.85,3.08-2.97,4.48-.31.38-.76.58-1.21.58Z"/>
      <path class="cls-1" d="m49.52,20.28s-.09,0-.14,0c-.77-.07-1.56-.1-2.35-.1-.86,0-1.55-.69-1.55-1.55s.69-1.55,1.55-1.55,1.76.04,2.62.11c.85.07,1.49.83,1.41,1.68-.07.81-.75,1.42-1.54,1.42"/>
      <path class="cls-2" d="m49.52,20.28s-.09,0-.14,0c-.77-.07-1.56-.1-2.35-.1-.86,0-1.55-.69-1.55-1.55s.69-1.55,1.55-1.55,1.76.04,2.62.11c.85.07,1.49.83,1.41,1.68-.07.81-.75,1.42-1.54,1.42Z"/>
      <path class="cls-1" d="m47.03,77c-16.52,0-29.97-13.44-29.97-29.97s13.44-29.97,29.97-29.97c.86,0,1.55.7,1.55,1.55s-.69,1.55-1.55,1.55c-14.81,0-26.86,12.05-26.86,26.86s12.05,26.86,26.86,26.86c4.1,0,8.03-.9,11.68-2.67.77-.37,1.7-.05,2.07.72.37.77.05,1.7-.72,2.07-4.08,1.98-8.47,2.98-13.04,2.98"/>
      <path class="cls-2" d="m47.03,77c-16.52,0-29.97-13.44-29.97-29.97s13.44-29.97,29.97-29.97c.86,0,1.55.7,1.55,1.55s-.69,1.55-1.55,1.55c-14.81,0-26.86,12.05-26.86,26.86s12.05,26.86,26.86,26.86c4.1,0,8.03-.9,11.68-2.67.77-.37,1.7-.05,2.07.72.37.77.05,1.7-.72,2.07-4.08,1.98-8.47,2.98-13.04,2.98Z"/>
      <path class="cls-1" d="m34.48,70.77c3.86,2.04,8.17,3.12,12.56,3.12.31,0,.63,0,.95-.02v-5.42c0-.86.7-1.55,1.55-1.55h5.77c2.1,0,3.81-1.71,3.81-3.81v-.28l-.42-.32c-.17-.13-.31-.29-.41-.47-.73-1.3-.31-2.92.96-3.69l1.16-.71v-1.35c0-1.24,1.01-2.25,2.25-2.25.07,0-2.96-4.6-2.96-4.6-.22-.33-.3-.72-.23-1.11.15-.92.23-1.74.23-2.53,0-4.23-1.7-8.15-4.8-11.04-3.09-2.89-7.13-4.32-11.38-4.03-7.42.51-13.43,6.48-13.99,13.9-.22,2.92.39,5.8,1.77,8.34,3.06,5.64,4.18,11.93,3.19,17.84m12.56,6.22c-5.3,0-10.51-1.41-15.07-4.07-.58-.34-.88-1.01-.74-1.67,1.18-5.52.24-11.5-2.67-16.85-1.66-3.06-2.4-6.54-2.14-10.06.67-8.94,7.93-16.15,16.88-16.76,5.1-.35,9.98,1.37,13.71,4.85,3.68,3.43,5.78,8.28,5.78,13.31,0,.78-.06,1.58-.18,2.43l2.99,4.54c.57.87.62,1.98.13,2.89-.45.84-1.28,1.38-2.22,1.47v1.38c0,.54-.28,1.04-.74,1.32l-1.36.83.21.16c.39.29.61.75.61,1.24v1.05c0,3.82-3.1,6.92-6.92,6.92h-4.21v5.33c0,.8-.62,1.48-1.42,1.55-.94.08-1.8.12-2.64.12"/>
      <path class="cls-2" d="m34.48,70.77c3.86,2.04,8.17,3.12,12.56,3.12.31,0,.63,0,.95-.02v-5.42c0-.86.7-1.55,1.55-1.55h5.77c2.1,0,3.81-1.71,3.81-3.81v-.28l-.42-.32c-.17-.13-.31-.29-.41-.47-.73-1.3-.31-2.92.96-3.69l1.16-.71v-1.35c0-1.24,1.01-2.25,2.25-2.25.07,0-2.96-4.6-2.96-4.6-.22-.33-.3-.72-.23-1.11.15-.92.23-1.74.23-2.53,0-4.23-1.7-8.15-4.8-11.04-3.09-2.89-7.13-4.32-11.38-4.03-7.42.51-13.43,6.48-13.99,13.9-.22,2.92.39,5.8,1.77,8.34,3.06,5.64,4.18,11.93,3.19,17.84Zm12.56,6.22c-5.3,0-10.51-1.41-15.07-4.07-.58-.34-.88-1.01-.74-1.67,1.18-5.52.24-11.5-2.67-16.85-1.66-3.06-2.4-6.54-2.14-10.06.67-8.94,7.93-16.15,16.88-16.76,5.1-.35,9.98,1.37,13.71,4.85,3.68,3.43,5.78,8.28,5.78,13.31,0,.78-.06,1.58-.18,2.43l2.99,4.54c.57.87.62,1.98.13,2.89-.45.84-1.28,1.38-2.22,1.47v1.38c0,.54-.28,1.04-.74,1.32l-1.36.83.21.16c.39.29.61.75.61,1.24v1.05c0,3.82-3.1,6.92-6.92,6.92h-4.21v5.33c0,.8-.62,1.48-1.42,1.55-.94.08-1.8.12-2.64.12Z"/>
    </g>
  </g>
</svg>