<?xml version="1.0" encoding="UTF-8"?>
<svg id="Layer_2" data-name="Layer 2" xmlns="http://www.w3.org/2000/svg" viewBox="0 0 120.31 102.38">
  <defs>
    <style>
      .cls-1 {
        fill: #4087c7;
      }
    </style>
  </defs>
  <g id="Layer_1-2" data-name="Layer 1">
    <g>
      <path class="cls-1" d="m103.92,61.83v-22.56c0-1.29-1.06-2.34-2.36-2.34h-.04l-5-12.44c-.06-.1-.12-.2-.19-.29-.25-1.13-1.31-1.89-2.47-1.8-4.76.43-9.42-1.56-12.38-5.28-.74-.9-2.03-1.12-3.03-.52-.11.01-.22.03-.33.06l-48.28,19.03c-.58.23-1.05.68-1.3,1.25h-14.66L93.91,5.38l20.97,52.12-10.97,4.33Zm-64.51-24.89l39.54-15.6c3.53,3.67,8.42,5.76,13.54,5.78l3.94,9.82h-57.03Zm59.79,60.77H4.72v-56.11h94.47v56.11Zm20.95-39.77s0,0,0,0L97.43,1.47c-.48-1.2-1.86-1.79-3.07-1.31,0,0,0,0,0,0L2.2,36.49c-.38.16-.7.42-.95.74-.77.39-1.25,1.17-1.26,2.03v60.78c0,1.29,1.06,2.34,2.36,2.34h99.2c1.3,0,2.36-1.05,2.36-2.34v-33.2l14.91-5.88c1.21-.48,1.8-1.84,1.32-3.04"/>
      <path class="cls-1" d="m14.17,61.25c4.74-1.89,8.5-5.61,10.41-10.3h54.76c1.91,4.69,5.67,8.42,10.41,10.3v16.8c-4.74,1.89-8.5,5.61-10.41,10.3H24.58c-1.91-4.69-5.67-8.41-10.41-10.3v-16.8Zm-3.04,20.67c4.58,1.34,8.17,4.89,9.53,9.43.3.99,1.22,1.67,2.26,1.67.12,0,.24-.03.36-.05.11.03.21.05.32.07h56.68c.1-.01.19-.03.29-.06,1.18.28,2.37-.43,2.66-1.6,0,0,0,0,0-.01,1.36-4.54,4.95-8.09,9.53-9.44,1.11-.34,1.8-1.43,1.62-2.57.03-.11.05-.23.07-.35v-18.7c-.01-.12-.04-.23-.07-.35.18-1.14-.51-2.24-1.62-2.57-4.59-1.34-8.18-4.9-9.53-9.44-.34-1.11-1.46-1.8-2.62-1.6-.11-.03-.22-.05-.33-.07H23.62c-.12.01-.24.04-.35.07-1.15-.18-2.26.5-2.6,1.6-1.36,4.54-4.95,8.09-9.53,9.43-1.11.34-1.8,1.43-1.62,2.57-.03.11-.05.23-.07.35v18.7c.01.11.04.22.07.33-.19,1.14.5,2.25,1.62,2.59"/>
      <path class="cls-1" d="m51.96,60.3c5.22,0,9.45,4.19,9.45,9.35s-4.23,9.35-9.45,9.35-9.45-4.19-9.45-9.35,4.23-9.35,9.45-9.35m0,23.38c7.83,0,14.17-6.28,14.17-14.03s-6.34-14.03-14.17-14.03-14.17,6.28-14.17,14.03c0,7.74,6.35,14.02,14.17,14.03"/>
      <path class="cls-1" d="m25.98,68.48c.65,0,1.18.52,1.18,1.17s-.53,1.17-1.18,1.17-1.18-.52-1.18-1.17.53-1.17,1.18-1.17m0,4.68c1.96,0,3.54-1.57,3.54-3.51s-1.59-3.51-3.54-3.51-3.54,1.57-3.54,3.51,1.59,3.51,3.54,3.51"/>
      <path class="cls-1" d="m77.94,68.48c.65,0,1.18.52,1.18,1.17s-.53,1.17-1.18,1.17-1.18-.52-1.18-1.17.53-1.17,1.18-1.17m0,4.68c1.96,0,3.54-1.57,3.54-3.51s-1.59-3.51-3.54-3.51-3.54,1.57-3.54,3.51,1.59,3.51,3.54,3.51"/>
    </g>
  </g>
</svg>