<svg xmlns="http://www.w3.org/2000/svg" viewBox="0 0 615.8 851.8">
  <g id="Colombia">
    <g id="san-andres">
      <g id="Layer_2-2" data-name="Layer 2">
        <g>
          <path id="CONAR" class="cls-1" d="m48.25,502.65l4.6,3.1,1.5,1.6.1,1,.3,1.1.6,1.8.1.6v.5l-.2.6-.6,1.8-.1.4v.5l.1.5.8,2,3.7,5.3.1.5.2,1.7.2.4.5.5,1.4.6,1.6.4,1.8.6,1.2.1h.9l2.4-.8h1.6l1.5-.6.8-.6.3-.3,1.4-.2,1.4-.2,1-.3.1-.2.5-.3.2-.2.3-.1.9-.1.6-.1h.8l.5.1.9.4,4.6,2,.5.9-.1,1.5-.8,1.2-.2.8-.2.3-.1.5.2.4.4.4,3.1,2.3.7.4.5.2,1,.5.7,1.3-.6,1.5-.1.2-.3.1-.6.2-.2.2-.2.4v.4l-.4.8-1.8,1.5-.8,2-.1.5v.7l.3.8-.1.7-.2.8-1.3,3,3.1,1,.4-.2h.2l.4.2.6.3,2.5-.9h.9l.8-.3h.3l.2.1.2.3.4.3.9.2.6.1.5-.1.4-.2.5-.5.4-.3.6-.6.3-.2,1.6-.4,2.1-.3,1.6-.5.5.2.3.2,1.6,2.5,1.5,2.2.5.4.2.2.3.4v1l-.3,1-.2.5-.6.7-.5.6-2.5,1.5-.2,1,.3,4.3.5,2.4.1,1.9-1.6,1.4h-.9l-.2-.3-.1-.2h-.2l-.1.2-.1.6.1,1.1v.6l-.2.4-.7.7-.6.4-3.6,1.3-.8.3-.1.7-.1,2.2.3,2.8.1.3h.5l.3.1,1,.8.7.2.2.2.1.5v.4l-.4,1.4-.2.4-2.5,5.3-1.4,2.5-1,.6-.9,1.3-3.1,3.9-1.1,1.1,2,2,2.4,2,.9.6.8.3.3.4.2.5v.8l-.2.3-.2.2-.2.1-.2.3v.5l.1.6,1,2.3.2.8.1,1.5.5,1,.1,1.1-.1.3-.1.4-.3.2-.2.1-.2.8-.1.3-.6-.1-.9.1-2.6,1h-1.1l-.8-.2-.7-.4-1-.3-5.4-1.1-1.7-.7-1.4-1-.5-1.3-.2-1.5-.5-1.7-.3-5.4-.7-2.4-2.1-.5h-.2l-1.5.2-1.9-.7-3.3-2.3-1.1-1.6-.3-3.7-1.5-1.1-1.3-.1-4,1.6-1,.2h-1l-1.1-.3-1.2-.4-.5-.5-.1-.5v-.6l-.2-.5-.5-.5-.2-.1-.3.2h-.6l-3.4-1.3-3.6-.2-2.1-1-6.6-5-1.1-.5-3-.8-.9-.5-1.2-.9-4.8-5.3-.6-.5-.3-.3-2.8-.6-.8.1-.7.4-.3-.8-1.1-1.2-.2-.5v-1l-.5-.1-.7.2-.8.2-1.2-.4-1-.8-.8-1-.5-1.1-.5-.9-1.5-1.2-1-1.5-3-2,.8-.4-.4-.9-.6-.5-.7-.5-.4-.5-.1-.8.1-1v-.9l-.3-.8-.4-.1-.6.3-1,.5-.4-.5-.6-.5-.6-.1-.5-.4-1.1-.6-.5-.3-1.3-.8-.7-.8-.5-.7.3-.9.4-.5.8-.3.9-.2.9-.9.8-1.5.7-.9,1.3-1.3,1.1-1.2.7-.8,1-.8,2.4-.6,1.1.2.9-.1,1.1.3,1,.4,1,.3,1.7.1,1.2.2,1.4.2.3.1.3.5.5.3.5.2.5-.1v-.7l.1-.4.1-.8.7-.8.4-1.3-.4-.8.1-.7v-.2l.2-.3.1-.3v-.4l-.1-.3-.2.2-.3.6-.7.4h-1l-.3-.7v-.9l.2-1.1v-.7l.3-1.3.1-.6-.2-.4-.4-.5-.5-.5-.5-.2-.6.4-.4.6-.5,1.6-.6.3-.4-.4v-1l-.2-1.4-.6-1.8-.5-2.4-.4-1.7-.2-2.2.6-1.2.6-1.4.4-1.3,1.4-.6.4-1.4,1.5-2.7,1.1-2.2.6-1.5.7-.8-.3.8v.9l.1.8.2.9.8-2.3.4-2.5.6-1,.9.3,1.3-1.6,1.2-1.5,1.3-1.8,1-.4.9-.9,1.1-1,1.3-.8h.6l.5,1.2.6,1.4.8,1.3,1,1.4,1.2.1-.6-1.8-.3-1.4.1-1.6.4-.7.7-.7.6.9.4,1.5-.3,1.2.5.8.4,1.1.4.9.8.8.4.3,1.8.9.8.3.5-.1.9-.5,1-.3v-1.1l.1-.3.1-.2v-1.8l-.2-.8-.2-.8-.5-.8-.3-.9.5-.5,1.1.2h0Zm-2.9,1l.1.3,1.2,1.4.4,1.1.1,1.7-.6,1.4-1.4.4-1.1-.7-1.4-1.4-1.1-1.5-.5-1.1.2-.7.3-.3.3-.3.3-.5-.4-.6-.7-1.3.1-.6.5-.3.8.5,1.2-.4,1,.6.3.9.4.5.1.6-.1.3h0Z"/>
          <path id="COPUT" class="cls-1" d="m97.35,618.85l.1-.3.2-.8.2-.1.3-.2.1-.4.1-.3-.1-1.1-.5-1-.1-1.5-.2-.8-1-2.3-.1-.6v-.5l.2-.3.2-.1.2-.2.2-.3v-.8l-.2-.5-.3-.4-.8-.3-.9-.6-2.4-2-2-2,1.1-1.1,3.1-3.9.9-1.3,1-.6,1.4-2.5,2.5-5.3.2-.4.4-1.4v-.4l-.1-.5-.2-.2-.7-.2-1-.8-.3-.1h-.5l-.1-.3-.3-2.8.1-2.2.1-.7.8-.3,3.6-1.3.6-.4.7-.7.2-.4v-.6l-.1-1.1.1-.6.1-.2h.2l.1.2.2.3h.9l1.6-1.4h1.7l4,.3,1.3-.3,1.4-.8,1.1-1.3,2.7-4,.8-.2.8.3.9.6,1.7.7.8,1,1,1.5.1.6.9.8.6,1.4.2.7v.7l-.2.9-.9,1.7-.2.9-.2,4.4.5,2.2,1.2,1.9,1,.7,3.6,1.1,2,1,1.6.3,7.1.2.8-.2.5-.3.5-.4.6-.5.7-.3.7-.2,1.6.1.9-.2.4-.5.3-.6.5-.5h.1l.7-.1.7.1,1.4.6h.9l1.9-.2.9.2.7.6.2.6v.7l.1.9.6,1.1,2.8,3.3.9.5,2,.2,1,.5.9.6.9.3h1l3.4-.2,2.3.2,2.1,1,3.1,3.3,2,.7,4.3.3,2.8-.4,1,.2,1.2.6.6.3.4.5.2.5-.1,1,.1.5.4.8,1.2,1.4.4.9v.8l-.4,1.7.2.9.7,1.7.8,1.1,1.1.4,1.7-.4,1.2-.5h.6l.7.3.1.3.1.8.2.3.5.1h.5l1-.3,1.9.4.6,1.4-.4,3.4.2.7.7,2.3.2,1.7.4.5,2.2.8,3.2,1.7,5.7,1.1,1.8,1,1.3,1.5.3,2.1-.3.6-.5.6-.2.6.7.4,1,.4.2.2-.2.4-.7,1.3-.3.4-.1.3.6,1.1.1.4.1.9.2.7.4.2.4-.1.8.2.4-.1.3.1.5.2.2.4.4,1.1.2.4.8.4,1,.4,1,.1.8-.1.9-.2.5.2.4.3.9.1.7-.3.5-1.5.8-.3.8.3.3.8v.8l.4.6h.8l1.8-.7,1.1.2,1.8.9.5.4.3.5.1.4v.4l.5,1.5.2.4.4.5.6.3.4-.1.4-.2.5-.1.5.1.3-.1h.3l.5.3.2.3.2,1,.3.3.9.1.9-.4.9-.3.9.5,2.7,2.1,1.7,1.9,1.1.8,2.4,1,3.9,1.1v.1l-27.8,8.6-.1-.5-.1-.6-.3-.2h-.6l-.3-.1-.5-.7-.6-.8-.6-.5-3.1-1.8-1.3-1.1-2.2-2.2-1.4-2.4-.5-.4-.5.1-.4.2-.4.3-.2.1h-.7l-.3-.2-.2-.3-.2-.2-.4-.3-.2-.2-.3-.2-1.3-.1-1-.2-.5-.1-.9-.3.4-.7,1.4-1-1.7-3.6-.7-1-1.1-.9-.6.1-1.3,2.1-.5.4h-.5l-.9-.3-1.7-.3-1.1-.5-.7-.5-2-2.3-.4-.2-.4-.2h-.9l-.5-.1-.5-.6-2-2.7-1-.8-1.1-.5-2.2-.7-1.1-.1-.7.2-.5.5-.2,1-.3.6-.6.8-.8.6-.7.3-1-.6-3.2-1.2-2.8-.5-1-.7-1.2-.4-3-1.8-2.4-2.2-.9-.3-.5-.3-.6-.7-.8-.7-1-.4-1,.1-2.2.5-1.1.2-1.2-.1-1-.3-.8-.3-1.4-.8-2-1.5-.5-.7-3-1.9-1.3-1.2-.6-.8-.2-1-.2-.6-3.4-4.3-.3-.6-.4-.8-1.2.2-1.3.4h-.9l-.3-.4-.2-1.3-.3-.5-.5-.2-.5-.1-1.1.1-1.3-.1-1.1-.2-1-.5-1-.6-1.4-1.5-.5-.2-.5.1-.9.7-.3.2-.3.2-1.2,1.5-.5.2-.6.1-1.1.1-.4-.1v.3l-.1,3.8.5,3.4-.9.6-5,.5-1.3.7-.8.1-.9-.3-1.4-1.3-.8-.5-.7-.2-2.5-.3-1.7-.5-.7.2.2,2.1h-.8l-1.8-.8-.7-.1-3.5.5h-.7l-.8-.3-.8-.6-1.1-1.1-.6-.4-.8-.3-.6-.1h-2l-1.6-.5-1.9-2.2-1.1-.3h0Z"/>
          <path id="COCHO" class="cls-1" d="m103.35,217.15l.1.2.6,2.4.3.9.3.9.3,4.3-.3,1.1-.3.5-.2.9-.9.7-.4.5-.4.7-.9,5.2-.7.8-.8.5-1,1.1-1.1.7-1.4-.2v2.1l.1-.1.1.2.1.3.1.2h-.1l-.2.1-.3.1-.1.2.4.7.5.7,6.5,5.9,5.2,3.7,5.3,5.8,4.1,5,1,.8,1.3.9,1.8.2.7.3.5.4,2.3,1.9.6.9,1.1,3.2.2,5.7-.2,1-.2.4-1.7,2.9-1.2-.1-.7-.4-.9-.3-4.2-1-1-.1-3.3.3-1.4.3-1,.4-.8.4-.2.7.2.4.2.7.2.2.3.1.3.3.3.5.2.8.3,2-.3.7-.4.6-.7.6-.1.3-.5.2-2.4-.2-1.6,1-.7.1-1.5.4-.7.3.1.5v1.9l.2.5.7.6.2.5-.1.3-1,1.1h.9l.4.1.1.4.1.6.1.3.3.2.6.1-.1-.3.4-.5.5-.4.2.3-.1.5-.2.4v.5l.3.6.4.1,1.1.1.3.3-.1.7-.3.1-.4-.3h-.3l-.4.8-.1,1,.2.6.7-.3.7.3.5.6.2.7v.9l.5.5.4.6.4.5.7-.2,1.2,1.5.1.4-.5.5-.3.7.1.5.8.2-.1.3-.2.2-.3.2h-.4l.4.8.4.6.1.6-.6.8h.3l.4.3-.4.5-.3.9-.1,1,.1.8.4.3.4.2h.4l.2.2.2,1.1.1.3,1.4,1.5.6.9.1,1,.4.5.1.2.7.5,1.3.4,1.3.1,4-.1,2.3-.5,2.8-.3,2.4-.2,1.7-.4,1.9-.2h2l1.7.2,1,.7.4.9.5,3.1,1.2,3.1,1.4,1.9,1.3.5h1.3l1.3.6.3,2.4-1.4,3.4-.1,1.3.3,1.3.3,1.2,1.4,2.3.4.8.2,1.3-.6,2.1-.1.8.5,1,.3.4,2,2-1.9,2-.1,1.4-.6,2.8-2.6,1.6-1,.8-.9,2.9.1,2.2,4.2,6.8.5,1.8-.1,1.5.8,1.3-.1,2.5-1.5,1.4-.5.4-.8.9-.5.6-1.3,3.7-.1.4-2.1,2.3-4.1,3.6-.4.5-.4.6-.2.7-.1.6.3.5.2.8-.7,1.1-1.5,1.6-1.4.9-2.7,2.4-.4.8-.8,2.7v.6l.4.9.1.9-.7,2.3-.7.6-.3.2-.4.2-.5.1-.6.2-.9.2h-.4l-.6-.2h-.2l-.1.2.1.4.9,1.6.5.6.5.5.4.2.2.3.1.5-.3,2.4.2,1.3,2.1,1.1.8.8-.2.6-.1.3-1.4,1.4-1.2.3-1.2.6-1.3,1.4-1.2,1.6-.2.5v.4l-.1.3-.3.2h-.6l-2.5-.6h-.6l-.6.2-.7.8-.9.6-1.6,1.7-.7.2-.9-.1-1.6-.7-.7-.2-.5-.3-.2-.2v-.2l-.1-.1-.7-.2-1.6.2-1.3-.6-2-3.3-.6-.6-.6-.2h-.5l-.7-.1h-.3l-.3.1-.4.6-.4.3-.5.1-.5.1-1.1-.2h-.8l-.2-.1-.6-.8-2.2-2.3-.6-.1-1-.7-.4-.1h-.5l-1.2.4-.3.1-.2.3-.4.1h-.3l-.5-.4-.4-.4-.3-.4-.1-.5v-1.3l-.3-.8h-.1l.9-1.2h-4.2l-.8-.2-.7-.8-1.9-3.1,1.4-2.1.3-.8.4-2.1.5-.8,1.2-.6v-.3l-1.1.3.2-1.4.5-2.4.1-6.9.1.4.2.4.3.3.4.3.2-.5.1-.9-.1-.7-1.2-.7-.2-.6-.1-.8-.1-.7,1.1.1.9.6.7.9.4.8h.3l-.6-1.6-2.1-2.6-.3-1.7-.3.1-.6.2-.2.1-.5-2.1-.6-6.5-.3-.9-.3-7.6.3-1.7.4-1.7.7-1.5-.8-.4v-1.1l.1-1.1-.2-.6-.5-.4-.3-1-.1-2-.7.2-.5-.2-.2-.6v-.8h.4l.2.2.2.1h.2l.4-.3-.5-.4-.2-.4-.4-1.6.1-.2-.1-.2-.3-.3-.2-.1-.8-.2-.4-.1-.5-.5-.4-.6-.4-.4-.7-.2h-.8l-.5.1-.3.4-.2.5-.6-.5h-.6l-.5.2h-.4l-.3-.6.1-.5.5-.3.6-.1.5-.5,1.1-2.5.6-.8.5-.1,1.1-.1.5-.1.6-.5.5-.4.5-.4.7-.1.9.3.8.5.8.3,1.1-.4.4-.3.1-.3v-.4l.3-.4v-.2l-.1-.6.1-.3h.5l.3.1.2-.2.2-.6.6-.4.6-.4.5-.4.3-.5.3-.6.2-.6.1-.6-.2-2.1-.7-1.8-2.1-3.3-.2-.2-.3-.2-.1-1.2-2-5.4h-.4v1.3h-.3l-.8-2.2-1.3-2-3.1-3.8-.5-.9-.2-.7v-2.1l.4-1.8v-.9l-.4-.6.4-.3,1.9,1.6,1.2,1.5.5-.4.5-.8.7-1.9.2-1v-1.6l-.2-.6-.9-1.3.1-.4,1.2-.4.1.3.2.2.2.1.1.1.3-.8-.2-.7-.5-.5-.6-.4v-.4l.8-1.3.2-.8v-1l.7-.8.2-1.1-.1-1.2-.4-.8-1.7-1.3-.4-.4-.2-.4-.3-.3-.5-.3v-.6l.3-1.1v-.6l-.1-.7-.4-.2-.5-.2-1.7-.9-1.2.2-1,.8-.6.8.2.3.1.4-.4.1-.2.1-.4.2h-.3l-.1-1.3.1-.6.3-.6-2.1-4.5-1-1.4-1.5-1.4-.7-.5-1.4-.3-.2-.3-.2-.2-.6.2-.1.3v.5l-.1.4-.5.2-.2-3.5.4-1.5,1.4-.6.6-.9-.6-2-1.6-3h-.3l.3.6.2.2.2.2v.4h-.4l-.8-1.2-3.8-4-.5-.3-.9-.1-.5-.3-.3-.6-.4-.6-.7-.3.3-.3-.6-.2-.6-.5-.5-.6-.4-.5-.4-.1,2.1-6.6,1.8-5.7,1.2.2,1.1-.1,1-.6.7-1,.5-1.3-.1-.7-.2-.2v-.3l-.1-.1v-.1l-.1-.3-.1-.2-.4-.9-.3-.5-.5-1.6v-.2l-.1-.6-.1-1.4.3-1.8.8-.5.4-.2.5.3,2.6,2.1.5.6-.1.1-.2.5v.2l.2.1.4.1.1.1,1,1.4.4.5.4.7.5,2.1.1.5.6.5h.2l.9-.1,1.3-1,1-1,1.3-1.3.3-.2.8-.5,6-3.8,1.5-1.3-.3-1-.7-.6-.4-.3-.6-1.5.1-.7,1.5-1.8v-.1l1.3-2.9,1.1-1.1,1.5-.8,1.6-.5.1-.1,1.6-.3h1.8l.3-.2-.4-.8-.5-.5-.5-.4-.5-.5-.3-.7-.1-1v-.2l-.7-2.5-.4-1.5-1.5-2.9-.4-.7-.1-.1-1.2-1.8-1.1-2.3-.4-.5-.7-.3-.6-.1-.7-.2-.6-.9-.4-1.8-.4-3.5-.7-1.8-.9-1.4-.5-.5-.9-.3-1.5.2-.4-.3v-1.2l.4-1.5.3-.4.2-.2,1.4-1.4.1-.1.1-.3.5-1-.1-.9-.2-.6v-.3l.9-.6.8-.1.3-.1h.5l.5-.4.1-.5v-.4l.1-.2.1-.1.1-.1v-.1l.3.1.2.2.3.2.5,1.8.6,1,.6.6.6.7.4.7.3,1,.5,2,.4,1,3.3,2.3,2.5,1,.8.6.5.6,4.1,6.8,1.1.8.7.1,1.4.1h.2Zm-22.7,209.1h0l.1-.8.3-.6.6-.5.7-.1.7.1.5-.1.2-.7.2-.4.5-.3.6-.2.6.2.8,1,.3.1.8-.2.7-.4v.3l.1.4-.1.2-.1.3-.3.2-.3.2-.3.1-.4-.1-.2-.1-.6-.7-.5-.1-.6.1-2.3,1.8-2,.3h0Zm4.1-5.7l1.1.5,1-.1,1.1-.2.9.2-.9,1.4-.6.6-.7-.2-.9-1.1-1.2.4-1.2.2h-2.7l-1-.2-.6-.1-.8.2-.4.3-.4.5-.3.4-1.9.6-.2.1-.2-.4v-.7l.2-.7.5-.3.7-.2,1.1-1,.6-.2.7.1,1.2.3h.7l-.2-.4-.8-.6-.3-.4h1.7l-1.2-.3.1-.5.9-.6.9-.4-.3-.1-.2-.1-.2-.1h-.4l.1-.3.1-.1.2-.3,1.4.7.7.6.6.7.4.9.7.9h0Z"/>
          <path id="COGUA" class="cls-1" d="m465.25,550.35h0l-.2-.2-1.6-.8-2.3-.7-2.4-.2-1.5-.5-2.6-1.4-5.4-4.4-.3-.9.1-.8,2.1-5.3.6-2.6.2-2.2.1-1.1,1.5-1.2,2-1.3.4-.5,1.3-.8.3-.8-.1-.3-.2-.3-1-1.2-.9-1.4-.7-.5h-.6l-.6.4-.8.3-1.5-.1-.6.1-.2.3v.2l-.3.1h-.9l-1.5.5h-1.2l-.6-.2-.3-.3-.3-.2h-.7l-.9.3h-.8l-.4.2v.7l-.1.5-.5.3-.7-.3-1.2-.7h-.6l-2.8-.9-.7-.1-.7.2-.7.3-.3.2-1.9.3-.1-1-.4-.5-.5-.3h-.3l-1.1-.3-2.5-.7-1-.7-.6-.7-.7-1.5-2.1-4.1-2.5-3.5-1.1-1.1-1.1-.6-1.2-.4-2.5-1.3-2.9-.9-.5-.5.1-.4.6-.5,20.1-8.3,1.6-1.4,4.3-1.8,1.2-.7.6-.7.1-.6.2-.6.4-.6,2.6-1.6.3-1v-1.1l-.2-1.1-.5-.8-.1-.5.2-.3.5-.2.6-.3.2-.4-.1-.5-.4-.3-.5-.2-.7-.1-.5-.1-.2-.3.3-.3.4-.3.4-.4.9-1.5,1.1-1.3.7-.6,1.2-.7.2-.4.2-.2h.2l.7.6.4.2.7-.3.1-.6-.2-.6.1-.7.2-.2h.2l.2.4.2.5.1.4.3.2.5-.3.2-.6-.1-.8-.8-1.4.1-.9.4-.3.5-.1h.3l.1-.3-.2-.4-.4-.6-.7-.6-.4-.6-.1-.7.7-.8.4-.5.2-.7.3-.2v-1.3h2.1l.5-.4.4-2.2.3-.8-1.1-1.6-.3-.5,1-.3h1.4l1.2.1.6.4.2.3.5.3.6.1.5.1,1.4-2,.5-.6.7-.4.9-.1.5.2.4.5.2.6.2.3.1.2.4-.4.5-1,.8-.1,3.5.1,1.3-.2.9-.3h.8l1,.8.9.8.5.2.3-.5.2-2.6.3-.5h.7l.9-.8.2-2-.1-.5-.4-.4.2-.5.5-.3.9-.1.8.1h1.1l1.2-.2,1.5-.7,1-.3.8.3.5.5.5.5.4.2.4-.2.9-.3,1-.2,2-.6h1l.9.6h.4v-.7l.4-.6.7-.2.6.4.4.6.4.5h.6l.6-.1.3.1.6.7.9.3.3.3.1.3-.1.7.1.1h.4l1.2-.9.6-.2.5.3.4.2.5.4.4.1-.2,1.4.3.2.2.4.5.3.7-.2.5-.5.7-1.1.6-.5.6.3,3.3.4.7-.4-.1-2,.3-.8.4-.2h.3l.3.1.4.1v.4l.1.2.2.2h.9l1.7-.9.6-.2.5.3.6.8,1.1-.1v-.9l-.3-1,.7-.5h.5l1,.3h.6l.6-.2.2-.6-.1-.7.1-.6.4-.1,1.1-.2,1.1-.9.6.1.9.4.8.3,1.6-.2.6-.3.5-.5.5-.4.6.1.6.4.5.1.3-.2.4-.8.6-.8.8-.6.7-.2.6-.1.3-.1.2-.5.6-.4.6-.2h.4l-.5-.7-.2-.6.3-.7,1.1-.2h2.2l.4-.3.2-.8.3-.9.6-.6-.3-.6-.6-.8v-.8l.7-.4h1.1l2.2.4,1.1.4.3,1.1.1,1.2.4.8,2-1.1,1.3-.5.5.7-.2.5-.3.5-.1.5.3.4.7.2.6-.4,1.2-1.4.4-.5.6-1.3.4-.6.7-.2.5.5.7,1.3,1,.7.7-.3,1.1-1.8.3.7.1,1.8.3.6.6.1.7-.3,1.2-.9,1.8,1.1,1.9.7,2-.1,2.1-1.5,2.4-3.4.7-.5.9-.4.3.2.5,1.2.1,3.1.3,1.1,2,3.5.5,1.3v.1l-.1.2v.2l.1.2-.1.2.1.1v.2l.1.1.1.1.1,1.1.3,1.2.9,1.1,1,.4.9.1,1-.2,1-.1,1.9.9,1.5,1.9,1.2,3.4-.1.1v.2l.1.2.1.6v.3l.2.1.2.1.1.1.1.1.1.2v.6l.1.1.1.2.1.1.1.1h.1l.7,1.9v.7l.1.3v.3l.1.2.1.3.1.2.1.1.1.1.2.1h.8l.1.1h.2l.1.1.3.2.1.1.2.1.2.1h.2l.2.1.3.2.1.2.1.2.1.3v.3l.1.2.1.2.1.2.1.1.1.1.1.2.1.2v.1l.1.2.1.1v.2h.1v.4l.1.3-.4.6-.2.1-.1.2-.1.1v.1l.1.1-.6.8-1.5,1.9-.1.1h-.2l-.2.1-.1.1-.2.3v.4l-.7.9-.6.5-.6.2-1.1.2-.6.3-.9.9-2.2,2-2.2,2-2.1,2-2.2,2-2.2,2-2.1,2-2.2,2-2.2,2-.6.6-.7.6-1.2,1.1v3.8h.2v.1h.2v-.1h.1v-.1h.7l.1-.1v-.1h.1v-.2l.1-.1v-.1l.1-.1v-.1h-.1v-.1l.1-.1v-.1h.1v-.1l.1-.1v-.1l.1-.1v-.1l.1-.1.1-.1.7-.2h.1l.2.1h.1l.1.1h1.1v-.1h.1l.1-.1h.5l.1-.1.1-.1h.1l.1-.1h.7l.3.4-.1.1-.1.1v.1l.1.2v.1h.2l.1.1.1.1h.2l.2.1h.4l.1.1.3.1.2.1h.4l.2.1h.1l.1.1h.8l.1.1h.1l.1.1h.2l.1.1h.1l.1-.1h.2l.1-.1.1-.1v-.1l.1-.1.1-.1.1-.1h.1l.2-.1h.2l.1-.1h.1l.9.7.7,1.2.4.9.3,2.3.3,1.1.3.3v.9l.1.1v.2l.1.1h.1v.1l.1.1.1.1h.3l.1-.1v-.1l.1-.1.1-.1.1-.1.2-.1v-.1h.1l.1-.1h.3l.1-.1h.1l.1-.1h.3l.1.1h.1l.1.1h.1l.1.1h.1l.1.1h.1l.1-.1h.6l.3.3.1.3.1.1.3,1,.1.2v.1l.1.1v.2l.1.1.1.1h.2l.1-.1,1,.5.2.3.2.5.8.9.2.2.7.2.3.5.3.5.3.6.5.3,1.1.7.5.4.2.4v.2l.1.1.1.1v.1l.1.1v.1l.1.1.1.1.2.1.1.1h.1v.1l.1.1.1.1v.2l.1.1h.1v.1h.1l.1.1h.1v.1l.1.1v.4l.1.2v.1l.1.1.1.1v.1h.1l.1.1h.3v.1h.1v.1h.1l.1.1.1.1.1.1h.3l.1-.1h.3l.1.1h.1l.1.1v.1h.1v.1l.1.1v.1l.2.1.1.1.1.1h.1l.1.1v.1h.1l.1.1h.1l.1.1h.1l.2.1.1.1h.1l.1.1.1.1v.1l.1.1h.1v.1l.1.1v.5l.2.1.1.1.1.2.1.2v.1h.1l.1.1.1.1.2.2.1.2.1.1.1.1.1.2v.3l-.1.1-.1.1-.1.2-.1.2v.1l-.1.1v.1l-.1.1h-.1v.1h-.1l-.1.1-.1.1h-.1v.1h-.1l-.1.1h-.1v.1l-.1.1v.1l-.1.1v.5l.1.1v.1h.1v.4l-.1.2v.4l-.1.1-.1.1v.1l-.1.1v.4l.1.1v.1l.1.2.2.2v.1l.1.1.1.1v.1l.1.1.1.1.1.1v.2h.1v.7l.1.1.1.1.1.2v.5l.1.1v.2l.1.2.1.2.1.2v.1l.1.1v.1l.1.1.1.1v.1h.1v.2h.1v.1l.1.1v.1l.1.1v.1l.1.1.1.1.1.1.1.1.1.1v.1l.1.1v.1h.1v.1h.1v.1h.1l.1.1h.2l.1.1h.1l.1-.1h.1v-.1h.1l.2.1.8.4.3.8.2,2.8-.2.8-.2.4-.8,1.1.1.6.4.5.1.2.1.1.1.1.4.7,1,.6.2.4.1.6.9,1.7,1.5,3.9v.4l.1.2v.4l.1.2v.3l.1.1v.1l.1.1v.1l.1.1h.1l.1.2.2.1v.1l.4,1v.6l.1.1.1.1.2.2,1.2,3.3.1,1.1v2.2l.2,1,.5,1.1,1.1,1.8.5,1.1.2,1.1-.4,2.1.2.7.5.5.6.5.5.5.5,1,.4,1.3.1,1.2-.9,1.9.2,1.2,1.1,2.1-2,.4-3.3.9-4.4,1.3-1-.2-.5-1.3-.1-2.6,1.2-14.6-.5-3.2-1.7-5.4-2-3.9-5.5-7.3-1.2-2.2-1.6-4-1-1.8-1.3-1.3-.8-.4-2.2-.8h-.7l-.5.2-.9.9-.4.3-1.8.2-.9.5-1.4,1.2-1.9,1-3.9,4.1-6.1,8.1-1.5,1.5-2.1,1.1-1.6.6-1.8.4-1.8.1-1.7-.5-1.7-1.4-1.4-2-1-2.2-1.1-3.2-.5-.9-.8-.7-1.2-.5-1-.2-.4-.2-.4-.4-.1-.4v-1l-.3-.3-.4.3-3,7.6-1,1.5.3.2,1.3.2.5.6-.1,1.1.1.9,1.9.1.4.2.1.5v.6l.1.3.4.3.9.5h-60.2l-2.1-.2-3.8-1.7-3.7-.7-2,.1-3.4,1.6-2.1.1-1.1-.1h-.9l-.9.2-2.1,1.1-1,.3h-1.7Z"/>
          <path id="COVAU" class="cls-1" d="m465.25,550.35h-.7l.3,1.9v13.9l-.1,3.5v13.5l1.1.1,2.1-1.4,1.3-.3h.7l.6.1.4.3.1,1.1.6.1,4.8-.7,1.2.1,2.2.7.5.1h1.7l1.6-.3.5.1.4.2.3.2.1.3.3.2.9.6.5.1,2.4-1.8.8-.2.9.2,2.5,1.3.7.5.9,1.1.9.5.3.4.2.5v.6l.2.5,1.1.7-.3,1.8.8.8,1.2.4.6.4.3.4v.7l-.4.2-.4.1-.4.2-.1,1,.5,2.3v1.2l-.3.5-.5.4-.4.4.1.7.4.4,1.1.5.4.4.6,1.1.2.9-.3.7-1,.3-.5-.1-.9-.3h-.5l-.4.2-.6.8-.3.2-.9.1-1.8-.3-.9.1.2-1.4-.5-.6h-.9l-1.1.3-1,.5-.4-.2-3.5-3.6-1-.6-1-.3-1.3.2-1,.4-1.6,1.1-1,.1-1,.4-.5,1.2-.7.8-1.7-.3-1.4-.7-.8.1-1.9,1.5-1.8.9-1.9.7-2,.4-3.5.2-1,.3-.9.2-1.2-.2h-1.2l-1.1.5-.9.3-.8-.7-.1,3.5v1.3l-.1,3.4-.1,4.8-.2,5.5-.1,5.5-.2,4.8-.1,3.5v1.2l-.1,2.6.3,1.8.6,1,2,2.3,2.6,2.4,1.1,1.6.5.5,1,.4,2,.4.9.6.3.4.5,1.2.3.5.5.3,1.2.6.5.3,1.6,1.7.7.6,4.1,1.5.8.5.9.7.6.9.4,1,.3,1.2v1.5l.1.5.3.5.3.4.3.4.1.6-.3,1.2-1.6,2.4-.3.9.5,1.2,1.9,2.2.4.7-.1,1.3.1.5.4.7.4.3.4.2.3.3.3.5.1.6-.2.5v.5l.3.7.5.3,1.1.5.4.3,1.2,1.6.3.3h.5l.2.2.2.2.2.3-.1.2.3,1.9-.2.5-.3,1.1v.6l1.9,3.1.6,1.5-1.1,2.8-1.7-2-.2-.6-.3-.4-.6-.2-.2-.1h-.7l-3.6-1.8-.7-.1-2.6,1.5-.6.1-.4-.4-.4-.9-.1-1,.2-.8.4-.8.2-.9-.3-.9-.6-.8-2.1-1.8-.7-.4-.7-.2-.8.3-.4.5-.4,1.4-.6.4h-1l-2.3-.9h-1.3l-.8.5-.7.7-.9.4-1-.1-.7-.6-.1-.7.8-1.6v-1.3l.3-.4.6-.5.3-.2.4-.7.2-.6-.3-.4h-1.1l-.8.3-.8.4-.8.3-1.5-.8-.5.3-.5.6-.6.4h-.7l-.2-.1-1-.6-.6.1-.9.4-1.2,1.6.7,1.2,1.3,1,.6,1.4-.5.9-.8.5-1.1.2-.9-.3-2.5-1.9-.5-.5.1-.7.7-1.3.1-.7-.3-.7-.7.3-1.3,1.1-.9.2-.9-.7-.7-1.1-.3-.9.2-.9.6-.6,1.5-.9,1.1-1.8-1-1.6-1.6-1.6-.5-1.8.6-.7.8-.5.6-.5.1-.7-.5-1.6-.2-.8v-.9l.3-2v-1l-.2-.9-.8-.7-.9.1-.8.3h-.5l-.1-1.2,1.1-1.4,3.2-3,.4-.6-.2-.6-1.1-.6-1.2-.3h-.9l-1,.2-1,.6-.5.6.1,1.4-.4.6-.9.1-2.7-.6-2.1.1-.3-.4.2-.8v-.8l-.4-.9-.6-1-.8-.9-.8-.5-.8-.2-2.6.2-.7-.3-1-1.3-.7-.4h-.6l-1.2.2h-.5l-.6-.3-1.4-1.1-.9-.5-1.2-.4-.9.1-.5.9-.3.7-.6.5-.8.1h-1.8l-.4-.2-.3-.4-1.3-2.6-1.1-3.4-2-2.5v-.6l.2-.6.3-.9v-.8l-.3-.8-.3-.8-1.5-2.2-.7-.7-.6-.4h-.7l-1,.5-.6.1-.9-.3-2-.9-1-.4-1.1-.4-.5-.9-.4-2.1-.8-1h-1l-2.1.9-.8.1-.9-.1-.8-.3-.7-.4-1.2-1.1-1.5-1.5-1.8-.6-1.2-.7-.5-.1-1.6.4-.6.1-.4-.1-.9-.3h-.5l-.8.2-.6.3-.6.1-2.5-1.7-5.1-2.4-.6-.7-1-1.8-.6-.4-1.2-.4-.6-.8-.4-.9-.5-.8-.8-.2-1.5,1.1h-.8l-.3-.7.2-.8.3-.9v-.8l-1.1-.9-2-1.3-1.6-1.3v-1.2l.5-.7v-.8l-.3-.8-.6-.7-.8-.5-.4.2-.2.4-.4.2-.8-.6-.4-.9-.3-2-.5-1.1-.8-.5,9.5-9.9,1.5-1.3,1.6-1.6.4-.7.3-.9.8-1.1.7-.6.9-.2.8.1.7.3h.5l.6-.2,2.3-2.3.9-.7.6-.8.6-1.2.1-.5-.1-.6v-.5l.2-.5.4-.2.7.1.1-.3-.1-.6.1-.7.3-.2.3-.1.3.2.1.4.1.7.1.5.4.5.6.2.5-.1.2-.5-.3-.6-.4-.6-.3-.7-.7-1-.2-.5-.7-1.3.1-.6-.1-1.2v-.5l.1-.5.5-.4,2.3-5.5.4-1.4.3-1.3.6-1.1,1-2.5.5-1.8.4-.8,1.4-1.7.3-1.1.2-1.4.2-4.3.8-.2,1.5,1.2,1.7.6,1,1.1.5.1,1,.2.8-.6,1.1-.9.9-.9,2.4-1.8,4.2-2.2,2.6-1,1.7-.9,1.3-.8,2-2.1.8-1.1.4-.1h.4l.4.1,4.7-.1,1.9.1.6-.1.6.2.5.1.5.3.6.2.7.1.8-.1.9-.1,1.5-.9,3.4-.7,1.1-.4,1.9-.4.6-.3.5-.4.8-.7.9-.5,2-.3h.8l.6-.2h.9l1-.1,1.8-.6,2.2-.6,3-.3.9-.4.6-.5,1.2-1.2,2.2-1.5-.2,2.2-.6,2.6-2.1,5.3-.1.8.3.9,5.4,4.4,2.6,1.4,1.5.5,2.4.2,2.3.7,1.6.8.2.2h0Z"/>
          <path id="COAMA" class="cls-1" d="m486.55,699.55l.1,2.3-.8,4.7v2.3l-.9,3.5v1l-.7,2.5-.6,3.2-1.5,8.1-1.4,8.2-1.5,8.2-1.5,8.1-1.5,8.2-1.5,8.2-1.5,8.1-1.5,8.2-1.4,8.2-1.5,8.2-1.5,8.1-1.5,8.2-1.5,8.2-1.5,8.2-1.5,8.2-1.5,8.2v.1l-.1.1v.1l-.1.1v.1l-.1.1-.1.1v.1l-.1.2v.1l-.1.1v.1l-.1.1v.1l-.1.1-.1.1-1.4-2.8-.8-1.3-1.1-1.2-1.5-1.2-5.1-2.6-1.4-1.4-.5-1.7-.3-1.8-.6-1.8-1.2-1.7-1.7-1.7-1.9-1.4-1.9-.7-1.5.1-1,.7-2,1.8-1.3.6h-1.4l-2.7-.7-.5-.4-6.9-3.6-2.2-.2,1.7-2.7,4-6.2,3.9-6.2,4-6.2,4-6.2,4-6.2,3.9-6.2,4-6.3,4-6.2,1.1-1.8-.3-.1-.5-.5-.5-.6-.3-.7-.6-2.2-.6-.4-1,.7-.3.4-.2.6-.3.4-.4.1-.5-.3-.1-.4v-.5l-.1-.5-1-.8-.9.2-.8.4-1-.3-.6-.9-.7-2.2-.6-.9-1.1-.6-1,.4-1,.6-1.2.3-.3-.1-.3-.4-.3-.5v-.4l.3-.2.8-.4.3-.1.2-1.1-.6-.5-1.1-.1h-1.1l-.6.1-1.2.5-.5.1-.6-.3-.3-.5-.1-.5-.3-.5-.7-.6-.9-.4-.9-.3-.9-.1-.7-.4-.7-.7-.6-.5-.9.6-.1.5v1l-.4.2h-2.1l-.4-.2-.1-.7v-1.2l-.3-.5-1.6-1.4-.2-.1v-1.4l-.2-.4-.2-.3-1.3-.1-1-.3-1.8-.6-1.8-1.2-2.6-2.8-1.5-.9-1.1.5-1.3-.3-2.1-.9h-1.5l-.5.7.1,1.1.5,1.3-.5.3h-.6l-.6-.1-1.3-.8h-.6l-1.5.3-1.1.5-1,2.4-1.4.7-1,.8-.5.1-.6-.2-.6-.4-.5-.2-.8.3-1,.6-1,.2-.4-.7-3.6,1.8-1.7.3-.6-1,.2-.4.7-.6.2-.5-.2-.5-1.2-1.5-.9-1.6-.5-.2-.7.8-.5,1.9-.4.6-.8-.4-.4-.8v-2.1l-.3-1-.5-.4-3-.6-1-.6-1-.7-1-.6-1.1-.2-1.7.9-1,.1-.5-.8.1-1.8-.4-.3-1.1.5-2.9,1.9h-.5l-.3.5-1.8,2.8-2.4,1.9-.4.4-.2,1.1-.6.6-.9.2-3.2-.4h-1.6l-1.5.6-1.4,1.2-2.2,2.6-.8.2-3.2-.8-.5.1-1.3.2-.3.3v1l-.1.3-.4.2-1.2.1-2,.5-1.2.1-.9-.2-.9-.5-.7-.6-.2-.6-.5-.4-5.2-.8-.9-.3-2.3-1.9-.9-.4-1-.2-.6.8-1.3,2.8-.7.6-.8.3-.3-.1-.2-1.4-.1-.5-.2-.4-.3-.4-.6.3-.4.4-.3.5-.1.6-1.3-1-.9-.3-1.2.7-1.5.5-.6.6-.7.2-2.1.4h-.5l-.4-.3-.5-.8-.9-2.4-.7-.6-.2-.3-3.4-1.9-.2.5-.6,1.2-.6.6-.3-1.1-.5-.4-2.2-.6-.8-.6-.2-.3-.2-1.6-.2-.2-.7-.6-.1-.2-.1-.3-.5-.8-.1-.5.1-.5.1-.3.5-.6,1.8-1.6.5-1.1,1.5-2.5-.7-.6-.4-1.1-.3-1.2-.3-.9-.9-1.3-.3-.7-.2-.8v-.7l.6-1.3.1-.4-.3-.9-1.2-1.4-.3-.7.4-1.9-.4-.5-.4-.3-.5-.2-.4-.4-1.4-1.5h-.5l-.2,1.4-.3.1-1.7-.4-.8.1-.8.8-.4.6-.5-.1-1.3-1.1-.6-.4-.6-.1h-.6l-.7-.1-.5.1h-.3v-.2l-.2-.7-.1-.2-3.3-2-1-1.2.1-2,.6-1.7.4-.8,1.3-.7v-.9l-.5-2.2-.1-.6v-.6l-.1-.5-.4-.5-1-.8-.6-.9-1.9-.9-.4-.7.8-1,.2-.5-.8-.4-.3-.3-.2-.4-.1-.4-.1-1.1-.1-.4-.1-.4h-.2l-.7.1-.2-.1-.1-.2-.1-.6-.3-.7-.2-.6-.2-.5-1.2-.3-1-.7-.5-.2-1.2-.2-1-.5-.7-.8-.4-.9-.8.3-.8,1.3-.8.4h-.6l-.8-.1-1.4-.5-.7-.5-.5-.5-.9-1.4-.8-2-.3-.5-.8-.3-1.6.3-.7-.3-.1-.5.5-.8v-.5l-.5-.3-.2.1-.2.3-.2.3-.5.2-.3.3-.3.1-.6-.3-.4-.3-.3-.5-1.2-3.5-.5-.5-.8,1.4-1.4.1-3.1-1.2-3-.5-1.3-.8-1.2-1.5-.7-2.3-.5-.6-1.3-.9-.3-.4.4-.6.6-.2.8.2h.7l.3-.6-.3-.6-.5-.6-.3-.5.4-.9-.4-.1-.8-.1-.5-.1-.4-.2-1.7-1.9-.3-.8v-.9l.2-.5.7-.5.1-.4-2.4-5.2-.1-.5,27.8-8.6,3.9.7h.9l.7-.3,1.4-.8h.8l.9.4,1.5,1,.2.1h.3l.3.1.3.2.1.4-.2.9.1.4.2.2.2.1.2.1h.7l.6-.1.5.1.5.4.6,1.5.4.7.6.3,3.9.6,2.2-.1,2.3.1,1.1-.2.9-.5.5-.4.4-.1.9.2,1.7,1.3,1.8,1.9,2,1.5,2,.2,1.8-.4h1.3l1.2-.4,1.2-1.2,3-2.2,5.8,3.8,3.5-.6,1.8-1.2,1.5-.3,1.5.6,5.3,4.3,1.3.9,1.3.6.7-.1.5-.7.7-1.1,2.4-2.7,1.6-1.4,1.3-.5,1.6.9,1.6,1.6,1.7,1.1,2.3-.4,1.3-1.1.6-.6.2-1,.1-.3-.1-1.4v-1.8l.3-1.6.9-1.3,1.1-1.2.9-1.2,1.6-2.6.8-.8,2.7-1.5,1.9-1.9,1.3-.6,1.5-.2,6.9.1,2-.4,1.6-.7,1.1-1,.7-1.6.6-2.2,1.9-2.2,3.2-2.2,9.4-4.1,2.6-1.5,3.4-3.3,1.2,1.1.7.4.8.3.9.1.8-.1,2.1-.9h1l.8,1,.4,2.1.5.9,1.1.4,1,.4,2,.9.9.3.6-.1,1-.5h.7l.6.4.7.7,1.5,2.2.3.8.3.8v.8l-.3.9-.2.6v.6l2,2.5,1.1,3.4,1.3,2.6.3.4.4.2h1.8l.8-.1.6-.5.3-.7.5-.9.9-.1,1.2.4.9.5,1.4,1.1.6.3h.5l1.2-.2h.6l.7.4,1,1.3.7.3,2.6-.2.8.2.8.5.8.9.6,1,.4.9v.8l-.2.8.3.4,2.1-.1,2.7.6.9-.1.4-.6-.1-1.4.5-.6,1-.6,1-.2h.9l1.2.3,1.1.6.2.6-.4.6-3.2,3-1.1,1.4.1,1.2h.5l.8-.3.9-.1.8.7.2.9v1l-.3,2v.9l.2.8.5,1.6-.1.7-.6.5-.8.5-.6.7.5,1.8,1.6,1.6,1,1.6-1.1,1.8-1.5.9-.6.6-.2.9.3.9.7,1.1.9.7.9-.2,1.3-1.1.7-.3.3.7-.1.7-.7,1.3-.1.7.5.5,2.5,1.9.9.3,1.1-.2.8-.5.5-.9-.6-1.4-1.3-1-.7-1.2,1.2-1.6.9-.4.6-.1,1,.6.2.1h.7l.6-.4.5-.6.5-.3,1.5.8.8-.3.8-.4.8-.3h1.1l.3.4-.2.6-.4.7-.3.2-.6.5-.3.4v1.3l-.8,1.6.1.7.7.6,1,.1.9-.4.7-.7.8-.5h1.3l2.3.9h1l.6-.4.4-1.4.4-.5.8-.3.7.2.7.4,2.1,1.8.6.8.3.9-.2.9-.4.8-.2.8.1,1,.4.9.4.4.6-.1,2.6-1.5.7.1,3.6,1.8h.7l.2.1.6.2.3.4.2.6,1.7,2h0Z"/>
          <path id="COLAG" class="cls-1" d="m309.55,105.65l-1.2.3-2,.8-.8.2-.9.1h-.9l-.8-.2-.8-.3-.8-.2-1,.1-.9.4-.8.2-.5-.2-.2-.9-.4-.7-.5-.7-1-.4.3-.6.3-.4.6-.4,1-1.8.7-.4.6-1.8.7-.8.4-1.3.2-.6.6-.8-.5-.8-1.9-1.7-2.1-1.2-1.5-.4-1.4-.8-1.4-.4-.4-.8v-.5l.3-.7v-.6l-.2-1.4-.2-.8-.6-.9-.7-.5-.9.1-1.8-.3-1.4-.1-1.1-.2-3.3-.2-7.8,1.1-1.1-3.8-.2-2.1-.3-.7-.6-1-.1-.4.1-.5.3-1.2.3-.8.1-2.7.1-.6v-.6l-.2-.8.1-.3.2-.2.4-.1.4-.2.2-.2.7-.8.2-.2.4-.2.2-.5,1-2.9-.1-1.3v-.2h8.2l5.6-.8.5-.3.3-.5,1.6-1.2,1.3-.7.2-.2.4-.4.6-1.3.3-.2.5-.1.5-.5.7-1,.6-.4,1.6-.8,2.9-2.8,6.2-3.2,8.8-7.3.9-.5,1.9-.7,3.1-.7.7-.3,1.6-1.1,1,.3,1.1-.6,1.1-.8,1.2-.4,3-.1.9-.2.8-.5,1.3-1.1,1.7-.4,2.2-1.6,2.6-1.1.7-.8.9-.9.2-.5.1-.5.6-1.9,1.9-2.8.5-1.7,1.1-1.6.3-.6.1-1-.2-2.9-.2-1.1-.3-.4-.5-.4-.4-.3-.2.1.1-.7.5-.4,1.1-.7,1.6.5,5.2-.9,1.8.4-.2,1-2.1,2.2.8.4.7,1.3.9.4,1.5-.7.3-.2.1-.6.4-.6.4-.5.5-.2.6-.1.7.1h.6l.2-.5-.2-.6-.4-.4-.2-.5.4-.5-.5-.4-.3-.4-.3-.4-.6-.2-.7-.1-.6.1-.5.3-.3.4h-.4l-.3-.7,2.3-1.6,1.9-1.6.1-.3.2-.7.2-.1.9.1.3-.1.7-.6h.4l.6.3-.9.4-.6.6-.2.7.7.8.3.2h.3l.8-.2v-.2l-.1-.2v-.3l.2-.1.7.1.2-.1,1-.5.6-.4.3-.6.2-1h-.1l-.3-.1-.2-.1.2-.5.4-.3.4-.2.5-.2h.5l-.3.9.3.5.5.4.2.7h.3l.1-.2.2-.3.1-.4-.2-.2-.4-.1.3-.2.4-.3.2-.1.6-.3.7-.2.7-.3.5-.6-.7.1-.5.2-.4.3-.4.1-.5-.2.1-.4.5-.4.5-.4h-.6l-.5.1-.4.2-.3.4.1-.8.1-.3.2-.3-.7.4-1.3,1.2-.5.5-.3-.3.5-1,.8-.8.9-.5,1.1-.2,1,.1,1.5.7,1.1.3h3.7l1,.2,1.1.5,1.5,1,.7.7.4.2.6.2h1.9l.4.2,1,.7,1.1.4,2.3.5,1.7.8.9.8.6.8.2.3.2.4.2,1,3.1,5.3.3,1.4,2,2.9.3,1-.3,1.1-.7,1.1-.6.8-1.3,1-3.5,2-1.1,1.1-.7.4-.8.3-.7.2-.3.4-.9,2.8-.3.4h-1.5l-.9.5-1.7,1.5-2,.8-1.4.4-3,.8-2.9.7-3,.8-3,.8-3,.8-2.9.7-3,.8-3,.8-1.3.3-1,.7-.8,1.3-.5.9-1.6,2.9-1.5,2.8-1.5,2.8-1.5,2.8-1.5,2.9-1.5,2.8-1.5,2.8-1.5,2.9-.6.6-.8.3-1.9-.5-1-.1-1,.2-2.9,1-2.1.1-1.1.2-.9.6-.3.5v.9l-.1.5-.4.6-1,1-.4.6-1.7,4.3-.9,1.3-1,.9-2.2,1.6-1.3,1.5-1.2,2.3-2.4,7-1.4,2.2-3.1,3.7-1,2.7-.7.9-.8.9-.8,1.1-.4,1v.2h0Z"/>
          <path id="COCES" class="cls-1" d="m274.55,84.15l7.8-1.1,3.3.2,1.1.2,1.4.1,1.8.3.9-.1.7.5.6.9.2.8.2,1.4v.6l-.3.7v.5l.4.8,1.4.4,1.4.8,1.5.4,2.1,1.2,1.9,1.7.5.8-.6.8-.2.6-.4,1.3-.7.8-.6,1.8-.7.4-1,1.8-.6.4-.3.4-.3.6,1,.4.5.7.4.7.2.9.5.2.8-.2.9-.4,1-.1.8.2.8.3.8.2h.9l.9-.1.8-.2,2-.8,1.2-.3v1.8l-1,11.2-2.7,9.1v2l-.2,1.1v.1h-.1v.3l-.1.1v.1l-.1.1v.2h.1v1.1l.2,1v.3h.1l.4.9.2,1-.4,1.3-1.5,3.3-2.8,4.3-1.3,3.5-.5.9-.8.9-2.1,1.3-.7.7-1,2.2-4,6-1.8,4.4-.6,1.1-.9.8-1.9,1.3-.6,1v1.1l.7.5.7-.1-2.3.6-.4.2-1,1.7.2,2-.6,7,.2,2.1v.4l-.4,1.4.7,2.5.4,1.2v.6l-.2.5-.7.7-1.3.8-.3.3-.2.4.2.5v.3l-.2.4-.5.5-1.8,1.5-.7.6-.4.5-.4.6-.2.5-.2.8v1l.5,1.3,1.5,2,.9,2.3.3.2.4.7-.6,2.1-1.2,1.4-.1.4.1.2.3.1.9.1.3.1.4.2.3.2.8.6.1,1.1.2.3.3.2.3-.1.4-.8.3-.4,1.5-1.2-.3-1.9v-.3l-.4-.6-.2-.8v-.2l.2-.4.5-.1.7.1,1.1.1.6.4.4.3.1,2.3-.7,3.2-.8,1.8-.4,1.5-.5,1-.4,1.1-.2,1.1.2,4,.7.4.8,1.8v2.1l.2.7.6.7,2.2.2.7,1,.5.2h.2l.2.2.1.2v1l-.2.8-.6.8-.5.6-.6.4-.9.4-.4.3-.3.6-.1.9.1,1.8-.1,1.1-.1.5-.3.4-1.1,1.5-.5.8-.5.6-.6.7-.7.7-1,.7-1.6.7-.6.2-.5-.1-.5-.2-.9-.8-.4-.2-.5-.1-.5-.2-.4-.3-.6-.7-.4-.3-.5-.1-1.9-.4-.2-.1.7.6-6.4-.3.1-1.5.2-.3.3-.6v-.5l-.1-.5-.2-.7.1-.5.3-.5.8-.9.3-.2.6-.4,1.4-1.2.4-.9v-.9l-.3-.9-.2-.3-.1-.2-.4-.3-.2-.1-.4-.4-.1-.1-.2-.1h-.4l-.2-.1-.2-.2-.3-.3v-1l-2.1-3.6-.4-1.1-.1-.7-.3-2.5.1-.5-.2-.5-.1-.9-.3-.5v-.3l.1-.2.5-.5.1-.1.1-.6.4-1,.1-.5.1-1.4-.1-.2.2-.4.5-.7.1-.3-.2-.6-.3-.4-.2-.5.5-.8.2-.8-.4-3.6-.4-1.2-1.1-2-.2-1.2v-1.7l-.2-.6-.9-1.2-.3-.5-.3-1-.1-3.4.2-1.1,1-1.8.2-1.1-.2-1.5-.6-1-1.8-1.6-.8-1,1.4-4.2.5-1,.5-1.5,1.2-1.9-1.3-1.8-1.5-1.4-.6-1.2-.3-1v-.9l-.3-.4h-.3l-.4.1h-.5l-2-.4-.6-.3-.2-.3-.2-.4-.1-.2v-.3l.1-.2.2-.3.2-.2.1-.2v-.7l-.1-.4-.1-1.8-.2-.4-.3-.3-.5-.3-.4-.4-.6-1.1-.3-2.9-.9-.8-1-.6-2.2-2-2.8-1.7,1.5-1,2.5-2.9.8-.5.8-.3,1.1-.2.4.1.4.1.6.2h.8l.4.1.7.5.4.2h1.9l.4.1h.5l.5-.2,2.1-1.3h.4l.2.1.2.3.2.3.3.3.8-1-1.6-4.9-1.4-2.4.3-.8v-.4l-.2-1.4-2.2-2-.5-.4-2.9-4-.9-.7-.7-.5-.7-.4-.5-.6-1.4-2.2-1.6-2.7-.1-.6v-.7l.2-.6.4-1.6.3-2.5.9-1.2.5-1.1.5-.6.8-1.1,1.5-1.6.6-.8.4-1.3.4-.9,1-1,.7-.6.7-.3,1.8-.3.6-.2h.9l.4.2h.6l1.9-.6,1.8-1.3.7-.2.8-.3.7-.9.5-.2h.6l.7-.1.4-.4.3-.8.2-.4.4-.2,1.5-.4,1.1-.6.4-.4v-.6l-.5-.4-.4-.2-.3-.3-.2-.4.2-.8v-.8l-.3-1.9-.2-.8-.5-.9,1.4-2.6.6-.6.7-1-.1-.7-.6-.6-.8-.4-.8-.2h-1.6l-.4-.2.3-.7,1.7-2.6v-.5h0Z"/>
          <path id="CONSA" class="cls-1" d="m273.55,243.85l-.7-.6.2.1,1.9.4.5.1.4.3.6.7.4.3.5.2.5.1.4.2.9.8.5.2.5.1.6-.2,1.6-.7,1-.7.7-.7.6-.7.5-.6.5-.8,1.1-1.5.3-.4.1-.5.1-1.1-.1-1.8.1-.9.3-.6.4-.3.9-.4.6-.4.5-.6.6-.8.2-.8v-1l-.1-.2-.2-.2h-.2l-.5-.2-.7-1-2.2-.2-.6-.7-.2-.7v-2.1l-.8-1.8-.7-.4-.2-4,.2-1.1.4-1.1.5-1,.4-1.5.8-1.8.7-3.2-.1-2.3-.4-.3-.6-.4-1.1-.1-.7-.1-.5.1-.2.4v.2l.2.8.4.6v.3l.3,1.9-1.5,1.2-.3.4-.4.8-.3.1-.3-.2-.2-.3-.1-1.1-.8-.6-.3-.2-.4-.2-.3-.1-.9-.1-.3-.1-.1-.2.1-.4,1.2-1.4.6-2.1-.4-.7-.3-.2-.9-2.3-1.5-2-.5-1.3v-1l.2-.8.2-.5.4-.6.4-.5.7-.6,1.8-1.5.5-.5.2-.4v-.3l-.2-.5.2-.4.3-.3,1.3-.8.7-.7.2-.5v-.6l-.4-1.2-.7-2.5.4-1.4v-.4l-.2-2.1.6-7-.2-2,1-1.7.4-.2,2.3-.6,3.8-.1v.1h.1l.1.1h.1l.1.1h.2v-.1h.2v-.1l.1.1h.3l.1.1h.4v.1-.1h.2l-.1.1.1.1h.1l.1-.1.1-.1v-.2h.1v-.1h.1v.1h.1v-.1h.1v-.1l1.3-.2.5-.3h.2v.1h.1l.1.1h.1v.1-.1h.6v-.1h.3l.1-.1v-.2h.2v-.2h.2v-.1h.1v-.1h.2l.1-.1h-.1v-.1h.2v-.1l.1-.1.1-.1v-.1h-.1v-.4h.3v-.1l.1.1v-.1h.2v-.2h.1v.1h.1v-.1l.1-.1h.1v-.3h.1v-.2h.4v.1l.1-.1h.1v-.1l.1-.1.1.1.1.1.1-.1h.1v.1h.1v-.1h.1v-.1.1h.2v.1h.1v.1h.6v-.3h.1v-.2h.1v-.1h.1v-.1h.2v.1-.1l.1-.1h.1v-.2h-.2v-.4h.1l.4-.5v.1h.1l.1.1v-.2h.3l.1.1h.1v.1h.3v-.1h.3v-.2h-.1v-.2h.1l.1-.1v-.1l.1-.1v-.3h.1l.1-.1.1-.1h.1v.2h.1l.1.1v-.1h.1v-.2h.1v-.1h.1l.1-.1h.3l.1-.1h.2l.1.1v.1h.1v.2h-.1v.2l-.1.1v.1h.1v.1h.3l.2.6-.1.1.1.1v.1l.1.1.1.1v.2l-.3.4v.2l.2.3.2.1-.1.1h-.3v.3h.4v-.1h.2l.1.1v.1h.1v.1l.2,1.2-.1,2.2v.1h-.1v.1h-.2v.1h-.1v.1l.1.1h.2v.1h.1l.1.1h.1l.1.4.9,1.3.4.1h-.1v.1h-.1v.2l.1.1v.1h.5v.1h.1v.2l.1.1h.3l.1-.1h.2v-.1h.1v-.2h.1v-.1h.3l.1-.1h.1v-.1h.7v-.3h.5v-.3h.1v-.2h-.2v-.1h.1v-.1h.1v-.1h-.1v-.2h.1v-.3h.1l.3-.2h.1v.1h.2v.1h.7v-.1h.6v.1h.1v.1h.1v.1h.1l.1.1h.2v.1h.5v-.6l-.1-.1v-.2l.8.7-.1.1-.1.1h.1v.1h.1v-.1h.1l.1-.1.4.3v.3h-.1v.2h.1v.2h.2v-.1h.1v-.1l.1-.1v-.1l.2.4-.8,1.2.9,1,.3,1,.5,2.2.6,2.3.6,2.2.6,2.3.6,2.2.6,2.2.5,2.3.6,2.2.6,2.1,1,1.7v.2h.2l.7.8,1,1.1,1,1.1,1,1,1,1.1,1,1.1,1,1.1,1,1.1,1,1,1.2,1.3.6.5.3.2.2.1.3.4.1-.1h.3v.1h.2v.1h.2v.1h.1v.1h.1v.3h-.2l-.1.1h-.1v.2h.2-.1.2v-.1h.1v-.1h.1l.1-.1v-.1.1l.4.6.1.1.1.1.1.2.1.3.1.3.1.9v.3l-.1.5-.4,1.7-.1.8.3,1.1.8,1.6.2.3v.1l.1.2.1.1.1.1.1.3.1.1.1.2v.1l.1.1v.2l.1.2,1,3.1.1,2-.8,1-.1.1h-.8l-1.1-.1-.9.1-.3.5-.2.2-.1.2-.2.9v.1l-.4.8-.5.6h-.1v.1l-.1.1-.6.5h-.1l-.5.3-.4.1-.2.1-.4.3-.2.6.1.2v.1l.1.2.1.1,1,1.1.3.6.1.1v.2l.1.4v.2l.2,2.2-.1.9-.1.1v.1l-.1.3-.7,2v.1l-.1.2v.3l-.5,5.3.1,1.1.7,2,.2,1-.2,1.1-.4,1-.3,1.1.1,1.2,1.4,2.2.5.4,1.4,1,.3.1-.1.1v.1h-.2v.4h.4l1.3.1h.5v.1h.3l.1.1h.3v-.1h.4v.1h.1v.1h.1l.1.1h.1v.1h.1l.1.1.1.1.1.1.1.1h.1l.1.1v.1h.3l.1-.1h.1l.1-.1h.2v-.2h.1l.1-.1v-.1h.1v-.1h.7v.1h.3v.1h.2v.1h.3v.1h.4v-.1h.1v.1h.1l.1.1h.2v.1h.1l.1-.1h.2v-.2h.1v-.1l.1-.1h.1l.1-.1h.4l1.4.4,1.8,2.3.2.2.2.2-.5,2.1-.1.4.1.9v.2h-.1v.1h.2v.4l.4,1.4.5,1.5,2.8,5.4.9,1,.5.4.7.3.3.5.2.3v-.1l.3.1.2.1h.6l1,.8.6.3v.1l-2-.1-1-.5-1-.4-1.4-.3-4.1-.1-1.1.3-.3.4-.2.4-.1.4-.1.4-.3.4-.5.5-.5.3-.5.1-.3-.2-.3-1-1.2-.3-.9,1.8-.6,1.4-.5.8-.6.7-1.4,1.3-.8.5-1,.2-1-.2-2.9-1.6-1.3-.3-.4.7-.2.3-.3.3-.2.2-1,.1-.2-1.4.2-1.5-.1-.8-.2-1.2-.1-.6-.3-.4-.3-.1-.5-.1-.4.1h-.3l-.6.3-1.4.3-.4-.1-.4-.1-.3-.1-.2.1-.2.2-.2.5-.1.2-.3.2-.1-.2-.2-.8-.3-.5-.3-.2-.4.1h-1l-.2.1-.4.2-.9.5-1.3-1.2-.6-.4-.5-.6-.4-.2-1.3-.3-1.1-.2-1.4-.6-.2-.1-.3-.8,1.8-2.9.7-.9.3-.7v-.2l-.1-.3-.1-.4v-1.1l-.1-.3-.5-.2-.3-.3-.2-.2-.4-.6-.2-.2-.7-1,1.9-2.3.1-2.8-.7-.3-.1-.1v-.4l-.5-.6-1.5-2.3-.3-1,.1-.7-.1-.7-3.6-2.9-.5-.7-.2-.7-.4-1.7.1-.3v-.2l.2-.5-1.9-.4-1,.3-.4.4-.9-.3h-.9l-.2-.1-.2-.1-.3-.1h-1.7l-1.6-.2h-1l-.3-.1-.2-.1-.2-.1-.6-.1-.4.1-.4.4-.8,1.2-.5,2.3-.2.4-.9-.1-1.5-.1-1.7.1-.9-.2-.6-.1-.2-.5-.9-.6-2.8-.4-1-.2-.7-.3-.7-.5-.4-.3-.5-.9-.1-.1v-.2l-.1-.2-.1-.4-1.3-1.4-1.2-1.1-1.2-.6-.5-.3-.4-.4-.8-.9h0Z"/>
          <path id="COARA" class="cls-1" d="m357.75,281.05l4.2,1,1.7.1.7-.1.6-.3.5-.5.6-.4h.6l.5.1.3-.2-.1-.9h1.5l1.2-.2h1v-.1h.2l1.4.4-.1-.4h.3l.1.1h.2l.2-.2.1-.1.1-.1.1-.1v-.2l.1-.1v-.1l.2-.1h.5l.2.1.1.1.2.2.2.1h.5l.2.3.6.4h.1v.1l.1.1v.4l.1.1h.2l.1-.1h.1v-.1l.1-.1.1-.1.1-.1.2-.1h.1l.2-.1.2.1h.4l.2-.1v.1h1l.1-.1h.2l.1.1.1.1.1.1.1.1h.3v-.1l.1-.1v-.1l.1-.1.1-.2.6.2.1.1v.1l.1.1v.2l.1.1v.1h.1l.2.1.1-.1h.1l.1-.1.3.3.5-.1v.1l.1.1h.3l.1-.1v-.1l-.1-.1v-.1l.7-.3.4-.2.8-.2.8.1.7.2v.1l.1.1v.1h.1v.1h.1l.1.1h.5l.2-.1.1-.1h.5l.2.1h.3l.1.1.1-.1h.6l.1-.1h.1l.1-.1h.3l.2-.1.1-.1h.1l.1-.1.5.1.5.3.1.6v.7l.3.5.6.3,2.5.1.6.2.4.4.5.1.9-.3.6-.4.5-.5.4-.3,2,.2h.1l.1.1v.1h.1v.1h.1l.1-.1h.2l.1.1h.1v.1h.2l.1-.1h.2v.1h.2l.1-.1h.2l.1.1h.6l.1-.1h.3v.1l.2.1h.1v.1h.2l.1.1h.4l.1-.1h.1l.1-.1h.3l.1-.1h.2v-.1h.3v-.1l.1-.1v-.2h.1v-.1h.1l.1-.1v-.3h.4l.1-.1v-.1h.1l.7-.3.5-.3h.2l.1.1h.1l.1.1h.1v-.1l.1-.1v-.1l.1-.1.1-.1h.5l.1-.1h.1v-.3h-.1l-.1-.1h-.1v-.2l.3-.2.3-.3v.1h.1l.1.1h.2v-.1h.1l.1-.1v-.1l.1-.1v-.1l.1-.1v-.1l.1-.1v-.1l.1-.1h.1v-.1h.2l.1-.1h.7l.1.1v.2l.1.1h.1v.1h.7l.1-.1h.1v-.1h-.2v-.2l.1-.1v-.1h.1l.1-.1v-.1h-.2v.1h-.3l-.1-.1v-.1h.1v-.1l.3-.1.1.1h.2l.1-.1.1-.1h.3v.2h.4l.1.1v.1h.2v-.1l.1-.1v-.2h.4l.1-.1h.2l.1-.1h.9l.1.1v.1h.1l.1.1h.1l.1-.1h.1v-.2l.1-.1v-.2h.1v-.1h.3v-.1h-.09l.6-.1.1.1h.2v.1h.2l.1.1h.4l.1-.1h.3v-.1h.3l.1-.1h.5l.1.1h.3v-.1h.2l.1-.1.6.6.5.2,1.5.3v.3h.2l.1-.1h.2l.1.1h.2v-.1h.2v.1h.1v.1h.5v.1h.1l.1.1h.1v-.1h.4l.1-.1h.2v-.1h.4l-.1-.1v-.2h.1v-.1h.2v.1h.2v-.1h.1v-.1l.1-.1v.1l2.6,3.2.5.3.4.1v.1h1.1v.1h.2v.1h.2v.1h.3l.1-.1h-.1.1v-.1h.1v.1h.2v-.3h.4l.1.1h-.3v.1h.3v.1h.2l.2.3.2.2.7.2v.1h.1v.1h.1l.1.1v.1h.2l.1-.1,2.6,1.2v.2h.2v-.1l.2.1-.1.1v.1h.1l.1-.1h.1v.2h.1v.1h.1v.1l.1.1h.1v-.1h.2v.1h.1v.1h.4v.1l.1.1v.1h.7v-.1h.6v.1h.1l.1.1h.1l.1-.1h.2v-.1l.3-.1h.1v.1h.2v-.1h.1v-.1h.5l.1-.1.1-.1h.1v-.1h.1v-.1h.1v-.1l.1-.1h.1v-.2l.1-.1h.2l.1-.1h.1v-.1h.3l.1-.1h.1v-.1h.1v-.1l1.3-.4h.6v-.1h.2l.1.1h.2v-.1h.2l.1.1h.2v-.1h.7l1.4.3,1.7,1.4.9,1.1,3.8,4.9,3.8,4.9,3.9,4.9,3.8,4.8,3.9,4.9,3.8,4.9,3.8,4.8,3.9,4.9,1.5,1.9h.2l.1.1-4.8,2.9-2,.4-10.8-.4-1.7.4-1.4.9-.5.6-1.7-.8-.8-1v-.9l-.2-.4-.4-.5-1.2-1-1-.5-3.3-1.3-.7-.5-.3-.6-.1-.6-.3-.5-.4-.4-1.5-.9-.4-.3-.6-.9-.4-.3-1.7-.8-.7-.1-1.3-.2h-1.7l-1.5.2h-2.1l-1.6-.5-1-.1-1.3.1-3.5,1.3-2.1,1-1.1.3h-1.9l-2.6.2-4,.6h-2.8l-.2-.1-2-.9-.9-.2-1.1.2-1,.3-1.2.4h-.5l-4.8-.3-3.7-1.3-1.7-.3h-2.7l-1.2-.1-1.6-.7-1.7-.3-1,.7-.8-.1-.8.2-.6-.1-.6.1-1.2.8-1.9.8h-1.5l-1,.2-.8.2-.7.4-2,.7-1.3.1-1.1-.1h-.9l-1.5.4-.8-.2-1.3-.7-.5-.1-.8.1-1.1.4h-3.8l-1.4.3-5.4,2-1.6.2-.9-.2h-1.1l-1,.3-2.9,1.3-2.8.7-2.9,2.1h-.8l-1.2-.3-1.7-1.1-2-1-.9-.6-.7-.6-1.2-2.4-2-2-1.1-1.9-.3-1.3v-.5l.2-.6,1.3-2.1,1.3-1.2.4-1.2v-.7l.3-.5.5-.5.4-.3h.5l.2.3.3.2.4.1.4-.3.5-.6.5-.6.5-.4.5-.2h.7l.9-.4.6-.7.5-.8.5-1.8,1.2-9.7.4-.9,1.1-.5,1-1.3.6-2.2,1-1.8,1.9-4.9.6-1,.3-1.3.1-.2h0Z"/>
          <path id="COBOY" class="cls-1" d="m330.35,285.65l1.3.3,2.9,1.6,1,.2,1-.2.8-.5,1.4-1.3.6-.7.5-.8.6-1.4.9-1.8,1.2.3.3,1,.3.2.5-.1.5-.3.5-.5.3-.4.1-.4.1-.4.2-.4.3-.4,1.1-.3,4.1.1,1.4.3,1,.4,1,.5,2,.1,1.5.3-.1.2-.3,1.3-.6,1-1.9,4.9-1,1.8-.6,2.2-1,1.3-1.1.5-.4.9-1.2,9.7-.5,1.8-.5.8-.6.7-.9.4h-.7l-.5.2-.5.4-.5.6-.5.6-.4.3-.4-.1-.3-.2-.2-.3h-.5l-.4.3-.5.5-.3.5v.7l-.4,1.2-1.3,1.2-1.7.8-2.1,3.5-1,3.2v.5l.1.4.8.4.3.3.2,1.2.4.7.1.7.4.6,1.5,1.6-.1,1-.8,1.3-.4,2.6-1.1,3.7-.2.4-1.2.3-.8.3-.5.4-.3.4v1l4.9,2.6,2,1.5.4,1.2,1,.8,1.2,1.6,1.1,1-.7.7-.4.1-.3.4-.3.5-.2,1-.2.6-.2.6-.7.6-.3.6-.1.4-.7,3.5-.4.3-.4-.1-.7-.4-1.1-.8-.3-.4-.5-.8-.3-.5-.3-.2h-.5l-.6.3-1.2,1.4-5.6,6-1.1,1.9-.7,1.1-2.2,1.2-2.9,2.6h-1l-1.4-1.9-.9-.8-1.3-1.8-.4-.4-1-.5-1.1,1-.6.3-.8.7-.8.9-2.8,4-.5.4.2,1.8-.4.4-.1.3-.2.5-.2,1.1v.7l.2.7.5.9,1.3,1,.4.7-.8,1.4-.3,1.2-.3.5-.9.8-1.1,1.4-2-.9-.7.1-.3.4-.7,3.4-.2,2.3-.8,2.2-.2,1,1,2.9-.2,1h-.7l-.3.3-.1.2.1.3-.1.3-.1.3-.6,1-.2.4-.4.4-.6.4-2.1.1-2.1-.8h-1.1l-.4-.9-.2-1.5-.4-.3-.5-.2h-1l-.9.3-.6-.1-.4-.4-.2-.6-1.1-1.7-1.9-.7-.1-.4.2-.8-.4-.5-.7-.9-.8-1.2-.4-.3-1.5-.5h-4.2l-1.1-1.6v-.7l1.6-3-.2-1.6,2-1.5.1-.7-.8-1.4-.1-1.1.2-.8-.2-.5-1.2-2.2-.4-1.4.2-1.3-.8-1.3-.2-.4-.9-.7-1.3-1-.3-.6-.2-.7.1-.6.2-.7.3-.6-.4-.5v-.5l-.5-.3-2.1-1.9-.5-1.1-.1-.5h-.3l-.4.1h-.6l-.8-.3-1.2-1.1-1,.2-2.7-1.3v-2.5l-.3-.3h-.3l-.4.1-.5.2-1.1,1-2.8,2.9v.9l-.4,1.1-1.4.4-3.3,3-2.4-1.3-.8-.1-.8-.4-.5-.5-.5-.8v-1l-2.5.1-.6-.2-.9-.4-1.6-1h-1.2l-.6.1-.3-.4-.1-.4.1-.9v-.4l-.3-1-2.2-2.1-.7-1.4-.1-.6.1-.6.6-1.1.5-.6.2-.6-.1-.5-.4-.5-.3-.8.1-.9-.1-.6v-.4l-.4-.5-.1-.5v-1l-.1-.1-.2-.1-.2-.1-.2-.2-.1-.2v-.3l-.2-.3-.3-.3-.4-.1-.8.5-1.5,1.3-.7.5-.5.4-1.3.3-2.3-.4-.7-.3-.8-.3-.9-.1h-.3l-.6.5-1.2.5-2.8.5-.8.4-.2-.3-.4-.3-.2-.4.7-1.4.5-3.2.3-.7.6-.8.7-.7.6-.2.2-.4-.7-2.2v-.9l.3-.2.8-.4.3-.1.2-.5v-.4l-.1-.3-.1-.4.1-2.1-.1-.7-.3-.9-.8-.8-.2-.5-.1-.7.2-.7.7-1.2.4-2.2.7-1.3.9-1.1,1.5-1,.2,1.2.1.4.4,1.5.5,1,.8,2.4,1.9,3,1.1,1.1.7.6.7.4.4.3.4.2.5.2.5.1.7-.2,1.3-1,.7-.3.7-.1.5.4.5.7.6,1.5.5.9.5,1-.1.9-1.2,2.3-.3,1.1v.7l.6,1.8.9.2.3-.1.6-.4.7-.6.7-1.1,1-.7,1.1,1,2.2.6.7.7.4,1.6.9.1.6.1.5.4.9,1.7,1.1,1.4,1.8,1h.6l.6-.3.4-.1,1-.3.9-.1.5.1.6.2.3.3-.1,1.3,2.3-1.4,3.3-.9,1.6-.2,1.1.1,1,.3,1,.6.9.8.5.5.5-.4.1-.5.1-.5v-1.2l.5-2.5.5-1.5.1-1.2-.1-1-.2-.9.2-.8,1-1.6.3-1.8.5-1,2.2-1.8.2-.5,1.6-2.8.8.8,2.3,1.1,2.1,2,.6.9.2.6v.9l-.2,1.1-.8,2-.7,1.2-1.2.6-.1.9-.1.2-1.1.7-.4.2.2,1.8,2,2.5.7.5.6-.1.7-1.8,1-1,.6-1.2.1-1.2.2-.2.3-.1,1.7.6,1.3-.2,2.5-3.9.9-2.5.9-.4.3-.1.6.2,1.2.8,1.7.9,4.7.7h.9l.5-.5.7-2.5,3.8-4.5.5-1,.7-.8,1.4-.5,1.5-.4,1-.6.9-2.5.9-.5.6-.3.7-.6.4-.6.1-.5v-1l.2-.9-.7-1.6,1-2.9-.2-2.1.3-2-.2-.7-.3-.8-.5-.5-.5-.3-1.6-1.6-.3-.9.5-.8,1-.3h.5l.9.9,1.8,1.3.8,1.1.6,1.1,1,2.6.9.3,1.3-.4,1.9-1.9.9-.5.6-.3.4-.6v-3l.3-.9,2-3.4.8-3.9.2-1.9-.5-1.8v-.8l.1-.6.4-1.1-1.4-3.7h0Z"/>
          <path id="COVID" class="cls-1" d="m572.85,432.05l-.9.4-.7.5-2.4,3.4-2.1,1.5-2,.1-1.9-.7-1.8-1.1-1.2.9-.7.3-.6-.1-.3-.6-.1-1.8-.3-.7-1.1,1.8-.7.3-1-.7-.7-1.3-.5-.5-.7.2-.4.6-.6,1.3-.4.5-1.2,1.4-.6.4-.7-.2-.3-.4.1-.5.3-.5.2-.5-.5-.7-1.3.5-2,1.1-.4-.8-.1-1.2-.3-1.1-1.1-.4-2.2-.4h-1.1l-.7.4v.8l.6.8.3.6-.6.6-.3.9-.2.8-.4.3h-2.2l-1.1.2-.3.7.2.6.5.7h-.4l-.6.2-.6.4-.2.5-.3.1-.6.1-.7.2-.8.6-.6.8-.4.8-.3.2-.5-.1-.6-.4-.6-.1-.5.4-.5.5-.6.3-1.6.2-.8-.3-.9-.4-.6-.1-1.1.9-1.1.2-.4.1-.1.6.1.7-.2.6-.6.2h-.6l-1-.3h-.5l-.7.5.3,1v.9l-1.1.1-.6-.8-.5-.3-.6.2-1.7.9h-.9l-.2-.2-.1-.2v-.4l-.4-.1-.3-.1h-.3l-.4.2-.3.8.1,2-.7.4-3.3-.4-.6-.3-.6.5-.7,1.1-.5.5-.7.2-.5-.3-.2-.4-.3-.2.2-1.4-.4-.1-.5-.4-.4-.2-.5-.3-.6.2-1.2.9h-.4l-.1-.1.1-.7-.1-.3-.3-.3-.9-.3-.6-.7-.3-.1-.6.1h-.6l-.4-.5-.4-.6-.6-.4-.7.2-.4.6v.7h-.4l-.9-.6h-1l-2,.6-1,.2-.9.3-.4.2-.4-.2-.5-.5-.5-.5-.8-.3-1,.3-1.5.7-1.2.2h-1.1l-.8-.1-.9.1-.5.3-.2.5.4.4.1.5-.2,2-.9.8h-.7l-.3.5-.2,2.6-.3.5-.5-.2-.9-.8-1-.8h-.8l-.9.3-1.3.2-3.5-.1-.8.1-.5,1-.4.4-.1-.2-.2-.3-.2-.6-.4-.5-.5-.2-.9.1-.7.4-.5.6-1.4,2-.5-.1-.6-.1-.5-.3-.2-.3-.6-.4-1.2-.1h-1.4l-1,.3.3.5,1.1,1.6-.3.8-.4,2.2-.5.4h-2.1v1.3l-.3.2-.2.7-.4.5-.7.8.1.7.4.6.7.6.4.6.2.4-.1.3h-.3l-.5.1-.4.3-.1.9.8,1.4.1.8-.2.6-.5.3-.3-.2-.1-.4-.2-.5-.2-.4h-.2l-.2.2-.1.7.2.6-.1.6-.7.3-.4-.2-.7-.6h-.2l-.2.2-.2.4-1.2.7-.7.6-1.1,1.3-.9,1.5-.4.4-.4.3-.3.3.2.3.5.1.7.1.5.2.4.3.1.5-.2.4-.6.3-.5.2-.2.3.1.5.5.8.2,1.1v1.1l-.3,1-2.6,1.6-.4.6-.2.6-.1.6-.6.7-1.2.7-4.3,1.8-1.6,1.4-4.8-2.9-.8-.2h-1l-.6.6h-.5l-1.2-1.5-.5-.3h-.5l-.2.3.1.4.3.5.2.6v.5l-.3.4-2.1,1.7-.3-.1-.2-.5v-.6l-.2-.4-.4-.1-.6.2-.7.4-.7.4-.8.2-.5-.2-.6-1.2-.8-.5h-.8l-1.3.7-.1-.3.1-.6v-.6l-.7-.6h-.4l-.4.5.1.6-.3.3-.5-.3-.6-.9-.8-.7-.5.1-.1.5.2.9v.6l-.2.5-.4.1-.3-.2v-.5l.1-.5.1-.5-.2-.4-1-.3h-.8l-1-.6-1.1.2v-25l.2-79.1.6-.6,1.1-1.4,3.3-8.1.8-.9,2-.5.9-.5,8.9-7.8.8-.3.5-.5.2-2.4.2-.9.8-.8,2.2-.9,1-.6,1-.8,3.4-1.8,3.2-2.4,1.1-.4,1.1-.2,3.2-1.2,1.9-.4,4-.2,2.1-.4,1.5-.7,1.7-1,1.5-1.3,1.2-1.2,1.7-2.6.3-.8,2.2-2.2.8-1.4,3.6-8.3,1.1-1.7,1.1-1.1.5-.6,1.4-.9,1.7-.4,10.8.4,2-.4,4.8-2.9.2-.1h.1l1.3-.4,2.4-1.1,1.3-.3,1.1.5,2.1,2.5,1.2.9,1-.6,1.8-1,3-3,1.1-.6,1.5-1.4.9-.4,1.3-.1.2.1.8.2,1.9.8.9-.2,1.1.2,1.3.5,1.1.2,3.2-.2,1.1.2,3.2,1,1.1.1,1.1.2,2.1,1,1.2.2.6-.3h.1l1-.9.3-.3.6-.3,3.1-.1.5-.2.7-.2,2.5-.7,1.1-.2,1.1.2,1.6.4h.1l1.6.5h1.9l2-.8.8-.3,2.9-1,1.1-.2,1.2-.1,4.4.4,2,.2,2.1-.3,1.2-.4.1-.1h.2v-.1h.2l.1-.1h.2v-.1h.2l.1-.1h.1v-.1h.2v-.1h.1v-.1h.1v-.1h.1v-.1l.1-.1v-.1h.1v-.1h.1v-.1h.1v-.1h.1v-.1l.1-.3.2-.6.6-.2h.7l.6-.1.5-.4.9-1,.6-.3h.5l.9.3h.8l2.7.3.5.1.3.1,1.3.2,4.5,1.1,1.4.3.1.1,1.3.9,1.4,1.3,1.4,1,1.5.2h.5l-.3.2v.3h-.1v.1h-.1v.1h-.1v.1h-.1v.1h-.1v.1h-.1l-.1.1h-.1v.1h-.1v.1h-.1v.1h-.1v.1h-.1v.1h-.2v.1h-.1v.2h-.1v.3h-.1v.2h-.1v.4h-.1v.8h.1v.3h.1v.2h.1v.2h.1v.1h.1v.2h.1v.1h.1l.1.1v.1h.1v.2h.1v.4h.1v.5h.1v.1l.1.1v.1h.1v.2h.1v.1h.1v.1l.1.1v.1h.1v.1h.1v.1h.1v.1h.1v.1h.1v.1h.1l.1.1h.1v.1h.1v.1h.1l.1.1h.1v.1h.1l.3.2.1.2v.1h-.1v.3h.1v.2h.1v.1h.1v.1h.1v.1l.1,1.1-.1.7h-.1v.1h-.3v.1h-.2v.1h-.2v.1h-.2v.1h-.2v.1h-.1v.1h-.2v.1h-.1v.1h-.2v.1h-.1v.1h-.2v.1h-.1v.1h-.1v.1l-.2.1-.7.4-1.2,1.3-.1.1h-.2v.1h-.2v.1h-.2v.1h-.1l-.1.1h-.1v.1h-.1v.1h-.1v.1h-.1v.1h-.1v.1h-.1v.1h-.1v.1h-.1v.1h-.1v.2h-.1v.1h-.1v.2h-.1v.1h-.1v.2h-.1v.1h-.1v.1h-.1v.2h-.1v.2h-.1v.2h-.1v.2h-.1l-.1.1h-.1v.1h-.1v.1h-.1l-.1.1h-.1v.1h-.1v.1h-.1v.1h-.1v.1h-.1v.1h-.2v.2h-.1v.1h-.1v.1h-.1v.1h-.1v.2h-.1v.2l-.1.1-1.2,1.9-.8,2-.4,2.2v2.3l.5,3,.1,1,.2.2.7.8.2.2-.1.6-.3.4-.4.4-.3.3-.5,1.9-.3.3-.6.1-.6.4-.9,1-.4.3-1.5.6-.3.2-.5.6-.3.2-.2.1-.6-.1h-.2l-1.9,1.6-1.2,2-.3,1v.1l-.1.1-.1.2-.2.2-.1.2v.8l-.1.4.1.2v.1l.1.3.2.1h.1l.1.1h.1l.1.1.1.2.4.8.1.1-.2.3v.1l-.1.3v1l.1.2.1.1.1.3-.1.2-.2.3-.2.2-.2.2v.2l-.1.1-.1.4-.1.2-.1.1v.2l-.1.1v.1l-.1.2-.1.1-.1.2-.1.2.1.1v.2l.1.2v.1l.3.2.2.3.1.1.1.2.2.2v.1l.1.2.1.2.2.3.1.1.1.2v.3l-.1.3.1.3.3.2.2.1.2.1.1.2v.3l-.2.3-.2.3-.3.4-.1.3v.6l.1.2v.4l-.1.2v.7l-.1.2v.3l-.1.3-.1.1-.1.3v.1l-.1.1-.1.1-.1.1-.1.2-.1.2v.2l.1.2.1.2v2.5l.1.2v.2l.1.2.1.2.1.1.1.3.1.3v2l.1.3-.1.5v.1l-.1.4v1.5l.1.4v.4l-.3.7-.5.8-.3,1.1-.2,2.9-.3,1.3.1,1.6-.1.5-.3.4-.3.3-.3.3-.1.7.2.6.3.5.4.4.5.3v-.3l.9.6.4.7.4,1.8.2.2.7.2.2.3v.4l-.3.7-.1.4.2.7.7,1.1.2.7-.2.5h-.4l-.2.1-.1.1-.1.1-.3.4-.1.6.2.6.1.2-.2,1.6.2,1.6.5,1.6.2,1.6.4,1,1,.8.9,1,.5,1.6.5.6.1.3v.3l.1.2.1.1v.2l-.1.7h0Z"/>
          <path id="COCAU" class="cls-1" d="m56.95,500.15l.7.5,1.9,2.5.8.6,1.7,1,.8.6-1.1.8-1.6.1-1.5-.4-1-.5.4-.3-.4-.4,1.1-1v-.6l-.7-.3-.9-.1-.8-.6-.3-1,.2-.9h.7Zm4.9,1.8l1.9,1.5.7.7-.2.8-.9.1-1.3-.7-2.3-1.7-1.4-1.9-.3-.6-.2-.6v-.5l.1-.3.4.4.2.1.5.2.2-.3.1-.1.2-.1.2-.2,1.4,1.4.2.4.3,1,.2.4h0Zm45.3,68.3l-.1-1.9-.5-2.4-.3-4.3.2-1,2.5-1.5.5-.6.6-.7.2-.5.3-1v-1l-.3-.4-.2-.2-.5-.4-1.5-2.2-1.6-2.5-.3-.2-.5-.2-1.6.5-2.1.3-1.6.4-.3.2-.6.6-.4.3-.5.5-.4.2-.5.1-.6-.1-.9-.2-.4-.3-.2-.3-.2-.1h-.3l-.8.3h-.9l-2.5.9-.6-.3-.4-.2h-.2l-.4.2-3.1-1,1.3-3,.2-.8.1-.7-.3-.8v-.7l.1-.5.8-2,1.8-1.5.4-.8v-.4l.2-.4.2-.2.6-.2.3-.1.1-.2.6-1.5-.7-1.3-1-.5-.5-.2-.7-.4-3.1-2.3-.4-.4-.2-.4.1-.5.2-.3.2-.8.8-1.2.1-1.5-.5-.9-4.6-2-.9-.4-.5-.1h-.8l-.6.1-.9.1-.3.1-.2.2-.5.3-.1.2-1,.3-1.4.2-1.4.2-.3.3-.8.6-1.5.6h-1.6l-2.4.8h-.9l-1.2-.1-1.8-.6-1.6-.4-1.4-.6-.5-.5-.2-.4-.2-1.7-.1-.5-3.7-5.3-.8-2-.1-.5v-.5l.1-.4.6-1.8.2-.6v-.5l-.1-.6-.6-1.8-.3-1.1-.1-1-1.5-1.6-4.6-3.1.5-.3,1.2-.1,1,.1.8-.1.7-.4,1.1-.7,1,.1.7.7.5.9.4.6.6.1.9-.2-.4.8-.5,1,.1.9,1,.4.6.1,1,.2.7.1,1.3-.3.6-.1,1.2-.2.9-.8.5-.9-.1-.9-.3-.6-.5-.9-.8-.7-.7-.2v-.3h1v-.4l-.7-.1-.3-.4v-.4l.3-.5-.6-.1-.1-.3.1-.5.3-.5-.5-.1-.2-.1-.1-.3.1-.5.8.3.8-.3.6-.5.7-.2.3-.1.5-.1.3-.2-.2-.3-.5-.1-.8.4h-.4l-.8-.5.2-.3.6-.4.3-.3.3.1.8.2h1l.7-.1.2.3.3.4.1.3h.4l-.5-1.1-1.8-.5.6-.9.7-.4.8-.1.7-.1.6-.7.4.2.4.2.3.3.2.3.3-1.2-1.1-.3-1.6.2-1,.6-.3-.8v-1.1l.2-1,.7-.6.7.1.5.4.4.5.5.4.6.2.2-.1v-.3l.3-.5.4-.4.3-.2v-.8l-.2-.2-.7-.2-.2-.2v-.3l.3-.2.2-.6.3-.1.1-.1-.2-.5-.3-.2h-.8l-.3-.5v.4h-.1v.1l.1.2-.5.3-.6.1-.4-.2-.2-.5-1.3,1.1-.4.3v-.7l1.9-2.2,1.2-1.6.7-.8,3.9-3.3,1-1.9.6-1.1.7-.2.8.4.2-.5.1-.5.1-.5h.3l.5.1.3-.3-.3-.5-.8-.4-.7.3-1.2.1-.1-.4.6-.8,1.2-1.1.9-.5,1.2-.5,2,2,.3.2.7,1.3.5.6.2.5.1.4.1.3.1.4.6,1,.5.3.7-.1.4-.2.4-.1.1-.1.2-.1h.4l1.3.6.1.3-.2.1-.1.2.1.2.4.3.2-.1.4.1.8.9.1-.2h.1l.2.2.4.1.5-.1.3-.2.4-.5.2-.1.6-.5.4-.4.2-.2.4-.4h.3l.4.1h.3l.9-.7,1-.3,1-.2,2.3.4,2.5.8.3.2.8.8.2.2v.1l.2.1.5.3,2.9,1.5,1.5.5.9.1.8-.1.6-.1.3-.2.4-.2.9-1,1.6-3,.7.6,2.6,1.8,1.1,1,1,.5.7.1.4-.3.2-.2.2-.3.2-.2h.3l.4.7.4.5.4.2.3-.1.1-.1.1-.3.1-.2.1-.1.1-.1.2-.2.3-.2.4-.1.3.1.2.2.6.4.8-.7.3-.5.5-1.1.3-.3.7-.3,1.3-.3.5-.2.6-.6.4-.7.2-.8.1-1.8-.2-.4-.7-.7-.2-.4.2-.4,1.1-1.3,1.1.5.9.5,2.2.4,5,.4,1.4.4,1.8,1.4.8.3,3.2.7,1.9.7-.8.5-.2,1.2.2.9-.3,1.3-.5.5-.2.5-.1.6v.5l1,.8.7.3.7,1,1.1.9.7,2v3.4l.3.9,5.4,4.7,1.3,1.1,1.3,1.6.7.6.8.3.9.7.7.7.6,1.4.7,1.2-1.1,3.6-1,2-.1,1.4,1.4,2.9-1.2.6-.6.7-.7,1-1.6.1-1-.5-1.7-1.5-1.8-1.3-.7.3-1.2,1.4-1.2,1-1.2.9-3.6,1.8-1.7.6-4,1.1h-1.2l-1-.2-2.8-2.2-.8-.7-1.5-.4-.7,2.7,1.8,4.1v.8l-.4.5-.2.6-.7,1.9-.7,1.3-.6.3-.7.8v.4l.1.5.1.4.1.4-.2.2-.4.3-.7.3-.7.1-1-.2h-.9l-.8-.1-.6-.3-.8-.2-.7.4-.9,1.1.1,2.3.2,1.5-.2.5-1.3,1.3-.4.9-.1.6.2,2.2,1,1.8,3.7,2.9,2.6,3.4,2.3,3.6,1.3,1.3,1.8,1,2.5.8,1.3.4.8.5,1.8.6,1.9.1,1.9.8-1,.7-.9,1.4-2.2,3.6-1.2,2.5-.3,1.7-.4.8-.9,1.3-.2.6-.6,6.7.1.5.6,1.2.6.8.8.4,2.4.5,2-.3.5.1,5,4.5h-.1l-.5.5-.3.6-.4.5-.9.2-1.6-.1-.7.2-.7.3-.6.5-.5.4-.5.3-.8.2-7.1-.2-1.6-.3-2-1-3.6-1.1-1-.7-1.2-1.9-.5-2.2.2-4.4.2-.9.9-1.7.2-.9v-.7l-.2-.7-.6-1.4-.9-.8-.1-.6-1-1.5-.8-1-1.7-.7-.9-.6-.8-.3-.8.2-2.7,4-1.1,1.3-1.4.8-1.3.3-4-.3h-1.7Zm-64.6-85l.7-.6.4.1-.1.7v1.4l-.8.8-.5.5-.8.2-.6-.2v-.5l.8-.1.2-.8.3-1,.4-.5h0Z"/>
          <path id="COVAC" class="cls-1" d="m89.75,421.75h.1l.3.8v1.3l.1.5.3.4.4.4.5.4h.3l.4-.1.2-.3.3-.1,1.2-.4h.5l.4.1,1,.7.6.1,2.2,2.3.6.8.2.1h.8l1.1.2.5-.1.5-.1.4-.3.4-.6.3-.1h.3l.7.1h.5l.6.2.6.6,2,3.3,1.3.6,1.6-.2.7.2.1.1v.2l.2.2.5.3.7.2,1.6.7.9.1.7-.2,1.6-1.7.9-.6.7-.8.6-.2h.6l2.5.6h.6l.3-.2.1-.3v-.4l.2-.5,1.2-1.6,1.3-1.4,1.2-.6,1.2-.3,1.4-1.4.1-.3.2-.6-.8-.8-2.1-1.1-.2-1.3.3-2.4-.1-.5-.2-.3-.4-.2-.5-.5-.5-.6-.9-1.6-.1-.4.1-.2h.2l.6.2h.4l.9-.2.6-.2.5-.1.4-.2.3-.2.7-.6.7-2.3-.1-.9-.4-.9v-.6l.8-2.7.4-.8,2.7-2.4,1.4-.9,1.5-1.6.7-1.1-.2-.8-.3-.5.1-.6.2-.7.4-.6.4-.5,4.1-3.6,2.1-2.3.1-.4,1.3-3.7.5-.6.8-.9.5-.4,1.5-1.4.4.4,1.4,2.7.3.7.6,1,1.5,1.2.4.3-.1,1.5.3.5.4.2.5.2,1.3-.1.6-.3h.2v.3l-.1,1.2-.3.6-.5.4.4.8.4.7v.5l-.1.2.1.2.2.3.6.3.7.1h.5l.3-.2.2-.3.2-.2.3-.1h.7l.2.2.1.6v.5l-.4,1,1.1-.2.5.1,1.9.6,3.5.5.3,1.4v.9l-.1.2-.3.2h-1.5l-.5.3-3.5-.6-1.9,2.7.1.6-.1.3-.3.4v.4l-.4,1.3.1,3.9.4.9-.6.4-.1.1-.2.2-.3,1.1.9.4h1l2.2.9,1.1,2.4-.1.1v3l-.8,1.9-.7,1-.2.6-.2.5-.1.5v1.3l-.1.4-.3.7-.1.8.1.8.1.4.3.2,1.5.6,1,.6.9.4.8,1.3.1.6-1.6.7-.6.4-.4.6-.7,2-.5.7-.8,1.5-1.1,2.8-3.4,5.1-.6,1.3-.1.3-.9,1.1-.3.2-.5,1.8-.4.6-.5.9-.4,2.8.1,1-.1.7-.4.6-.3.7-.5.8-.4.7-.2.8-.5,1.3-.3,1-.1,1.7-.1,1.2-.6,1.4.6,1.2.3.5.1.5-.2.3-.3.3-.3.4-.2.6-.1,2.8-.5.7-1.9-.7-3.2-.7-.8-.3-1.8-1.4-1.4-.4-5-.4-2.2-.4-.9-.5-1.1-.5-1.1,1.3-.2.4.2.4.7.7.2.4-.1,1.8-.2.8-.4.7-.6.6-.5.2-1.3.3-.7.3-.3.3-.5,1.1-.3.5-.8.7-.6-.4-.2-.2-.3-.1-.4.1-.3.2-.2.2-.1.1-.1.1-.1.2-.1.3-.1.1-.3.1-.4-.2-.4-.5-.4-.7h-.3l-.2.2-.2.3-.2.2-.4.3-.7-.1-1-.5-1.1-1-2.6-1.8-.7-.6-1.6,3-.9,1-.4.2-.3.2-.6.1-.8.1-.9-.1-1.5-.5-2.9-1.5-.5-.3-.2-.1v-.1l-.2-.2-.8-.8-.3-.2-2.5-.8-2.3-.4-1,.2-1,.3-.9.7h-.3l-.4-.1h-.3l-.4.4-.2.2-.4.4-.6.5-.2.1-.4.5-.3.2-.5.1-.4-.1-.2-.2h-.1l-.1.2-.8-.9-.4-.1-.2.1-.4-.3-.1-.2.1-.2.2-.1-.1-.3-1.3-.6h-.4l-.2.1-.1.1-.4.1-.4.2-.7.1-.5-.3-.6-1-.1-.4-.1-.3-.1-.4-.2-.5-.5-.6-.7-1.3-.3-.2-2-2-.7-.6.1-1,.4-.6.5-.5.6-.4.5.1.9-.2.7-.1.2-.1,1-.9,1.1,2.1.8.8,1.3.5-.3-.6-1.7-2-.4-.7-.1-.9.2-.8.5-.6.2.5.3.4.4.3.1-.3-.1-.3-.4-.7-.1-.2.2-1,.5-.9.3-.9-.4-1,.6-.1.5.1-.2.2-.1.3v.7l.1.4h.3l.5-.4.9.1.2.1.5.5.2.1v-.4l-.2-.4-.4-.3-.4-.2.2-.1.2-.2.2-.1-.9-.3h-.4l.2-.5.2-.1.2.1.4.2.2-.8-.7-.3-1.1.1-.8.2.2-.8.6-.1.8.2h.8l-.2-.1-.6-.4-.2-.1.3-.1.1-.2h.2l.4-.1-.1-.2-.2-.5,1-.2,1.1-.1v.3l-.3.4h.5l1.5-.4-.7-.2-.2-.4.2-.4.9-1.1.3-.6.5-1.5.6.4.4.1.4-.1.5-.5.6-.3.8-.1.3-.3-.8-.2-.6.1-.7.2h-.5l-.3-.8.4-.1.8-.2.8-.3.5-.7-.9.2-2.1.5-.7-.3-.2-.8.1-.9.3-.7,1.4,1,.8.2,1.1.1.2-.1-.1-.2-.3-.2-.5-.1h-.6l-.4-.1-.3-.2-.3-.4h.9l.7-.1.5-.4.4-.6-.8-.5-.5-.6.1-.7.8-.6.4.2.3.3v.9l.8-.7-.4-1.1-.1-.9,2.3-.8.7-.8.5-1,.7-.6v-.4l-3.1.7v-.3l.4-.2.3-.2-1.3.1-.6-.1-.5-.3.2,2.2-3,1.7-3.6.6-2-1,.1-.5.8-.4.1-.4-.1-.2-.9-.4-.6-.4h-.3l-.1-.2v-.9l.1-.4.2-.4.3-1.3.3-.5.5-.3.7-.1.5.1v.4l-.6.6,2.5-.4.7-.3v-.3l-1.7.3.2-.6.3-.6,1.4-1.6.8-1.7h-.5l-.3-.1-.1-.2-.1-.4-.8.2-.6-.4-.6-.7-.8-.5.2.5.1.5-.1.6-.2.5-.4-.3h-.9l-.4.3v.3l.2.3-.1.1-.1.4-.3-.2-.1-.1h-.2l-.4-.1.1.9-.1,1.5-.4,1.2-.5.6-.2.3-.2,1.4-.1.4h-.8l-.7-.4-.2-.7.3-.7-2.6-2-.3-.5-.2-.8.2-.7,1.1-.1-.6-.8-.2-.3-.3-1.4-.2-1.6v-1.4l2-.3,2.3-1.8.6-.1.5.1.6.7.2.1.4.1.3-.1.3-.2.3-.2.1-.3.1-.2-.1-.4v-.3l.2-.2.8-.7.5-.7Z"/>
          <path id="COANT" class="cls-1" d="m151.15,353.85l-2-2-.3-.4-.5-1,.1-.8.6-2.1-.2-1.3-.4-.8-1.4-2.3-.3-1.2-.3-1.3.1-1.3,1.4-3.4-.3-2.4-1.3-.6h-1.3l-1.3-.5-1.4-1.9-1.2-3.1-.5-3.1-.4-.9-1-.7-1.7-.2h-2l-1.9.2-1.7.4-2.4.2-2.8.3-2.3.5-4,.1-1.3-.1-1.3-.4-.7-.5-.1-.2-.4-.5-.1-1-.6-.9-1.4-1.5-.1-.3-.2-1.1-.2-.2h-.4l-.4-.2-.4-.3-.1-.8.1-1,.3-.9.4-.5-.4-.3h-.3l.6-.8-.1-.6-.4-.6-.4-.8h.4l.3-.2.2-.2.1-.3-.8-.2-.1-.5.3-.7.5-.5-.1-.4-1.2-1.5-.7.2-.4-.5-.4-.6-.5-.5v-.9l-.2-.7-.5-.6-.7-.3-.7.3-.2-.6.1-1,.4-.8h.3l.4.3.3-.1.1-.7-.3-.3-1.1-.1-.4-.1-.3-.6v-.5l.2-.4.1-.5-.2-.3-.5.4-.4.5.1.3-.6-.1-.3-.2-.1-.3-.1-.6-.1-.4-.4-.1h-.9l1-1.1.1-.3-.2-.5-.7-.6-.2-.5v-1.9l-.1-.5.7-.3,1.5-.4.7-.1,1.6-1,2.4.2.5-.2.1-.3.7-.6.4-.6.3-.7-.3-2-.2-.8-.3-.5-.3-.3-.3-.1-.2-.2-.2-.7-.2-.4.2-.7.8-.4,1-.4,1.4-.3,3.3-.3,1,.1,4.2,1,.9.3.7.4,1.2.1,1.7-2.9.2-.4.2-1-.2-5.7-1.1-3.2-.6-.9-2.3-1.9-.5-.4-.7-.3-1.8-.2-1.3-.9-1-.8-4.1-5-5.3-5.8-5.2-3.7-6.5-5.9-.5-.7-.4-.7.1-.2.3-.1.2-.1h.1l-.1-.2-.1-.3-.1-.2-.1.1v-2.1l1.4.2,1.1-.7,1-1.1.8-.5.7-.8.9-5.2.4-.7.4-.5.9-.7.2-.9.3-.5.3-1.1-.3-4.3-.3-.9-.3-.9-.6-2.4-.1-.2.5.1.3-.6h.4l.3.5v.8h-.3l-.2-.1-.2-.2v1.3l.4.9.6.3.8-.4v1.1l.7-.8.2.6-.5.8-.1.8-.2-.1-.6-.2-.2-.1.3,1.8,1.2.8,1.2-.2.1-1h3.1l-.3.5-.3.5-.1.5v.6h.4l.1-.1.5-.3v.4l-1.7.7v.3l.4.1.3.2.5.4-.1.1v.3l-.3-.2-.3-.2h-.8l.4.5.5.3.5.4.3.6-1.3-.6-1.3-.4-1.2.2-.7.8v.3h.3l-.9,2.9,1.3,1.8,2.7.9,3.2.1.6-.1.6-.3.5-.3.4-.4.1-.4v-.3l-.1-.4v-.4l.1-.5.4-.5.1-.5.4-3.1-.1-1.4-.6-1.3-.2.5v.5l.2.4h-.3l-.3-.8-.2-1.1v-1.2l.6-1.8-.2-1.1-.7-1.6-.3-1.7.1-7.2-.3-.9-.7-.4-.7-.3-.3-.7-.2-.9-.3-.9-1-1.1-1.6-1.1-1.9-.9-1.4-.1v.4l-.6-.6.8-1.3,1.3-1.5.6-1,5-1.6,1.2-.1,5-1.4.6-.4.3-.4v-.6l.1-.5.2-.6.4-.2v-.4h-.3v-.3l.9-.2,3.5-1.3.7-.5,2.2-2.2,2.6-1.8.3-.3.3.2,1.4,1.3.3,1.1.9,4.1,1.2,1.7.9,1.6.8.7,2.7,1,.8.7.8,1.3.9,1.3.6,4.1.1,2.2-.1,2.2-2.7,3.2-2.4,3.4-2.7,5.4-1.5,2.3-1,1.7.1,4.7-.1,1.4-.7,2.4-1.8,2.9-1.8,6.9v4.9l.4,2.3,3.1,6.9,1.4,4.3,19.1.5,3.3.1,4.9.2.6-.1.6-.4.1-.5.2-.8,3.5-5.1,1.5-1,1.8-.6,3-.6,1.9-.7.9-.7,1.3-1.9.9-4.2.7-.9.9-.8,1.3-.8,1.6-3.6.9-.8,2.5-1.8,1.5-1.2,1.9-2.5,3.1-3.3.6-.9,1.1-1.6.7-.4,1.3-.3,3.8-.4h1.2l.9.3.6.1.7-.2.8-.4.7-.2h1l2.8.1,1.6-2.1,1.3-2.1.8-.9.9-.6.9-.2,11.9,9.7.9,1.6.9,1.3.6.6.5,1.5.6,5.1.4,1.5.6,1,.7.4.6.4.2.6-.1.9-.8,1.5-.9.8-1.2.7-1,.9-.7,1.3-.7,4.2.1,1.6.2,1.3,1,2.2,1.7,2.1,1,1,1,.2,1-.1,1.2-1,.6-.8.9-2.2.6-.9,2-1.7.9,2.9-.3,1.3-.3.8-.5.6-1.1,1.2-.3.7-.2,1.1.2,1.2v2l-.5,1.8v1.2l.4,1.6.9,2,.4,1.6.5,1.5.2,1.1.2,1.1.5.8,1.3.5.9.1,1.5-.1,1,.2,16.3-15.5v.1l-.3,2.2.5,6.6.2,1,.5.8.6.7.4.8.2,2.1-.6,1.4-1.2.9-4.2,2-.5.4-.3.8-2.1,2.2-1.6,3.1-.6.9-9.4,6.9-1.9,1-2,.2-.8.3-.3.7-.1.4-.7,1.5v.4l.1,4.7.1.6.9.9.3.6.1.5-.3.6-.4.5-.5.1-.6-.2-2.3,3.6-1.3,1.4-1.7,1.2-1.5,1-.9,1.1-.7,1.3-.4,2.2-.7,1.2-.2.7.1.7.2.5.8.8.3.9.1.7-.1,2.1.1.4.1.3v.4l-.2.5-.3.1-.8.4-.3.2v.9l.7,2.2-.2.4-.6.2-.7.7-.6.8-.3.7-.5,3.2-.7,1.4-.4.3-.2-.2-.4-.4-.2-.1h-.2l-.4.2h-.3l-.4.1-.2.1-.1.1v.4l-.2.4-.2.5-.3,1.1-.6,1.2-1.7.5-.5-.2-2.1-1.4-.5-.5-.2-.2-.2-.2-1-.3-1.2.2-1.9.4-3.2,1-.3.5-.2.3-.2.3-.3.3-.2.2-.4.3-.6.3-1,.3-1.9.2-.1,1.4v1.4l.1.2v.2l-.5.8-1.7,1.9v.4l-.2.2-.2.1-1.3.1-.2.1-.5.2-.7.3-1,.7-.5.4-.3.3-.5.9-.2.3-.3.2-.1.3-.6.9-.3.2h-.3l-.7-2-1.4.5.2-1.9v-.2l-.1-.6-1.2-3.6-.4-.5-.3-.2-.3-.1-.4-.2-.5-.6-.1-.5.1-.5.1-1-.2-.5-.3-.3-.7-.3-.4-.1-.2-.2-.2-.2-.6-.2-2.2,1.2h-.8l-.4-.2-1.9-.7-.2-.2-.2-.3-.1-.2v-.2l-.2-.2v-.1l-.6-.5-.6-.1-1.6-.6h-.6v1.7l.3.7.7.2-.3,1.6v.7l.8,2.8.1,1.1v1l-.3,1.2-.7-.2-.6-.2-1.2.1-1-.2-1.1.1-.5-.1-.6-.6-.5-.4-.8-.6-.7.1-3.3,2.4-2.7,1.1-1.1.1-2.4-.3-1.7-.7-1.2-.7-.9-1-.6-1.1-1.5-.8h0Z"/>
          <path id="COCOR" class="cls-1" d="m212.35,220.65l-.9.2-.9.6-.8.9-1.3,2.1-1.6,2.1-2.8-.1h-1l-.7.2-.8.4-.7.2-.6-.1-.9-.3h-1.2l-3.8.4-1.3.3-.7.4-1.1,1.6-.6.9-3.1,3.3-1.9,2.5-1.5,1.2-2.5,1.8-.9.8-1.6,3.6-1.3.8-.9.8-.7.9-.9,4.2-1.3,1.9-.9.7-1.9.7-3,.6-1.8.6-1.5,1-3.5,5.1-.2.8-.1.5-.6.4-.6.1-4.9-.2-3.3-.1-19.1-.5-1.4-4.3-3.1-6.9-.4-2.3v-4.9l1.8-6.9,1.8-2.9.7-2.4.1-1.4-.1-4.7,1-1.7,1.5-2.3,2.7-5.4,2.4-3.4,2.7-3.2.1-2.2-.1-2.2-.6-4.1-.9-1.3-.8-1.3-.8-.7-2.7-1-.8-.7-.9-1.6-1.2-1.7-.9-4.1-.3-1.1-1.4-1.3-.3-.2.9-.8v-.3l-.4-.6.4-.4,3.1-.8,1.2-.7.9-.1.5-.3.2-.5.5-.6,1.9-1.4.4-.6-.5-1.8.5-1.4,1-1.2,1.7-1.5.5-.6.3-.8.6-4.2.3-.8h.3l1.5-.6.2-.1.6-.2.3-.6-.1-.9.1-.9.2-.5.6-.6.5-.3.4-.2,2.1-.7,1.6-.5,1.4-.8,1.2-1,.1-1.3.4-.7,1.1.1.6.5,1.7-.1,1.7-.3,1.2-.5.4.1.4.3.3.4v.6l-.7-.3-.8-.1-.7.2-.6.6.4.2.3.1.3-.1.4-.2.3.3.2.1.1.2.1.4,1.5-1.1,1-.4,1.2-.2,1.1.1.9.3v3.2l1.3.5.5.3,1.5.4,2.7,1.3.7,1,.9,1,1.9.4.2.4.2.2.4-.1.7.1.8.5.4,2.2,1.4,2.2,8.8,4.1,2.2,1.6-.5.9.2.4.9,1.3.2.4-.2.3-.2.2-.2,2.5-.6.4-2.5.7-.7.1-.6.2-.7.5-1.1,1.1-.5.3-.4.4-.4.5-.1,2,.9,3.2-.3,1.3.1.8.1,1.1,1,3.2v2.2l.2,2.6.4.9.3.7.6.5,2.1,1,1.6,1.1,1.9,1.9,5.4-2.6,2.2-.6,2.7-1,1.2-.1h.7l1,.9,1.9,1.4,1.4,2.4,1.2,1.1.6.5.7.7.2.7v2.9l.2.9.1.3-.1.3-.8.8-.3.4-.2.5-.1.7-.3.8h0Z"/>
          <path id="COSUC" class="cls-1" d="m213.85,215.95v-2.9l-.2-.7-.7-.7-.6-.5-1.2-1.1-1.4-2.4-1.9-1.4-1-.9h-.7l-1.2.1-2.7,1-2.2.6-5.4,2.6-1.9-1.9-1.6-1.1-2.1-1-.6-.5-.3-.7-.4-.9-.2-2.6v-2.2l-1-3.2-.1-1.1-.1-.8.3-1.3-.9-3.2.1-2,.4-.5.4-.4.5-.3,1.1-1.1.7-.5.6-.2.7-.1,2.5-.7.6-.4.2-2.5.2-.2.2-.3-.2-.4-.9-1.3-.2-.4.5-.9-2.2-1.6-8.8-4.1-1.4-2.2-.4-2.2-.8-.5-.7-.1-.4.1-.2-.2-.2-.4-1.9-.4-.9-1-.7-1-2.7-1.3-1.5-.4-.5-.3-1.3-.5v-3.2h.1l1.2.4.8-.5,1.9-1.7,1.2-2.4,1-3.3v-3l-.5-1.4-.7-.7-.3-.4-.6-1h-.8l-.7-.5-.5-.3h-1l-.7.3-.6.4-.1-.5,2.8-2.8.5-1.4.9-2.8-.1-1.2.3-1.1.7-1.4.5-1.8.3-1-.1-1.1.7-2.9.1-1.7-.3-.9,4.8-2.6-2.3,4.1-.3.8.2.5.5.3h.7l.8-.3.9-.1.1,1.8.1.6.4,1v.4l-.2.6-.7,1-.1.4.3.6,1.2.6,4,1.3.7.2.7-.4h1l.1.8-.4.9-.4,1.6.2,1.2-.1.8-.5,1.6-.2,1-.1.9-.1.7-.4.7-.5,2.2,1-.8,1,.4.9-.8.4-.4.6-.3.8.1.9.3,1.5,1.1.7.1.6-.2.6.1.8.3,2,1.7,1,1.3,2.2,1.9.6.4h1.5l1.5.4-1.1,2.5.1.4.4.4.8.3,1,.2,1.1-.3.7-.2.3-.1.1.2.4.5,1,.7.5.3.2.3-.2.3-.7,1.2-1,2.3-.2.5.5.7-.3.9.1.6.2,1,.7,1.5.5,2.2v.6l.1.8.3.4.5.4.5.3.9.7.9,1.9,1,1.9,2.1,1.4,1.4.5,4.9,3.8,2.4,2.6,2.5,3.9.7.7.3.5v.4l-.3.3-.4.4-.6,1.2-1.3,1.1-.5,1.1.9,5.9.6,1.5.6.6-.1.3v1.1l.1,1.5.5,1.7.1.9-.2.6-.7,2-.3.6-.9-.1-.4-.2-.2.1-.2.4-.1,1.3-.6,1.2-.8.8-1,.8-1.2.4h-1.3l-1.7-.1-.5.2-1.1.9-.4.3-1.3.2h0Z"/>
          <path id="COBOL" class="cls-1" d="m261.15,184.85l.8,1,1.8,1.6.6,1,.2,1.5-.2,1.1-1,1.8-.2,1.1.1,3.4.3,1,.3.5.9,1.2.2.6v1.7l.2,1.2,1.1,2,.4,1.2.4,3.6-.2.8-.5.8.2.5.3.4.2.6-.1.3-.5.7-.2.4.1.2-.1,1.4-.1.5-.4,1-.1.6-.1.1-.5.5-.1.2v.3l.3.5.1.9.2.5-.1.5-.5.5-.6.2-.4.4-.3.6-.5.6h-.2l-1,.5v.1l-.5,1.4-.4,1.6v2l.9,2.8-.1.7.7,3,.5.5.2.4.6,3.1.1,1.1-.4,2.9-.2.6-.3.4-.1.4.4.7.2.5-.1.5-.2.4-.1.5.1,1.8-.3.7-.6.3-.2.5-2.8,3.6-.3.7v2l.1.5.5.7.1.6-.1.5-.6,1.4-.6,2.1-.3,2.2-16.3,15.5-1-.2-1.5.1-.9-.1-1.3-.5-.5-.8-.2-1.1-.2-1.1-.5-1.5-.4-1.6-.9-2-.4-1.6v-1.2l.5-1.8v-2l-.2-1.2.2-1.1.3-.7,1.1-1.2.5-.6.3-.8.3-1.3-.9-2.9-2,1.7-.6.9-.9,2.2-.6.8-1.2,1-1,.1-1-.2-1-1-1.7-2.1-1-2.2-.2-1.3-.1-1.6.7-4.2.7-1.3,1-.9,1.2-.7.9-.8.8-1.5.1-.9-.2-.6-.6-.4-.7-.4-.6-1-.4-1.5-.6-5.1-.5-1.5-.6-.6-.9-1.3-.9-1.6-11.9-9.7.3-.8.1-.7.2-.5.3-.4.8-.8.1-.3-.1-.3-.2-.9,1.3-.2.4-.3,1.1-.9.5-.2,1.7.1h1.3l1.2-.4,1-.8.8-.8.6-1.2.1-1.3.2-.4.2-.1.4.2.9.1.3-.6.7-2,.2-.6-.1-.9-.5-1.7-.1-1.5v-1.1l.1-.3-.6-.6-.6-1.5-.9-5.9.5-1.1,1.3-1.1.6-1.2.4-.4.3-.3v-.4l-.3-.5-.7-.7-2.5-3.9-2.4-2.6-4.9-3.8-1.4-.5-2.1-1.4-1-1.9-.9-1.9-.9-.7-.5-.3-.5-.4-.3-.4-.1-.8v-.6l-.5-2.2-.7-1.5-.2-1-.1-.6.3-.9-.5-.7.2-.5,1-2.3.7-1.2.2-.3-.2-.3-.5-.3-1-.7-.4-.5-.1-.2-.3.1-.7.2-1.1.3-1-.2-.8-.3-.4-.4-.1-.4,1.1-2.5-1.5-.4h-1.5l-.6-.4-2.2-1.9-1-1.3-2-1.7-.8-.3-.6-.1-.6.2-.7-.1-1.5-1.1-.9-.3-.8-.1-.6.3-.4.4-.9.8-1-.4-1,.8.5-2.2.4-.7.1-.7.1-.9.2-1,.5-1.6.1-.8-.2-1.2.4-1.6.4-.9-.1-.8h-1l-.7.4-.7-.2-4-1.3-1.2-.6-.3-.6.1-.4.7-1,.2-.6v-.4l-.4-1-.1-.6-.1-1.8-.9.1-.8.3h-.7l-.5-.3-.2-.5.3-.8,2.3-4.1-4.8,2.6-.4-.8v-1.1l.2-.3.2-.2.4-.1.4-.2.2-.3.5-1.1.4-.6.1-.3.2-.5.1-.6-.1-.5.1-.5.2-.5-1.6.9-2.1,1.4-2,2.1-2.1,1.2-.9-.2.7-1.7,1.5-.8.7-.5.4-.5.4-.5.2-.7.5-.6.1-.6-.2-.6.2-.4h1.1l-.3-.4v-.9l.3-.4.4,1,1.1-.2,1.8-1.2.6-.5v-1.1l-.3-1.4-.1-1.2h-.4l-.4.3-.3-.4-.3-1.3h-.4l-.1.5-.2.3-.2.2h-.5l.2-.4.3-.9.2-.4.3-.3.6-.3.3-.3,1.5-1.6.4-.4-.2.9-.6,1.1-.1.9.8.3.6-.4.3-1.1.1-1.3-.2-1.1-.2-.2-.3-.1h-.5v-.3l.3-.7v-1.2l-.2-.5-.7-.1-.2-.2.3-.5.5-.5.5-.2.6-.1.6-.2.6-.4.5-.4v-.3l-.4-.5v-.2l.2-.1.4-.2.1-.1.4-.2h.5l.3-.1.2-.6h.2l.3-.5.4-.5v-.3l.3-.1,1.2-.5,3.3-.9.6-.4.5-.8.3-.5.3-.1.3.2h.3l.2.2.1.3-.1.2-.2.2v.2l.3.3v.3l-.3.5v.2l-.1.5v.2l.1.3.3.4,1,.8.2.2.1.3.1.3.1.4v1.1l-.2.3-.2.3-.4.2-.5.4-.1.7-.5,1.8-.1.2.2.7.4.8.1.2.2.3.3.2,1.9.2.9.1.7.2.1.1.1.3.1.1-.4.6.7.5,1.5,2.3,2.8-.6,2.3,2.3.9.2.3.1,1.3,1.1,2.3,2.6,1,1.3-.4.7-.3,1.7-.7,1.7-.1,1.1.2,1.5.6.6.8.3,1,.6.3.2,1.6.3.3.3.3.2.4.6.7,1.6.1.2.4.1.4.3.1.4-.1,1.4-.3.7-.6.4-1.8.9-.5.5-.3.7-.2,1.1.1,2.3.2,1.1.4,1,.5.7,1.8,1.6.3.8-.3,1.1-.4,1.2-.2.9.2,1.1.4.7,1.4,1.2.6.9.1.8-.6,2-.7,4.6.3,2,1.5-.2.3.4,1.1,1.3.6-.3.7-.3.6.1.7.3.2.4.3.8.2.2.3.2.6-.1.3.1.8.5.4.3.1.5.1.6.3.5.3.4.4.4,1.7,1.1.7.8.5,1.7.3.5.5.3.5.2.5-.1.3-.2.3-.4.3-.4.8-.4.8-.1,1.6.2.3.3.3,1.3.3.5.7.2.4-.1.5-.3.5-.2,1,.1,1.1.4,1,.5.4.6.1,1.4.3.5h2l.9.6,1.3,2.1.8,1,2.1,1.2.7.6-.6.5,1.4.6,1.8.4,1.5-.2.9-1.1.5.5.7.5.4.6-.3.8,1.7,1,4.2.1,1.4.7-.6,1.5.1,1.5.6,1.4h0Zm-68.8-96.5v-.2l-.8.7-.2.3-1.1-.5-.2-1,.4-.9,1.8-.6.1-.2.2.3.2,1.3-.4.8h0Zm-18.1,20.4l.5-.5.4.3.7.2.9.3.1.6-.6.6-.4-.1-.6-.1-.5.2-.1.7-.2.3h-.4l-.2-.6-.1-.8.2-.7.3-.4h0Z"/>
          <path id="COATL" class="cls-1" d="m208.15,113.95l-1-1.3-2.3-2.6-1.3-1.1-.3-.1-.9-.2-2.3-2.3-2.8.6-1.5-2.3-.7-.5.4-.6-.1-.1-.1-.3-.1-.1-.7-.2-.9-.1-1.9-.2-.3-.2-.2-.3-.1-.2-.4-.8-.2-.7.1-.2.5-1.8.1-.7.5-.4.4-.2.2-.3.2-.3v-1.1l-.1-.4-.1-.3-.1-.3-.2-.2-1-.8-.3-.4-.1-.3v-.2l.1-.5v-.2l.3-.5v-.1.2h.4l.3-.5,1.1-1-.3-.4-.1-.4v-.7l.4-.8-.2-1.3-.2-.3.7-.8.5-.3h.6l.6-.1.5-.3,3.2-2.1,2-.5,1-.6.7-.8-.1-.8.2-.5.3-1.2.2-.4.5-.4.7-.3h.9l1-.4.6-.8,1.3-.9.1-.9h1.4l1.7-.2.8-.7v-.9l-.1-.4.5.8,2.1,1.9,1.1,1.3.5.8.3,2.1.5.7.5.5.6.6.2,1-.3.9-.4,1-.2,1.1v.7l.9,2.3.1.4v1.1l-.3,4.4.1,3.3-.1,1.1-1,1.7-3,2.1-.9,1.8-.3,2.4-.3,1.1-.6,1-.8.9-2.7,5.3h0Z"/>
          <path id="COMAG" class="cls-1" d="m276.65,61.85v.2l.1,1.3-1,2.9-.2.5-.4.2-.2.2-.7.8-.2.2-.4.2-.4.1-.2.2-.1.3.2.8v.6l-.1.6-.1,2.7-.3.8-.3,1.2-.1.5.1.4.6,1,.3.7.2,2.1,1.1,3.8v.5l-1.7,2.6-.3.7.4.2h1.6l.8.2.8.4.6.6.1.7-.7,1-.6.6-1.4,2.6.5.9.2.8.3,1.9v.8l-.2.8.2.4.3.3.4.2.5.4v.6l-.4.4-1.1.6-1.5.4-.4.2-.2.4-.3.8-.4.4-.7.1h-.6l-.5.2-.7.9-.8.3-.7.2-1.8,1.3-1.9.6h-.6l-.4-.2h-.9l-.6.2-1.8.3-.7.3-.7.6-1,1-.4.9-.4,1.3-.6.8-1.5,1.6-.8,1.1-.5.6-.5,1.1-.9,1.2-.3,2.5-.4,1.6-.2.6v.7l.1.6,1.6,2.7,1.4,2.2.5.6.7.4.7.5.9.7,2.9,4,.5.4,2.2,2,.2,1.4v.4l-.3.8,1.4,2.4,1.6,4.9-.8,1-.3-.3-.2-.3-.2-.3-.2-.1h-.4l-2.1,1.3-.5.2h-.5l-.4-.1h-1.9l-.4-.2-.7-.5-.4-.1h-.8l-.6-.2-.4-.1-.4-.1-1.1.2-.8.3-.8.5-2.5,2.9-1.5,1,2.8,1.7,2.2,2,1,.6.9.8.3,2.9.6,1.1.4.4.5.3.3.3.2.4.1,1.8.1.4v.7l-.1.2-.2.2-.2.3-.1.2v.3l.1.2.2.4.2.3.6.3,2,.4h.5l.4-.1h.3l.3.4v.9l.3,1,.6,1.2,1.5,1.4,1.3,1.8-1.2,1.9-.5,1.5-.5,1-1.4,4.2-.6-1.4-.1-1.5.6-1.5-1.4-.7-4.2-.1-1.7-1,.3-.8-.4-.6-.7-.5-.5-.5-.9,1.1-1.5.2-1.8-.4-1.4-.6.6-.5-.7-.6-2.1-1.2-.8-1-1.3-2.1-.9-.6h-2l-.3-.5-.1-1.4-.4-.6-1-.5-1.1-.4-1-.1-.5.2-.5.3-.4.1-.7-.2-.3-.5-.3-1.3-.3-.3-1.6-.2-.8.1-.8.4-.3.4-.3.4-.3.2-.5.1-.5-.2-.5-.3-.3-.5-.5-1.7-.7-.8-1.7-1.1-.4-.4-.3-.4-.3-.5-.1-.6-.1-.5-.4-.3-.8-.5-.3-.1-.6.1-.3-.2-.2-.2-.3-.8-.2-.4-.7-.3-.6-.1-.7.3-.6.3-1.1-1.3-.3-.4-1.5.2-.3-2,.7-4.6.6-2-.1-.8-.6-.9-1.4-1.2-.4-.7-.2-1.1.2-.9.4-1.2.3-1.1-.3-.8-1.8-1.6-.5-.7-.4-1-.2-1.1-.1-2.3.2-1.1.3-.7.5-.5,1.8-.9.6-.4.3-.7.1-1.4-.1-.4-.4-.3-.4-.1-.1-.2-.7-1.6-.4-.6-.3-.2-.3-.3-1.6-.3-.3-.2-1-.6-.8-.3-.6-.6-.2-1.5.1-1.1.7-1.7.3-1.7.4-.7,2.7-5.3.8-.9.6-1,.3-1.1.3-2.4.9-1.8,3-2.1,1-1.7.1-1.1-.1-3.3.3-4.4v-1.1l-.1-.4-.9-2.3v-.7l.2-1.1.4-1,.3-.9-.2-1-.6-.6-.5-.5-.5-.7-.3-2.1-.5-.8-1.1-1.3-2.1-1.9-.5-.8v-.5l-.1-.3.3-.3,1.3.6,1.1.4,2.7.9,5,2,3.7,1.3,2.5.6,2.6.4,3.4.3,3.4-.2,2-.2-.8.5-2.5.5-4.8-.1-.6-.1-.6-.2h-.5l-.6.3-.2.4.1.6v.5l-.4.2-.2.7.5,1.5,1.3,2.4-.8-.4-.8-.8-.6-.5-.6.6-.4-.5h-1.2l-.7-.3-.4.2-.4.8-.3,1.1-.1.7v2.3l.4.4.7-.3.3-.8.2-.9.5-.6v.6l.2.4.3.2h.5l-.1.5.1,1.9.8.4.8-.1.7-.4.2-.9-.6.3-.5-.1-.2-.5-.1-.8.2-.7.4-.4.2-.5-.1-.6,1,.2.6.7.3,1,.3,2.5.4.6.8.1,2-.1h.4l.4-.3,1-.9.2-.2.1-.5,1.5-2.7v-1.8l.6-1.1.1-.4.1-.3.7-.8.2-.3.4-2,.5-1.1,3.1-4.7.2-.4-.2-.6-.7-.8-.2-.5v-.6l.3-.9.1-.5-.1-.5-.5-.9-.1-.5.1-.2.5-.5.1-.2-.1-.3-.1-.2h-.1l-.1-.2.1-.5.3-.5.7-1,.2-.3.3-.1.1-.2.1-.6.7-1.2.8-.1.6.2.4-.3-.1-1.2h.4v.3l.1.2.2.5.6-.7.1-.3.1.1h.1l.2.2h.3v-1l.5.4.4.8.5.2.5-.3.2-.5.3-.3.4.4h.3l.1-.4.2-.2.3-.1h.5l1.2.1,1,.4.9.6.8.8.4.1,2.3.5,1.7,1,2,.6,6.1.5,5.7-.5h1.4Z"/>
          <path id="COCAQ" class="cls-1" d="m261.45,656.75h0l-3.9-1.2-2.4-1-1.1-.8-1.7-1.9-2.7-2.1-.9-.5-.9.3-.9.4-.9-.1-.3-.3-.2-1-.2-.3-.5-.3h-.3l-.3.1-.5-.1-.5.1-.4.2-.4.1-.6-.3-.4-.5-.2-.4-.5-1.5v-.4l-.1-.4-.3-.5-.5-.4-1.8-.9-1.1-.2-1.8.7h-.8l-.4-.6v-.8l-.3-.8-.8-.3-.8.3-.5,1.5-.7.3-.9-.1-.4-.3-.5-.2-.9.2-.8.1-1-.1-1-.4-.8-.4-.2-.4-.4-1.1-.2-.4-.5-.2-.3-.1-.4.1-.8-.2-.4.1-.4-.2-.2-.7-.1-.9-.1-.4-.6-1.1.1-.3.3-.4.7-1.3.2-.4-.2-.2-1-.4-.7-.4.2-.6.5-.6.3-.6-.3-2.1-1.3-1.5-1.8-1-5.7-1.1-3.2-1.7-2.2-.8-.4-.5-.2-1.7-.7-2.3-.2-.7.4-3.4-.6-1.4-1.9-.4-1,.3h-.5l-.5-.1-.2-.3-.1-.8-.1-.3-.7-.3h-.6l-1.2.5-1.7.4-1.1-.4-.8-1.1-.7-1.7-.2-.9.4-1.7v-.8l-.4-.9-1.2-1.4-.4-.8-.1-.5.1-1-.2-.5-.4-.5-.6-.3-1.2-.6-1-.2-2.8.4-4.3-.3-2-.7-3.1-3.3-2.1-1-2.3-.2-3.4.2h-1l-.9-.3-.9-.6-1-.5-2-.2-.9-.5-2.8-3.3-.6-1.1-.1-.9v-.7l-.2-.6-.7-.6-.9-.2-1.9.2h-.9l-1.4-.6-.7-.1-.7.1-5-4.5-.5-.1-2,.3-2.4-.5-.8-.4-.6-.8-.6-1.2-.1-.5.6-6.7.2-.6.9-1.3.4-.8.3-1.7,1.2-2.5,2.2-3.6.9-1.4,1-.7,3.2.6,2.6.1,1.2.1,1.3-.2,1.1-.4.9-.9.8-1,1-1,2.6-1.9.7-.7.7-1.2,1-1.2,3.3-3.5,2.5-3.5,3.4-5,3.8-3.4,3.8-6.2,1.6-2.6,1.2-2.1,1-.9,2.4-1.7.5-.3,1.9-2.1.7-1,.7-1.5,1.6-5.7.8-1.2.6-.6.6-.2.6.1,1.4.9.6.2,1.7-.5,4.3-3.4,1.8-1.9.3-.9-.4-1.5-1.1-1.2-1.2-.8-.4-1.2.2-1,.7-1.6,1-1.8,2.2-2.9,2-1.8.7-.7.4-.2.9-.3,5.1,1.7,2.4.3,1,.2.9.6.6.6.5.7,1.4,3.8.8,1.1,1,1,.9.7.7,1v1.8l-2.8,11.2-.4,2.5v1.6l.2,1.8.5,1.5.8,1.3,3,3.4.8,1.1.5,1.1.1,1-.4,1-.7,1-1.2,1.2-.9,1.3-.5,1.5-.1,1.8.5,2.3,1.1,2.5,1.8,2.2,2,1.3,30,10.6,1.4.2h1.9l4.8-.3,4.2.7.4,1.3.1.7,5.2,7.5.8.8,2.5,2,.7.8.8,1.5.8.9.5.8.5,1.6.1.7.1,1.2.2,1.2,2.5,2.9,5.1,4.5,1.4,1.8,1.8.5.6.4.4.6.3.8.5.7.9.7,1.2.7,2.6.8h1l.8-.1.7-.3.7-.4.4-.3.8-1.2,1.1-.9,1.1-1.1.7-.7,1.6-.7.7-.5.3-.6.2-.7.1-.5-.2-1v-.6l.5-.8.1-.9.2-.5.6-.8.4-.2.5-.1.4-.1.2-.3.2-.4.3-.1.7.2.8.5.7.9.7.6,1.1-1.7.1-.5,1.1-.2.6-.1,1.7.6.8.5,1.4,1.3,4.2,2.7,1.2.3,1.7.3.7.3,2.3,2.2.5.8.2.9.1,1.6.2.8.3.7.5.4h.8l.7.3.4.9.2,1.6.2.3.5.3.5-.2.4-.4h.4l.3,1.1v.7l-.3.9v.9l.5.5,1.4.5.5.4.9,2,.4.4,3.4.3.9.2,2.4.9.4.3.2.4.2.6.2.5.4.3,2.2.2.8.5.5,1.1.3,2,.4.9.8.6.4-.2.2-.4.4-.2.8.5.6.7.3.8v.8l-.5.7v1.2l1.6,1.3,2,1.3,1.1.9v.8l-.3.9-.2.8.3.7h.8l1.5-1.1.8.2.5.8.4.9.6.8,1.2.4.6.4,1,1.8.6.7,5.1,2.4,2.5,1.7.6-.1.6-.3.8-.2h.5l.9.3.4.1.6-.1,1.6-.4.5.1,1.2.7,1.8.6,1.5,1.5-3.4,3.3-2.6,1.5-9.4,4.1-3.2,2.2-1.9,2.2-.6,2.2-.7,1.6-1.1,1-1.6.7-2,.4-6.9-.1-1.5.2-1.3.6-1.9,1.9-2.7,1.5-.8.8-1.6,2.6-.9,1.2-1.1,1.2-.9,1.3-.3,1.6v1.8l.1,1.4-.1.3-.2,1-.6.6-1.3,1.1-2.3.4-1.7-1.1-1.6-1.6-1.6-.9-1.3.5-1.6,1.4-2.4,2.7-.7,1.1-.5.7-.7.1-1.3-.6-1.3-.9-5.3-4.3-1.5-.6-1.5.3-1.8,1.2-3.5.6-5.8-3.8-3,2.2-1.2,1.2-1.2.4h-1.3l-1.8.4-2-.2-2-1.5-1.8-1.9-1.7-1.3-.9-.2-.4.1-.5.4-.9.5-1.1.2-2.3-.1-2.2.1-3.9-.6-.6-.3-.4-.7-.6-1.5-.5-.4-.5-.1-.6.1h-.7l-.2-.1-.2-.1-.2-.2-.1-.4.2-.9-.1-.4-.3-.2-.3-.1h-.3l-.2-.1-1.5-1-.9-.4h-.8l-1.4.8-.7.3h-.9l-3.9-.7h0Z"/>
          <path id="COHUI" class="cls-1" d="m145.95,556.95l-1.9-.8-1.9-.1-1.8-.6-.8-.5-1.3-.4-2.5-.8-1.8-1-1.3-1.3-2.3-3.6-2.6-3.4-3.7-2.9-1-1.8-.2-2.2.1-.6.4-.9,1.3-1.3.2-.5-.2-1.5-.1-2.3.9-1.1.7-.4.8.2.6.3.8.1h.9l1,.2.7-.1.7-.3.4-.3.2-.2-.1-.4-.1-.4-.1-.5v-.4l.7-.8.6-.3.7-1.3.7-1.9.2-.6.4-.5v-.8l-1.8-4.1.7-2.7,1.5.4.8.7,2.8,2.2,1,.2h1.2l4-1.1,1.7-.6,3.6-1.8,1.2-.9,1.2-1,1.2-1.4.7-.3,1.8,1.3,1.7,1.5,1,.5,1.6-.1.7-1,.6-.7,1.2-.6-1.4-2.9.1-1.4,1-2,1.1-3.6-.7-1.2-.6-1.4-.7-.7-.9-.7-.8-.3-.7-.6-1.3-1.6-1.3-1.1-5.4-4.7-.3-.9,1.5-1,.6-.1.8.2.4.4.6.5,1,.5,4,1.5,1.4.1.8-.2.4-.6,1.1-2.2,1.9-2.1,5-4,.9-1.1.4-1.7,1.3-1.3.1-2,1.2-2.3,1.4-2.3,1.5-2,1-1.5.7-.7.6-.1.5.1.5.1h.5l.6-.1.4-.4.5-.2,1-.3.4-.3.3-.3.3-.6.3-.2.3-.1,1.5-.2h.5l.5.3,1,.7.7.4.8.6.2-.2.4-.3.3-.6.7-.7.6-.1.4.1.3.3.1.3,1,.4v-.8l.5-.6.6-.3.3-.3.4-.2.4-.1h5l-.3.6-.3,1.1v.5l-.2.5-.4.5-.1.4-.1.8-.1.7-.2.6-.1.6.2.4.4.4,2.3.6,2.4.2,2.9-.6,2.7-2.7,1.9-2.8,1.1-1.2,1-1,.3-.6-.1-.5-.2-.6-.1-.8.2-1.2.3-.6.5-.4.5-.2.6-.7.2-.4v-.5l-.2-.4v-.6l.2-.5.3-.4.2-.3.4-.1.3-.1.4-.5.5-1.1.5-.6.6-.7,2-1.3,3.2-2.9.2-.7,1.7,2,1.9,1.4-.3,1.5-1.1,2.7-1.1,1.9-3.7,5-.6,1.8-.3,2.1-.2,4.2-.2,1.7-.5,1.6-1.5,2.6-1,.8-2.4,1.5-1.3,1.4-1.4.7-1.2.8-.5.7-1.8,3-1.3,3.9-.1.3-.9.3-.4.2-.7.7-2,1.8-2.2,2.9-1,1.8-.7,1.6-.2,1,.4,1.2,1.2.8,1.1,1.2.4,1.5-.3.9-1.8,1.9-4.3,3.4-1.7.5-.6-.2-1.4-.9-.6-.1-.6.2-.6.6-.8,1.2-1.6,5.7-.7,1.5-.7,1-1.9,2.1-.5.3-2.4,1.7-1,.9-1.2,2.1-1.6,2.6-3.8,6.2-3.8,3.4-3.4,5-2.5,3.5-3.3,3.5-1,1.2-.7,1.2-.7.7-2.6,1.9-1,1-.8,1-.9.9-1.1.4-1.3.2-1.2-.1-2.6-.1-3.2-.6h0Z"/>
          <path id="COGUV" class="cls-1" d="m431.95,495.75l-20.1,8.3-.6.5-.1.4.5.5,2.9.9,2.5,1.3,1.2.4,1.1.6,1.1,1.1,2.5,3.5,2.1,4.1.7,1.5.6.7,1,.7,2.5.7,1.1.3h.3l.5.3.4.5.1,1,1.9-.3.3-.2.7-.3.7-.2.7.1,2.8.9h.6l1.2.7.7.3.5-.3.1-.5v-.7l.4-.2h.8l.9-.3h.7l.3.2.3.3.6.2h1.2l1.5-.5h.9l.3-.1v-.2l.2-.3.6-.1,1.5.1.8-.3.6-.4h.6l.7.5.9,1.4,1,1.2.2.3.1.3-.3.8-1.3.8-.4.5-2,1.3-1.5,1.2-.1,1.1-2.2,1.5-1.2,1.2-.6.5-.9.4-3,.3-2.2.6-1.8.6-1,.1h-.9l-.6.2h-.8l-2,.3-.9.5-.8.7-.5.4-.6.3-1.9.4-1.1.4-3.4.7-1.5.9-.9.1-.8.1-.7-.1-.6-.2-.5-.3-.5-.1-.6-.2-.6.1-1.9-.1-4.7.1-.4-.1h-.4l-.4.1-.8,1.1-2,2.1-1.3.8-1.7.9-2.6,1-4.2,2.2-2.4,1.8-.9.9-1.1.9-.8.6-1-.2-.5-.1-1-1.1-1.7-.6-1.5-1.2-.8.2-.2,4.3-.2,1.4-.3,1.1-1.4,1.7-.4.8-.5,1.8-1,2.5-.6,1.1-.3,1.3-.4,1.4-2.3,5.5-.5.4-.1.5v.5l.1,1.2-.1.6.7,1.3.2.5.7,1,.3.7.4.6.3.6-.2.5-.5.1-.6-.2-.4-.5-.1-.5-.1-.7-.1-.4-.3-.2-.3.1-.3.2-.1.7.1.6-.1.3-.7-.1-.4.2-.2.5v.5l.1.6-.1.5-.6,1.2-.6.8-.9.7-2.3,2.3-.6.2h-.5l-.7-.3-.8-.1-.9.2-.7.6-.8,1.1-.3.9-.4.7-1.6,1.6-1.5,1.3-9.5,9.9-2.2-.2-.4-.3-.2-.5-.2-.6-.2-.4-.4-.3-2.4-.9-.9-.2-3.4-.3-.4-.4-.9-2-.5-.4-1.4-.5-.5-.5v-.9l.3-.9v-.7l-.3-1.1h-.4l-.4.4-.5.2-.5-.3-.2-.3-.2-1.6-.4-.9-.7-.3h-.8l-.5-.4-.3-.7-.2-.8-.1-1.6-.2-.9-.5-.8-2.3-2.2-.7-.3-1.7-.3-1.2-.3-4.2-2.7-1.4-1.3-.8-.5-1.7-.6-.6.1-1.1.2-.1.5-1.1,1.7-.7-.6-.7-.9-.8-.5-.7-.2-.3.1-.2.4-.2.3-.4.1-.5.1-.4.2-.6.8-.2.5-.1.9-.5.8v.6l.2,1-.1.5-.2.7-.3.6-.7.5-1.6.7-.7.7-1.1,1.1-1.1.9-.8,1.2-.4.3-.7.4-.7.3-.8.1h-1l-2.6-.8-1.2-.7-.9-.7-.5-.7-.3-.8-.4-.6-.6-.4-1.8-.5-1.4-1.8-5.1-4.5-2.5-2.9-.2-1.2-.1-1.2-.1-.7-.5-1.6-.5-.8-.8-.9-.8-1.5-.7-.8-2.5-2-.8-.8-5.2-7.5-.1-.7-.4-1.3.7-.9.2-24.5-.1-6.5.3-2.1.3-.4.4-.9.5-.6.3-.4v-.4l-.1-.4v-.5l.4-.5.6-.4.4-.1h.3l.1.4v.4l.3.4h.4l.5-.1,1.5-1h.4l.2.3.5,1,.3.3,1.6-.2.5.1.3.2.4.1.2-.3.3-1.6.6,1.2-.1.5v.6l.2.4.2.1.3-.3.4-.4h.9l.4.2.3.5h.2l.2-.3.2-.5.3-.4h.6l.3.2-.1.8.2.3.4-.1.3-.4.2-.3.4-.2,1.3.5.9-.2,1.2-.1.5-.3v-.4l-.3-.4v-.3l1.6-.9.9.4,1.2-.2.3.1.2.4.1.4.4.3h.5l.5-.2.2-.4v-.8l.3-.2.4.1.3.2.4.3.4-.1.7-.7,1-.8.8-.3.5.1.3.2.5.1.7-.4,1-.9.9-.4.4-.5.4-.5,1.1-.2.2-.4-.2-.5-.3-.3-.3-.3.3-.8.9-.5.3-.5.4-.7,4.3-2.5,1-.3.5.1.5.7.5.3.5.7,1.2.4.7-.8.5-1.1.5-.6,1.7-.3.7.3.3,1.7.1.4.4.2.5-.2.3-2.1.8-.6.5.3.8,1.4h-.4l.2.1.6.3v-1.5l.1-1.1.6-.6h1.3v-.3l-.2-.2-.4-.2-.3-.3-.1-.2.1-.5h.4l.4.2.4.1.6.1.3.1h.3l1.2-.9.4-.2,1.8-.2.9-.2.8-.4,2-1.8.9-.1,2,1.2.3-1.1.4-.6.6-.1.8.8.6,1.7.2.3.2-1v-1.1l-.1-.5.1-.3.7-.5.7-.4.6-.2.7.1h.1v-1.2l-.2-.9v-.9l.2-.7.6-.3,2-.4,1-.3.8.2.7,1.2.7.6,1.2.3,1.9.2.6.5.2-.2.4.6h.7l.7-.2.7-.1.2-.1.2-.2h.2l.8-.2,4.4-.8,1.1-.5.5-.6.7-.4h.4l.4.5.3,1.5.6.2.4-.5.2-.9-.1-1.5.3-.4.4.1,1.9,1.8.7.2.6-.3.4-.4.4-.4h.3l.2.3-.1,1.3.2.6,1.1.2,2.2-1,.5-.6.4-.4.5-.2h.7l1.4-.2,1,.2,1.1.3.6-.1.7-1.1h.4l1.7,1.1,1,.4.6-.1.2-.5.1-.5.3-.3h.5l.4.4.5.4.5-.1.3-.5.3-1.3.3-.5h.5l.4.4.2.7.4.6.4.4h.9l.5.1.6.4h.5l.6-.2,1.8-1.3.4.1.6.4.5.4.5.1.5-.2.4-.4.3.1,1.1.5,1-.2,1.1-.2,1,.6h.8l1,.3.2.4-.1.5-.1.5v.5l.3.2.4-.1.2-.5v-.6l-.2-.9.1-.5.5-.1.8.7.6.9.5.3.3-.3-.1-.6.4-.5h.4l.7.6v.6l-.1.6.1.3,1.3-.7h.8l.8.5.6,1.2.5.2.8-.2.7-.4.7-.4.6-.2.4.1.2.4v.6l.2.5.3.1,2.1-1.7.3-.4v-.5l-.2-.6-.3-.5-.1-.4.2-.3h.5l.5.3,1.2,1.5h.5l.6-.6h1l.8.2,4.8,2.9h0Z"/>
          <path id="COCAL" class="cls-1" d="m221.05,343.95l.2.4.4.3.2.3v1.7l.1.2.1.3.2.1.4.2-.1.3-.2.3-.3.6-.4.5-.1.5.5.2.3.6-.3,1.4-.9,2.2.8.2.2.3-.3.4-.9.1-.7.2-.1.5.3.5.7.2-.3.8-.1.9.1,1,.3.8-.7.1-.2.3.3,1.2-.2.2-.4.3-.3.3-.4,1.4-1,1.7-.2,1-.2.2-.8.8-.2.1-.3.3.1.6-.5.1-1.9-.8-1.8-.5h-.5l-1,.2-1,.4-1.9-.4h-1.1l-1.8.7-1.1.1h-.7l-.9.4-.4.3-1.3.6-.2.9-2.2,3.1-.3.6v.3l-.2.3-.2.2-.5.1-.7-.2-1.1-.5-1.5.7-.5.5-.7.4-.9.3h-.7l-.6-.1h-.6l-.8.4-1.1,1-1.2,1.3-.4,1.3.9.5.6,1.2-1.5,3.1-.2.7-.1.7.8,1.5.4.8v.7l-.4.8-.9,1.3-1.1,1.9-1.3-1.2-1.5-1.2-.9-.9-.7-.9-1-1.5-.4-.3-.6-.2h-1l-1.4-.4-.5-.1-1.2.1-1.3-.2-.2-.3v-.2l-.1-.3-.5-.9-.4-.2-.2-.1-.1.1v.1l-.1.1-1,.9-.3.2-.3.1h-.7l-.5-.1-.4-.1-.2-.2-.2-.5-1.8-4.2h-.3l-1.5,2.3-.1.4-.1,1.7-.1.5-.3.5-.8.7-.4.2-1-.2-1-.4-.1-.4-1.2-.9-.6-.8-.3-.7-.1-.3v-.4l-.1-.8-.4-.7-.6-.6,1.1-2.9.6-1.1.3-.1.4-.1h.9l.3.2.9.5.4-1.9,1.1-2.2.1-.4.1-.4-.1-1-.1-.3-.3-.3-.2-.2-.1-.4-.1-.5.2-.6,1-.8h.2l.4.1.9.4.8-.2.8.7.2.1.4.2,1.6.3.9-.3.4-.1,1-1.5.2-.5-.6-.6-.3-.4-.1-.7v-.3l-.3-.5-1.5-1.5-.5-.4-.5-.3h-.3l-.2.1-.6.4-.2.1h-.6l-2,.9-.3.1-1.9.2-.9-.7v-5.8l2.7-1.1,3.3-2.4.7-.1.8.6.5.4.6.6.5.1,1.1-.1,1,.2,1.2-.1.6.2.7.2.3-1.2v-1l-.1-1.1-.8-2.8v-.7l.3-1.6-.7-.2-.3-.7v-1.7h.6l1.6.6.6.1.6.5v.1l.2.2v.2l.1.2.2.3.2.2,1.9.7.4.2h.8l2.2-1.2.6.2.2.2.2.2.4.1.7.3.3.3.2.5-.1,1-.1.5.1.5.5.6.4.2.3.1.3.2.4.5,1.2,3.6.1.6v.2l-.2,1.9,1.4-.5.7,2h.3l.3-.2.6-.9.1-.3.3-.2.2-.3.5-.9.3-.3.5-.4,1-.7.7-.3.5-.2.2-.1,1.3-.1.2-.1.2-.2v-.4l1.7-1.9.5-.8v-.2l-.1-.2v-1.4l.1-1.4,1.9-.2,1-.3.6-.3.4-.3.2-.2.3-.3.2-.3.2-.3.3-.5,3.2-1,1.9-.4,1.2-.2,1,.3.2.2.2.2.5.5,2.1,1.4.5.2,1.7-.5.6-1.2.3-1.1.2-.5.2-.4v-.4l.1-.1.2-.1.4-.1h.3l.4-.2h.2l.2.1.4.4.2.2.4-.3h0Z"/>
          <path id="COCAS" class="cls-1" d="m339.65,314.45l-1.3,2.1-.2.6v.5l.3,1.3,1.1,1.9,2,2,1.2,2.4.7.6.9.6,2,1,1.7,1.1,1.2.3h.8l2.9-2.1,2.8-.7,2.9-1.3,1-.3h1.1l.9.2,1.6-.2,5.4-2,1.4-.3h3.8l1.1-.4.8-.1.5.1,1.3.7.8.2,1.5-.4h.9l1.1.1,1.3-.1,2-.7.7-.4.8-.2,1-.2h1.5l1.9-.8,1.2-.8.6-.1.6.1.8-.2.8.1,1-.7,1.7.3,1.6.7,1.2.1h2.7l1.7.3,3.7,1.3,4.8.3h.5l1.2-.4,1-.3,1.1-.2.9.2,2,.9.2.1h2.8l4-.6,2.6-.2h1.9l1.1-.3,2.1-1,3.5-1.3,1.3-.1,1,.1,1.6.5h2.1l1.5-.2h1.7l1.3.2.7.1,1.7.8.4.3.6.9.4.3,1.5.9.4.4.3.5.1.6.3.6.7.5,3.3,1.3,1,.5,1.2,1,.4.5.2.4v.9l.8,1,1.7.8-1.1,1.1-1.1,1.7-3.6,8.3-.8,1.4-2.2,2.2-.3.8-1.7,2.6-1.2,1.2-1.5,1.3-1.7,1-1.5.7-2.1.4-4,.2-1.9.4-3.2,1.2-1.1.2-1.1.4-3.2,2.4-3.4,1.8-1,.8-1,.6-2.2.9-.8.8-.2.9-.2,2.4-.5.5-.8.3-8.9,7.8-.9.5-2,.5-.8.9-3.3,8.1-1.1,1.4-.6.6-1.4,1.2-.6.3-.7.2-.9.4-1.4.8-2.5,1.9-.4.5-3,.4-14.7,6.3-4,2.8-2.1,1-4.6,1.4-.6.1-.6-.1-.5.1-.5.4-3.9,4.3-3.9,3.3-1.9,1.1-2,.6-1-.3-.5-.8-.5-.7-1.9-1.2-.5-.2h-.6l-8.1,1.8-.7.3-2.2,3.3-1.1.3-1.3-.1-1-.7-2.4,1.3-1.2.4-.5-.8-.3-.4-.7-.2-.7-.2-.6-.1-.3.3-1.1,2-.4.1-.3-.2-.3-.3-.4-.2-.1.1-.1.1-.3.2h-.3l-2-.4h-.5l-.4.2-.7.6-.2.2-.6.1-.4-.1-1.1-.6-.2-1.4-.1-.4-.4-.2h-.4l-.4.1h-.4v-.3l.1-.3.1-.5-.4-.4v-.3l-.1-.5-.9-.9-.2-.4v-.3l-.2-.2h-1l-4.6-4.8-3.4-6.3-2.3-2.3-.3-.5-.4-1.5.2-1-1-2.9.2-1,.8-2.2.2-2.3.7-3.4.3-.4.7-.1,2,.9,1.1-1.4.9-.8.3-.5.3-1.2.8-1.4-.4-.7-1.3-1-.5-.9-.2-.7v-.7l.2-1.1.2-.5.1-.3.4-.4-.2-1.8.5-.4,2.8-4,.8-.9.8-.7.6-.3,1.1-1,1,.5.4.4,1.3,1.8.9.8,1.4,1.9h1l2.9-2.6,2.2-1.2.7-1.1,1.1-1.9,5.6-6,1.2-1.4.6-.3h.5l.3.2.3.5.5.8.3.4,1.1.8.7.4.4.1.4-.3.7-3.5.1-.4.3-.6.7-.6.2-.6.2-.6.2-1,.3-.5.3-.4.4-.1.7-.7-1.1-1-1.2-1.6-1-.8-.4-1.2-2-1.5-4.9-2.6v-1l.3-.4.5-.4.8-.3,1.2-.3.2-.4,1.1-3.7.4-2.6.8-1.3.1-1-1.5-1.6-.4-.6-.1-.7-.4-.7-.2-1.2-.3-.3-.8-.4-.1-.4v-.5l1-3.2,2.1-3.5,1.7-.8h0Z"/>
          <path id="COMET" class="cls-1" d="m403.55,387.35l-.2,79.1v25l-1,.2-1.1-.5-.3-.1-.4.4-.5.2-.5-.1-.5-.4-.6-.4-.4-.1-1.8,1.3-.6.2h-.5l-.6-.4-.5-.1h-.9l-.4-.4-.4-.6-.2-.7-.4-.4h-.5l-.3.5-.3,1.3-.3.5-.5.1-.5-.4-.4-.4h-.5l-.3.3-.1.5-.2.5-.6.1-1-.4-1.7-1.1h-.4l-.7,1.1-.6.1-1.1-.3-1-.2-1.4.2h-.7l-.5.2-.4.4-.5.6-2.2,1-1.1-.2-.2-.6.1-1.3-.2-.3h-.3l-.4.4-.4.4-.6.3-.7-.2-1.9-1.8-.4-.1-.3.4.1,1.5-.2.9-.4.5-.6-.2-.3-1.5-.4-.5h-.4l-.7.4-.5.6-1.1.5-4.4.8-.8.2h-.2l-.2.2-.2.1-.7.1-.7.2h-.7l-.4-.6-.2.2-.6-.5-1.9-.2-1.2-.3-.7-.6-.7-1.2-.8-.2-1,.3-2,.4-.6.3-.2.7v.9l.2.9v1.2h-.1l-.7-.1-.6.2-.7.4-.7.5-.1.3.1.5v1.1l-.2,1-.2-.3-.6-1.7-.8-.8-.6.1-.4.6-.3,1.1-2-1.2-.9.1-2,1.8-.8.4-.9.2-1.8.2-.4.2-1.2.9h-.3l-.3-.1-.6-.1-.4-.1-.4-.2h-.4l-.1.5.1.2.3.3.4.2.2.2v.3h-1.3l-.6.6-.1,1.1v1.5l-.6-.3-.2-.1h.4l-.8-1.4-.5-.3-.8.6-.3,2.1-.5.2-.4-.2-.1-.4-.3-1.7-.7-.3-1.7.3-.5.6-.5,1.1-.7.8-1.2-.4-.5-.7-.5-.3-.5-.7-.5-.1-1,.3-4.3,2.5-.4.7-.3.5-.9.5-.3.8.3.3.3.3.2.5-.2.4-1.1.2-.4.5-.4.5-.9.4-1,.9-.7.4-.5-.1-.3-.2-.5-.1-.8.3-1,.8-.7.7-.4.1-.4-.3-.3-.2-.4-.1-.3.2v.8l-.2.4-.5.2h-.5l-.4-.3-.1-.4-.2-.4-.3-.1-1.2.2-.9-.4-1.6.9v.3l.3.4v.4l-.5.3-1.2.1-.9.2-1.3-.5-.4.2-.2.3-.3.4-.4.1-.2-.3.1-.8-.3-.2h-.6l-.3.4-.2.5-.2.3h-.2l-.3-.5-.4-.2h-.9l-.4.4-.3.3-.2-.1-.2-.4v-.6l.1-.5-.6-1.2-.3,1.6-.2.3-.4-.1-.3-.2-.5-.1-1.6.2-.3-.3-.5-1-.2-.3h-.4l-1.5,1-.5.1h-.4l-.3-.4v-.4l-.1-.4h-.3l-.4.1-.6.4-.4.5v.5l.1.4v.4l-.3.4-.5.6-.4.9-.3.4-.3,2.1.1,6.5-.2,24.5-.7.9-4.2-.7-4.8.3h-1.9l-1.4-.2-30-10.6-2-1.3-1.8-2.2-1.1-2.5-.5-2.3.1-1.8.5-1.5.9-1.3,1.2-1.2.7-1,.4-1-.1-1-.5-1.1-.8-1.1-3-3.4-.8-1.3-.5-1.5-.2-1.8v-1.6l.4-2.5,2.8-11.2v-1.8l-.7-1-.9-.7-1-1-.8-1.1-1.4-3.8-.5-.7-.6-.6-.9-.6-1-.2-2.4-.3-5.1-1.7.1-.3,1.3-3.9,1.8-3,.5-.7,1.2-.8,1.4-.7,1.3-1.4,2.4-1.5,1-.8,1.5-2.6.5-1.6.2-1.7.2-4.2.3-2.1.6-1.8,3.7-5,1.1-1.9,1.1-2.7.3-1.5,1.4,1.4,1.5.1.4-.2.2-.5.1-.2.4-.5.6-1.5,3.3-4,1-1.6.4-1.2v-1.1l.5-.6.9-.9,1.3-1.6.6-1,1-2.1.8-.5,2.7.6,1.6.1,2.5-2.4,1.8-1.2.8-.9.9-.4.7-.2.7-.1.9-.2.5-.6.4-1,1.2-.5.9-.3,3.4-1.5.5-.4.5-.4h1.1l.6.2,1.4-.1-.5-1.7-.1-.5v-.8l-.4-.8-.8-.8-.1-.5v-.5l.1-1-.6-2.7-.6-.7.1-1.1.3-.5.5-.7.4-.2,1.2-.6,1.1-.6.3-.7.8-1.2.5-.4.6-.2.5.2.6.3.3.3.2.4.6.4h.7l.4.1.5.2.6,1.1.6.7.7.9.2.5v.7l.3,1.4,1.1,2.4v.6l.3.3.4.4.6.4.8.2.5.3.8.2.8-.2.8-.3,1.3-1,3.2-.4,6.2,1.6,1.1.4.7.5.3.6.2.2.6.3,1.3,1,.8.3.3-.2.3-.5.1-1.2,1.7-11,1.7-12,.5-.9.4,1.5.3.5,2.3,2.3,3.4,6.3,4.6,4.8h1l.2.2v.3l.2.4.9.9.1.5v.3l.4.4-.1.5-.1.3v.3h.4l.4-.1h.4l.4.2.1.4.2,1.4,1.1.6.4.1.6-.1.2-.2.7-.6.4-.2h.5l2,.4h.3l.3-.2.1-.1.1-.1.4.2.3.3.3.2.4-.1,1.1-2,.3-.3.6.1.7.2.7.2.3.4.5.8,1.2-.4,2.4-1.3,1,.7,1.3.1,1.1-.3,2.2-3.3.7-.3,8.1-1.8h.6l.5.2,1.9,1.2.5.7.5.8,1,.3,2-.6,1.9-1.1,3.9-3.3,3.9-4.3.5-.4.5-.1.6.1.6-.1,4.6-1.4,2.1-1,4-2.8,14.7-6.3,3-.4.4-.5,2.5-1.9,1.4-.8.9-.4.7-.2.6-.3,1.4-1.2h0Z"/>
          <path id="COCUN" class="cls-1" d="m221.85,344.95l.8-.4,2.8-.5,1.2-.5.6-.5h.3l.9.1.8.3.7.3,2.3.4,1.3-.3.5-.4.7-.5,1.5-1.3.8-.5.4.1.3.3.2.3v.3l.1.2.2.2.2.1.2.1.1.1v1l.1.5.4.5v.4l.1.6-.1.9.3.8.4.5.1.5-.2.6-.5.6-.6,1.1-.1.6.1.6.7,1.4,2.2,2.1.3,1v.4l-.1.9.1.4.3.4.6-.1h1.2l1.6,1,.9.4.6.2,2.5-.1v1l.5.8.5.5.8.4.8.1,2.4,1.3,3.3-3,1.4-.4.4-1.1v-.9l2.8-2.9,1.1-1,.5-.2.4-.1h.3l.3.3v2.5l2.7,1.3,1-.2,1.2,1.1.8.3h.6l.4-.1h.3l.1.5.5,1.1,2.1,1.9.5.3v.5l.4.5-.3.6-.2.7-.1.6.2.7.3.6,1.3,1,.9.7.2.4.8,1.3-.2,1.3.4,1.4,1.2,2.2.2.5-.2.8.1,1.1.8,1.4-.1.7-2,1.5.2,1.6-1.6,3v.7l1.1,1.6h4.2l1.5.5.4.3.8,1.2.7.9.4.5-.2.8.1.4,1.9.7,1.1,1.7.2.6.4.4.6.1.9-.3h1l.5.2.4.3.2,1.5.4.9h1.1l2.1.8,2.1-.1.6-.4.4-.4.2-.4.6-1,.1-.3.1-.3-.1-.3.1-.2.3-.3h.7l-.5.9-1.7,12-1.7,11-.1,1.2-.3.5-.3.2-.8-.3-1.3-1-.6-.3-.2-.2-.3-.6-.7-.5-1.1-.4-6.2-1.6-3.2.4-1.3,1-.8.3-.8.2-.8-.2-.5-.3-.8-.2-.6-.4-.4-.4-.3-.3v-.6l-1.1-2.4-.3-1.4v-.7l-.2-.5-.7-.9-.6-.7-.6-1.1-.5-.2-.4-.1h-.7l-.6-.4-.2-.4-.3-.3-.6-.3-.5-.2-.6.2-.5.4-.8,1.2-.3.7-1.1.6-1.2.6-.4.2-.5.7-.3.5-.1,1.1.6.7.6,2.7-.1,1v.5l.1.5.8.8.4.8v.8l.1.5.5,1.7-1.4.1-.6-.2h-1.1l-.5.4-.5.4-3.4,1.5-.9.3-1.2.5-.4,1-.5.6-.9.2-.7.1-.7.2-.9.4-.8.9-1.8,1.2-2.5,2.4-1.6-.1,1-2.5.1-1.6.2-.4.4-.3.5-.4.4-.4.5-.7v-.5l-.5-1.1-.6-.9-1.2-1.4-.7-2v-.8l.2-.7,2.1-3.3.2-1.5-.2-.4-.4-1.3v-1.3l.2-.6.3-.5.9-.7.6-1.1.6-.9,1.5-2.4.3-.3.8-.4.9-3.3h-1l-.7-.6-.1-.4.1-.3.1-.3.5-.4.2-.5-.2-.5-.1-4.1.1-1,.3-1.2-1.4-.6-1-.2-.4.1-.8-.4-.2.2.2.2v.8l-.1.3-.3.4-.7.4-.4.3-1,2.5-.1.3-.9.2-.3.7-.9.7.1.4v.2l-.1.2h.5l.2.1v.3l-.2.4-.4.3-1.3.6-1.3,1,.6,1.2.3.3.3.1.3.3.3.5.6,2.1-.1,2.1-1.9,5.1,1.1-.1.2.4-.1.8-.5,1.9-.4,2.7-.1.8-.1.8-.3.8-.5,1-1,1.2v2.2l-.6,2.2-.2.4-.3.2-1.3-.4-.5-.3-1.1-.7-.4.3-.3.4-1.5,4,.1,1.1v1.2l.4,1,.1.6v.6l-.2.8-.3,1-1.3,2.9-1.3,2.4-3.6,5.1-1.9-1.4-1.7-2,.6-3.8,1.4-2.4.4-1.3.3-.9-.1-.6-1-1.8.6-2-.3-.8.1-.7.2-.6.3-.6.7-.7.3-.3.6-.7.1-1.2-.3-1.3-.1-.5-.3-.8-.3-.5-1.2-2.4-.9-.7-.4-.4-.3-.3-.5-.2h-.8l-1.3.6-.5.2-.3.4-.2.7-.2.3-.3.2-.4.6-.2.2-.3.1-.3-.2-.3-.1-.5.1-.6-.1-.6-.2-1.6-1.5-.9.3-.3-.8-.2-.1-1.2-.6v-.6l-1.3.2-1.1.1-1.5.3-1,.1-.6-.5.2-1.5,3.6-8,.6-1.9v-2.1l-.7-2.2.7-.2-.1-.3-.6-.5.4-.6.8-1.1.2-.6-.1-.3-.3-.2-.4-.1-.2-.3-.1-.3v-.3l.1-.2v-.2l-.7-1-.2-.6.4-.6.5-.4.7-.2.5-.3.2-.5.1-.6.7-.7.2-.6-.4-2.5v-.8l.1-.6.4-.5.6-.2-.2-.4v-.4l.2-.4v-.5l-.6-1.8-.1-.3.3-.3,1.2-.5.3-.3-.2-.3-.7-1.2-.2-.6v-1l.7-3.1-.3-8.2-.4-1.1-.1-.6.3-.3.2-.1.8-.8.2-.2.2-1,1-1.7.4-1.4.3-.3.4-.3.2-.2-.3-1.2.2-.3.7-.1-.3-.8-.1-1,.1-.9.3-.8-.7-.2-.3-.5.1-.5.7-.2.9-.1.3-.4-.2-.3-.8-.2.9-2.2.3-1.4-.3-.6-.5-.2.1-.5.4-.5.3-.6.2-.3.1-.3-.4-.2-.2-.1-.1-.3-.1-.2v-1.7h0Z"/>
          <path id="COSAN" class="cls-1" d="m265.45,222.05l.3,2.5.1.7.4,1.1,2.1,3.6v1l.3.3.2.2.2.1h.4l.2.1.1.1.4.4.2.1.4.3.1.2.2.3.3.9v.9l-.4.9-1.4,1.2-.6.4-.3.2-.8.9-.3.5-.1.5.2.7.1.5v.5l-.3.6-.2.3-.1,1.5,6.4.3.8.9.4.4.5.3,1.2.6,1.2,1.1,1.3,1.4.1.4.1.2v.2l.1.1.5.9.4.3.7.5.7.3,1,.2,2.8.4.9.6.2.5.6.1.9.2,1.7-.1,1.5.1.9.1.2-.4.5-2.3.8-1.2.4-.4.4-.1.6.1.2.1.2.1.3.1h1l1.6.2h1.7l.3.1.2.1.2.1h.9l.9.3.4-.4,1-.3,1.9.4-.2.5v.2l-.1.3.4,1.7.2.7.5.7,3.6,2.9.1.7-.1.7.3,1,1.5,2.3.5.6v.4l.1.1.7.3-.1,2.8-1.9,2.3.7,1,.2.2.4.6.2.2.3.3.5.2.1.3v1.1l.1.4.1.3v.2l-.3.7-.7.9-1.8,2.9.3.8.2.1,1.4.6,1.1.2,1.3.3.4.2.5.6.6.4,1.3,1.2.9-.5.4-.2.2-.1h1l.4-.1.3.2.3.5.2.8.1.2.3-.2.1-.2.2-.5.2-.2.2-.1.3.1.4.1.4.1,1.4-.3.6-.3h.3l.4-.1.5.1.3.1.3.4.1.6.2,1.2.1.8-.2,1.5.2,1.4,1-.1.2-.2.3-.3.2-.3.4-.7,1.4,3.7-.4,1.1-.1.6v.8l.5,1.8-.2,1.9-.8,3.9-2,3.4-.3.9v3l-.4.6-.6.3-.9.5-1.9,1.9-1.3.4-.9-.3-1-2.6-.6-1.1-.8-1.1-1.8-1.3-.9-.9h-.5l-1,.3-.5.8.3.9,1.6,1.6.5.3.5.5.3.8.2.7-.3,2,.2,2.1-1,2.9.7,1.6-.2.9v1l-.1.5-.4.6-.7.6-.6.3-.9.5-.9,2.5-1,.6-1.5.4-1.4.5-.7.8-.5,1-3.8,4.5-.7,2.5-.5.5h-.9l-4.7-.7-1.7-.9-1.2-.8-.6-.2-.3.1-.9.4-.9,2.5-2.5,3.9-1.3.2-1.7-.6-.3.1-.2.2-.1,1.2-.6,1.2-1,1-.7,1.8-.6.1-.7-.5-2-2.5-.2-1.8.4-.2,1.1-.7.1-.2.1-.9,1.2-.6.7-1.2.8-2,.2-1.1v-.9l-.2-.6-.6-.9-2.1-2-2.3-1.1-.8-.8-1.6,2.8-.2.5-2.2,1.8-.5,1-.3,1.8-1,1.6-.2.8.2.9.1,1-.1,1.2-.5,1.5-.5,2.5v1.2l-.1.5-.1.5-.5.4-.5-.5-.9-.8-1-.6-1-.3-1.1-.1-1.6.2-3.3.9-2.3,1.4.1-1.3-.3-.3-.6-.2-.5-.1-.9.1-1,.3-.4.1-.6.3h-.6l-1.8-1-1.1-1.4-.9-1.7-.5-.4-.6-.1-.9-.1-.4-1.6-.7-.7-2.2-.6-1.1-1-1,.7-.7,1.1-.7.6-.6.4-.3.1-.9-.2-.6-1.8v-.7l.3-1.1,1.2-2.3.1-.9-.5-1-.5-.9-.6-1.5-.5-.7-.5-.4-.7.1-.7.3-1.3,1-.7.2-.5-.1-.5-.2-.4-.2-.4-.3-.7-.4-.7-.6-1.1-1.1-1.9-3-.8-2.4-.5-1-.4-1.5-.1-.4-.2-1.2,1.7-1.2,1.3-1.4,2.3-3.6.6.2.5-.1.4-.5.3-.6-.1-.5-.3-.6-.9-.9-.1-.6-.1-4.7v-.4l.7-1.5.1-.4.3-.7.8-.3,2-.2,1.9-1,9.4-6.9.6-.9,1.6-3.1,2.1-2.2.3-.8.5-.4,4.2-2,1.2-.9.6-1.4-.2-2.1-.4-.8-.6-.7-.5-.8-.2-1-.5-6.6.3-2.2v-.1l.3-2.2.6-2.1.6-1.4.1-.5-.1-.6-.5-.7-.1-.5v-2l.3-.7,2.8-3.6.2-.5.6-.3.3-.7-.1-1.8.1-.5.2-.4.1-.5-.2-.5-.4-.7.1-.4.3-.4.2-.6.4-2.9-.1-1.1-.6-3.1-.2-.4-.5-.5-.7-3,.1-.7-.9-2.8v-2l.4-1.6.5-1.4v-.1l1-.5h.2l.5-.6.3-.6.4-.4.6-.2.5-.5h0Z"/>
          <path id="COTOL" class="cls-1" d="m151.75,488.35v-3.4l-.7-2-1.1-.9-.7-1-.7-.3-1-.8v-.5l.1-.6.2-.5.5-.5.3-1.3-.2-.9.2-1.2.8-.5.5-.7.1-2.8.2-.6.3-.4.3-.3.2-.3-.1-.5-.3-.5-.6-1.2.6-1.4.1-1.2.1-1.7.3-1,.5-1.3.2-.8.4-.7.5-.8.3-.7.4-.6.1-.7-.1-1,.4-2.8.5-.9.4-.6.5-1.8.3-.2.9-1.1.1-.3.6-1.3,3.4-5.1,1.1-2.8.8-1.5.5-.7.7-2,.4-.6.6-.4,1.6-.7-.1-.6-.8-1.3,2.6-3,.9-1.4.3-.8,1.1-1.4.3-.9,1.1-.9,1.3-1.7.5-1,.7-3.1.3-3.5,1.2-2.5,1.5-1.8.8-2.4.4-.6,1.2-1.2,2.4-1.3.3-.4.3-.5.3-1.2,1.4-2.4-.1-.4.7-4.3,1.1-1.9.9-1.3.4-.8v-.7l-.4-.8-.8-1.5.1-.7.2-.7,1.5-3.1-.6-1.2-.9-.5.4-1.3,1.2-1.3,1.1-1,.8-.4h.6l.6.1h.7l.9-.3.7-.4.5-.5,1.5-.7,1.1.5.7.2.5-.1.2-.2.2-.3v-.3l.3-.6,2.2-3.1.2-.9,1.3-.6.4-.3.9-.4h.7l1.1-.1,1.8-.7h1.1l1.9.4,1-.4,1-.2h.5l1.8.5,1.9.8.5-.1.4,1.1.3,8.2-.7,3.1v1l.2.6.7,1.2.2.3-.3.3-1.2.5-.3.3.1.3.6,1.8v.5l-.2.4v.4l.2.4-.6.2-.4.5-.1.6v.8l.4,2.5-.2.6-.7.7-.1.6-.2.5-.5.3-.7.2-.5.4-.4.6.2.6.7,1v.2l-.1.2v.3l.1.3.2.3.4.1.3.2.1.3-.2.6-.8,1.1-.4.6.6.5.1.3-.7.2.7,2.2v2.1l-.6,1.9-3.6,8-.2,1.5.6.5,1-.1,1.5-.3,1.1-.1,1.3-.2v.6l1.2.6.2.1.3.8.9-.3,1.6,1.5.6.2.6.1.5-.1.3.1.3.2.3-.1.2-.2.4-.6.3-.2.2-.3.2-.7.3-.4.5-.2,1.3-.6h.8l.5.2.3.3.4.4.9.7,1.2,2.4.3.5.3.8.1.5.3,1.3-.1,1.2-.6.7-.3.3-.7.7-.3.6-.2.6-.1.7.3.8-.6,2,1,1.8.1.6-.3.9-.4,1.3-1.4,2.4-.6,3.8-.2.7-3.2,2.9-2,1.3-.6.7-.5.6-.5,1.1-.4.5-.3.1-.4.1-.2.3-.3.4-.2.5v.6l.2.4v.5l-.2.4-.6.7-.5.2-.5.4-.3.6-.2,1.2.1.8.2.6.1.5-.3.6-1,1-1.1,1.2-1.9,2.8-2.7,2.7-2.9.6-2.4-.2-2.3-.6-.4-.4-.2-.4.1-.6.2-.6.1-.7.1-.8.1-.4.4-.5.2-.5v-.5l.3-1.1.3-.6h-5l-.4.1-.4.2-.3.3-.6.3-.5.6v.8l-1-.4-.1-.3-.3-.3-.4-.1-.6.1-.7.7-.3.6-.4.3-.2.2-.8-.6-.7-.4-1-.7-.5-.3h-.5l-1.5.2-.3.1-.3.2-.3.6-.3.3-.4.3-1,.3-.5.2-.4.4-.6.1h-.5l-.5-.1-.5-.1-.6.1-.7.7-1,1.5-1.5,2-1.4,2.3-1.2,2.3-.1,2-1.3,1.3-.4,1.7-.9,1.1-5,4-1.9,2.1-1.1,2.2-.4.6-.8.2-1.4-.1-4-1.5-1-.5-.6-.5-.4-.4-.8-.2-.6.1-1.5,1h0Z"/>
          <path id="COQUI" class="cls-1" d="m165.35,430.05l-.9-.4-1-.6-1.5-.6-.3-.2-.1-.4-.1-.8.1-.8.3-.7.1-.4v-1.3l.1-.5.2-.5.2-.6.7-1,.8-1.9v-3l.1-.1-1.1-2.4-2.2-.9h-1l-.9-.4.3-1.1.2-.2.1-.1.6-.4-.4-.9-.1-3.9.4-1.3v-.4l.3-.4.1-.3-.1-.6,1.9-2.7,3.5.6.5-.3h1.5l.3-.2.1-.2v-.9l-.3-1.4.6-.4h.4l.3.2,1.1.6.4.1,4.5-.1,1.9.3,1.8,1.3.3.1h.4l.3-.2.3-.1.8-.2.5-.1.3-.1.3-.3.2-.1.4-.1.3-.2.2-.2,1.1-.7.1.4-1.4,2.4-.3,1.2-.3.5-.3.4-2.4,1.3-1.2,1.2-.4.6-.8,2.4-1.5,1.8-1.2,2.5-.3,3.5-.7,3.1-.5,1-1.3,1.7-1.1.9-.3.9-1.1,1.4-.3.8-.9,1.4-2.6,3h0Z"/>
          <path id="COCUN-2" data-name="COCUN" class="cls-1" d="m221.85,344.95l.8-.4,2.8-.5,1.2-.5.6-.5h.3l.9.1.8.3.7.3,2.3.4,1.3-.3.5-.4.7-.5,1.5-1.3.8-.5.4.1.3.3.2.3v.3l.1.2.2.2.2.1.2.1.1.1v1l.1.5.4.5v.4l.1.6-.1.9.3.8.4.5.1.5-.2.6-.5.6-.6,1.1-.1.6.1.6.7,1.4,2.2,2.1.3,1v.4l-.1.9.1.4.3.4.6-.1h1.2l1.6,1,.9.4.6.2,2.5-.1v1l.5.8.5.5.8.4.8.1,2.4,1.3,3.3-3,1.4-.4.4-1.1v-.9l2.8-2.9,1.1-1,.5-.2.4-.1h.3l.3.3v2.5l2.7,1.3,1-.2,1.2,1.1.8.3h.6l.4-.1h.3l.1.5.5,1.1,2.1,1.9.5.3v.5l.4.5-.3.6-.2.7-.1.6.2.7.3.6,1.3,1,.9.7.2.4.8,1.3-.2,1.3.4,1.4,1.2,2.2.2.5-.2.8.1,1.1.8,1.4-.1.7-2,1.5.2,1.6-1.6,3v.7l1.1,1.6h4.2l1.5.5.4.3.8,1.2.7.9.4.5-.2.8.1.4,1.9.7,1.1,1.7.2.6.4.4.6.1.9-.3h1l.5.2.4.3.2,1.5.4.9h1.1l2.1.8,2.1-.1.6-.4.4-.4.2-.4.6-1,.1-.3.1-.3-.1-.3.1-.2.3-.3h.7l-.5.9-1.7,12-1.7,11-.1,1.2-.3.5-.3.2-.8-.3-1.3-1-.6-.3-.2-.2-.3-.6-.7-.5-1.1-.4-6.2-1.6-3.2.4-1.3,1-.8.3-.8.2-.8-.2-.5-.3-.8-.2-.6-.4-.4-.4-.3-.3v-.6l-1.1-2.4-.3-1.4v-.7l-.2-.5-.7-.9-.6-.7-.6-1.1-.5-.2-.4-.1h-.7l-.6-.4-.2-.4-.3-.3-.6-.3-.5-.2-.6.2-.5.4-.8,1.2-.3.7-1.1.6-1.2.6-.4.2-.5.7-.3.5-.1,1.1.6.7.6,2.7-.1,1v.5l.1.5.8.8.4.8v.8l.1.5.5,1.7-1.4.1-.6-.2h-1.1l-.5.4-.5.4-3.4,1.5-.9.3-1.2.5-.4,1-.5.6-.9.2-.7.1-.7.2-.9.4-.8.9-1.8,1.2-2.5,2.4-1.6-.1,1-2.5.1-1.6.2-.4.4-.3.5-.4.4-.4.5-.7v-.5l-.5-1.1-.6-.9-1.2-1.4-.7-2v-.8l.2-.7,2.1-3.3.2-1.5-.2-.4-.4-1.3v-1.3l.2-.6.3-.5.9-.7.6-1.1.6-.9,1.5-2.4.3-.3.8-.4.9-3.3h-1l-.7-.6-.1-.4.1-.3.1-.3.5-.4.2-.5-.2-.5-.1-4.1.1-1,.3-1.2-1.4-.6-1-.2-.4.1-.8-.4-.2.2.2.2v.8l-.1.3-.3.4-.7.4-.4.3-1,2.5-.1.3-.9.2-.3.7-.9.7.1.4v.2l-.1.2h.5l.2.1v.3l-.2.4-.4.3-1.3.6-1.3,1,.6,1.2.3.3.3.1.3.3.3.5.6,2.1-.1,2.1-1.9,5.1,1.1-.1.2.4-.1.8-.5,1.9-.4,2.7-.1.8-.1.8-.3.8-.5,1-1,1.2v2.2l-.6,2.2-.2.4-.3.2-1.3-.4-.5-.3-1.1-.7-.4.3-.3.4-1.5,4,.1,1.1v1.2l.4,1,.1.6v.6l-.2.8-.3,1-1.3,2.9-1.3,2.4-3.6,5.1-1.9-1.4-1.7-2,.6-3.8,1.4-2.4.4-1.3.3-.9-.1-.6-1-1.8.6-2-.3-.8.1-.7.2-.6.3-.6.7-.7.3-.3.6-.7.1-1.2-.3-1.3-.1-.5-.3-.8-.3-.5-1.2-2.4-.9-.7-.4-.4-.3-.3-.5-.2h-.8l-1.3.6-.5.2-.3.4-.2.7-.2.3-.3.2-.4.6-.2.2-.3.1-.3-.2-.3-.1-.5.1-.6-.1-.6-.2-1.6-1.5-.9.3-.3-.8-.2-.1-1.2-.6v-.6l-1.3.2-1.1.1-1.5.3-1,.1-.6-.5.2-1.5,3.6-8,.6-1.9v-2.1l-.7-2.2.7-.2-.1-.3-.6-.5.4-.6.8-1.1.2-.6-.1-.3-.3-.2-.4-.1-.2-.3-.1-.3v-.3l.1-.2v-.2l-.7-1-.2-.6.4-.6.5-.4.7-.2.5-.3.2-.5.1-.6.7-.7.2-.6-.4-2.5v-.8l.1-.6.4-.5.6-.2-.2-.4v-.4l.2-.4v-.5l-.6-1.8-.1-.3.3-.3,1.2-.5.3-.3-.2-.3-.7-1.2-.2-.6v-1l.7-3.1-.3-8.2-.4-1.1-.1-.6.3-.3.2-.1.8-.8.2-.2.2-1,1-1.7.4-1.4.3-.3.4-.3.2-.2-.3-1.2.2-.3.7-.1-.3-.8-.1-1,.1-.9.3-.8-.7-.2-.3-.5.1-.5.7-.2.9-.1.3-.4-.2-.3-.8-.2.9-2.2.3-1.4-.3-.6-.5-.2.1-.5.4-.5.3-.6.2-.3.1-.3-.4-.2-.2-.1-.1-.3-.1-.2v-1.7h0Z"/>
          <path id="CORIS" class="cls-1" d="m149.45,381.45l.1-2.5-.8-1.3.1-1.5-.5-1.8-4.2-6.8-.1-2.2.9-2.9,1-.8,2.6-1.6.6-2.8.1-1.4,1.9-2,1.5.8.6,1.1.9,1,1.2.7,1.7.7,2.4.3,1.1-.1v5.8l.9.7,1.9-.2.3-.1,2-.9h.6l.2-.1.6-.4.2-.1h.3l.5.3.5.4,1.5,1.5.3.5v.3l.1.7.3.4.6.6-.2.5-1,1.5-.4.1-.9.3-1.6-.3-.4-.2-.2-.1-.8-.7-.8.2-.9-.4-.4-.1h-.2l-1,.8-.2.6.1.5.1.4.2.2.3.3.1.3.1,1-.1.4-.1.4-1.1,2.2-.4,1.9-.9-.5-.3-.2h-.9l-.4.1-.3.1-.6,1.1-1.1,2.9.6.6.4.7.1.8v.4l.1.3.3.7.6.8,1.2.9.1.4,1,.4,1,.2.4-.2.8-.7.3-.5.1-.5.1-1.7.1-.4,1.5-2.3h.3l1.8,4.2.2.5.2.2.4.1.5.1h.7l.3-.1.3-.2,1-.9.1-.1v-.1l.1-.1.2.1.4.2.5.9.1.3v.2l.2.3,1.3.2,1.2-.1.5.1,1.4.4h1l.6.2.4.3,1,1.5.7.9.9.9,1.5,1.2,1.3,1.2-.7,4.3-1.1.7-.2.2-.3.2-.4.1-.2.1-.3.3-.3.1-.5.1-.8.2-.3.1-.3.2h-.4l-.3-.1-1.8-1.3-1.9-.3-4.5.1-.4-.1-1.1-.6-.3-.2h-.4l-.6.4-3.5-.5-1.9-.6-.5-.1-1.1.2.4-1v-.5l-.1-.6-.2-.2h-.7l-.3.1-.2.2-.2.3-.3.2h-.5l-.7-.1-.6-.3-.2-.3-.1-.2.1-.2v-.5l-.4-.7-.4-.8.5-.4.3-.6.1-1.2v-.3h-.2l-.6.3-1.3.1-.5-.2-.4-.2-.3-.5.1-1.5-.4-.3-1.5-1.2-.6-1-.3-.7-1.4-2.7-.4-.4h0Z"/>
          <path id="COBOG" class="cls-1" d="m253.95,405.25l-.8.4-.3.3-1.5,2.4-.6.9-.6,1.1-.9.7-.3.5-.2.6v1.3l.4,1.3.2.4-.2,1.5-2.1,3.3-.2.7v.8l.7,2,1.2,1.4.6.9.5,1.1v.5l-.5.7-.4.4-.5.4-.4.3-.2.4-.1,1.6-.9,2.4-2.7-.6-.8.5-1,2.1-.6,1-1.3,1.6-1,.9-.5.6v1.1l-.4,1.2-1,1.6-3.3,4-.6,1.5-.4.5-.1.2-.2.5-.4.2-1.5-.1-1.4-1.4,3.5-5,1.3-2.4,1.3-2.9.3-1,.2-.8v-.6l-.1-.6-.4-1v-1.2l-.1-1.1,1.5-4,.3-.4.4-.3,1.1.7.5.3,1.3.4.3-.2.2-.4.6-2.2v-2.2l1-1.2.5-1,.3-.8.1-.8.1-.8.4-2.7.5-1.9.1-.8-.2-.4-1.1.1,1.9-5.1.1-2.1-.6-2.1-.3-.5-.3-.3-.3-.1-.3-.3-.6-1.2,1.3-1,1.3-.6.4-.3.2-.4v-.3l-.2-.1h-.5l.1-.2v-.2l-.1-.4.9-.7.3-.7.9-.2.1-.3,1-2.5.4-.3.7-.4.3-.4.1-.3v-.8l-.2-.2.2-.2.8.4.4-.1,1,.2,1.4.6-.3,1.2-.1,1,.1,4.1.2.5-.2.5-.5.4-.1.3-.1.3.1.4.7.6h1l-.8,3.3Z"/>
          <g id="COSANC">
            <path class="cls-1" d="m111.97,40.79c.54-1.16-.26-2.11-1.07-2.88-1.31-1.25-1.36-.71-.54-2.33.56-1.11,1.14-1.38-.69-1.47-.99-.05-1.92.38-2.79.65-2.72.83-5.29,2.37-2.8,5.35.56.67,1.44,1.85,2.13,2.28,1.25.78,2.45-.11,3.74.2,1.57.37,1.11,1.54.71,3.03-.22.82-.47,1.66-.82,2.51-.46,1.1-1.11,2.54-2.47,2.61-1.37.08-1.95-1.52-3.38-1.46-1.6.07-4.83,3.53-5.87,4.7-1.3,1.47-2.01,4.74-2.1,6.62-.1,1.99-.65,3.97-1.55,5.82-.53,1.1-1.18,2.01-1.26,3.33-.1,1.78,1.23,2.2,1.82,3.71.8,2.05.3,4.47.33,6.61.02,1.12.68,3.25,1.97,3.76,1.32.53,2.44-1.08,3.56-1.66,2.67-1.37,6.85-.45,8.96-2.87,1.44-1.66.89-2.82,3.21-3.31,1.22-.25,2.61-.2,3.71-.9.72-.46,1.37-1.09,1.25-1.96-.17-1.2-1.83-1.2-1.06-2.49.47-.78,1.74-.52,2.33-1.31,1.74-2.34-1.03-5.47,1.51-7.66,1.11-.96,5.55-2.15,3.72-4.14-1.17-1.26-2.33-.03-3-2.01-.2-.59-.01-1.22-.22-1.78-.33-.86-1.19-1.4-1.57-2.25-1.28-2.85,3.95-4.21-.09-6.41-1.53-.83-2.05-1.47-2.78-2.99-.63-1.32-1.37-3.88-3.14-2.86-1.05.6-.91,1.93-1.73,1.55"/>
            <path class="cls-1" d="m74.35,47.49c-2.39,1.14-4.7,1.42-7.23,2.17-1.17.35-3.91.56-4.63,1.78-1.03,1.75,1.03,1.91,1.81,3.12.52.8.96,3.04.5,3.94-.66,1.31-3.26.73-3.04,2.2.09.61.94.78,1.22,1.23.45.71.67,2.15.68,2.95,0,1.68-.85,3.44-1.33,5.03-.43,1.41-.04,2.82-.25,4.02-.33,1.86-2.56,1.94-2.09,4.43.3,1.58,1.49,2.52.87,4.38-.48,1.44-1.83,2.9-2.81,4.08-2.2,2.65-1.47,5.43-2.45,8.47-.96,3.01-1.05,6.18-2.13,9.13-1.23,3.36-3.01,6.87-4.61,10.17-.67,1.38-1.97,4.28-3.3,5.15-1.84,1.2-3.4-.67-4.42-2.08-2.57-3.53-3.18-6.67-1.21-10.48,1.43-2.76,3.16-6.35,3-9.52-.1-1.99.45-3.04.82-4.91.28-1.45,1.65-3.81.81-4.99-1-1.39-3.6-1.73-4.59-3.22-1.08-1.62-.07-3.11.59-4.68.71-1.69,1.18-3.44,1.81-5.08.57-1.47,1.68-3.24,1.03-4.94-.27-.71-1.07-1.05-1.3-1.81-.26-.85,0-2.4.13-3.24.4-2.65,1.98-2.99,3.76-4.56,2.72-2.4,2.46-5.93,3.07-9.14.66-3.51,1.88-5.01,4.9-7.01,2.02-1.34,6.59-7.18,9.63-6.18,1.14.37,1.12,2.54,1.92,3.53,1.4,1.74,3.83.93,5.03,2.28.59.67.48,1.9,1.21,2.45.67.51,1.57.26,2.61,1.34"/>
          </g>
        </g>
      </g>
    </g>
  </g>
</svg>