<?xml version="1.0" encoding="UTF-8"?>
<svg id="Layer_2" data-name="Layer 2" xmlns="http://www.w3.org/2000/svg" xmlns:xlink="http://www.w3.org/1999/xlink" viewBox="0 0 75.04 75.04">
  <defs>
    <style>
      .cls-1 {
        fill: #fff;
      }

      .cls-2 {
        fill: #00acec;
      }

      .cls-3 {
        clip-path: url(#clippath);
      }

      .cls-4 {
        fill: none;
      }
    </style>
    <clipPath id="clippath">
      <rect class="cls-4" width="75.04" height="75.04"/>
    </clipPath>
  </defs>
  <g id="Layer_1-2" data-name="Layer 1">
    <g class="cls-3">
      <path class="cls-2" d="m37.52,75.04h0C16.8,75.04,0,58.24,0,37.52S16.8,0,37.52,0s37.52,16.8,37.52,37.52-16.8,37.52-37.52,37.52"/>
      <path class="cls-1" d="m52.32,48.75h-11.67l9.87-10.1c1.1-1.12,1.07-2.92-.05-4.01-1.12-1.1-2.92-1.07-4.01.05l-5.88,6.02v-17.27c0-1.69-1.37-3.06-3.06-3.06s-3.06,1.37-3.06,3.06v17.27l-5.88-6.02c-1.09-1.12-2.89-1.14-4.01-.05-1.12,1.09-1.14,2.89-.05,4.01l9.87,10.1h-11.67c-1.16,0-2.1.94-2.1,2.1s.94,2.09,2.1,2.09h29.6c1.16,0,2.09-.94,2.09-2.09s-.94-2.1-2.09-2.1"/>
    </g>
  </g>
</svg>