<?xml version="1.0" encoding="UTF-8"?>
<svg id="Layer_2" data-name="Layer 2" xmlns="http://www.w3.org/2000/svg" xmlns:xlink="http://www.w3.org/1999/xlink" viewBox="0 0 84.91 84.91">
  <defs>
    <style>
      .cls-1 {
        fill: #fff;
      }

      .cls-2 {
        clip-path: url(#clippath);
      }

      .cls-3 {
        fill: none;
      }

      .cls-4 {
        fill: #43a756;
      }
    </style>
    <clipPath id="clippath">
      <rect class="cls-3" width="84.91" height="84.91"/>
    </clipPath>
  </defs>
  <g id="Layer_1-2" data-name="Layer 1">
    <g>
      <g class="cls-2">
        <path class="cls-1" d="m42.45,84.91c23.45,0,42.45-19.01,42.45-42.45S65.9,0,42.45,0,0,19.01,0,42.45s19.01,42.45,42.45,42.45"/>
      </g>
      <g>
        <path class="cls-4" d="m21.02,65.48c-.33,0-.6-.27-.6-.6s.27-.6.6-.6.6.27.6.6-.27.6-.6.6m0-3.6c-1.65,0-3,1.35-3,3s1.34,3,3,3,3-1.34,3-3-1.34-3-3-3"/>
        <g>
          <path class="cls-4" d="m68.83,49.47l-14.88,14.56h-5.51c-.66,0-1.2.54-1.2,1.2s.54,1.2,1.2,1.2h4.8v2.4h-7.19v-12.95c0-.37-.17-.72-.47-.95l-1.17-.91c15.27-11.81,14.54-11.25,14.57-11.28.71-.6,1.76-.62,2.49-.03.94.75.99,2.17.1,2.98l-9.07,8.31c-.49.45-.52,1.21-.07,1.69.45.49,1.21.52,1.69.07l9.07-8.31c1.21-1.1,1.69-2.78,1.27-4.35.02-.14.01.86-.12-15.7,0-1.23,1.01-2.24,2.24-2.24s2.24,1.01,2.24,2.24v22.06Zm-27.57,19.35v-12.36l1.2-.93,1.2.93v12.36h-2.4Zm-9.59-2.4h4.79c.66,0,1.2-.54,1.2-1.2s-.54-1.2-1.2-1.2h-5.51l-14.88-14.56v-22.06c0-1.23,1.01-2.24,2.24-2.24s2.24,1.01,2.24,2.23c-.13,16.57-.14,15.57-.12,15.71-.42,1.57.06,3.24,1.27,4.35l9.07,8.31c.49.45,1.25.41,1.69-.07.45-.49.41-1.25-.07-1.69l-9.07-8.31c-.89-.82-.84-2.23.1-2.98.73-.59,1.78-.57,2.49.03.03.03-.67-.52,14.57,11.28l-1.17.91c-.29.23-.46.58-.46.95v12.95h-7.19v-2.4Zm34.92-43.65c-2.56,0-4.64,2.08-4.64,4.65l.1,12.85c-1.49-.67-3.29-.47-4.59.62l-15.01,11.61-15.01-11.61c-1.3-1.08-3.1-1.29-4.59-.62l.1-12.86c0-2.56-2.08-4.64-4.64-4.64s-4.64,2.08-4.64,4.64v22.56c0,.32.13.63.36.86l15.22,14.9v4.29c0,.66.54,1.2,1.2,1.2h23.98c.66,0,1.2-.54,1.2-1.2v-4.29l15.23-14.9c.23-.23.36-.53.36-.86v-22.56c0-2.56-2.08-4.64-4.64-4.64"/>
          <path class="cls-4" d="m52.04,39.46c0,.33-.27.6-.6.6s-.6-.27-.6-.6.27-.6.6-.6.6.27.6.6m-3.6,0c0,1.65,1.34,3,3,3s3-1.34,3-3-1.34-3-3-3-3,1.34-3,3"/>
          <path class="cls-4" d="m33.46,40.06c-.33,0-.6-.27-.6-.6s.27-.6.6-.6.6.27.6.6c0,.33-.27.6-.6.6m0-3.6c-1.65,0-3,1.35-3,3s1.34,3,3,3,3-1.34,3-3-1.34-3-3-3"/>
          <path class="cls-4" d="m66.43,65.23c-.66,0-1.2-.54-1.2-1.2s.54-1.2,1.2-1.2,1.2.54,1.2,1.2-.54,1.2-1.2,1.2m0-4.8c-1.98,0-3.6,1.61-3.6,3.6s1.61,3.6,3.6,3.6,3.6-1.61,3.6-3.6-1.61-3.6-3.6-3.6"/>
          <path class="cls-4" d="m60.44,16.08c.66,0,1.2.54,1.2,1.2s-.54,1.2-1.2,1.2-1.2-.54-1.2-1.2.54-1.2,1.2-1.2m0,4.79c1.98,0,3.6-1.61,3.6-3.6s-1.61-3.6-3.6-3.6-3.6,1.61-3.6,3.6,1.61,3.6,3.6,3.6"/>
          <path class="cls-4" d="m36.94,19.5c-1.89,2.72-2.94,6.43-3.44,9.69-1.42-1.31-3.38-1.72-5.14-1.2,1.72-3.96,4.8-6.98,8.58-8.49m19.62,8.49c-1.76-.53-3.72-.12-5.15,1.19-.61-4.07-1.82-7.41-3.42-9.71,3.78,1.5,6.86,4.54,8.56,8.52m-12.91.7v-10.01c2.23.96,4.19,4.62,5.16,9.55-1.68-.76-3.62-.59-5.16.46m-7.55-.47c.98-4.88,2.93-8.52,5.15-9.52v9.99c-1.54-1.06-3.48-1.22-5.15-.48m-10.43,4.49c.59.18,1.21-.12,1.45-.68.57-1.35,1.99-2.12,3.41-1.79,1.37.32,2.33,1.57,2.33,3.02,0,.66.54,1.2,1.2,1.2s1.2-.54,1.2-1.2c0-.41.08-.81.22-1.17.02-.04.04-.09.06-.14.48-1.06,1.51-1.8,2.71-1.8,1.65,0,2.99,1.39,2.99,3.1,0,.04,0,.08,0,.12v10.87c0,.33-.27.6-.6.6s-.6-.27-.6-.6c0-.66-.54-1.2-1.2-1.2s-1.2.54-1.2,1.2c0,1.65,1.35,3,3,3s3-1.34,3-3v-11.17c.09-1.62,1.4-2.92,2.99-2.92,1.21,0,2.25.75,2.73,1.82.02.05.03.09.06.13.14.35.21.74.21,1.15,0,.66.54,1.2,1.2,1.2s1.2-.54,1.2-1.2c0-1.71,1.34-3.1,2.99-3.1,1.2,0,2.28.74,2.76,1.88.23.57.86.87,1.45.69.59-.17.95-.76.84-1.37-1.51-8.19-7.9-14.77-16.42-15.31v-1.18c0-.66-.54-1.2-1.2-1.2s-1.2.54-1.2,1.2v1.19c-8.28.61-14.84,6.94-16.41,15.26-.11.6.24,1.19.83,1.37"/>
        </g>
      </g>
    </g>
  </g>
</svg>