<?xml version="1.0" encoding="UTF-8"?>
<svg id="Layer_2" data-name="Layer 2" xmlns="http://www.w3.org/2000/svg" viewBox="0 0 84.91 84.91">
  <defs>
    <style>
      .cls-1 {
        fill: #fff;
      }

      .cls-2 {
        fill: #43a756;
      }
    </style>
  </defs>
  <g id="Layer_1-2" data-name="Layer 1">
    <g>
      <path class="cls-1" d="m42.45,84.91c23.45,0,42.45-19.01,42.45-42.45S65.9,0,42.45,0,0,19.01,0,42.45s19.01,42.45,42.45,42.45"/>
      <g>
        <path class="cls-2" d="m67.13,50.44c0,1.4-1.14,2.54-2.54,2.54h-6.76c-.13,0-.26.03-.38.08l-5.54,2.77v-17.55l5.54,2.77c.12.06.25.09.38.08h6.76c1.4,0,2.54,1.14,2.54,2.54v6.76Zm-.99,12.31c-.16.24-.42.38-.7.38h-1.41c-.34,0-.65-.2-.78-.52l-3.31-7.93h3.24l3.04,7.28c.11.26.08.56-.08.8m-19.3-12.31v-13.53c0-.93.76-1.69,1.69-1.69s1.69.76,1.69,1.69v20.29c0,.93-.76,1.69-1.69,1.69s-1.69-.76-1.69-1.69v-6.76Zm-1.69-.99c-1.01-.36-1.69-1.32-1.69-2.39s.68-2.03,1.69-2.39v4.78Zm5.92-27.76c.47,0,.85.38.85.85s-.38.85-.85.85-.85-.38-.85-.85.38-.85.85-.85m-8.45,0c.47,0,.85.38.85.85s-.38.85-.85.85-.85-.38-.85-.85.38-.85.85-.85m-8.45,0c.47,0,.85.38.85.85s-.38.85-.85.85-.85-.38-.85-.85.38-.85.85-.85m-8.45,0c.47,0,.85.38.85.85s-.38.85-.85.85-.85-.38-.85-.85.38-.85.85-.85m28.75,41.43H22.32c-1.4,0-2.54-1.14-2.54-2.54V28.46c.47,0,.85-.38.85-.85s-.38-.85-.85-.85v-5.07c0-1.4,1.14-2.54,2.54-2.54h2.54v1c-1.17.41-1.86,1.6-1.65,2.82.21,1.22,1.26,2.11,2.5,2.11s2.29-.89,2.5-2.11c.21-1.22-.49-2.41-1.65-2.82v-1h6.76v1c-1.16.41-1.86,1.6-1.65,2.82.21,1.22,1.27,2.11,2.5,2.11s2.29-.89,2.5-2.11c.21-1.22-.49-2.41-1.65-2.82v-1h6.76v1c-1.17.41-1.86,1.6-1.65,2.82.21,1.22,1.26,2.11,2.5,2.11s2.29-.89,2.5-2.11c.21-1.22-.49-2.41-1.65-2.82v-1h6.76v1c-1.16.41-1.86,1.6-1.65,2.82.21,1.22,1.27,2.11,2.5,2.11s2.29-.89,2.5-2.11c.21-1.22-.49-2.41-1.65-2.82v-1h2.54c1.4,0,2.54,1.14,2.54,2.54v5.07c-.47,0-.85.38-.85.85s.38.85.85.85v10.47l-5.13-2.56c-.28-1.74-1.85-2.97-3.61-2.82-1.75.14-3.1,1.61-3.1,3.37v6c-1.97.4-3.39,2.13-3.39,4.14s1.42,3.74,3.39,4.14v6c0,1.76,1.35,3.23,3.1,3.37,1.75.14,3.33-1.08,3.61-2.82l5.13-2.56v5.4c0,1.4-1.14,2.54-2.54,2.54m10.15-23.67h-5.92v-17.75c0-2.33-1.89-4.22-4.23-4.23h-2.54v-2.54c0-.47-.38-.85-.85-.85s-.85.38-.85.85v2.54h-6.76v-2.54c0-.47-.38-.85-.85-.85s-.85.38-.85.85v2.54h-6.76v-2.54c0-.47-.38-.85-.85-.85s-.85.38-.85.85v2.54h-6.76v-2.54c0-.47-.38-.85-.85-.85s-.85.38-.85.85v2.54h-2.54c-2.33,0-4.22,1.89-4.23,4.23v38.89c0,2.33,1.89,4.22,4.23,4.23h32.13c2.33,0,4.23-1.89,4.23-4.23v-4.57l3.01,7.23c.39.95,1.32,1.56,2.34,1.56h1.41c.85,0,1.64-.42,2.11-1.13.47-.71.56-1.6.23-2.38l-2.78-6.68c2.16-.2,3.82-2.02,3.82-4.19v-6.76c0-2.33-1.89-4.22-4.23-4.23Z"/>
        <path class="cls-2" d="m24.85,27.62c0-.47-.38-.85-.85-.85h-.85c-.47,0-.85.38-.85.85s.38.85.85.85h.85c.47,0,.85-.38.85-.85"/>
        <path class="cls-2" d="m27.39,28.46h.85c.47,0,.85-.38.85-.85s-.38-.85-.85-.85h-.85c-.47,0-.85.38-.85.85s.38.85.85.85"/>
        <path class="cls-2" d="m31.62,28.46h.85c.47,0,.85-.38.85-.85s-.38-.85-.85-.85h-.85c-.47,0-.85.38-.85.85s.38.85.85.85"/>
        <path class="cls-2" d="m35.84,28.46h.85c.47,0,.85-.38.85-.85s-.38-.85-.85-.85h-.85c-.47,0-.85.38-.85.85s.38.85.85.85"/>
        <path class="cls-2" d="m40.07,28.46h.85c.47,0,.85-.38.85-.85s-.38-.85-.85-.85h-.85c-.47,0-.85.38-.85.85s.38.85.85.85"/>
        <path class="cls-2" d="m44.3,28.46h.85c.47,0,.85-.38.85-.85s-.38-.85-.85-.85h-.85c-.47,0-.85.38-.85.85s.38.85.85.85"/>
        <path class="cls-2" d="m48.53,28.46h.85c.47,0,.85-.38.85-.85s-.38-.85-.85-.85h-.85c-.47,0-.85.38-.85.85s.38.85.85.85"/>
        <path class="cls-2" d="m52.75,28.46h.85c.47,0,.85-.38.85-.85s-.38-.85-.85-.85h-.85c-.47,0-.85.38-.85.85s.38.85.85.85"/>
        <path class="cls-2" d="m24.01,32.69c0,.47.38.85.85.85h5.07c.47,0,.85-.38.85-.85s-.38-.85-.85-.85h-5.07c-.47,0-.85.38-.85.85"/>
        <path class="cls-2" d="m32.46,32.69c0,.47.38.85.85.85h10.15c.47,0,.85-.38.85-.85s-.38-.85-.85-.85h-10.15c-.47,0-.85.38-.85.85"/>
        <path class="cls-2" d="m42.61,36.92h-17.75c-.47,0-.85.38-.85.85s.38.85.85.85h17.75c.47,0,.85-.38.85-.85s-.38-.85-.85-.85"/>
        <path class="cls-2" d="m24.85,41.99c-.47,0-.85.38-.85.85s.38.85.85.85h9.3c.47,0,.85-.38.85-.85s-.38-.85-.85-.85h-9.3Z"/>
        <path class="cls-2" d="m39.23,47.06h-14.37c-.47,0-.85.38-.85.85s.38.85.85.85h14.37c.47,0,.85-.38.85-.85s-.38-.85-.85-.85"/>
      </g>
    </g>
  </g>
</svg>