<?xml version="1.0" encoding="UTF-8"?>
<svg id="Layer_2" data-name="Layer 2" xmlns="http://www.w3.org/2000/svg" viewBox="0 0 125.08 125.14">
  <defs>
    <style>
      .cls-1 {
        fill: #b7d831;
      }

      .cls-2 {
        fill: none;
        stroke: #1e6f41;
        stroke-miterlimit: 10;
      }
    </style>
  </defs>
  <g id="Layer_1-2" data-name="Layer 1">
    <g>
      <path class="cls-1" d="m12.91,12.97c4.57,0,8.27,3.7,8.27,8.27v73.5c-4.7-4.25-11.85-4.25-16.54,0V21.24c0-4.57,3.7-8.27,8.27-8.27m28.95-8.27c3.41-.01,6.19,2.74,6.21,6.15v6.26h-12.41v-6.26c.02-3.41,2.79-6.16,6.2-6.15m0,86.86l-5.79-14.35c1.53-1.51,3.64-2.31,5.79-2.19,2.15-.12,4.26.67,5.79,2.19l-5.79,14.35Zm6.21-19.17c-1.28-.71-2.69-1.17-4.14-1.36v-35.31c0-1.14-.93-2.07-2.07-2.07s-2.07.93-2.07,2.07v35.31c-1.45.19-2.85.65-4.14,1.36V21.24h12.41v51.14ZM12.91,124.64h84.79c6.85,0,12.4-5.56,12.41-12.41,0-1.14-.93-2.07-2.07-2.07s-2.07.93-2.07,2.07c0,4.57-3.7,8.27-8.27,8.27H12.91c-4.57,0-8.27-3.7-8.27-8.27v-8.27c0-4.57,3.7-8.27,8.27-8.27s8.27,3.7,8.27,8.27c0,1.14.93,2.07,2.07,2.07s2.07-.92,2.07-2.07V29.51h6.21v47.05c0,.26.05.53.15.77l6.35,15.77c.63,1.57,2.15,2.59,3.84,2.58h6.21c1.14,0,2.07-.93,2.07-2.07s-.93-2.07-2.07-2.07h-1.74l5.73-14.22c.1-.25.15-.51.15-.77V10.84c0-5.71-4.63-10.34-10.34-10.34s-10.34,4.63-10.34,10.34v14.53h-6.21v-4.14c0-6.85-5.56-12.41-12.41-12.41S.5,14.39.5,21.24v90.99c0,6.85,5.56,12.4,12.41,12.41"/>
      <path class="cls-2" d="m12.91,12.97c4.57,0,8.27,3.7,8.27,8.27v73.5c-4.7-4.25-11.85-4.25-16.54,0V21.24c0-4.57,3.7-8.27,8.27-8.27Zm28.95-8.27c3.41-.01,6.19,2.74,6.21,6.15v6.26h-12.41v-6.26c.02-3.41,2.79-6.16,6.2-6.15Zm0,86.86l-5.79-14.35c1.53-1.51,3.64-2.31,5.79-2.19,2.15-.12,4.26.67,5.79,2.19l-5.79,14.35Zm6.21-19.17c-1.28-.71-2.69-1.17-4.14-1.36v-35.31c0-1.14-.93-2.07-2.07-2.07s-2.07.93-2.07,2.07v35.31c-1.45.19-2.85.65-4.14,1.36V21.24h12.41v51.14ZM12.91,124.64h84.79c6.85,0,12.4-5.56,12.41-12.41,0-1.14-.93-2.07-2.07-2.07s-2.07.93-2.07,2.07c0,4.57-3.7,8.27-8.27,8.27H12.91c-4.57,0-8.27-3.7-8.27-8.27v-8.27c0-4.57,3.7-8.27,8.27-8.27s8.27,3.7,8.27,8.27c0,1.14.93,2.07,2.07,2.07s2.07-.92,2.07-2.07V29.51h6.21v47.05c0,.26.05.53.15.77l6.35,15.77c.63,1.57,2.15,2.59,3.84,2.58h6.21c1.14,0,2.07-.93,2.07-2.07s-.93-2.07-2.07-2.07h-1.74l5.73-14.22c.1-.25.15-.51.15-.77V10.84c0-5.71-4.63-10.34-10.34-10.34s-10.34,4.63-10.34,10.34v14.53h-6.21v-4.14c0-6.85-5.56-12.41-12.41-12.41S.5,14.39.5,21.24v90.99c0,6.85,5.56,12.4,12.41,12.41Z"/>
      <path class="cls-1" d="m60.47,29.14l3.92-.78c1.35-.27,2.48-1.2,3.01-2.47.53-1.28.39-2.73-.38-3.88l-2.22-3.33,3.46-3.45,3.32,2.22c1.15.76,2.6.91,3.88.38,1.27-.53,2.2-1.66,2.47-3.01l.78-3.92h4.88l.78,3.92c.27,1.35,1.2,2.48,2.47,3.01,1.27.53,2.73.39,3.88-.38l3.32-2.22,3.45,3.45-2.22,3.32c-.76,1.15-.91,2.6-.38,3.88.53,1.28,1.66,2.2,3.01,2.47l3.92.78v4.88l-3.92.78c-1.35.27-2.48,1.2-3.01,2.47-.53,1.27-.39,2.73.38,3.88l2.22,3.33-3.45,3.45-3.32-2.22c-1.15-.76-2.6-.91-3.88-.38-1.27.53-2.2,1.66-2.47,3.01l-.78,3.92h-4.88l-.78-3.92c-.27-1.35-1.2-2.48-2.47-3.01-1.27-.53-2.73-.39-3.88.38l-3.32,2.22-3.45-3.45,2.22-3.32c.76-1.15.91-2.6.38-3.88-.53-1.28-1.66-2.2-3.01-2.47l-3.92-.78v-4.88Zm-4.14,0v4.88c0,1.97,1.39,3.67,3.32,4.06l3.92.78-2.22,3.32c-1.09,1.64-.87,3.82.52,5.22l3.45,3.45c1.4,1.39,3.58,1.6,5.22.52l3.32-2.21.78,3.92c.39,1.93,2.08,3.32,4.06,3.32h4.88c1.97,0,3.67-1.39,4.06-3.32l.78-3.92,3.32,2.21c1.64,1.09,3.82.87,5.22-.52l3.45-3.45c1.39-1.4,1.61-3.57.52-5.22l-2.21-3.33,3.91-.78c1.93-.39,3.32-2.08,3.32-4.06v-4.88c0-1.97-1.39-3.67-3.32-4.05l-3.91-.78,2.21-3.32c1.09-1.64.87-3.82-.52-5.22l-3.45-3.45c-1.4-1.39-3.58-1.6-5.22-.52l-3.32,2.21-.78-3.92c-.39-1.93-2.08-3.32-4.06-3.32h-4.88c-1.97,0-3.67,1.39-4.06,3.32l-.78,3.92-3.32-2.21c-1.64-1.09-3.82-.87-5.22.52l-3.45,3.45c-1.39,1.4-1.6,3.58-.52,5.22l2.21,3.32-3.91.78c-1.93.39-3.32,2.08-3.32,4.05"/>
      <path class="cls-2" d="m60.47,29.14l3.92-.78c1.35-.27,2.48-1.2,3.01-2.47.53-1.28.39-2.73-.38-3.88l-2.22-3.33,3.46-3.45,3.32,2.22c1.15.76,2.6.91,3.88.38,1.27-.53,2.2-1.66,2.47-3.01l.78-3.92h4.88l.78,3.92c.27,1.35,1.2,2.48,2.47,3.01,1.27.53,2.73.39,3.88-.38l3.32-2.22,3.45,3.45-2.22,3.32c-.76,1.15-.91,2.6-.38,3.88.53,1.28,1.66,2.2,3.01,2.47l3.92.78v4.88l-3.92.78c-1.35.27-2.48,1.2-3.01,2.47-.53,1.27-.39,2.73.38,3.88l2.22,3.33-3.45,3.45-3.32-2.22c-1.15-.76-2.6-.91-3.88-.38-1.27.53-2.2,1.66-2.47,3.01l-.78,3.92h-4.88l-.78-3.92c-.27-1.35-1.2-2.48-2.47-3.01-1.27-.53-2.73-.39-3.88.38l-3.32,2.22-3.45-3.45,2.22-3.32c.76-1.15.91-2.6.38-3.88-.53-1.28-1.66-2.2-3.01-2.47l-3.92-.78v-4.88Zm-4.14,0v4.88c0,1.97,1.39,3.67,3.32,4.06l3.92.78-2.22,3.32c-1.09,1.64-.87,3.82.52,5.22l3.45,3.45c1.4,1.39,3.58,1.6,5.22.52l3.32-2.21.78,3.92c.39,1.93,2.08,3.32,4.06,3.32h4.88c1.97,0,3.67-1.39,4.06-3.32l.78-3.92,3.32,2.21c1.64,1.09,3.82.87,5.22-.52l3.45-3.45c1.39-1.4,1.61-3.57.52-5.22l-2.21-3.33,3.91-.78c1.93-.39,3.32-2.08,3.32-4.06v-4.88c0-1.97-1.39-3.67-3.32-4.05l-3.91-.78,2.21-3.32c1.09-1.64.87-3.82-.52-5.22l-3.45-3.45c-1.4-1.39-3.58-1.6-5.22-.52l-3.32,2.21-.78-3.92c-.39-1.93-2.08-3.32-4.06-3.32h-4.88c-1.97,0-3.67,1.39-4.06,3.32l-.78,3.92-3.32-2.21c-1.64-1.09-3.82-.87-5.22.52l-3.45,3.45c-1.39,1.4-1.6,3.58-.52,5.22l2.21,3.32-3.91.78c-1.93.39-3.32,2.08-3.32,4.05Z"/>
      <path class="cls-1" d="m81.15,23.31c4.57,0,8.27,3.7,8.27,8.27s-3.7,8.27-8.27,8.27-8.27-3.7-8.27-8.27,3.7-8.27,8.27-8.27m0,20.68c6.85,0,12.41-5.55,12.41-12.41s-5.56-12.41-12.41-12.41-12.41,5.56-12.41,12.41c0,6.85,5.56,12.4,12.41,12.41"/>
      <path class="cls-2" d="m81.15,23.31c4.57,0,8.27,3.7,8.27,8.27s-3.7,8.27-8.27,8.27-8.27-3.7-8.27-8.27,3.7-8.27,8.27-8.27Zm0,20.68c6.85,0,12.41-5.55,12.41-12.41s-5.56-12.41-12.41-12.41-12.41,5.56-12.41,12.41c0,6.85,5.56,12.4,12.41,12.41Z"/>
      <path class="cls-1" d="m120.45,85.72l-3.92.78c-1.35.27-2.48,1.2-3.01,2.47s-.39,2.73.38,3.88l2.22,3.32-3.45,3.45-3.32-2.22c-1.15-.76-2.6-.91-3.88-.38-1.27.53-2.2,1.66-2.47,3.01l-.78,3.92h-4.88l-.78-3.92c-.27-1.35-1.2-2.48-2.47-3.01-1.28-.53-2.73-.39-3.88.38l-3.33,2.22-3.45-3.45,2.22-3.32c.76-1.15.91-2.6.38-3.88s-1.66-2.2-3.01-2.47l-3.92-.78v-4.88l3.92-.78c1.35-.27,2.48-1.2,3.01-2.47.53-1.27.39-2.73-.38-3.88l-2.22-3.32,3.45-3.45,3.32,2.22c1.15.76,2.6.91,3.88.38,1.27-.53,2.2-1.66,2.47-3.01l.78-3.92h4.88l.78,3.92c.27,1.35,1.2,2.48,2.47,3.01,1.27.53,2.73.39,3.88-.38l3.33-2.22,3.45,3.45-2.22,3.32c-.76,1.15-.91,2.6-.38,3.88.53,1.27,1.66,2.2,3.01,2.47l3.92.78v4.88Zm.81-8.94l-3.91-.78,2.21-3.32c1.09-1.64.87-3.82-.52-5.22l-3.46-3.45c-1.4-1.39-3.58-1.6-5.22-.52l-3.32,2.21-.78-3.91c-.39-1.93-2.08-3.32-4.06-3.32h-4.88c-1.97,0-3.67,1.39-4.05,3.32l-.78,3.91-3.32-2.21c-1.64-1.09-3.82-.87-5.22.52l-3.45,3.45c-1.39,1.4-1.6,3.58-.52,5.22l2.21,3.32-3.92.78c-1.93.39-3.32,2.09-3.32,4.06v4.88c0,1.97,1.39,3.67,3.32,4.06l3.92.78-2.22,3.32c-1.09,1.64-.87,3.82.52,5.22l3.46,3.45c1.4,1.39,3.58,1.6,5.22.52l3.32-2.21.78,3.91c.39,1.93,2.08,3.32,4.05,3.32h4.88c1.97,0,3.67-1.39,4.06-3.32l.78-3.91,3.32,2.22c1.64,1.09,3.82.87,5.22-.52l3.45-3.45c1.39-1.4,1.6-3.58.52-5.22l-2.21-3.33,3.91-.78c1.93-.39,3.32-2.08,3.32-4.06v-4.88c0-1.97-1.39-3.67-3.32-4.06"/>
      <path class="cls-2" d="m120.45,85.72l-3.92.78c-1.35.27-2.48,1.2-3.01,2.47s-.39,2.73.38,3.88l2.22,3.32-3.45,3.45-3.32-2.22c-1.15-.76-2.6-.91-3.88-.38-1.27.53-2.2,1.66-2.47,3.01l-.78,3.92h-4.88l-.78-3.92c-.27-1.35-1.2-2.48-2.47-3.01-1.28-.53-2.73-.39-3.88.38l-3.33,2.22-3.45-3.45,2.22-3.32c.76-1.15.91-2.6.38-3.88s-1.66-2.2-3.01-2.47l-3.92-.78v-4.88l3.92-.78c1.35-.27,2.48-1.2,3.01-2.47.53-1.27.39-2.73-.38-3.88l-2.22-3.32,3.45-3.45,3.32,2.22c1.15.76,2.6.91,3.88.38,1.27-.53,2.2-1.66,2.47-3.01l.78-3.92h4.88l.78,3.92c.27,1.35,1.2,2.48,2.47,3.01,1.27.53,2.73.39,3.88-.38l3.33-2.22,3.45,3.45-2.22,3.32c-.76,1.15-.91,2.6-.38,3.88.53,1.27,1.66,2.2,3.01,2.47l3.92.78v4.88Zm.81-8.94l-3.91-.78,2.21-3.32c1.09-1.64.87-3.82-.52-5.22l-3.46-3.45c-1.4-1.39-3.58-1.6-5.22-.52l-3.32,2.21-.78-3.91c-.39-1.93-2.08-3.32-4.06-3.32h-4.88c-1.97,0-3.67,1.39-4.05,3.32l-.78,3.91-3.32-2.21c-1.64-1.09-3.82-.87-5.22.52l-3.45,3.45c-1.39,1.4-1.6,3.58-.52,5.22l2.21,3.32-3.92.78c-1.93.39-3.32,2.09-3.32,4.06v4.88c0,1.97,1.39,3.67,3.32,4.06l3.92.78-2.22,3.32c-1.09,1.64-.87,3.82.52,5.22l3.46,3.45c1.4,1.39,3.58,1.6,5.22.52l3.32-2.21.78,3.91c.39,1.93,2.08,3.32,4.05,3.32h4.88c1.97,0,3.67-1.39,4.06-3.32l.78-3.91,3.32,2.22c1.64,1.09,3.82.87,5.22-.52l3.45-3.45c1.39-1.4,1.6-3.58.52-5.22l-2.21-3.33,3.91-.78c1.93-.39,3.32-2.08,3.32-4.06v-4.88c0-1.97-1.39-3.67-3.32-4.06Z"/>
      <path class="cls-1" d="m99.77,91.55c-4.57,0-8.27-3.7-8.27-8.27s3.7-8.27,8.27-8.27,8.27,3.7,8.27,8.27-3.7,8.27-8.27,8.27m0-20.68c-6.85,0-12.41,5.56-12.41,12.41s5.56,12.41,12.41,12.41,12.41-5.56,12.41-12.41c0-6.85-5.56-12.4-12.41-12.41"/>
      <path class="cls-2" d="m99.77,91.55c-4.57,0-8.27-3.7-8.27-8.27s3.7-8.27,8.27-8.27,8.27,3.7,8.27,8.27-3.7,8.27-8.27,8.27Zm0-20.68c-6.85,0-12.41,5.56-12.41,12.41s5.56,12.41,12.41,12.41,12.41-5.56,12.41-12.41c0-6.85-5.56-12.4-12.41-12.41Z"/>
      <path class="cls-1" d="m54.27,93.62c0,1.14.93,2.07,2.07,2.07h14.48c1.14,0,2.07-.92,2.07-2.07s-.93-2.07-2.07-2.07h-14.48c-1.14,0-2.07.93-2.07,2.07"/>
      <path class="cls-2" d="m54.27,93.62c0,1.14.93,2.07,2.07,2.07h14.48c1.14,0,2.07-.92,2.07-2.07s-.93-2.07-2.07-2.07h-14.48c-1.14,0-2.07.93-2.07,2.07Z"/>
      <path class="cls-1" d="m39.79,103.96h10.34c1.14,0,2.07-.93,2.07-2.07s-.93-2.07-2.07-2.07h-10.34c-1.14,0-2.07.93-2.07,2.07s.92,2.07,2.07,2.07"/>
      <path class="cls-2" d="m39.79,103.96h10.34c1.14,0,2.07-.93,2.07-2.07s-.93-2.07-2.07-2.07h-10.34c-1.14,0-2.07.93-2.07,2.07s.92,2.07,2.07,2.07Z"/>
      <path class="cls-1" d="m56.34,101.89c0,1.14.93,2.07,2.07,2.07h16.55c1.14,0,2.07-.92,2.07-2.07s-.93-2.07-2.07-2.07h-16.55c-1.14,0-2.07.93-2.07,2.07"/>
      <path class="cls-2" d="m56.34,101.89c0,1.14.93,2.07,2.07,2.07h16.55c1.14,0,2.07-.92,2.07-2.07s-.93-2.07-2.07-2.07h-16.55c-1.14,0-2.07.93-2.07,2.07Z"/>
      <path class="cls-1" d="m37.72,110.16c0,1.14.93,2.07,2.07,2.07h41.36c1.14,0,2.07-.93,2.07-2.07s-.93-2.07-2.07-2.07h-41.36c-1.14,0-2.07.93-2.07,2.07"/>
      <path class="cls-2" d="m37.72,110.16c0,1.14.93,2.07,2.07,2.07h41.36c1.14,0,2.07-.93,2.07-2.07s-.93-2.07-2.07-2.07h-41.36c-1.14,0-2.07.93-2.07,2.07Z"/>
    </g>
  </g>
</svg>