<?xml version="1.0" encoding="UTF-8"?>
<svg id="Layer_2" data-name="Layer 2" xmlns="http://www.w3.org/2000/svg" viewBox="0 0 124.14 124.14">
  <defs>
    <style>
      .cls-1 {
        fill: #b7d831;
      }

      .cls-2 {
        fill: none;
        stroke: #1e6f41;
        stroke-miterlimit: 10;
      }
    </style>
  </defs>
  <g id="Layer_1-2" data-name="Layer 1">
    <g>
      <path class="cls-1" d="m52.14,52.14h-3.97c0-6.04-3.44-11.56-8.86-14.23,5.32-3.88,6.48-11.33,2.6-16.65-3.88-5.32-11.34-6.48-16.65-2.6-5.32,3.88-6.48,11.33-2.6,16.65.73.99,1.6,1.87,2.6,2.6-5.42,2.67-8.86,8.19-8.87,14.23h-3.97V12.42h39.72v39.72Zm-25.22-6.54l3.97,3.97c.78.78,2.03.78,2.81,0l3.97-3.97c.37-.37.57-.88.57-1.4v-2.36c3.68,2.13,5.95,6.05,5.96,10.3h-23.83c0-4.25,2.28-8.18,5.96-10.3v2.36c0,.53.22,1.03.6,1.4m3.38-5.2c1.31-.24,2.66-.24,3.97,0v2.98l-1.99,1.99-1.99-1.99v-2.98Zm-5.67-14.08c1.07-4.23,5.36-6.78,9.59-5.71,2.07.53,3.85,1.87,4.91,3.73h-6.84c-.53,0-1.03.21-1.4.58l-1.4,1.4h-4.85Zm0,3.97h5.67c.53,0,1.03-.21,1.4-.58l1.41-1.4h7.12c0,4.38-3.54,7.93-7.92,7.94-3.62,0-6.79-2.45-7.69-5.95h0Zm31.49-19.86c0-1.1-.89-1.99-1.99-1.99H10.43c-1.1,0-1.99.89-1.99,1.99v43.69c0,1.1.89,1.99,1.99,1.99h43.69c1.1,0,1.99-.89,1.99-1.99V10.43Z"/>
      <path class="cls-2" d="m52.14,52.14h-3.97c0-6.04-3.44-11.56-8.86-14.23,5.32-3.88,6.48-11.33,2.6-16.65-3.88-5.32-11.34-6.48-16.65-2.6-5.32,3.88-6.48,11.33-2.6,16.65.73.99,1.6,1.87,2.6,2.6-5.42,2.67-8.86,8.19-8.87,14.23h-3.97V12.42h39.72v39.72Zm-25.22-6.54l3.97,3.97c.78.78,2.03.78,2.81,0l3.97-3.97c.37-.37.57-.88.57-1.4v-2.36c3.68,2.13,5.95,6.05,5.96,10.3h-23.83c0-4.25,2.28-8.18,5.96-10.3v2.36c0,.53.22,1.03.6,1.4Zm3.38-5.2c1.31-.24,2.66-.24,3.97,0v2.98l-1.99,1.99-1.99-1.99v-2.98Zm-5.67-14.08c1.07-4.23,5.36-6.78,9.59-5.71,2.07.53,3.85,1.87,4.91,3.73h-6.84c-.53,0-1.03.21-1.4.58l-1.4,1.4h-4.85Zm0,3.97h5.67c.53,0,1.03-.21,1.4-.58l1.41-1.4h7.12c0,4.38-3.54,7.93-7.92,7.94-3.62,0-6.79-2.45-7.69-5.95h0Zm31.49-19.86c0-1.1-.89-1.99-1.99-1.99H10.43c-1.1,0-1.99.89-1.99,1.99v43.69c0,1.1.89,1.99,1.99,1.99h43.69c1.1,0,1.99-.89,1.99-1.99V10.43Z"/>
      <path class="cls-1" d="m117.68,119.67h-55.61c-1.1,0-1.99-.89-1.99-1.99v-21.02l.82.82c1.49,1.5,3.51,2.33,5.62,2.33h17.39v5.96c0,1.1.89,1.99,1.99,1.99h7.94c1.1,0,1.99-.89,1.99-1.99v-5.96h17.39c2.11,0,4.13-.83,5.62-2.33l.82-.82v21.02c0,1.1-.89,1.99-1.99,1.99M4.47,4.47h63.56v17.88c0,1.1.89,1.99,1.99,1.99h17.88v35.75h-11.92c-4.39,0-7.94,3.56-7.94,7.94v7.94h-5.96c-3.29,0-5.96,2.67-5.96,5.96v35.75c0,.68.13,1.35.36,1.99H4.47V4.47Zm67.53,2.81l13.08,13.08h-13.08V7.28Zm31.78,56.78c2.19,0,3.97,1.78,3.97,3.97v7.94h-15.89v-11.92h11.92Zm-31.78,11.92v-7.94c0-2.19,1.78-3.97,3.97-3.97h11.92v11.92h-15.89Zm19.86,27.81h-3.97v-11.92h3.97v11.92Zm27.81-21.85v9.11l-3.63,3.63c-.74.75-1.76,1.17-2.81,1.16h-17.39v-5.96c0-1.1-.89-1.99-1.99-1.99h-7.94c-1.1,0-1.99.89-1.99,1.99v5.96h-17.39c-1.05,0-2.07-.42-2.81-1.16l-3.63-3.63v-9.11c0-1.1.89-1.99,1.99-1.99h55.61c1.1,0,1.99.89,1.99,1.99m-1.99-5.96h-5.96v-7.94c0-4.39-3.56-7.94-7.95-7.94h-11.92V22.35c0-.53-.21-1.03-.58-1.4L71.42,1.08c-.37-.37-.88-.58-1.4-.58H2.49c-1.1,0-1.99.89-1.99,1.99v119.17c0,1.1.89,1.99,1.99,1.99h115.2c3.29,0,5.96-2.67,5.96-5.96v-35.75c0-3.29-2.67-5.96-5.96-5.96"/>
      <path class="cls-2" d="m117.68,119.67h-55.61c-1.1,0-1.99-.89-1.99-1.99v-21.02l.82.82c1.49,1.5,3.51,2.33,5.62,2.33h17.39v5.96c0,1.1.89,1.99,1.99,1.99h7.94c1.1,0,1.99-.89,1.99-1.99v-5.96h17.39c2.11,0,4.13-.83,5.62-2.33l.82-.82v21.02c0,1.1-.89,1.99-1.99,1.99ZM4.47,4.47h63.56v17.88c0,1.1.89,1.99,1.99,1.99h17.88v35.75h-11.92c-4.39,0-7.94,3.56-7.94,7.94v7.94h-5.96c-3.29,0-5.96,2.67-5.96,5.96v35.75c0,.68.13,1.35.36,1.99H4.47V4.47Zm67.53,2.81l13.08,13.08h-13.08V7.28Zm31.78,56.78c2.19,0,3.97,1.78,3.97,3.97v7.94h-15.89v-11.92h11.92Zm-31.78,11.92v-7.94c0-2.19,1.78-3.97,3.97-3.97h11.92v11.92h-15.89Zm19.86,27.81h-3.97v-11.92h3.97v11.92Zm27.81-21.85v9.11l-3.63,3.63c-.74.75-1.76,1.17-2.81,1.16h-17.39v-5.96c0-1.1-.89-1.99-1.99-1.99h-7.94c-1.1,0-1.99.89-1.99,1.99v5.96h-17.39c-1.05,0-2.07-.42-2.81-1.16l-3.63-3.63v-9.11c0-1.1.89-1.99,1.99-1.99h55.61c1.1,0,1.99.89,1.99,1.99Zm-1.99-5.96h-5.96v-7.94c0-4.39-3.56-7.94-7.95-7.94h-11.92V22.35c0-.53-.21-1.03-.58-1.4L71.42,1.08c-.37-.37-.88-.58-1.4-.58H2.49c-1.1,0-1.99.89-1.99,1.99v119.17c0,1.1.89,1.99,1.99,1.99h115.2c3.29,0,5.96-2.67,5.96-5.96v-35.75c0-3.29-2.67-5.96-5.96-5.96Z"/>
      <rect class="cls-1" x="60.08" y="48.17" width="23.83" height="3.97"/>
      <rect class="cls-2" x="60.08" y="48.17" width="23.83" height="3.97"/>
      <rect class="cls-1" x="60.08" y="40.22" width="23.83" height="3.97"/>
      <rect class="cls-2" x="60.08" y="40.22" width="23.83" height="3.97"/>
      <rect class="cls-1" x="60.08" y="32.28" width="23.83" height="3.97"/>
      <rect class="cls-2" x="60.08" y="32.28" width="23.83" height="3.97"/>
      <path class="cls-1" d="m40.22,72H12.42v-7.94h27.81v7.94Zm1.99-11.92H10.43c-1.1,0-1.99.89-1.99,1.99v11.92c0,1.1.89,1.99,1.99,1.99h31.78c1.1,0,1.99-.89,1.99-1.99v-11.92c0-1.1-.89-1.99-1.99-1.99"/>
      <path class="cls-2" d="m40.22,72H12.42v-7.94h27.81v7.94Zm1.99-11.92H10.43c-1.1,0-1.99.89-1.99,1.99v11.92c0,1.1.89,1.99,1.99,1.99h31.78c1.1,0,1.99-.89,1.99-1.99v-11.92c0-1.1-.89-1.99-1.99-1.99Z"/>
      <rect class="cls-1" x="14.4" y="79.95" width="17.88" height="3.97"/>
      <rect class="cls-2" x="14.4" y="79.95" width="17.88" height="3.97"/>
      <rect class="cls-1" x="36.25" y="79.95" width="7.95" height="3.97"/>
      <rect class="cls-2" x="36.25" y="79.95" width="7.95" height="3.97"/>
      <rect class="cls-1" x="8.45" y="87.89" width="35.75" height="3.97"/>
      <rect class="cls-2" x="8.45" y="87.89" width="35.75" height="3.97"/>
      <rect class="cls-1" x="8.45" y="95.83" width="35.75" height="3.97"/>
      <rect class="cls-2" x="8.45" y="95.83" width="35.75" height="3.97"/>
      <rect class="cls-1" x="8.45" y="103.78" width="35.75" height="3.97"/>
      <rect class="cls-2" x="8.45" y="103.78" width="35.75" height="3.97"/>
    </g>
  </g>
</svg>