<?xml version="1.0" encoding="UTF-8"?>
<svg id="Layer_2" data-name="Layer 2" xmlns="http://www.w3.org/2000/svg" viewBox="0 0 84.91 84.91">
  <defs>
    <style>
      .cls-1 {
        fill: #fff;
      }

      .cls-2 {
        fill: #43a756;
      }
    </style>
  </defs>
  <g id="Layer_1-2" data-name="Layer 1">
    <g>
      <path class="cls-1" d="m42.45,84.91c23.45,0,42.45-19.01,42.45-42.45S65.9,0,42.45,0,0,19.01,0,42.45s19.01,42.45,42.45,42.45"/>
      <g>
        <path class="cls-2" d="m42.99,38.51c3.52,0,6.37-2.85,6.37-6.37v-15.33c0-1.09-.88-1.97-1.97-1.97s-1.97.88-1.97,1.97v15.33c0,1.34-1.09,2.43-2.43,2.43h-9.41c-9.81,0-17.76,7.95-17.76,17.76v15.79c0,1.09.88,1.97,1.97,1.97s1.97-.88,1.97-1.97v-15.79c0-7.63,6.18-13.81,13.81-13.81h9.41Z"/>
        <path class="cls-2" d="m42.99,38.51c3.52,0,6.37-2.85,6.37-6.37v-15.33c0-1.09-.88-1.97-1.97-1.97s-1.97.88-1.97,1.97v15.33c0,1.34-1.09,2.43-2.43,2.43h-9.41c-9.81,0-17.76,7.95-17.76,17.76v15.79c0,1.09.88,1.97,1.97,1.97s1.97-.88,1.97-1.97v-15.79c0-7.63,6.18-13.81,13.81-13.81h9.41Z"/>
        <path class="cls-2" d="m67.12,14.83c-1.09,0-1.97.88-1.97,1.97v23.68c0,7.63-6.18,13.81-13.81,13.81h-9.41c-3.52,0-6.37,2.85-6.37,6.37v7.44c0,1.09.88,1.97,1.97,1.97s1.97-.88,1.97-1.97v-7.44c0-1.34,1.09-2.43,2.43-2.43h9.41c9.81,0,17.76-7.95,17.76-17.76v-23.68c0-1.09-.88-1.97-1.97-1.97"/>
        <path class="cls-2" d="m67.12,14.83c-1.09,0-1.97.88-1.97,1.97v23.68c0,7.63-6.18,13.81-13.81,13.81h-9.41c-3.52,0-6.37,2.85-6.37,6.37v7.44c0,1.09.88,1.97,1.97,1.97s1.97-.88,1.97-1.97v-7.44c0-1.34,1.09-2.43,2.43-2.43h9.41c9.81,0,17.76-7.95,17.76-17.76v-23.68c0-1.09-.88-1.97-1.97-1.97Z"/>
        <path class="cls-2" d="m27.65,61.2c-1.09,0-1.97.88-1.97,1.97v4.93c0,1.09.88,1.97,1.97,1.97s1.97-.88,1.97-1.97v-4.93c0-1.09-.88-1.97-1.97-1.97"/>
        <path class="cls-2" d="m27.65,61.2c-1.09,0-1.97.88-1.97,1.97v4.93c0,1.09.88,1.97,1.97,1.97s1.97-.88,1.97-1.97v-4.93c0-1.09-.88-1.97-1.97-1.97Z"/>
        <path class="cls-2" d="m42,44.43c-1.09,0-1.97.88-1.97,1.97s.88,1.97,1.97,1.97h3.95c1.86,0,3.7-.41,5.39-1.18.96-.51,1.33-1.7.83-2.67-.46-.88-1.51-1.28-2.44-.93-1.21.55-2.52.83-3.85.83h-3.87Z"/>
        <path class="cls-2" d="m42,44.43c-1.09,0-1.97.88-1.97,1.97s.88,1.97,1.97,1.97h3.95c1.86,0,3.7-.41,5.39-1.18.96-.51,1.33-1.7.83-2.67-.46-.88-1.51-1.28-2.44-.93-1.21.55-2.52.83-3.85.83h-3.87Z"/>
        <path class="cls-2" d="m55.77,41.03c.22.1.47.14.71.14.81,0,1.54-.49,1.84-1.24.6-1.54.91-3.18.91-4.83v-4.48c0-1.09-.88-1.97-1.97-1.97s-1.97.88-1.97,1.97v4.54c0,1.15-.22,2.28-.63,3.35-.38,1.01.12,2.13,1.12,2.53"/>
        <path class="cls-2" d="m55.77,41.03c.22.1.47.14.71.14.81,0,1.54-.49,1.84-1.24.6-1.54.91-3.18.91-4.83v-4.48c0-1.09-.88-1.97-1.97-1.97s-1.97.88-1.97,1.97v4.54c0,1.15-.22,2.28-.63,3.35-.38,1.01.12,2.13,1.12,2.53Z"/>
        <path class="cls-2" d="m32.53,46.08c-3.05,1.71-5.31,4.54-6.3,7.89-.2,1.02.42,2.02,1.42,2.29,1.04.32,2.15-.27,2.46-1.31,0,0,0,0,0-.01.71-2.33,2.3-4.29,4.42-5.49.95-.54,1.29-1.76.74-2.71s-1.76-1.28-2.71-.74l-.04.08Z"/>
        <path class="cls-2" d="m32.53,46.08c-3.05,1.71-5.31,4.54-6.3,7.89-.2,1.02.42,2.02,1.42,2.29,1.04.32,2.15-.27,2.46-1.31,0,0,0,0,0-.01.71-2.33,2.3-4.29,4.42-5.49.95-.54,1.29-1.76.74-2.71s-1.76-1.28-2.71-.74l-.04.08Z"/>
        <path class="cls-2" d="m57.25,23.71c1.09,0,1.97-.88,1.97-1.97v-4.93c0-1.09-.88-1.97-1.97-1.97s-1.97.88-1.97,1.97v4.93c0,1.09.88,1.97,1.97,1.97"/>
        <path class="cls-2" d="m57.25,23.71c1.09,0,1.97-.88,1.97-1.97v-4.93c0-1.09-.88-1.97-1.97-1.97s-1.97.88-1.97,1.97v4.93c0,1.09.88,1.97,1.97,1.97Z"/>
      </g>
    </g>
  </g>
</svg>