<?xml version="1.0" encoding="UTF-8"?>
<svg id="Layer_2" data-name="Layer 2" xmlns="http://www.w3.org/2000/svg" viewBox="0 0 92.92 92.92">
  <defs>
    <style>
      .cls-1 {
        fill: #fff;
      }
    </style>
  </defs>
  <g id="Layer_1-2" data-name="Layer 1">
    <path class="cls-1" d="m92.92,92.92h-29.04v-3.87h29.04v3.87Zm-32.91,0H0v-3.87h60.01v3.87Zm32.91-7.74H25.17v-3.87h67.76v3.87Zm-71.63,0H0v-3.87h21.29v3.87Zm71.63-7.74h-15.49v-3.87h15.49v3.87Zm-19.36,0H0v-3.87h73.56v3.87Zm-60.01-7.74H1.94c-1.07,0-1.94-.87-1.94-1.94V21.29c0-1.07.87-1.94,1.94-1.94h10.99L39.53.36c.59-.42,1.37-.48,2.01-.15.65.33,1.05,1,1.05,1.72v17.42h48.4c1.07,0,1.94.87,1.94,1.94v46.46c0,1.07-.87,1.94-1.94,1.94H13.55Zm6.04-3.87h69.46V23.23h-46.46v25.17c0,.63-.3,1.21-.81,1.58l-22.19,15.85Zm-15.72,0h7.74V23.23H3.87v42.59ZM15.49,22.29v41.7l23.23-16.59V5.7L15.49,22.29Zm63.88,39.66h-3.87v-4.12c-3.34-.86-5.81-3.9-5.81-7.5h3.87c0,2.13,1.74,3.87,3.87,3.87s3.87-1.74,3.87-3.87-1.74-3.87-3.87-3.87c-4.27,0-7.74-3.47-7.74-7.74,0-3.6,2.47-6.64,5.81-7.5v-4.12h3.87v4.12c3.34.86,5.81,3.9,5.81,7.5h-3.87c0-2.14-1.74-3.87-3.87-3.87s-3.87,1.74-3.87,3.87,1.74,3.87,3.87,3.87c4.27,0,7.74,3.47,7.74,7.74,0,3.6-2.47,6.64-5.81,7.5v4.12Zm-21.29-5.81h-11.62v-3.87h11.62v3.87Zm7.74-9.68h-19.36v-3.87h19.36v3.87Zm0-9.68h-19.36v-3.87h19.36v3.87Z"/>
  </g>
</svg>