<?xml version="1.0" encoding="UTF-8"?>
<svg id="Layer_2" data-name="Layer 2" xmlns="http://www.w3.org/2000/svg" viewBox="0 0 281 413.67">
  <defs>
    <style>
      .cls-1 {
        fill: #fff;
      }

      .cls-2 {
        stroke: #fff;
        stroke-linecap: round;
        stroke-linejoin: round;
        stroke-width: .72px;
      }

      .cls-2, .cls-3 {
        fill: none;
      }

      .cls-4 {
        fill: #1e6f41;
      }

      .cls-3 {
        stroke: #43a756;
        stroke-dasharray: 0 0 5.98 5.98;
      }
    </style>
  </defs>
  <g id="Layer_1-2" data-name="Layer 1">
    <g>
      <line class="cls-3" x1="281" y1="248.38" y2="248.38"/>
      <line class="cls-3" x1="281" y1="413.17" y2="413.17"/>
      <path class="cls-1" d="m140.41,144.05c39.78,0,72.03-32.25,72.03-72.03S180.19,0,140.41,0s-72.03,32.25-72.03,72.03,32.25,72.03,72.03,72.03"/>
      <path class="cls-4" d="m145.55,63.33c-2.61,3.6-5.08,5.53-5.91,5.83-.84-.3-3.3-2.23-5.91-5.83-2.81-3.88-4.42-7.82-4.42-10.82,0-2.73,1.14-5.43,3.13-7.41,1.96-1.95,4.5-3.02,7.18-3.02h.07c2.66,0,5.2,1.07,7.16,3.02,1.99,1.98,3.13,4.68,3.13,7.41,0,2.99-1.61,6.94-4.42,10.82m34.07,23.19c-.19-1.35-.77-2.72-1.33-4.04-.36-.84-.95-2.22-.96-2.78,1.67-2.03.58-4.48-.15-6.11-.59-1.33-.99-2.31-.66-2.8,2.32-3.45,2.92-6.42,1.8-8.83-.98-2.09-3.16-3.42-6.15-3.73-.93-.1-1.86-.15-2.77-.2-1.19-.07-2.94-.16-3.57-.39-3-4.58-5.76-5.75-8.97-6.08-1.01-.11-1.96-.23-2.82-.37-.32-3.36-1.84-6.59-4.28-9.02-1.82-1.81-4-3.07-6.36-3.72.26-1.1,1.01-2.45,2.11-3.78,2.38-2.87,5.78-4.95,8.25-5.05,1.74-.07,3.07-1.13,3.48-2.76.58-2.32-.85-5.18-3.33-6.66-1.82-1.08-6.81-2.9-13.89,3.62-1.44,1.32-7.16,2.99-9.91,3.8l-.71.21c-3.11.91-3.77,2.38-4.37,4.36-.3.98-.67,2.2-1.83,3.93-.5.74-.83,1.14-1.03,1.35-1.97-.29-2.88,1.5-3.24,2.21-1.46,2.89-2.5,2.97-3.19,3.02-2.56.2-5.04,2.22-6.47,5.26-1.47,3.12-1.39,6.36.23,8.65.35.5.64,1.24.84,2.2.21.97,1.07,1.64,2.02,1.64.14,0,.29-.02.43-.05,1.12-.24,1.83-1.34,1.59-2.45-.33-1.53-.82-2.74-1.5-3.71-.88-1.25-.51-3.15.13-4.51.76-1.6,2.04-2.82,3.05-2.9,1.86-.14,4.27-.86,6.48-5.13,1.59-.05,2.81-1.35,4.1-3.28,1.5-2.24,2.01-3.92,2.34-5.03q.38-1.24,1.58-1.59l.71-.21c4.95-1.45,9.56-2.89,11.55-4.72,3.51-3.23,6.76-4.37,8.92-3.14.92.53,1.33,1.32,1.45,1.79-4.32.36-8.53,3.7-10.87,6.51-1.67,2.01-2.71,4.05-3.04,5.92-3.65.08-7.11,1.57-9.77,4.22-2.76,2.75-4.35,6.52-4.35,10.34,0,5.45,3.46,10.9,5.52,13.66.89,1.19,5.51,7.15,8.95,7.15s8.06-5.95,8.95-7.15c1.7-2.28,4.36-6.4,5.23-10.83.82.13,1.69.24,2.62.34,1.89.2,3.65.66,6.06,4.42,1.13,1.76,3.58,1.9,6.68,2.07.86.05,1.74.1,2.57.18,1.45.15,2.51.66,2.84,1.37.45.96-.09,2.7-1.49,4.77-1.63,2.43-.46,5.06.32,6.79.25.56.66,1.49.68,1.86-1.72,1.98-.59,4.62.41,6.96.38.88,1.26,2.95,1.04,3.45,0,0-.02.03-.09.07-.79.47-1.3.31-3.23-.99-1.85-1.25-4.64-3.13-8.03-1.1-2.57,1.54-1.69,4.11-1.26,5.35.38,1.1.59,1.81.24,2.52-.12.07-.47.18-.71.24-1.07.32-2.87.84-3.79,3.09-.85,2.06-.14,3.49.43,4.65.27.54.54,1.1.75,1.85.53,1.92.31,2.48-.16,3.72-.31.82-.7,1.85-.93,3.36-.27,1.83-.16,3.72-.06,5.39.26,4.33-.05,4.86-1.38,5.09-.03,0-.06,0-.08.01-.33-.42-.66-1.9-.86-2.81-.4-1.78-.85-3.79-1.99-5.4-1.02-1.45-3-3.1-6.62-2.67-.41.05-.89.16-1.49.3-1.4.33-4.3,1.02-5.49.21-.23-.16-.55-.47-.68-1.39-.25-1.84-2.01-2.23-2.59-2.36-.16-.03-.39-.09-.49-.13-.04-.08-.14-.38-.12-1.08.02-.79-.2-2.65-2.73-2.94-.04,0-.08,0-.11-.01-.05-.13-.12-.38-.17-.81-.14-1.14-.93-2.51-5.7-4.81-2.7-1.3-5.66-2.38-7.55-2.77-.8-.16-2.91-.6-3.87,1.05-.05.08-.09.15-.12.19-.61-.22-1.87-1.3-2.66-1.97-1.97-1.68-4.19-3.58-6.81-3.7-.51-.35-1.31-1.16-1.7-1.73,1.26-1.22.96-2.86.82-3.56.31-.08.84-.17,1.7-.22,2.87-.17,5.37-2.7,6.52-6.61.32-1.09-.3-2.24-1.4-2.57-1.1-.32-2.24.3-2.57,1.4-.61,2.06-1.78,3.59-2.8,3.65-2.63.16-4.12.7-4.99,1.83-.94,1.22-.67,2.57-.53,3.3,0,.02,0,.04.01.06-1,.83-1.36,2.13-.95,3.49.58,1.93,3.53,5.18,5.54,5.09.02,0,.04,0,.06,0,1.22,0,2.98,1.5,4.4,2.72,2,1.71,3.89,3.32,6.11,2.95.65-.11,1.51-.44,2.3-1.34.93.18,2.78.75,5.11,1.76,2.92,1.26,4.52,2.29,5.03,2.74.44,2.58,1.74,3.48,2.96,3.82.31,3.04,2.31,3.86,3.4,4.15.48,1.71,1.44,2.69,2.23,3.23,2.7,1.85,6.5.94,8.78.4.39-.09.84-.2,1.01-.22,2.54-.3,3.19.83,4.1,4.88.32,1.42.62,2.77,1.25,3.86.82,1.42,2.07,2.18,3.58,2.18.27,0,.54-.02.83-.07,2.38-.4,3.96-1.78,4.58-3.99.46-1.63.35-3.47.23-5.42-.09-1.54-.19-3.13.02-4.54.16-1.07.42-1.76.7-2.49.57-1.51,1.16-3.06.28-6.28-.31-1.13-.73-1.97-1.03-2.59-.45-.92-.45-.93-.32-1.25.15-.36.23-.43,1.14-.7.95-.28,2.38-.7,3.2-2.29,1.2-2.31.48-4.39.01-5.77-.07-.2-.15-.43-.21-.63.84-.36,1.55-.02,3.28,1.14,1.78,1.2,4.46,3.02,7.65,1.12.93-.55,2.45-1.9,2.07-4.65Z"/>
      <path class="cls-2" d="m145.55,63.33c-2.61,3.6-5.08,5.53-5.91,5.83-.84-.3-3.3-2.23-5.91-5.83-2.81-3.88-4.42-7.82-4.42-10.82,0-2.73,1.14-5.43,3.13-7.41,1.96-1.95,4.5-3.02,7.18-3.02h.07c2.66,0,5.2,1.07,7.16,3.02,1.99,1.98,3.13,4.68,3.13,7.41,0,2.99-1.61,6.94-4.42,10.82Zm34.07,23.19c-.19-1.35-.77-2.72-1.33-4.04-.36-.84-.95-2.22-.96-2.78,1.67-2.03.58-4.48-.15-6.11-.59-1.33-.99-2.31-.66-2.8,2.32-3.45,2.92-6.42,1.8-8.83-.98-2.09-3.16-3.42-6.15-3.73-.93-.1-1.86-.15-2.77-.2-1.19-.07-2.94-.16-3.57-.39-3-4.58-5.76-5.75-8.97-6.08-1.01-.11-1.96-.23-2.82-.37-.32-3.36-1.84-6.59-4.28-9.02-1.82-1.81-4-3.07-6.36-3.72.26-1.1,1.01-2.45,2.11-3.78,2.38-2.87,5.78-4.95,8.25-5.05,1.74-.07,3.07-1.13,3.48-2.76.58-2.32-.85-5.18-3.33-6.66-1.82-1.08-6.81-2.9-13.89,3.62-1.44,1.32-7.16,2.99-9.91,3.8l-.71.21c-3.11.91-3.77,2.38-4.37,4.36-.3.98-.67,2.2-1.83,3.93-.5.74-.83,1.14-1.03,1.35-1.97-.29-2.88,1.5-3.24,2.21-1.46,2.89-2.5,2.97-3.19,3.02-2.56.2-5.04,2.22-6.47,5.26-1.47,3.12-1.39,6.36.23,8.65.35.5.64,1.24.84,2.2.21.97,1.07,1.64,2.02,1.64.14,0,.29-.02.43-.05,1.12-.24,1.83-1.34,1.59-2.45-.33-1.53-.82-2.74-1.5-3.71-.88-1.25-.51-3.15.13-4.51.76-1.6,2.04-2.82,3.05-2.9,1.86-.14,4.27-.86,6.48-5.13,1.59-.05,2.81-1.35,4.1-3.28,1.5-2.24,2.01-3.92,2.34-5.03q.38-1.24,1.58-1.59l.71-.21c4.95-1.45,9.56-2.89,11.55-4.72,3.51-3.23,6.76-4.37,8.92-3.14.92.53,1.33,1.32,1.45,1.79-4.32.36-8.53,3.7-10.87,6.51-1.67,2.01-2.71,4.05-3.04,5.92-3.65.08-7.11,1.57-9.77,4.22-2.76,2.75-4.35,6.52-4.35,10.34,0,5.45,3.46,10.9,5.52,13.66.89,1.19,5.51,7.15,8.95,7.15s8.06-5.95,8.95-7.15c1.7-2.28,4.36-6.4,5.23-10.83.82.13,1.69.24,2.62.34,1.89.2,3.65.66,6.06,4.42,1.13,1.76,3.58,1.9,6.68,2.07.86.05,1.74.1,2.57.18,1.45.15,2.51.66,2.84,1.37.45.96-.09,2.7-1.49,4.77-1.63,2.43-.46,5.06.32,6.79.25.56.66,1.49.68,1.86-1.72,1.98-.59,4.62.41,6.96.38.88,1.26,2.95,1.04,3.45,0,0-.02.03-.09.07-.79.47-1.3.31-3.23-.99-1.85-1.25-4.64-3.13-8.03-1.1-2.57,1.54-1.69,4.11-1.26,5.35.38,1.1.59,1.81.24,2.52-.12.07-.47.18-.71.24-1.07.32-2.87.84-3.79,3.09-.85,2.06-.14,3.49.43,4.65.27.54.54,1.1.75,1.85.53,1.92.31,2.48-.16,3.72-.31.82-.7,1.85-.93,3.36-.27,1.83-.16,3.72-.06,5.39.26,4.33-.05,4.86-1.38,5.09-.03,0-.06,0-.08.01-.33-.42-.66-1.9-.86-2.81-.4-1.78-.85-3.79-1.99-5.4-1.02-1.45-3-3.1-6.62-2.67-.41.05-.89.16-1.49.3-1.4.33-4.3,1.02-5.49.21-.23-.16-.55-.47-.68-1.39-.25-1.84-2.01-2.23-2.59-2.36-.16-.03-.39-.09-.49-.13-.04-.08-.14-.38-.12-1.08.02-.79-.2-2.65-2.73-2.94-.04,0-.08,0-.11-.01-.05-.13-.12-.38-.17-.81-.14-1.14-.93-2.51-5.7-4.81-2.7-1.3-5.66-2.38-7.55-2.77-.8-.16-2.91-.6-3.87,1.05-.05.08-.09.15-.12.19-.61-.22-1.87-1.3-2.66-1.97-1.97-1.68-4.19-3.58-6.81-3.7-.51-.35-1.31-1.16-1.7-1.73,1.26-1.22.96-2.86.82-3.56.31-.08.84-.17,1.7-.22,2.87-.17,5.37-2.7,6.52-6.61.32-1.09-.3-2.24-1.4-2.57-1.1-.32-2.24.3-2.57,1.4-.61,2.06-1.78,3.59-2.8,3.65-2.63.16-4.12.7-4.99,1.83-.94,1.22-.67,2.57-.53,3.3,0,.02,0,.04.01.06-1,.83-1.36,2.13-.95,3.49.58,1.93,3.53,5.18,5.54,5.09.02,0,.04,0,.06,0,1.22,0,2.98,1.5,4.4,2.72,2,1.71,3.89,3.32,6.11,2.95.65-.11,1.51-.44,2.3-1.34.93.18,2.78.75,5.11,1.76,2.92,1.26,4.52,2.29,5.03,2.74.44,2.58,1.74,3.48,2.96,3.82.31,3.04,2.31,3.86,3.4,4.15.48,1.71,1.44,2.69,2.23,3.23,2.7,1.85,6.5.94,8.78.4.39-.09.84-.2,1.01-.22,2.54-.3,3.19.83,4.1,4.88.32,1.42.62,2.77,1.25,3.86.82,1.42,2.07,2.18,3.58,2.18.27,0,.54-.02.83-.07,2.38-.4,3.96-1.78,4.58-3.99.46-1.63.35-3.47.23-5.42-.09-1.54-.19-3.13.02-4.54.16-1.07.42-1.76.7-2.49.57-1.51,1.16-3.06.28-6.28-.31-1.13-.73-1.97-1.03-2.59-.45-.92-.45-.93-.32-1.25.15-.36.23-.43,1.14-.7.95-.28,2.38-.7,3.2-2.29,1.2-2.31.48-4.39.01-5.77-.07-.2-.15-.43-.21-.63.84-.36,1.55-.02,3.28,1.14,1.78,1.2,4.46,3.02,7.65,1.12.93-.55,2.45-1.9,2.07-4.65Z"/>
      <path class="cls-4" d="m139.73,54.58c-1.14,0-2.07-.93-2.07-2.07s.93-2.07,2.07-2.07,2.07.93,2.07,2.07-.93,2.07-2.07,2.07m0-8.27c-3.42,0-6.2,2.78-6.2,6.2s2.78,6.2,6.2,6.2,6.2-2.78,6.2-6.2-2.78-6.2-6.2-6.2"/>
      <path class="cls-2" d="m139.73,54.58c-1.14,0-2.07-.93-2.07-2.07s.93-2.07,2.07-2.07,2.07.93,2.07,2.07-.93,2.07-2.07,2.07Zm0-8.27c-3.42,0-6.2,2.78-6.2,6.2s2.78,6.2,6.2,6.2,6.2-2.78,6.2-6.2-2.78-6.2-6.2-6.2Z"/>
      <path class="cls-4" d="m112.68,69.75c1.14,0,2.07-.92,2.07-2.07h0c0-1.14-.93-2.07-2.07-2.07s-2.07.93-2.07,2.07.93,2.07,2.07,2.07"/>
      <path class="cls-2" d="m112.68,69.75c1.14,0,2.07-.92,2.07-2.07h0c0-1.14-.93-2.07-2.07-2.07s-2.07.93-2.07,2.07.93,2.07,2.07,2.07Z"/>
      <g>
        <path class="cls-4" d="m122.27,192.84h3.71v5.05h-3.71v7.1h-6.54v-7.1h-13.34l-.29-3.93,13.57-21.67h6.6v20.55Zm-14.06,0h7.53v-11.79l-.13-.04-.52.92-6.87,10.91Z"/>
        <path class="cls-4" d="m144.26,204.99h-6.56v-26.91h-6.65v-4.63l13.21-1.17v32.7Z"/>
        <path class="cls-4" d="m170.65,204.99h-6.56v-26.91h-6.65v-4.63l13.21-1.17v32.7Z"/>
      </g>
      <g>
        <path class="cls-4" d="m20.72,292.86h6.73v1.51h-8.65v-14.22h1.92v12.71Z"/>
        <path class="cls-4" d="m31.32,294.37h-1.92v-15.23h1.92v15.23Z"/>
        <path class="cls-4" d="m38.66,294.57c-1.47,0-2.64-.49-3.51-1.47s-1.3-2.25-1.3-3.81v-.43c0-1.5.45-2.76,1.34-3.75s1.96-1.5,3.18-1.5c1.43,0,2.5.43,3.23,1.29s1.09,2.01,1.09,3.44v1.2h-6.86l-.03.05c.02,1.01.28,1.85.77,2.5.5.65,1.19.98,2.08.98.65,0,1.22-.09,1.71-.28s.92-.44,1.27-.77l.75,1.25c-.38.37-.88.68-1.49.93s-1.37.37-2.25.37Zm-.29-9.45c-.64,0-1.19.27-1.65.81-.46.54-.74,1.22-.84,2.04l.02.05h4.87v-.25c0-.75-.2-1.38-.61-1.89-.4-.51-1-.76-1.8-.76Z"/>
        <path class="cls-4" d="m44.43,289.28c0-1.7.37-3.07,1.11-4.11s1.77-1.56,3.08-1.56c.67,0,1.26.14,1.77.41s.93.66,1.27,1.17l.23-1.38h1.53v10.62c0,1.35-.39,2.39-1.18,3.12s-1.92,1.09-3.41,1.09c-.51,0-1.06-.07-1.65-.21s-1.11-.33-1.56-.57l.49-1.49c.34.2.76.35,1.25.47s.97.18,1.45.18c.94,0,1.62-.21,2.05-.64s.64-1.08.64-1.95v-1.19c-.34.44-.76.78-1.24,1s-1.04.34-1.66.34c-1.3,0-2.31-.47-3.06-1.41s-1.11-2.16-1.11-3.68v-.21Zm1.92.21c0,1.06.22,1.91.67,2.56s1.13.97,2.05.97c.58,0,1.06-.13,1.46-.4s.71-.64.97-1.12v-4.86c-.25-.45-.57-.81-.97-1.07s-.88-.4-1.44-.4c-.92,0-1.6.38-2.06,1.15s-.68,1.75-.68,2.96v.21Z"/>
        <path class="cls-4" d="m62.71,294.37c-.07-.32-.12-.6-.15-.84s-.06-.49-.06-.74c-.36.51-.83.93-1.4,1.27s-1.2.51-1.86.51c-1.1,0-1.94-.28-2.51-.84s-.86-1.34-.86-2.33.41-1.8,1.23-2.37,1.93-.85,3.33-.85h2.09v-1.04c0-.62-.19-1.11-.57-1.47s-.91-.54-1.6-.54c-.62,0-1.12.16-1.51.47s-.58.69-.58,1.14h-1.84l-.02-.06c-.04-.77.32-1.47,1.09-2.11s1.75-.96,2.96-.96,2.16.3,2.89.91,1.09,1.49,1.09,2.63v5.09c0,.38.02.74.06,1.09s.11.7.21,1.04h-1.98Zm-3.19-1.42c.7,0,1.33-.18,1.88-.54s.92-.77,1.09-1.23v-1.71h-2.16c-.77,0-1.4.19-1.86.58-.46.39-.7.85-.7,1.37,0,.47.15.84.44,1.11.29.27.73.41,1.3.41Z"/>
        <path class="cls-4" d="m68.94,283.8l.14,1.39c.34-.5.78-.89,1.31-1.17s1.15-.42,1.85-.42,1.31.16,1.81.49.88.81,1.14,1.46c.33-.6.77-1.07,1.32-1.43s1.18-.53,1.91-.53c1.07,0,1.92.37,2.55,1.11s.94,1.85.94,3.33v6.32h-1.92v-6.34c0-1.04-.18-1.78-.54-2.21s-.89-.65-1.6-.65c-.66,0-1.19.23-1.6.68s-.65,1.03-.72,1.73v6.79h-1.93v-6.34c0-.99-.18-1.71-.55-2.17s-.9-.69-1.59-.69c-.59,0-1.07.12-1.45.36s-.67.58-.87,1.02v7.82h-1.92v-10.57h1.72Z"/>
        <path class="cls-4" d="m84.25,288.99c0-1.56.42-2.85,1.27-3.86s2-1.52,3.45-1.52,2.62.5,3.47,1.51,1.27,2.3,1.27,3.87v.21c0,1.58-.42,2.86-1.27,3.87s-2,1.5-3.46,1.5-2.61-.5-3.46-1.51-1.27-2.29-1.27-3.86v-.21Zm1.92.21c0,1.12.24,2.04.71,2.77s1.17,1.09,2.1,1.09,1.61-.36,2.09-1.09.71-1.65.71-2.77v-.21c0-1.1-.24-2.03-.72-2.76s-1.18-1.1-2.1-1.1-1.61.37-2.08,1.1-.71,1.66-.71,2.76v.21Z"/>
        <path class="cls-4" d="m102.21,291.56c0-.42-.16-.77-.48-1.04s-.93-.51-1.83-.71c-1.28-.28-2.25-.66-2.9-1.14-.65-.48-.97-1.13-.97-1.96s.36-1.59,1.09-2.19,1.68-.91,2.85-.91c1.23,0,2.21.32,2.93.95s1.07,1.4,1.04,2.3l-.02.06h-1.84c0-.46-.19-.88-.58-1.25s-.9-.55-1.54-.55c-.68,0-1.19.15-1.52.45s-.5.66-.5,1.08.15.75.44.99.89.46,1.79.64c1.33.29,2.33.68,2.98,1.17s.98,1.15.98,1.98c0,.94-.38,1.7-1.14,2.28s-1.75.87-2.97.87c-1.35,0-2.41-.34-3.18-1.03s-1.14-1.48-1.1-2.39l.02-.06h1.84c.03.68.29,1.18.76,1.49s1.03.47,1.67.47c.68,0,1.22-.14,1.61-.42s.58-.64.58-1.09Z"/>
        <path class="cls-4" d="m117.99,294.37c-.07-.32-.12-.6-.15-.84s-.06-.49-.06-.74c-.36.51-.83.93-1.4,1.27s-1.2.51-1.86.51c-1.1,0-1.94-.28-2.51-.84s-.86-1.34-.86-2.33.41-1.8,1.23-2.37,1.93-.85,3.33-.85h2.09v-1.04c0-.62-.19-1.11-.57-1.47s-.91-.54-1.6-.54c-.62,0-1.12.16-1.51.47s-.58.69-.58,1.14h-1.84l-.02-.06c-.04-.77.32-1.47,1.09-2.11s1.75-.96,2.96-.96,2.16.3,2.89.91,1.09,1.49,1.09,2.63v5.09c0,.38.02.74.06,1.09s.11.7.21,1.04h-1.98Zm-3.19-1.42c.7,0,1.33-.18,1.88-.54s.92-.77,1.09-1.23v-1.71h-2.16c-.77,0-1.4.19-1.86.58-.46.39-.7.85-.7,1.37,0,.47.15.84.44,1.11.29.27.73.41,1.3.41Z"/>
        <path class="cls-4" d="m129.85,286.37h1.68c.85,0,1.46-.21,1.81-.64s.53-1.02.53-1.78c0-.81-.2-1.43-.61-1.86s-1-.63-1.79-.63-1.35.22-1.8.66-.68,1.02-.68,1.75h-1.85l-.02-.06c-.03-1.07.36-1.99,1.17-2.74s1.87-1.13,3.18-1.13,2.36.35,3.14,1.05,1.17,1.7,1.17,2.99c0,.59-.18,1.17-.53,1.75s-.89,1.03-1.6,1.33c.85.28,1.46.72,1.81,1.32s.53,1.27.53,2.01c0,1.3-.42,2.31-1.27,3.06s-1.94,1.11-3.26,1.11-2.37-.35-3.22-1.05-1.26-1.65-1.23-2.85l.03-.06h1.84c0,.75.23,1.34.69,1.78.46.44,1.09.66,1.89.66s1.45-.22,1.91-.66.69-1.09.69-1.96-.21-1.52-.62-1.94-1.06-.62-1.94-.62h-1.68v-1.51Z"/>
        <path class="cls-4" d="m143.92,279.95c.49,0,.97.06,1.45.17s.87.25,1.19.42l-.41,1.47c-.32-.16-.65-.29-1-.4s-.76-.15-1.23-.15c-1.02,0-1.83.41-2.46,1.22s-.93,1.88-.93,3.18v.22c.42-.36.89-.65,1.43-.85s1.12-.31,1.73-.31c1.27,0,2.28.44,3.04,1.32s1.13,1.99,1.13,3.34c0,1.47-.4,2.67-1.21,3.6s-1.88,1.39-3.22,1.39-2.55-.5-3.46-1.51-1.37-2.43-1.37-4.27v-2.71c0-1.82.51-3.3,1.52-4.43s2.28-1.7,3.78-1.7Zm-.65,6.42c-.66,0-1.22.13-1.68.4s-.81.62-1.05,1.06v1.15c0,1.31.28,2.31.83,3.02s1.25,1.06,2.08,1.06c.79,0,1.4-.33,1.84-1s.66-1.49.66-2.48c0-.94-.24-1.71-.71-2.31-.47-.6-1.13-.91-1.97-.91Z"/>
        <path class="cls-4" d="m158.45,283.86c0,.74-.21,1.39-.62,1.95s-.98.97-1.69,1.25c.82.29,1.48.74,1.97,1.35s.74,1.32.74,2.12c0,1.31-.43,2.32-1.28,3.01s-1.97,1.04-3.33,1.04-2.51-.35-3.36-1.04-1.27-1.7-1.27-3.01c0-.8.24-1.51.72-2.12s1.13-1.06,1.95-1.35c-.71-.27-1.27-.69-1.67-1.25s-.61-1.21-.61-1.95c0-1.25.39-2.22,1.16-2.9s1.79-1.02,3.06-1.02,2.27.34,3.06,1.02,1.19,1.65,1.19,2.9Zm-1.52,6.62c0-.78-.26-1.42-.77-1.92s-1.17-.75-1.95-.75-1.45.25-1.95.75-.75,1.14-.75,1.92.25,1.44.74,1.9,1.15.69,1.97.69,1.45-.23,1.95-.69.75-1.09.75-1.89Zm-.4-6.58c0-.7-.22-1.29-.66-1.75s-.99-.69-1.67-.69-1.24.22-1.66.67-.63,1.04-.63,1.77.21,1.3.64,1.74.98.65,1.67.65,1.23-.22,1.66-.65.64-1.02.64-1.74Z"/>
        <path class="cls-4" d="m167.93,283.8l.14,1.39c.34-.5.78-.89,1.31-1.17s1.15-.42,1.85-.42,1.31.16,1.81.49.88.81,1.14,1.46c.33-.6.77-1.07,1.32-1.43s1.18-.53,1.91-.53c1.07,0,1.92.37,2.55,1.11s.94,1.85.94,3.33v6.32h-1.92v-6.34c0-1.04-.18-1.78-.54-2.21s-.89-.65-1.6-.65c-.66,0-1.19.23-1.6.68s-.65,1.03-.72,1.73v6.79h-1.93v-6.34c0-.99-.18-1.71-.55-2.17s-.9-.69-1.59-.69c-.59,0-1.07.12-1.45.36s-.67.58-.87,1.02v7.82h-1.92v-10.57h1.72Z"/>
        <path class="cls-4" d="m190.4,292.81c-.33.57-.76,1-1.28,1.31s-1.12.46-1.81.46c-1.15,0-2.05-.37-2.7-1.1s-.97-1.88-.97-3.44v-6.23h1.92v6.25c0,1.13.17,1.9.5,2.32s.85.63,1.55.63,1.25-.14,1.69-.42.78-.67,1.01-1.18v-7.62h1.92v10.57h-1.73l-.13-1.56Z"/>
        <path class="cls-4" d="m196.78,283.8l.14,1.57c.35-.56.79-.99,1.32-1.3s1.13-.46,1.81-.46c1.14,0,2.02.33,2.65,1s.94,1.7.94,3.09v6.67h-1.92v-6.63c0-.93-.18-1.59-.55-1.98s-.93-.59-1.68-.59c-.55,0-1.04.13-1.47.4s-.77.63-1.02,1.09v7.71h-1.92v-10.57h1.72Z"/>
        <path class="cls-4" d="m208.51,281.1h-1.92v-1.96h1.92v1.96Zm0,13.27h-1.92v-10.57h1.92v10.57Z"/>
        <path class="cls-4" d="m215.76,293.06c.64,0,1.2-.2,1.68-.59s.73-.88.73-1.45h1.73l.02.06c.03.91-.37,1.72-1.22,2.43s-1.82,1.06-2.94,1.06c-1.54,0-2.71-.5-3.53-1.5s-1.22-2.26-1.22-3.78v-.41c0-1.5.41-2.76,1.23-3.76s1.99-1.51,3.52-1.51c1.24,0,2.25.36,3.03,1.09s1.16,1.62,1.14,2.69l-.02.06h-1.74c0-.64-.23-1.19-.68-1.65s-1.03-.68-1.73-.68c-1.01,0-1.73.36-2.16,1.09s-.65,1.61-.65,2.67v.41c0,1.08.21,1.98.64,2.7.43.72,1.15,1.08,2.17,1.08Z"/>
        <path class="cls-4" d="m224.16,281.1h-1.92v-1.96h1.92v1.96Zm0,13.27h-1.92v-10.57h1.92v10.57Z"/>
        <path class="cls-4" d="m236.12,289.49c0,1.52-.36,2.75-1.09,3.69s-1.74,1.4-3.02,1.4c-.65,0-1.22-.11-1.71-.33s-.91-.55-1.25-.98v5.17h-1.92v-14.63h1.47l.3,1.37c.34-.51.77-.9,1.29-1.16s1.11-.4,1.8-.4c1.31,0,2.33.52,3.05,1.56s1.09,2.41,1.09,4.12v.21Zm-1.92-.21c0-1.2-.24-2.18-.71-2.95s-1.17-1.16-2.08-1.16c-.55,0-1.03.13-1.42.38-.39.25-.71.59-.95,1.03v5.1c.24.44.56.78.95,1.02s.87.37,1.44.37c.91,0,1.6-.33,2.07-1,.47-.67.7-1.53.7-2.58v-.2Z"/>
        <path class="cls-4" d="m240.57,281.1h-1.92v-1.96h1.92v1.96Zm0,13.27h-1.92v-10.57h1.92v10.57Z"/>
        <path class="cls-4" d="m243.08,288.99c0-1.56.42-2.85,1.27-3.86s2-1.52,3.45-1.52,2.62.5,3.47,1.51,1.27,2.3,1.27,3.87v.21c0,1.58-.42,2.86-1.27,3.87s-2,1.5-3.46,1.5-2.61-.5-3.46-1.51-1.27-2.29-1.27-3.86v-.21Zm1.92.21c0,1.12.24,2.04.71,2.77s1.17,1.09,2.1,1.09,1.61-.36,2.09-1.09.71-1.65.71-2.77v-.21c0-1.1-.24-2.03-.72-2.76s-1.18-1.1-2.1-1.1-1.61.37-2.08,1.1-.71,1.66-.71,2.76v.21Z"/>
        <path class="cls-4" d="m261.03,291.56c0-.42-.16-.77-.48-1.04s-.93-.51-1.83-.71c-1.28-.28-2.25-.66-2.9-1.14-.65-.48-.97-1.13-.97-1.96s.36-1.59,1.09-2.19,1.68-.91,2.85-.91c1.23,0,2.21.32,2.93.95s1.07,1.4,1.04,2.3l-.02.06h-1.84c0-.46-.19-.88-.58-1.25s-.9-.55-1.54-.55c-.68,0-1.19.15-1.52.45s-.5.66-.5,1.08.15.75.44.99.89.46,1.79.64c1.33.29,2.33.68,2.98,1.17s.98,1.15.98,1.98c0,.94-.38,1.7-1.14,2.28s-1.75.87-2.97.87c-1.35,0-2.41-.34-3.18-1.03s-1.14-1.48-1.1-2.39l.02-.06h1.84c.03.68.29,1.18.76,1.49s1.03.47,1.67.47c.68,0,1.22-.14,1.61-.42s.58-.64.58-1.09Z"/>
      </g>
      <g>
        <path class="cls-4" d="m30.95,222.8l.14,1.39c.34-.5.78-.89,1.31-1.17s1.15-.42,1.85-.42,1.31.16,1.81.49.88.81,1.14,1.46c.33-.6.77-1.07,1.32-1.43s1.18-.53,1.91-.53c1.07,0,1.92.37,2.55,1.11s.94,1.85.94,3.33v6.32h-1.92v-6.34c0-1.04-.18-1.78-.54-2.21s-.89-.65-1.6-.65c-.66,0-1.19.23-1.6.68s-.65,1.03-.72,1.73v6.79h-1.93v-6.34c0-.99-.18-1.71-.55-2.17s-.9-.69-1.59-.69c-.59,0-1.07.12-1.45.36s-.67.58-.87,1.02v7.82h-1.92v-10.57h1.72Z"/>
        <path class="cls-4" d="m53.43,231.81c-.33.57-.76,1-1.28,1.31s-1.12.46-1.81.46c-1.15,0-2.05-.37-2.7-1.1s-.97-1.88-.97-3.44v-6.23h1.92v6.25c0,1.13.17,1.9.5,2.32s.85.63,1.55.63,1.25-.14,1.69-.42.78-.67,1.01-1.18v-7.62h1.92v10.57h-1.73l-.13-1.56Z"/>
        <path class="cls-4" d="m59.8,222.8l.14,1.57c.35-.56.79-.99,1.32-1.3s1.13-.46,1.81-.46c1.14,0,2.02.33,2.65,1s.94,1.7.94,3.09v6.67h-1.92v-6.63c0-.93-.18-1.59-.55-1.98s-.93-.59-1.68-.59c-.55,0-1.04.13-1.47.4s-.77.63-1.02,1.09v7.71h-1.92v-10.57h1.72Z"/>
        <path class="cls-4" d="m71.53,220.1h-1.92v-1.96h1.92v1.96Zm0,13.27h-1.92v-10.57h1.92v10.57Z"/>
        <path class="cls-4" d="m78.79,232.06c.64,0,1.2-.2,1.68-.59s.73-.88.73-1.45h1.73l.02.06c.03.91-.37,1.72-1.22,2.43s-1.82,1.06-2.94,1.06c-1.54,0-2.71-.5-3.53-1.5s-1.22-2.26-1.22-3.78v-.41c0-1.5.41-2.76,1.23-3.76s1.99-1.51,3.52-1.51c1.24,0,2.25.36,3.03,1.09s1.16,1.62,1.14,2.69l-.02.06h-1.74c0-.64-.23-1.19-.68-1.65s-1.03-.68-1.73-.68c-1.01,0-1.73.36-2.16,1.09s-.65,1.61-.65,2.67v.41c0,1.08.21,1.98.64,2.7.43.72,1.15,1.08,2.17,1.08Z"/>
        <path class="cls-4" d="m87.19,220.1h-1.92v-1.96h1.92v1.96Zm0,13.27h-1.92v-10.57h1.92v10.57Z"/>
        <path class="cls-4" d="m99.15,228.49c0,1.52-.36,2.75-1.09,3.69s-1.74,1.4-3.02,1.4c-.65,0-1.22-.11-1.71-.33s-.91-.55-1.25-.98v5.17h-1.92v-14.63h1.47l.3,1.37c.34-.51.77-.9,1.29-1.16s1.11-.4,1.8-.4c1.31,0,2.33.52,3.05,1.56s1.09,2.41,1.09,4.12v.21Zm-1.92-.21c0-1.2-.24-2.18-.71-2.95s-1.17-1.16-2.08-1.16c-.55,0-1.03.13-1.42.38-.39.25-.71.59-.95,1.03v5.1c.24.44.56.78.95,1.02s.87.37,1.44.37c.91,0,1.6-.33,2.07-1,.47-.67.7-1.53.7-2.58v-.2Z"/>
        <path class="cls-4" d="m103.59,220.1h-1.92v-1.96h1.92v1.96Zm0,13.27h-1.92v-10.57h1.92v10.57Z"/>
        <path class="cls-4" d="m106.1,227.99c0-1.56.42-2.85,1.27-3.86s2-1.52,3.45-1.52,2.62.5,3.47,1.51,1.27,2.3,1.27,3.87v.21c0,1.58-.42,2.86-1.27,3.87s-2,1.5-3.46,1.5-2.61-.5-3.46-1.51-1.27-2.29-1.27-3.86v-.21Zm1.92.21c0,1.12.24,2.04.71,2.77s1.17,1.09,2.1,1.09,1.61-.36,2.09-1.09.71-1.65.71-2.77v-.21c0-1.1-.24-2.03-.72-2.76s-1.18-1.1-2.1-1.1-1.61.37-2.08,1.1-.71,1.66-.71,2.76v.21Z"/>
        <path class="cls-4" d="m124.06,230.56c0-.42-.16-.77-.48-1.04s-.93-.51-1.83-.71c-1.28-.28-2.25-.66-2.9-1.14-.65-.48-.97-1.13-.97-1.96s.36-1.59,1.09-2.19,1.68-.91,2.85-.91c1.23,0,2.21.32,2.93.95s1.07,1.4,1.04,2.3l-.02.06h-1.84c0-.46-.19-.88-.58-1.25s-.9-.55-1.54-.55c-.68,0-1.19.15-1.52.45s-.5.66-.5,1.08.15.75.44.99.89.46,1.79.64c1.33.29,2.33.68,2.98,1.17s.98,1.15.98,1.98c0,.94-.38,1.7-1.14,2.28s-1.75.87-2.97.87c-1.35,0-2.41-.34-3.18-1.03s-1.14-1.48-1.1-2.39l.02-.06h1.84c.03.68.29,1.18.76,1.49s1.03.47,1.67.47c.68,0,1.22-.14,1.61-.42s.58-.64.58-1.09Z"/>
        <path class="cls-4" d="m142.37,228.49c0,1.52-.37,2.75-1.1,3.69s-1.74,1.4-3.02,1.4c-.7,0-1.3-.14-1.82-.41s-.94-.67-1.28-1.2l-.23,1.4h-1.57v-15.23h1.92v5.92c.33-.47.74-.83,1.24-1.07s1.07-.37,1.72-.37c1.3,0,2.32.52,3.05,1.56s1.09,2.41,1.09,4.11v.21Zm-1.92-.21c0-1.21-.22-2.2-.67-2.96s-1.12-1.15-2.04-1.15c-.59,0-1.09.15-1.5.43s-.73.68-.97,1.17v4.58c.25.52.57.93.97,1.22s.91.44,1.52.44c.91,0,1.58-.32,2.02-.97s.66-1.5.66-2.56v-.21Z"/>
        <path class="cls-4" d="m149.1,233.57c-1.47,0-2.64-.49-3.51-1.47s-1.3-2.25-1.3-3.81v-.43c0-1.5.45-2.76,1.34-3.75s1.96-1.5,3.18-1.5c1.43,0,2.5.43,3.23,1.29s1.09,2.01,1.09,3.44v1.2h-6.86l-.03.05c.02,1.01.28,1.85.77,2.5.5.65,1.19.98,2.08.98.65,0,1.22-.09,1.71-.28s.92-.44,1.27-.77l.75,1.25c-.38.37-.88.68-1.49.93s-1.37.37-2.25.37Zm-.29-9.45c-.64,0-1.19.27-1.65.81-.46.54-.74,1.22-.84,2.04l.02.05h4.87v-.25c0-.75-.2-1.38-.61-1.89-.4-.51-1-.76-1.8-.76Z"/>
        <path class="cls-4" d="m157.01,222.8l.14,1.57c.35-.56.79-.99,1.32-1.3s1.13-.46,1.81-.46c1.14,0,2.02.33,2.65,1s.94,1.7.94,3.09v6.67h-1.92v-6.63c0-.93-.18-1.59-.55-1.98s-.93-.59-1.68-.59c-.55,0-1.04.13-1.47.4s-.77.63-1.02,1.09v7.71h-1.92v-10.57h1.72Z"/>
        <path class="cls-4" d="m171.04,233.57c-1.47,0-2.64-.49-3.51-1.47s-1.3-2.25-1.3-3.81v-.43c0-1.5.45-2.76,1.34-3.75s1.96-1.5,3.18-1.5c1.43,0,2.5.43,3.23,1.29s1.09,2.01,1.09,3.44v1.2h-6.86l-.03.05c.02,1.01.28,1.85.77,2.5.5.65,1.19.98,2.08.98.65,0,1.22-.09,1.71-.28s.92-.44,1.27-.77l.75,1.25c-.38.37-.88.68-1.49.93s-1.37.37-2.25.37Zm-.29-9.45c-.64,0-1.19.27-1.65.81-.46.54-.74,1.22-.84,2.04l.02.05h4.87v-.25c0-.75-.2-1.38-.61-1.89-.4-.51-1-.76-1.8-.76Z"/>
        <path class="cls-4" d="m178.03,233.37v-9.14h-1.65v-1.43h1.65v-1.34c0-1.13.29-2,.88-2.61s1.41-.92,2.47-.92c.22,0,.44.02.67.05s.47.09.75.15l-.23,1.46c-.12-.03-.26-.05-.42-.07s-.34-.03-.52-.03c-.56,0-.98.17-1.25.5s-.41.82-.41,1.46v1.34h2.2v1.43h-2.2v9.14h-1.92Z"/>
        <path class="cls-4" d="m186.22,220.1h-1.92v-1.96h1.92v1.96Zm0,13.27h-1.92v-10.57h1.92v10.57Z"/>
        <path class="cls-4" d="m193.47,232.06c.64,0,1.2-.2,1.68-.59s.73-.88.73-1.45h1.73l.02.06c.03.91-.37,1.72-1.22,2.43s-1.82,1.06-2.94,1.06c-1.54,0-2.71-.5-3.53-1.5s-1.22-2.26-1.22-3.78v-.41c0-1.5.41-2.76,1.23-3.76s1.99-1.51,3.52-1.51c1.24,0,2.25.36,3.03,1.09s1.16,1.62,1.14,2.69l-.02.06h-1.74c0-.64-.23-1.19-.68-1.65s-1.03-.68-1.73-.68c-1.01,0-1.73.36-2.16,1.09s-.65,1.61-.65,2.67v.41c0,1.08.21,1.98.64,2.7.43.72,1.15,1.08,2.17,1.08Z"/>
        <path class="cls-4" d="m201.87,220.1h-1.92v-1.96h1.92v1.96Zm0,13.27h-1.92v-10.57h1.92v10.57Z"/>
        <path class="cls-4" d="m211.33,233.37c-.07-.32-.12-.6-.15-.84s-.06-.49-.06-.74c-.36.51-.83.93-1.4,1.27s-1.2.51-1.86.51c-1.1,0-1.94-.28-2.51-.84s-.86-1.34-.86-2.33.41-1.8,1.23-2.37,1.93-.85,3.33-.85h2.09v-1.04c0-.62-.19-1.11-.57-1.47s-.91-.54-1.6-.54c-.62,0-1.12.16-1.51.47s-.58.69-.58,1.14h-1.84l-.02-.06c-.04-.77.32-1.47,1.09-2.11s1.75-.96,2.96-.96,2.16.3,2.89.91,1.09,1.49,1.09,2.63v5.09c0,.38.02.74.06,1.09s.11.7.21,1.04h-1.98Zm-3.19-1.42c.7,0,1.33-.18,1.88-.54s.92-.77,1.09-1.23v-1.71h-2.16c-.77,0-1.4.19-1.86.58-.46.39-.7.85-.7,1.37,0,.47.15.84.44,1.11.29.27.73.41,1.3.41Z"/>
        <path class="cls-4" d="m215.39,228.28c0-1.7.36-3.07,1.09-4.11s1.74-1.56,3.05-1.56c.62,0,1.17.11,1.65.34s.89.56,1.23,1v-5.81h1.92v15.23h-1.57l-.22-1.3c-.34.49-.77.87-1.27,1.12s-1.08.38-1.75.38c-1.29,0-2.3-.47-3.03-1.4s-1.09-2.16-1.09-3.69v-.21Zm1.92.21c0,1.07.22,1.92.65,2.56s1.11.96,2.03.96c.57,0,1.05-.13,1.45-.39s.71-.62.96-1.09v-4.93c-.25-.44-.57-.78-.96-1.04s-.87-.39-1.42-.39c-.92,0-1.61.38-2.05,1.14s-.66,1.75-.66,2.97v.21Z"/>
        <path class="cls-4" d="m226.75,227.99c0-1.56.42-2.85,1.27-3.86s2-1.52,3.45-1.52,2.62.5,3.47,1.51,1.27,2.3,1.27,3.87v.21c0,1.58-.42,2.86-1.27,3.87s-2,1.5-3.46,1.5-2.61-.5-3.46-1.51-1.27-2.29-1.27-3.86v-.21Zm1.92.21c0,1.12.24,2.04.71,2.77s1.17,1.09,2.1,1.09,1.61-.36,2.09-1.09.71-1.65.71-2.77v-.21c0-1.1-.24-2.03-.72-2.76s-1.18-1.1-2.1-1.1-1.61.37-2.08,1.1-.71,1.66-.71,2.76v.21Z"/>
        <path class="cls-4" d="m244.7,230.56c0-.42-.16-.77-.48-1.04s-.93-.51-1.83-.71c-1.28-.28-2.25-.66-2.9-1.14-.65-.48-.97-1.13-.97-1.96s.36-1.59,1.09-2.19,1.68-.91,2.85-.91c1.23,0,2.21.32,2.93.95s1.07,1.4,1.04,2.3l-.02.06h-1.84c0-.46-.19-.88-.58-1.25s-.9-.55-1.54-.55c-.68,0-1.19.15-1.52.45s-.5.66-.5,1.08.15.75.44.99.89.46,1.79.64c1.33.29,2.33.68,2.98,1.17s.98,1.15.98,1.98c0,.94-.38,1.7-1.14,2.28s-1.75.87-2.97.87c-1.35,0-2.41-.34-3.18-1.03s-1.14-1.48-1.1-2.39l.02-.06h1.84c.03.68.29,1.18.76,1.49s1.03.47,1.67.47c.68,0,1.22-.14,1.61-.42s.58-.64.58-1.09Z"/>
        <path class="cls-4" d="m251.12,233.37h-1.92v-1.99h1.92v1.99Z"/>
      </g>
      <g>
        <path class="cls-4" d="m46.58,315.28c0-1.7.36-3.07,1.09-4.11s1.74-1.56,3.05-1.56c.62,0,1.17.11,1.65.34s.89.56,1.23,1v-5.81h1.92v15.23h-1.57l-.22-1.3c-.34.49-.77.87-1.27,1.12s-1.08.38-1.75.38c-1.29,0-2.3-.47-3.03-1.4s-1.09-2.16-1.09-3.69v-.21Zm1.92.21c0,1.07.22,1.92.65,2.56s1.11.96,2.03.96c.57,0,1.05-.13,1.45-.39s.71-.62.96-1.09v-4.93c-.25-.44-.57-.78-.96-1.04s-.87-.39-1.42-.39c-.92,0-1.61.38-2.05,1.14s-.66,1.75-.66,2.97v.21Z"/>
        <path class="cls-4" d="m62.77,320.57c-1.47,0-2.64-.49-3.51-1.47s-1.3-2.25-1.3-3.81v-.43c0-1.5.45-2.76,1.34-3.75s1.96-1.5,3.18-1.5c1.43,0,2.5.43,3.23,1.29s1.09,2.01,1.09,3.44v1.2h-6.86l-.03.05c.02,1.01.28,1.85.77,2.5.5.65,1.19.98,2.08.98.65,0,1.22-.09,1.71-.28s.92-.44,1.27-.77l.75,1.25c-.38.37-.88.68-1.49.93s-1.37.37-2.25.37Zm-.29-9.45c-.64,0-1.19.27-1.65.81-.46.54-.74,1.22-.84,2.04l.02.05h4.87v-.25c0-.75-.2-1.38-.61-1.89-.4-.51-1-.76-1.8-.76Z"/>
        <path class="cls-4" d="m78.23,319.06c.64,0,1.2-.2,1.68-.59s.73-.88.73-1.45h1.73l.02.06c.03.91-.37,1.72-1.22,2.43s-1.82,1.06-2.94,1.06c-1.54,0-2.71-.5-3.53-1.5s-1.22-2.26-1.22-3.78v-.41c0-1.5.41-2.76,1.23-3.76s1.99-1.51,3.52-1.51c1.24,0,2.25.36,3.03,1.09s1.16,1.62,1.14,2.69l-.02.06h-1.74c0-.64-.23-1.19-.68-1.65s-1.03-.68-1.73-.68c-1.01,0-1.73.36-2.16,1.09s-.65,1.61-.65,2.67v.41c0,1.08.21,1.98.64,2.7.43.72,1.15,1.08,2.17,1.08Z"/>
        <path class="cls-4" d="m91.04,320.37c-.07-.32-.12-.6-.15-.84s-.06-.49-.06-.74c-.36.51-.83.93-1.4,1.27s-1.2.51-1.86.51c-1.1,0-1.94-.28-2.51-.84s-.86-1.34-.86-2.33.41-1.8,1.23-2.37,1.93-.85,3.33-.85h2.09v-1.04c0-.62-.19-1.11-.57-1.47s-.91-.54-1.6-.54c-.62,0-1.12.16-1.51.47s-.58.69-.58,1.14h-1.84l-.02-.06c-.04-.77.32-1.47,1.09-2.11s1.75-.96,2.96-.96,2.16.3,2.89.91,1.09,1.49,1.09,2.63v5.09c0,.38.02.74.06,1.09s.11.7.21,1.04h-1.98Zm-3.19-1.42c.7,0,1.33-.18,1.88-.54s.92-.77,1.09-1.23v-1.71h-2.16c-.77,0-1.4.19-1.86.58-.46.39-.7.85-.7,1.37,0,.47.15.84.44,1.11.29.27.73.41,1.3.41Z"/>
        <path class="cls-4" d="m98.08,307.25v2.55h2v1.43h-2v6.42c0,.49.1.84.31,1.04s.48.3.82.3c.11,0,.23-.01.37-.04s.25-.06.36-.1l.25,1.32c-.14.12-.35.21-.63.29s-.55.11-.83.11c-.78,0-1.4-.24-1.87-.71s-.69-1.21-.69-2.22v-6.42h-1.68v-1.43h1.68v-2.55h1.92Z"/>
        <path class="cls-4" d="m106.84,320.57c-1.47,0-2.64-.49-3.51-1.47s-1.3-2.25-1.3-3.81v-.43c0-1.5.45-2.76,1.34-3.75s1.96-1.5,3.18-1.5c1.43,0,2.5.43,3.23,1.29s1.09,2.01,1.09,3.44v1.2h-6.86l-.03.05c.02,1.01.28,1.85.77,2.5.5.65,1.19.98,2.08.98.65,0,1.22-.09,1.71-.28s.92-.44,1.27-.77l.75,1.25c-.38.37-.88.68-1.49.93s-1.37.37-2.25.37Zm-.29-9.45c-.64,0-1.19.27-1.65.81-.46.54-.74,1.22-.84,2.04l.02.05h4.87v-.25c0-.75-.2-1.38-.61-1.89-.4-.51-1-.76-1.8-.76Z"/>
        <path class="cls-4" d="m112.61,315.28c0-1.7.37-3.07,1.11-4.11s1.77-1.56,3.08-1.56c.67,0,1.26.14,1.77.41s.93.66,1.27,1.17l.23-1.38h1.53v10.62c0,1.35-.39,2.39-1.18,3.12s-1.92,1.09-3.41,1.09c-.51,0-1.06-.07-1.65-.21s-1.11-.33-1.56-.57l.49-1.49c.34.2.76.35,1.25.47s.97.18,1.45.18c.94,0,1.62-.21,2.05-.64s.64-1.08.64-1.95v-1.19c-.34.44-.76.78-1.24,1s-1.04.34-1.66.34c-1.3,0-2.31-.47-3.06-1.41s-1.11-2.16-1.11-3.68v-.21Zm1.92.21c0,1.06.22,1.91.67,2.56s1.13.97,2.05.97c.58,0,1.06-.13,1.46-.4s.71-.64.97-1.12v-4.86c-.25-.45-.57-.81-.97-1.07s-.88-.4-1.44-.4c-.92,0-1.6.38-2.06,1.15s-.68,1.75-.68,2.96v.21Z"/>
        <path class="cls-4" d="m123.95,314.99c0-1.56.42-2.85,1.27-3.86s2-1.52,3.45-1.52,2.62.5,3.47,1.51,1.27,2.3,1.27,3.87v.21c0,1.58-.42,2.86-1.27,3.87s-2,1.5-3.46,1.5-2.61-.5-3.46-1.51-1.27-2.29-1.27-3.86v-.21Zm1.92.21c0,1.12.24,2.04.71,2.77s1.17,1.09,2.1,1.09,1.61-.36,2.09-1.09.71-1.65.71-2.77v-.21c0-1.1-.24-2.03-.72-2.76s-1.18-1.1-2.1-1.1-1.61.37-2.08,1.1-.71,1.66-.71,2.76v.21Z"/>
        <path class="cls-4" d="m140.77,311.5l-.99-.06c-.51,0-.94.12-1.28.36s-.62.58-.81,1.02v7.55h-1.92v-10.57h1.72l.19,1.54c.3-.55.67-.97,1.11-1.28s.95-.46,1.52-.46c.14,0,.28.01.41.03s.24.05.32.07l-.26,1.79Z"/>
        <path class="cls-4" d="m144.64,320.37h-1.92v-10.57h1.92v10.57Zm-.03-14.44h2.25l.02.06-2.64,2.54h-1.44l1.81-2.6Z"/>
        <path class="cls-4" d="m154.15,320.37c-.07-.32-.12-.6-.15-.84s-.06-.49-.06-.74c-.36.51-.83.93-1.4,1.27s-1.2.51-1.86.51c-1.1,0-1.94-.28-2.51-.84s-.86-1.34-.86-2.33.41-1.8,1.23-2.37,1.93-.85,3.33-.85h2.09v-1.04c0-.62-.19-1.11-.57-1.47s-.91-.54-1.6-.54c-.62,0-1.12.16-1.51.47s-.58.69-.58,1.14h-1.84l-.02-.06c-.04-.77.32-1.47,1.09-2.11s1.75-.96,2.96-.96,2.16.3,2.89.91,1.09,1.49,1.09,2.63v5.09c0,.38.02.74.06,1.09s.11.7.21,1.04h-1.98Zm-3.19-1.42c.7,0,1.33-.18,1.88-.54s.92-.77,1.09-1.23v-1.71h-2.16c-.77,0-1.4.19-1.86.58-.46.39-.7.85-.7,1.37,0,.47.15.84.44,1.11.29.27.73.41,1.3.41Z"/>
        <path class="cls-4" d="m164.79,317.56c0-.42-.16-.77-.48-1.04s-.93-.51-1.83-.71c-1.28-.28-2.25-.66-2.9-1.14-.65-.48-.97-1.13-.97-1.96s.36-1.59,1.09-2.19,1.68-.91,2.85-.91c1.23,0,2.21.32,2.93.95s1.07,1.4,1.04,2.3l-.02.06h-1.84c0-.46-.19-.88-.58-1.25s-.9-.55-1.54-.55c-.68,0-1.19.15-1.52.45s-.5.66-.5,1.08.15.75.44.99.89.46,1.79.64c1.33.29,2.33.68,2.98,1.17s.98,1.15.98,1.98c0,.94-.38,1.7-1.14,2.28s-1.75.87-2.97.87c-1.35,0-2.41-.34-3.18-1.03s-1.14-1.48-1.1-2.39l.02-.06h1.84c.03.68.29,1.18.76,1.49s1.03.47,1.67.47c.68,0,1.22-.14,1.61-.42s.58-.64.58-1.09Z"/>
        <path class="cls-4" d="m181.52,315.58h1.96v1.51h-1.96v3.27h-1.91v-3.27h-6.39v-1.08l6.27-9.86h2.03v9.43Zm-6.25,0h4.34v-6.67h-.06s-.19.48-.19.48l-4.09,6.19Z"/>
        <path class="cls-4" d="m187.02,319.9l-1.46,2.99h-1.14l.68-3.09v-1.59h1.92v1.69Z"/>
        <path class="cls-4" d="m194.57,313.95l.82-7.8h7.12v1.71h-5.49l-.47,3.99c.3-.22.63-.41,1-.55s.79-.23,1.27-.24c1.31-.01,2.34.41,3.09,1.28s1.13,2.03,1.13,3.5-.38,2.57-1.15,3.44-1.88,1.3-3.34,1.3c-1.2,0-2.21-.33-3.01-.99s-1.18-1.62-1.15-2.9l.02-.06h1.74c0,.77.22,1.37.67,1.79.45.42,1.02.64,1.73.64.81,0,1.45-.29,1.89-.86.45-.57.67-1.36.67-2.35,0-.91-.23-1.66-.68-2.24s-1.08-.88-1.88-.88c-.75,0-1.3.11-1.64.34s-.59.58-.74,1.04l-1.6-.17Z"/>
        <path class="cls-4" d="m213.72,316.45l.34,1.33h.06l2.6-7.98h2.14l-4.44,12.19c-.27.71-.65,1.33-1.15,1.86s-1.17.79-2.02.79c-.16,0-.35-.02-.6-.05s-.43-.07-.56-.1l.2-1.51s.08,0,.35.02.44.03.51.03c.41,0,.75-.18,1.01-.55s.48-.77.65-1.21l.46-1.1-3.93-10.35h2.15l2.23,6.65Z"/>
        <path class="cls-4" d="m230.71,305.95c.49,0,.97.06,1.45.17s.87.25,1.19.42l-.41,1.47c-.32-.16-.65-.29-1-.4s-.76-.15-1.23-.15c-1.02,0-1.83.41-2.46,1.22s-.93,1.88-.93,3.18v.22c.42-.36.89-.65,1.43-.85s1.12-.31,1.73-.31c1.27,0,2.28.44,3.04,1.32s1.13,1.99,1.13,3.34c0,1.47-.4,2.67-1.21,3.6s-1.88,1.39-3.22,1.39-2.55-.5-3.46-1.51-1.37-2.43-1.37-4.27v-2.71c0-1.82.51-3.3,1.52-4.43s2.28-1.7,3.78-1.7Zm-.65,6.42c-.66,0-1.22.13-1.68.4s-.81.62-1.05,1.06v1.15c0,1.31.28,2.31.83,3.02s1.25,1.06,2.08,1.06c.79,0,1.4-.33,1.84-1s.66-1.49.66-2.48c0-.94-.24-1.71-.71-2.31-.47-.6-1.13-.91-1.97-.91Z"/>
      </g>
      <g>
        <path class="cls-4" d="m99.15,346.37c-.06-.32-.12-.6-.15-.84s-.06-.49-.06-.74c-.36.51-.83.93-1.4,1.27s-1.2.51-1.86.51c-1.1,0-1.94-.28-2.51-.84s-.86-1.34-.86-2.33.41-1.8,1.23-2.37,1.92-.85,3.33-.85h2.09v-1.04c0-.62-.19-1.11-.57-1.47s-.91-.54-1.6-.54c-.62,0-1.12.16-1.51.47s-.58.69-.58,1.14h-1.84l-.02-.06c-.04-.77.32-1.47,1.09-2.11s1.75-.96,2.96-.96,2.16.3,2.89.91,1.09,1.49,1.09,2.63v5.09c0,.38.02.74.06,1.09s.11.7.21,1.04h-1.98Zm-3.19-1.42c.7,0,1.32-.18,1.88-.54s.92-.77,1.09-1.23v-1.71h-2.16c-.78,0-1.39.19-1.86.58-.47.39-.7.85-.7,1.37,0,.47.15.84.44,1.11.29.27.73.41,1.3.41Z"/>
        <path class="cls-4" d="m111.16,333.25v2.55h2v1.43h-2v6.42c0,.49.1.84.31,1.04s.48.3.82.3c.11,0,.23-.01.37-.04s.25-.06.36-.1l.25,1.32c-.14.12-.35.21-.63.29s-.56.11-.83.11c-.78,0-1.4-.24-1.87-.71s-.69-1.21-.69-2.22v-6.42h-1.68v-1.43h1.68v-2.55h1.92Z"/>
        <path class="cls-4" d="m120.54,337.5l-.99-.06c-.51,0-.94.12-1.28.36s-.62.58-.81,1.02v7.55h-1.92v-10.57h1.72l.19,1.54c.3-.55.67-.97,1.11-1.28s.95-.46,1.52-.46c.14,0,.28.01.41.03s.24.05.32.07l-.26,1.79Z"/>
        <path class="cls-4" d="m128.89,346.37c-.06-.32-.12-.6-.15-.84s-.06-.49-.06-.74c-.36.51-.83.93-1.4,1.27s-1.2.51-1.86.51c-1.1,0-1.94-.28-2.51-.84s-.86-1.34-.86-2.33.41-1.8,1.23-2.37,1.92-.85,3.33-.85h2.09v-1.04c0-.62-.19-1.11-.57-1.47s-.91-.54-1.6-.54c-.62,0-1.12.16-1.51.47s-.58.69-.58,1.14h-1.84l-.02-.06c-.04-.77.32-1.47,1.09-2.11s1.75-.96,2.96-.96,2.16.3,2.89.91,1.09,1.49,1.09,2.63v5.09c0,.38.02.74.06,1.09s.11.7.21,1.04h-1.98Zm-3.19-1.42c.7,0,1.32-.18,1.88-.54s.92-.77,1.09-1.23v-1.71h-2.16c-.78,0-1.39.19-1.86.58-.47.39-.7.85-.7,1.37,0,.47.15.84.44,1.11.29.27.73.41,1.3.41Z"/>
        <path class="cls-4" d="m136.75,343.25l.17.74h.06l.19-.74,2.43-7.45h1.96l-3.89,10.57h-1.46l-3.94-10.57h1.97l2.5,7.45Z"/>
        <path class="cls-4" d="m147.55,346.57c-1.47,0-2.64-.49-3.51-1.47s-1.3-2.25-1.3-3.81v-.43c0-1.5.45-2.76,1.34-3.75.9-1,1.96-1.5,3.18-1.5,1.43,0,2.5.43,3.23,1.29.73.86,1.09,2.01,1.09,3.44v1.2h-6.86l-.03.05c.02,1.01.28,1.85.77,2.5.49.65,1.19.98,2.08.98.65,0,1.22-.09,1.71-.28.49-.19.92-.44,1.28-.77l.75,1.25c-.38.37-.88.68-1.49.93-.62.25-1.37.37-2.25.37Zm-.29-9.45c-.64,0-1.2.27-1.65.81-.46.54-.74,1.22-.84,2.04l.02.05h4.87v-.25c0-.75-.2-1.38-.61-1.89-.4-.51-1-.76-1.8-.76Zm.89-5.41h2.25l.02.06-2.64,2.54h-1.44l1.81-2.6Z"/>
        <path class="cls-4" d="m159.89,343.56c0-.42-.16-.77-.48-1.04s-.93-.51-1.83-.71c-1.28-.28-2.25-.66-2.9-1.14-.65-.48-.97-1.13-.97-1.96s.36-1.59,1.09-2.19c.73-.6,1.68-.91,2.85-.91,1.23,0,2.21.32,2.93.95.73.63,1.07,1.4,1.04,2.3l-.02.06h-1.84c0-.46-.19-.88-.58-1.25-.39-.37-.9-.55-1.54-.55-.68,0-1.19.15-1.52.45s-.5.66-.5,1.08.15.75.44.99.89.46,1.79.64c1.33.29,2.33.68,2.98,1.17.65.49.98,1.15.98,1.98,0,.94-.38,1.7-1.14,2.28-.76.58-1.75.87-2.97.87-1.35,0-2.41-.34-3.18-1.03-.78-.68-1.14-1.48-1.1-2.39l.02-.06h1.84c.03.68.29,1.18.76,1.49.47.31,1.03.47,1.67.47.68,0,1.22-.14,1.61-.42.39-.28.58-.64.58-1.09Z"/>
        <path class="cls-4" d="m168.74,341.28c0-1.7.36-3.07,1.09-4.11.73-1.04,1.74-1.56,3.05-1.56.62,0,1.17.11,1.64.34s.89.56,1.23,1v-5.81h1.92v15.23h-1.57l-.22-1.3c-.35.49-.77.87-1.27,1.12-.5.25-1.08.38-1.75.38-1.29,0-2.3-.47-3.03-1.4-.73-.93-1.09-2.16-1.09-3.69v-.21Zm1.92.21c0,1.07.22,1.92.65,2.56.44.64,1.11.96,2.03.96.57,0,1.05-.13,1.45-.39s.71-.62.96-1.09v-4.93c-.25-.44-.57-.78-.96-1.04-.39-.26-.87-.39-1.42-.39-.92,0-1.61.38-2.05,1.14s-.66,1.75-.66,2.97v.21Z"/>
        <path class="cls-4" d="m184.93,346.57c-1.47,0-2.64-.49-3.51-1.47s-1.3-2.25-1.3-3.81v-.43c0-1.5.45-2.76,1.34-3.75.9-1,1.96-1.5,3.18-1.5,1.43,0,2.5.43,3.23,1.29.73.86,1.09,2.01,1.09,3.44v1.2h-6.86l-.03.05c.02,1.01.28,1.85.77,2.5.49.65,1.19.98,2.08.98.65,0,1.22-.09,1.71-.28.49-.19.92-.44,1.28-.77l.75,1.25c-.38.37-.88.68-1.49.93-.62.25-1.37.37-2.25.37Zm-.29-9.45c-.64,0-1.2.27-1.65.81-.46.54-.74,1.22-.84,2.04l.02.05h4.87v-.25c0-.75-.2-1.38-.61-1.89-.4-.51-1-.76-1.8-.76Z"/>
      </g>
      <g>
        <path class="cls-4" d="m69.02,373.89l1.89-18.22h18.24v5.26h-12.87l-.9,7.55c.6-.45,1.32-.82,2.18-1.11s1.8-.45,2.83-.46c3.14-.04,5.58.91,7.31,2.85,1.73,1.95,2.59,4.66,2.59,8.13,0,3.14-.95,5.76-2.84,7.84-1.89,2.08-4.62,3.12-8.19,3.12-3.01,0-5.58-.82-7.73-2.47-2.14-1.65-3.17-3.91-3.1-6.78l.04-.11,6.31-.31c0,1.45.41,2.59,1.23,3.4.82.82,1.9,1.22,3.23,1.22,1.53,0,2.65-.54,3.38-1.63.73-1.08,1.09-2.5,1.09-4.25,0-1.88-.39-3.39-1.17-4.53-.78-1.14-1.93-1.7-3.46-1.7-1.26,0-2.22.23-2.89.7-.67.46-1.14,1.09-1.43,1.89l-5.77-.38Z"/>
        <path class="cls-4" d="m113.81,376.22h3.71v5.05h-3.71v7.1h-6.54v-7.1h-13.34l-.29-3.93,13.57-21.67h6.6v20.55Zm-14.06,0h7.53v-11.79l-.13-.04-.52.92-6.87,10.91Z"/>
      </g>
      <g>
        <path class="cls-4" d="m130.15,381.85c0-1.24-.04-2.24-.08-3.16h1.58l.08,1.66h.04c.72-1.18,1.86-1.88,3.44-1.88,2.34,0,4.1,1.98,4.1,4.92,0,3.48-2.12,5.2-4.4,5.2-1.28,0-2.4-.56-2.98-1.52h-.04v5.26h-1.74v-10.48Zm1.74,2.58c0,.26.04.5.08.72.32,1.22,1.38,2.06,2.64,2.06,1.86,0,2.94-1.52,2.94-3.74,0-1.94-1.02-3.6-2.88-3.6-1.2,0-2.32.86-2.66,2.18-.06.22-.12.48-.12.72v1.66Z"/>
        <path class="cls-4" d="m141.53,381.71c0-1.14-.02-2.12-.08-3.02h1.54l.06,1.9h.08c.44-1.3,1.5-2.12,2.68-2.12.2,0,.34.02.5.06v1.66c-.18-.04-.36-.06-.6-.06-1.24,0-2.12.94-2.36,2.26-.04.24-.08.52-.08.82v5.16h-1.74v-6.66Z"/>
        <path class="cls-4" d="m156.65,383.45c0,3.58-2.48,5.14-4.82,5.14-2.62,0-4.64-1.92-4.64-4.98,0-3.24,2.12-5.14,4.8-5.14s4.66,2.02,4.66,4.98Zm-7.68.1c0,2.12,1.22,3.72,2.94,3.72s2.94-1.58,2.94-3.76c0-1.64-.82-3.72-2.9-3.72s-2.98,1.92-2.98,3.76Z"/>
        <path class="cls-4" d="m159.39,378.69l2.12,5.72c.22.64.46,1.4.62,1.98h.04c.18-.58.38-1.32.62-2.02l1.92-5.68h1.86l-2.64,6.9c-1.26,3.32-2.12,5.02-3.32,6.06-.86.76-1.72,1.06-2.16,1.14l-.44-1.48c.44-.14,1.02-.42,1.54-.86.48-.38,1.08-1.06,1.48-1.96.08-.18.14-.32.14-.42s-.04-.24-.12-.46l-3.58-8.92h1.92Z"/>
        <path class="cls-4" d="m168.97,383.85c.04,2.38,1.56,3.36,3.32,3.36,1.26,0,2.02-.22,2.68-.5l.3,1.26c-.62.28-1.68.6-3.22.6-2.98,0-4.76-1.96-4.76-4.88s1.72-5.22,4.54-5.22c3.16,0,4,2.78,4,4.56,0,.36-.04.64-.06.82h-6.8Zm5.16-1.26c.02-1.12-.46-2.86-2.44-2.86-1.78,0-2.56,1.64-2.7,2.86h5.14Z"/>
        <path class="cls-4" d="m184.91,388.01c-.46.24-1.48.56-2.78.56-2.92,0-4.82-1.98-4.82-4.94s2.04-5.14,5.2-5.14c1.04,0,1.96.26,2.44.5l-.4,1.36c-.42-.24-1.08-.46-2.04-.46-2.22,0-3.42,1.64-3.42,3.66,0,2.24,1.44,3.62,3.36,3.62,1,0,1.66-.26,2.16-.48l.3,1.32Z"/>
        <path class="cls-4" d="m189.33,375.91v2.78h2.52v1.34h-2.52v5.22c0,1.2.34,1.88,1.32,1.88.46,0,.8-.06,1.02-.12l.08,1.32c-.34.14-.88.24-1.56.24-.82,0-1.48-.26-1.9-.74-.5-.52-.68-1.38-.68-2.52v-5.28h-1.5v-1.34h1.5v-2.32l1.72-.46Z"/>
        <path class="cls-4" d="m202.47,383.45c0,3.58-2.48,5.14-4.82,5.14-2.62,0-4.64-1.92-4.64-4.98,0-3.24,2.12-5.14,4.8-5.14s4.66,2.02,4.66,4.98Zm-7.68.1c0,2.12,1.22,3.72,2.94,3.72s2.94-1.58,2.94-3.76c0-1.64-.82-3.72-2.9-3.72s-2.98,1.92-2.98,3.76Z"/>
        <path class="cls-4" d="m204.45,386.57c.52.34,1.44.7,2.32.7,1.28,0,1.88-.64,1.88-1.44,0-.84-.5-1.3-1.8-1.78-1.74-.62-2.56-1.58-2.56-2.74,0-1.56,1.26-2.84,3.34-2.84.98,0,1.84.28,2.38.6l-.44,1.28c-.38-.24-1.08-.56-1.98-.56-1.04,0-1.62.6-1.62,1.32,0,.8.58,1.16,1.84,1.64,1.68.64,2.54,1.48,2.54,2.92,0,1.7-1.32,2.9-3.62,2.9-1.06,0-2.04-.26-2.72-.66l.44-1.34Z"/>
        <path class="cls-4" d="m211.97,387.33c0-.74.5-1.26,1.2-1.26s1.18.52,1.18,1.26-.46,1.26-1.2,1.26c-.7,0-1.18-.54-1.18-1.26Z"/>
      </g>
    </g>
  </g>
</svg>