<?xml version="1.0" encoding="UTF-8"?>
<svg id="Layer_2" data-name="Layer 2" xmlns="http://www.w3.org/2000/svg" viewBox="0 0 281 346.2">
  <defs>
    <style>
      .cls-1 {
        fill: #fff;
      }

      .cls-2 {
        fill: #1e6f41;
      }

      .cls-3 {
        fill: none;
        stroke: #43a756;
        stroke-dasharray: 0 0 5.98 5.98;
      }
    </style>
  </defs>
  <g id="Layer_1-2" data-name="Layer 1">
    <g>
      <line class="cls-3" x1="281" y1="345.7" y2="345.7"/>
      <g>
        <path class="cls-2" d="m109.76,181.23h3.68c1.56,0,2.71-.41,3.46-1.22.75-.82,1.12-1.95,1.12-3.4,0-1.32-.38-2.37-1.12-3.17-.75-.79-1.83-1.19-3.26-1.19-1.23,0-2.26.36-3.1,1.08-.84.72-1.26,1.66-1.26,2.83h-6.36l-.04-.13c-.09-2.56.89-4.67,2.94-6.33,2.05-1.66,4.6-2.49,7.64-2.49,3.38,0,6.08.81,8.1,2.43s3.02,3.92,3.02,6.92c0,1.42-.45,2.77-1.35,4.05-.9,1.28-2.13,2.28-3.71,3,1.81.64,3.19,1.63,4.14,2.96s1.43,2.88,1.43,4.65c0,3-1.09,5.35-3.27,7.06-2.18,1.71-4.97,2.57-8.37,2.57-3.04,0-5.65-.8-7.83-2.42-2.18-1.61-3.23-3.88-3.16-6.82l.04-.13h6.36c0,1.25.45,2.28,1.35,3.09.9.81,2.04,1.22,3.41,1.22,1.51,0,2.71-.42,3.58-1.25s1.31-1.97,1.31-3.41c0-1.72-.43-2.98-1.29-3.78-.86-.8-2.13-1.2-3.81-1.2h-3.68v-4.92Z"/>
        <path class="cls-2" d="m136.15,181.23h3.68c1.56,0,2.71-.41,3.46-1.22.75-.82,1.12-1.95,1.12-3.4,0-1.32-.37-2.37-1.12-3.17-.75-.79-1.83-1.19-3.26-1.19-1.23,0-2.26.36-3.1,1.08-.84.72-1.26,1.66-1.26,2.83h-6.36l-.04-.13c-.09-2.56.89-4.67,2.94-6.33,2.05-1.66,4.6-2.49,7.64-2.49,3.38,0,6.08.81,8.1,2.43,2.01,1.62,3.02,3.92,3.02,6.92,0,1.42-.45,2.77-1.35,4.05-.9,1.28-2.13,2.28-3.71,3,1.81.64,3.19,1.63,4.14,2.96.95,1.33,1.43,2.88,1.43,4.65,0,3-1.09,5.35-3.27,7.06-2.18,1.71-4.97,2.57-8.37,2.57-3.04,0-5.65-.8-7.83-2.42-2.18-1.61-3.23-3.88-3.16-6.82l.04-.13h6.36c0,1.25.45,2.28,1.35,3.09.9.81,2.04,1.22,3.41,1.22,1.51,0,2.71-.42,3.58-1.25s1.31-1.97,1.31-3.41c0-1.72-.43-2.98-1.29-3.78-.86-.8-2.13-1.2-3.81-1.2h-3.68v-4.92Z"/>
        <path class="cls-2" d="m170.74,200.37h-6.56v-26.91h-6.65v-4.63l13.21-1.17v32.7Z"/>
      </g>
      <path class="cls-2" d="m86.58,226.37c.04-.66.08-1.64.08-2.5v-11.7h1.74v6.08h.04c.62-1.08,1.74-1.78,3.3-1.78,2.4,0,4.1,2,4.08,4.94,0,3.46-2.18,5.18-4.34,5.18-1.4,0-2.52-.54-3.24-1.82h-.06l-.08,1.6h-1.52Zm1.82-3.88c0,.22.04.44.08.64.34,1.22,1.36,2.06,2.64,2.06,1.84,0,2.94-1.5,2.94-3.72,0-1.94-1-3.6-2.88-3.6-1.2,0-2.32.82-2.68,2.16-.04.2-.1.44-.1.72v1.74Zm10.62-.64c.04,2.38,1.56,3.36,3.32,3.36,1.26,0,2.02-.22,2.68-.5l.3,1.26c-.62.28-1.68.6-3.22.6-2.98,0-4.76-1.96-4.76-4.88s1.72-5.22,4.54-5.22c3.16,0,4,2.78,4,4.56,0,.36-.04.64-.06.82h-6.8Zm5.16-1.26c.02-1.12-.46-2.86-2.44-2.86-1.78,0-2.56,1.64-2.7,2.86h5.14Zm3.88-1.28c0-1-.02-1.82-.08-2.62h1.56l.1,1.6h.04c.48-.92,1.6-1.82,3.2-1.82,1.34,0,3.42.8,3.42,4.12v5.78h-1.76v-5.58c0-1.56-.58-2.86-2.24-2.86-1.16,0-2.06.82-2.36,1.8-.08.22-.12.52-.12.82v5.82h-1.76v-7.06Zm12.08,2.54c.04,2.38,1.56,3.36,3.32,3.36,1.26,0,2.02-.22,2.68-.5l.3,1.26c-.62.28-1.68.6-3.22.6-2.98,0-4.76-1.96-4.76-4.88s1.72-5.22,4.54-5.22c3.16,0,4,2.78,4,4.56,0,.36-.04.64-.06.82h-6.8Zm5.16-1.26c.02-1.12-.46-2.86-2.44-2.86-1.78,0-2.56,1.64-2.7,2.86h5.14Zm4.06,5.78v-8.34h-1.36v-1.34h1.36v-.52c0-2.56,1.5-4.22,4.22-4.22.9,0,1.96.28,2.46.64l-.5,1.34c-.42-.3-1.18-.56-2.04-.56-1.86,0-2.4,1.3-2.4,2.84v.48h5.62v9.68h-1.74v-8.34h-3.88v8.34h-1.74Zm17.18-.36c-.46.24-1.48.56-2.78.56-2.92,0-4.82-1.98-4.82-4.94s2.04-5.14,5.2-5.14c1.04,0,1.96.26,2.44.5l-.4,1.36c-.42-.24-1.08-.46-2.04-.46-2.22,0-3.42,1.64-3.42,3.66,0,2.24,1.44,3.62,3.36,3.62,1,0,1.66-.26,2.16-.48l.3,1.32Zm4.02-12.04c.02.6-.42,1.08-1.12,1.08-.62,0-1.06-.48-1.06-1.08s.46-1.1,1.1-1.1,1.08.48,1.08,1.1Zm-1.96,12.4v-9.68h1.76v9.68h-1.76Zm10.04,0l-.14-1.22h-.06c-.54.76-1.58,1.44-2.96,1.44-1.96,0-2.96-1.38-2.96-2.78,0-2.34,2.08-3.62,5.82-3.6v-.2c0-.8-.22-2.24-2.2-2.24-.9,0-1.84.28-2.52.72l-.4-1.16c.8-.52,1.96-.86,3.18-.86,2.96,0,3.68,2.02,3.68,3.96v3.62c0,.84.04,1.66.16,2.32h-1.6Zm-.26-4.94c-1.92-.04-4.1.3-4.1,2.18,0,1.14.76,1.68,1.66,1.68,1.26,0,2.06-.8,2.34-1.62.06-.18.1-.38.1-.56v-1.68Zm4.54-1.72c0-1.14-.02-2.12-.08-3.02h1.54l.06,1.9h.08c.44-1.3,1.5-2.12,2.68-2.12.2,0,.34.02.5.06v1.66c-.18-.04-.36-.06-.6-.06-1.24,0-2.12.94-2.36,2.26-.04.24-.08.52-.08.82v5.16h-1.74v-6.66Zm8.58-5.74c.02.6-.42,1.08-1.12,1.08-.62,0-1.06-.48-1.06-1.08s.46-1.1,1.1-1.1,1.08.48,1.08,1.1Zm-1.96,12.4v-9.68h1.76v9.68h-1.76Zm13.44-4.92c0,3.58-2.48,5.14-4.82,5.14-2.62,0-4.64-1.92-4.64-4.98,0-3.24,2.12-5.14,4.8-5.14s4.66,2.02,4.66,4.98Zm-7.68.1c0,2.12,1.22,3.72,2.94,3.72s2.94-1.58,2.94-3.76c0-1.64-.82-3.72-2.9-3.72s-2.98,1.92-2.98,3.76Zm9.66,3.02c.52.34,1.44.7,2.32.7,1.28,0,1.88-.64,1.88-1.44,0-.84-.5-1.3-1.8-1.78-1.74-.62-2.56-1.58-2.56-2.74,0-1.56,1.26-2.84,3.34-2.84.98,0,1.84.28,2.38.6l-.44,1.28c-.38-.24-1.08-.56-1.98-.56-1.04,0-1.62.6-1.62,1.32,0,.8.58,1.16,1.84,1.64,1.68.64,2.54,1.48,2.54,2.92,0,1.7-1.32,2.9-3.62,2.9-1.06,0-2.04-.26-2.72-.66l.44-1.34Zm7.74-6.28c0-.74.5-1.26,1.2-1.26s1.16.52,1.18,1.26c0,.7-.46,1.24-1.2,1.24-.7,0-1.18-.54-1.18-1.24Zm0,7.06c0-.74.5-1.26,1.2-1.26s1.16.52,1.18,1.26c0,.7-.46,1.24-1.2,1.24-.7,0-1.18-.54-1.18-1.24Z"/>
      <g>
        <path class="cls-2" d="m29.9,252.2l.82-7.8h7.12v1.71h-5.49l-.47,3.99c.3-.22.63-.41,1-.55s.79-.23,1.27-.24c1.31-.01,2.34.41,3.09,1.28s1.13,2.03,1.13,3.5-.38,2.57-1.15,3.44-1.88,1.3-3.34,1.3c-1.2,0-2.21-.33-3.01-.99s-1.18-1.62-1.15-2.9l.02-.06h1.74c0,.77.22,1.37.67,1.79s1.02.64,1.73.64c.81,0,1.45-.29,1.89-.86.45-.57.67-1.36.67-2.35,0-.91-.23-1.66-.68-2.24s-1.08-.88-1.88-.88c-.75,0-1.3.11-1.64.34s-.59.58-.74,1.04l-1.6-.17Z"/>
        <path class="cls-2" d="m41.16,252.2l.82-7.8h7.12v1.71h-5.49l-.47,3.99c.3-.22.63-.41,1-.55s.79-.23,1.27-.24c1.31-.01,2.34.41,3.09,1.28s1.13,2.03,1.13,3.5-.38,2.57-1.15,3.44-1.88,1.3-3.34,1.3c-1.2,0-2.21-.33-3.01-.99s-1.18-1.62-1.15-2.9l.02-.06h1.74c0,.77.22,1.37.67,1.79s1.02.64,1.73.64c.81,0,1.45-.29,1.89-.86.45-.57.67-1.36.67-2.35,0-.91-.23-1.66-.68-2.24s-1.08-.88-1.88-.88c-.75,0-1.3.11-1.64.34s-.59.58-.74,1.04l-1.6-.17Z"/>
        <path class="cls-2" d="m61.46,258.82c-1.47,0-2.64-.49-3.51-1.47s-1.3-2.25-1.3-3.81v-.43c0-1.5.45-2.76,1.34-3.75s1.96-1.5,3.18-1.5c1.43,0,2.5.43,3.23,1.29s1.09,2,1.09,3.44v1.2h-6.86l-.03.05c.02,1.01.28,1.85.77,2.5s1.19.98,2.08.98c.65,0,1.22-.09,1.71-.28s.92-.44,1.27-.77l.75,1.25c-.38.37-.88.68-1.49.93-.62.25-1.37.37-2.25.37Zm-.29-9.45c-.64,0-1.19.27-1.65.81-.46.54-.74,1.22-.84,2.04l.02.05h4.87v-.25c0-.75-.2-1.38-.61-1.89-.4-.51-1-.76-1.8-.76Z"/>
        <path class="cls-2" d="m69.37,248.05l.14,1.57c.35-.56.79-.99,1.32-1.3s1.13-.46,1.81-.46c1.14,0,2.02.33,2.65,1s.94,1.7.94,3.09v6.67h-1.92v-6.63c0-.93-.18-1.59-.55-1.98s-.93-.59-1.68-.59c-.55,0-1.04.13-1.47.4s-.77.63-1.02,1.09v7.71h-1.92v-10.57h1.72Z"/>
        <path class="cls-2" d="m81.56,245.5v2.55h2v1.43h-2v6.42c0,.5.1.84.31,1.04s.48.3.82.3c.11,0,.23-.01.37-.04s.25-.06.36-.1l.25,1.32c-.14.12-.35.21-.63.29s-.55.11-.83.11c-.78,0-1.4-.24-1.87-.71s-.69-1.21-.69-2.22v-6.42h-1.68v-1.43h1.68v-2.55h1.92Z"/>
        <path class="cls-2" d="m88.02,245.35h-1.92v-1.96h1.92v1.96Zm0,13.27h-1.92v-10.57h1.92v10.57Z"/>
        <path class="cls-2" d="m90.53,253.53c0-1.7.36-3.07,1.09-4.11s1.74-1.56,3.05-1.56c.62,0,1.17.11,1.65.34s.89.56,1.23,1v-5.81h1.92v15.23h-1.57l-.22-1.3c-.34.5-.77.87-1.27,1.12s-1.08.38-1.75.38c-1.29,0-2.3-.47-3.03-1.4s-1.09-2.16-1.09-3.69v-.21Zm1.92.21c0,1.07.22,1.92.65,2.56s1.11.96,2.03.96c.57,0,1.05-.13,1.45-.39s.71-.62.96-1.09v-4.93c-.25-.44-.57-.78-.96-1.04s-.87-.39-1.42-.39c-.92,0-1.61.38-2.05,1.14s-.66,1.75-.66,2.97v.21Z"/>
        <path class="cls-2" d="m108.84,258.62c-.07-.32-.12-.6-.15-.84s-.06-.49-.06-.74c-.36.51-.83.93-1.4,1.27s-1.2.51-1.86.51c-1.1,0-1.94-.28-2.51-.84s-.86-1.34-.86-2.33.41-1.8,1.23-2.37,1.93-.85,3.33-.85h2.09v-1.04c0-.62-.19-1.11-.57-1.47s-.91-.54-1.6-.54c-.62,0-1.12.16-1.51.47s-.58.7-.58,1.14h-1.84l-.02-.06c-.04-.77.32-1.47,1.09-2.11s1.75-.96,2.96-.96,2.16.3,2.89.91,1.09,1.49,1.09,2.63v5.09c0,.38.02.74.06,1.09s.11.7.21,1.04h-1.98Zm-3.19-1.42c.7,0,1.33-.18,1.88-.54.56-.36.92-.77,1.09-1.23v-1.71h-2.16c-.77,0-1.4.2-1.86.58-.46.39-.7.85-.7,1.37,0,.47.15.84.44,1.11s.73.41,1.3.41Z"/>
        <path class="cls-2" d="m112.9,253.53c0-1.7.36-3.07,1.09-4.11s1.74-1.56,3.05-1.56c.62,0,1.17.11,1.65.34s.89.56,1.23,1v-5.81h1.92v15.23h-1.57l-.22-1.3c-.34.5-.77.87-1.27,1.12s-1.08.38-1.75.38c-1.29,0-2.3-.47-3.03-1.4s-1.09-2.16-1.09-3.69v-.21Zm1.92.21c0,1.07.22,1.92.65,2.56s1.11.96,2.03.96c.57,0,1.05-.13,1.45-.39s.71-.62.96-1.09v-4.93c-.25-.44-.57-.78-.96-1.04s-.87-.39-1.42-.39c-.92,0-1.61.38-2.05,1.14s-.66,1.75-.66,2.97v.21Z"/>
        <path class="cls-2" d="m129.09,258.82c-1.47,0-2.64-.49-3.51-1.47s-1.3-2.25-1.3-3.81v-.43c0-1.5.45-2.76,1.34-3.75s1.96-1.5,3.18-1.5c1.43,0,2.5.43,3.23,1.29s1.09,2,1.09,3.44v1.2h-6.86l-.03.05c.02,1.01.28,1.85.77,2.5s1.19.98,2.08.98c.65,0,1.22-.09,1.71-.28s.92-.44,1.27-.77l.75,1.25c-.38.37-.88.68-1.49.93-.62.25-1.37.37-2.25.37Zm-.29-9.45c-.64,0-1.19.27-1.65.81-.46.54-.74,1.22-.84,2.04l.02.05h4.87v-.25c0-.75-.2-1.38-.61-1.89-.4-.51-1-.76-1.8-.76Z"/>
        <path class="cls-2" d="m141.42,255.81c0-.42-.16-.77-.48-1.04s-.93-.51-1.83-.71c-1.28-.28-2.25-.66-2.9-1.14s-.97-1.13-.97-1.96.36-1.59,1.09-2.19,1.68-.91,2.85-.91c1.23,0,2.21.32,2.93.95s1.07,1.4,1.04,2.3l-.02.06h-1.84c0-.46-.19-.88-.58-1.25s-.9-.55-1.54-.55c-.68,0-1.19.15-1.52.45s-.5.66-.5,1.08.15.75.44.99.89.46,1.79.64c1.33.29,2.33.68,2.98,1.17s.98,1.15.98,1.98c0,.94-.38,1.7-1.14,2.28s-1.75.87-2.97.87c-1.35,0-2.41-.34-3.18-1.03s-1.14-1.48-1.1-2.39l.02-.06h1.84c.03.68.29,1.18.76,1.49.48.31,1.03.47,1.67.47.68,0,1.22-.14,1.61-.42s.58-.64.58-1.09Z"/>
        <path class="cls-2" d="m153.25,245.5v2.55h2v1.43h-2v6.42c0,.5.1.84.31,1.04s.48.3.82.3c.11,0,.23-.01.37-.04s.25-.06.36-.1l.25,1.32c-.14.12-.35.21-.63.29s-.55.11-.83.11c-.78,0-1.4-.24-1.87-.71s-.69-1.21-.69-2.22v-6.42h-1.68v-1.43h1.68v-2.55h1.92Z"/>
        <path class="cls-2" d="m162.01,258.82c-1.47,0-2.64-.49-3.51-1.47s-1.3-2.25-1.3-3.81v-.43c0-1.5.45-2.76,1.34-3.75s1.96-1.5,3.18-1.5c1.43,0,2.5.43,3.23,1.29s1.09,2,1.09,3.44v1.2h-6.86l-.03.05c.02,1.01.28,1.85.77,2.5s1.19.98,2.08.98c.65,0,1.22-.09,1.71-.28s.92-.44,1.27-.77l.75,1.25c-.38.37-.88.68-1.49.93-.62.25-1.37.37-2.25.37Zm-.29-9.45c-.64,0-1.19.27-1.65.81-.46.54-.74,1.22-.84,2.04l.02.05h4.87v-.25c0-.75-.2-1.38-.61-1.89-.4-.51-1-.76-1.8-.76Z"/>
        <path class="cls-2" d="m173.2,249.75l-.99-.06c-.51,0-.94.12-1.28.36s-.62.58-.81,1.02v7.55h-1.92v-10.57h1.72l.19,1.54c.3-.55.67-.97,1.11-1.28s.95-.46,1.52-.46c.14,0,.28.01.41.03s.24.05.32.07l-.26,1.79Z"/>
        <path class="cls-2" d="m180.06,249.75l-.99-.06c-.51,0-.94.12-1.28.36s-.62.58-.81,1.02v7.55h-1.92v-10.57h1.72l.19,1.54c.3-.55.67-.97,1.11-1.28s.95-.46,1.52-.46c.14,0,.28.01.41.03s.24.05.32.07l-.26,1.79Z"/>
        <path class="cls-2" d="m183.99,245.35h-1.92v-1.96h1.92v1.96Zm0,13.27h-1.92v-10.57h1.92v10.57Z"/>
        <path class="cls-2" d="m189.49,245.5v2.55h2v1.43h-2v6.42c0,.5.1.84.31,1.04s.48.3.82.3c.11,0,.23-.01.37-.04s.25-.06.36-.1l.25,1.32c-.14.12-.35.21-.63.29s-.55.11-.83.11c-.78,0-1.4-.24-1.87-.71s-.69-1.21-.69-2.22v-6.42h-1.68v-1.43h1.68v-2.55h1.92Z"/>
        <path class="cls-2" d="m193.42,253.24c0-1.56.42-2.85,1.27-3.86s2-1.52,3.45-1.52,2.62.5,3.47,1.51,1.27,2.3,1.27,3.87v.21c0,1.58-.42,2.86-1.27,3.87s-2,1.5-3.46,1.5-2.61-.5-3.46-1.51-1.27-2.29-1.27-3.86v-.21Zm1.92.21c0,1.12.24,2.04.71,2.77.47.73,1.17,1.09,2.1,1.09s1.61-.36,2.09-1.09c.48-.73.71-1.65.71-2.77v-.21c0-1.11-.24-2.03-.72-2.76-.48-.74-1.18-1.1-2.1-1.1s-1.61.37-2.08,1.1c-.47.73-.71,1.65-.71,2.76v.21Z"/>
        <path class="cls-2" d="m210.23,249.75l-.99-.06c-.51,0-.94.12-1.28.36s-.62.58-.81,1.02v7.55h-1.92v-10.57h1.72l.19,1.54c.3-.55.67-.97,1.11-1.28s.95-.46,1.52-.46c.14,0,.28.01.41.03s.24.05.32.07l-.26,1.79Z"/>
        <path class="cls-2" d="m214.17,245.35h-1.92v-1.96h1.92v1.96Zm0,13.27h-1.92v-10.57h1.92v10.57Z"/>
        <path class="cls-2" d="m223.62,258.62c-.07-.32-.12-.6-.15-.84s-.06-.49-.06-.74c-.36.51-.83.93-1.4,1.27s-1.2.51-1.86.51c-1.1,0-1.94-.28-2.51-.84s-.86-1.34-.86-2.33.41-1.8,1.23-2.37,1.93-.85,3.33-.85h2.09v-1.04c0-.62-.19-1.11-.57-1.47s-.91-.54-1.6-.54c-.62,0-1.12.16-1.51.47s-.58.7-.58,1.14h-1.84l-.02-.06c-.04-.77.32-1.47,1.09-2.11s1.75-.96,2.96-.96,2.16.3,2.89.91,1.09,1.49,1.09,2.63v5.09c0,.38.02.74.06,1.09s.11.7.21,1.04h-1.98Zm-3.19-1.42c.7,0,1.33-.18,1.88-.54.56-.36.92-.77,1.09-1.23v-1.71h-2.16c-.77,0-1.4.2-1.86.58-.46.39-.7.85-.7,1.37,0,.47.15.84.44,1.11s.73.41,1.3.41Z"/>
        <path class="cls-2" d="m230.2,258.62h-1.92v-15.23h1.92v15.23Z"/>
        <path class="cls-2" d="m237.55,258.82c-1.47,0-2.64-.49-3.51-1.47s-1.3-2.25-1.3-3.81v-.43c0-1.5.45-2.76,1.34-3.75s1.96-1.5,3.18-1.5c1.43,0,2.5.43,3.23,1.29s1.09,2,1.09,3.44v1.2h-6.86l-.03.05c.02,1.01.28,1.85.77,2.5s1.19.98,2.08.98c.65,0,1.22-.09,1.71-.28s.92-.44,1.27-.77l.75,1.25c-.38.37-.88.68-1.49.93-.62.25-1.37.37-2.25.37Zm-.29-9.45c-.64,0-1.19.27-1.65.81-.46.54-.74,1.22-.84,2.04l.02.05h4.87v-.25c0-.75-.2-1.38-.61-1.89-.4-.51-1-.76-1.8-.76Z"/>
        <path class="cls-2" d="m249.88,255.81c0-.42-.16-.77-.48-1.04s-.93-.51-1.83-.71c-1.28-.28-2.25-.66-2.9-1.14s-.97-1.13-.97-1.96.36-1.59,1.09-2.19,1.68-.91,2.85-.91c1.23,0,2.21.32,2.93.95s1.07,1.4,1.04,2.3l-.02.06h-1.84c0-.46-.19-.88-.58-1.25s-.9-.55-1.54-.55c-.68,0-1.19.15-1.52.45s-.5.66-.5,1.08.15.75.44.99.89.46,1.79.64c1.33.29,2.33.68,2.98,1.17s.98,1.15.98,1.98c0,.94-.38,1.7-1.14,2.28s-1.75.87-2.97.87c-1.35,0-2.41-.34-3.18-1.03s-1.14-1.48-1.1-2.39l.02-.06h1.84c.03.68.29,1.18.76,1.49.48.31,1.03.47,1.67.47.68,0,1.22-.14,1.61-.42s.58-.64.58-1.09Z"/>
      </g>
      <g>
        <path class="cls-2" d="m48.46,292.62h-1.92v-12.34l-2.91.04v-1.39l4.83-.53v14.22Z"/>
        <path class="cls-2" d="m63.44,279.91c-1.72,2.04-2.88,3.86-3.48,5.43s-1.04,3.49-1.3,5.74l-.16,1.53h-1.92l.16-1.53c.27-2.24.8-4.24,1.59-6.01s1.87-3.49,3.23-5.17h-7.73v-1.51h9.62v1.51Z"/>
        <path class="cls-2" d="m75.08,292.82c-1.47,0-2.64-.49-3.51-1.47s-1.3-2.25-1.3-3.81v-.43c0-1.5.45-2.76,1.34-3.75s1.95-1.5,3.18-1.5c1.43,0,2.5.43,3.23,1.29s1.09,2,1.09,3.44v1.2h-6.86l-.03.05c.02,1.01.28,1.85.77,2.5s1.19.98,2.08.98c.65,0,1.22-.09,1.71-.28s.92-.44,1.27-.77l.75,1.25c-.38.37-.88.68-1.49.93-.62.25-1.37.37-2.25.37Zm-.29-9.45c-.64,0-1.2.27-1.65.81-.46.54-.74,1.22-.84,2.04l.02.05h4.87v-.25c0-.75-.2-1.38-.61-1.89-.4-.51-1-.76-1.8-.76Z"/>
        <path class="cls-2" d="m82.99,282.05l.14,1.57c.35-.56.79-.99,1.32-1.3s1.13-.46,1.81-.46c1.14,0,2.02.33,2.65,1s.94,1.7.94,3.09v6.67h-1.92v-6.63c0-.93-.18-1.59-.55-1.98s-.93-.59-1.68-.59c-.55,0-1.04.13-1.47.4s-.77.63-1.02,1.09v7.71h-1.92v-10.57h1.72Z"/>
        <path class="cls-2" d="m95.18,279.5v2.55h2v1.43h-2v6.42c0,.5.1.84.31,1.04s.48.3.82.3c.11,0,.23-.01.37-.04s.25-.06.36-.1l.25,1.32c-.14.12-.35.21-.63.29s-.56.11-.83.11c-.78,0-1.4-.24-1.87-.71s-.69-1.21-.69-2.22v-6.42h-1.68v-1.43h1.68v-2.55h1.92Z"/>
        <path class="cls-2" d="m101.64,279.35h-1.92v-1.96h1.92v1.96Zm0,13.27h-1.92v-10.57h1.92v10.57Z"/>
        <path class="cls-2" d="m104.16,287.53c0-1.7.36-3.07,1.09-4.11s1.74-1.56,3.05-1.56c.62,0,1.17.11,1.65.34s.89.56,1.23,1v-5.81h1.92v15.23h-1.57l-.22-1.3c-.35.5-.77.87-1.27,1.12s-1.08.38-1.75.38c-1.29,0-2.3-.47-3.03-1.4s-1.09-2.16-1.09-3.69v-.21Zm1.92.21c0,1.07.22,1.92.65,2.56s1.11.96,2.03.96c.57,0,1.05-.13,1.45-.39s.71-.62.96-1.09v-4.93c-.25-.44-.57-.78-.96-1.04s-.87-.39-1.42-.39c-.92,0-1.61.38-2.05,1.14s-.66,1.75-.66,2.97v.21Z"/>
        <path class="cls-2" d="m122.46,292.62c-.06-.32-.12-.6-.15-.84s-.06-.49-.06-.74c-.36.51-.83.93-1.4,1.27s-1.2.51-1.86.51c-1.1,0-1.94-.28-2.51-.84s-.86-1.34-.86-2.33.41-1.8,1.23-2.37,1.92-.85,3.33-.85h2.09v-1.04c0-.62-.19-1.11-.57-1.47s-.91-.54-1.6-.54c-.62,0-1.12.16-1.51.47s-.58.7-.58,1.14h-1.84l-.02-.06c-.04-.77.32-1.47,1.09-2.11s1.75-.96,2.96-.96,2.16.3,2.89.91,1.09,1.49,1.09,2.63v5.09c0,.38.02.74.06,1.09s.11.7.21,1.04h-1.98Zm-3.19-1.42c.7,0,1.32-.18,1.88-.54.56-.36.92-.77,1.09-1.23v-1.71h-2.16c-.78,0-1.39.2-1.86.58-.47.39-.7.85-.7,1.37,0,.47.15.84.44,1.11s.73.41,1.3.41Z"/>
        <path class="cls-2" d="m126.52,287.53c0-1.7.36-3.07,1.09-4.11s1.74-1.56,3.05-1.56c.62,0,1.17.11,1.65.34s.89.56,1.23,1v-5.81h1.92v15.23h-1.57l-.22-1.3c-.35.5-.77.87-1.27,1.12s-1.08.38-1.75.38c-1.29,0-2.3-.47-3.03-1.4s-1.09-2.16-1.09-3.69v-.21Zm1.92.21c0,1.07.22,1.92.65,2.56s1.11.96,2.03.96c.57,0,1.05-.13,1.45-.39s.71-.62.96-1.09v-4.93c-.25-.44-.57-.78-.96-1.04s-.87-.39-1.42-.39c-.92,0-1.61.38-2.05,1.14s-.66,1.75-.66,2.97v.21Z"/>
        <path class="cls-2" d="m142.71,292.82c-1.47,0-2.64-.49-3.51-1.47s-1.3-2.25-1.3-3.81v-.43c0-1.5.45-2.76,1.34-3.75s1.95-1.5,3.18-1.5c1.43,0,2.5.43,3.23,1.29s1.09,2,1.09,3.44v1.2h-6.86l-.03.05c.02,1.01.28,1.85.77,2.5s1.19.98,2.08.98c.65,0,1.22-.09,1.71-.28s.92-.44,1.27-.77l.75,1.25c-.38.37-.88.68-1.49.93-.62.25-1.37.37-2.25.37Zm-.29-9.45c-.64,0-1.2.27-1.65.81-.46.54-.74,1.22-.84,2.04l.02.05h4.87v-.25c0-.75-.2-1.38-.61-1.89-.4-.51-1-.76-1.8-.76Z"/>
        <path class="cls-2" d="m155.04,289.81c0-.42-.16-.77-.48-1.04s-.93-.51-1.83-.71c-1.28-.28-2.25-.66-2.9-1.14s-.97-1.13-.97-1.96.37-1.59,1.09-2.19,1.68-.91,2.85-.91c1.23,0,2.21.32,2.93.95s1.07,1.4,1.04,2.3l-.02.06h-1.84c0-.46-.19-.88-.58-1.25s-.9-.55-1.54-.55c-.68,0-1.19.15-1.52.45s-.5.66-.5,1.08.15.75.44.99.89.46,1.79.64c1.33.29,2.33.68,2.98,1.17s.98,1.15.98,1.98c0,.94-.38,1.7-1.14,2.28s-1.75.87-2.97.87c-1.35,0-2.41-.34-3.18-1.03s-1.14-1.48-1.1-2.39l.02-.06h1.84c.03.68.29,1.18.76,1.49.47.31,1.03.47,1.67.47.68,0,1.22-.14,1.61-.42s.58-.64.58-1.09Z"/>
        <path class="cls-2" d="m173.33,287.74c0,1.52-.37,2.75-1.09,3.69s-1.73,1.4-3.02,1.4c-.65,0-1.22-.11-1.71-.33s-.91-.54-1.25-.98v5.17h-1.92v-14.63h1.47l.3,1.37c.35-.51.78-.9,1.29-1.16s1.11-.4,1.8-.4c1.31,0,2.33.52,3.05,1.56s1.09,2.41,1.09,4.12v.21Zm-1.92-.21c0-1.2-.24-2.18-.71-2.95s-1.17-1.16-2.08-1.16c-.55,0-1.03.12-1.42.38-.39.25-.71.59-.95,1.03v5.1c.24.44.56.78.95,1.02.39.24.87.37,1.44.37.91,0,1.6-.33,2.07-1,.47-.67.7-1.53.7-2.58v-.21Z"/>
        <path class="cls-2" d="m182.41,291.06c-.33.57-.76,1-1.28,1.31s-1.12.46-1.81.46c-1.15,0-2.05-.37-2.7-1.1s-.97-1.88-.97-3.44v-6.23h1.92v6.25c0,1.13.17,1.9.5,2.32s.85.63,1.55.63,1.25-.14,1.69-.42.78-.67,1.01-1.18v-7.62h1.92v10.57h-1.73l-.13-1.56Zm-1.51-12.88h2.25l.02.06-2.64,2.54h-1.44l1.81-2.6Z"/>
        <path class="cls-2" d="m196.09,287.74c0,1.52-.37,2.75-1.1,3.69s-1.74,1.4-3.02,1.4c-.7,0-1.3-.13-1.82-.41s-.94-.67-1.28-1.2l-.23,1.4h-1.57v-15.23h1.92v5.92c.33-.47.74-.83,1.24-1.07s1.07-.37,1.72-.37c1.3,0,2.32.52,3.05,1.56s1.09,2.41,1.09,4.11v.21Zm-1.92-.21c0-1.21-.22-2.2-.67-2.96s-1.12-1.15-2.04-1.15c-.59,0-1.09.14-1.5.43s-.73.68-.97,1.17v4.58c.25.52.57.93.97,1.22s.91.44,1.52.44c.9,0,1.58-.32,2.02-.97s.66-1.5.66-2.56v-.21Z"/>
        <path class="cls-2" d="m200.51,292.62h-1.92v-15.23h1.92v15.23Z"/>
        <path class="cls-2" d="m205.55,279.35h-1.92v-1.96h1.92v1.96Zm0,13.27h-1.92v-10.57h1.92v10.57Z"/>
        <path class="cls-2" d="m212.81,291.31c.64,0,1.2-.2,1.68-.59s.73-.88.73-1.45h1.73l.02.06c.03.91-.37,1.72-1.22,2.43s-1.83,1.06-2.94,1.06c-1.54,0-2.71-.5-3.53-1.5s-1.22-2.26-1.22-3.78v-.41c0-1.5.41-2.76,1.23-3.76s1.99-1.51,3.52-1.51c1.24,0,2.25.36,3.03,1.09s1.16,1.62,1.14,2.69l-.02.06h-1.74c0-.64-.23-1.19-.68-1.65s-1.03-.68-1.73-.68c-1.01,0-1.73.36-2.16,1.09-.43.72-.65,1.61-.65,2.67v.41c0,1.08.21,1.98.64,2.7.43.72,1.15,1.08,2.17,1.08Z"/>
        <path class="cls-2" d="m225.62,292.62c-.06-.32-.12-.6-.15-.84s-.06-.49-.06-.74c-.36.51-.83.93-1.4,1.27s-1.2.51-1.86.51c-1.1,0-1.94-.28-2.51-.84s-.86-1.34-.86-2.33.41-1.8,1.23-2.37,1.92-.85,3.33-.85h2.09v-1.04c0-.62-.19-1.11-.57-1.47s-.91-.54-1.6-.54c-.62,0-1.12.16-1.51.47s-.58.7-.58,1.14h-1.84l-.02-.06c-.04-.77.32-1.47,1.09-2.11s1.75-.96,2.96-.96,2.16.3,2.89.91,1.09,1.49,1.09,2.63v5.09c0,.38.02.74.06,1.09s.11.7.21,1.04h-1.98Zm-3.19-1.42c.7,0,1.32-.18,1.88-.54.56-.36.92-.77,1.09-1.23v-1.71h-2.16c-.78,0-1.39.2-1.86.58-.47.39-.7.85-.7,1.37,0,.47.15.84.44,1.11s.73.41,1.3.41Z"/>
        <path class="cls-2" d="m236.26,289.81c0-.42-.16-.77-.48-1.04s-.93-.51-1.83-.71c-1.28-.28-2.25-.66-2.9-1.14s-.97-1.13-.97-1.96.37-1.59,1.09-2.19,1.68-.91,2.85-.91c1.23,0,2.21.32,2.93.95s1.07,1.4,1.04,2.3l-.02.06h-1.84c0-.46-.19-.88-.58-1.25s-.9-.55-1.54-.55c-.68,0-1.19.15-1.52.45s-.5.66-.5,1.08.15.75.44.99.89.46,1.79.64c1.33.29,2.33.68,2.98,1.17s.98,1.15.98,1.98c0,.94-.38,1.7-1.14,2.28s-1.75.87-2.97.87c-1.35,0-2.41-.34-3.18-1.03s-1.14-1.48-1.1-2.39l.02-.06h1.84c.03.68.29,1.18.76,1.49.47.31,1.03.47,1.67.47.68,0,1.22-.14,1.61-.42s.58-.64.58-1.09Z"/>
      </g>
      <g>
        <path class="cls-2" d="m32.24,326.62h-9.22v-1.33l4.66-5.17c.83-.93,1.4-1.67,1.69-2.22s.44-1.11.44-1.68c0-.71-.21-1.31-.62-1.79s-.96-.73-1.65-.73c-.98,0-1.71.25-2.17.76s-.7,1.21-.7,2.12h-1.85l-.02-.06c-.03-1.22.37-2.25,1.22-3.09s2.02-1.25,3.52-1.25c1.28,0,2.29.37,3.05,1.12s1.14,1.69,1.14,2.85c0,.77-.23,1.55-.69,2.33s-1.1,1.61-1.93,2.5l-3.74,4.06.02.05h6.84v1.51Z"/>
        <path class="cls-2" d="m34.84,320.2l.82-7.8h7.12v1.71h-5.49l-.47,3.99c.3-.22.63-.41,1-.55s.79-.23,1.27-.24c1.31-.01,2.34.41,3.09,1.28s1.13,2.03,1.13,3.5-.38,2.57-1.15,3.44-1.88,1.3-3.34,1.3c-1.2,0-2.21-.33-3.01-.99s-1.18-1.62-1.15-2.9l.02-.06h1.74c0,.77.22,1.37.67,1.79s1.02.64,1.73.64c.81,0,1.45-.29,1.89-.86.45-.57.67-1.36.67-2.35,0-.91-.23-1.66-.68-2.24s-1.08-.88-1.88-.88c-.75,0-1.3.11-1.64.34s-.59.58-.74,1.04l-1.6-.17Z"/>
        <path class="cls-2" d="m49.38,325.31c.94,0,1.69-.35,2.25-1.06s.84-1.76.84-3.16v-.64c-.32.46-.72.81-1.2,1.05s-1.01.36-1.6.36c-1.37,0-2.46-.42-3.27-1.27s-1.21-2.02-1.21-3.51.43-2.59,1.28-3.51,1.9-1.37,3.12-1.37c1.48,0,2.66.46,3.51,1.39s1.28,2.29,1.28,4.1v3.39c0,1.86-.46,3.28-1.39,4.27s-2.14,1.48-3.63,1.48c-.5,0-1.01-.05-1.53-.14s-.98-.24-1.39-.44l.29-1.48c.38.2.78.34,1.2.42s.89.12,1.43.12Zm.3-4.97c.71,0,1.3-.15,1.77-.46s.81-.7,1.02-1.17v-1.23c0-1.24-.24-2.18-.72-2.82-.48-.64-1.18-.96-2.09-.96-.7,0-1.3.31-1.8.94-.5.63-.74,1.43-.74,2.41s.23,1.76.69,2.37,1.08.91,1.87.91Z"/>
        <path class="cls-2" d="m64.1,313.35h-1.92v-1.96h1.92v1.96Zm0,13.27h-1.92v-10.57h1.92v10.57Z"/>
        <path class="cls-2" d="m68.78,316.05l.14,1.57c.35-.56.79-.99,1.32-1.3s1.13-.46,1.81-.46c1.14,0,2.02.33,2.65,1s.94,1.7.94,3.09v6.67h-1.92v-6.63c0-.93-.18-1.59-.55-1.98s-.93-.59-1.68-.59c-.55,0-1.04.13-1.47.4s-.77.63-1.02,1.09v7.71h-1.92v-10.57h1.72Z"/>
        <path class="cls-2" d="m84.57,323.81c0-.42-.16-.77-.48-1.04s-.93-.51-1.83-.71c-1.28-.28-2.25-.66-2.9-1.14s-.97-1.13-.97-1.96.36-1.59,1.09-2.19,1.68-.91,2.85-.91c1.23,0,2.21.32,2.93.95s1.07,1.4,1.04,2.3l-.02.06h-1.84c0-.46-.19-.88-.58-1.25s-.9-.55-1.54-.55c-.68,0-1.19.15-1.52.45s-.5.66-.5,1.08.15.75.44.99.89.46,1.79.64c1.33.29,2.33.68,2.98,1.17s.98,1.15.98,1.98c0,.94-.38,1.7-1.14,2.28s-1.75.87-2.97.87c-1.35,0-2.41-.34-3.18-1.03s-1.14-1.48-1.1-2.39l.02-.06h1.84c.03.68.29,1.18.76,1.49.48.31,1.03.47,1.67.47.68,0,1.22-.14,1.61-.42s.58-.64.58-1.09Z"/>
        <path class="cls-2" d="m91.42,313.5v2.55h2v1.43h-2v6.42c0,.5.1.84.31,1.04s.48.3.82.3c.11,0,.23-.01.37-.04s.25-.06.36-.1l.25,1.32c-.14.12-.35.21-.63.29s-.55.11-.83.11c-.78,0-1.4-.24-1.87-.71s-.69-1.21-.69-2.22v-6.42h-1.68v-1.43h1.68v-2.55h1.92Z"/>
        <path class="cls-2" d="m97.88,313.35h-1.92v-1.96h1.92v1.96Zm0,13.27h-1.92v-10.57h1.92v10.57Z"/>
        <path class="cls-2" d="m103.37,313.5v2.55h2v1.43h-2v6.42c0,.5.1.84.31,1.04s.48.3.82.3c.11,0,.23-.01.37-.04s.25-.06.36-.1l.25,1.32c-.14.12-.35.21-.63.29s-.55.11-.83.11c-.78,0-1.4-.24-1.87-.71s-.69-1.21-.69-2.22v-6.42h-1.68v-1.43h1.68v-2.55h1.92Z"/>
        <path class="cls-2" d="m114.46,325.06c-.33.57-.76,1-1.28,1.31s-1.12.46-1.81.46c-1.15,0-2.05-.37-2.7-1.1s-.97-1.88-.97-3.44v-6.23h1.92v6.25c0,1.13.17,1.9.5,2.32s.85.63,1.55.63,1.25-.14,1.69-.42.78-.67,1.01-1.18v-7.62h1.92v10.57h-1.73l-.13-1.56Z"/>
        <path class="cls-2" d="m123.41,325.31c.64,0,1.2-.2,1.68-.59s.73-.88.73-1.45h1.73l.02.06c.03.91-.37,1.72-1.22,2.43s-1.82,1.06-2.94,1.06c-1.54,0-2.71-.5-3.53-1.5s-1.22-2.26-1.22-3.78v-.41c0-1.5.41-2.76,1.23-3.76s1.99-1.51,3.52-1.51c1.24,0,2.25.36,3.03,1.09s1.16,1.62,1.14,2.69l-.02.06h-1.74c0-.64-.23-1.19-.68-1.65s-1.03-.68-1.73-.68c-1.01,0-1.73.36-2.16,1.09-.43.72-.65,1.61-.65,2.67v.41c0,1.08.21,1.98.64,2.7.43.72,1.15,1.08,2.17,1.08Z"/>
        <path class="cls-2" d="m131.81,313.35h-1.92v-1.96h1.92v1.96Zm0,13.27h-1.92v-10.57h1.92v10.57Z"/>
        <path class="cls-2" d="m134.32,321.24c0-1.56.42-2.85,1.27-3.86s2-1.52,3.45-1.52,2.62.5,3.47,1.51,1.27,2.3,1.27,3.87v.21c0,1.58-.42,2.86-1.27,3.87s-2,1.5-3.46,1.5-2.61-.5-3.46-1.51-1.27-2.29-1.27-3.86v-.21Zm1.92.21c0,1.12.24,2.04.71,2.77.47.73,1.17,1.09,2.1,1.09s1.61-.36,2.09-1.09c.48-.73.71-1.65.71-2.77v-.21c0-1.11-.24-2.03-.72-2.76-.48-.74-1.18-1.1-2.1-1.1s-1.61.37-2.08,1.1c-.47.73-.71,1.65-.71,2.76v.21Z"/>
        <path class="cls-2" d="m147.86,316.05l.14,1.57c.35-.56.79-.99,1.32-1.3s1.13-.46,1.81-.46c1.14,0,2.02.33,2.65,1s.94,1.7.94,3.09v6.67h-1.92v-6.63c0-.93-.18-1.59-.55-1.98s-.93-.59-1.68-.59c-.55,0-1.04.13-1.47.4s-.77.63-1.02,1.09v7.71h-1.92v-10.57h1.72Z"/>
        <path class="cls-2" d="m161.89,326.82c-1.47,0-2.64-.49-3.51-1.47s-1.3-2.25-1.3-3.81v-.43c0-1.5.45-2.76,1.34-3.75s1.96-1.5,3.18-1.5c1.43,0,2.5.43,3.23,1.29s1.09,2,1.09,3.44v1.2h-6.86l-.03.05c.02,1.01.28,1.85.77,2.5s1.19.98,2.08.98c.65,0,1.22-.09,1.71-.28s.92-.44,1.27-.77l.75,1.25c-.38.37-.88.68-1.49.93-.62.25-1.37.37-2.25.37Zm-.29-9.45c-.64,0-1.19.27-1.65.81-.46.54-.74,1.22-.84,2.04l.02.05h4.87v-.25c0-.75-.2-1.38-.61-1.89-.4-.51-1-.76-1.8-.76Z"/>
        <path class="cls-2" d="m174.22,323.81c0-.42-.16-.77-.48-1.04s-.93-.51-1.83-.71c-1.28-.28-2.25-.66-2.9-1.14s-.97-1.13-.97-1.96.36-1.59,1.09-2.19,1.68-.91,2.85-.91c1.23,0,2.21.32,2.93.95s1.07,1.4,1.04,2.3l-.02.06h-1.84c0-.46-.19-.88-.58-1.25s-.9-.55-1.54-.55c-.68,0-1.19.15-1.52.45s-.5.66-.5,1.08.15.75.44.99.89.46,1.79.64c1.33.29,2.33.68,2.98,1.17s.98,1.15.98,1.98c0,.94-.38,1.7-1.14,2.28s-1.75.87-2.97.87c-1.35,0-2.41-.34-3.18-1.03s-1.14-1.48-1.1-2.39l.02-.06h1.84c.03.68.29,1.18.76,1.49.48.31,1.03.47,1.67.47.68,0,1.22-.14,1.61-.42s.58-.64.58-1.09Z"/>
        <path class="cls-2" d="m192.52,321.74c0,1.52-.36,2.75-1.09,3.69s-1.74,1.4-3.02,1.4c-.65,0-1.22-.11-1.71-.33s-.91-.54-1.25-.98v5.17h-1.92v-14.63h1.47l.3,1.37c.34-.51.77-.9,1.29-1.16s1.11-.4,1.8-.4c1.31,0,2.33.52,3.05,1.56s1.09,2.41,1.09,4.12v.21Zm-1.92-.21c0-1.2-.24-2.18-.71-2.95s-1.17-1.16-2.08-1.16c-.55,0-1.03.12-1.42.38-.39.25-.71.59-.95,1.03v5.1c.24.44.56.78.95,1.02.39.24.87.37,1.44.37.91,0,1.6-.33,2.07-1,.47-.67.7-1.53.7-2.58v-.21Z"/>
        <path class="cls-2" d="m199.88,317.75l-.99-.06c-.51,0-.94.12-1.28.36s-.62.58-.81,1.02v7.55h-1.92v-10.57h1.72l.19,1.54c.3-.55.67-.97,1.11-1.28s.95-.46,1.52-.46c.14,0,.28.01.41.03s.24.05.32.07l-.26,1.79Z"/>
        <path class="cls-2" d="m203.81,313.35h-1.92v-1.96h1.92v1.96Zm0,13.27h-1.92v-10.57h1.92v10.57Z"/>
        <path class="cls-2" d="m210.3,323.5l.17.74h.06l.19-.74,2.43-7.45h1.96l-3.89,10.57h-1.46l-3.94-10.57h1.97l2.5,7.45Z"/>
        <path class="cls-2" d="m223.17,326.62c-.07-.32-.12-.6-.15-.84s-.06-.49-.06-.74c-.36.51-.83.93-1.4,1.27s-1.2.51-1.86.51c-1.1,0-1.94-.28-2.51-.84s-.86-1.34-.86-2.33.41-1.8,1.23-2.37,1.93-.85,3.33-.85h2.09v-1.04c0-.62-.19-1.11-.57-1.47s-.91-.54-1.6-.54c-.62,0-1.12.16-1.51.47s-.58.7-.58,1.14h-1.84l-.02-.06c-.04-.77.32-1.47,1.09-2.11s1.75-.96,2.96-.96,2.16.3,2.89.91,1.09,1.49,1.09,2.63v5.09c0,.38.02.74.06,1.09s.11.7.21,1.04h-1.98Zm-3.19-1.42c.7,0,1.33-.18,1.88-.54.56-.36.92-.77,1.09-1.23v-1.71h-2.16c-.77,0-1.4.2-1.86.58-.46.39-.7.85-.7,1.37,0,.47.15.84.44,1.11s.73.41,1.3.41Z"/>
        <path class="cls-2" d="m227.23,321.53c0-1.7.36-3.07,1.09-4.11s1.74-1.56,3.05-1.56c.62,0,1.17.11,1.65.34s.89.56,1.23,1v-5.81h1.92v15.23h-1.57l-.22-1.3c-.34.5-.77.87-1.27,1.12s-1.08.38-1.75.38c-1.29,0-2.3-.47-3.03-1.4s-1.09-2.16-1.09-3.69v-.21Zm1.92.21c0,1.07.22,1.92.65,2.56s1.11.96,2.03.96c.57,0,1.05-.13,1.45-.39s.71-.62.96-1.09v-4.93c-.25-.44-.57-.78-.96-1.04s-.87-.39-1.42-.39c-.92,0-1.61.38-2.05,1.14s-.66,1.75-.66,2.97v.21Z"/>
        <path class="cls-2" d="m245.53,326.62c-.07-.32-.12-.6-.15-.84s-.06-.49-.06-.74c-.36.51-.83.93-1.4,1.27s-1.2.51-1.86.51c-1.1,0-1.94-.28-2.51-.84s-.86-1.34-.86-2.33.41-1.8,1.23-2.37,1.93-.85,3.33-.85h2.09v-1.04c0-.62-.19-1.11-.57-1.47s-.91-.54-1.6-.54c-.62,0-1.12.16-1.51.47s-.58.7-.58,1.14h-1.84l-.02-.06c-.04-.77.32-1.47,1.09-2.11s1.75-.96,2.96-.96,2.16.3,2.89.91,1.09,1.49,1.09,2.63v5.09c0,.38.02.74.06,1.09s.11.7.21,1.04h-1.98Zm-3.19-1.42c.7,0,1.33-.18,1.88-.54.56-.36.92-.77,1.09-1.23v-1.71h-2.16c-.77,0-1.4.2-1.86.58-.46.39-.7.85-.7,1.37,0,.47.15.84.44,1.11s.73.41,1.3.41Z"/>
        <path class="cls-2" d="m256.17,323.81c0-.42-.16-.77-.48-1.04s-.93-.51-1.83-.71c-1.28-.28-2.25-.66-2.9-1.14s-.97-1.13-.97-1.96.36-1.59,1.09-2.19,1.68-.91,2.85-.91c1.23,0,2.21.32,2.93.95s1.07,1.4,1.04,2.3l-.02.06h-1.84c0-.46-.19-.88-.58-1.25s-.9-.55-1.54-.55c-.68,0-1.19.15-1.52.45s-.5.66-.5,1.08.15.75.44.99.89.46,1.79.64c1.33.29,2.33.68,2.98,1.17s.98,1.15.98,1.98c0,.94-.38,1.7-1.14,2.28s-1.75.87-2.97.87c-1.35,0-2.41-.34-3.18-1.03s-1.14-1.48-1.1-2.39l.02-.06h1.84c.03.68.29,1.18.76,1.49.48.31,1.03.47,1.67.47.68,0,1.22-.14,1.61-.42s.58-.64.58-1.09Z"/>
      </g>
      <g>
        <path class="cls-1" d="m140.5,144.05c39.78,0,72.03-32.25,72.03-72.03S180.28,0,140.5,0s-72.03,32.25-72.03,72.03,32.25,72.03,72.03,72.03"/>
        <path class="cls-2" d="m141.39,33.53c-3.43,0-6.22,2.79-6.22,6.22s2.79,6.22,6.22,6.22,6.22-2.79,6.22-6.22-2.79-6.22-6.22-6.22m0,15.5c-5.12,0-9.28-4.16-9.28-9.28s4.16-9.28,9.28-9.28,9.28,4.16,9.28,9.28-4.16,9.28-9.28,9.28"/>
        <path class="cls-2" d="m140.25,110.53h10.39v-.51c0-1.55-1.26-2.81-2.81-2.81h-1.98c-.85,0-1.53-.69-1.53-1.53v-38.06c0-.6.35-1.15.9-1.4.55-.25,1.19-.15,1.64.25l4.11,3.62c.33.29.76.45,1.2.45h12.77c1,0,1.82-.82,1.82-1.82s-.82-1.82-1.82-1.82h-11.51c-.37,0-.73-.14-1.01-.38l-7.59-6.69c-.33-.29-.52-.71-.52-1.15v-2.3c0-1.17-.96-2.13-2.13-2.13h-2.07c-1.77,0-3.21,1.44-3.21,3.21v22.22c0,1.24,1.11,2.18,1.83,2.19.84,0,1.52.69,1.52,1.53v27.11Zm11.92,3.06h-13.45c-.85,0-1.53-.69-1.53-1.53v-27.4c-1.9-.73-3.35-2.74-3.35-4.96v-22.22c0-3.46,2.81-6.27,6.27-6.27h2.07c2.86,0,5.19,2.33,5.19,5.19v1.6l6.63,5.85h10.93c2.69,0,4.88,2.19,4.88,4.88s-2.19,4.88-4.88,4.88h-12.77c-1.19,0-2.34-.43-3.23-1.22l-1.56-1.38v33.13h.45c3.24,0,5.87,2.63,5.87,5.87v2.05c0,.85-.69,1.53-1.53,1.53"/>
        <path class="cls-2" d="m145.85,69.15c-.36,0-.72-.13-1.01-.38l-3.62-3.19c-.64-.56-.7-1.53-.14-2.16.56-.64,1.53-.7,2.16-.14l3.62,3.19c.64.56.7,1.53.14,2.16-.3.34-.72.52-1.15.52"/>
        <path class="cls-2" d="m129.21,49.02c-5.12,0-9.28-4.16-9.28-9.28s4.16-9.28,9.28-9.28c.49,0,.98.04,1.46.11.84.13,1.4.92,1.27,1.75-.13.84-.92,1.4-1.75,1.27-.32-.05-.65-.08-.98-.08-3.43,0-6.22,2.79-6.22,6.22s2.79,6.22,6.22,6.22c.5,0,1-.06,1.48-.18.81-.2,1.65.3,1.85,1.12.2.82-.3,1.65-1.12,1.85-.72.18-1.46.27-2.21.27"/>
        <path class="cls-2" d="m139.98,113.59h-13.45c-.85,0-1.53-.69-1.53-1.53v-27.4c-1.9-.73-3.35-2.74-3.35-4.96v-22.22c0-3.46,2.81-6.27,6.27-6.27h2.07c.4,0,.8.05,1.19.14.82.19,1.34,1.02,1.14,1.84-.19.82-1.02,1.33-1.84,1.14-.16-.04-.32-.06-.49-.06h-2.07c-1.77,0-3.21,1.44-3.21,3.21v22.22c0,1.24,1.11,2.18,1.83,2.19.84,0,1.52.69,1.52,1.53v27.11h11.92c.85,0,1.53.69,1.53,1.53s-.69,1.53-1.53,1.53"/>
        <path class="cls-2" d="m116.81,49.02c-5.12,0-9.28-4.16-9.28-9.28s4.16-9.28,9.28-9.28c.49,0,.98.04,1.46.11.83.13,1.4.92,1.27,1.75-.13.84-.92,1.4-1.75,1.27-.32-.05-.65-.08-.98-.08-3.43,0-6.22,2.79-6.22,6.22s2.79,6.22,6.22,6.22c.5,0,1-.06,1.48-.18.82-.2,1.65.3,1.85,1.12.2.82-.3,1.65-1.12,1.85-.72.18-1.46.27-2.21.27"/>
        <path class="cls-2" d="m127.58,113.59h-13.45c-.85,0-1.53-.69-1.53-1.53v-27.4c-1.9-.73-3.35-2.74-3.35-4.96v-22.22c0-3.46,2.81-6.27,6.27-6.27h2.08c.4,0,.8.05,1.19.14.83.2,1.33,1.02,1.14,1.84-.19.82-1.02,1.33-1.84,1.14-.16-.04-.32-.06-.49-.06h-2.08c-1.77,0-3.21,1.44-3.21,3.21v22.22c0,1.24,1.11,2.18,1.83,2.19.84,0,1.52.69,1.52,1.53v27.11h11.92c.85,0,1.53.69,1.53,1.53s-.69,1.53-1.53,1.53"/>
        <path class="cls-2" d="m104.41,49.02c-5.12,0-9.28-4.16-9.28-9.28s4.16-9.28,9.28-9.28c.49,0,.98.04,1.46.11.83.13,1.4.92,1.27,1.75-.13.84-.92,1.4-1.75,1.27-.32-.05-.65-.08-.98-.08-3.43,0-6.22,2.79-6.22,6.22s2.79,6.22,6.22,6.22c.5,0,1-.06,1.48-.18.82-.2,1.65.3,1.85,1.12.2.82-.3,1.65-1.12,1.85-.72.18-1.46.27-2.21.27"/>
        <path class="cls-2" d="m115.19,113.59h-13.45c-.85,0-1.53-.69-1.53-1.53v-27.4c-1.9-.73-3.35-2.74-3.35-4.96v-22.22c0-3.46,2.81-6.27,6.27-6.27h2.07c.4,0,.8.05,1.19.14.83.2,1.34,1.02,1.14,1.84-.19.82-1.02,1.33-1.84,1.14-.16-.04-.32-.06-.49-.06h-2.07c-1.77,0-3.21,1.44-3.21,3.21v22.22c0,1.24,1.11,2.18,1.83,2.19.84,0,1.52.69,1.52,1.53v27.11h11.92c.85,0,1.53.69,1.53,1.53s-.69,1.53-1.53,1.53"/>
        <path class="cls-2" d="m170.58,54.54c-.85,0-1.53-.69-1.53-1.53v-1.46c0-.85.69-1.53,1.53-1.53s1.53.69,1.53,1.53v1.46c0,.85-.69,1.53-1.53,1.53"/>
        <path class="cls-2" d="m170.58,75.52c-.28,0-.55,0-.83-.02-.85-.04-1.49-.77-1.45-1.61.04-.85.77-1.49,1.61-1.45.22.01.44.02.67.02,6.74,0,12.23-5.49,12.23-12.23s-5.49-12.23-12.23-12.23-12.23,5.49-12.23,12.23c0,.19,0,.38.01.57.04.85-.62,1.56-1.46,1.6-.85.04-1.56-.62-1.6-1.46-.01-.23-.02-.47-.02-.71,0-8.43,6.86-15.3,15.3-15.3s15.3,6.86,15.3,15.3-6.86,15.3-15.3,15.3"/>
        <path class="cls-2" d="m170.58,68.99c-2.98,0-5.4-2.31-5.4-5.14,0-.85.68-1.53,1.53-1.53s1.53.69,1.53,1.53c0,1.15,1.05,2.08,2.34,2.08s2.34-.93,2.34-2.08-1.05-2.08-2.34-2.08c-2.98,0-5.4-2.31-5.4-5.15s2.42-5.14,5.4-5.14,5.4,2.31,5.4,5.14c0,.85-.69,1.53-1.53,1.53s-1.53-.69-1.53-1.53c0-1.15-1.05-2.08-2.34-2.08s-2.34.93-2.34,2.08,1.05,2.08,2.34,2.08c2.98,0,5.4,2.31,5.4,5.15s-2.43,5.14-5.4,5.14"/>
        <path class="cls-2" d="m170.58,70.64c-.85,0-1.53-.69-1.53-1.53v-1.66c0-.85.69-1.53,1.53-1.53s1.53.68,1.53,1.53v1.66c0,.85-.69,1.53-1.53,1.53"/>
        <path class="cls-2" d="m156.23,84.82c-.39,0-.78-.15-1.08-.45l-2.45-2.45c-.6-.6-.6-1.57,0-2.17.6-.6,1.57-.6,2.17,0l2.45,2.45c.6.6.6,1.57,0,2.17-.3.3-.69.45-1.08.45"/>
        <path class="cls-2" d="m153.78,84.82c-.39,0-.78-.15-1.08-.45-.6-.6-.6-1.57,0-2.17l2.45-2.45c.6-.6,1.57-.6,2.17,0s.6,1.57,0,2.17l-2.45,2.45c-.3.3-.69.45-1.08.45"/>
        <path class="cls-2" d="m159.44,100.09c-.39,0-.78-.15-1.08-.45l-2.45-2.45c-.6-.6-.6-1.57,0-2.17.6-.6,1.57-.6,2.17,0l2.45,2.45c.6.6.6,1.57,0,2.17-.3.3-.69.45-1.08.45"/>
        <path class="cls-2" d="m156.99,100.09c-.39,0-.78-.15-1.08-.45-.6-.6-.6-1.57,0-2.17l2.45-2.45c.6-.6,1.57-.6,2.17,0,.6.6.6,1.57,0,2.17l-2.45,2.45c-.3.3-.69.45-1.08.45"/>
        <path class="cls-2" d="m173.47,89.9c-.39,0-.78-.15-1.08-.45l-2.45-2.45c-.6-.6-.6-1.57,0-2.17.6-.6,1.57-.6,2.17,0l2.45,2.45c.6.6.6,1.57,0,2.17-.3.3-.69.45-1.08.45"/>
        <path class="cls-2" d="m171.02,89.9c-.39,0-.78-.15-1.08-.45-.6-.6-.6-1.57,0-2.17l2.45-2.45c.6-.6,1.57-.6,2.17,0s.6,1.57,0,2.17l-2.45,2.45c-.3.3-.69.45-1.08.45"/>
        <path class="cls-2" d="m166.71,113.59h-34.28c-.85,0-1.53-.69-1.53-1.53s.69-1.53,1.53-1.53h34.28c.85,0,1.53.69,1.53,1.53s-.69,1.53-1.53,1.53"/>
      </g>
    </g>
  </g>
</svg>