<?xml version="1.0" encoding="UTF-8"?>
<svg id="Layer_2" data-name="Layer 2" xmlns="http://www.w3.org/2000/svg" viewBox="0 0 96.6 96.6">
  <defs>
    <style>
      .cls-1 {
        fill: #fff;
      }
    </style>
  </defs>
  <g id="Layer_1-2" data-name="Layer 1">
    <path class="cls-1" d="m68.43,96.6H28.18c-1.11,0-2.01-.9-2.01-2.01v-12.07c0-1.11.9-2.01,2.01-2.01v-5.2l-7.46-7.46c-.38-.38-.59-.89-.59-1.42v-12.07h4.03v11.24l7.46,7.46c.38.38.59.89.59,1.42v6.04h32.2v-6.04c0-.53.21-1.05.59-1.42l7.46-7.46v-11.24h4.03v12.07c0,.53-.21,1.05-.59,1.42l-7.46,7.46v5.2c1.11,0,2.01.9,2.01,2.01v12.07c0,1.11-.9,2.01-2.01,2.01Zm-38.24-4.02h36.22v-8.05H30.19v8.05Zm16.1-22.14h-4.03v-9.06l-7.24-5.43c-.51-.38-.81-.98-.81-1.61v-14.09c0-3.33-2.71-6.04-6.04-6.04h-2.01c-1.11,0-2.01.9-2.01,2.01v18.11h-4.03v-2.01H2.01c-1.11,0-2.01-.9-2.01-2.01V2.01C0,.9.9,0,2.01,0h92.57c1.11,0,2.01.9,2.01,2.01v48.3c0,1.11-.9,2.01-2.01,2.01h-52.32v-4.02h50.31V4.02H4.03v44.27h16.1v-12.07c0-3.33,2.71-6.04,6.04-6.04h2.01c5.55,0,10.06,4.51,10.06,10.06v13.08l7.24,5.43c.51.38.81.98.81,1.61v10.06Zm42.26-26.16h-4.02v-4.02h4.02v4.02Zm-76.48,0h-4.02v-4.02h4.02v4.02Zm38.24,0h-4.03v-4.28c-3.47-.9-6.04-4.05-6.04-7.8h4.03c0,2.22,1.81,4.03,4.02,4.03s4.02-1.81,4.02-4.03-1.81-4.02-4.02-4.02c-4.44,0-8.05-3.61-8.05-8.05,0-3.74,2.57-6.9,6.04-7.8v-4.28h4.03v4.28c3.47.9,6.04,4.05,6.04,7.8h-4.03c0-2.22-1.81-4.03-4.02-4.03s-4.02,1.81-4.02,4.03,1.81,4.02,4.02,4.02c4.44,0,8.05,3.61,8.05,8.05,0,3.74-2.57,6.9-6.04,7.8v4.28Zm22.14-10.06c-4.44,0-8.05-3.61-8.05-8.05s3.61-8.05,8.05-8.05,8.05,3.61,8.05,8.05-3.61,8.05-8.05,8.05Zm0-12.07c-2.22,0-4.03,1.81-4.03,4.02s1.81,4.02,4.03,4.02,4.02-1.81,4.02-4.02-1.81-4.02-4.02-4.02Zm-54.3,9.39c-1.32-1.47-2.05-3.38-2.05-5.36,0-4.44,3.61-8.05,8.05-8.05s8.05,3.61,8.05,8.05c0,.92-.15,1.82-.46,2.68l-3.8-1.34c.15-.43.23-.88.23-1.34,0-2.22-1.81-4.02-4.02-4.02s-4.03,1.81-4.03,4.02c0,.99.36,1.94,1.02,2.68l-3,2.68ZM88.55,12.07h-4.02v-4.02h4.02v4.02Zm-76.48,0h-4.02v-4.02h4.02v4.02Z"/>
  </g>
</svg>