<?xml version="1.0" encoding="UTF-8"?>
<svg id="Layer_2" data-name="Layer 2" xmlns="http://www.w3.org/2000/svg" viewBox="0 0 84.91 84.91">
  <defs>
    <style>
      .cls-1 {
        fill: #fff;
      }

      .cls-2 {
        fill: #2566af;
      }
    </style>
  </defs>
  <g id="Layer_1-2" data-name="Layer 1">
    <g>
      <path class="cls-1" d="m42.45,84.91c23.45,0,42.45-19.01,42.45-42.45S65.9,0,42.45,0,0,19.01,0,42.45s19.01,42.45,42.45,42.45"/>
      <path class="cls-2" d="m34.06,19.4c.62,0,1.12.5,1.12,1.12s-.5,1.12-1.12,1.12-1.12-.5-1.12-1.12.5-1.12,1.12-1.12m0,4.08c1.64,0,2.97-1.33,2.97-2.97s-1.33-2.97-2.97-2.97-2.97,1.33-2.97,2.97,1.33,2.97,2.97,2.97m-4.59-6.55l1.64.69c.29.12.63.08.89-.1.15-.1.31-.2.5-.29.28-.13.48-.4.52-.72l.23-1.77h1.61l.23,1.77c.04.31.24.58.52.72.18.08.34.18.49.28.26.18.6.22.89.1l1.64-.69.81,1.4-1.42,1.08c-.25.19-.38.5-.36.81,0,.08.01.17.01.29s0,.2-.01.29c-.03.31.11.62.36.81l1.42,1.08-.81,1.4-1.64-.69c-.29-.12-.62-.09-.88.09-.17.12-.34.21-.5.29-.29.13-.48.41-.52.72l-.23,1.77h-1.62l-.23-1.77c-.04-.31-.23-.58-.52-.72-.17-.08-.34-.18-.5-.29-.26-.18-.59-.22-.88-.1l-1.65.69-.81-1.4,1.42-1.08c.25-.19.39-.5.36-.81,0-.11-.01-.2-.01-.29s0-.18.01-.29c.03-.31-.11-.62-.36-.81l-1.42-1.09.81-1.4Zm-2.24,4.53c-.56.44-.71,1.22-.36,1.83l1.19,2.06c.36.62,1.12.87,1.77.59l1.43-.6.2,1.54c.09.7.7,1.23,1.41,1.23h2.37c.71,0,1.31-.53,1.4-1.23l.2-1.54,1.42.59c.65.28,1.42.03,1.78-.59l1.19-2.05c.36-.61.2-1.4-.36-1.84l-1.23-.94,1.23-.94c.57-.43.73-1.22.37-1.84l-1.19-2.05c-.35-.61-1.11-.87-1.77-.6l-1.43.6-.2-1.54c-.09-.7-.7-1.24-1.4-1.24h-2.37c-.71,0-1.32.53-1.41,1.24l-.2,1.54-1.43-.6c-.66-.27-1.42-.01-1.77.6l-1.19,2.06c-.35.61-.2,1.4.37,1.83l1.24.94-1.23.94s-.01,0-.01,0m21.37-2.24c0-.9.54-1.68,1.31-2.02v-.43c0-.51.41-.92.92-.92s.92.41.92.92v.33c.45.14.85.42,1.13.8.31.41.22.99-.19,1.29-.41.3-.99.22-1.29-.19-.04-.05-.13-.15-.3-.15h-.3c-.2,0-.36.17-.36.37s.17.36.36.36h.15c.07,0,.14.01.21.03,1.07.16,1.9,1.08,1.9,2.19,0,.9-.54,1.68-1.31,2.02v.42c0,.51-.41.92-.92.92s-.92-.41-.92-.92v-.33c-.45-.14-.84-.42-1.13-.8-.3-.41-.22-.99.19-1.29.41-.3.99-.22,1.29.19.04.05.13.15.3.15h.3c.2,0,.36-.17.36-.37s-.16-.36-.36-.36h-.15c-.07,0-.14,0-.21-.03-1.07-.15-1.9-1.08-1.9-2.19m2.24-4.24c3.05,0,5.53,2.48,5.53,5.53s-2.48,5.52-5.53,5.52-5.52-2.48-5.52-5.52,2.48-5.53,5.52-5.53m0,12.9c4.07,0,7.38-3.31,7.38-7.37s-3.31-7.37-7.38-7.37-7.37,3.31-7.37,7.37,3.31,7.37,7.37,7.37m-8.39,3.14c1,0,1.82.82,1.82,1.82s-.82,1.82-1.82,1.82-1.82-.81-1.82-1.82.82-1.82,1.82-1.82m3.4,7.95s.02.04.04.06c.27.44.42.96.42,1.51v2.94h-7.72v-2.94c0-.54.15-1.05.4-1.48.03-.04.05-.08.07-.12.52-.81,1.43-1.34,2.46-1.34h1.85c1.04,0,1.96.55,2.48,1.37m4.09-1.37h1.85c1.62,0,2.94,1.32,2.94,2.94v2.94h-6.56v-2.94c0-.69-.15-1.35-.41-1.94.55-.62,1.36-1,2.19-1Zm.92-6.59c1,0,1.82.82,1.82,1.82s-.82,1.82-1.82,1.82-1.82-.81-1.82-1.82.82-1.82,1.82-1.82m-20.69,9.53c0-1.62,1.32-2.94,2.94-2.94h1.85c.85,0,1.64.36,2.2.99-.27.59-.41,1.25-.41,1.94v2.94h-6.56v-2.94Zm3.86-9.53c1,0,1.82.82,1.82,1.82s-.82,1.82-1.82,1.82-1.82-.81-1.82-1.82.82-1.82,1.82-1.82m4.75,1.82c0,1.27.65,2.39,1.63,3.05-.83.2-1.57.61-2.17,1.18-.61-.58-1.36-.98-2.17-1.18.98-.66,1.63-1.78,1.63-3.05,0-2.02-1.65-3.67-3.67-3.67s-3.67,1.65-3.67,3.67c0,1.27.65,2.39,1.63,3.05-2.1.5-3.67,2.4-3.67,4.66v3.33c0,.81.66,1.46,1.46,1.46h25.32c.81,0,1.46-.66,1.46-1.46v-3.33c0-2.26-1.57-4.15-3.67-4.66.98-.66,1.63-1.78,1.63-3.05,0-2.02-1.65-3.67-3.67-3.67s-3.67,1.65-3.67,3.67c0,1.27.65,2.39,1.64,3.05-.81.2-1.56.6-2.17,1.18-.6-.57-1.35-.98-2.18-1.18.98-.66,1.63-1.78,1.63-3.05,0-2.02-1.65-3.67-3.67-3.67s-3.67,1.65-3.67,3.67m24.31,21.34c-.04,1.46-.6,2.69-1.68,3.67l-2.4,2.18c-1.47,1.33-2.24,3.01-2.29,5v.16s-8.59,0-8.59,0l.16-6.56c.05-2.11.88-3.9,2.44-5.32,2.2-1.99,4.39-3.97,6.59-5.96.43-.4,1.07-.5,1.63-.27.02,0,.04.01.06.02.02.01.04.02.06.03.16.08.3.19.43.33.57.63.52,1.6-.11,2.17l-1.83,1.66c-1.25,1.13-2.51,2.27-3.76,3.4-.38.34-.41.93-.06,1.3.18.2.43.3.68.3.22,0,.44-.08.62-.24,1.25-1.14,2.5-2.27,3.76-3.4l1.83-1.66c1.38-1.25,1.49-3.39.24-4.77-.18-.21-.39-.38-.62-.54l.2-7.85c.02-.84.73-1.52,1.57-1.49.84.02,1.52.73,1.49,1.57l-.41,16.28Zm-3.8,15.97h-13.82s0-3.13,0-3.13h12.09s.01.01.02.01h.02s.02,0,.04,0h1.65s0,3.12,0,3.12Zm5.13-34.61c-.62-.66-1.46-1.03-2.36-1.05-1.86-.05-3.42,1.43-3.47,3.29l-.18,7.32c-.85-.02-1.69.29-2.33.87-2.2,1.99-4.39,3.97-6.59,5.96-1.95,1.77-2.98,4-3.05,6.64l-.16,6.6h-1.09c-.86,0-1.57.7-1.57,1.56v3.68c0,.86.7,1.57,1.56,1.57h14.39c.86.01,1.57-.69,1.57-1.55v-3.68c0-.87-.7-1.57-1.56-1.57h-1.02s0-.11,0-.11c.04-1.46.61-2.7,1.69-3.67l2.4-2.18c1.47-1.33,2.24-3.01,2.29-4.99l.41-16.28c.02-.9-.31-1.76-.93-2.41m-38.8,34.61v-3.12s1.64,0,1.64,0c.01,0,.02,0,.03,0h.02s.01,0,.02,0h12.1s0,3.11,0,3.11h-13.82Zm2.57-5.13c-.05-1.98-.82-3.66-2.29-4.99l-2.41-2.18c-1.08-.98-1.65-2.21-1.68-3.67l-.41-16.28c-.01-.41.14-.79.42-1.09.28-.3.66-.47,1.07-.48.85-.02,1.55.65,1.57,1.49l.2,7.85c-.22.15-.43.33-.61.53-1.25,1.38-1.14,3.52.24,4.78l1.81,1.64c1.26,1.14,2.52,2.28,3.78,3.42.18.16.4.24.62.24.25,0,.5-.1.68-.3.34-.38.31-.96-.06-1.31-1.26-1.14-2.52-2.28-3.78-3.42l-1.81-1.64c-.63-.57-.68-1.54-.11-2.17.12-.14.27-.25.42-.33.02,0,.04-.02.05-.03.02,0,.04-.01.06-.02.55-.23,1.19-.12,1.63.28,2.2,1.99,4.39,3.97,6.59,5.96,1.57,1.42,2.39,3.2,2.44,5.32l.17,6.56h-8.59s0-.15,0-.15Zm11.52.15h-1.08s-.17-6.6-.17-6.6c-.07-2.64-1.09-4.87-3.05-6.64-2.2-1.99-4.39-3.98-6.59-5.96-.64-.59-1.48-.89-2.33-.87l-.18-7.32c-.05-1.86-1.61-3.34-3.47-3.29-.9.02-1.74.39-2.37,1.05-.62.66-.96,1.51-.93,2.41l.41,16.28c.05,1.98.82,3.66,2.29,4.99l2.41,2.18c1.08.98,1.65,2.21,1.68,3.67v.11s-1.02,0-1.02,0c-.42,0-.81.17-1.11.46-.3.3-.46.7-.45,1.11v3.68c0,.86.71,1.56,1.57,1.56h14.39c.86-.01,1.56-.72,1.56-1.58v-3.68c0-.86-.7-1.57-1.57-1.57"/>
    </g>
  </g>
</svg>