<?xml version="1.0" encoding="UTF-8"?>
<svg id="Layer_2" data-name="Layer 2" xmlns="http://www.w3.org/2000/svg" viewBox="0 0 84.91 84.91">
  <defs>
    <style>
      .cls-1 {
        fill: #fff;
      }

      .cls-2 {
        fill: #2566af;
      }
    </style>
  </defs>
  <g id="Layer_1-2" data-name="Layer 1">
    <g>
      <path class="cls-1" d="m42.45,84.91c23.45,0,42.45-19.01,42.45-42.45S65.9,0,42.45,0,0,19.01,0,42.45s19.01,42.45,42.45,42.45"/>
      <g>
        <path class="cls-2" d="m61.14,31.82h-21.14v-9.81h21.14l4.2,4.91-4.2,4.9Zm-26.86-2.45h-14.72v-9.81h14.72v9.81Zm1.64-9.18l2.45,1.47v9.54l-2.45-1.47v-9.54Zm26.47.76c-.31-.36-.76-.57-1.24-.57h-21.73l-3.89-2.34s-.04-.01-.05-.02c-.05-.02-.1-.04-.15-.06-.05-.02-.1-.03-.16-.03-.02,0-.04-.01-.06-.01h-15.54c-.9,0-1.63.73-1.63,1.64v9.81c0,.9.73,1.64,1.63,1.64h15.31l3.89,2.34s.04.02.07.03c.02,0,.05.02.07.03.09.04.18.05.28.06h21.96c.48,0,.93-.21,1.24-.57l4.2-4.91c.53-.61.53-1.51,0-2.12l-4.2-4.91Z"/>
        <path class="cls-2" d="m61.14,48.18h-21.14v-9.81h21.14l4.2,4.91-4.2,4.9Zm-26.86-2.45h-14.72v-9.81h14.72v9.81Zm1.64-9.18l2.45,1.47v9.54l-2.45-1.47v-9.54Zm26.47.76c-.31-.36-.76-.57-1.24-.57h-21.73l-3.89-2.34s-.04-.01-.05-.02c-.05-.02-.1-.04-.15-.06-.05-.02-.11-.03-.16-.03-.02,0-.04-.01-.05-.01h-15.53c-.9,0-1.63.73-1.63,1.64v9.81c0,.9.73,1.64,1.63,1.64h15.31l3.89,2.34s.04.02.07.03c.02,0,.05.02.07.03.09.04.18.05.28.06h21.96c.48,0,.93-.21,1.24-.57l4.2-4.91c.53-.61.53-1.51,0-2.12l-4.2-4.91Z"/>
        <path class="cls-2" d="m61.14,65.35h-21.14v-9.81h21.14l4.2,4.91-4.2,4.9Zm-26.86-2.45h-14.72v-9.81h14.72v9.81Zm1.64-9.18l2.45,1.47v9.54l-2.45-1.47v-9.54Zm26.47.76c-.31-.36-.76-.57-1.24-.57h-21.73l-3.89-2.34s-.04-.01-.05-.02c-.05-.02-.1-.04-.15-.06-.05-.02-.11-.03-.16-.03-.02,0-.04-.01-.05-.01h-15.53c-.9,0-1.63.73-1.63,1.64v9.81c0,.9.73,1.64,1.63,1.64h15.31l3.89,2.34s.04.02.07.03c.02,0,.05.02.07.03.09.04.18.05.28.06h21.96c.48,0,.93-.21,1.24-.57l4.2-4.91c.53-.61.53-1.51,0-2.12l-4.2-4.91Z"/>
        <path class="cls-2" d="m22.83,23.65c0-.45.37-.82.82-.82s.82.37.82.82v1.64c0,.45-.37.82-.82.82s-.82-.37-.82-.82v-1.64Zm.82,4.09c1.35,0,2.45-1.1,2.45-2.45v-1.64c0-1.36-1.1-2.45-2.45-2.45s-2.45,1.1-2.45,2.45v1.64c0,1.35,1.1,2.45,2.45,2.45"/>
        <path class="cls-2" d="m27.74,26.92c0,.45.37.82.82.82h1.63c.45,0,.82-.37.82-.82s-.37-.82-.82-.82v-4.09c0-.45-.37-.82-.82-.82-.22,0-.42.09-.58.24l-.82.82c-.32.32-.32.84,0,1.16.15.15.36.24.58.24v2.45c-.45,0-.82.37-.82.82"/>
        <path class="cls-2" d="m22.83,40c0-.45.37-.82.82-.82s.82.37.82.82v1.64c0,.45-.37.82-.82.82s-.82-.37-.82-.82v-1.64Zm.82,4.09c1.35,0,2.45-1.1,2.45-2.45v-1.64c0-1.36-1.1-2.45-2.45-2.45s-2.45,1.1-2.45,2.45v1.64c0,1.35,1.1,2.45,2.45,2.45"/>
        <path class="cls-2" d="m22.83,57.17c0-.45.37-.82.82-.82s.82.37.82.82v1.64c0,.45-.37.82-.82.82s-.82-.37-.82-.82v-1.64Zm.82,4.09c1.35,0,2.45-1.1,2.45-2.45v-1.64c0-1.36-1.1-2.45-2.45-2.45s-2.45,1.1-2.45,2.45v1.64c0,1.35,1.1,2.45,2.45,2.45"/>
        <path class="cls-2" d="m28.23,39.94c.41.18.9-.01,1.07-.43t0,0c.07-.2.26-.33.47-.32.23,0,.41.18.41.41-.27,1.11-.88,2.12-1.75,2.87-.45.06-.76.48-.69.93.06.4.4.7.81.7h3.27c.45,0,.82-.37.82-.82s-.37-.82-.82-.82h-1.19c.64-.83,1.05-1.82,1.19-2.86,0-1.13-.92-2.04-2.04-2.04-.87-.01-1.65.51-1.98,1.31-.18.42.02.9.43,1.07h0"/>
        <path class="cls-2" d="m29.74,59.62c-.19,0-.35-.11-.42-.28-.17-.42-.65-.62-1.07-.45-.4.16-.6.6-.47,1.01.4,1.08,1.6,1.63,2.68,1.22.8-.3,1.34-1.06,1.36-1.91,0-.44-.15-.87-.42-1.23.27-.35.42-.78.42-1.23-.02-1.15-.97-2.07-2.12-2.04-.86.02-1.62.55-1.91,1.36-.17.42.03.9.45,1.06.42.17.9-.03,1.07-.45,0-.02.01-.04.02-.06.07-.17.24-.28.42-.28.23,0,.43.17.44.41,0,.12-.06.23-.15.31-.51.42-.58,1.18-.16,1.69.05.06.1.11.16.16.09.07.15.19.15.31-.01.24-.21.42-.44.41"/>
        <path class="cls-2" d="m48.18,26.1h6.54c.45,0,.82-.37.82-.82s-.37-.82-.82-.82h-6.54c-.45,0-.82.37-.82.82s.37.82.82.82"/>
        <path class="cls-2" d="m59.62,27.74h-.82c-.45,0-.82.37-.82.82s.37.82.82.82h.82c.45,0,.82-.37.82-.82s-.37-.82-.82-.82"/>
        <path class="cls-2" d="m55.53,27.74h-8.18c-.45,0-.82.37-.82.82s.37.82.82.82h8.18c.45,0,.82-.37.82-.82s-.37-.82-.82-.82"/>
        <path class="cls-2" d="m44.09,27.74h-1.64c-.45,0-.82.37-.82.82s.37.82.82.82h1.64c.45,0,.82-.37.82-.82s-.37-.82-.82-.82"/>
        <path class="cls-2" d="m48.18,42.45h6.54c.45,0,.82-.37.82-.82s-.37-.82-.82-.82h-6.54c-.45,0-.82.37-.82.82s.37.82.82.82"/>
        <path class="cls-2" d="m59.62,44.09h-.82c-.45,0-.82.37-.82.82s.37.82.82.82h.82c.45,0,.82-.37.82-.82s-.37-.82-.82-.82"/>
        <path class="cls-2" d="m55.53,44.09h-8.18c-.45,0-.82.37-.82.82s.37.82.82.82h8.18c.45,0,.82-.37.82-.82s-.37-.82-.82-.82"/>
        <path class="cls-2" d="m44.09,44.09h-1.64c-.45,0-.82.37-.82.82s.37.82.82.82h1.64c.45,0,.82-.37.82-.82s-.37-.82-.82-.82"/>
        <path class="cls-2" d="m48.18,59.62h6.54c.45,0,.82-.37.82-.82s-.37-.82-.82-.82h-6.54c-.45,0-.82.37-.82.82s.37.82.82.82"/>
        <path class="cls-2" d="m59.62,61.26h-.82c-.45,0-.82.37-.82.82s.37.82.82.82h.82c.45,0,.82-.37.82-.82s-.37-.82-.82-.82"/>
        <path class="cls-2" d="m55.53,61.26h-8.18c-.45,0-.82.37-.82.82s.37.82.82.82h8.18c.45,0,.82-.37.82-.82s-.37-.82-.82-.82"/>
        <path class="cls-2" d="m44.09,61.26h-1.64c-.45,0-.82.37-.82.82s.37.82.82.82h1.64c.45,0,.82-.37.82-.82s-.37-.82-.82-.82"/>
      </g>
    </g>
  </g>
</svg>