<?xml version="1.0" encoding="UTF-8"?>
<svg id="Layer_2" data-name="Layer 2" xmlns="http://www.w3.org/2000/svg" xmlns:xlink="http://www.w3.org/1999/xlink" viewBox="0 0 828 287.49">
  <defs>
    <style>
      .cls-1 {
        fill: url(#linear-gradient-2);
      }

      .cls-2, .cls-3 {
        fill: #fff;
      }

      .cls-4 {
        letter-spacing: 0em;
      }

      .cls-5 {
        letter-spacing: 0em;
      }

      .cls-3 {
        font-family: Roboto-Medium, Roboto;
        font-weight: 500;
      }

      .cls-3, .cls-6 {
        font-size: 18.66px;
      }

      .cls-7 {
        letter-spacing: 0em;
      }

      .cls-8 {
        letter-spacing: 0em;
      }

      .cls-9 {
        letter-spacing: -.06em;
      }

      .cls-10 {
        letter-spacing: 0em;
      }

      .cls-6, .cls-11, .cls-12 {
        font-family: Roboto-Regular, Roboto;
      }

      .cls-6, .cls-12 {
        fill: #4a4a49;
      }

      .cls-13 {
        letter-spacing: 0em;
      }

      .cls-14 {
        letter-spacing: .03em;
      }

      .cls-15 {
        letter-spacing: -.02em;
      }

      .cls-16 {
        letter-spacing: 0em;
      }

      .cls-17 {
        letter-spacing: -.01em;
      }

      .cls-18 {
        letter-spacing: 0em;
      }

      .cls-19 {
        letter-spacing: 0em;
      }

      .cls-20 {
        letter-spacing: 0em;
      }

      .cls-21 {
        letter-spacing: .02em;
      }

      .cls-22 {
        letter-spacing: 0em;
      }

      .cls-23 {
        letter-spacing: .01em;
      }

      .cls-24 {
        letter-spacing: 0em;
      }

      .cls-11 {
        fill: #646363;
        font-size: 15.55px;
      }

      .cls-25 {
        stroke: #fff;
        stroke-width: .39px;
      }

      .cls-25, .cls-26, .cls-27 {
        fill: none;
        stroke-miterlimit: 10;
      }

      .cls-28 {
        letter-spacing: -.02em;
      }

      .cls-29 {
        letter-spacing: .01em;
      }

      .cls-30 {
        letter-spacing: 0em;
      }

      .cls-31 {
        letter-spacing: 0em;
      }

      .cls-32 {
        letter-spacing: .01em;
      }

      .cls-33 {
        letter-spacing: -.01em;
      }

      .cls-34 {
        letter-spacing: 0em;
      }

      .cls-26 {
        stroke: url(#linear-gradient);
        stroke-width: 4px;
      }

      .cls-35 {
        letter-spacing: 0em;
      }

      .cls-36 {
        letter-spacing: 0em;
      }

      .cls-12 {
        font-size: 17.1px;
      }

      .cls-37 {
        letter-spacing: 0em;
      }

      .cls-38 {
        letter-spacing: 0em;
      }

      .cls-39 {
        letter-spacing: 0em;
      }

      .cls-40 {
        letter-spacing: 0em;
      }

      .cls-41 {
        letter-spacing: 0em;
      }

      .cls-42 {
        letter-spacing: 0em;
      }

      .cls-43 {
        letter-spacing: 0em;
      }

      .cls-44 {
        letter-spacing: .01em;
      }

      .cls-45 {
        letter-spacing: 0em;
      }

      .cls-46 {
        letter-spacing: 0em;
      }

      .cls-47 {
        letter-spacing: .01em;
      }

      .cls-27 {
        stroke: #009b3e;
        stroke-width: .78px;
      }

      .cls-48 {
        letter-spacing: .01em;
      }
    </style>
    <linearGradient id="linear-gradient" x1="18" y1="231.01" x2="799" y2="231.01" gradientUnits="userSpaceOnUse">
      <stop offset="0" stop-color="#1e6f41"/>
      <stop offset=".01" stop-color="#1e6f41"/>
      <stop offset=".5" stop-color="#05933f"/>
      <stop offset="1" stop-color="#c4d64e"/>
      <stop offset="1" stop-color="#c4d64e"/>
    </linearGradient>
    <linearGradient id="linear-gradient-2" x1="-4909.75" y1="3089.97" x2="-4908.7" y2="3089.97" gradientTransform="translate(3860853.09 2429891.88) scale(786.36 -786.36)" gradientUnits="userSpaceOnUse">
      <stop offset="0" stop-color="#00acec"/>
      <stop offset=".37" stop-color="#4087c7"/>
      <stop offset=".79" stop-color="#2566af"/>
      <stop offset=".99" stop-color="#1c336e"/>
      <stop offset="1" stop-color="#1c336e"/>
    </linearGradient>
  </defs>
  <g id="Layer_1-2" data-name="Layer 1">
    <g>
      <rect class="cls-2" y=".49" width="828" height="287" rx="16.93" ry="16.93"/>
      <g>
        <line class="cls-27" x1="27" y1="125.97" x2="808" y2="125.97"/>
        <line class="cls-27" x1="24" y1="160.99" x2="805" y2="160.99"/>
        <line class="cls-27" x1="21" y1="196" x2="802" y2="196"/>
        <line class="cls-26" x1="18" y1="231.01" x2="799" y2="231.01"/>
        <g>
          <rect class="cls-1" width="828" height="88.99"/>
          <line class="cls-25" x1="215.62" y1="88.6" x2="215.62" y2=".19"/>
          <line class="cls-25" x1="316.62" y1="88.6" x2="316.62" y2=".19"/>
          <line class="cls-25" x1="478.62" y1="88.6" x2="478.62" y2=".19"/>
          <line class="cls-25" x1="578.62" y1="88.6" x2="578.62" y2=".19"/>
          <line class="cls-25" x1="722.62" y1="88.6" x2="722.62" y2=".19"/>
          <text class="cls-3" transform="translate(101.2 49.49)"><tspan class="cls-8" x="0" y="0">T</tspan><tspan class="cls-4" x="10.76" y="0">i</tspan><tspan class="cls-30" x="15.77" y="0">p</tspan><tspan class="cls-16" x="26.52" y="0">o</tspan></text>
          <text class="cls-3" transform="translate(246.73 49.49)"><tspan class="cls-30" x="0" y="0">202</tspan><tspan x="32.38" y="0">2</tspan></text>
          <text class="cls-3" transform="translate(335.7 26.17)"><tspan class="cls-30" x="0" y="0">% p</tspan><tspan class="cls-4" x="29.48" y="0">a</tspan><tspan class="cls-14" x="39.8" y="0">r</tspan><tspan class="cls-30" x="46.89" y="0">t</tspan><tspan class="cls-4" x="53.57" y="0">ici</tspan><tspan class="cls-30" x="73.54" y="0">pa</tspan><tspan class="cls-18" x="94.63" y="0">ci</tspan><tspan class="cls-30" x="109.6" y="0">ó</tspan><tspan class="cls-16" x="120.36" y="0">n </tspan></text>
          <text class="cls-3" transform="translate(353.54 49.49)"><tspan class="cls-30" x="0" y="0">po</tspan><tspan class="cls-5" x="21.51" y="0">r</tspan><tspan class="cls-30" x="28.14" y="0" xml:space="preserve"> t</tspan><tspan class="cls-18" x="39.65" y="0">i</tspan><tspan class="cls-10" x="44.65" y="0">p</tspan><tspan class="cls-4" x="55.41" y="0">o</tspan><tspan class="cls-30" x="66.15" y="0" xml:space="preserve"> d</tspan><tspan class="cls-20" x="81.73" y="0">e </tspan></text>
          <text class="cls-3" transform="translate(366.17 72.82)"><tspan class="cls-47" x="0" y="0">e</tspan><tspan class="cls-4" x="10.06" y="0">mi</tspan><tspan class="cls-30" x="31.46" y="0">s</tspan><tspan class="cls-18" x="41.35" y="0">ió</tspan><tspan x="57.1" y="0">n</tspan></text>
          <text class="cls-3" transform="translate(509.52 49.49)"><tspan class="cls-30" x="0" y="0">202</tspan><tspan x="32.38" y="0">3</tspan></text>
          <text class="cls-3" transform="translate(584.18 26.17)"><tspan class="cls-30" x="0" y="0">% p</tspan><tspan class="cls-4" x="29.48" y="0">a</tspan><tspan class="cls-14" x="39.8" y="0">r</tspan><tspan class="cls-4" x="46.89" y="0">ti</tspan><tspan class="cls-47" x="58.55" y="0">c</tspan><tspan class="cls-4" x="68.53" y="0">i</tspan><tspan class="cls-30" x="73.54" y="0">p</tspan><tspan class="cls-4" x="84.3" y="0">a</tspan><tspan class="cls-47" x="94.61" y="0">c</tspan><tspan class="cls-4" x="104.6" y="0">i</tspan><tspan class="cls-10" x="109.6" y="0">ó</tspan><tspan x="120.36" y="0">n </tspan></text>
          <text class="cls-3" transform="translate(602.02 49.49)"><tspan class="cls-30" x="0" y="0">p</tspan><tspan class="cls-5" x="10.76" y="0">o</tspan><tspan class="cls-30" x="21.49" y="0">r t</tspan><tspan class="cls-18" x="39.65" y="0">i</tspan><tspan class="cls-10" x="44.65" y="0">p</tspan><tspan class="cls-4" x="55.41" y="0">o</tspan><tspan class="cls-30" x="66.15" y="0" xml:space="preserve"> d</tspan><tspan class="cls-20" x="81.73" y="0">e </tspan></text>
          <text class="cls-3" transform="translate(614.65 72.82)"><tspan class="cls-47" x="0" y="0">e</tspan><tspan class="cls-4" x="10.06" y="0">misi</tspan><tspan class="cls-10" x="46.34" y="0">ó</tspan><tspan x="57.1" y="0">n</tspan></text>
          <text class="cls-3" transform="translate(750.9 49.49)"><tspan class="cls-28" x="0" y="0">V</tspan><tspan class="cls-39" x="11.43" y="0">ar</tspan><tspan class="cls-23" x="28.38" y="0"> </tspan><tspan x="33.21" y="0">%</tspan></text>
        </g>
        <text class="cls-12" transform="translate(27.29 113.3)"><tspan class="cls-31" x="0" y="0">E</tspan><tspan class="cls-24" x="10.17" y="0">m</tspan><tspan class="cls-29" x="25.27" y="0">i</tspan><tspan class="cls-24" x="29.75" y="0">s</tspan><tspan class="cls-29" x="38.85" y="0">ió</tspan><tspan class="cls-40" x="53.23" y="0">n</tspan><tspan class="cls-29" x="63.1" y="0" xml:space="preserve"> p</tspan><tspan class="cls-32" x="77.42" y="0">r</tspan><tspan class="cls-29" x="83.5" y="0">ima</tspan><tspan class="cls-32" x="112.68" y="0">r</tspan><tspan class="cls-29" x="118.76" y="0">i</tspan><tspan class="cls-24" x="123.25" y="0">a</tspan><tspan class="cls-29" x="132.8" y="0" xml:space="preserve"> C</tspan><tspan class="cls-33" x="148.23" y="0">D</tspan><tspan x="159.26" y="0">T</tspan></text>
        <text class="cls-12" transform="translate(231.22 113.3)"><tspan class="cls-31" x="0" y="0">4.450.97</tspan><tspan x="68.31" y="0">0 </tspan></text>
        <text class="cls-12" transform="translate(379.93 113.3)"><tspan class="cls-31" x="0" y="0">77 </tspan><tspan class="cls-37" x="24.02" y="0">%</tspan></text>
        <text class="cls-12" transform="translate(494 113.3)"><tspan class="cls-31" x="0" y="0">6.699.76</tspan><tspan x="68.3" y="0">8 </tspan></text>
        <text class="cls-12" transform="translate(628.41 113.3)"><tspan class="cls-31" x="0" y="0">80 </tspan><tspan x="24.03" y="0">%</tspan></text>
        <text class="cls-12" transform="translate(742.47 113.3)"><tspan class="cls-31" x="0" y="0">51 </tspan><tspan class="cls-46" x="24.02" y="0">%</tspan></text>
        <text class="cls-12" transform="translate(27.28 149.47)"><tspan class="cls-44" x="0" y="0">R</tspan><tspan class="cls-31" x="11.57" y="0">en</tspan><tspan class="cls-13" x="30.68" y="0">o</tspan><tspan class="cls-19" x="40.44" y="0">v</tspan><tspan class="cls-31" x="49.14" y="0">ac</tspan><tspan class="cls-24" x="67.97" y="0">i</tspan><tspan class="cls-29" x="72.43" y="0">ón C</tspan><tspan class="cls-33" x="107.64" y="0">D</tspan><tspan x="118.67" y="0">T</tspan></text>
        <text class="cls-12" transform="translate(231.2 149.47)"><tspan class="cls-31" x="0" y="0">1.358.49</tspan><tspan x="68.3" y="0">2 </tspan></text>
        <text class="cls-12" transform="translate(379.91 149.47)"><tspan class="cls-31" x="0" y="0">23 </tspan><tspan class="cls-37" x="24.02" y="0">%</tspan></text>
        <text class="cls-12" transform="translate(493.99 149.47)"><tspan class="cls-31" x="0" y="0">1.710.20</tspan><tspan x="68.32" y="0">0 </tspan></text>
        <text class="cls-12" transform="translate(628.4 149.47)"><tspan class="cls-31" x="0" y="0">20 </tspan><tspan x="24.03" y="0">%</tspan></text>
        <text class="cls-12" transform="translate(742.45 149.47)"><tspan class="cls-31" x="0" y="0">26 </tspan><tspan class="cls-46" x="24.02" y="0">%</tspan></text>
        <text class="cls-12" transform="translate(27.26 183.64)"><tspan class="cls-44" x="0" y="0">B</tspan><tspan class="cls-24" x="11.17" y="0">o</tspan><tspan class="cls-29" x="21.05" y="0">no</tspan><tspan class="cls-37" x="40.83" y="0">s</tspan></text>
        <text class="cls-12" transform="translate(261.6 183.64)"><tspan class="cls-29" x="0" y="0"> </tspan><tspan x="4.42" y="0">-</tspan><tspan class="cls-21" x="9.11" y="0"> </tspan><tspan class="cls-31" x="13.7" y="0"> </tspan><tspan class="cls-37" x="18.12" y="0"> </tspan></text>
        <text class="cls-12" transform="translate(384.38 183.64)"><tspan class="cls-31" x="0" y="0">0 </tspan><tspan x="14.23" y="0">%</tspan></text>
        <text class="cls-12" transform="translate(524.4 183.64)"><tspan class="cls-29" x="0" y="0"> </tspan><tspan x="4.42" y="0">-</tspan><tspan class="cls-21" x="9.11" y="0"> </tspan><tspan class="cls-31" x="13.7" y="0"> </tspan><tspan class="cls-37" x="18.12" y="0"> </tspan></text>
        <text class="cls-12" transform="translate(632.88 183.64)"><tspan class="cls-31" x="0" y="0">0 </tspan><tspan x="14.23" y="0">%</tspan></text>
        <text class="cls-12" transform="translate(746.93 183.64)"><tspan class="cls-31" x="0" y="0">0 </tspan><tspan x="14.23" y="0">%</tspan></text>
        <text class="cls-6" transform="translate(27.29 218.97)"><tspan class="cls-9" x="0" y="0">T</tspan><tspan class="cls-30" x="9.8" y="0">ot</tspan><tspan class="cls-4" x="27.23" y="0">a</tspan><tspan class="cls-10" x="37.65" y="0">l ge</tspan><tspan class="cls-4" x="68.21" y="0">n</tspan><tspan class="cls-30" x="78.98" y="0">e</tspan><tspan class="cls-45" x="89.04" y="0">r</tspan><tspan class="cls-4" x="95.53" y="0">a</tspan><tspan x="105.96" y="0">l</tspan></text>
        <text class="cls-6" transform="translate(228.04 218.97)"><tspan class="cls-30" x="0" y="0">5.809.46</tspan><tspan x="74.52" y="0">2 </tspan></text>
        <text class="cls-6" transform="translate(383.21 218.97)"><tspan class="cls-30" x="0" y="0">0 </tspan><tspan x="15.53" y="0">%</tspan></text>
        <text class="cls-6" transform="translate(490.84 218.97)"><tspan class="cls-30" x="0" y="0">8.409.96</tspan><tspan x="74.52" y="0">8 </tspan></text>
        <text class="cls-6" transform="translate(621.95 218.97)"><tspan class="cls-30" x="0" y="0">100 </tspan><tspan class="cls-16" x="36.92" y="0">%</tspan></text>
        <text class="cls-6" transform="translate(740.89 218.97)"><tspan class="cls-23" x="0" y="0">45 </tspan><tspan class="cls-34" x="26.21" y="0">%</tspan></text>
        <text class="cls-11" transform="translate(27.43 267.47)"><tspan class="cls-15" x="0" y="0">F</tspan><tspan class="cls-35" x="8.69" y="0">ue</tspan><tspan class="cls-42" x="26.06" y="0">n</tspan><tspan class="cls-43" x="34.99" y="0">t</tspan><tspan class="cls-35" x="40.41" y="0">e </tspan><tspan class="cls-17" x="52.81" y="0">F</tspan><tspan class="cls-38" x="61.63" y="0">i</tspan><tspan class="cls-48" x="65.69" y="0">nde</tspan><tspan class="cls-7" x="92.06" y="0">t</tspan><tspan class="cls-35" x="97.5" y="0">er 2023 - </tspan><tspan class="cls-36" x="163.48" y="0">C</tspan><tspan class="cls-48" x="173.44" y="0">if</tspan><tspan class="cls-41" x="183.04" y="0">r</tspan><tspan class="cls-48" x="188.44" y="0">a</tspan><tspan class="cls-22" x="197.15" y="0">s</tspan><tspan class="cls-35" x="205.42" y="0" xml:space="preserve"> en </tspan><tspan class="cls-22" x="230.83" y="0">mi</tspan><tspan class="cls-35" x="248.62" y="0">l</tspan><tspan class="cls-38" x="252.7" y="0">l</tspan><tspan class="cls-48" x="256.75" y="0">o</tspan><tspan class="cls-22" x="265.75" y="0">n</tspan><tspan class="cls-35" x="274.72" y="0">e</tspan><tspan class="cls-38" x="283.1" y="0">s</tspan><tspan class="cls-48" x="291.37" y="0" xml:space="preserve"> de pe</tspan><tspan class="cls-38" x="334.16" y="0">so</tspan><tspan x="351.41" y="0">s.</tspan></text>
      </g>
    </g>
  </g>
</svg>