<?xml version="1.0" encoding="UTF-8"?>
<svg id="Layer_2" data-name="Layer 2" xmlns="http://www.w3.org/2000/svg" viewBox="0 0 94.76 94.76">
  <defs>
    <style>
      .cls-1 {
        fill: #fff;
      }
    </style>
  </defs>
  <g id="Layer_1-2" data-name="Layer 1">
    <path class="cls-1" d="m88.84,94.76h-43.43c-3.27,0-5.92-2.66-5.92-5.92v-53.3h3.95v41.46c0,1.09.89,1.97,1.97,1.97h43.43c1.09,0,1.97-.89,1.97-1.97V17.77c0-1.09-.89-1.97-1.97-1.97h-21.72v-3.95h21.72c.69,0,1.36.12,1.97.34v-6.26c0-1.09-.89-1.97-1.97-1.97h-43.43c-1.09,0-1.97.89-1.97,1.97v5.92h15.79c3.27,0,5.92,2.66,5.92,5.92v1.98c0,5.44-4.43,9.87-9.87,9.87h-13l-7.32,7.32c-.37.37-.87.58-1.4.58h-7.9v-3.95h7.08l7.32-7.32c.37-.37.87-.58,1.4-.58h13.82c3.27,0,5.92-2.66,5.92-5.92v-1.98c0-1.09-.89-1.97-1.97-1.97h-28.8l-7.32,7.32c-.37.37-.87.58-1.4.58h-5.92v31.59h5.92c.52,0,1.03.21,1.4.58l7.32,7.32h7.08v3.95h-7.9c-.52,0-1.03-.21-1.4-.58l-7.32-7.32h-5.1c0,1.09-.88,1.97-1.97,1.97H1.97c-1.09,0-1.97-.88-1.97-1.97V19.74c0-1.09.88-1.97,1.97-1.97h11.85c1.09,0,1.97.88,1.97,1.97h5.1l7.32-7.32c.37-.37.87-.58,1.4-.58h9.87v-5.92c0-3.27,2.66-5.92,5.92-5.92h43.43c3.27,0,5.92,2.66,5.92,5.92v82.92c0,3.27-2.66,5.92-5.92,5.92Zm-45.41-12.18v6.26c0,1.09.89,1.97,1.97,1.97h43.43c1.09,0,1.97-.89,1.97-1.97v-6.26c-.62.22-1.28.34-1.97.34h-43.43c-.69,0-1.36-.12-1.97-.34ZM3.95,57.25h7.9V21.72H3.95v35.53Zm76.99,31.59h-3.95v-3.95h3.95v3.95Zm-11.85,0h-3.95v-3.95h3.95v3.95Zm-11.85,0h-3.95v-3.95h3.95v3.95Zm11.85-23.69h-3.95v-4.2c-3.4-.88-5.92-3.97-5.92-7.65h3.95c0,2.18,1.77,3.95,3.95,3.95s3.95-1.77,3.95-3.95-1.77-3.95-3.95-3.95c-4.35,0-7.9-3.54-7.9-7.9,0-3.67,2.52-6.77,5.92-7.65v-4.2h3.95v4.2c3.4.88,5.92,3.97,5.92,7.65h-3.95c0-2.18-1.77-3.95-3.95-3.95s-3.95,1.77-3.95,3.95,1.77,3.95,3.95,3.95c4.35,0,7.9,3.54,7.9,7.9,0,3.67-2.52,6.77-5.92,7.65v4.2Zm0-55.28h-3.95v-3.95h3.95v3.95Z"/>
  </g>
</svg>