<?xml version="1.0" encoding="UTF-8"?>
<svg id="Layer_2" data-name="Layer 2" xmlns="http://www.w3.org/2000/svg" xmlns:xlink="http://www.w3.org/1999/xlink" viewBox="0 0 169.82 185.94">
  <defs>
    <style>
      .cls-1 {
        fill: #1e6f41;
      }

      .cls-2 {
        clip-path: url(#clippath);
      }

      .cls-3 {
        fill: none;
      }
    </style>
    <clipPath id="clippath">
      <rect class="cls-3" x="0" y="0" width="169.82" height="185.94"/>
    </clipPath>
  </defs>
  <g id="Layer_1-2" data-name="Layer 1">
    <g class="cls-2">
      <path class="cls-1" d="m19.9,51.44h.07c1.57,0,2.88-1.28,2.92-2.84.04-1.6-1.24-2.95-2.84-3.03l-17.02-.44c-1.57-.04-2.95,1.24-3.03,2.84-.04,1.6,1.24,2.95,2.84,3.02l17.06.44Zm16.26-32.11c.55.98,1.53,1.53,2.59,1.53.47,0,.95-.11,1.38-.36,1.42-.77,1.97-2.55,1.17-3.97L33.21,1.54c-.76-1.42-2.55-1.97-3.97-1.17-1.42.77-1.97,2.55-1.17,3.97l8.09,14.98Zm-26.13,5.83l14.51,8.89c.47.29,1.02.44,1.53.44.98,0,1.93-.51,2.51-1.38.84-1.39.4-3.17-.98-4.05l-14.51-8.89c-1.38-.84-3.17-.4-4.05.99-.84,1.35-.4,3.17.98,4.01m153.53,41.7l-11.23-4.74c-1.28-.55-1.97-1.86-1.75-3.21.55-3.1.55-6.27.04-9.44-.22-1.35.51-2.66,1.79-3.17l11.26-4.59-3.39-8.27-11.3,4.59c-1.27.51-2.73.07-3.5-1.02-1.82-2.59-4.05-4.85-6.63-6.71-1.09-.8-1.53-2.26-.98-3.54l4.74-11.23-8.2-3.5-4.74,11.23c-.55,1.24-1.86,1.97-3.21,1.75-3.13-.51-6.31-.55-9.44-.04-1.35.22-2.66-.51-3.17-1.79l-4.59-11.26-8.31,3.35c.98,2.44,2,4.92,2.99,7.36.18.47,2.66,5.98,2.48,6.12-3.97,2.81-7.14,5.94-9.99,9.88l-13.38-5.65-3.46,8.24c2.37,1.2,4.85,2.19,7.33,3.13.55.22,6.12,1.93,6.05,2.51-.84,4.77-.84,9.26-.07,14.07l-13.41,5.47,3.35,8.27c2.7-1.09,5.36-2.19,8.06-3.28.25-.11,5.25-2.37,5.36-2.19,2.81,3.97,5.98,7.18,9.88,9.99-1.86,4.45-3.75,8.89-5.61,13.34l8.24,3.46,5.65-13.41c3.94.73,7.73,1.17,11.74.51,1.35-.22,2.7.55,3.21,1.79l4.59,11.3,8.31-3.39-4.59-11.26c-.51-1.28-.11-2.7,1.02-3.5,2.59-1.82,4.85-4.08,6.74-6.67.8-1.09,2.26-1.49,3.5-.98l11.23,4.74,3.43-8.27Zm-58.79,33.86l-7.36-3.1c-2.51-1.06-3.72-3.97-2.66-6.49l4.19-9.99c-1.71-1.42-3.28-3.03-4.7-4.78,0,0-9.99,4.08-10.02,4.08-2.51,1.02-5.43-.22-6.49-2.7l-4.08-10.02c-.87-2.26-.04-4.74,1.86-6.01.29-.18.58-.33.88-.47l9.99-4.08c-.22-2.26-.18-4.48.04-6.74l-9.95-4.19c-2.51-1.02-3.72-3.94-2.66-6.49l4.19-9.91c1.02-2.48,4.05-3.68,6.49-2.66l9.99,4.23c1.42-1.71,3.03-3.32,4.78-4.7l-3.1-7.58c-6.45-2.66-13.34-3.79-20.52-3.35-22.96,1.42-41.99,20.52-43.34,43.45-.33,5.8.36,11.52,2.11,17.02,2.73,8.6,8.09,16.33,15.13,21.98l.51.4c3.75,2.92,6.82,6.49,9.11,10.57,4.7,8.42,4.45,17.31,4.45,26.61h29.93v-9.7c.07-9.55,4.12-18.63,11.26-25.37m-47.71,49.83h43.16v-8.86h-43.16v8.86Zm43.16,5.87h-43.16v8.86h43.16v-8.86Zm-8.06,14.76h-27.08v1.68c0,3.97,3.24,7.22,7.22,7.22h12.65c3.97,0,7.22-3.24,7.22-7.22v-1.68Zm-59.6-77.42c-3.75,1.82-5.83,6.31-4.56,10.35,1.42,4.48,6.38,7,10.86,5.65,1.64-.51,3.1-1.57,4.15-2.92.51-.66.95-1.39,1.24-2.19.14-.4.87-2.51.51-2.81-3.1-2.66-5.87-5.61-8.27-8.89-.98-.04-1.93.07-2.84.36-.4.11-.77.25-1.09.44m24.86,27.96c.18-.33.18-1.06-.26-1.46l-4.34-4.56c-.95-.98-1.09-2.51-.33-3.64.29-.44.55-.84.77-1.28-.98-1.57-2.11-3.06-3.39-4.41,0,.04-.04.07-.04.11-.22.62-.47,1.2-.76,1.75-2.62,4.96-8.09,8.17-13.7,7.76-5.28-.4-9.95-3.5-12.25-8.27-1.6-3.5-1.82-7.51-.51-11.12,1.64-4.52,5.65-8.06,10.32-9.15-.25.07-2-4.01-2.22-4.48-1.49.44-2.92,1.06-4.3,1.89-1.17.69-2.7.51-3.65-.51l-5.18-5.43-3.17,3.02,5.18,5.4c.95.98,1.09,2.51.33,3.64-1.13,1.75-1.97,3.65-2.52,5.72-.33,1.31-1.53,2.26-2.92,2.22l-7.51-.15-.04,4.26,7.51.18c1.35.04,2.52.98,2.81,2.3.44,2.08,1.2,4.05,2.26,5.83.69,1.17.47,2.66-.51,3.61l-5.43,5.18,3.03,3.17,5.43-5.18c.98-.95,2.51-1.09,3.65-.33,1.68,1.13,3.65,2,5.65,2.48,1.35.33,2.26,1.53,2.26,2.92l-.15,7.51,4.37.11.15-7.47c.04-1.35.98-2.51,2.33-2.81,2.04-.44,3.97-1.2,5.83-2.26,1.17-.69,2.66-.47,3.61.51l5.18,5.4s2.51-2.48,2.51-2.48Zm111.94-53.44l-4.19,9.92c-1.06,2.51-4.05,3.72-6.56,2.62l-9.95-4.19c-1.46,1.75-3.06,3.32-4.77,4.74,0,0,4.08,9.99,4.08,10.02,1.02,2.51-.22,5.5-2.73,6.49-2.01.8-3.97,1.64-5.94,2.51-1.86.8-3.76,1.9-5.83,1.9-1.97,0-3.79-1.13-4.59-3.03l-4.12-10.06c-.51.04-1.02.04-1.53.07-3.21,5.28-7.29,9.95-12.17,13.81-7.33,5.8-11.56,14.18-11.56,23.04v9.69h1.64c2.73,0,4.96,2.22,4.96,4.96v25.44c0,2.73-2.22,4.96-4.96,4.96h-3.06v1.68c0,7.22-5.87,13.09-13.09,13.09h-12.65c-7.22,0-13.08-5.87-13.08-13.09v-1.68h-3.1c-2.73,0-4.96-2.22-4.96-4.96v-25.44c0-2.73,2.22-4.96,4.96-4.96h1.64v-6.34c-.77.77-1.9,1.2-3.06,1.17-1.17-.04-2.3-.55-3.1-1.42l-4.63-4.85c-1.06.51-2.15.91-3.24,1.24l-.15,6.82c-.04,2.33-2.01,4.23-4.34,4.23h-.11l-7.4-.15c-2.37-.07-4.23-1.97-4.23-4.37l.15-6.85c0-.15-3.24-1.31-3.17-1.39l-4.92,4.7c-1.75,1.64-4.41,1.6-6.09-.07l-5.18-5.39c-1.64-1.75-1.6-4.45.07-6.09l4.96-4.74c-.47-1.02-.91-2.11-1.24-3.21l-6.82-.15c-2.37-.04-4.3-2.08-4.23-4.45l.15-7.4c.07-2.4,2.11-4.3,4.45-4.23l6.78.15c.4-1.09.84-2.15,1.38-3.17l-4.7-4.88c-1.68-1.71-1.64-4.41.07-6.12l5.39-5.14c1.75-1.64,4.45-1.6,6.12.07l4.74,4.96c1.06-.51,2.12-.91,3.21-1.24-1.82-5.98-2.59-12.21-2.22-18.52,1.53-26.28,22.53-47.35,48.84-48.99,6.85-.44,13.71.51,20.08,2.66.51-1.06,1.39-1.93,2.51-2.41l9.95-4.05c2.51-1.02,5.47.22,6.49,2.73l4.08,10.02c2.22-.22,4.48-.18,6.71.04l4.23-9.99c1.02-2.48,3.94-3.72,6.49-2.66,0,0,9.91,4.15,9.91,4.19,2.51,1.06,3.68,4.05,2.62,6.52l-4.19,9.95c1.75,1.42,3.32,3.03,4.7,4.78l10.06-4.16c2.55-1.02,5.47.18,6.49,2.73,0,0,4.05,9.91,4.05,9.95,1.02,2.51-.22,5.47-2.73,6.49l-9.99,4.05c.22,2.26.18,4.48-.04,6.71l9.99,4.23c2.48,1.02,3.68,3.94,2.66,6.49h0Zm-34.12-15.13c-.18-3.46-1.6-6.89-4.48-9.48-4.56-4.08-11.63-4.56-16.73-1.2-4.08,2.7-6.45,7.51-6.2,12.39.47,9,10.13,15.24,18.52,12.1,5.98-2.22,9.18-8.09,8.89-13.81m5.87-.33c.22,2.95-.22,6.01-1.42,8.86-4.16,9.73-16.04,14.69-25.77,10.46-7.55-3.28-12.61-11.26-11.96-19.54.15-2.11.62-4.19,1.46-6.2,4.05-9.77,16-14.62,25.77-10.54,6.89,2.88,11.37,9.73,11.92,16.95m-96.26,16.95c-.36-1.57-1.93-2.55-3.54-2.19-1.57.36-2.55,1.93-2.19,3.5.8,3.54,2.08,6.93,3.79,10.13.55.98,1.53,1.53,2.59,1.53.47,0,.95-.11,1.38-.36,1.42-.77,1.97-2.55,1.2-3.97-1.46-2.7-2.55-5.61-3.24-8.64m21.72-43.41c.66,1.49-.04,3.21-1.49,3.86-11.99,5.25-20.27,16.91-21,29.67-.11,1.57-1.38,2.77-2.92,2.77h-.18c-1.6-.11-2.84-1.49-2.77-3.1.88-14.98,10.5-28.61,24.49-34.74,1.49-.62,3.21.04,3.86,1.53"/>
    </g>
  </g>
</svg>