<?xml version="1.0" encoding="UTF-8"?>
<svg id="Layer_2" data-name="Layer 2" xmlns="http://www.w3.org/2000/svg" viewBox="0 0 157.07 187.62">
  <defs>
    <style>
      .cls-1 {
        fill: #fff;
      }

      .cls-2 {
        fill: #bfbfbf;
      }

      .cls-3 {
        fill: #a6a6a6;
      }

      .cls-4 {
        fill: #b7d831;
      }

      .cls-5 {
        fill: #d9d9d9;
      }

      .cls-6 {
        fill: #f2f2f2;
      }
    </style>
  </defs>
  <g id="Layer_1-2" data-name="Layer 1">
    <g>
      <path class="cls-1" d="m101.82,187.62c30.51,0,55.25-24.74,55.25-55.25s-24.74-55.25-55.25-55.25-55.25,24.74-55.25,55.25,24.74,55.25,55.25,55.25"/>
      <polygon class="cls-4" points="138.58 125.24 58.67 164.78 4.33 137.11 84.24 97.56 138.58 125.24"/>
      <polygon class="cls-2" points="129.19 74.33 127.53 123.67 58.79 157.68 60.46 108.35 129.19 74.33"/>
      <polygon class="cls-5" points="60.46 108.35 58.79 157.68 12.06 133.88 13.72 84.54 60.46 108.35"/>
      <polygon class="cls-3" points="129.16 75.41 129.07 77.38 60.53 111.1 60.36 111 13.63 86.9 13.7 85.2 60.33 109.26 60.42 109.23 129.16 75.41"/>
      <polygon class="cls-3" points="128.83 83.79 128.76 85.72 60.2 119.44 60.03 119.34 13.33 95.24 13.36 93.54 59.99 117.6 60.08 117.57 128.83 83.79"/>
      <polygon class="cls-3" points="128.51 92.06 128.42 94.03 59.89 127.74 59.72 127.64 12.99 103.55 13.06 101.87 59.69 125.94 59.78 125.9 128.51 92.06"/>
      <polygon class="cls-3" points="128.19 100.43 128.12 102.37 59.56 136.08 59.38 135.98 12.69 111.89 12.72 110.18 59.35 134.24 59.44 134.18 59.47 134.18 128.19 100.43"/>
      <polygon class="cls-3" points="127.88 108.74 127.78 110.67 59.25 144.39 59.08 144.29 12.35 120.23 12.42 118.52 59.05 142.58 59.14 142.55 127.88 108.74"/>
      <polygon class="cls-3" points="127.54 117.04 127.48 119.01 58.91 152.73 58.74 152.63 12.04 128.53 12.08 126.82 58.71 150.89 58.83 150.82 127.54 117.04"/>
      <polygon class="cls-6" points="46.17 144.42 12.08 126.82 12.21 123.67 5.74 127.44 46.17 144.42"/>
      <polygon class="cls-6" points="58.32 116.75 13.39 93.56 13.63 86.9 0 95.05 58.32 116.75"/>
      <polygon class="cls-6" points="129.19 74.33 60.46 108.35 13.72 84.54 82.45 50.53 129.19 74.33"/>
      <polygon class="cls-2" points="138.19 23.81 136.53 73.14 67.79 107.16 69.46 57.82 138.19 23.81"/>
      <polygon class="cls-5" points="69.46 57.82 67.79 107.16 21.05 83.35 22.72 34.02 69.46 57.82"/>
      <polygon class="cls-3" points="138.16 24.89 138.06 26.86 69.53 60.57 69.36 60.47 22.63 36.38 22.7 34.67 69.33 58.73 69.42 58.7 138.16 24.89"/>
      <polygon class="cls-3" points="137.83 33.26 137.76 35.2 69.2 68.91 69.02 68.81 22.33 44.72 22.36 43.01 68.99 67.07 69.08 67.04 137.83 33.26"/>
      <polygon class="cls-3" points="137.51 41.53 137.42 43.5 68.89 77.22 68.72 77.12 21.99 53.02 22.06 51.35 68.69 75.41 68.78 75.38 137.51 41.53"/>
      <polygon class="cls-3" points="137.18 49.9 137.12 51.84 68.56 85.55 68.38 85.46 21.68 61.36 21.72 59.65 68.35 83.72 68.44 83.65 68.47 83.65 137.18 49.9"/>
      <polygon class="cls-3" points="136.88 58.21 136.78 60.15 68.25 93.86 68.08 93.76 21.35 69.7 21.42 67.99 68.05 92.05 68.14 92.02 136.88 58.21"/>
      <polygon class="cls-3" points="136.54 66.51 136.48 68.48 67.91 102.2 67.74 102.1 21.04 78 21.08 76.3 67.71 100.36 67.83 100.29 136.54 66.51"/>
      <polygon class="cls-6" points="55.17 93.89 21.08 76.3 21.21 73.14 14.74 76.91 55.17 93.89"/>
      <polygon class="cls-6" points="67.32 66.22 22.39 43.04 22.63 36.38 9 44.52 67.32 66.22"/>
      <polygon class="cls-6" points="138.19 23.81 69.46 57.82 22.72 34.02 91.45 0 138.19 23.81"/>
    </g>
  </g>
</svg>