<?xml version="1.0" encoding="UTF-8"?>
<svg id="Layer_2" data-name="Layer 2" xmlns="http://www.w3.org/2000/svg" viewBox="0 0 137.29 192.33">
  <defs>
    <style>
      .cls-1 {
        fill: #fff;
      }

      .cls-2 {
        fill: #00962e;
      }
    </style>
  </defs>
  <g id="Layer_1-2" data-name="Layer 1">
    <g>
      <path class="cls-1" d="m55.25,192.33c30.51,0,55.25-24.74,55.25-55.25s-24.74-55.25-55.25-55.25S0,106.57,0,137.08s24.74,55.25,55.25,55.25"/>
      <path class="cls-2" d="m26.59,146.32c.27,3.48,3.35,6.33,6.84,6.33h83.64c3.5,0,6.57-2.85,6.84-6.33l.02-.25H26.57l.02.25Z"/>
      <path class="cls-2" d="m37.64,79.29l14.81.84c1.26.07,2.84.99,3.53,2.05l8.05,12.41c.68,1.06.35,1.4-.74.78l-3.54-2.07c-1.09-.63-2.51-.27-3.17.81,0,0-6.78,11.11-7.92,13.77-1.12,2.68.65,8.11.65,8.11-16.82-18.53-7.36-30.36-7.36-30.36.62-1.09.25-2.5-.84-3.13l-3.79-2.2c-1.08-.63-.95-1.09.31-1.01m10.84-8.31l6.59-11.21c.63-1.09,1.71-2.83,2.4-3.9,0,0,2.88-4.44,9.77-1.27,6.67,3.09,4.38,9.02,4.38,9.02-.46,1.17-1.34,3.03-1.95,4.12l-6.61,11.7c-.61,1.1-2.01,1.47-3.1.83l-10.66-6.18c-1.09-.63-1.46-2.04-.82-3.13m47.33-10.23c.62,1.09,2.02,1.47,3.12.84l3.81-2.19c1.09-.63,1.42-.28.72.77l-8.14,12.38c-.69,1.05-2.28,1.96-3.54,2.02l-14.77.76c-1.25.06-1.38-.4-.3-1.02l3.56-2.03c1.09-.62,1.48-2.03.85-3.12,0,0-6.66-11.69-7.93-13.75-1.26-2.08-7.32-3.52-7.32-3.52,25.53-3.37,29.95,8.86,29.95,8.86m9,12.75l6.44,11.3c.62,1.09,1.6,2.9,2.18,4.02,0,0,2.43,4.74-3.75,9.11-6.01,4.25-10.03-.71-10.03-.71-.79-.98-1.97-2.66-2.62-3.74l-6.84-11.54c-.64-1.08-.28-2.48.81-3.11l10.69-6.17c1.09-.63,2.49-.26,3.11.84m-14.33,46.26c-1.26,0-2.28,1.03-2.28,2.28v4.38c0,1.26-.47,1.38-1.03.25l-6.68-13.25c-.56-1.12-.56-2.96.01-4.08l6.67-13.17c.57-1.13,1.03-1.02,1.03.24v4.09c0,1.26,1.03,2.29,2.28,2.29h15.9c2.68,0,6.7-4.61,6.7-4.61-7.97,23.73-22.6,21.57-22.6,21.57m-12.42-.76c0,1.26-1.04,2.28-2.29,2.27l-13-.08c-1.26,0-3.31-.07-4.57-.13,0,0-5.31-.26-6-7.78-.68-7.34,5.62-8.35,5.62-8.35,1.24-.19,3.29-.37,4.54-.38l13.44-.14c1.26,0,2.29,1.01,2.28,2.26l-.02,12.33Zm-51.69,24.47h97.77l10.01-111.85H16.36l10.01,111.85Z"/>
      <path class="cls-2" d="m59.38,6.72c0-1.22,1.02-2.24,2.24-2.24h27.25c1.22,0,2.24,1.02,2.24,2.24v5.8h-31.74v-5.8Zm71.56,5.8h-35.34v-5.8c0-3.7-3.02-6.72-6.72-6.72h-27.25c-3.69,0-6.72,3.02-6.72,6.72v5.8H19.56c-3.49,0-6.35,2.86-6.35,6.35v8.12h124.08v-8.12c0-3.49-2.86-6.35-6.35-6.35"/>
    </g>
  </g>
</svg>