<?xml version="1.0" encoding="UTF-8"?>
<svg id="Layer_2" data-name="Layer 2" xmlns="http://www.w3.org/2000/svg" viewBox="0 0 227.26 227.26">
  <defs>
    <style>
      .cls-1 {
        fill: #1e6f41;
      }

      .cls-2 {
        fill: none;
        stroke: #fff;
        stroke-width: 1.1px;
      }
    </style>
  </defs>
  <g id="Layer_1-2" data-name="Layer 1">
    <g>
      <circle class="cls-2" cx="113.63" cy="113.63" r="113.08"/>
      <g>
        <path class="cls-1" d="m51.68,160.59v-17.06h5.86c2.09,0,3.8.67,5.16,2s2.03,3.04,2.03,5.13v2.82c0,2.09-.68,3.8-2.03,5.13s-3.07,1.99-5.16,1.99h-5.86Zm3.42-14.43v11.79h2.26c1.23,0,2.19-.41,2.88-1.24.7-.83,1.04-1.91,1.04-3.24v-2.84c0-1.32-.35-2.39-1.04-3.22s-1.66-1.24-2.88-1.24h-2.26Z"/>
        <path class="cls-1" d="m72.62,160.84c-1.83,0-3.29-.59-4.38-1.76s-1.64-2.66-1.64-4.46v-.47c0-1.88.52-3.43,1.55-4.65s2.42-1.82,4.17-1.82c1.71,0,3.04.52,3.98,1.55s1.42,2.43,1.42,4.18v1.86h-7.57l-.02.07c.06.83.34,1.52.84,2.05.5.54,1.17.8,2.02.8.76,0,1.39-.08,1.89-.23s1.05-.39,1.64-.72l.93,2.11c-.52.42-1.19.78-2.03,1.05-.84.28-1.77.42-2.79.42Zm-.3-10.52c-.63,0-1.13.24-1.5.73s-.59,1.12-.68,1.91l.04.06h4.2v-.3c0-.73-.17-1.31-.51-1.74s-.85-.65-1.54-.65Z"/>
        <path class="cls-1" d="m86.47,157.1c0-.38-.18-.7-.54-.97s-1.04-.52-2.02-.73c-1.5-.3-2.63-.76-3.39-1.35s-1.14-1.41-1.14-2.44c0-1.09.46-2.02,1.38-2.78s2.15-1.14,3.69-1.14c1.62,0,2.9.38,3.86,1.14s1.42,1.71,1.38,2.87l-.02.07h-3.3c0-.51-.16-.92-.49-1.24s-.8-.48-1.42-.48c-.55,0-.99.13-1.31.4s-.47.61-.47,1.01.17.71.5.96,1.01.47,2.02.67c1.56.31,2.72.77,3.48,1.38s1.14,1.44,1.14,2.5c0,1.14-.49,2.07-1.46,2.79s-2.27,1.08-3.87,1.08c-1.69,0-3.02-.43-4-1.28s-1.45-1.83-1.4-2.92l.02-.07h3.13c.02.68.25,1.17.67,1.48s.97.46,1.65.46c.63,0,1.12-.12,1.45-.38s.5-.59.5-1.02Z"/>
        <path class="cls-1" d="m97.36,160.84c-1.83,0-3.29-.59-4.38-1.76s-1.64-2.66-1.64-4.46v-.47c0-1.88.52-3.43,1.55-4.65s2.42-1.82,4.17-1.82c1.71,0,3.04.52,3.98,1.55s1.42,2.43,1.42,4.18v1.86h-7.57l-.02.07c.06.83.34,1.52.84,2.05.5.54,1.17.8,2.02.8.76,0,1.39-.08,1.89-.23s1.05-.39,1.64-.72l.93,2.11c-.52.42-1.19.78-2.03,1.05-.84.28-1.77.42-2.79.42Zm-.3-10.52c-.63,0-1.13.24-1.5.73s-.59,1.12-.68,1.91l.04.06h4.2v-.3c0-.73-.17-1.31-.51-1.74s-.85-.65-1.54-.65Z"/>
        <path class="cls-1" d="m107.7,147.91l.14,1.68c.41-.61.92-1.08,1.53-1.41s1.32-.5,2.13-.5,1.51.18,2.09.54,1.02.9,1.31,1.63c.39-.68.9-1.21,1.52-1.59s1.36-.57,2.2-.57c1.25,0,2.24.43,2.96,1.29s1.08,2.18,1.08,3.94v7.68h-3.42v-7.71c0-.96-.16-1.63-.47-2.01-.31-.38-.78-.56-1.39-.56-.48,0-.9.11-1.26.32-.36.21-.64.51-.85.9,0,.15,0,.28.01.38s.01.21.01.32v8.35h-3.41v-7.71c0-.94-.16-1.6-.47-1.99-.31-.39-.78-.58-1.41-.58-.46,0-.87.09-1.21.26-.35.18-.63.42-.86.75v9.27h-3.41v-12.68h3.18Z"/>
        <path class="cls-1" d="m136.68,154.6c0,1.88-.43,3.38-1.3,4.52s-2.08,1.71-3.63,1.71c-.66,0-1.25-.12-1.77-.37s-.96-.61-1.32-1.08v6.08h-3.41v-17.55h3.08l.2,1.5c.38-.55.83-.98,1.35-1.28s1.14-.45,1.85-.45c1.57,0,2.79.61,3.66,1.84s1.3,2.84,1.3,4.84v.25Zm-3.42-.26c0-1.2-.2-2.17-.6-2.91-.4-.74-1.01-1.12-1.83-1.12-.52,0-.96.11-1.32.32-.36.21-.65.51-.86.9v5.56c.21.36.5.63.86.82.36.19.81.28,1.34.28.83,0,1.44-.32,1.82-.97.39-.65.58-1.53.58-2.64v-.25Z"/>
        <path class="cls-1" d="m144.33,160.84c-1.83,0-3.29-.59-4.38-1.76s-1.64-2.66-1.64-4.46v-.47c0-1.88.52-3.43,1.55-4.65s2.42-1.82,4.17-1.82c1.71,0,3.04.52,3.98,1.55s1.42,2.43,1.42,4.18v1.86h-7.57l-.02.07c.06.83.34,1.52.84,2.05.5.54,1.17.8,2.02.8.76,0,1.39-.08,1.89-.23s1.05-.39,1.64-.72l.93,2.11c-.52.42-1.19.78-2.03,1.05-.84.28-1.77.42-2.79.42Zm-.3-10.52c-.63,0-1.13.24-1.5.73s-.59,1.12-.68,1.91l.04.06h4.2v-.3c0-.73-.17-1.31-.51-1.74s-.85-.65-1.54-.65Z"/>
        <path class="cls-1" d="m154.64,147.91l.15,1.82c.42-.65.94-1.15,1.56-1.51s1.31-.54,2.07-.54c1.28,0,2.28.4,3,1.21s1.08,2.07,1.08,3.79v7.92h-3.43v-7.93c0-.85-.17-1.46-.52-1.81-.34-.36-.86-.54-1.56-.54-.45,0-.86.09-1.22.28-.36.18-.66.44-.9.78v9.22h-3.42v-12.68h3.19Zm6.7-5.3c0,.75-.23,1.39-.7,1.92s-1.05.79-1.76.79c-.55,0-1.17-.17-1.86-.51s-1.24-.51-1.65-.51c-.28,0-.52.13-.7.38s-.28.56-.28.91l-1.83-.49c0-.73.23-1.37.7-1.92s1.05-.81,1.75-.81c.44,0,1.03.17,1.78.51s1.33.51,1.73.51c.27,0,.5-.12.7-.38s.3-.56.3-.93l1.8.53Z"/>
        <path class="cls-1" d="m164.46,154.13c0-1.89.53-3.44,1.58-4.65s2.52-1.81,4.38-1.81,3.34.6,4.41,1.8,1.59,2.75,1.59,4.65v.25c0,1.91-.53,3.46-1.59,4.66s-2.52,1.8-4.39,1.8-3.34-.6-4.4-1.8-1.59-2.75-1.59-4.66v-.25Zm3.41.24c0,1.15.2,2.08.61,2.78.41.7,1.06,1.05,1.97,1.05s1.53-.35,1.94-1.05c.41-.7.62-1.63.62-2.77v-.25c0-1.12-.21-2.04-.62-2.75-.41-.71-1.07-1.06-1.96-1.06s-1.53.36-1.94,1.07c-.41.71-.62,1.63-.62,2.74v.25Z"/>
      </g>
      <g>
        <path class="cls-1" d="m68.87,190.59c-.12-.29-.23-.59-.32-.91s-.15-.65-.19-.98c-.35.62-.81,1.13-1.39,1.54s-1.26.61-2.06.61c-1.33,0-2.35-.34-3.07-1.03s-1.08-1.62-1.08-2.79c0-1.24.48-2.21,1.44-2.89s2.35-1.03,4.19-1.03h1.91v-1.01c0-.61-.16-1.08-.48-1.42s-.79-.5-1.42-.5c-.55,0-.98.13-1.28.4s-.45.64-.45,1.12h-3.3s-.01-.08-.01-.08c-.05-1.07.41-1.99,1.39-2.77s2.28-1.17,3.88-1.17c1.52,0,2.75.38,3.69,1.15s1.42,1.87,1.42,3.29v5.24c0,.59.04,1.15.13,1.68s.23,1.04.43,1.56h-3.42Zm-3.13-2.29c.6,0,1.14-.15,1.61-.45s.79-.64.95-1.03v-1.79h-1.91c-.73,0-1.28.18-1.65.54s-.56.8-.56,1.32c0,.42.14.76.42,1.02s.66.39,1.15.39Z"/>
        <path class="cls-1" d="m77.47,177.91l.14,1.68c.41-.61.92-1.08,1.53-1.41s1.32-.5,2.13-.5,1.51.18,2.09.54,1.02.9,1.31,1.63c.39-.68.9-1.21,1.52-1.59s1.36-.57,2.2-.57c1.25,0,2.24.43,2.96,1.29s1.08,2.18,1.08,3.94v7.68h-3.42v-7.71c0-.96-.16-1.63-.47-2.01-.31-.38-.78-.56-1.39-.56-.48,0-.9.11-1.26.32-.36.21-.64.51-.85.9,0,.15,0,.28.01.38s.01.21.01.32v8.35h-3.41v-7.71c0-.94-.16-1.6-.47-1.99-.31-.39-.78-.58-1.41-.58-.46,0-.87.09-1.21.26-.35.18-.63.42-.86.75v9.27h-3.41v-12.68h3.18Z"/>
        <path class="cls-1" d="m106.48,184.6c0,1.89-.42,3.4-1.27,4.54s-2.06,1.7-3.66,1.7c-.73,0-1.38-.15-1.93-.46s-1.02-.76-1.4-1.35l-.26,1.57h-2.93v-18.28h3.41v6.95c.37-.51.81-.9,1.32-1.17s1.1-.41,1.76-.41c1.61,0,2.84.61,3.68,1.82s1.27,2.83,1.27,4.86v.25Zm-3.41-.25c0-1.24-.18-2.23-.54-2.95-.36-.73-.98-1.09-1.86-1.09-.53,0-.98.11-1.35.34-.37.22-.66.54-.87.96v5.4c.21.39.5.68.87.88.37.21.83.31,1.37.31.88,0,1.5-.31,1.85-.94s.53-1.51.53-2.66v-.25Z"/>
        <path class="cls-1" d="m112.11,174.88h-3.42v-2.57h3.42v2.57Zm0,15.71h-3.42v-12.68h3.42v12.68Z"/>
        <path class="cls-1" d="m120.39,190.84c-1.83,0-3.29-.59-4.38-1.76s-1.64-2.66-1.64-4.46v-.47c0-1.88.52-3.43,1.55-4.65s2.42-1.82,4.17-1.82c1.71,0,3.04.52,3.98,1.55s1.42,2.43,1.42,4.18v1.86h-7.57l-.02.07c.06.83.34,1.52.84,2.05.5.54,1.17.8,2.02.8.76,0,1.39-.08,1.89-.23s1.05-.39,1.64-.72l.93,2.11c-.52.42-1.19.78-2.03,1.05-.84.28-1.77.42-2.79.42Zm-.3-10.52c-.63,0-1.13.24-1.5.73s-.59,1.12-.68,1.91l.04.06h4.2v-.3c0-.73-.17-1.31-.51-1.74s-.85-.65-1.54-.65Z"/>
        <path class="cls-1" d="m130.71,177.91l.15,1.82c.42-.65.94-1.15,1.56-1.51s1.31-.54,2.07-.54c1.28,0,2.28.4,3,1.21s1.08,2.07,1.08,3.79v7.92h-3.43v-7.93c0-.85-.17-1.46-.52-1.81-.34-.36-.86-.54-1.56-.54-.45,0-.86.09-1.22.28-.36.18-.66.44-.9.78v9.22h-3.42v-12.68h3.19Z"/>
        <path class="cls-1" d="m145.12,174.81v3.11h2.13v2.4h-2.13v6.46c0,.49.1.84.3,1.05s.48.32.82.32c.18,0,.33,0,.46-.03s.28-.05.45-.1l.29,2.47c-.34.12-.68.21-1.01.26s-.68.09-1.07.09c-1.18,0-2.09-.32-2.72-.97s-.96-1.68-.96-3.08v-6.47h-1.85v-2.4h1.85v-3.11h3.42Z"/>
        <path class="cls-1" d="m156.78,190.59c-.12-.29-.23-.59-.32-.91s-.15-.65-.19-.98c-.35.62-.81,1.13-1.39,1.54s-1.26.61-2.06.61c-1.33,0-2.35-.34-3.07-1.03s-1.08-1.62-1.08-2.79c0-1.24.48-2.21,1.44-2.89s2.35-1.03,4.19-1.03h1.91v-1.01c0-.61-.16-1.08-.48-1.42s-.79-.5-1.42-.5c-.55,0-.98.13-1.28.4s-.45.64-.45,1.12h-3.3s-.01-.08-.01-.08c-.05-1.07.41-1.99,1.39-2.77s2.28-1.17,3.88-1.17c1.52,0,2.75.38,3.69,1.15s1.42,1.87,1.42,3.29v5.24c0,.59.04,1.15.13,1.68s.23,1.04.43,1.56h-3.42Zm-3.13-2.29c.6,0,1.14-.15,1.61-.45s.79-.64.95-1.03v-1.79h-1.91c-.73,0-1.28.18-1.65.54s-.56.8-.56,1.32c0,.42.14.76.42,1.02s.66.39,1.15.39Z"/>
        <path class="cls-1" d="m165.73,190.59h-3.42v-18.28h3.42v18.28Z"/>
      </g>
      <path class="cls-1" d="m152.06,95.61l-18.52,18.52c-2.45,2.46-5.78,3.84-9.25,3.83h-23.89c-2.17,0-4.25.86-5.78,2.39l-1.83,1.83-17.31-17.31,7.13-7.13c5.76-5.76,15.09-5.76,20.85,0,.4.4.78.83,1.14,1.28l.25.32c.31.39.78.62,1.28.62h19.35c1.81,0,3.27,1.46,3.27,3.27s-1.46,3.27-3.27,3.27h-22.89c-.9,0-1.64.73-1.64,1.64s.73,1.64,1.64,1.64h22.89c3.31-.01,6.09-2.5,6.46-5.79l14.25-14.25c1.64-1.57,4.22-1.57,5.86,0,1.62,1.62,1.62,4.24,0,5.86Zm-62.54,36.39l-23.85-23.84,4.23-4.23,23.85,23.84-4.23,4.23Zm64.86-44.56c-2.9-2.9-7.59-2.9-10.49,0,0,0,0,0,0,0l-12.69,12.69c-1.13-2.1-3.33-3.41-5.71-3.42h-18.57c-6.34-7.67-17.69-8.75-25.36-2.41-.44.36-.86.75-1.26,1.15l-7.13,7.13-2.11-2.11c-.64-.64-1.67-.64-2.31,0l-6.54,6.54c-.64.64-.64,1.67,0,2.31t0,0l26.16,26.16c.64.64,1.67.64,2.31,0h0l6.54-6.54c.64-.64.64-1.67,0-2.31h0s-2.11-2.11-2.11-2.11l1.83-1.83c.92-.92,2.17-1.43,3.47-1.44h23.89c4.34.01,8.5-1.71,11.56-4.79l18.52-18.52c2.9-2.9,2.9-7.59,0-10.48h0Z"/>
      <path class="cls-1" d="m128.11,60.98c-4.63-1.61-6.34-.68-8.41.92-1.77,1.48-3.97,2.34-6.27,2.46-3.87.44-6.99-4.05-8.82-7.59,9.39-3.96,20.09-3.31,28.94,1.75-1.42,1.59-3.42,3.17-5.43,2.46Zm-25.34-16.57c-1.83-.64-3.57-1.53-5.17-2.64-1.2-.92-2.59-1.56-4.07-1.86,2.91-2.79,7.18-5.89,10.78-5.22,4.55.85,5.7,2.74,6.15,5.53l-3.83-1.61c-.83-.35-1.79.04-2.14.88-.35.83.04,1.79.87,2.14l4.32,1.81c-1.94,1.6-4.62,1.98-6.93.98Zm27.52-9.73c3.58-.67,7.86,2.44,10.78,5.22-1.48.31-2.87.94-4.06,1.86-1.6,1.11-3.33,2-5.17,2.64-2.31,1.01-4.98.63-6.92-.98l4.32-1.81c.83-.35,1.23-1.3.88-2.14-.35-.83-1.3-1.23-2.14-.88,0,0,0,0,0,0l-3.83,1.61c.46-2.8,1.6-4.68,6.15-5.53m-41.2,29.95s-.06.05-.08.08c0,0,0,.02-.01.03-4.97,6.31-7.67,14.12-7.67,22.16,0,.27,0,.53.02.8.06.86.77,1.52,1.63,1.52.04,0,.08,0,.11,0,.9-.06,1.58-.84,1.52-1.74-.01-.19-.01-.38-.01-.57,0-6.87,2.18-13.57,6.23-19.12,4.62,3.02,7.33,5.94,7.44,8.11-.17,2.07-.82,4.06-1.91,5.83-.48.99-.99,2.04-1.45,3.16-.35.83.05,1.79.88,2.14.83.35,1.79-.05,2.14-.88.44-1.06.92-2.05,1.38-2.99,1.36-2.25,2.12-4.81,2.23-7.43-.17-3.3-3.1-6.82-8.65-10.49,2.5-2.83,5.48-5.21,8.79-7.04,3.18,6.2,7.02,9.48,11.2,9.48.3,0,.61-.02.91-.05,2.9-.19,5.67-1.28,7.9-3.13,1.44-1.11,2.04-1.57,5.34-.42,3.08,1.07,6.33-.27,9.27-3.76,2.55,1.82,4.82,4.01,6.75,6.48-1.97,2.1-3.52,4.56-4.56,7.24-1.39,3.04-2.34,4.92-4.07,5.08-1.13.07-2.26.07-3.38-.01-4.31-.21-9.68-.46-13.51,7.07-.87,1.7-1.45,3.53-1.73,5.41-.12.89.5,1.72,1.39,1.85.07.01.15.02.23.02.81,0,1.5-.6,1.62-1.41.22-1.53.7-3.01,1.41-4.39,2.87-5.64,6.21-5.48,10.44-5.28,1.28.09,2.56.09,3.84,0,3.71-.35,5.25-3.72,6.74-6.98.85-2.14,2.03-4.13,3.51-5.89,2.19,3.46,3.7,7.3,4.45,11.33.17.89,1.02,1.47,1.91,1.31s1.47-1.02,1.31-1.91h0c-3.1-16.38-17.05-28.47-33.7-29.22v-1.81c0-1.87,1.07-3.57,2.75-4.39,1.84,2.15,4.53,3.38,7.35,3.38,1.32-.01,2.64-.25,3.88-.7,2.08-.73,4.06-1.74,5.88-2.99,1.61-1.44,3.89-1.85,5.89-1.06.88.22,1.77-.3,1.99-1.18.13-.49.02-1.02-.3-1.42-.35-.45-8.67-10.87-16.69-9.38-7.74,1.44-8.64,6.13-9.02,10.2-1.34.57-2.51,1.49-3.37,2.66-.87-1.17-2.03-2.09-3.37-2.66-.38-4.07-1.28-8.76-9.02-10.2-8.01-1.5-16.34,8.94-16.69,9.38-.56.71-.44,1.74.27,2.3.4.31.92.43,1.42.3,2.01-.79,4.29-.38,5.89,1.06,1.82,1.26,3.79,2.26,5.88,2.99,1.25.45,2.56.69,3.88.7,2.83,0,5.51-1.23,7.35-3.38,1.68.82,2.75,2.52,2.75,4.39v1.78c-10.42.47-20.13,5.45-26.57,13.65"/>
    </g>
  </g>
</svg>