<?xml version="1.0" encoding="UTF-8"?>
<svg id="Layer_2" data-name="Layer 2" xmlns="http://www.w3.org/2000/svg" viewBox="0 0 227.26 227.26">
  <defs>
    <style>
      .cls-1 {
        fill: #1e6f41;
      }

      .cls-2 {
        fill: none;
        stroke: #fff;
        stroke-width: 1.1px;
      }
    </style>
  </defs>
  <g id="Layer_1-2" data-name="Layer 1">
    <g>
      <circle class="cls-2" cx="113.63" cy="113.63" r="113.08" transform="translate(-47.07 113.63) rotate(-45)"/>
      <g>
        <path class="cls-1" d="m85.6,146.27h-5.76l-1.12,3.54h-3.33l5.65-16.42h3.37l5.63,16.42h-3.33l-1.12-3.54Zm-4.95-2.58h4.14l-2.03-6.45h-.07l-2.04,6.45Z"/>
        <path class="cls-1" d="m102.47,144.05c0,1.8-.42,3.25-1.25,4.35-.83,1.1-2,1.65-3.5,1.65-.64,0-1.21-.12-1.7-.35-.5-.24-.92-.58-1.27-1.04v5.85h-3.28v-16.89h2.96l.19,1.44c.36-.53.79-.95,1.3-1.23.51-.29,1.1-.43,1.78-.43,1.51,0,2.68.59,3.52,1.77.83,1.18,1.25,2.73,1.25,4.66v.24Zm-3.29-.25c0-1.15-.19-2.08-.58-2.8-.38-.71-.97-1.07-1.76-1.07-.5,0-.92.1-1.27.3s-.62.49-.83.87v5.35c.2.35.48.61.83.79s.78.27,1.29.27c.8,0,1.38-.31,1.75-.94s.56-1.47.56-2.54v-.24Z"/>
        <path class="cls-1" d="m103.97,143.6c0-1.82.51-3.31,1.52-4.47s2.42-1.74,4.22-1.74,3.22.58,4.24,1.74c1.02,1.16,1.53,2.65,1.53,4.48v.24c0,1.83-.51,3.33-1.53,4.48-1.02,1.15-2.43,1.73-4.22,1.73s-3.21-.58-4.23-1.73c-1.02-1.15-1.53-2.65-1.53-4.48v-.24Zm3.28.23c0,1.11.2,2,.59,2.67.39.67,1.02,1.01,1.89,1.01s1.47-.34,1.87-1.01c.39-.67.59-1.56.59-2.67v-.24c0-1.08-.2-1.96-.6-2.65s-1.03-1.02-1.88-1.02-1.47.34-1.87,1.03-.59,1.57-.59,2.64v.24Z"/>
        <path class="cls-1" d="m123.85,140.45l-1.21-.03c-.49,0-.89.1-1.21.3-.32.2-.56.49-.72.86v8.24h-3.28v-12.2h3.06l.15,1.8c.29-.64.66-1.14,1.11-1.49.46-.36.98-.54,1.57-.54.17,0,.32.01.46.04.14.03.28.06.42.1l-.35,2.92Z"/>
        <path class="cls-1" d="m130.03,134.63v2.99h2.05v2.31h-2.05v6.21c0,.47.1.81.29,1.01.2.2.46.3.79.3.17,0,.32,0,.45-.03s.27-.05.43-.1l.28,2.38c-.33.11-.65.2-.97.25s-.66.08-1.03.08c-1.13,0-2.01-.31-2.62-.94s-.92-1.61-.92-2.96v-6.22h-1.78v-2.31h1.78v-2.99h3.29Z"/>
        <path class="cls-1" d="m139.05,150.05c-1.76,0-3.16-.56-4.22-1.69-1.05-1.13-1.58-2.56-1.58-4.3v-.45c0-1.81.5-3.3,1.49-4.48,1-1.17,2.33-1.75,4.01-1.75,1.65,0,2.92.5,3.83,1.49.91.99,1.36,2.33,1.36,4.03v1.79h-7.28l-.02.07c.06.8.33,1.46.81,1.98.48.52,1.12.78,1.94.78.73,0,1.33-.07,1.82-.22.48-.15,1.01-.38,1.58-.69l.89,2.03c-.5.41-1.15.75-1.95,1.01-.8.27-1.7.4-2.68.4Zm-.29-10.12c-.61,0-1.09.23-1.44.7s-.57,1.08-.65,1.84l.03.06h4.04v-.29c0-.7-.16-1.26-.49-1.67-.33-.42-.82-.63-1.48-.63Z"/>
        <path class="cls-1" d="m152.38,146.45c0-.36-.17-.67-.52-.94-.35-.26-1-.5-1.94-.7-1.44-.29-2.53-.73-3.26-1.3-.73-.58-1.1-1.36-1.1-2.35,0-1.05.44-1.95,1.32-2.68.88-.73,2.07-1.1,3.55-1.1,1.56,0,2.79.37,3.71,1.09.92.73,1.36,1.65,1.33,2.76l-.02.07h-3.18c0-.49-.16-.89-.47-1.2-.31-.31-.77-.46-1.37-.46-.53,0-.95.13-1.26.39-.3.26-.46.58-.46.98s.16.68.48.92c.32.24.97.46,1.94.64,1.5.3,2.62.74,3.35,1.32.73.58,1.09,1.38,1.09,2.41,0,1.1-.47,1.99-1.41,2.69s-2.18,1.04-3.72,1.04c-1.62,0-2.91-.41-3.85-1.23-.94-.82-1.39-1.76-1.35-2.81l.02-.07h3.01c.02.65.24,1.13.64,1.42.41.29.94.44,1.59.44.61,0,1.07-.12,1.39-.36s.48-.57.48-.98Z"/>
      </g>
      <g>
        <path class="cls-1" d="m73.98,178.68c-.12-.28-.22-.57-.31-.88-.09-.31-.15-.62-.19-.95-.34.59-.78,1.09-1.34,1.48s-1.21.59-1.98.59c-1.28,0-2.26-.33-2.95-.99-.69-.66-1.04-1.55-1.04-2.69,0-1.2.46-2.12,1.38-2.78.92-.66,2.26-.99,4.03-.99h1.84v-.97c0-.59-.15-1.04-.46-1.36s-.76-.49-1.36-.49c-.53,0-.95.13-1.23.39-.29.26-.43.62-.43,1.08h-3.18s-.01-.08-.01-.08c-.05-1.03.39-1.92,1.34-2.67s2.19-1.12,3.73-1.12c1.46,0,2.64.37,3.55,1.11.91.74,1.36,1.79,1.36,3.16v5.04c0,.57.04,1.11.13,1.61.09.5.22,1,.41,1.5h-3.29Zm-3.01-2.2c.58,0,1.09-.14,1.54-.43.45-.29.76-.62.91-.99v-1.72h-1.84c-.7,0-1.23.17-1.59.52-.36.35-.54.77-.54,1.27,0,.41.13.73.41.98s.64.37,1.11.37Z"/>
        <path class="cls-1" d="m82.59,178.68h-3.29v-17.59h3.29v17.59Z"/>
        <path class="cls-1" d="m96.17,176.38c.59,0,1.06-.17,1.41-.51.35-.34.53-.79.53-1.36h2.99l.03.07c.03,1.23-.43,2.26-1.39,3.09-.96.83-2.15,1.25-3.57,1.25-1.82,0-3.22-.57-4.21-1.72s-1.48-2.63-1.48-4.43v-.34c0-1.8.49-3.27,1.47-4.43.98-1.16,2.38-1.74,4.2-1.74,1.5,0,2.71.43,3.64,1.29.92.86,1.37,1.98,1.34,3.38l-.02.07h-3c0-.63-.17-1.16-.52-1.57-.35-.42-.82-.63-1.43-.63-.87,0-1.49.34-1.84,1.01-.36.67-.54,1.55-.54,2.61v.34c0,1.09.18,1.96.54,2.63.36.66.98,1,1.86,1Z"/>
        <path class="cls-1" d="m110.23,178.68c-.12-.28-.22-.57-.31-.88-.09-.31-.15-.62-.19-.95-.34.59-.78,1.09-1.34,1.48s-1.21.59-1.98.59c-1.28,0-2.26-.33-2.95-.99-.69-.66-1.04-1.55-1.04-2.69,0-1.2.46-2.12,1.38-2.78.92-.66,2.26-.99,4.03-.99h1.84v-.97c0-.59-.15-1.04-.46-1.36s-.76-.49-1.36-.49c-.53,0-.95.13-1.23.39-.29.26-.43.62-.43,1.08h-3.18s-.01-.08-.01-.08c-.05-1.03.39-1.92,1.34-2.67s2.19-1.12,3.73-1.12c1.46,0,2.64.37,3.55,1.11.91.74,1.36,1.79,1.36,3.16v5.04c0,.57.04,1.11.13,1.61.09.5.22,1,.41,1.5h-3.29Zm-3.01-2.2c.58,0,1.09-.14,1.54-.43.45-.29.76-.62.91-.99v-1.72h-1.84c-.7,0-1.23.17-1.59.52-.36.35-.54.77-.54,1.27,0,.41.13.73.41.98s.64.37,1.11.37Z"/>
        <path class="cls-1" d="m118.5,166.48l.13,1.61c.39-.59.88-1.04,1.47-1.36s1.27-.48,2.05-.48,1.45.17,2.01.52c.56.35.98.87,1.26,1.57.38-.65.86-1.17,1.46-1.53.6-.37,1.31-.55,2.12-.55,1.2,0,2.15.42,2.85,1.25.7.83,1.04,2.1,1.04,3.79v7.38h-3.29v-7.41c0-.93-.15-1.57-.45-1.93-.3-.36-.75-.54-1.34-.54-.47,0-.87.1-1.21.31s-.61.5-.82.86c0,.14,0,.27.01.37,0,.1.01.21.01.31v8.03h-3.28v-7.41c0-.9-.15-1.54-.45-1.92-.3-.37-.75-.56-1.35-.56-.44,0-.83.08-1.17.25-.33.17-.61.41-.83.72v8.92h-3.28v-12.2h3.06Z"/>
        <path class="cls-1" d="m146.38,172.91c0,1.82-.41,3.27-1.22,4.36-.81,1.09-1.98,1.63-3.52,1.63-.71,0-1.32-.15-1.85-.45s-.98-.73-1.35-1.3l-.25,1.51h-2.82v-17.59h3.28v6.69c.35-.49.78-.86,1.27-1.13.49-.26,1.06-.39,1.7-.39,1.55,0,2.73.58,3.54,1.75.81,1.17,1.22,2.73,1.22,4.67v.24Zm-3.28-.24c0-1.2-.17-2.14-.52-2.84s-.95-1.05-1.79-1.05c-.51,0-.94.11-1.3.32s-.63.52-.83.92v5.2c.2.37.48.65.84.85.36.2.79.29,1.31.29.85,0,1.44-.3,1.78-.9.34-.6.51-1.45.51-2.56v-.24Z"/>
        <path class="cls-1" d="m151.8,163.56h-3.29v-2.47h3.29v2.47Zm0,15.12h-3.29v-12.2h3.29v12.2Z"/>
        <path class="cls-1" d="m153.89,172.46c0-1.82.51-3.31,1.52-4.47s2.42-1.74,4.22-1.74,3.22.58,4.24,1.74c1.02,1.16,1.53,2.65,1.53,4.48v.24c0,1.83-.51,3.33-1.53,4.48-1.02,1.15-2.43,1.73-4.22,1.73s-3.21-.58-4.23-1.73c-1.02-1.15-1.53-2.65-1.53-4.48v-.24Zm3.28.23c0,1.11.2,2,.59,2.67.39.67,1.02,1.01,1.89,1.01s1.47-.34,1.87-1.01c.39-.67.59-1.56.59-2.67v-.24c0-1.08-.2-1.96-.6-2.65s-1.03-1.02-1.88-1.02-1.47.34-1.87,1.03-.59,1.57-.59,2.64v.24Z"/>
      </g>
      <g>
        <path class="cls-1" d="m74.76,205.24c.59,0,1.06-.17,1.41-.51.35-.34.53-.79.53-1.36h2.99l.03.07c.03,1.23-.43,2.26-1.39,3.09-.96.83-2.15,1.25-3.57,1.25-1.82,0-3.22-.57-4.21-1.72s-1.48-2.63-1.48-4.43v-.34c0-1.8.49-3.27,1.47-4.43.98-1.16,2.38-1.74,4.2-1.74,1.5,0,2.71.43,3.64,1.29.92.86,1.37,1.98,1.34,3.38l-.02.07h-3c0-.63-.17-1.16-.52-1.57-.35-.42-.82-.63-1.43-.63-.87,0-1.49.34-1.84,1.01-.36.67-.54,1.55-.54,2.61v.34c0,1.09.18,1.96.54,2.63.36.66.98,1,1.86,1Z"/>
        <path class="cls-1" d="m85,207.54h-3.29v-17.59h3.29v17.59Z"/>
        <path class="cls-1" d="m90.96,192.42h-3.29v-2.47h3.29v2.47Zm0,15.12h-3.29v-12.2h3.29v12.2Z"/>
        <path class="cls-1" d="m96.61,195.34l.13,1.61c.39-.59.88-1.04,1.47-1.36s1.27-.48,2.05-.48,1.45.17,2.01.52c.56.35.98.87,1.26,1.57.38-.65.86-1.17,1.46-1.53.6-.37,1.31-.55,2.12-.55,1.2,0,2.15.42,2.85,1.25.7.83,1.04,2.1,1.04,3.79v7.38h-3.29v-7.41c0-.93-.15-1.57-.45-1.93-.3-.36-.75-.54-1.34-.54-.47,0-.87.1-1.21.31s-.61.5-.82.86c0,.14,0,.27.01.37,0,.1.01.21.01.31v8.03h-3.28v-7.41c0-.9-.15-1.54-.45-1.92-.3-.37-.75-.56-1.35-.56-.44,0-.83.08-1.17.25-.33.17-.61.41-.83.72v8.92h-3.28v-12.2h3.06Z"/>
        <path class="cls-1" d="m120.62,207.54c-.12-.28-.22-.57-.31-.88-.09-.31-.15-.62-.19-.95-.34.59-.78,1.09-1.34,1.48s-1.21.59-1.98.59c-1.28,0-2.26-.33-2.95-.99-.69-.66-1.04-1.55-1.04-2.69,0-1.2.46-2.12,1.38-2.78.92-.66,2.26-.99,4.03-.99h1.84v-.97c0-.59-.15-1.04-.46-1.36s-.76-.49-1.36-.49c-.53,0-.95.13-1.23.39-.29.26-.43.62-.43,1.08h-3.18s-.01-.08-.01-.08c-.05-1.03.39-1.92,1.34-2.67s2.19-1.12,3.73-1.12c1.46,0,2.64.37,3.55,1.11.91.74,1.36,1.79,1.36,3.16v5.04c0,.57.04,1.11.13,1.61.09.5.22,1,.41,1.5h-3.29Zm-3.01-2.2c.58,0,1.09-.14,1.54-.43.45-.29.76-.62.91-.99v-1.72h-1.84c-.7,0-1.23.17-1.59.52-.36.35-.54.77-.54,1.27,0,.41.13.73.41.98s.64.37,1.11.37Zm1.3-14.69h3.48l.02.07-3.12,2.93h-2.63l2.24-3Z"/>
        <path class="cls-1" d="m129.71,192.35v2.99h2.05v2.31h-2.05v6.21c0,.47.1.81.29,1.01.2.2.46.3.79.3.17,0,.32,0,.45-.03s.27-.05.43-.1l.28,2.38c-.33.11-.65.2-.97.25s-.66.08-1.03.08c-1.13,0-2.01-.31-2.62-.94s-.92-1.61-.92-2.96v-6.22h-1.78v-2.31h1.78v-2.99h3.29Z"/>
        <path class="cls-1" d="m137.04,192.42h-3.29v-2.47h3.29v2.47Zm0,15.12h-3.29v-12.2h3.29v12.2Z"/>
        <path class="cls-1" d="m144.8,205.24c.59,0,1.06-.17,1.41-.51.35-.34.53-.79.53-1.36h2.99l.03.07c.03,1.23-.43,2.26-1.39,3.09-.96.83-2.15,1.25-3.57,1.25-1.82,0-3.22-.57-4.21-1.72s-1.48-2.63-1.48-4.43v-.34c0-1.8.49-3.27,1.47-4.43.98-1.16,2.38-1.74,4.2-1.74,1.5,0,2.71.43,3.64,1.29.92.86,1.37,1.98,1.34,3.38l-.02.07h-3c0-.63-.17-1.16-.52-1.57-.35-.42-.82-.63-1.43-.63-.87,0-1.49.34-1.84,1.01-.36.67-.54,1.55-.54,2.61v.34c0,1.09.18,1.96.54,2.63.36.66.98,1,1.86,1Z"/>
        <path class="cls-1" d="m151.08,201.33c0-1.82.51-3.31,1.52-4.47s2.42-1.74,4.22-1.74,3.22.58,4.24,1.74c1.02,1.16,1.53,2.65,1.53,4.48v.24c0,1.83-.51,3.33-1.53,4.48-1.02,1.15-2.43,1.73-4.22,1.73s-3.21-.58-4.23-1.73c-1.02-1.15-1.53-2.65-1.53-4.48v-.24Zm3.28.23c0,1.11.2,2,.59,2.67.39.67,1.02,1.01,1.89,1.01s1.47-.34,1.87-1.01c.39-.67.59-1.56.59-2.67v-.24c0-1.08-.2-1.96-.6-2.65s-1.03-1.02-1.88-1.02-1.47.34-1.87,1.03-.59,1.57-.59,2.64v.24Z"/>
      </g>
      <path class="cls-1" d="m156.67,73.76h3.55c-.17,5.66-1.35,11.23-3.49,16.42v-15.79c0-.22-.04-.43-.07-.64m.65,37.02c-.69,3.98-3.8,7.2-7.73,8.02-.69.14-1.4.22-2.1.22-5.51,0-9.99-4.48-9.99-9.99,0-2.83,1.21-5.55,3.33-7.45.33-.29.52-.72.52-1.16v-26.03c0-1.97,1.6-3.58,3.58-3.58h5.13c1.97,0,3.58,1.6,3.58,3.58v26.03c0,.44.19.86.52,1.16,2.59,2.32,3.78,5.76,3.18,9.2m-43.69,8.23c-13.65,0-26.35-5.82-35.22-16.06,1.52-.77,2.57-2.33,2.57-4.15v-1.52c0-.89.7-1.59,1.59-1.59h1.49c.89,0,1.59.7,1.59,1.59v1.52c0,2.57,2.09,4.66,4.66,4.66h1.56c2.57,0,4.66-2.09,4.66-4.66v-1.52c0-.89.7-1.59,1.59-1.59h1.49c.89,0,1.59.7,1.59,1.59v1.52c0,1.26.49,2.43,1.36,3.27.87.9,2.04,1.39,3.3,1.39,2.57,0,4.66-2.09,4.66-4.66v-1.52c0-.89.7-1.59,1.59-1.59h1.49c.35,0,.65.1.92.29.42.3.67.78.67,1.3v1.52c0,2.57,2.09,4.66,4.66,4.66h1.55c2.57,0,4.66-2.09,4.66-4.66v-1.52c0-.89.7-1.59,1.59-1.59h1.49c.89,0,1.59.7,1.59,1.59v1.52c0,2.57,2.09,4.66,4.66,4.66h.25c-.81,1.72-1.26,3.62-1.26,5.56,0,1.64.32,3.2.87,4.65-6.62,3.48-14.06,5.34-21.62,5.34m24.6-44.62v25.36c-.19.19-.37.4-.55.6h-2.29c-.86,0-1.55-.7-1.55-1.55v-1.52c0-2.59-2.11-4.69-4.7-4.69h-1.49c-2.59,0-4.69,2.1-4.69,4.69v1.52c0,.86-.7,1.55-1.56,1.55h-1.55c-.86,0-1.55-.7-1.55-1.55v-1.52c0-.95-.31-1.84-.83-2.61.53-.86.83-1.85.83-2.86,0-3-2.44-5.44-5.44-5.44h-5.36c-1.69,0-3.27-.65-4.46-1.85-1.19-1.17-1.84-2.75-1.84-4.45,0-3.48,2.83-6.31,6.3-6.31h30.81c-.02.21-.06.42-.06.64m-67.98,15.08h13.84c1.26,0,2.43-.49,3.28-1.36.89-.87,1.39-2.04,1.39-3.3,0-2.57-2.09-4.66-4.66-4.66h-3.11c-.41,0-.8-.16-1.11-.48-.29-.28-.45-.66-.45-1.08,0-.86.7-1.55,1.55-1.55h9.33c1.26,0,2.43-.49,3.28-1.36.89-.87,1.39-2.04,1.39-3.31,0-2.57-2.09-4.66-4.66-4.66h-23.32v-3.11h93.28v6.05h-4.69c-1.2-1.77-3.23-2.94-5.53-2.94h-5.13c-2.3,0-4.33,1.17-5.53,2.94h-31.9c-5.19,0-9.41,4.23-9.41,9.42,0,2.53.98,4.89,2.75,6.64,1.76,1.78,4.12,2.76,6.66,2.76h5.36c1.29,0,2.33,1.05,2.33,2.33,0,.34-.08.68-.22.98-.44-.13-.89-.2-1.36-.2h-1.49c-2.59,0-4.69,2.1-4.69,4.69v1.52c0,.86-.7,1.55-1.56,1.55-.41,0-.8-.16-1.11-.48-.29-.28-.45-.66-.45-1.08v-1.52c0-2.59-2.11-4.69-4.7-4.69h-1.49c-2.59,0-4.7,2.1-4.7,4.69v1.52c0,.86-.7,1.55-1.55,1.55h-1.56c-.86,0-1.55-.7-1.55-1.55v-1.52c0-2.59-2.11-4.69-4.7-4.69h-1.49c-2.59,0-4.69,2.1-4.69,4.69v1.52c0,.85-.69,1.54-1.54,1.55-2.54-3.38-4.57-7.04-6.08-10.88Zm-3.26-18.66h23.32c.86,0,1.56.7,1.56,1.56,0,.42-.16.8-.48,1.11-.28.29-.66.45-1.08.45h-9.33c-2.57,0-4.66,2.09-4.66,4.66,0,1.26.49,2.43,1.36,3.28.87.9,2.04,1.39,3.3,1.39h3.11c.86,0,1.55.7,1.55,1.55,0,.42-.16.8-.47,1.11-.28.29-.66.45-1.08.45h-14.94c-1.4-4.48-2.16-9.17-2.16-13.99v-1.56Zm26.43-15.55h13.99v6.22h-13.99v-6.22Zm7.52-10.15l6.16,7.04h-14.2l8.05-7.04Zm19.82,7.04h-9.53l-6.8-7.77h8.56l7.77,7.77Zm-.91,9.33h-9.33v-6.22h9.33v6.22Zm21.77-12.44c0-.86.7-1.55,1.56-1.55.41,0,.8.16,1.11.48.29.28.45.66.45,1.08v12.44h-3.11v-12.44Zm-4.66,3.11c-2.07,0-4.28-2.89-4.89-3.91-.28-.47-.79-.76-1.33-.76-2.57,0-4.66-2.09-4.66-4.66s2.09-4.66,4.66-4.66c.86,0,1.56-.69,1.56-1.56,0-2.57,2.09-4.66,4.66-4.66,1.7,0,3.26.93,4.08,2.41.55,1,2.18,1,2.73,0,.82-1.49,2.38-2.41,4.08-2.41,2.57,0,4.66,2.09,4.66,4.66,0,.86.7,1.56,1.55,1.56,2.57,0,4.66,2.09,4.66,4.66s-2.09,4.66-4.66,4.66c-.86,0-1.55.69-1.55,1.55,0,.77,0,3.11-4.66,3.11v-3.11c0-1.26-.49-2.43-1.36-3.27-.87-.9-2.04-1.39-3.3-1.39-2.57,0-4.66,2.09-4.66,4.66v2.81c-.49.18-1.01.3-1.55.3m24.88,9.33h-13.99v-6.22c4.24,0,6.99-1.76,7.63-4.79,3.62-.66,6.36-3.84,6.36-7.64s-2.74-6.97-6.35-7.64c-.67-3.61-3.84-6.35-7.64-6.35-2.07,0-4.01.82-5.44,2.22-1.43-1.41-3.38-2.22-5.44-2.22-3.8,0-6.97,2.74-7.64,6.35-3.61.67-6.35,3.84-6.35,7.64,0,3.99,3.02,7.29,6.9,7.72,1.05,1.5,3.68,4.71,7.09,4.71.53,0,1.05-.07,1.55-.17v6.39h-15.55v-6.22h1.55c.63,0,1.2-.38,1.44-.96.24-.58.11-1.25-.34-1.69l-10.88-10.88c-.29-.29-.69-.46-1.1-.46h-12.44c-.38,0-.74.14-1.02.38l-12.44,10.88c-.49.43-.66,1.11-.43,1.72.23.61.81,1.01,1.46,1.01h1.55v6.22h-24.88c-.86,0-1.55.7-1.55,1.56v9.33c0,11.14,3.61,21.69,10.43,30.49,9.51,12.24,23.84,19.26,39.32,19.26,8.06,0,16-1.98,23.06-5.69,2.36,3.43,6.32,5.69,10.79,5.69.91,0,1.84-.1,2.74-.29,5.17-1.08,9.26-5.31,10.16-10.53.74-4.27-.62-8.54-3.65-11.56v-2.56c4.34-7.52,6.65-16.09,6.65-24.82v-9.33c0-.86-.7-1.56-1.55-1.56"/>
      <path class="cls-1" d="m86.47,35.07h-17.2c-.48-.61-.73-1.14-.73-1.56,0-1.71,1.4-3.11,3.11-3.11.36,0,.71.06.91.12l.17.08c.42.19.9.18,1.31-.01.41-.2.72-.56.84-1,.36-1.35,1.59-2.3,2.99-2.3s2.63.94,2.99,2.28c.11.43.4.78.79.99.39.2.85.23,1.26.07,2.1-.81,4.28.79,4.28,2.88,0,.42-.25.94-.73,1.56m3.84-1.56c0-3.7-3.27-6.65-7.02-6.17-1.08-1.92-3.13-3.16-5.42-3.16s-4.33,1.24-5.41,3.16c-.27-.03-.54-.05-.81-.05-3.43,0-6.22,2.79-6.22,6.22,0,1.14.45,2.27,1.38,3.47.59.76,1.49,1.19,2.45,1.19h17.2c.97,0,1.86-.43,2.45-1.19.93-1.2,1.39-2.33,1.39-3.47"/>
      <path class="cls-1" d="m108.67,30.4h-11.84c-.27-.38-.3-.59-.3-.67,0-.98.8-1.78,1.78-1.78.2,0,.41.03.58.1.41.19.9.19,1.31,0,.41-.19.72-.56.84-1.01.21-.77.91-1.31,1.71-1.31s1.5.54,1.71,1.3c.11.43.4.78.79.99.39.2.85.23,1.26.07,1.21-.45,2.46.45,2.46,1.65,0,.08-.03.28-.3.67m2.32,2.09c.73-.94,1.08-1.84,1.08-2.75,0-2.81-2.38-5.06-5.22-4.87-.88-1.36-2.41-2.23-4.11-2.23s-3.22.87-4.1,2.23c-2.78-.19-5.23,2.06-5.23,4.87,0,.92.36,1.82,1.08,2.75.51.65,1.27,1.03,2.1,1.03h12.28c.83,0,1.6-.37,2.1-1.02"/>
      <path class="cls-1" d="m68.54,47.51c-.86,0-1.56.7-1.56,1.56v4.66c0,.86.7,1.55,1.56,1.55s1.55-.7,1.55-1.55v-4.66c0-.86-.7-1.56-1.55-1.56"/>
      <path class="cls-1" d="m70.1,42.84c0-.86-.7-1.55-1.56-1.55s-1.55.69-1.55,1.55v1.56c0,.86.7,1.55,1.55,1.55s1.56-.69,1.56-1.55v-1.56Z"/>
      <path class="cls-1" d="m74.76,50.61c-.86,0-1.56.7-1.56,1.56v1.55c0,.86.7,1.56,1.56,1.56s1.55-.69,1.55-1.56v-1.55c0-.86-.7-1.56-1.55-1.56"/>
      <path class="cls-1" d="m76.32,42.84c0-.86-.7-1.55-1.56-1.55s-1.55.69-1.55,1.55v4.66c0,.86.7,1.56,1.55,1.56s1.56-.7,1.56-1.56v-4.66Z"/>
      <path class="cls-1" d="m80.98,49.06c-.86,0-1.56.7-1.56,1.56v3.11c0,.86.7,1.56,1.56,1.56s1.55-.7,1.55-1.56v-3.11c0-.86-.7-1.56-1.55-1.56"/>
      <path class="cls-1" d="m82.54,42.84c0-.86-.7-1.55-1.56-1.55s-1.55.69-1.55,1.55v3.11c0,.86.7,1.56,1.55,1.56s1.56-.69,1.56-1.56v-3.11Z"/>
      <path class="cls-1" d="m87.2,41.29c-.86,0-1.56.7-1.56,1.56v3.11c0,.86.7,1.56,1.56,1.56s1.55-.7,1.55-1.56v-3.11c0-.86-.7-1.56-1.55-1.56"/>
      <path class="cls-1" d="m94.97,36.62v1.56c0,.86.7,1.55,1.55,1.55s1.55-.69,1.55-1.55v-1.56c0-.86-.7-1.55-1.55-1.55s-1.55.69-1.55,1.55"/>
      <path class="cls-1" d="m101.19,36.62v1.56c0,.86.7,1.55,1.55,1.55s1.55-.69,1.55-1.55v-1.56c0-.86-.7-1.55-1.55-1.55s-1.55.69-1.55,1.55"/>
      <path class="cls-1" d="m107.41,36.62v1.56c0,.86.7,1.55,1.55,1.55s1.55-.69,1.55-1.55v-1.56c0-.86-.7-1.55-1.55-1.55s-1.55.69-1.55,1.55"/>
      <path class="cls-1" d="m152.27,109.91c-.33,1.89-1.86,3.48-3.72,3.87-1.5.32-2.96-.03-4.12-.98-1.14-.93-1.8-2.3-1.8-3.77,0-1.93,1.15-3.68,2.92-4.47.56-.25.93-.81.93-1.42v-23.61c0-.56.45-1.01,1.01-1.01s1.01.45,1.01,1.01v23.61c0,.62.36,1.17.92,1.42,2.06.92,3.23,3.11,2.85,5.34m-.66-7.7v-22.67c0-2.27-1.85-4.12-4.12-4.12s-4.12,1.85-4.12,4.12v22.67c-2.37,1.44-3.85,4.02-3.85,6.83,0,2.41,1.07,4.66,2.95,6.18,1.43,1.17,3.21,1.78,5.04,1.78.56,0,1.12-.06,1.68-.17,3.13-.65,5.6-3.22,6.15-6.38.57-3.29-.94-6.54-3.73-8.24"/>
    </g>
  </g>
</svg>