<?xml version="1.0" encoding="UTF-8"?>
<svg id="Layer_2" data-name="Layer 2" xmlns="http://www.w3.org/2000/svg" viewBox="0 0 43.77 49.67">
  <defs>
    <style>
      .cls-1 {
        fill: #fff;
      }
    </style>
  </defs>
  <g id="Layer_1-2" data-name="Layer 1">
    <path class="cls-1" d="m39.66,49.67h-9.62c-.43,0-.78-.35-.78-.78v-16.53h-1.79v8.85c0,.43-.35.78-.78.78h-9.62c-.43,0-.78-.35-.78-.78v-8.85h-1.79v16.53c0,.43-.35.78-.78.78H4.11c-.43,0-.78-.35-.78-.78v-16.45H.78c-.43,0-.78-.35-.78-.78v-7.22c0-3.21,2.61-5.82,5.82-5.82h2.3c.17-.08.37-.1.57-.04.04.01.07.03.1.04h.26s.07-.03.1-.04c.2-.06.4-.04.57.04h2.3c.33,0,.63.02.93.06v-2c0-3.21,2.61-5.82,5.82-5.82h6.21c3.21,0,5.82,2.61,5.82,5.82v1.93c.29-.04.59-.07.93-.07h2.62s.02,0,.03,0h3.55c3.21,0,5.82,2.61,5.82,5.82v7.22c0,.43-.35.78-.78.78h-2.56v16.53c0,.43-.35.78-.78.78Zm-4.04-1.55h3.26v-21.96c0-.43.35-.78.78-.78s.78.35.78.78v4.66h1.79v-6.44c0-2.35-1.92-4.27-4.27-4.27h-1.58l1.54,4.89c.08.26.02.54-.16.75l-2.33,2.64c-.29.33-.87.33-1.16,0l-2.33-2.64c-.18-.2-.24-.49-.16-.75l1.54-4.89h-1.58c-.36,0-.66.03-.93.09v3.71c0,.43-.35.78-.78.78h-2.56v6.13h1.79v-4.66c0-.43.35-.78.78-.78s.78.35.78.78v21.96h3.26v-11.41c0-.43.35-.78.78-.78s.78.35.78.78v11.41Zm-25.92,0h3.26v-21.96c0-.43.35-.78.78-.78s.78.35.78.78v4.66h1.79v-6.13h-2.56c-.43,0-.78-.35-.78-.78v-3.64c-.31-.06-.59-.08-.93-.08h-1.56l1.52,4.81c.08.26.02.54-.16.75l-2.33,2.64c-.15.17-.36.26-.58.26h0c-.22,0-.43-.1-.58-.26l-2.33-2.64c-.18-.2-.24-.49-.16-.75l1.52-4.81h-1.56c-2.35,0-4.27,1.92-4.27,4.27v6.44h1.79v-4.73c0-.43.35-.78.78-.78s.78.35.78.78v5.17c.05.1.08.22.08.34s-.03.24-.08.34v16.11h3.26v-11.41c0-.43.35-.78.78-.78s.78.35.78.78v11.41Zm12.96-7.68h3.26v-21.96c0-.43.35-.78.78-.78s.78.35.78.78v4.66h1.79v-3.48s0-.02,0-.03v-2.93c0-2.35-1.92-4.27-4.27-4.27h-1.62l1.51,4.98c.08.25.02.53-.15.73l-2.25,2.64c-.15.17-.36.27-.58.27-.21.02-.44-.09-.59-.26l-2.33-2.64c-.18-.2-.24-.48-.16-.74l1.51-4.98h-1.54c-2.35,0-4.27,1.92-4.27,4.27v6.44h1.79v-4.66c0-.43.35-.78.78-.78s.78.35.78.78v21.96h3.26v-11.41c0-.43.35-.78.78-.78s.78.35.78.78v11.41Zm-15.19-15.4l1.46,1.65,1.46-1.65-1.46-4.61-1.46,4.61Zm25.92,0l1.46,1.65,1.46-1.65-1.46-4.61-1.46,4.61Zm-12.96-7.61l1.45,1.64,1.4-1.63-1.42-4.71-1.42,4.7Zm-11.5-.59c-2.52,0-4.58-2.05-4.58-4.58s2.05-4.58,4.58-4.58,4.58,2.05,4.58,4.58-2.05,4.58-4.58,4.58Zm0-7.61c-1.67,0-3.03,1.36-3.03,3.03s1.36,3.03,3.03,3.03,3.03-1.36,3.03-3.03-1.36-3.03-3.03-3.03Zm25.92,7.53c-2.52,0-4.58-2.05-4.58-4.58s2.05-4.58,4.58-4.58,4.58,2.05,4.58,4.58-2.05,4.58-4.58,4.58Zm0-7.61c-1.67,0-3.03,1.36-3.03,3.03s1.36,3.03,3.03,3.03,3.03-1.36,3.03-3.03-1.36-3.03-3.03-3.03Zm-12.96,0c-2.52,0-4.58-2.05-4.58-4.58S19.36,0,21.89,0s4.58,2.05,4.58,4.58-2.05,4.58-4.58,4.58Zm0-7.61c-1.67,0-3.03,1.36-3.03,3.03s1.36,3.03,3.03,3.03,3.03-1.36,3.03-3.03-1.36-3.03-3.03-3.03Z"/>
  </g>
</svg>