<?xml version="1.0" encoding="UTF-8"?>
<svg id="Layer_2" data-name="Layer 2" xmlns="http://www.w3.org/2000/svg" viewBox="0 0 140.05 211.83">
  <defs>
    <style>
      .cls-1 {
        fill: #ffc90f;
      }

      .cls-2 {
        fill: #fff;
      }

      .cls-3 {
        fill: #fcf7d6;
      }

      .cls-4 {
        fill: #2e3645;
      }

      .cls-5 {
        fill: #eda300;
      }

      .cls-6 {
        fill: #fccc03;
      }

      .cls-7 {
        fill: gray;
      }

      .cls-8 {
        fill: #fceda3;
      }

      .cls-9 {
        fill: #5e6675;
      }

      .cls-10 {
        fill: #f2c200;
      }

      .cls-11 {
        fill: #474f5e;
      }
    </style>
  </defs>
  <g id="Layer_1-2" data-name="Layer 1">
    <g>
      <path class="cls-2" d="m70.03,211.83c30.51,0,55.25-24.74,55.25-55.25s-24.74-55.25-55.25-55.25-55.25,24.74-55.25,55.25,24.74,55.25,55.25,55.25"/>
      <path class="cls-1" d="m110.22,112.11c-8.89,10.83-18.65,21.25-22.97,35.61-.39,1.28-.73,2.59-1.02,3.93h-32.53c-.14-.62-.28-1.23-.44-1.84-3.82-15.11-12.89-26.02-22.49-37.61-17.59-21.24-4.56-57.18,20.79-68.35,3.38-1.49,6.64-2.55,10.01-3.17,2.69-.5,5.44-.71,8.39-.65,6.64-.14,12.32,1.14,18.39,3.82,25.36,11.17,39.36,46.95,21.86,68.26"/>
      <path class="cls-8" d="m95.54,90.08c0,13.98-11.33,25.32-25.32,25.32s-25.32-11.33-25.32-25.32,11.33-30.11,25.32-30.11,25.32,16.13,25.32,30.11"/>
      <path class="cls-6" d="m103.08,36.78c-.31,0-.63-.1-.9-.31-.65-.5-.77-1.42-.27-2.07l10.49-13.64c.5-.65,1.42-.77,2.07-.27.65.5.77,1.42.27,2.07l-10.49,13.64c-.29.38-.73.57-1.17.57"/>
      <path class="cls-5" d="m121.6,60.02c-.62,0-1.19-.39-1.4-1.01-.26-.77.16-1.61.93-1.86l11.67-3.88c.77-.26,1.61.16,1.86.93.26.77-.16,1.61-.93,1.86l-11.67,3.88c-.15.05-.31.08-.47.08"/>
      <path class="cls-5" d="m71.13,25.85c-.82,0-1.48-.66-1.48-1.47V1.47c0-.81.66-1.47,1.48-1.47s1.47.66,1.47,1.47v22.9c0,.82-.66,1.47-1.47,1.47"/>
      <path class="cls-6" d="m38.69,36.78c-.44,0-.88-.2-1.17-.57l-10.49-13.64c-.5-.65-.38-1.57.27-2.07.64-.5,1.57-.38,2.07.27l10.49,13.64c.5.65.38,1.57-.27,2.07-.27.21-.58.31-.9.31"/>
      <path class="cls-5" d="m18.46,60.02c-.15,0-.31-.02-.47-.08l-11.67-3.88c-.77-.26-1.19-1.09-.93-1.86.26-.77,1.09-1.19,1.86-.93l11.67,3.88c.77.26,1.19,1.09.93,1.86-.21.62-.78,1.01-1.4,1.01"/>
      <path class="cls-6" d="m1.47,86.01c-.8,0-1.46-.64-1.47-1.45-.02-.81.63-1.49,1.45-1.5l9.74-.19h.03c.8,0,1.46.64,1.47,1.45.02.82-.63,1.49-1.45,1.5l-9.74.19h-.03"/>
      <path class="cls-3" d="m103.7,81.72c-.7,0-1.33-.51-1.45-1.22-2.1-12.13-12.71-26.03-28.24-27.91-.81-.1-1.38-.83-1.29-1.64.1-.81.83-1.38,1.64-1.29,7.88.95,15.11,4.75,20.91,10.96,5.09,5.46,8.69,12.52,9.88,19.37.14.8-.4,1.57-1.2,1.7-.08.02-.17.02-.25.02"/>
      <path class="cls-5" d="m38.15,101.26c13.93,20.39,18.04,27.81,19.8,50.39h-4.25c-3.54-16.08-12.94-27.39-22.92-39.45-17.59-21.24-4.56-57.18,20.79-68.35,3.38-1.49,6.64-2.55,10.01-3.17-24.74,8.49-39.19,37.51-23.42,60.58"/>
      <path class="cls-6" d="m138.58,86.01h-.03l-9.74-.19c-.81-.02-1.46-.69-1.45-1.5.02-.81.69-1.46,1.5-1.45l9.74.19c.81.02,1.46.69,1.45,1.5-.02.8-.67,1.45-1.47,1.45"/>
      <path class="cls-10" d="m87.25,147.72c-.39,1.28-.73,2.59-1.02,3.93h-32.53c-.14-.62-.28-1.23-.43-1.84,2.42.67,5.04.65,7.41-.17,2.32-.8,4.44-2.28,6.88-2.54,3.05-.33,5.94,1.33,8.98,1.82,3.39.54,6.81-.4,10.16-1.09.18-.04.37-.07.55-.11"/>
      <path class="cls-4" d="m70.57,77.26c-.09,0-.19,0-.28.02-2.07.3-3.24,3.76-3.51,6.02-.47,3.82.75,8.2,3.44,12.31,0,.01.02.02.02.03,3.69-3.71,5.25-9.19,3.99-14.22-.43-1.74-1.87-4.16-3.66-4.16m17.43,12.64c-1.51,0-3.17,1.04-4.14,2.08-1.84,1.98-2.8,4.69-3.73,7.31-.27.78-.54,1.56-.79,2.34,3.74-.51,6.89-3.75,8.52-5.75,1.12-1.39,2.42-3.95,1.92-5.17-.07-.16-.27-.66-1.42-.79-.12-.01-.23-.02-.35-.02m-35.85,0c-.12,0-.24,0-.35.02-1.15.13-1.36.63-1.42.79-.49,1.22.8,3.78,1.93,5.17,1.63,2.01,4.78,5.24,8.52,5.75-.25-.78-.52-1.57-.79-2.34-.93-2.62-1.89-5.33-3.73-7.31-.97-1.04-2.63-2.08-4.14-2.08m21.55,61.81c-.53-7.34-.46-26.46.32-33.26.58-5.1,1.63-10.21,3.1-15.2-.1-.01-.21-.03-.31-.05-2.33-.41-4.54-2.03-6.74-4.94-2.2,2.91-4.41,4.53-6.74,4.94-.1.02-.2.03-.3.05,1.48,4.99,2.52,10.09,3.1,15.2.78,6.79.86,25.91.32,33.26l-1.63-.12c.53-7.29.45-26.23-.32-32.95-.59-5.14-1.65-10.29-3.16-15.31-4.63-.25-8.42-4.08-10.32-6.41-1.14-1.4-3.06-4.63-2.17-6.82.29-.71,1-1.6,2.75-1.8,2.17-.25,4.52,1.11,5.88,2.57,2.08,2.23,3.14,5.23,4.08,7.88.34.97.67,1.95.98,2.92.17-.02.34-.04.51-.07,2.01-.35,3.98-1.9,6.03-4.73-.08-.12-.16-.24-.24-.36-2.9-4.44-4.21-9.2-3.69-13.4.31-2.55,1.7-6.98,4.91-7.44,3.11-.44,5.18,3.05,5.76,5.36,1.42,5.69-.4,11.88-4.64,15.99,2.01,2.74,3.95,4.24,5.92,4.58.17.03.34.05.51.07.31-.97.64-1.95.98-2.92.94-2.65,2-5.65,4.08-7.88,1.36-1.46,3.71-2.82,5.88-2.57,1.75.2,2.46,1.09,2.75,1.8.89,2.18-1.03,5.41-2.17,6.82-1.89,2.33-5.68,6.16-10.32,6.41-1.51,5.02-2.58,10.17-3.16,15.31-.77,6.73-.85,25.67-.32,32.95l-1.63.12Z"/>
      <path class="cls-9" d="m72.82,181.88h-5.42c-1.59,0-3.09-.77-4.08-2.1-2.74-3.66-.3-9.08,4.08-9.08h5.42c4.38,0,6.81,5.42,4.08,9.08-.99,1.33-2.49,2.1-4.08,2.1"/>
      <path class="cls-7" d="m89.16,148.45h-38.12c-1.92,0-3.47,1.56-3.47,3.47v.73c0,1.92,1.56,3.47,3.47,3.47h2.92c-2.01,0-3.64,1.63-3.64,3.64v.4c0,2.01,1.63,3.64,3.64,3.64h3.29c-2.05,0-3.71,1.66-3.71,3.71v.26c0,2.05,1.66,3.71,3.71,3.71h3.67c-2.05,0-3.71,1.66-3.71,3.71v.26c0,2.05,1.66,3.71,3.71,3.71h18.36c2.05,0,3.71-1.66,3.71-3.71v-.26c0-2.05-1.66-3.71-3.71-3.71h3.67c2.05,0,3.71-1.66,3.71-3.71v-.26c0-2.05-1.66-3.71-3.71-3.71h3.29c2.01,0,3.64-1.63,3.64-3.64v-.4c0-2.01-1.63-3.64-3.64-3.64h2.92c1.92,0,3.47-1.56,3.47-3.47v-.73c0-1.92-1.56-3.47-3.47-3.47"/>
      <path class="cls-4" d="m89.16,156.13h-38.12c-1.92,0-3.47-1.56-3.47-3.47v-.73c0-1.92,1.56-3.47,3.47-3.47h38.12c1.92,0,3.47,1.56,3.47,3.47v.73c0,1.92-1.56,3.47-3.47,3.47"/>
      <path class="cls-4" d="m86.25,163.81h-32.28c-2.01,0-3.64-1.63-3.64-3.64v-.4c0-2.01,1.63-3.64,3.64-3.64h32.28c2.01,0,3.64,1.63,3.64,3.64v.4c0,2.01-1.63,3.64-3.64,3.64"/>
      <path class="cls-4" d="m82.96,171.49h-25.71c-2.05,0-3.71-1.66-3.71-3.71v-.26c0-2.05,1.66-3.71,3.71-3.71h25.71c2.05,0,3.71,1.66,3.71,3.71v.26c0,2.05-1.66,3.71-3.71,3.71"/>
      <path class="cls-4" d="m79.29,179.17h-18.36c-2.05,0-3.71-1.66-3.71-3.71v-.26c0-2.05,1.66-3.71,3.71-3.71h18.36c2.05,0,3.71,1.66,3.71,3.71v.26c0,2.05-1.66,3.71-3.71,3.71"/>
      <path class="cls-11" d="m51.05,156.13c3.08-1.14,6.2-2.04,9.34-2.86,3.14-.82,6.3-1.54,9.48-2.18,3.18-.64,6.37-1.2,9.58-1.66,3.21-.45,6.44-.84,9.72-.97-3.08,1.14-6.2,2.04-9.34,2.87-3.14.82-6.3,1.54-9.48,2.18-3.18.64-6.37,1.2-9.58,1.66-3.21.45-6.44.83-9.72.98"/>
      <path class="cls-11" d="m53.97,163.81c2.57-1.13,5.2-2.03,7.85-2.86,2.65-.82,5.32-1.54,8.01-2.18,2.69-.64,5.4-1.2,8.13-1.67,2.73-.45,5.49-.84,8.29-.98-2.57,1.14-5.2,2.04-7.85,2.86-2.65.82-5.32,1.54-8.01,2.17-2.69.64-5.4,1.2-8.13,1.66-2.73.46-5.48.84-8.29.98"/>
      <path class="cls-11" d="m57.25,171.49c2-1.13,4.06-2.02,6.15-2.84,2.09-.81,4.21-1.53,6.35-2.17,2.14-.64,4.31-1.2,6.5-1.67,2.2-.46,4.41-.84,6.7-.99-2,1.13-4.06,2.03-6.15,2.85-2.09.81-4.21,1.53-6.35,2.17-2.14.64-4.31,1.2-6.5,1.67-2.2.46-4.41.84-6.7,1"/>
      <path class="cls-11" d="m60.92,179.17c1.37-1.02,2.82-1.85,4.29-2.63,1.47-.77,2.98-1.47,4.51-2.12,1.53-.64,3.09-1.22,4.67-1.73,1.59-.5,3.2-.94,4.89-1.21-1.37,1.02-2.82,1.85-4.29,2.63-1.48.77-2.98,1.48-4.51,2.11-1.53.64-3.09,1.22-4.67,1.72-1.59.5-3.2.95-4.89,1.21"/>
    </g>
  </g>
</svg>