<?xml version="1.0" encoding="utf-8"?>
<!-- Generator: Adobe Illustrator 27.4.1, SVG Export Plug-In . SVG Version: 6.00 Build 0)  -->
<svg version="1.1" id="Layer_2_00000032646238731657376330000018327397941144243353_"
	 xmlns="http://www.w3.org/2000/svg" xmlns:xlink="http://www.w3.org/1999/xlink" x="0px" y="0px" viewBox="0 0 38 38"
	 style="enable-background:new 0 0 38 38;" xml:space="preserve">
<style type="text/css">
	.st0{fill:#112D6A;}
</style>
<g id="Layer_1-2">
	<g>
		<path class="st0" d="M19,0C8.5,0,0,8.5,0,19s8.5,19,19,19s19-8.5,19-19S29.5,0,19,0 M19,0.9C29,0.9,37,9,37,19S29,37,19,37
			S0.9,29,0.9,19S9,0.9,19,0.9"/>
	</g>
</g>
<g>
	<path class="st0" d="M27.7,27.2l-6.8-9.9l-0.8-1.1l-4.9-7.1l-0.4-0.6h-6l1.5,2.1l6.5,9.4l0.8,1.1l5.2,7.5l0.4,0.6h6L27.7,27.2z
		 M23.9,28l-5.4-7.8l-0.8-1.1L11.4,10h2.7l5.1,7.4l0.8,1.1l6.6,9.6H23.9z"/>
	<polygon class="st0" points="17.7,19.1 18.5,20.2 17.6,21.2 10.6,29.4 8.8,29.4 16.8,20.1 	"/>
	<polygon class="st0" points="28.4,8.6 20.9,17.4 20,18.4 19.2,17.3 20.1,16.3 25.2,10.3 26.7,8.6 	"/>
</g>
</svg>
