<?xml version="1.0" encoding="UTF-8"?>
<svg id="Layer_2" data-name="Layer 2" xmlns="http://www.w3.org/2000/svg" viewBox="0 0 37.97 37.97">
  <defs>
    <style>
      .cls-1 {
        fill: #112d6a;
      }
    </style>
  </defs>
  <g id="Layer_1-2" data-name="Layer 1">
    <g>
      <path class="cls-1" d="m18.98,0C8.51,0,0,8.52,0,18.98s8.51,18.98,18.98,18.98,18.99-8.52,18.99-18.98S29.45,0,18.98,0m0,.93c9.97,0,18.06,8.08,18.06,18.06s-8.09,18.06-18.06,18.06S.93,28.96.93,18.98,9.01.93,18.98.93"/>
      <path class="cls-1" d="m16.52,22.26c2.09-1.08,4.16-2.16,6.26-3.25-2.1-1.1-4.17-2.18-6.26-3.27v6.51Zm-5.52,3.61c-.76-.25-1.27-.75-1.55-1.5-.67-1.84-.87-9.55.42-11.07.44-.52,1.01-.82,1.69-.89,3.48-.38,14.22-.32,15.46.12.73.26,1.24.74,1.52,1.46.73,1.9.76,8.83-.1,10.67-.23.5-.61.85-1.09,1.1-1.3.68-14.64.67-16.35.11"/>
    </g>
  </g>
</svg>