<?xml version="1.0" encoding="UTF-8"?>
<svg id="Layer_2" data-name="Layer 2" xmlns="http://www.w3.org/2000/svg" viewBox="0 0 106.5 106.5">
  <defs>
    <style>
      .cls-1 {
        fill: none;
        stroke: #fff;
        stroke-linejoin: round;
        stroke-width: 2px;
      }

      .cls-2 {
        fill: #112d6a;
      }
    </style>
  </defs>
  <g id="Layer_1-2" data-name="Layer 1">
    <g>
      <path class="cls-2" d="m53.25,106.5c29.41,0,53.25-23.84,53.25-53.25S82.66,0,53.25,0,0,23.84,0,53.25s23.84,53.25,53.25,53.25"/>
      <path class="cls-1" d="m44.74,22.5c-2.46-1.6-5.39-2.53-8.53-2.53-8.63,0-15.63,7-15.63,15.63,0,8.16,6.24,14.85,14.21,15.57m27-28.67c-2.45-1.6-5.39-2.53-8.53-2.53-8.63,0-15.63,7-15.63,15.63,0,.97.09,1.92.26,2.84m6.84,10.26c2.45,1.6,5.38,2.53,8.53,2.53s6.07-.93,8.52-2.53m-1.42-14.53v2.84m19.89-2.84v2.84m-9.94-14.21v4.26m-4.26,12.79c0,2.35,1.91,4.26,4.26,4.26s4.26-1.91,4.26-4.26-1.91-4.26-4.26-4.26-4.26-1.91-4.26-4.26,1.91-4.26,4.26-4.26,4.26,1.91,4.26,4.26m-4.26,12.79v4.26m-15.63-12.79c0,8.64,7,15.64,15.63,15.64s15.63-7,15.63-15.64-7-15.63-15.63-15.63-15.63,7-15.63,15.63Zm17.05,18.48v8.53l-5.68,5.69v5.68h-25.57v-5.68l-5.68-5.69v-8.53m0,0v-12.79c0-1.57,1.27-2.84,2.84-2.84h1.42c3.14,0,5.68,2.54,5.68,5.68v9.95l5.68,4.26v7.11m17.05,17.06h-28.41v-8.53h28.41v8.53Z"/>
    </g>
  </g>
</svg>