<?xml version="1.0" encoding="UTF-8"?>
<svg id="Layer_2" data-name="Layer 2" xmlns="http://www.w3.org/2000/svg" viewBox="0 0 84.91 84.91">
  <defs>
    <style>
      .cls-1 {
        fill: #fff;
      }

      .cls-2 {
        fill: #1e6f41;
      }
    </style>
  </defs>
  <g id="Layer_1-2" data-name="Layer 1">
    <g>
      <path class="cls-1" d="m42.45,84.91c23.45,0,42.45-19.01,42.45-42.45S65.9,0,42.45,0,0,19.01,0,42.45s19.01,42.45,42.45,42.45"/>
      <path class="cls-2" d="m21.74,41.92l3.62-5.43c.3-.44.89-.55,1.32-.26.44.29.55.88.26,1.32l-2.95,4.42c-.2.29-.2.68,0,.97l2.95,4.43c.28.51.21.94-.23,1.3-.38.23-1.1.16-1.34-.23,0,0,0-.01-.01-.02l-3.62-5.44c-.21-.32-.21-.73,0-1.05m-1.46,2.02l3.62,5.43c.74,1.16,2.42,1.57,3.72.78,1.4-.85,1.47-2.64.78-3.76l-2.62-3.94,2.62-3.93c.81-1.14.51-2.84-.75-3.74-1.1-.8-2.83-.59-3.74.75l-3.62,5.43c-.61.91-.61,2.08,0,2.99"/>
      <path class="cls-2" d="m48.68,42.98l-3.62,5.43c-.28.41-.81.6-1.28.29-.48-.32-.59-.93-.31-1.35l2.95-4.42c.2-.29.2-.68,0-.97l-2.95-4.42c-.29-.44-.18-1.04.26-1.32.48-.29,1-.21,1.32.26l3.62,5.43c.21.32.21.73,0,1.05m1.46-2.03l-3.62-5.43c-1.04-1.28-2.48-1.57-3.74-.75-1.25.81-1.57,2.51-.75,3.74l2.62,3.94-2.62,3.94c-.8,1.2-.5,2.8.71,3.71,1.21.91,2.98.5,3.79-.72l3.62-5.43c.61-.91.61-2.08,0-3"/>
      <path class="cls-2" d="m37.32,36.12c.45.14.73.64.6,1.2l-3.62,10.85c-.2.51-.73.8-1.18.63-.52-.19-.79-.72-.63-1.21l3.62-10.87c.17-.5.71-.77,1.2-.6m-2.86.05l-3.62,10.87c-.46,1.39.28,2.88,1.68,3.41,1.37.51,2.97-.31,3.44-1.7l3.62-10.87c.47-1.41-.29-2.94-1.71-3.41-1.41-.47-2.94.29-3.41,1.71"/>
      <path class="cls-2" d="m66.1,54.01l-6.46-6.46c.7-.86,1.22-1.87,1.52-2.99.12-.47-.15-.95-.62-1.07-.47-.12-.95.15-1.07.62-.65,2.43-2.77,4.31-5.28,4.65v-1.9c2.06-.41,3.62-2.23,3.62-4.41s-1.56-4-3.62-4.41v-1.9c2.47.34,4.6,2.21,5.26,4.61.27.52.63.73,1.08.61.47-.13.74-.61.61-1.08-.3-1.09-.82-2.08-1.5-2.92l6.46-6.46c2.76,3.06,4.45,7.11,4.45,11.55s-1.69,8.49-4.45,11.55m-11.91,5.66v-9.14c1.57-.17,3.02-.79,4.21-1.74l6.46,6.46c-2.86,2.58-6.58,4.22-10.67,4.43m0-19.82c1.09.37,1.87,1.39,1.87,2.6s-.79,2.24-1.87,2.6v-5.21Zm0-14.61c4.09.21,7.82,1.85,10.67,4.43l-6.46,6.46c-1.19-.96-2.65-1.58-4.21-1.75v-9.14Zm0-1.75v-2.77c0-.48-.39-.87-.88-.87h-15.05c-.48,0-.88.39-.88.87s.39.87.88.87h14.18v41.72H17.97v-5.72c0-.48-.39-.88-.87-.88s-.88.39-.88.88v5.72h-1.87V21.59h1.87v32.19c0,.48.39.88.88.88s.87-.39.87-.88V21.59h16.49c.48,0,.88-.39.88-.87s-.39-.87-.88-.87H13.47c-.48,0-.87.39-.87.87v43.47c0,.48.39.87.87.87h39.85c.48,0,.88-.39.88-.87v-2.77c10.09-.34,18.11-8.33,18.11-18.97,0-14.02-11.57-19.07-18.11-18.97"/>
      <path class="cls-2" d="m46.07,25.28h-21.73c-.48,0-.88.39-.88.88s.39.87.88.87h21.73c.48,0,.88-.39.88-.87s-.39-.88-.88-.88"/>
      <path class="cls-2" d="m35.2,28.77h-10.87c-.48,0-.87.39-.87.88s.39.87.87.87h10.87c.48,0,.88-.39.88-.87s-.39-.88-.88-.88"/>
      <path class="cls-2" d="m46.95,55.2c0-.48-.39-.88-.88-.88h-21.73c-.48,0-.88.39-.88.88s.39.88.88.88h21.73c.48,0,.88-.39.88-.88"/>
      <path class="cls-2" d="m24.34,57.81c-.48,0-.88.39-.88.88s.39.87.88.87h10.86c.48,0,.87-.39.87-.87s-.39-.88-.87-.88h-10.86Z"/>
    </g>
  </g>
</svg>