<?xml version="1.0" encoding="UTF-8"?>
<svg id="Layer_2" data-name="Layer 2" xmlns="http://www.w3.org/2000/svg" viewBox="0 0 197.41 57.55">
  <defs>
    <style>
      .cls-1 {
        fill: #d6d900;
      }

      .cls-2 {
        fill: #fff;
      }

      .cls-3 {
        fill: #3554a2;
      }

      .cls-4 {
        fill: #06672f;
      }

      .cls-5 {
        fill: #008c3e;
      }

      .cls-6 {
        fill: #089dd9;
      }
    </style>
  </defs>
  <g id="Layer_1-2" data-name="Layer 1">
    <g>
      <path class="cls-1" d="m194.89,17.93s0,0,0-.01c0-.02-.01-.03-.02-.05,0,0,0,0,0-.01,0-.02-.02-.04-.02-.05,0,0,0,0,0,0,0-.02-.01-.03-.02-.05,0,0,0-.01-.01-.02,0-.01-.01-.03-.02-.04,0,0,0,0,0,0-.01-.02-.01-.03-.02-.05-.07-.15-2.58-3.83-2.58-3.83-.32-.67-1.11-.87-1.7-.4l-25.11,20.9c-.54.4-.56.98-.12,1.36,0,0,5.35,3.2,5.35,3.2.9.48,1.03-.69,1.79-1.23,0,0,21.92-17.76,23.02-18.49.22-.15-.38-.81-.53-1.22"/>
      <path class="cls-6" d="m195.25,17.71c-.08-.15-3.17-4.06-3.17-4.06-.08-.14-.18-.25-.31-.34-.42-.37-1.08-.52-1.75-.37,0,0-15.78,4.14-22.4,6.41-2.06.71-3.61.09-3.61.09-.48.11-.81,1.36-1.1,1.81-.21.32-.29-.03-.29.52,0,.67-.67,3.76-.58,4.24.03.32.07.46.45.62.02,0,.04.02.07.02h0s.05,0,.07.01c.16.03.22.46.57.4.43-.08,15.97-4.1,15.97-4.1h0s14.79-3.11,14.79-3.11c2.23-.49,1.54-1.66,1.29-2.15"/>
      <path class="cls-3" d="m185.16,4.61l-3.52-4.09c-.47-.6-1.28-.7-1.87-.15,0,0-7.92,6.09-13.75,14.66-1.05,1.55-3.62,5.82-3.96,6.72-.24.64-.24,3.93-.15,4.43.02.32.13.7.51.88.02,0,.04.01.06.02,0,0,.02,0,.03,0,.01,0,.03,0,.04.01.01,0,.02,0,.04,0,0,0,.02,0,.03,0,.02,0,.03,0,.04,0,.01,0,.02,0,.03,0,.02,0,.04,0,.06,0h.02s.05,0,.07,0h.02s.05,0,.07-.01h.01s.06,0,.08,0h0c.23-.04.46-.12.61-.24,0,0,0,0,.01,0h0c.16-.09,1.92-2.72,5.32-6.48,5.98-6.6,15.96-13.74,15.96-13.74.61-.52.71-1.36.23-2"/>
      <path class="cls-5" d="m197.29,27.75l-.52,6.28c-.08.64-.57,1.25-1.28,1.53-.1.04-.2.08-.31.1l-2.54.53.16-.74-19.79,3.92c-1.31.27-1.75.11-2.67-.41l-5.01-3.3c-.68-.38-.61-.87.15-1.09l31.35-7.92c.28-.07.35-.08.38-.03.09.15.08,1.11.08,1.11"/>
      <path class="cls-4" d="m196.61,26.92s-1.31,2.43-1.81,3.3c-4.41,7.63-14.52,15.55-14.52,15.55-.5.57-.49,1.45.12,1.96l4.37,3.49c.65.53,1.45.35,1.92-.05,1.71-1.51,8.79-11.29,10.19-17.58l.41-5.04.11-1.32c.09-.69-.41-.85-.78-.3"/>
      <path class="cls-2" d="m.71,53.39v3.44h2.14c.61,0,1.09-.15,1.45-.46.36-.31.54-.74.54-1.29,0-.52-.17-.93-.51-1.23-.34-.3-.81-.45-1.42-.45H.71Zm0-.6h1.95c.59-.01,1.05-.15,1.38-.42.33-.27.49-.66.49-1.17,0-.54-.17-.94-.51-1.2-.34-.26-.85-.39-1.53-.39H.71v3.18Zm-.71,4.65v-8.43h2.49c.9,0,1.59.19,2.05.56.47.37.7.92.7,1.65,0,.44-.12.81-.36,1.14-.24.32-.56.55-.97.69.49.11.89.35,1.18.72s.45.81.45,1.3c0,.74-.24,1.33-.72,1.74-.48.42-1.15.63-2.01.63H0Z"/>
      <path class="cls-2" d="m8.88,56.94c.46,0,.88-.11,1.24-.33.37-.22.63-.52.8-.9v-1.38h-1.24c-.69,0-1.23.13-1.62.38-.39.25-.58.58-.58,1.01,0,.35.13.64.39.87.26.23.6.35,1.02.35m2.18.5c-.07-.2-.11-.49-.13-.87-.24.32-.55.56-.93.73-.38.17-.78.26-1.2.26-.6,0-1.09-.17-1.46-.5-.37-.34-.56-.76-.56-1.27,0-.61.25-1.09.76-1.45.51-.36,1.22-.53,2.12-.53h1.26v-.71c0-.45-.14-.8-.41-1.06-.28-.26-.68-.38-1.21-.38-.48,0-.88.12-1.2.37-.32.25-.48.54-.48.89h-.69c0-.5.23-.93.69-1.3.46-.37,1.03-.55,1.71-.55s1.25.18,1.65.52c.4.35.61.84.62,1.46v2.96c0,.61.06,1.06.19,1.36v.07h-.74Z"/>
      <path class="cls-2" d="m14.11,51.18l.02,1.07c.24-.39.53-.68.88-.88.35-.2.74-.31,1.16-.31.67,0,1.17.19,1.5.57s.49.94.5,1.7v4.11h-.69v-4.11c0-.56-.12-.98-.36-1.25-.23-.27-.61-.41-1.12-.41-.43,0-.81.14-1.14.4-.33.27-.57.63-.73,1.08v4.29h-.69v-6.26h.66Z"/>
      <path class="cls-2" d="m22.28,56.97c.48,0,.89-.14,1.21-.41.33-.27.5-.62.53-1.06h.67c-.02.38-.14.73-.36,1.04-.22.32-.51.56-.88.74-.37.18-.76.27-1.17.27-.82,0-1.47-.29-1.95-.86-.48-.57-.72-1.34-.72-2.3v-.21c0-.62.11-1.16.32-1.64.22-.47.53-.84.93-1.1.4-.26.88-.39,1.41-.39.69,0,1.25.2,1.7.61.45.41.68.95.71,1.62h-.67c-.03-.49-.21-.89-.53-1.19-.32-.3-.73-.45-1.22-.45-.62,0-1.11.23-1.46.68-.34.45-.52,1.08-.52,1.9v.2c0,.8.17,1.42.52,1.87.35.45.83.67,1.46.67"/>
      <path class="cls-2" d="m27.85,56.94c.46,0,.88-.11,1.24-.33.37-.22.63-.52.8-.9v-1.38h-1.24c-.69,0-1.23.13-1.62.38-.39.25-.58.58-.58,1.01,0,.35.13.64.39.87.26.23.6.35,1.02.35m2.18.5c-.07-.2-.11-.49-.13-.87-.24.32-.55.56-.93.73-.38.17-.78.26-1.2.26-.6,0-1.09-.17-1.46-.5-.37-.34-.56-.76-.56-1.27,0-.61.25-1.09.76-1.45.51-.36,1.22-.53,2.12-.53h1.26v-.71c0-.45-.14-.8-.41-1.06-.28-.26-.68-.38-1.21-.38-.48,0-.88.12-1.2.37-.32.25-.47.54-.47.89h-.7c0-.5.23-.93.7-1.3.46-.37,1.03-.55,1.71-.55s1.25.18,1.65.52.61.84.62,1.46v2.96c0,.61.06,1.06.19,1.36v.07h-.74Z"/>
      <path class="cls-2" d="m35.73,54.37c0,.8.16,1.43.48,1.89.32.46.77.69,1.35.69.85,0,1.46-.38,1.82-1.13v-2.94c-.36-.82-.96-1.22-1.81-1.22-.58,0-1.04.23-1.36.69-.32.46-.49,1.13-.49,2.02m-.7-.12c0-.97.22-1.75.65-2.32.44-.58,1.02-.86,1.77-.86.84,0,1.49.33,1.93,1v-3.51h.69v8.89h-.65l-.03-.83c-.44.63-1.1.95-1.96.95-.72,0-1.3-.29-1.74-.87s-.66-1.37-.66-2.35v-.08Z"/>
      <path class="cls-2" d="m44.19,51.65c-.52,0-.96.19-1.32.57-.36.38-.57.89-.65,1.54h3.76v-.08c-.02-.6-.19-1.09-.51-1.47-.32-.38-.75-.57-1.27-.57m.13,5.9c-.53,0-1.01-.13-1.44-.39-.43-.26-.77-.63-1-1.1-.24-.47-.36-.99-.36-1.58v-.25c0-.6.12-1.14.35-1.63.23-.48.56-.86.97-1.14.42-.28.87-.41,1.35-.41.76,0,1.36.26,1.81.78.45.52.67,1.23.67,2.13v.39h-4.47v.13c0,.71.2,1.3.61,1.77.41.47.92.71,1.54.71.37,0,.7-.07.98-.2.28-.14.54-.35.77-.65l.43.33c-.51.74-1.25,1.1-2.22,1.1"/>
      <path class="cls-2" d="m51.77,49.61v7.22h1.6c.89,0,1.6-.29,2.14-.88.54-.59.8-1.39.8-2.39v-.74c0-.97-.26-1.75-.79-2.33-.53-.58-1.22-.88-2.09-.88h-1.66Zm-.71,7.83v-8.43h2.36c.69,0,1.31.16,1.86.47.55.31.98.76,1.28,1.35.31.59.46,1.25.46,2v.78c0,.75-.15,1.42-.46,2-.3.58-.73,1.03-1.29,1.35-.55.32-1.19.47-1.91.47h-2.3Z"/>
      <path class="cls-2" d="m60.96,51.65c-.52,0-.96.19-1.32.57-.36.38-.57.89-.65,1.54h3.76v-.08c-.02-.6-.19-1.09-.51-1.47-.32-.38-.75-.57-1.27-.57m.13,5.9c-.53,0-1.01-.13-1.44-.39-.43-.26-.77-.63-1.01-1.1-.24-.47-.36-.99-.36-1.58v-.25c0-.6.12-1.14.35-1.63.23-.48.56-.86.98-1.14.42-.28.87-.41,1.35-.41.76,0,1.36.26,1.81.78.45.52.67,1.23.67,2.13v.39h-4.47v.13c0,.71.2,1.3.61,1.77.41.47.92.71,1.54.71.37,0,.7-.07.98-.2.28-.14.54-.35.77-.65l.43.33c-.51.74-1.25,1.1-2.22,1.1"/>
      <path class="cls-2" d="m68.54,55.85c0-.34-.14-.62-.41-.83-.28-.21-.69-.37-1.25-.49-.56-.12-.99-.25-1.29-.4-.31-.15-.54-.34-.68-.56-.15-.22-.22-.49-.22-.8,0-.49.21-.9.62-1.22.41-.32.94-.48,1.59-.48.7,0,1.26.17,1.68.52.42.35.63.8.63,1.35h-.69c0-.37-.15-.67-.46-.91-.31-.24-.69-.36-1.16-.36s-.82.1-1.1.3c-.28.2-.41.47-.41.79s.12.55.35.73c.23.17.65.33,1.26.47.61.14,1.06.3,1.37.46.3.16.53.36.67.58.15.23.22.5.22.83,0,.53-.21.95-.64,1.27-.43.32-.98.47-1.67.47-.73,0-1.32-.18-1.77-.53-.45-.35-.68-.8-.68-1.34h.69c.03.4.2.72.51.95.31.23.73.34,1.25.34.48,0,.87-.11,1.17-.32.3-.21.45-.48.45-.81"/>
      <path class="cls-2" d="m72.56,56.94c.46,0,.88-.11,1.24-.33.36-.22.63-.52.8-.9v-1.38h-1.24c-.69,0-1.23.13-1.62.38-.39.25-.58.58-.58,1.01,0,.35.13.64.39.87.26.23.6.35,1.02.35m2.18.5c-.07-.2-.11-.49-.13-.87-.24.32-.55.56-.93.73-.38.17-.78.26-1.2.26-.6,0-1.09-.17-1.46-.5-.37-.34-.56-.76-.56-1.27,0-.61.25-1.09.76-1.45.51-.36,1.22-.53,2.12-.53h1.26v-.71c0-.45-.14-.8-.41-1.06-.28-.26-.68-.38-1.21-.38-.48,0-.88.12-1.2.37-.32.25-.48.54-.48.89h-.69c0-.5.23-.93.69-1.3.46-.37,1.03-.55,1.71-.55s1.25.18,1.65.52c.4.35.61.84.62,1.46v2.96c0,.61.06,1.06.19,1.36v.07h-.74Z"/>
      <path class="cls-2" d="m80.03,51.77c-.15-.03-.3-.04-.47-.04-.43,0-.8.12-1.1.36-.3.24-.51.59-.64,1.05v4.3h-.69v-6.26h.68v1c.38-.74.97-1.11,1.78-1.11.19,0,.34.02.46.07l-.02.63Z"/>
      <path class="cls-2" d="m84.02,51.77c-.15-.03-.3-.04-.47-.04-.43,0-.8.12-1.1.36-.3.24-.51.59-.64,1.05v4.3h-.69v-6.26h.68v1c.38-.74.97-1.11,1.78-1.11.19,0,.34.02.46.07l-.02.63Z"/>
      <path class="cls-2" d="m85.32,54.41c0,.75.19,1.36.58,1.84.39.48.9.72,1.53.72s1.13-.24,1.52-.72c.39-.48.58-1.11.58-1.9v-.13c0-.48-.09-.92-.27-1.31-.18-.4-.43-.71-.75-.92-.32-.22-.69-.33-1.1-.33-.62,0-1.12.24-1.51.73-.39.49-.58,1.12-.58,1.9v.13Zm-.69-.19c0-.6.12-1.14.35-1.63.23-.48.56-.86.99-1.13.43-.27.91-.4,1.45-.4.83,0,1.51.29,2.03.88.52.58.78,1.36.78,2.32v.14c0,.61-.12,1.15-.35,1.64-.23.48-.56.86-.99,1.12-.42.26-.91.39-1.45.39-.83,0-1.5-.29-2.02-.88-.52-.58-.78-1.36-.78-2.32v-.14Z"/>
      <rect class="cls-2" x="91.73" y="48.55" width=".69" height="8.89"/>
      <rect class="cls-2" x="94.39" y="48.55" width=".69" height="8.89"/>
      <path class="cls-2" d="m97.27,54.41c0,.75.19,1.36.58,1.84.39.48.9.72,1.53.72s1.13-.24,1.52-.72c.39-.48.58-1.11.58-1.9v-.13c0-.48-.09-.92-.27-1.31-.18-.4-.43-.71-.75-.92-.32-.22-.69-.33-1.1-.33-.62,0-1.12.24-1.51.73-.39.49-.58,1.12-.58,1.9v.13Zm-.69-.19c0-.6.12-1.14.35-1.63.23-.48.56-.86.99-1.13.43-.27.91-.4,1.45-.4.83,0,1.51.29,2.03.88.52.58.78,1.36.78,2.32v.14c0,.61-.12,1.15-.35,1.64-.23.48-.56.86-.99,1.12-.42.26-.91.39-1.45.39-.83,0-1.5-.29-2.02-.88-.52-.58-.78-1.36-.78-2.32v-.14Z"/>
      <polygon class="cls-2" points="112.14 49.61 109.25 49.61 109.25 57.44 108.54 57.44 108.54 49.61 105.66 49.61 105.66 49.01 112.14 49.01 112.14 49.61"/>
      <path class="cls-2" d="m115.07,51.65c-.52,0-.96.19-1.32.57-.36.38-.57.89-.65,1.54h3.76v-.08c-.02-.6-.19-1.09-.51-1.47-.32-.38-.75-.57-1.27-.57m.13,5.9c-.53,0-1.01-.13-1.44-.39-.43-.26-.77-.63-1.01-1.1-.24-.47-.36-.99-.36-1.58v-.25c0-.6.12-1.14.35-1.63.23-.48.56-.86.97-1.14.42-.28.87-.41,1.35-.41.76,0,1.36.26,1.81.78.45.52.67,1.23.67,2.13v.39h-4.47v.13c0,.71.2,1.3.61,1.77.41.47.92.71,1.54.71.37,0,.7-.07.98-.2.28-.14.54-.35.77-.65l.43.33c-.51.74-1.25,1.1-2.22,1.1"/>
      <path class="cls-2" d="m121.79,51.77c-.15-.03-.3-.04-.47-.04-.43,0-.8.12-1.1.36-.3.24-.51.59-.64,1.05v4.3h-.69v-6.26h.68v1c.38-.74.97-1.11,1.78-1.11.19,0,.34.02.46.07l-.02.63Z"/>
      <path class="cls-2" d="m125.78,51.77c-.15-.03-.3-.04-.47-.04-.43,0-.8.12-1.1.36-.3.24-.51.59-.64,1.05v4.3h-.69v-6.26h.68v1c.38-.74.97-1.11,1.78-1.11.19,0,.34.02.46.07l-.02.63Z"/>
      <path class="cls-2" d="m127.65,57.44h-.69v-6.26h.69v6.26Zm-.82-8.07c0-.13.04-.24.13-.33.08-.09.2-.14.35-.14s.26.04.35.14c.09.09.13.2.13.33s-.04.24-.13.33c-.09.09-.2.13-.35.13s-.26-.04-.35-.13c-.08-.09-.13-.2-.13-.33"/>
      <path class="cls-2" d="m130.6,49.57v1.6h1.3v.57h-1.3v4.18c0,.35.06.61.19.78.13.17.33.26.63.26.12,0,.3-.02.56-.06l.03.56c-.18.07-.43.1-.74.1-.47,0-.82-.14-1.04-.41-.22-.27-.32-.68-.32-1.22v-4.18h-1.15v-.57h1.15v-1.6h.7Z"/>
      <path class="cls-2" d="m133.54,54.41c0,.75.19,1.36.58,1.84.39.48.9.72,1.53.72s1.13-.24,1.52-.72c.39-.48.58-1.11.58-1.9v-.13c0-.48-.09-.92-.27-1.31-.18-.4-.43-.71-.75-.92-.32-.22-.69-.33-1.1-.33-.62,0-1.12.24-1.51.73-.39.49-.58,1.12-.58,1.9v.13Zm-.69-.19c0-.6.12-1.14.35-1.63.23-.48.56-.86.99-1.13.43-.27.91-.4,1.45-.4.83,0,1.51.29,2.03.88.52.58.78,1.36.78,2.32v.14c0,.61-.12,1.15-.35,1.64-.23.48-.56.86-.99,1.12-.42.26-.91.39-1.45.39-.83,0-1.5-.29-2.02-.88-.52-.58-.78-1.36-.78-2.32v-.14Z"/>
      <path class="cls-2" d="m142.76,51.77c-.15-.03-.3-.04-.47-.04-.43,0-.8.12-1.1.36-.3.24-.51.59-.64,1.05v4.3h-.69v-6.26h.68v1c.38-.74.97-1.11,1.78-1.11.19,0,.34.02.46.07l-.02.63Z"/>
      <path class="cls-2" d="m144.63,57.44h-.69v-6.26h.69v6.26Zm-.82-8.07c0-.13.04-.24.13-.33.08-.09.2-.14.35-.14s.26.04.35.14c.09.09.13.2.13.33s-.04.24-.13.33c-.09.09-.2.13-.35.13s-.26-.04-.35-.13c-.08-.09-.13-.2-.13-.33"/>
      <path class="cls-2" d="m148.29,56.94c.46,0,.88-.11,1.24-.33.36-.22.63-.52.8-.9v-1.38h-1.24c-.69,0-1.23.13-1.62.38-.39.25-.58.58-.58,1.01,0,.35.13.64.39.87.26.23.6.35,1.02.35m2.18.5c-.07-.2-.11-.49-.13-.87-.24.32-.55.56-.93.73-.38.17-.78.26-1.2.26-.6,0-1.09-.17-1.46-.5-.37-.34-.56-.76-.56-1.27,0-.61.25-1.09.76-1.45.51-.36,1.22-.53,2.12-.53h1.26v-.71c0-.45-.14-.8-.41-1.06-.28-.26-.68-.38-1.21-.38-.48,0-.88.12-1.2.37-.32.25-.48.54-.48.89h-.69c0-.5.23-.93.69-1.3.46-.37,1.03-.55,1.71-.55s1.25.18,1.65.52c.4.35.61.84.62,1.46v2.96c0,.61.06,1.06.19,1.36v.07h-.74Z"/>
      <rect class="cls-2" x="152.95" y="48.55" width=".69" height="8.89"/>
      <path class="cls-2" d="m21.69,11.17c0-1.54,1.25-2.79,2.79-2.79s2.79,1.25,2.79,2.79-1.25,2.79-2.79,2.79-2.79-1.25-2.79-2.79"/>
      <path class="cls-2" d="m18.22,12.74s-5.49-.26-8.75.36c-3.08.58-3.71,3.39-3.71,5.71v2.56h10.82v2.94c0,1.22-1.01,1.65-1.81,1.65H5.76v13.48H.15v-20.77C.15,14.26,2.48,9.97,6.54,8.96c4.98-1.24,11.73-.52,11.73-.52l-.05,4.3Z"/>
      <path class="cls-2" d="m66.78,36.05c1.81.17,3.71-.26,4.49-.69v-13.24c-.57-.26-1.18-.46-1.82-.61-.64-.15-1.32-.22-2.06-.22-.92,0-1.74.19-2.46.57-.71.38-1.31.9-1.8,1.54-.49.64-.86,1.4-1.12,2.26-.26.87-.39,1.78-.39,2.75s.11,1.92.32,2.84c.21.92.53,1.73.96,2.45.43.71.97,1.28,1.61,1.71.65.43,1.41.56,2.27.64m1.93,4.08c-2.47.23-5.78-.35-7-.93-1.22-.58-2.24-1.39-3.09-2.41-.84-1.02-1.49-2.23-1.93-3.63-.44-1.4-.66-2.92-.66-4.55,0-1.47.24-2.88.73-4.24.49-1.36,1.2-2.56,2.12-3.61.92-1.05,2.05-1.89,3.37-2.52,1.31-.63,2.81-.95,4.48-.95,1.06,0,1.96.12,2.69.35.73.23,1.34.52,1.84.88v-8.4s3.51-1.06,4.57-1.36c.83-.24.73.73.73,1.12v24.08c0,.57-.1,2.3-.1,3.59,0,1.4-6.54,2.47-7.76,2.59"/>
      <path class="cls-2" d="m89.98,21.27c-.86,0-1.56.15-2.12.45-.56.3-1,.69-1.33,1.18-.33.49-.56,1.05-.69,1.67-.14.62-.21,1.27-.21,1.94h8.43c0-.57-.04-1.17-.12-1.78-.08-.62-.27-1.18-.55-1.69-.29-.51-.7-.93-1.23-1.26-.54-.33-1.26-.5-2.17-.5m9.6,14.57c-.83,1.49-2.05,2.82-4.09,3.59-.77.29-1.56.49-2.36.58-.8.09-1.64.14-2.51.14-1.88,0-3.48-.33-4.82-.98-1.34-.65-2.44-1.52-3.28-2.61-.85-1.09-1.48-2.34-1.88-3.75-.4-1.42-.6-2.88-.6-4.4s.21-2.87.62-4.21c.41-1.34,1.05-2.52,1.9-3.54.85-1.02,1.92-1.84,3.2-2.45,1.29-.61,2.8-.92,4.54-.92,1.55,0,2.91.21,4.08.63,1.17.42,2.15,1.03,2.93,1.81.78.79,1.37,1.74,1.77,2.87.39,1.12.59,2.38.59,3.76,0,.53,0,1.58-.09,2.14-.14.96-.3,1.26-1.27,1.26h-12.68c0,.64.12,1.34.35,2.1.23.76.57,1.48,1.01,2.15.44.67.99,1.23,1.64,1.68.65.45,1.4.67,2.24.67.73,0,1.38-.05,1.93-.16.55-.11,1.05-.31,1.53-.53,1.75-.84,1.74-1.66,2.87-1.43,1.12.23,2.4,1.58,2.4,1.58"/>
      <path class="cls-2" d="m127.51,21.27c-.86,0-1.56.15-2.12.45-.56.3-1,.69-1.33,1.18-.33.49-.56,1.05-.69,1.67-.14.62-.21,1.27-.21,1.94h8.42c0-.57-.04-1.17-.12-1.78-.08-.62-.26-1.18-.55-1.69-.28-.51-.7-.93-1.23-1.26-.54-.33-1.26-.5-2.17-.5m9.6,14.57c-.83,1.49-2.05,2.82-4.09,3.59-.78.29-1.56.49-2.37.58-.8.09-1.64.14-2.51.14-1.88,0-3.48-.33-4.82-.98-1.34-.65-2.43-1.52-3.28-2.61-.85-1.09-1.48-2.34-1.88-3.75-.4-1.42-.6-2.88-.6-4.4s.21-2.87.62-4.21c.41-1.34,1.05-2.52,1.9-3.54.85-1.02,1.91-1.84,3.2-2.45,1.28-.61,2.79-.92,4.54-.92,1.55,0,2.91.21,4.08.63,1.17.42,2.14,1.03,2.93,1.81.78.79,1.37,1.74,1.76,2.87.4,1.12.59,2.38.59,3.76,0,.53,0,1.58-.08,2.14-.14.96-.3,1.26-1.27,1.26h-12.68c0,.64.11,1.34.35,2.1.23.76.56,1.48,1.01,2.15.44.67.99,1.23,1.64,1.68.65.45,1.4.67,2.24.67.73,0,1.37-.05,1.93-.16.55-.11,1.05-.31,1.53-.53,1.75-.84,1.74-1.66,2.86-1.43,1.13.23,2.4,1.58,2.4,1.58"/>
      <path class="cls-2" d="m22.01,17.58h3.62c1.53,0,1.51,1.78,1.51,1.78v20.31h-5.13v-22.09Z"/>
      <path class="cls-2" d="m42.44,17.49c.63-.18,1.3-.21,2-.21,1.14,0,2.21.18,3.19.53.98.35,1.84.86,2.57,1.53.73.67,1.3,1.48,1.72,2.45.42.96.63,2.06.63,3.28v14.58h-5.3v-13.58c0-.88-.08-1.63-.26-2.24-.18-.61-.44-1.1-.79-1.48-.35-.37-.77-.65-1.27-.82-.5-.17-1.08-.26-1.73-.26-.38,0-.79.03-1.23.09-.44.06-.88.15-1.34.28-.45.12-.9.26-1.34.43-.44.16-.85.35-1.23.55v17.03h-5.3v-22.02h3.64c.88,0,1.33.55,1.4.87.06.26.09.63.14.96.03.21,0,.27.03.45,0,0,2.23-1.78,4.48-2.42"/>
      <path class="cls-2" d="m154.77,22.26c-.58-.31-1.27-.56-1.77-.73-.5-.17-1.08-.26-1.73-.26-.38,0-.79.03-1.22.09-.44.06-.88.15-1.34.28-.46.12-.91.26-1.35.43-.44.16-.85.35-1.23.55v17.03h-5.3v-22.02h3.64c.88,0,1.34.67,1.41.99.03.17.07.44.09.79,0,.03.04.42.07.6,0,0,2.23-1.87,4.48-2.51.63-.18,1.31-.22,2-.22,1.14,0,2.43.32,3.42.67l-1.16,4.32Z"/>
      <path class="cls-2" d="m104.45,9.85s2.89-.92,4.36-1.42c.98-.33.95.21.95,1.01v8.2h5.4l-.49,4.09h-4.91v10.94c0,.62.04,1.15.13,1.57.09.42.21.76.38,1.02.16.26.36.44.61.55.24.11.52.16.83.16.44,0,.93-.05,1.48-.15.55-.1,1.23-.2,1.8,0,.56.2,1.27,2.05,1.27,2.05-.98.75-1.94,1.31-2.88,1.67-.95.37-1.87.55-2.76.55-1.22,0-2.23-.16-3.02-.48-.79-.32-1.42-.77-1.89-1.36-.47-.59-.79-1.31-.98-2.15-.18-.84-.28-1.79-.28-2.83V9.85Z"/>
      <rect class="cls-2" x="101.76" y="17.64" width="3.04" height="4.13"/>
    </g>
  </g>
</svg>