<?xml version="1.0" encoding="UTF-8"?>
<svg id="Layer_2" data-name="Layer 2" xmlns="http://www.w3.org/2000/svg" xmlns:xlink="http://www.w3.org/1999/xlink" viewBox="0 0 1300 763">
  <defs>
    <style>
      .cls-1 {
        fill: #fff;
      }

      .cls-2 {
        clip-path: url(#clippath-1);
      }

      .cls-3 {
        clip-path: url(#clippath);
      }

      .cls-4 {
        filter: url(#luminosity-noclip);
      }

      .cls-5 {
        mask: url(#mask);
      }

      .cls-6 {
        fill: url(#linear-gradient);
      }
    </style>
    <clipPath id="clippath">
      <path class="cls-1" d="m8.92.35v630.62s244.8,26.54,533.57,69.42c288.77,42.88,381.07,48.71,446.49,48.71,1.3,0,2.65,0,4.03,0h.48c68.05,0,223.48-2.09,253.42-183.76l42.08-349.15V.35H8.92Z"/>
    </clipPath>
    <filter id="luminosity-noclip" x="0" y="-129.89" width="1300" height="892.89" color-interpolation-filters="sRGB" filterUnits="userSpaceOnUse">
      <feFlood flood-color="#fff" result="bg"/>
      <feBlend in="SourceGraphic" in2="bg"/>
    </filter>
    <linearGradient id="linear-gradient" x1="1769.08" y1="903.65" x2="1770.24" y2="903.65" gradientTransform="translate(-237659.89 467186.37) rotate(-90) scale(263.72)" gradientUnits="userSpaceOnUse">
      <stop offset="0" stop-color="#fff"/>
      <stop offset="1" stop-color="#000"/>
    </linearGradient>
    <mask id="mask" x="0" y="-129.89" width="1300" height="892.89" maskUnits="userSpaceOnUse">
      <g class="cls-4">
        <rect class="cls-6" x="8.92" y="-129.89" width="1280.08" height="865.39"/>
      </g>
    </mask>
    <clipPath id="clippath-1">
      <rect class="cls-1" width="1300" height="763"/>
    </clipPath>
  </defs>
  <g id="Layer_1-2" data-name="Layer 1">
    <g>
      <path class="cls-1" d="m8.92.35v630.62s244.8,26.54,533.57,69.42c288.77,42.88,381.07,48.71,446.49,48.71,1.3,0,2.65,0,4.03,0h.48c68.05,0,223.48-2.09,253.42-183.76l42.08-349.15V.35H8.92Z"/>
      <g class="cls-3">
        <g class="cls-5">
          <g>
            <rect class="cls-1" width="1300" height="763"/>
            <g class="cls-2">
              <rect class="cls-1" x="9" y="1.16" width="1282" height="753.75"/>
            </g>
          </g>
        </g>
      </g>
    </g>
  </g>
</svg>