<?xml version="1.0" encoding="UTF-8"?>
<svg id="Layer_2" data-name="Layer 2" xmlns="http://www.w3.org/2000/svg" viewBox="0 0 55.62 55.62">
  <defs>
    <style>
      .cls-1 {
        fill: #fff;
      }

      .cls-2 {
        fill: none;
        stroke: #fff;
        stroke-miterlimit: 10;
        stroke-width: .25px;
      }
    </style>
  </defs>
  <g id="Layer_1-2" data-name="Layer 1">
    <g>
      <path class="cls-1" d="m21.8,15.29c.27,0,.53-.12.7-.35,1.04-1.42,2.91-1.95,4.54-1.29l1.27.52c.44.18.95-.03,1.13-.47.18-.44-.03-.95-.48-1.13l-1.27-.52c-2.37-.96-5.08-.2-6.59,1.87-.28.39-.2.93.19,1.21.15.11.33.17.51.17"/>
      <path class="cls-2" d="m21.8,15.29c.27,0,.53-.12.7-.35,1.04-1.42,2.91-1.95,4.54-1.29l1.27.52c.44.18.95-.03,1.13-.47.18-.44-.03-.95-.48-1.13l-1.27-.52c-2.37-.96-5.08-.2-6.59,1.87-.28.39-.2.93.19,1.21.15.11.33.17.51.17Z"/>
      <path class="cls-1" d="m14.45,16.18c.39.28.93.2,1.21-.19.28-.39.2-.93-.19-1.21-2.07-1.51-4.88-1.42-6.85.21l-1.06.88c-.37.31-.42.85-.11,1.22.17.21.42.31.66.31.2,0,.39-.07.55-.2l1.06-.88c1.35-1.13,3.3-1.19,4.72-.15Z"/>
      <path class="cls-2" d="m14.45,16.18c.39.28.93.2,1.21-.19.28-.39.2-.93-.19-1.21-2.07-1.51-4.88-1.42-6.85.21l-1.06.88c-.37.31-.42.85-.11,1.22.17.21.42.31.66.31.2,0,.39-.07.55-.2l1.06-.88c1.35-1.13,3.3-1.19,4.72-.15Z"/>
      <path class="cls-1" d="m49.69,44.11c-5.62,9.43-14.89,9.67-16.2,9.66-1.19-.47-9.7-4.21-11.33-15.07-.54-3.62-.27-7.08.38-10.15,0-.01,0-.02,0-.03.84-3.96,2.29-7.26,3.38-9.35.22-.42.59-.71,1.05-.82.46-.11.92-.02,1.31.25,3.04,2.14,6.44,3.59,10.09,4.31l2.3.45c3.65.72,7.34.66,10.97-.16.46-.1.92-.01,1.3.27.38.28.61.69.66,1.16.39,4.18.39,12.28-3.91,19.5Zm-29.42-12c-2.79.16-5.43-1.19-6.93-3.47,2.29.93,4.79,1.23,7.27.85-.14.85-.25,1.72-.33,2.62m-14.8-4.07C1.27,20.27,1.62,11.77,2.2,7.39c.07-.5.33-.93.75-1.21.42-.28.93-.36,1.42-.23,3.73,1.02,7.75,1.23,11.48.63l2.43-.37c3.86-.6,7.47-1.98,10.74-4.08.86-.56,2.07-.2,2.5.71,1.57,3.34,4.04,9.92,3.55,17.34-2.04-.74-3.98-1.75-5.79-3.01-.79-.55-1.78-.74-2.71-.51-.93.23-1.73.85-2.17,1.7-1.1,2.1-2.53,5.37-3.42,9.29-.2.04-.4.09-.6.12-2.92.45-5.9-.18-8.38-1.78-.3-.19-.69-.18-.98.03-.29.21-.41.58-.32.93,1.17,4.12,4.96,6.9,9.15,6.9.11,0,.22,0,.33-.01-.05,1.57.03,3.19.26,4.84-3.34-.51-10.54-2.55-14.95-10.66Zm49.85-3.59c-.09-.96-.59-1.83-1.36-2.4-.78-.57-1.76-.76-2.7-.55-3.39.77-6.84.82-10.25.15l-2.3-.45c-.66-.13-1.31-.29-1.95-.47.64-7.98-2-15.05-3.67-18.61-.58-1.22-1.78-1.98-3.14-1.98-.66,0-1.31.19-1.87.55-3.06,1.97-6.45,3.26-10.07,3.83l-2.44.37c-3.5.55-7.26.36-10.76-.59-.97-.26-2-.09-2.83.46-.83.55-1.38,1.43-1.51,2.42C-.13,11.75-.49,20.67,3.96,28.86c5.03,9.27,13.47,11.22,16.79,11.63,2.45,11.26,11.87,14.8,12.29,14.95.08.03.17.05.26.05.04,0,.13,0,.28,0,1.82,0,11.63-.48,17.61-10.5,4.55-7.65,4.55-16.16,4.15-20.55Z"/>
      <path class="cls-2" d="m49.69,44.11c-5.62,9.43-14.89,9.67-16.2,9.66-1.19-.47-9.7-4.21-11.33-15.07-.54-3.62-.27-7.08.38-10.15,0-.01,0-.02,0-.03.84-3.96,2.29-7.26,3.38-9.35.22-.42.59-.71,1.05-.82.46-.11.92-.02,1.31.25,3.04,2.14,6.44,3.59,10.09,4.31l2.3.45c3.65.72,7.34.66,10.97-.16.46-.1.92-.01,1.3.27.38.28.61.69.66,1.16.39,4.18.39,12.28-3.91,19.5Zm-29.42-12c-2.79.16-5.43-1.19-6.93-3.47,2.29.93,4.79,1.23,7.27.85-.14.85-.25,1.72-.33,2.62Zm-14.8-4.07C1.27,20.27,1.62,11.77,2.2,7.39c.07-.5.33-.93.75-1.21.42-.28.93-.36,1.42-.23,3.73,1.02,7.75,1.23,11.48.63l2.43-.37c3.86-.6,7.47-1.98,10.74-4.08.86-.56,2.07-.2,2.5.71,1.57,3.34,4.04,9.92,3.55,17.34-2.04-.74-3.98-1.75-5.79-3.01-.79-.55-1.78-.74-2.71-.51-.93.23-1.73.85-2.17,1.7-1.1,2.1-2.53,5.37-3.42,9.29-.2.04-.4.09-.6.12-2.92.45-5.9-.18-8.38-1.78-.3-.19-.69-.18-.98.03-.29.21-.41.58-.32.93,1.17,4.12,4.96,6.9,9.15,6.9.11,0,.22,0,.33-.01-.05,1.57.03,3.19.26,4.84-3.34-.51-10.54-2.55-14.95-10.66Zm49.85-3.59c-.09-.96-.59-1.83-1.36-2.4-.78-.57-1.76-.76-2.7-.55-3.39.77-6.84.82-10.25.15l-2.3-.45c-.66-.13-1.31-.29-1.95-.47.64-7.98-2-15.05-3.67-18.61-.58-1.22-1.78-1.98-3.14-1.98-.66,0-1.31.19-1.87.55-3.06,1.97-6.45,3.26-10.07,3.83l-2.44.37c-3.5.55-7.26.36-10.76-.59-.97-.26-2-.09-2.83.46-.83.55-1.38,1.43-1.51,2.42C-.13,11.75-.49,20.67,3.96,28.86c5.03,9.27,13.47,11.22,16.79,11.63,2.45,11.26,11.87,14.8,12.29,14.95.08.03.17.05.26.05.04,0,.13,0,.28,0,1.82,0,11.63-.48,17.61-10.5,4.55-7.65,4.55-16.16,4.15-20.55Z"/>
      <path class="cls-1" d="m35.55,43.34c-.67-.13-1.34-.2-2.01-.2-.93,0-1.85.12-2.75.37,1.26-1.32,3.14-1.97,5.04-1.6,1.89.37,3.39,1.69,4.06,3.39-1.26-.97-2.74-1.65-4.34-1.96m.61-3.12c-3.57-.7-7.12,1.37-8.26,4.83-.11.34,0,.72.28.94.28.23.67.25.98.07,1.82-1.07,3.97-1.43,6.05-1.03,2.08.41,3.93,1.56,5.21,3.24.17.22.42.34.69.34.08,0,.17-.01.25-.04.35-.1.59-.41.62-.77.26-3.63-2.24-6.89-5.81-7.6"/>
      <path class="cls-2" d="m35.55,43.34c-.67-.13-1.34-.2-2.01-.2-.93,0-1.85.12-2.75.37,1.26-1.32,3.14-1.97,5.04-1.6,1.89.37,3.39,1.69,4.06,3.39-1.26-.97-2.74-1.65-4.34-1.96Zm.61-3.12c-3.57-.7-7.12,1.37-8.26,4.83-.11.34,0,.72.28.94.28.23.67.25.98.07,1.82-1.07,3.97-1.43,6.05-1.03,2.08.41,3.93,1.56,5.21,3.24.17.22.42.34.69.34.08,0,.17-.01.25-.04.35-.1.59-.41.62-.77.26-3.63-2.24-6.89-5.81-7.6Z"/>
      <path class="cls-1" d="m28.88,29.49c1.01.91,2.29,1.38,3.58,1.38,1.03,0,2.07-.3,2.98-.91.4-.27.5-.8.24-1.2-.27-.4-.8-.5-1.2-.24-1.38.93-3.21.8-4.44-.32l-.97-.88c-.36-.32-.9-.29-1.22.06-.32.36-.29.9.06,1.22l.97.88Z"/>
      <path class="cls-2" d="m28.88,29.49c1.01.91,2.29,1.38,3.58,1.38,1.03,0,2.07-.3,2.98-.91.4-.27.5-.8.24-1.2-.27-.4-.8-.5-1.2-.24-1.38.93-3.21.8-4.44-.32l-.97-.88c-.36-.32-.9-.29-1.22.06-.32.36-.29.9.06,1.22l.97.88Z"/>
      <path class="cls-1" d="m47.61,30.98l-1.23.44c-1.56.57-3.3,0-4.23-1.38-.27-.4-.8-.51-1.2-.24-.4.27-.5.8-.24,1.2,1.02,1.51,2.69,2.37,4.43,2.37.61,0,1.22-.1,1.82-.32l1.23-.44c.45-.16.68-.66.52-1.11-.16-.45-.66-.68-1.11-.52Z"/>
      <path class="cls-2" d="m47.61,30.98l-1.23.44c-1.56.57-3.3,0-4.23-1.38-.27-.4-.8-.51-1.2-.24-.4.27-.5.8-.24,1.2,1.02,1.51,2.69,2.37,4.43,2.37.61,0,1.22-.1,1.82-.32l1.23-.44c.45-.16.68-.66.52-1.11-.16-.45-.66-.68-1.11-.52Z"/>
    </g>
  </g>
</svg>