<?xml version="1.0" encoding="UTF-8"?>
<svg id="Layer_2" data-name="Layer 2" xmlns="http://www.w3.org/2000/svg" viewBox="0 0 54.07 52.76">
  <defs>
    <style>
      .cls-1 {
        fill: #fff;
      }
    </style>
  </defs>
  <g id="Layer_1-2" data-name="Layer 1">
    <g>
      <path class="cls-1" d="m1.8,6.53h14.16v8.02h-7.08c-.23,0-.46.09-.63.25l-3.8,3.66v-3.02c0-.49-.4-.89-.9-.89h-1.74V6.53ZM12.05,1.79h14.15v8.02h-1.73c-.5,0-.9.4-.9.89v3.02l-3.82-3.66c-.17-.16-.39-.25-.63-.25h-1.36v-4.18c0-.49-.4-.89-.9-.89h-4.81V1.79ZM.9,16.34h1.74v4.24c0,.36.22.68.55.82.11.05.23.07.35.07.23,0,.46-.09.63-.25l5.07-4.88h7.62c.5,0,.9-.4.9-.89v-3.84h1l5.08,4.88c.17.17.4.25.63.25.12,0,.24-.02.35-.07.33-.14.55-.47.55-.82v-4.23h1.73c.5,0,.9-.4.9-.9V.89c0-.49-.4-.89-.9-.89h-15.95c-.5,0-.9.4-.9.89v3.84H.9c-.5,0-.9.4-.9.89v9.81c0,.49.4.89.9.89"/>
      <path class="cls-1" d="m51.54,50.97h-19.34v-14.45s.08-.06.12-.09c.42-.29.84-.59,1.23-.92.06-.05.12-.11.18-.16.41-.35.8-.72,1.16-1.12l3.57-3.85,13.07,20.58ZM15.63,34.35l23.49-25.28c2.3,2.42,3.61,5.63,3.61,8.98s-1.24,6.44-3.49,8.86l-1.3,1.4s0,0,0,0l-4.37,4.71c-.81.87-1.73,1.63-2.74,2.25-4.75,2.93-10.87,2.52-15.19-.93m28.91-16.31c0-4.14-1.76-8.13-4.82-10.93-.37-.33-.94-.31-1.27.05l-24.77,26.66s0,0,0,0c-.17.18-.25.41-.24.64,0,.23.11.45.29.62t0,0c2.84,2.6,6.49,3.93,10.17,3.93,2.22,0,4.44-.49,6.5-1.48v14.33c0,.49.4.89.9.89h21.87c.33,0,.63-.18.79-.46.16-.28.15-.63-.03-.91l-14.2-22.36.84-.91c2.56-2.75,3.97-6.33,3.97-10.08"/>
    </g>
  </g>
</svg>