<?xml version="1.0" encoding="UTF-8"?>
<svg id="Layer_2" data-name="Layer 2" xmlns="http://www.w3.org/2000/svg" viewBox="0 0 57.52 57.52">
  <defs>
    <style>
      .cls-1 {
        fill: #fff;
      }
    </style>
  </defs>
  <g id="Layer_1-2" data-name="Layer 1">
    <g>
      <rect class="cls-1" x="8.63" y="34.51" width="7.67" height="1.92"/>
      <path class="cls-1" d="m55.61,52.73h-2.05c-.43-1.69-1.95-2.87-3.7-2.88-.68,0-1.34.19-1.92.53v-9.16h1.92v4.79c0,.53.43.96.96.96h4.79v5.75Zm-5.75,2.88c-1.06,0-1.92-.86-1.92-1.92s.86-1.92,1.92-1.92,1.92.86,1.92,1.92c0,1.06-.86,1.92-1.92,1.92m1.92-14.38h1.33l1.92,3.84h-3.24v-3.84Zm-5.75,11.51h-6.85c-.43-1.69-1.96-2.87-3.7-2.88-1.74,0-3.26,1.19-3.7,2.88h-3.01v-15.34h17.26v15.34Zm-10.55,2.88c-1.06,0-1.92-.86-1.92-1.92s.86-1.92,1.92-1.92,1.92.86,1.92,1.92c0,1.06-.86,1.92-1.92,1.92m21.95-10.02l-2.88-5.75c-.16-.33-.49-.53-.86-.53h-5.75v-2.88c0-.53-.43-.96-.96-.96h-19.17c-.53,0-.96.43-.96.96v17.26c0,.53.43.96.96.96h3.97c.52,2.04,2.6,3.28,4.64,2.76,1.36-.35,2.41-1.4,2.76-2.76h6.98c.52,2.04,2.6,3.28,4.64,2.76,1.36-.35,2.42-1.4,2.76-2.76h3.01c.53,0,.96-.43.96-.96v-7.67c0-.15-.03-.3-.1-.43"/>
      <rect class="cls-1" x="21.09" y="13.42" width="1.92" height="1.92"/>
      <rect class="cls-1" x="24.93" y="13.42" width="1.92" height="1.92"/>
      <rect class="cls-1" x="28.76" y="13.42" width="1.92" height="1.92"/>
      <rect class="cls-1" x="32.6" y="13.42" width="1.92" height="1.92"/>
      <path class="cls-1" d="m51.69,18.52c-.16.4-.55.66-.98.66h-16.67l.29-.41c.3-.43.2-1.03-.24-1.34-.16-.11-.35-.17-.55-.17h-5.75c-.38,0-.72.22-.88.57l-.6,1.35h-1.11c-3,0-5.88-1.19-7.99-3.32l-4.36-4.35h28.66c2.09,0,4.12.68,5.81,1.92h-7.06v1.92h9.16l2.03,2.03c.31.3.4.75.23,1.15m-25.23,8.15l-1.19-.4,3.15-7.09h3.28l-5.24,7.49ZM11.5,1.92h3.12l2.3,7.67h-5.42V1.92Zm16.72,1.92l3.6,5.75h-3.27l-1.44-5.75h1.12Zm24.58,12.18l-2.97-2.97c-2.21-2.21-5.2-3.45-8.32-3.46h-7.44l-4.51-7.22c-.17-.28-.48-.45-.81-.45h-2.88c-.53,0-.96.43-.96.96,0,.08,0,.16.03.23l1.62,6.48h-7.65L16.26.68c-.12-.41-.49-.68-.92-.68h-4.79c-.53,0-.96.43-.96.96v9.59h0c0,.25.09.5.27.68l5.99,5.99c2.47,2.49,5.84,3.88,9.34,3.88h.26l-2.38,5.36c-.22.48,0,1.05.49,1.27.03.01.06.02.09.03l2.87.96c.4.13.85-.01,1.09-.36l5.08-7.26h18.01c1.64,0,2.98-1.33,2.98-2.97,0-.79-.31-1.55-.87-2.11"/>
      <path class="cls-1" d="m19.02,54.15c-.35.22-.68.47-.97.76-.6.79-1.73.94-2.51.34-.13-.1-.24-.21-.34-.34-.49-.51-1.1-.89-1.78-1.09v-13.17l9.31,3.1-3.72,10.4Zm-6.86-15.75l-7.09,2.36,1.48-8.17h11.82l1.49,8.17-7.09-2.36c-.2-.07-.41-.07-.61,0m-.66,15.42c-.67.21-1.28.58-1.76,1.09-.6.79-1.73.94-2.52.33-.12-.1-.24-.21-.33-.33-.3-.29-.63-.55-.98-.76l-3.71-10.4,9.31-3.1v13.17Zm0-25.05h1.92v1.92h-1.92v-1.92Zm12,26.14c-.6-.65-1.41-1.07-2.29-1.19l3.66-10.25c.18-.5-.08-1.05-.58-1.23,0,0-.01,0-.02,0l-2.34-.78-1.82-9.99c-.08-.46-.48-.79-.94-.79h-3.83v-2.88c0-.53-.43-.96-.96-.96h-3.84c-.53,0-.96.43-.96.96v2.88h-3.84c-.46,0-.86.33-.94.79l-1.82,9.99-2.34.78c-.5.17-.77.71-.6,1.21,0,0,0,.01,0,.02l3.66,10.25c-.88.12-1.68.54-2.29,1.18-.35.44-.87.7-1.43.71v1.92c1.04,0,2.03-.45,2.73-1.21.35-.44.87-.7,1.43-.71.2,0,.4.04.59.11,0,0,.01.01.02.02.3.15.57.35.81.59.71.76,1.7,1.2,2.74,1.2,1.04,0,2.03-.45,2.73-1.21.6-.79,1.73-.94,2.52-.34.13.1.24.21.34.34.7.77,1.69,1.21,2.73,1.21,1.04,0,2.03-.44,2.73-1.2.23-.24.5-.44.8-.59,0,0,.01-.01.02-.02.19-.08.39-.11.59-.11.56,0,1.08.27,1.43.7.7.77,1.69,1.21,2.73,1.21v-1.92c-.56,0-1.08-.27-1.43-.71"/>
      <rect class="cls-1" x="36.43" y="13.42" width="1.92" height="1.92"/>
    </g>
  </g>
</svg>