<?xml version="1.0" encoding="UTF-8"?>
<svg id="Layer_2" data-name="Layer 2" xmlns="http://www.w3.org/2000/svg" viewBox="0 0 631.27 412.64">
  <defs>
    <style>
      .cls-1 {
        fill: #fff;
      }

      .cls-2 {
        fill: #b7d831;
      }

      .cls-3 {
        fill: #43a756;
      }
    </style>
  </defs>
  <g id="Layer_1-2" data-name="Layer 1">
    <g>
      <path class="cls-1" d="m9.46,333.44h167.69c5.22,0,9.46,4.24,9.46,9.46v60.29c0,5.22-4.24,9.46-9.46,9.46H9.46c-5.22,0-9.46-4.24-9.46-9.46v-60.29c0-5.22,4.24-9.46,9.46-9.46Z"/>
      <g>
        <g>
          <path class="cls-3" d="m59.18,359.95l.02.06c.03,1.44-.44,2.61-1.4,3.51s-2.26,1.35-3.9,1.35-3.01-.56-4.05-1.68c-1.04-1.12-1.56-2.55-1.56-4.29v-2.71c0-1.73.51-3.16,1.54-4.29s2.36-1.69,4-1.69,3.01.44,3.97,1.32c.97.88,1.44,2.07,1.41,3.56l-.02.06h-2.3c0-.96-.26-1.7-.78-2.24s-1.28-.8-2.29-.8-1.74.38-2.31,1.15-.85,1.73-.85,2.89v2.72c0,1.17.29,2.14.87,2.91.58.77,1.37,1.15,2.36,1.15s1.73-.26,2.24-.79.76-1.27.76-2.23h2.29Z"/>
          <path class="cls-3" d="m66.57,356.24l-1.02-.04c-.46,0-.85.1-1.16.29s-.55.47-.72.83v7.35h-2.38v-10.58h2.17l.16,1.53c.27-.54.61-.96,1.03-1.27.42-.31.9-.46,1.45-.46.14,0,.28.01.4.03.12.02.24.05.34.08l-.28,2.22Z"/>
          <path class="cls-3" d="m72.69,364.88c-1.5,0-2.69-.49-3.58-1.47-.89-.98-1.33-2.24-1.33-3.78v-.39c0-1.54.44-2.81,1.32-3.83.88-1.01,1.99-1.52,3.32-1.51,1.43,0,2.52.43,3.28,1.29.76.86,1.14,2.02,1.14,3.47v1.4h-6.6l-.02.05c.04.84.29,1.52.74,2.06.45.53,1.08.8,1.88.8.64,0,1.19-.08,1.64-.23s.9-.38,1.32-.67l.76,1.56c-.4.35-.93.65-1.58.89s-1.42.36-2.29.36Zm-.27-9.07c-.59,0-1.07.23-1.45.7s-.61,1.06-.7,1.77l.02.05h4.19v-.24c0-.67-.17-1.22-.51-1.64-.34-.42-.86-.63-1.55-.63Zm.6-5.84h2.63l.02.06-2.67,2.54h-1.85l1.87-2.6Z"/>
          <path class="cls-3" d="m78.51,359.53c0-1.69.36-3.05,1.08-4.08.72-1.03,1.74-1.55,3.05-1.55.57,0,1.09.12,1.54.35.45.23.85.56,1.18.99v-5.82h2.38v15.25h-1.99l-.23-1.31c-.34.5-.75.87-1.22,1.13-.48.26-1.03.39-1.66.39-1.3,0-2.31-.47-3.03-1.42-.72-.95-1.08-2.19-1.08-3.72v-.21Zm2.38.21c0,.98.19,1.76.56,2.34s.97.87,1.78.87c.5,0,.93-.11,1.28-.32s.63-.52.86-.92v-4.61c-.22-.39-.51-.7-.86-.91s-.77-.33-1.25-.33c-.81,0-1.4.34-1.79,1.02-.38.68-.58,1.57-.58,2.66v.21Z"/>
          <path class="cls-3" d="m92.82,351.51h-2.38v-2.08h2.38v2.08Zm0,13.17h-2.38v-10.58h2.38v10.58Z"/>
          <path class="cls-3" d="m98.47,351.53v2.57h1.9v1.76h-1.9v5.84c0,.44.09.75.28.93.19.19.44.28.75.28.13,0,.26-.01.38-.03.12-.02.24-.05.35-.09l.25,1.74c-.2.11-.44.2-.72.26-.28.06-.57.09-.87.09-.87,0-1.56-.26-2.05-.77-.5-.51-.74-1.31-.74-2.41v-5.84h-1.61v-1.76h1.61v-2.57h2.37Z"/>
          <path class="cls-3" d="m101.68,359.29c0-1.57.43-2.86,1.29-3.87.87-1.01,2.06-1.51,3.55-1.51s2.71.5,3.57,1.51c.87,1,1.3,2.29,1.3,3.87v.21c0,1.59-.43,2.89-1.3,3.89-.86,1-2.04,1.5-3.55,1.5s-2.7-.5-3.57-1.5c-.86-1-1.29-2.3-1.29-3.88v-.21Zm2.38.2c0,1.03.2,1.87.61,2.52.4.64,1.02.97,1.88.97s1.45-.32,1.86-.97c.42-.65.63-1.49.63-2.52v-.21c0-1.01-.21-1.84-.63-2.49-.41-.66-1.04-.99-1.88-.99s-1.45.33-1.86.99c-.4.66-.61,1.49-.61,2.49v.21Z"/>
          <path class="cls-3" d="m118.16,359.53c0-1.69.36-3.05,1.08-4.08.72-1.03,1.74-1.55,3.05-1.55.57,0,1.09.12,1.54.35.45.23.85.56,1.18.99v-5.82h2.38v15.25h-1.99l-.23-1.31c-.34.5-.75.87-1.22,1.13-.48.26-1.03.39-1.66.39-1.3,0-2.31-.47-3.03-1.42-.72-.95-1.08-2.19-1.08-3.72v-.21Zm2.38.21c0,.98.19,1.76.56,2.34s.97.87,1.78.87c.5,0,.93-.11,1.28-.32s.63-.52.86-.92v-4.61c-.22-.39-.51-.7-.86-.91s-.77-.33-1.25-.33c-.81,0-1.4.34-1.79,1.02-.38.68-.58,1.57-.58,2.66v.21Z"/>
          <path class="cls-3" d="m134.5,364.88c-1.5,0-2.69-.49-3.58-1.47-.89-.98-1.33-2.24-1.33-3.78v-.39c0-1.54.44-2.81,1.32-3.83.88-1.01,1.99-1.52,3.32-1.51,1.43,0,2.52.43,3.28,1.29.76.86,1.14,2.02,1.14,3.47v1.4h-6.6l-.02.05c.04.84.29,1.52.74,2.06.45.53,1.08.8,1.88.8.64,0,1.19-.08,1.64-.23s.9-.38,1.32-.67l.76,1.56c-.4.35-.93.65-1.58.89s-1.42.36-2.29.36Zm-.27-9.07c-.59,0-1.07.23-1.45.7s-.61,1.06-.7,1.77l.02.05h4.19v-.24c0-.67-.17-1.22-.51-1.64-.34-.42-.86-.63-1.55-.63Z"/>
        </g>
        <g>
          <path class="cls-3" d="m38.06,387.2v5.9h-2.38v-14.23h5.26c1.59,0,2.82.36,3.69,1.08.87.72,1.3,1.74,1.3,3.07,0,.74-.19,1.37-.57,1.9-.38.53-.94.96-1.67,1.28.8.25,1.38.67,1.73,1.25.35.58.53,1.29.53,2.13v1.18c0,.42.05.82.16,1.22.1.4.28.7.53.91v.22h-2.44c-.26-.21-.43-.55-.5-1.02-.07-.46-.11-.92-.11-1.36v-1.14c0-.73-.21-1.31-.63-1.74s-.99-.65-1.72-.65h-3.17Zm0-1.91h2.76c.95,0,1.65-.18,2.08-.55.44-.37.65-.92.65-1.67s-.21-1.28-.65-1.69-1.08-.61-1.96-.61h-2.88v4.52Z"/>
          <path class="cls-3" d="m53,393.31c-1.5,0-2.69-.49-3.58-1.47-.89-.98-1.33-2.24-1.33-3.78v-.39c0-1.54.44-2.81,1.32-3.83.88-1.01,1.99-1.52,3.32-1.51,1.43,0,2.52.43,3.28,1.29.76.86,1.14,2.02,1.14,3.47v1.4h-6.6l-.02.05c.04.84.29,1.52.74,2.06.45.53,1.08.8,1.88.8.64,0,1.19-.08,1.64-.23s.9-.38,1.32-.67l.76,1.56c-.4.35-.93.65-1.58.89s-1.42.36-2.29.36Zm-.27-9.07c-.59,0-1.07.23-1.45.7s-.61,1.06-.7,1.77l.02.05h4.19v-.24c0-.67-.17-1.22-.51-1.64-.34-.42-.86-.63-1.55-.63Z"/>
          <path class="cls-3" d="m58.82,387.96c0-1.69.36-3.05,1.08-4.08.72-1.03,1.74-1.55,3.05-1.55.57,0,1.09.12,1.54.35.45.23.85.56,1.18.99v-5.82h2.38v15.25h-1.99l-.23-1.31c-.34.5-.75.87-1.22,1.13-.48.26-1.03.39-1.66.39-1.3,0-2.31-.47-3.03-1.42-.72-.95-1.08-2.19-1.08-3.72v-.21Zm2.38.21c0,.98.19,1.76.56,2.34s.97.87,1.78.87c.5,0,.93-.11,1.28-.32s.63-.52.86-.92v-4.61c-.22-.39-.51-.7-.86-.91s-.77-.33-1.25-.33c-.81,0-1.4.34-1.79,1.02-.38.68-.58,1.57-.58,2.66v.21Z"/>
          <path class="cls-3" d="m75.15,393.31c-1.5,0-2.69-.49-3.58-1.47-.89-.98-1.33-2.24-1.33-3.78v-.39c0-1.54.44-2.81,1.32-3.83.88-1.01,1.99-1.52,3.32-1.51,1.43,0,2.52.43,3.28,1.29.76.86,1.14,2.02,1.14,3.47v1.4h-6.6l-.02.05c.04.84.29,1.52.74,2.06.45.53,1.08.8,1.88.8.64,0,1.19-.08,1.64-.23s.9-.38,1.32-.67l.76,1.56c-.4.35-.93.65-1.58.89s-1.42.36-2.29.36Zm-.27-9.07c-.59,0-1.07.23-1.45.7s-.61,1.06-.7,1.77l.02.05h4.19v-.24c0-.67-.17-1.22-.51-1.64-.34-.42-.86-.63-1.55-.63Z"/>
          <path class="cls-3" d="m87.17,390.23c0-.36-.16-.67-.47-.91-.31-.24-.9-.45-1.75-.63-1.26-.27-2.22-.65-2.87-1.14s-.97-1.16-.97-2.01.37-1.64,1.12-2.27c.75-.63,1.74-.94,2.96-.94,1.29,0,2.31.32,3.07.95.76.63,1.12,1.42,1.09,2.36l-.02.06h-2.28c0-.44-.17-.81-.5-1.12-.33-.31-.79-.47-1.37-.47s-1.01.13-1.31.39c-.3.26-.45.57-.45.94s.14.67.42.88c.28.22.86.41,1.73.58,1.33.27,2.31.66,2.96,1.16.64.5.96,1.18.96,2.04,0,.95-.39,1.72-1.18,2.32-.79.59-1.82.89-3.1.89-1.38,0-2.46-.35-3.25-1.06-.8-.7-1.17-1.51-1.13-2.42l.02-.06h2.21c.03.61.25,1.06.66,1.34s.93.42,1.52.42,1.08-.12,1.42-.35c.33-.23.5-.55.5-.95Z"/>
          <path class="cls-3" d="m96.01,391.4c.58,0,1.07-.17,1.47-.51.4-.34.6-.77.6-1.28h2.15l.02.06c.03.99-.37,1.84-1.21,2.56-.84.72-1.85,1.08-3.03,1.08-1.56,0-2.75-.5-3.58-1.5-.83-1-1.25-2.27-1.25-3.81v-.34c0-1.53.42-2.8,1.25-3.81.83-1.01,2.02-1.51,3.58-1.51,1.27,0,2.3.37,3.09,1.11.79.74,1.17,1.68,1.15,2.82l-.02.06h-2.16c0-.58-.19-1.07-.57-1.48-.38-.4-.88-.61-1.49-.61-.89,0-1.52.32-1.9.97s-.56,1.46-.56,2.44v.34c0,1,.19,1.81.56,2.46.37.64,1,.96,1.9.96Z"/>
          <path class="cls-3" d="m108.84,391.56c-.33.56-.75.99-1.26,1.29-.51.3-1.1.45-1.76.45-1.13,0-2.02-.36-2.66-1.08s-.96-1.85-.96-3.37v-6.32h2.37v6.34c0,.93.15,1.57.45,1.95.3.37.75.56,1.36.56.57,0,1.05-.1,1.44-.31s.69-.5.91-.89v-7.64h2.38v10.58h-2.07l-.2-1.54Z"/>
          <path class="cls-3" d="m118.18,393.31c-1.5,0-2.69-.49-3.58-1.47-.89-.98-1.33-2.24-1.33-3.78v-.39c0-1.54.44-2.81,1.32-3.83.88-1.01,1.99-1.52,3.32-1.51,1.43,0,2.52.43,3.28,1.29.76.86,1.14,2.02,1.14,3.47v1.4h-6.6l-.02.05c.04.84.29,1.52.74,2.06.45.53,1.08.8,1.88.8.64,0,1.19-.08,1.64-.23s.9-.38,1.32-.67l.76,1.56c-.4.35-.93.65-1.58.89s-1.42.36-2.29.36Zm-.27-9.07c-.59,0-1.07.23-1.45.7s-.61,1.06-.7,1.77l.02.05h4.19v-.24c0-.67-.17-1.22-.51-1.64-.34-.42-.86-.63-1.55-.63Z"/>
          <path class="cls-3" d="m126.59,382.52l.14,1.52c.35-.54.78-.96,1.3-1.27s1.12-.45,1.77-.45c1.1,0,1.96.33,2.58,1,.62.67.92,1.71.92,3.12v6.65h-2.38v-6.63c0-.79-.16-1.36-.49-1.7s-.83-.5-1.5-.5c-.46,0-.88.1-1.24.31-.37.21-.67.49-.9.85v7.67h-2.38v-10.58h2.17Z"/>
          <path class="cls-3" d="m138.73,379.95v2.57h1.9v1.76h-1.9v5.84c0,.44.09.75.28.93.19.19.44.28.75.28.13,0,.26-.01.38-.03.12-.02.24-.05.35-.09l.25,1.74c-.2.11-.44.2-.72.26-.28.06-.57.09-.87.09-.87,0-1.56-.26-2.05-.77-.5-.51-.74-1.31-.74-2.41v-5.84h-1.61v-1.76h1.61v-2.57h2.37Z"/>
          <path class="cls-3" d="m141.94,387.72c0-1.57.43-2.86,1.29-3.87.87-1.01,2.06-1.51,3.55-1.51s2.71.5,3.57,1.51c.87,1,1.3,2.29,1.3,3.87v.21c0,1.59-.43,2.89-1.3,3.89-.86,1-2.04,1.5-3.55,1.5s-2.7-.5-3.57-1.5c-.86-1-1.29-2.3-1.29-3.88v-.21Zm2.38.2c0,1.03.2,1.87.61,2.52.4.64,1.02.97,1.88.97s1.45-.32,1.86-.97c.42-.65.63-1.49.63-2.52v-.21c0-1.01-.21-1.84-.63-2.49-.41-.66-1.04-.99-1.88-.99s-1.45.33-1.86.99c-.4.66-.61,1.49-.61,2.49v.21Z"/>
        </g>
      </g>
      <path class="cls-1" d="m238.11,333.44h167.69c5.22,0,9.46,4.24,9.46,9.46v60.29c0,5.22-4.24,9.46-9.46,9.46h-167.68c-5.22,0-9.46-4.24-9.46-9.46v-60.29c0-5.22,4.24-9.46,9.46-9.46Z"/>
      <g>
        <path class="cls-3" d="m266.45,374.17l.02.06c.03,1.44-.44,2.61-1.4,3.51s-2.26,1.35-3.9,1.35-3.01-.56-4.05-1.68c-1.04-1.12-1.56-2.55-1.56-4.29v-2.71c0-1.73.51-3.16,1.54-4.29s2.36-1.69,4-1.69,3.01.44,3.97,1.32c.97.88,1.44,2.07,1.41,3.56l-.02.06h-2.3c0-.96-.26-1.7-.78-2.24s-1.28-.8-2.29-.8-1.74.38-2.31,1.15-.85,1.73-.85,2.89v2.72c0,1.17.29,2.14.87,2.91.58.77,1.37,1.15,2.36,1.15s1.73-.26,2.24-.79.76-1.27.76-2.23h2.29Z"/>
        <path class="cls-3" d="m273.84,370.45l-1.02-.04c-.46,0-.85.1-1.16.29s-.55.47-.72.83v7.35h-2.38v-10.58h2.17l.16,1.53c.27-.54.61-.96,1.03-1.27.42-.31.9-.46,1.45-.46.14,0,.28.01.4.03.12.02.24.05.34.08l-.28,2.22Z"/>
        <path class="cls-3" d="m279.95,379.09c-1.5,0-2.69-.49-3.58-1.47-.89-.98-1.33-2.24-1.33-3.78v-.39c0-1.54.44-2.81,1.32-3.83.88-1.01,1.99-1.52,3.32-1.51,1.43,0,2.52.43,3.28,1.29.76.86,1.14,2.02,1.14,3.47v1.4h-6.6l-.02.05c.04.84.29,1.52.74,2.06.45.53,1.08.8,1.88.8.64,0,1.19-.08,1.64-.23s.9-.38,1.32-.67l.76,1.56c-.4.35-.93.65-1.58.89s-1.42.36-2.29.36Zm-.27-9.07c-.59,0-1.07.23-1.45.7s-.61,1.06-.7,1.77l.02.05h4.19v-.24c0-.67-.17-1.22-.51-1.64-.34-.42-.86-.63-1.55-.63Zm.6-5.84h2.63l.02.06-2.67,2.54h-1.85l1.87-2.6Z"/>
        <path class="cls-3" d="m285.78,373.75c0-1.69.36-3.05,1.08-4.08.72-1.03,1.74-1.55,3.05-1.55.57,0,1.09.12,1.54.35.45.23.85.56,1.18.99v-5.82h2.38v15.25h-1.99l-.23-1.31c-.34.5-.75.87-1.22,1.13-.48.26-1.03.39-1.66.39-1.3,0-2.31-.47-3.03-1.42-.72-.95-1.08-2.19-1.08-3.72v-.21Zm2.38.21c0,.98.19,1.76.56,2.34s.97.87,1.78.87c.5,0,.93-.11,1.28-.32s.63-.52.86-.92v-4.61c-.22-.39-.51-.7-.86-.91s-.77-.33-1.25-.33c-.81,0-1.4.34-1.79,1.02-.38.68-.58,1.57-.58,2.66v.21Z"/>
        <path class="cls-3" d="m300.09,365.72h-2.38v-2.08h2.38v2.08Zm0,13.17h-2.38v-10.58h2.38v10.58Z"/>
        <path class="cls-3" d="m305.74,365.74v2.57h1.9v1.76h-1.9v5.84c0,.44.09.75.28.93.19.19.44.28.75.28.13,0,.26-.01.38-.03.12-.02.24-.05.35-.09l.25,1.74c-.2.11-.44.2-.72.26-.28.06-.57.09-.87.09-.87,0-1.56-.26-2.05-.77-.5-.51-.74-1.31-.74-2.41v-5.84h-1.61v-1.76h1.61v-2.57h2.37Z"/>
        <path class="cls-3" d="m308.94,373.5c0-1.57.43-2.86,1.29-3.87.87-1.01,2.06-1.51,3.55-1.51s2.71.5,3.57,1.51c.87,1,1.3,2.29,1.3,3.87v.21c0,1.59-.43,2.89-1.3,3.89-.86,1-2.04,1.5-3.55,1.5s-2.7-.5-3.57-1.5c-.86-1-1.29-2.3-1.29-3.88v-.21Zm2.38.2c0,1.03.2,1.87.61,2.52.4.64,1.02.97,1.88.97s1.45-.32,1.86-.97c.42-.65.63-1.49.63-2.52v-.21c0-1.01-.21-1.84-.63-2.49-.41-.66-1.04-.99-1.88-.99s-1.45.33-1.86.99c-.4.66-.61,1.49-.61,2.49v.21Z"/>
        <path class="cls-3" d="m326.19,378.89v-14.23h4.61c1.8,0,3.27.56,4.4,1.69,1.13,1.13,1.7,2.58,1.7,4.35v2.16c0,1.78-.56,3.23-1.7,4.35-1.13,1.12-2.6,1.68-4.4,1.68h-4.61Zm2.38-12.33v10.42h2.17c1.18,0,2.11-.38,2.78-1.15s1.01-1.76,1.01-2.98v-2.18c0-1.2-.34-2.19-1.01-2.96-.67-.77-1.6-1.15-2.78-1.15h-2.17Z"/>
        <path class="cls-3" d="m341.68,365.72h-2.38v-2.08h2.38v2.08Zm0,13.17h-2.38v-10.58h2.38v10.58Z"/>
        <path class="cls-3" d="m349.6,370.45l-1.02-.04c-.46,0-.85.1-1.16.29s-.55.47-.72.83v7.35h-2.38v-10.58h2.17l.16,1.53c.27-.54.61-.96,1.03-1.27.42-.31.9-.46,1.45-.46.14,0,.28.01.4.03.12.02.24.05.34.08l-.28,2.22Z"/>
        <path class="cls-3" d="m355.72,379.09c-1.5,0-2.69-.49-3.58-1.47-.89-.98-1.33-2.24-1.33-3.78v-.39c0-1.54.44-2.81,1.32-3.83.88-1.01,1.99-1.52,3.32-1.51,1.43,0,2.52.43,3.28,1.29.76.86,1.14,2.02,1.14,3.47v1.4h-6.6l-.02.05c.04.84.29,1.52.74,2.06.45.53,1.08.8,1.88.8.64,0,1.19-.08,1.64-.23s.9-.38,1.32-.67l.76,1.56c-.4.35-.93.65-1.58.89s-1.42.36-2.29.36Zm-.27-9.07c-.59,0-1.07.23-1.45.7s-.61,1.06-.7,1.77l.02.05h4.19v-.24c0-.67-.17-1.22-.51-1.64-.34-.42-.86-.63-1.55-.63Z"/>
        <path class="cls-3" d="m366.33,377.19c.58,0,1.07-.17,1.47-.51.4-.34.6-.77.6-1.28h2.15l.02.06c.03.99-.37,1.84-1.21,2.56-.84.72-1.85,1.08-3.03,1.08-1.56,0-2.75-.5-3.58-1.5-.83-1-1.25-2.27-1.25-3.81v-.34c0-1.53.42-2.8,1.25-3.81.83-1.01,2.02-1.51,3.58-1.51,1.27,0,2.3.37,3.09,1.11.79.74,1.17,1.68,1.15,2.82l-.02.06h-2.16c0-.58-.19-1.07-.57-1.48-.38-.4-.88-.61-1.49-.61-.89,0-1.52.32-1.9.97s-.56,1.46-.56,2.44v.34c0,1,.19,1.81.56,2.46.37.64,1,.96,1.9.96Z"/>
        <path class="cls-3" d="m375.66,365.74v2.57h1.9v1.76h-1.9v5.84c0,.44.09.75.28.93.19.19.44.28.75.28.13,0,.26-.01.38-.03.12-.02.24-.05.35-.09l.25,1.74c-.2.11-.44.2-.72.26-.28.06-.57.09-.87.09-.87,0-1.56-.26-2.05-.77-.5-.51-.74-1.31-.74-2.41v-5.84h-1.61v-1.76h1.61v-2.57h2.37Z"/>
        <path class="cls-3" d="m378.87,373.5c0-1.57.43-2.86,1.29-3.87.87-1.01,2.06-1.51,3.55-1.51s2.71.5,3.57,1.51c.87,1,1.3,2.29,1.3,3.87v.21c0,1.59-.43,2.89-1.3,3.89-.86,1-2.04,1.5-3.55,1.5s-2.7-.5-3.57-1.5c-.86-1-1.29-2.3-1.29-3.88v-.21Zm2.38.2c0,1.03.2,1.87.61,2.52.4.64,1.02.97,1.88.97s1.45-.32,1.86-.97c.42-.65.63-1.49.63-2.52v-.21c0-1.01-.21-1.84-.63-2.49-.41-.66-1.04-.99-1.88-.99s-1.45.33-1.86.99c-.4.66-.61,1.49-.61,2.49v.21Z"/>
      </g>
      <path class="cls-1" d="m454.13,333.44h167.69c5.22,0,9.46,4.24,9.46,9.46v60.29c0,5.22-4.24,9.46-9.46,9.46h-167.68c-5.22,0-9.46-4.24-9.46-9.46v-60.29c0-5.22,4.24-9.46,9.46-9.46Z"/>
      <g>
        <g>
          <path class="cls-3" d="m492.13,361.36h-5.57l-1.13,3.32h-2.4l5.23-14.23h2.25l5.17,14.23h-2.41l-1.12-3.32Zm-4.89-1.98h4.21l-2.06-6.08h-.06l-2.09,6.08Z"/>
          <path class="cls-3" d="m499.75,364.68h-2.38v-15.25h2.38v15.25Z"/>
          <path class="cls-3" d="m505.4,351.53v2.57h1.9v1.76h-1.9v5.84c0,.44.09.75.28.93.19.19.44.28.75.28.13,0,.26-.01.38-.03.12-.02.24-.05.35-.09l.25,1.74c-.2.11-.44.2-.72.26-.28.06-.57.09-.87.09-.87,0-1.56-.26-2.05-.77-.5-.51-.74-1.31-.74-2.41v-5.84h-1.61v-1.76h1.61v-2.57h2.37Z"/>
          <path class="cls-3" d="m513.57,364.88c-1.5,0-2.69-.49-3.58-1.47-.89-.98-1.33-2.24-1.33-3.78v-.39c0-1.54.44-2.81,1.32-3.83.88-1.01,1.99-1.52,3.32-1.51,1.43,0,2.52.43,3.28,1.29.76.86,1.14,2.02,1.14,3.47v1.4h-6.6l-.02.05c.04.84.29,1.52.74,2.06.45.53,1.08.8,1.88.8.64,0,1.19-.08,1.64-.23s.9-.38,1.32-.67l.76,1.56c-.4.35-.93.65-1.58.89s-1.42.36-2.29.36Zm-.27-9.07c-.59,0-1.07.23-1.45.7s-.61,1.06-.7,1.77l.02.05h4.19v-.24c0-.67-.17-1.22-.51-1.64-.34-.42-.86-.63-1.55-.63Z"/>
          <path class="cls-3" d="m525.1,356.24l-1.02-.04c-.46,0-.85.1-1.16.29s-.55.47-.72.83v7.35h-2.38v-10.58h2.17l.16,1.53c.27-.54.61-.96,1.03-1.27.42-.31.9-.46,1.45-.46.14,0,.28.01.4.03.12.02.24.05.34.08l-.28,2.22Z"/>
          <path class="cls-3" d="m529.09,354.1l.14,1.52c.35-.54.78-.96,1.3-1.27s1.12-.45,1.77-.45c1.1,0,1.96.33,2.58,1,.62.67.92,1.71.92,3.12v6.65h-2.38v-6.63c0-.79-.16-1.36-.49-1.7s-.83-.5-1.5-.5c-.46,0-.88.1-1.24.31-.37.21-.67.49-.9.85v7.67h-2.38v-10.58h2.17Z"/>
          <path class="cls-3" d="m544.64,364.68c-.08-.27-.16-.53-.21-.78s-.09-.51-.11-.76c-.33.5-.75.91-1.29,1.25-.53.33-1.13.5-1.78.5-1.1,0-1.95-.28-2.54-.85-.59-.57-.88-1.34-.88-2.34s.4-1.82,1.21-2.39,1.95-.86,3.41-.86h1.85v-.93c0-.55-.16-.99-.49-1.3-.33-.31-.79-.47-1.4-.47-.54,0-.97.13-1.29.39s-.48.6-.48,1.01h-2.29v-.06c-.06-.83.32-1.57,1.11-2.22.79-.65,1.82-.97,3.09-.97s2.23.31,2.98.94c.76.62,1.13,1.52,1.13,2.7v4.7c0,.44.03.85.09,1.26.06.4.15.79.28,1.18h-2.4Zm-2.91-1.7c.6,0,1.14-.15,1.62-.45s.8-.64.95-1.03v-1.56h-1.89c-.69,0-1.23.17-1.62.51s-.59.74-.59,1.21c0,.4.13.73.4.96.26.24.64.36,1.13.36Z"/>
          <path class="cls-3" d="m552.12,351.53v2.57h1.9v1.76h-1.9v5.84c0,.44.09.75.28.93.19.19.44.28.75.28.13,0,.26-.01.38-.03.12-.02.24-.05.35-.09l.25,1.74c-.2.11-.44.2-.72.26-.28.06-.57.09-.87.09-.87,0-1.56-.26-2.05-.77-.5-.51-.74-1.31-.74-2.41v-5.84h-1.61v-1.76h1.61v-2.57h2.37Z"/>
          <path class="cls-3" d="m558.46,351.51h-2.38v-2.08h2.38v2.08Zm0,13.17h-2.38v-10.58h2.38v10.58Z"/>
          <path class="cls-3" d="m564.79,361.1l.18.86h.06l.19-.86,2.1-7h2.45l-3.75,10.58h-2.06l-3.77-10.58h2.45l2.16,7Z"/>
          <path class="cls-3" d="m577.37,364.68c-.08-.27-.16-.53-.21-.78s-.09-.51-.11-.76c-.33.5-.75.91-1.29,1.25-.53.33-1.13.5-1.78.5-1.1,0-1.95-.28-2.54-.85-.59-.57-.88-1.34-.88-2.34s.4-1.82,1.21-2.39,1.95-.86,3.41-.86h1.85v-.93c0-.55-.16-.99-.49-1.3-.33-.31-.79-.47-1.4-.47-.54,0-.97.13-1.29.39s-.48.6-.48,1.01h-2.29v-.06c-.06-.83.32-1.57,1.11-2.22.79-.65,1.82-.97,3.09-.97s2.23.31,2.98.94c.76.62,1.13,1.52,1.13,2.7v4.7c0,.44.03.85.09,1.26.06.4.15.79.28,1.18h-2.4Zm-2.91-1.7c.6,0,1.14-.15,1.62-.45s.8-.64.95-1.03v-1.56h-1.89c-.69,0-1.23.17-1.62.51s-.59.74-.59,1.21c0,.4.13.73.4.96.26.24.64.36,1.13.36Z"/>
          <path class="cls-3" d="m587.75,361.81c0-.36-.16-.67-.47-.91-.31-.24-.9-.45-1.75-.63-1.26-.27-2.22-.65-2.87-1.14s-.97-1.16-.97-2.01.37-1.64,1.12-2.27c.75-.63,1.74-.94,2.96-.94,1.29,0,2.31.32,3.07.95.76.63,1.12,1.42,1.09,2.36l-.02.06h-2.28c0-.44-.17-.81-.5-1.12-.33-.31-.79-.47-1.37-.47s-1.01.13-1.31.39c-.3.26-.45.57-.45.94s.14.67.42.88c.28.22.86.41,1.73.58,1.33.27,2.31.66,2.96,1.16.64.5.96,1.18.96,2.04,0,.95-.39,1.72-1.18,2.32-.79.59-1.82.89-3.1.89-1.38,0-2.46-.35-3.25-1.06-.8-.7-1.17-1.51-1.13-2.42l.02-.06h2.21c.03.61.25,1.06.66,1.34s.93.42,1.52.42,1.08-.12,1.42-.35c.33-.23.5-.55.5-.95Z"/>
        </g>
        <g>
          <path class="cls-3" d="m482.8,387.96c0-1.69.36-3.05,1.08-4.08.72-1.03,1.74-1.55,3.05-1.55.57,0,1.09.12,1.54.35.45.23.85.56,1.18.99v-5.82h2.38v15.25h-1.99l-.23-1.31c-.34.5-.75.87-1.22,1.13-.48.26-1.03.39-1.66.39-1.3,0-2.31-.47-3.03-1.42-.72-.95-1.08-2.19-1.08-3.72v-.21Zm2.38.21c0,.98.19,1.76.56,2.34s.97.87,1.78.87c.5,0,.93-.11,1.28-.32s.63-.52.86-.92v-4.61c-.22-.39-.51-.7-.86-.91s-.77-.33-1.25-.33c-.81,0-1.4.34-1.79,1.02-.38.68-.58,1.57-.58,2.66v.21Z"/>
          <path class="cls-3" d="m499.14,393.3c-1.5,0-2.69-.49-3.58-1.47-.89-.98-1.33-2.24-1.33-3.78v-.39c0-1.54.44-2.81,1.32-3.83.88-1.01,1.99-1.52,3.32-1.51,1.43,0,2.52.43,3.28,1.29.76.86,1.14,2.02,1.14,3.47v1.4h-6.6l-.02.05c.04.84.29,1.52.74,2.06.45.53,1.08.8,1.88.8.64,0,1.19-.08,1.64-.23s.9-.38,1.32-.67l.76,1.56c-.4.35-.93.65-1.58.89s-1.42.36-2.29.36Zm-.27-9.07c-.59,0-1.07.23-1.45.7s-.61,1.06-.7,1.77l.02.05h4.19v-.24c0-.67-.17-1.22-.51-1.64-.34-.42-.86-.63-1.55-.63Z"/>
          <path class="cls-3" d="m513.16,393.1h-2.38v-14.23h2.38v14.23Z"/>
          <path class="cls-3" d="m518.21,382.52l.14,1.52c.35-.54.78-.96,1.3-1.27s1.12-.45,1.77-.45c1.1,0,1.96.33,2.58,1,.62.67.92,1.71.92,3.12v6.65h-2.38v-6.63c0-.79-.16-1.36-.49-1.7s-.83-.5-1.5-.5c-.46,0-.88.1-1.24.31-.37.21-.67.49-.9.85v7.67h-2.38v-10.58h2.17Z"/>
          <path class="cls-3" d="m530.77,389.52l.18.86h.06l.19-.86,2.1-7h2.45l-3.75,10.58h-2.06l-3.77-10.58h2.45l2.16,7Z"/>
          <path class="cls-3" d="m541.46,393.3c-1.5,0-2.69-.49-3.58-1.47-.89-.98-1.33-2.24-1.33-3.78v-.39c0-1.54.44-2.81,1.32-3.83.88-1.01,1.99-1.52,3.32-1.51,1.43,0,2.52.43,3.28,1.29.76.86,1.14,2.02,1.14,3.47v1.4h-6.6l-.02.05c.04.84.29,1.52.74,2.06.45.53,1.08.8,1.88.8.64,0,1.19-.08,1.64-.23s.9-.38,1.32-.67l.76,1.56c-.4.35-.93.65-1.58.89s-1.42.36-2.29.36Zm-.27-9.07c-.59,0-1.07.23-1.45.7s-.61,1.06-.7,1.77l.02.05h4.19v-.24c0-.67-.17-1.22-.51-1.64-.34-.42-.86-.63-1.55-.63Z"/>
          <path class="cls-3" d="m552.99,384.66l-1.02-.04c-.46,0-.85.1-1.16.29s-.55.47-.72.83v7.35h-2.38v-10.58h2.17l.16,1.53c.27-.54.61-.96,1.03-1.27.42-.31.9-.46,1.45-.46.14,0,.28.01.4.03.12.02.24.05.34.08l-.28,2.22Z"/>
          <path class="cls-3" d="m560.63,390.22c0-.36-.16-.67-.47-.91-.31-.24-.9-.45-1.75-.63-1.26-.27-2.22-.65-2.87-1.14s-.97-1.16-.97-2.01.37-1.64,1.12-2.27c.75-.63,1.74-.94,2.96-.94,1.29,0,2.31.32,3.07.95.76.63,1.12,1.42,1.09,2.36l-.02.06h-2.28c0-.44-.17-.81-.5-1.12-.33-.31-.79-.47-1.37-.47s-1.01.13-1.31.39c-.3.26-.45.57-.45.94s.14.67.42.88c.28.22.86.41,1.73.58,1.33.27,2.31.66,2.96,1.16.64.5.96,1.18.96,2.04,0,.95-.39,1.72-1.18,2.32-.79.59-1.82.89-3.1.89-1.38,0-2.46-.35-3.25-1.06-.8-.7-1.17-1.51-1.13-2.42l.02-.06h2.21c.03.61.25,1.06.66,1.34s.93.42,1.52.42,1.08-.12,1.42-.35c.33-.23.5-.55.5-.95Z"/>
          <path class="cls-3" d="m567.61,379.93h-2.38v-2.08h2.38v2.08Zm0,13.17h-2.38v-10.58h2.38v10.58Z"/>
          <path class="cls-3" d="m569.83,387.71c0-1.57.43-2.86,1.29-3.87.87-1.01,2.06-1.51,3.55-1.51s2.71.5,3.57,1.51c.87,1,1.3,2.29,1.3,3.87v.21c0,1.59-.43,2.89-1.3,3.89-.86,1-2.04,1.5-3.55,1.5s-2.7-.5-3.57-1.5c-.86-1-1.29-2.3-1.29-3.88v-.21Zm2.38.2c0,1.03.2,1.87.61,2.52.4.64,1.02.97,1.88.97s1.45-.32,1.86-.97c.42-.65.63-1.49.63-2.52v-.21c0-1.01-.21-1.84-.63-2.49-.41-.66-1.04-.99-1.88-.99s-1.45.33-1.86.99c-.4.66-.61,1.49-.61,2.49v.21Zm3.19-9.51h2.63l.02.06-2.67,2.54h-1.85l1.87-2.6Z"/>
          <path class="cls-3" d="m583.84,382.52l.14,1.52c.35-.54.78-.96,1.3-1.27s1.12-.45,1.77-.45c1.1,0,1.96.33,2.58,1,.62.67.92,1.71.92,3.12v6.65h-2.38v-6.63c0-.79-.16-1.36-.49-1.7s-.83-.5-1.5-.5c-.46,0-.88.1-1.24.31-.37.21-.67.49-.9.85v7.67h-2.38v-10.58h2.17Z"/>
        </g>
      </g>
      <rect class="cls-1" x="190.19" width="256.38" height="256.38" rx="10.54" ry="10.54"/>
      <g>
        <path class="cls-3" d="m264.6,164.79v6.38h-2.81v-16.84h6.58c1.86,0,3.31.48,4.37,1.44,1.05.96,1.58,2.22,1.58,3.79s-.53,2.85-1.58,3.8-2.51,1.43-4.37,1.43h-3.77Zm0-2.25h3.77c1.04,0,1.82-.28,2.35-.83s.79-1.26.79-2.12-.26-1.57-.79-2.14c-.52-.57-1.31-.86-2.35-.86h-3.77v5.94Z"/>
        <path class="cls-3" d="m282.97,161.19l-1.2-.05c-.55,0-1,.12-1.37.35-.37.23-.65.56-.85.98v8.7h-2.81v-12.51h2.57l.19,1.82c.32-.64.72-1.14,1.22-1.5.5-.36,1.07-.54,1.72-.54.17,0,.33.01.47.04.15.03.28.06.4.1l-.34,2.62Z"/>
        <path class="cls-3" d="m284.44,164.8c0-1.86.51-3.38,1.53-4.58,1.03-1.19,2.43-1.79,4.2-1.79s3.2.6,4.22,1.79c1.03,1.19,1.54,2.71,1.54,4.58v.24c0,1.88-.51,3.42-1.54,4.6-1.02,1.18-2.42,1.77-4.2,1.77s-3.2-.59-4.22-1.78c-1.02-1.19-1.53-2.72-1.53-4.59v-.24Zm2.81.24c0,1.22.24,2.21.72,2.98.47.76,1.21,1.14,2.22,1.14s1.71-.38,2.2-1.14c.49-.77.74-1.76.74-2.98v-.24c0-1.19-.25-2.17-.74-2.95-.49-.78-1.23-1.17-2.22-1.17s-1.71.39-2.2,1.17c-.48.78-.72,1.76-.72,2.95v.24Z"/>
        <path class="cls-3" d="m298.04,165.09c0-2,.43-3.61,1.28-4.83.86-1.22,2.06-1.83,3.61-1.83.68,0,1.29.14,1.82.41.54.27,1,.67,1.39,1.17v-6.88h2.81v18.04h-2.36l-.28-1.55c-.4.59-.88,1.03-1.45,1.34-.56.3-1.22.46-1.97.46-1.53,0-2.73-.56-3.58-1.68-.86-1.12-1.28-2.59-1.28-4.41v-.24Zm2.81.24c0,1.16.22,2.08.67,2.76.44.69,1.15,1.03,2.11,1.03.59,0,1.1-.13,1.51-.38.41-.25.75-.62,1.01-1.09v-5.46c-.26-.46-.6-.82-1.02-1.08-.42-.26-.91-.39-1.48-.39-.96,0-1.66.4-2.12,1.21-.46.81-.68,1.86-.68,3.15v.24Z"/>
        <path class="cls-3" d="m319.93,169.34c-.39.66-.89,1.17-1.49,1.53-.6.36-1.29.54-2.08.54-1.34,0-2.39-.43-3.15-1.28-.76-.86-1.13-2.19-1.13-3.99v-7.48h2.8v7.5c0,1.09.18,1.86.53,2.3s.89.66,1.61.66c.68,0,1.25-.12,1.71-.36.46-.24.82-.6,1.08-1.06v-9.04h2.81v12.51h-2.45l-.23-1.83Z"/>
        <path class="cls-3" d="m330.93,169.16c.69,0,1.26-.2,1.73-.6.47-.4.71-.91.71-1.51h2.54l.02.07c.04,1.17-.44,2.18-1.43,3.03-.99.85-2.18,1.27-3.58,1.27-1.84,0-3.25-.59-4.24-1.78-.98-1.19-1.47-2.69-1.47-4.51v-.4c0-1.81.49-3.31,1.47-4.5.98-1.19,2.4-1.79,4.24-1.79,1.5,0,2.72.44,3.66,1.31s1.39,1.99,1.36,3.34l-.02.07h-2.56c0-.69-.23-1.27-.68-1.75-.45-.48-1.04-.72-1.76-.72-1.06,0-1.8.38-2.24,1.15-.44.77-.66,1.73-.66,2.88v.4c0,1.18.22,2.15.66,2.9.44.76,1.19,1.14,2.24,1.14Z"/>
        <path class="cls-3" d="m342.07,155.62v3.04h2.24v2.08h-2.24v6.92c0,.52.11.88.34,1.1s.52.33.89.33c.15,0,.3-.01.45-.04.15-.03.29-.06.42-.11l.3,2.06c-.24.13-.52.23-.86.31s-.67.11-1.03.11c-1.03,0-1.84-.3-2.43-.91-.59-.6-.88-1.56-.88-2.85v-6.92h-1.91v-2.08h1.91v-3.04h2.8Z"/>
        <path class="cls-3" d="m345.93,164.8c0-1.86.51-3.38,1.53-4.58,1.03-1.19,2.43-1.79,4.2-1.79s3.2.6,4.22,1.79c1.03,1.19,1.54,2.71,1.54,4.58v.24c0,1.88-.51,3.42-1.54,4.6-1.02,1.18-2.42,1.77-4.2,1.77s-3.2-.59-4.22-1.78c-1.02-1.19-1.53-2.72-1.53-4.59v-.24Zm2.81.24c0,1.22.24,2.21.72,2.98.47.76,1.21,1.14,2.22,1.14s1.71-.38,2.2-1.14c.49-.77.74-1.76.74-2.98v-.24c0-1.19-.25-2.17-.74-2.95-.49-.78-1.23-1.17-2.22-1.17s-1.71.39-2.2,1.17c-.48.78-.72,1.76-.72,2.95v.24Z"/>
        <path class="cls-3" d="m366.92,167.77c0-.43-.19-.79-.56-1.08-.37-.28-1.06-.54-2.07-.75-1.5-.32-2.63-.77-3.39-1.35-.77-.58-1.15-1.37-1.15-2.38s.44-1.94,1.33-2.68c.89-.74,2.05-1.11,3.5-1.11,1.53,0,2.74.38,3.64,1.13.9.75,1.33,1.68,1.29,2.79l-.02.07h-2.69c0-.52-.2-.96-.59-1.33-.39-.37-.93-.56-1.62-.56s-1.19.15-1.55.46-.53.68-.53,1.12.17.79.5,1.05c.34.26,1.02.49,2.04.69,1.57.32,2.74.78,3.5,1.37.76.59,1.14,1.39,1.14,2.41,0,1.12-.46,2.04-1.39,2.74-.93.7-2.15,1.05-3.67,1.05-1.63,0-2.91-.42-3.85-1.25-.94-.83-1.39-1.79-1.34-2.87l.02-.07h2.61c.03.72.29,1.25.79,1.58.49.33,1.09.5,1.8.5s1.28-.14,1.68-.42c.39-.28.59-.65.59-1.12Z"/>
      </g>
      <g>
        <path class="cls-3" d="m260.91,223.09c0-2,.43-3.61,1.28-4.83.86-1.22,2.06-1.83,3.61-1.83.68,0,1.29.14,1.82.41.54.27,1,.67,1.39,1.17v-6.88h2.81v18.04h-2.36l-.28-1.55c-.4.59-.88,1.03-1.45,1.34-.56.3-1.22.46-1.97.46-1.53,0-2.73-.56-3.58-1.68-.86-1.12-1.28-2.59-1.28-4.41v-.24Zm2.81.24c0,1.16.22,2.08.67,2.76.44.69,1.15,1.03,2.11,1.03.59,0,1.1-.13,1.51-.38.41-.25.75-.62,1.01-1.09v-5.46c-.26-.46-.6-.82-1.02-1.08-.42-.26-.91-.39-1.48-.39-.96,0-1.66.4-2.12,1.21-.46.81-.68,1.86-.68,3.15v.24Z"/>
        <path class="cls-3" d="m280.21,229.41c-1.77,0-3.19-.58-4.24-1.74s-1.58-2.65-1.58-4.47v-.46c0-1.82.52-3.33,1.57-4.53,1.04-1.2,2.35-1.79,3.93-1.79,1.69,0,2.98.51,3.88,1.53s1.35,2.39,1.35,4.11v1.65h-7.81l-.02.06c.05.99.34,1.8.87,2.43s1.28.95,2.23.95c.76,0,1.4-.09,1.94-.28.54-.18,1.06-.45,1.56-.8l.9,1.84c-.47.42-1.09.77-1.87,1.06-.78.29-1.68.43-2.71.43Zm-.32-10.73c-.69,0-1.26.28-1.71.83-.45.55-.72,1.25-.83,2.1l.02.06h4.96v-.29c0-.79-.2-1.44-.61-1.94-.4-.5-1.02-.75-1.83-.75Z"/>
        <path class="cls-3" d="m294.41,225.77c0-.43-.19-.79-.56-1.08-.37-.28-1.06-.54-2.07-.75-1.5-.32-2.63-.77-3.39-1.35-.77-.58-1.15-1.37-1.15-2.38s.44-1.94,1.33-2.68c.89-.74,2.05-1.11,3.5-1.11,1.53,0,2.74.38,3.64,1.13.9.75,1.33,1.68,1.29,2.79l-.02.07h-2.69c0-.52-.2-.96-.59-1.33-.39-.37-.93-.56-1.62-.56s-1.19.15-1.55.46-.53.68-.53,1.12.17.79.5,1.05c.34.26,1.02.49,2.04.69,1.57.32,2.74.78,3.5,1.37.76.59,1.14,1.39,1.14,2.41,0,1.12-.46,2.04-1.39,2.74-.93.7-2.15,1.05-3.67,1.05-1.63,0-2.91-.42-3.85-1.25-.94-.83-1.39-1.79-1.34-2.87l.02-.07h2.61c.03.72.29,1.25.79,1.58.49.33,1.09.5,1.8.5s1.28-.14,1.68-.42c.39-.28.59-.65.59-1.12Z"/>
        <path class="cls-3" d="m307.23,229.17c-.1-.32-.18-.62-.25-.92s-.11-.6-.13-.9c-.39.59-.89,1.08-1.52,1.47-.63.4-1.33.6-2.11.6-1.3,0-2.3-.34-3-1.01-.7-.67-1.05-1.59-1.05-2.76s.48-2.15,1.43-2.83c.96-.67,2.3-1.01,4.04-1.01h2.19v-1.1c0-.66-.19-1.17-.58-1.54-.39-.37-.94-.55-1.65-.55-.64,0-1.15.15-1.53.46-.38.31-.57.71-.57,1.19h-2.71v-.07c-.07-.99.38-1.86,1.31-2.62.94-.76,2.16-1.14,3.66-1.14s2.63.37,3.53,1.11c.89.74,1.34,1.8,1.34,3.19v5.56c0,.52.03,1.01.1,1.49.07.47.18.94.33,1.39h-2.84Zm-3.45-2.01c.71,0,1.35-.18,1.91-.53.57-.35.94-.76,1.13-1.21v-1.85h-2.23c-.82,0-1.46.2-1.92.61-.46.4-.69.88-.69,1.43,0,.48.16.86.47,1.14.31.28.76.42,1.34.42Z"/>
        <path class="cls-3" d="m318.81,219.19l-1.2-.05c-.55,0-1,.12-1.37.35-.37.23-.65.56-.85.98v8.7h-2.81v-12.51h2.57l.19,1.82c.32-.64.72-1.14,1.22-1.5.5-.36,1.07-.54,1.72-.54.17,0,.33.01.47.04.15.03.28.06.4.1l-.34,2.62Z"/>
        <path class="cls-3" d="m327.01,219.19l-1.2-.05c-.55,0-1,.12-1.37.35-.37.23-.65.56-.85.98v8.7h-2.81v-12.51h2.57l.19,1.82c.32-.64.72-1.14,1.22-1.5.5-.36,1.07-.54,1.72-.54.17,0,.33.01.47.04.15.03.28.06.4.1l-.34,2.62Z"/>
        <path class="cls-3" d="m328.46,222.8c0-1.86.51-3.38,1.53-4.58,1.03-1.19,2.43-1.79,4.2-1.79s3.2.6,4.22,1.79c1.03,1.19,1.54,2.71,1.54,4.58v.24c0,1.88-.51,3.42-1.54,4.6-1.02,1.18-2.42,1.77-4.2,1.77s-3.2-.59-4.22-1.78c-1.02-1.19-1.53-2.72-1.53-4.59v-.24Zm2.81.24c0,1.22.24,2.21.72,2.98.47.76,1.21,1.14,2.22,1.14s1.71-.38,2.2-1.14c.49-.77.74-1.76.74-2.98v-.24c0-1.19-.25-2.17-.74-2.95-.49-.78-1.23-1.17-2.22-1.17s-1.71.39-2.2,1.17c-.48.78-.72,1.76-.72,2.95v.24Z"/>
        <path class="cls-3" d="m345.39,229.17h-2.81v-18.04h2.81v18.04Z"/>
        <path class="cls-3" d="m351.53,229.17h-2.81v-18.04h2.81v18.04Z"/>
        <path class="cls-3" d="m354.15,222.8c0-1.86.51-3.38,1.53-4.58,1.03-1.19,2.43-1.79,4.2-1.79s3.2.6,4.22,1.79c1.03,1.19,1.54,2.71,1.54,4.58v.24c0,1.88-.51,3.42-1.54,4.6-1.02,1.18-2.42,1.77-4.2,1.77s-3.2-.59-4.22-1.78c-1.02-1.19-1.53-2.72-1.53-4.59v-.24Zm2.81.24c0,1.22.24,2.21.72,2.98.47.76,1.21,1.14,2.22,1.14s1.71-.38,2.2-1.14c.49-.77.74-1.76.74-2.98v-.24c0-1.19-.25-2.17-.74-2.95-.49-.78-1.23-1.17-2.22-1.17s-1.71.39-2.2,1.17c-.48.78-.72,1.76-.72,2.95v.24Z"/>
      </g>
      <path class="cls-3" d="m217.88,199.59v-10.43h-1.91v-2.08h1.91v-1.06c0-1.5.44-2.66,1.33-3.48.89-.82,2.13-1.23,3.72-1.23.56,0,1.11.06,1.65.18.55.12,1.18.29,1.88.51l-.43,2.32c-.48-.16-.95-.29-1.41-.4-.46-.1-.96-.16-1.5-.16-.84,0-1.46.19-1.85.56-.39.37-.59.93-.59,1.68v1.06h2.46v2.08h-2.46v10.43h-2.81Zm9.92,0h-2.81v-12.51h2.81v12.51Zm5.94-12.51l.16,1.8c.41-.64.92-1.14,1.54-1.5.62-.36,1.32-.54,2.1-.54,1.3,0,2.32.4,3.05,1.19.73.79,1.09,2.02,1.09,3.69v7.86h-2.81v-7.84c0-.94-.19-1.61-.58-2.01-.39-.4-.98-.6-1.77-.6-.55,0-1.04.12-1.47.36-.43.24-.79.58-1.06,1v9.08h-2.81v-12.51h2.57Zm18.5,12.51c-.1-.32-.18-.62-.25-.93-.07-.3-.11-.6-.13-.9-.39.59-.89,1.08-1.52,1.47-.63.4-1.33.6-2.11.6-1.3,0-2.3-.34-3-1.01-.7-.67-1.05-1.59-1.05-2.76s.48-2.15,1.43-2.83c.96-.67,2.3-1.01,4.04-1.01h2.19v-1.1c0-.66-.19-1.17-.58-1.54-.39-.37-.94-.56-1.65-.56-.64,0-1.15.15-1.53.46-.38.31-.57.71-.57,1.19h-2.71v-.07c-.07-.99.38-1.86,1.31-2.62.94-.76,2.16-1.14,3.66-1.14s2.63.37,3.53,1.11c.89.74,1.34,1.8,1.34,3.19v5.56c0,.52.03,1.01.1,1.49.07.47.18.94.34,1.39h-2.84Zm-3.45-2.01c.71,0,1.35-.18,1.91-.53.57-.35.94-.76,1.13-1.21v-1.85h-2.23c-.82,0-1.46.2-1.92.61-.46.4-.69.88-.69,1.43,0,.48.16.86.47,1.14.31.28.76.42,1.34.42Zm11.56-10.5l.16,1.8c.41-.64.92-1.14,1.54-1.5.62-.36,1.32-.54,2.1-.54,1.3,0,2.32.4,3.05,1.19.73.79,1.09,2.02,1.09,3.69v7.86h-2.81v-7.84c0-.94-.19-1.61-.58-2.01-.39-.4-.98-.6-1.77-.6-.55,0-1.04.12-1.47.36-.43.24-.79.58-1.06,1v9.08h-2.81v-12.51h2.57Zm16.23,10.5c.69,0,1.26-.2,1.73-.6.47-.4.71-.91.71-1.51h2.54l.02.07c.04,1.17-.44,2.18-1.43,3.03-.99.85-2.18,1.27-3.58,1.27-1.84,0-3.26-.59-4.24-1.78-.98-1.19-1.47-2.69-1.47-4.51v-.4c0-1.81.49-3.31,1.47-4.5.98-1.19,2.4-1.79,4.24-1.79,1.5,0,2.72.44,3.66,1.31.94.88,1.39,1.99,1.36,3.34l-.02.07h-2.56c0-.69-.23-1.27-.68-1.75-.45-.48-1.04-.72-1.76-.72-1.06,0-1.8.38-2.24,1.15-.44.77-.66,1.73-.66,2.88v.4c0,1.18.22,2.15.66,2.9.44.76,1.19,1.14,2.24,1.14Zm10.46-13.56h-2.81v-2.46h2.81v2.46Zm0,15.58h-2.81v-12.51h2.81v12.51Zm8.6.24c-1.77,0-3.19-.58-4.24-1.74-1.05-1.16-1.58-2.65-1.58-4.47v-.46c0-1.82.52-3.33,1.57-4.53,1.04-1.2,2.35-1.79,3.93-1.79,1.69,0,2.98.51,3.88,1.53.9,1.02,1.35,2.39,1.35,4.11v1.65h-7.81l-.02.06c.05.99.34,1.8.87,2.43.54.63,1.28.94,2.23.94.76,0,1.4-.09,1.94-.28.54-.18,1.06-.45,1.56-.8l.9,1.84c-.47.42-1.09.77-1.87,1.06-.78.29-1.68.43-2.71.43Zm-.32-10.73c-.69,0-1.26.28-1.71.83-.45.55-.72,1.25-.83,2.1l.02.06h4.96v-.29c0-.79-.2-1.44-.61-1.94-.4-.5-1.02-.75-1.83-.75Zm14.06.51l-1.2-.05c-.55,0-1,.12-1.37.35-.37.23-.65.56-.85.98v8.7h-2.81v-12.51h2.57l.19,1.82c.32-.64.72-1.14,1.22-1.5.5-.36,1.07-.54,1.72-.54.17,0,.33.01.47.04.15.03.28.06.4.1l-.34,2.62Zm1.49,3.61c0-1.86.51-3.38,1.53-4.58,1.03-1.19,2.43-1.79,4.2-1.79s3.2.6,4.22,1.79c1.03,1.19,1.54,2.71,1.54,4.58v.24c0,1.88-.51,3.42-1.54,4.6-1.02,1.18-2.42,1.77-4.2,1.77s-3.2-.59-4.22-1.78c-1.02-1.19-1.53-2.72-1.53-4.59v-.24Zm2.81.24c0,1.22.24,2.21.72,2.98.47.76,1.21,1.14,2.22,1.14s1.71-.38,2.2-1.14c.49-.77.74-1.76.74-2.98v-.24c0-1.19-.25-2.17-.74-2.94-.49-.78-1.23-1.17-2.22-1.17s-1.71.39-2.2,1.17c-.48.78-.72,1.76-.72,2.94v.24Zm18.18,2.73c0-.43-.18-.79-.56-1.08-.37-.29-1.06-.54-2.07-.75-1.5-.32-2.63-.77-3.39-1.35-.77-.58-1.15-1.37-1.15-2.38s.44-1.94,1.33-2.68c.89-.74,2.05-1.11,3.5-1.11,1.53,0,2.74.38,3.64,1.13.9.75,1.33,1.68,1.29,2.79l-.02.07h-2.69c0-.52-.2-.96-.59-1.33-.39-.37-.93-.56-1.62-.56s-1.2.15-1.55.46c-.35.3-.53.68-.53,1.12s.17.79.5,1.05c.34.26,1.02.49,2.04.69,1.57.32,2.74.78,3.5,1.37.76.59,1.14,1.39,1.14,2.41,0,1.13-.46,2.04-1.39,2.74-.93.7-2.15,1.05-3.67,1.05-1.63,0-2.91-.42-3.85-1.25-.94-.83-1.39-1.79-1.34-2.87l.02-.07h2.61c.03.72.29,1.25.79,1.58.49.33,1.09.5,1.8.5s1.28-.14,1.68-.42.59-.65.59-1.12Zm22.62-2.44c0,1.82-.43,3.29-1.28,4.41-.86,1.12-2.05,1.68-3.57,1.68-.71,0-1.34-.13-1.88-.38-.55-.25-1.02-.63-1.41-1.12v6.07h-2.81v-17.32h2.37l.28,1.57c.4-.59.88-1.03,1.45-1.34.57-.31,1.22-.46,1.97-.46,1.54,0,2.74.61,3.6,1.83.86,1.22,1.29,2.83,1.29,4.83v.24Zm-2.8-.25c0-1.28-.24-2.32-.72-3.14-.48-.81-1.2-1.22-2.16-1.22-.59,0-1.08.13-1.49.38-.41.25-.74.6-.98,1.05v5.65c.25.44.57.78.98,1.01.41.23.91.35,1.51.35.96,0,1.67-.35,2.15-1.06.47-.7.71-1.63.71-2.78v-.24Zm12.87,6.09c-.1-.32-.18-.62-.25-.93-.07-.3-.11-.6-.13-.9-.39.59-.89,1.08-1.52,1.47-.63.4-1.33.6-2.11.6-1.3,0-2.3-.34-3-1.01-.7-.67-1.05-1.59-1.05-2.76s.48-2.15,1.43-2.83c.96-.67,2.3-1.01,4.04-1.01h2.19v-1.1c0-.66-.19-1.17-.58-1.54-.39-.37-.94-.56-1.65-.56-.64,0-1.15.15-1.53.46-.38.31-.57.71-.57,1.19h-2.71v-.07c-.07-.99.38-1.86,1.31-2.62.94-.76,2.16-1.14,3.66-1.14s2.63.37,3.53,1.11c.89.74,1.34,1.8,1.34,3.19v5.56c0,.52.03,1.01.1,1.49.07.47.18.94.34,1.39h-2.84Zm-3.45-2.01c.71,0,1.35-.18,1.91-.53.57-.35.94-.76,1.13-1.21v-1.85h-2.23c-.82,0-1.46.2-1.92.61-.46.4-.69.88-.69,1.43,0,.48.16.86.47,1.14.31.28.76.42,1.34.42Zm15.23-7.97l-1.2-.05c-.55,0-1,.12-1.37.35-.37.23-.65.56-.85.98v8.7h-2.81v-12.51h2.57l.19,1.82c.32-.64.72-1.14,1.22-1.5.5-.36,1.07-.54,1.72-.54.17,0,.33.01.47.04.15.03.28.06.4.1l-.34,2.62Zm9.56,9.98c-.1-.32-.18-.62-.25-.93-.07-.3-.11-.6-.13-.9-.39.59-.89,1.08-1.52,1.47-.63.4-1.33.6-2.11.6-1.3,0-2.3-.34-3-1.01-.7-.67-1.05-1.59-1.05-2.76s.48-2.15,1.43-2.83c.96-.67,2.3-1.01,4.04-1.01h2.19v-1.1c0-.66-.19-1.17-.58-1.54-.39-.37-.94-.56-1.65-.56-.64,0-1.15.15-1.53.46-.38.31-.57.71-.57,1.19h-2.71v-.07c-.07-.99.38-1.86,1.31-2.62.94-.76,2.16-1.14,3.66-1.14s2.63.37,3.53,1.11c.89.74,1.34,1.8,1.34,3.19v5.56c0,.52.03,1.01.1,1.49.07.47.18.94.34,1.39h-2.84Zm-3.45-2.01c.71,0,1.35-.18,1.91-.53.57-.35.94-.76,1.13-1.21v-1.85h-2.23c-.82,0-1.46.2-1.92.61-.46.4-.69.88-.69,1.43,0,.48.16.86.47,1.14.31.28.76.42,1.34.42Zm20.54,2.25c-1.77,0-3.19-.58-4.24-1.74-1.05-1.16-1.58-2.65-1.58-4.47v-.46c0-1.82.52-3.33,1.57-4.53,1.04-1.2,2.35-1.79,3.93-1.79,1.69,0,2.98.51,3.88,1.53.9,1.02,1.35,2.39,1.35,4.11v1.65h-7.81l-.02.06c.05.99.34,1.8.87,2.43.54.63,1.28.94,2.23.94.76,0,1.4-.09,1.94-.28.54-.18,1.06-.45,1.56-.8l.9,1.84c-.47.42-1.09.77-1.87,1.06-.78.29-1.68.43-2.71.43Zm-.32-10.73c-.69,0-1.26.28-1.71.83-.45.55-.72,1.25-.83,2.1l.02.06h4.96v-.29c0-.79-.2-1.44-.61-1.94-.4-.5-1.02-.75-1.83-.75Zm10.74,10.49h-2.81v-18.04h2.81v18.04Z"/>
      <path class="cls-3" d="m339.46,53.98l-.89,3.7c-.2.84-.95,1.4-1.78,1.4-.14,0-.28-.02-.43-.05-.85-.2-1.41-.96-1.4-1.8l-10.18,5.88c-.29.17-.6.25-.91.25-.63,0-1.25-.33-1.58-.91-.5-.87-.21-1.99.67-2.49l9.99-5.77c-.61-.42-.93-1.17-.75-1.93.23-.98,1.22-1.59,2.2-1.35l3.7.89c.98.24,1.59,1.22,1.35,2.2m-.63,7.84v7.89c0,1.01-.82,1.83-1.83,1.83s-1.83-.82-1.83-1.83v-7.89c0-1.01.82-1.83,1.83-1.83s1.83.82,1.83,1.83m-6.22,2.85v5.04c0,1.01-.82,1.83-1.83,1.83s-1.83-.82-1.83-1.83v-5.04c0-1.01.82-1.83,1.83-1.83s1.83.82,1.83,1.83m-6.21,2.86v2.18c0,1.01-.82,1.83-1.83,1.83s-1.83-.82-1.83-1.83v-2.18c0-1.01.82-1.83,1.83-1.83s1.83.82,1.83,1.83m13.85-25.17c-.39-.93.05-2,.98-2.39.93-.39,2,.05,2.39.98.59,1.41,1.54,1.96,2.23,2.17.87.27,1.87.15,2.54-.3.38-.25.62-.63.66-1.03.03-.35-.09-.66-.38-.94-.3-.29-1.22-.51-2.03-.7-1.45-.34-3.26-.77-4.59-2.14-1.15-1.17-1.62-2.94-1.22-4.61.41-1.71,1.63-3.03,3.35-3.62.13-.05.27-.08.4-.12v-1.44c0-1.01.82-1.83,1.83-1.83s1.83.82,1.83,1.83v1.37c.57.14,1.11.34,1.6.61,1.35.74,2.25,1.91,2.61,3.38.24.98-.36,1.97-1.34,2.21-.98.24-1.97-.36-2.21-1.34-.11-.46-.38-.81-.82-1.05-.73-.4-1.83-.46-2.73-.16-.65.22-.89.67-.97,1.01-.11.45,0,.92.28,1.21.59.61,1.67.86,2.81,1.14,1.33.31,2.71.64,3.74,1.64,1.09,1.07,1.61,2.46,1.47,3.92-.15,1.49-1,2.89-2.29,3.73-.65.43-1.39.73-2.16.89v1.33c0,1.01-.82,1.83-1.83,1.83s-1.83-.82-1.83-1.83v-1.55c-1.94-.66-3.48-2.14-4.33-4.2m-31.26,0c-.39-.93.05-2,.98-2.39.93-.39,2,.05,2.39.98.59,1.42,1.54,1.97,2.23,2.18.87.27,1.87.15,2.55-.29.38-.24.62-.63.66-1.03.03-.35-.09-.66-.38-.94-.3-.29-1.22-.51-2.03-.7-1.45-.34-3.26-.77-4.59-2.14-1.15-1.18-1.61-2.94-1.21-4.61.41-1.71,1.63-3.03,3.35-3.62.13-.05.27-.08.4-.12v-1.44c0-1.01.82-1.83,1.83-1.83s1.83.82,1.83,1.83v1.37c.57.13,1.11.33,1.6.6,1.35.74,2.25,1.91,2.61,3.38.24.98-.36,1.97-1.34,2.21-.98.24-1.97-.36-2.21-1.34-.11-.46-.38-.81-.82-1.05-.73-.4-1.82-.46-2.73-.16-.65.22-.89.67-.97,1.01-.11.45,0,.93.28,1.21.59.61,1.67.86,2.81,1.13,1.33.32,2.71.64,3.74,1.64,1.09,1.07,1.61,2.46,1.47,3.92-.15,1.49-1,2.89-2.3,3.73-.65.43-1.38.73-2.16.89v1.33c0,1.01-.82,1.83-1.83,1.83s-1.83-.82-1.83-1.83v-1.55c-1.94-.66-3.48-2.14-4.34-4.2m6.16-17.99c7.61,0,13.8,6.19,13.8,13.8,0,2.03-.45,4.03-1.29,5.84-4.91.89-9.11,3.84-11.67,7.93-.28.02-.55.02-.83.02-7.61,0-13.8-6.19-13.8-13.79,0-7.61,6.19-13.8,13.8-13.8m31.25,0c7.61,0,13.8,6.19,13.8,13.8s-6.19,13.79-13.8,13.79c-.28,0-.55,0-.83-.02-2.56-4.08-6.76-7.03-11.67-7.93-.85-1.82-1.3-3.82-1.3-5.84,0-7.61,6.19-13.8,13.8-13.8m-15.63,50.61c-7.61,0-13.79-6.19-13.79-13.8s6.19-13.8,13.79-13.8,13.8,6.19,13.8,13.8-6.19,13.8-13.8,13.8m-16.53-19.38c-.59,1.76-.92,3.63-.92,5.59,0,9.62,7.83,17.45,17.45,17.45s17.45-7.83,17.45-17.45c0-1.95-.33-3.83-.92-5.59,9.21-.47,16.55-8.11,16.55-17.42s-7.83-17.45-17.45-17.45c-6.84,0-12.76,3.95-15.63,9.69-2.86-5.74-8.79-9.69-15.62-9.69-9.62,0-17.45,7.83-17.45,17.45s7.34,16.95,16.55,17.42m55.65,38.06c-.39,1.33-1.28,2.43-2.49,3.09l-40.77,22.19c-3.86,2.09-7.93,2.48-12.09,1.13l-8.81-2.83c-5.15-1.67-10.18-1.2-14.96,1.39l-1.1.6-13.02-22.61,17.16-9.33c5.49-2.99,11.29-3.53,17.24-1.62,7.08,2.28,14.15,4.56,21.22,6.84.04.01.08.03.12.04.92.3,1.84.59,2.76.89,1.9.61,3.3,2.3,3.55,4.29,0,.02,0,.03,0,.05.09.74.02,1.47-.21,2.18-.88,2.72-3.8,4.22-6.52,3.34-6.82-2.2-13.64-4.4-20.46-6.59-3.19-1.03-6.39-2.05-9.57-3.08-.96-.31-1.99.22-2.3,1.18-.31.96.22,1.99,1.18,2.3,3.19,1.03,6.38,2.06,9.58,3.08,6.82,2.19,13.64,4.39,20.46,6.59.9.29,1.81.43,2.7.43,3.73,0,7.21-2.39,8.42-6.12.26-.82.4-1.67.42-2.52l20.05-10.91c1.21-.66,2.61-.8,3.94-.41,1.33.39,2.43,1.27,3.09,2.49.66,1.21.8,2.61.41,3.94m-88.8,39.04l-20.47-35.54s0,0,0,0l9.11-5.24,2.8,4.87,14.84,25.77s0,0,0,0c0,0,0,.01.01.02l2.81,4.88-9.11,5.24Zm63.24-46.09c2.51-1.37,5.67-.43,7.03,2.07.12.22.22.45.3.68l-10.02,5.45c-.85-1.92-2.36-3.49-4.27-4.41l6.96-3.79Zm28.35,1.37c-1.12-2.07-2.99-3.57-5.26-4.24-2.27-.67-4.65-.42-6.72.7l-5.81,3.16c-.1-.22-.21-.44-.32-.66-2.33-4.28-7.71-5.86-11.99-3.54l-9.91,5.4c-6.84-2.2-13.67-4.4-20.51-6.61-6.94-2.23-13.71-1.6-20.1,1.89l-17.23,9.38-1.94-3.36c-.49-.85-1.28-1.45-2.23-1.71-.94-.25-1.92-.12-2.76.37l-9.1,5.24c-.85.48-1.46,1.27-1.71,2.21-.26.95-.13,1.93.36,2.78l20.47,35.54c.68,1.17,1.91,1.83,3.17,1.83.62,0,1.24-.16,1.82-.49l9.11-5.24c.84-.49,1.45-1.27,1.7-2.21.26-.94.13-1.93-.36-2.77l-1.86-3.24,1.03-.56c3.86-2.09,7.92-2.47,12.09-1.13l8.81,2.83c2.01.65,4.01.98,5.97.98,3.07,0,6.07-.79,8.98-2.37l40.77-22.19c2.07-1.12,3.57-2.99,4.24-5.26.67-2.27.42-4.66-.7-6.72"/>
      <path class="cls-2" d="m96.01,297.5l13-13c1.5-1.49,1.49-3.92,0-5.41-1.49-1.5-3.92-1.5-5.42,0l-10.29,10.29-10.29-10.29c-1.49-1.5-3.92-1.5-5.42,0-.75.75-1.12,1.73-1.12,2.71s.37,1.96,1.12,2.71l13,13c1.49,1.5,3.92,1.5,5.42,0"/>
      <path class="cls-2" d="m96.01,313.01l13-13c1.5-1.5,1.49-3.92,0-5.42-1.49-1.5-3.92-1.5-5.42,0l-10.29,10.29-10.29-10.29c-1.49-1.5-3.92-1.5-5.42,0-.75.75-1.12,1.73-1.12,2.71s.37,1.96,1.12,2.71l13,13c1.5,1.5,3.92,1.5,5.42,0"/>
      <path class="cls-2" d="m324.67,297.5l13-13c1.5-1.49,1.49-3.92,0-5.41-1.49-1.5-3.92-1.5-5.41,0l-10.29,10.29-10.29-10.29c-1.49-1.5-3.92-1.5-5.42,0-.75.75-1.12,1.73-1.12,2.71s.37,1.96,1.12,2.71l13,13c1.49,1.5,3.92,1.5,5.42,0"/>
      <path class="cls-2" d="m324.67,313.01l13-13c1.5-1.5,1.49-3.92,0-5.42-1.49-1.5-3.92-1.5-5.41,0l-10.29,10.29-10.29-10.29c-1.49-1.5-3.92-1.5-5.42,0-.75.75-1.12,1.73-1.12,2.71s.37,1.96,1.12,2.71l13,13c1.5,1.5,3.92,1.5,5.42,0"/>
      <path class="cls-2" d="m540.16,297.5l13-13c1.5-1.49,1.49-3.92,0-5.41-1.49-1.5-3.92-1.5-5.41,0l-10.29,10.29-10.29-10.29c-1.49-1.5-3.92-1.5-5.42,0-.75.75-1.12,1.73-1.12,2.71s.37,1.96,1.12,2.71l13,13c1.49,1.5,3.92,1.5,5.42,0"/>
      <path class="cls-2" d="m540.16,313.01l13-13c1.5-1.5,1.49-3.92,0-5.42-1.49-1.5-3.92-1.5-5.41,0l-10.29,10.29-10.29-10.29c-1.49-1.5-3.92-1.5-5.42,0-.75.75-1.12,1.73-1.12,2.71s.37,1.96,1.12,2.71l13,13c1.5,1.5,3.92,1.5,5.42,0"/>
    </g>
  </g>
</svg>