<?xml version="1.0" encoding="UTF-8"?>
<svg id="Layer_2" data-name="Layer 2" xmlns="http://www.w3.org/2000/svg" viewBox="0 0 52.06 52.07">
  <defs>
    <style>
      .cls-1 {
        fill: #fff;
      }
    </style>
  </defs>
  <g id="Layer_1-2" data-name="Layer 1">
    <g>
      <path class="cls-1" d="m3.3,47.22c-.91,0-1.64.72-1.64,1.61s.74,1.61,1.64,1.61h17.32c.91,0,1.64-.72,1.64-1.61s-.74-1.61-1.64-1.61H3.3Zm17.32,4.84H3.3c-1.82,0-3.3-1.45-3.3-3.23s1.48-3.23,3.3-3.23h17.32c1.82,0,3.3,1.45,3.3,3.23s-1.48,3.23-3.3,3.23"/>
      <path class="cls-1" d="m3.3,42.38c-.91,0-1.64.72-1.64,1.61s.74,1.61,1.64,1.61h17.32c.91,0,1.64-.72,1.64-1.61s-.74-1.61-1.64-1.61H3.3Zm17.32,4.84H3.3c-1.82,0-3.3-1.45-3.3-3.23s1.48-3.23,3.3-3.23h17.32c1.82,0,3.3,1.45,3.3,3.23s-1.48,3.23-3.3,3.23"/>
      <path class="cls-1" d="m3.3,37.54c-.91,0-1.64.72-1.64,1.61s.74,1.61,1.64,1.61h17.32c.91,0,1.64-.72,1.64-1.61s-.74-1.61-1.64-1.61H3.3Zm17.32,4.84H3.3c-1.82,0-3.3-1.45-3.3-3.23s1.48-3.23,3.3-3.23h17.32c1.82,0,3.3,1.45,3.3,3.23s-1.48,3.23-3.3,3.23"/>
      <path class="cls-1" d="m3.3,32.69c-.91,0-1.64.72-1.64,1.61s.74,1.61,1.64,1.61h17.32c.91,0,1.64-.72,1.64-1.61s-.74-1.61-1.64-1.61H3.3Zm17.32,4.84H3.3c-1.82,0-3.3-1.45-3.3-3.23s1.48-3.23,3.3-3.23h17.32c1.82,0,3.3,1.45,3.3,3.23s-1.48,3.23-3.3,3.23"/>
      <path class="cls-1" d="m31.45,47.22c-.91,0-1.64.72-1.64,1.61s.74,1.61,1.64,1.61h17.32c.91,0,1.64-.72,1.64-1.61s-.74-1.61-1.64-1.61h-17.32Zm17.32,4.84h-17.32c-1.82,0-3.3-1.45-3.3-3.23s1.48-3.23,3.3-3.23h17.32c1.82,0,3.3,1.45,3.3,3.23s-1.48,3.23-3.3,3.23"/>
      <path class="cls-1" d="m31.45,42.38c-.91,0-1.64.72-1.64,1.61s.74,1.61,1.64,1.61h17.32c.91,0,1.64-.72,1.64-1.61s-.74-1.61-1.64-1.61h-17.32Zm17.32,4.84h-17.32c-1.82,0-3.3-1.45-3.3-3.23s1.48-3.23,3.3-3.23h17.32c1.82,0,3.3,1.45,3.3,3.23s-1.48,3.23-3.3,3.23"/>
      <path class="cls-1" d="m31.45,37.54c-.91,0-1.64.72-1.64,1.61s.74,1.61,1.64,1.61h17.32c.91,0,1.64-.72,1.64-1.61s-.74-1.61-1.64-1.61h-17.32Zm17.32,4.84h-17.32c-1.82,0-3.3-1.45-3.3-3.23s1.48-3.23,3.3-3.23h17.32c1.82,0,3.3,1.45,3.3,3.23s-1.48,3.23-3.3,3.23"/>
      <path class="cls-1" d="m31.45,32.69c-.91,0-1.64.72-1.64,1.61s.74,1.61,1.64,1.61h17.32c.91,0,1.64-.72,1.64-1.61s-.74-1.61-1.64-1.61h-17.32Zm17.32,4.84h-17.32c-1.82,0-3.3-1.45-3.3-3.23s1.48-3.23,3.3-3.23h17.32c1.82,0,3.3,1.45,3.3,3.23s-1.48,3.23-3.3,3.23"/>
      <path class="cls-1" d="m31.45,27.85c-.91,0-1.64.72-1.64,1.61s.74,1.61,1.64,1.61h17.32c.91,0,1.64-.72,1.64-1.61s-.74-1.61-1.64-1.61h-17.32Zm17.32,4.84h-17.32c-1.82,0-3.3-1.45-3.3-3.23s1.48-3.23,3.3-3.23h17.32c1.82,0,3.3,1.45,3.3,3.23s-1.48,3.23-3.3,3.23"/>
      <path class="cls-1" d="m11.96,6.47c-5.42,0-9.82,4.32-9.82,9.62s4.41,9.62,9.82,9.62,9.82-4.32,9.82-9.62-4.41-9.62-9.82-9.62m0,20.86c-1.55,0-3.05-.3-4.47-.88-1.37-.57-2.6-1.38-3.65-2.41-1.05-1.03-1.88-2.23-2.46-3.58-.6-1.39-.9-2.86-.9-4.38s.31-2.99.9-4.38c.58-1.34,1.4-2.54,2.46-3.58,1.06-1.03,2.28-1.84,3.65-2.41,1.42-.59,2.92-.88,4.47-.88s3.05.3,4.47.88c1.37.57,2.6,1.38,3.65,2.41,1.05,1.03,1.88,2.23,2.46,3.58.6,1.39.9,2.86.9,4.38s-.3,2.99-.9,4.38c-.58,1.34-1.4,2.54-2.46,3.58-1.06,1.03-2.28,1.84-3.65,2.41-1.42.59-2.92.88-4.47.88"/>
      <path class="cls-1" d="m15.45,16.68h0c-.28-.41-.72-.75-1.29-1.01-.39-.17-1.1-.38-2.12-.6-1.21-.27-1.64-.48-1.79-.61-.2-.18-.3-.4-.3-.67,0-.32.15-.59.44-.83.31-.24.82-.36,1.53-.36s1.19.13,1.52.4c.23.19.4.44.5.76.1.34.41.57.76.57.02,0,.04,0,.06,0h0c.18-.01.36-.08.49-.2.23-.21.32-.51.24-.79-.08-.29-.21-.56-.38-.81-.31-.46-.75-.81-1.32-1.04-.56-.23-1.2-.35-1.93-.35-.66,0-1.27.11-1.81.33-.55.22-.98.56-1.27,1-.29.43-.44.91-.44,1.41,0,.46.12.88.36,1.25.24.37.6.68,1.08.93.36.19.99.39,1.87.59.85.2,1.41.35,1.65.44.36.13.62.3.76.48.14.18.21.4.21.64s-.08.47-.23.68c-.16.21-.4.38-.73.5-.34.13-.74.19-1.19.19-.51,0-.97-.09-1.37-.26-.39-.17-.68-.39-.86-.65-.11-.17-.2-.37-.27-.59-.1-.35-.42-.59-.78-.59-.02,0-.05,0-.07,0-.23.02-.45.14-.58.33-.14.19-.19.42-.13.65.09.37.24.72.46,1.04.35.52.83.91,1.44,1.17.6.25,1.35.38,2.22.38.7,0,1.34-.13,1.9-.38.57-.25,1.01-.62,1.32-1.08.31-.46.46-.97.46-1.49s-.14-1.01-.43-1.42"/>
      <path class="cls-1" d="m11.96,22.34c-.46,0-.83-.36-.83-.81v-.58c0-.45.37-.81.83-.81s.83.36.83.81v.58c0,.45-.37.81-.83.81"/>
      <path class="cls-1" d="m11.96,12.05c-.46,0-.83-.36-.83-.81v-.58c0-.45.37-.81.83-.81s.83.36.83.81v.58c0,.45-.37.81-.83.81"/>
      <path class="cls-1" d="m40.11,1.63c-5.42,0-9.82,4.32-9.82,9.62s4.41,9.62,9.82,9.62,9.82-4.32,9.82-9.62S45.52,1.63,40.11,1.63m0,20.87c-1.55,0-3.05-.3-4.47-.88-1.37-.57-2.6-1.38-3.65-2.41-1.06-1.03-1.88-2.23-2.46-3.58-.6-1.39-.9-2.86-.9-4.38s.3-2.99.9-4.38c.58-1.34,1.4-2.54,2.46-3.58,1.05-1.03,2.28-1.84,3.65-2.41,1.41-.59,2.92-.88,4.47-.88s3.05.3,4.47.88c1.37.57,2.6,1.38,3.65,2.41,1.06,1.03,1.88,2.23,2.46,3.58.6,1.39.9,2.86.9,4.38s-.3,2.99-.9,4.38c-.58,1.34-1.4,2.54-2.46,3.58-1.05,1.03-2.28,1.84-3.65,2.41-1.42.59-2.92.88-4.47.88"/>
      <path class="cls-1" d="m35.54,16.56c-.21,0-.43-.08-.59-.24-.33-.32-.33-.83,0-1.15l9.3-9.11c.32-.32.85-.32,1.17,0,.32.32.32.83,0,1.15l-9.3,9.11c-.16.16-.37.24-.58.24Z"/>
      <path class="cls-1" d="m36.64,6.95c-.51,0-.93.41-.93.91s.41.91.93.91.93-.41.93-.91c0-.5-.42-.91-.93-.91m0,3.44c-1.43,0-2.59-1.14-2.59-2.53s1.16-2.54,2.59-2.54,2.59,1.14,2.59,2.54-1.16,2.53-2.59,2.53"/>
      <path class="cls-1" d="m43.57,13.74c-.51,0-.93.41-.93.91s.41.91.93.91.93-.41.93-.91-.42-.91-.93-.91m0,3.44c-1.43,0-2.59-1.14-2.59-2.53s1.16-2.54,2.59-2.54,2.59,1.14,2.59,2.54-1.16,2.53-2.59,2.53"/>
    </g>
  </g>
</svg>