<?xml version="1.0" encoding="UTF-8"?>
<svg id="Layer_2" data-name="Layer 2" xmlns="http://www.w3.org/2000/svg" viewBox="0 0 54.07 54.08">
  <defs>
    <style>
      .cls-1 {
        fill: #fff;
      }
    </style>
  </defs>
  <g id="Layer_1-2" data-name="Layer 1">
    <g>
      <path class="cls-1" d="m34.59,51.11l-1.15-4.05,3.32-4.15s.07-.1.1-.15l1.8-3.61c.09-.16.12-.35.09-.53l-.85-5.9,4.19-4.78h10.17c-.39,10.68-7.47,19.96-17.67,23.17m-7.55,1.16h-.09l.96-3.35c.07-.22.04-.46-.06-.66l-1.8-3.6c-.05-.12-.14-.22-.24-.3l-4.51-3.6c-.21-.17-.48-.23-.74-.18l-4.42.88h-6.22c-.24,0-.86.04-3.32.36-.8-1.11-1.51-2.28-2.13-3.5l1.62.41c.07.02.14.03.22.03h5.41s.07,0,.11,0l7.21-.9c.08,0,.17-.03.24-.06l6.31-2.7c.27-.11.48-.36.53-.65l.84-4.17,3.08-2.32h9.66l-3.42,3.91c-.17.2-.25.46-.22.72l.87,6.03-1.64,3.27-3.54,4.43c-.18.22-.24.52-.16.8l1.28,4.48c-1.91.45-3.86.68-5.82.68m-1.95-.08c-6.66-.51-12.85-3.65-17.19-8.72,1.48-.18,1.89-.21,2.01-.21h6.31c.06,0,.12,0,.18-.02l4.09-.82,4.02,3.22,1.56,3.12-.98,3.43ZM1.82,27.94h25.22l-1.44,1.08c-.18.13-.3.32-.34.54l-.81,4.05-5.75,2.47-7.03.87h-5.24l-2.88-.72c-1.04-2.65-1.63-5.45-1.72-8.29m17.11-4.51c.19,0,.39.03.58.06.29.05.58-.05.78-.27,3.06-3.19,8.12-3.34,11.36-.33.26.25.64.31.97.17,3.12-1.37,6.77,0,8.23,3.07H15.45c.41-1.59,1.84-2.7,3.48-2.7m-1.3-12.72l-2.76-1.58-.9,1.57,9.67,5.52h-5.61c-4.48,0-8.1-3.63-8.11-8.11v-.9h8.11c4.48,0,8.1,3.63,8.11,8.11v.25l-6.43-3.68-.79-3.96-1.77.36.49,2.42Zm10.31-.79c0-4.48,3.63-8.1,8.11-8.11h8.11v.9c0,4.48-3.63,8.11-8.11,8.11h-5.61l2.77-1.59,3.59.67.32-1.77-1.49-.28,4.48-2.56-.9-1.57-2.76,1.58.49-2.41-1.77-.36-.79,3.97-6.43,3.68v-.25Zm25.24,16.22h-10.37c-1.15-3.24-4.21-5.41-7.65-5.41-.92,0-1.84.15-2.71.47-1.3-1.07-2.84-1.79-4.5-2.1v-6.48h8.11c5.47,0,9.91-4.44,9.91-9.91V.9c0-.5-.4-.9-.9-.9h-9.01c-5.37,0-9.76,4.29-9.9,9.65-1.85-2.66-4.88-4.24-8.12-4.24h-9.01c-.5,0-.9.4-.9.9v1.8c0,5.47,4.44,9.91,9.91,9.91h8.11v.9c-2.54,0-4.99.97-6.82,2.72-.12,0-.25-.02-.39-.02-2.64,0-4.88,1.91-5.33,4.51H.9c-.5,0-.9.4-.9.9,0,14.93,12.11,27.04,27.04,27.04s27.04-12.1,27.04-27.04c0-.5-.4-.9-.9-.9"/>
      <rect class="cls-1" x="7.21" y="17.12" width="1.8" height="1.8"/>
      <rect class="cls-1" x="5.41" y="18.93" width="1.8" height="1.8"/>
      <rect class="cls-1" x="9.01" y="18.93" width="1.8" height="1.8"/>
      <rect class="cls-1" x="7.21" y="20.73" width="1.8" height="1.8"/>
      <rect class="cls-1" x="45.06" y="17.12" width="1.8" height="1.8"/>
      <rect class="cls-1" x="46.87" y="18.93" width="1.8" height="1.8"/>
      <rect class="cls-1" x="43.26" y="18.93" width="1.8" height="1.8"/>
      <rect class="cls-1" x="45.06" y="20.73" width="1.8" height="1.8"/>
    </g>
  </g>
</svg>