<?xml version="1.0" encoding="UTF-8"?>
<svg id="Layer_2" data-name="Layer 2" xmlns="http://www.w3.org/2000/svg" viewBox="0 0 257.91 496.79">
  <defs>
    <style>
      .cls-1 {
        fill: #fff;
      }

      .cls-2 {
        fill: #2d549d;
      }

      .cls-3 {
        fill: #4087c7;
      }

      .cls-4 {
        fill: #2566af;
      }
    </style>
  </defs>
  <g id="Layer_1-2" data-name="Layer 1">
    <g>
      <path class="cls-1" d="m12.46,334.75h235.99c5.22,0,9.46,4.24,9.46,9.46v50.9c0,5.22-4.24,9.46-9.46,9.46H12.46c-5.22,0-9.46-4.24-9.46-9.46v-50.9c0-5.22,4.24-9.46,9.46-9.46Z"/>
      <g>
        <path class="cls-4" d="m31.66,360.18h-5.57l-1.13,3.32h-2.4l5.23-14.23h2.25l5.17,14.23h-2.41l-1.12-3.32Zm-4.89-1.98h4.21l-2.06-6.08h-.06l-2.09,6.08Z"/>
        <path class="cls-4" d="m42.57,360.63c0-.36-.16-.67-.47-.91-.31-.24-.9-.45-1.75-.63-1.26-.27-2.22-.65-2.87-1.14s-.97-1.16-.97-2.01.37-1.64,1.12-2.27c.75-.63,1.74-.94,2.96-.94,1.29,0,2.31.32,3.07.95.76.63,1.12,1.42,1.09,2.36l-.02.06h-2.28c0-.44-.17-.81-.5-1.12-.33-.31-.79-.47-1.37-.47s-1.01.13-1.31.39c-.3.26-.45.57-.45.94s.14.67.42.88c.28.22.86.41,1.73.58,1.33.27,2.31.66,2.96,1.16.64.5.96,1.18.96,2.04,0,.95-.39,1.72-1.18,2.32-.79.59-1.82.89-3.1.89-1.38,0-2.46-.35-3.25-1.06-.8-.7-1.17-1.51-1.13-2.42l.02-.06h2.21c.03.61.25,1.06.66,1.34s.93.42,1.52.42,1.08-.12,1.42-.35c.33-.23.5-.55.5-.95Z"/>
        <path class="cls-4" d="m49.53,350.34h-2.38v-2.08h2.38v2.08Zm0,13.17h-2.38v-10.58h2.38v10.58Z"/>
        <path class="cls-4" d="m58.06,360.63c0-.36-.16-.67-.47-.91-.31-.24-.9-.45-1.75-.63-1.26-.27-2.22-.65-2.87-1.14s-.97-1.16-.97-2.01.37-1.64,1.12-2.27c.75-.63,1.74-.94,2.96-.94,1.29,0,2.31.32,3.07.95.76.63,1.12,1.42,1.09,2.36l-.02.06h-2.28c0-.44-.17-.81-.5-1.12-.33-.31-.79-.47-1.37-.47s-1.01.13-1.31.39c-.3.26-.45.57-.45.94s.14.67.42.88c.28.22.86.41,1.73.58,1.33.27,2.31.66,2.96,1.16.64.5.96,1.18.96,2.04,0,.95-.39,1.72-1.18,2.32-.79.59-1.82.89-3.1.89-1.38,0-2.46-.35-3.25-1.06-.8-.7-1.17-1.51-1.13-2.42l.02-.06h2.21c.03.61.25,1.06.66,1.34s.93.42,1.52.42,1.08-.12,1.42-.35c.33-.23.5-.55.5-.95Z"/>
        <path class="cls-4" d="m65.62,350.36v2.57h1.9v1.76h-1.9v5.84c0,.44.09.75.28.93.19.19.44.28.75.28.13,0,.26-.01.38-.03.12-.02.24-.05.35-.09l.25,1.74c-.2.11-.44.2-.72.26-.28.06-.57.09-.87.09-.87,0-1.56-.26-2.05-.77-.5-.51-.74-1.31-.74-2.41v-5.84h-1.61v-1.76h1.61v-2.57h2.37Z"/>
        <path class="cls-4" d="m73.76,363.71c-1.5,0-2.69-.49-3.58-1.47-.89-.98-1.33-2.24-1.33-3.78v-.39c0-1.54.44-2.81,1.32-3.83.88-1.01,1.99-1.52,3.32-1.51,1.43,0,2.52.43,3.28,1.29.76.86,1.14,2.02,1.14,3.47v1.4h-6.6l-.02.05c.04.84.29,1.52.74,2.06.45.53,1.08.8,1.88.8.64,0,1.19-.08,1.64-.23s.9-.38,1.32-.67l.76,1.56c-.4.35-.93.65-1.58.89s-1.42.36-2.29.36Zm-.27-9.07c-.59,0-1.07.23-1.45.7s-.61,1.06-.7,1.77l.02.05h4.19v-.24c0-.67-.17-1.22-.51-1.64-.34-.42-.86-.63-1.55-.63Z"/>
        <path class="cls-4" d="m82.18,352.93l.14,1.52c.35-.54.78-.96,1.3-1.27s1.12-.45,1.77-.45c1.1,0,1.96.33,2.58,1,.62.67.92,1.71.92,3.12v6.65h-2.38v-6.63c0-.79-.16-1.36-.49-1.7s-.83-.5-1.5-.5c-.46,0-.88.1-1.24.31-.37.21-.67.49-.9.85v7.67h-2.38v-10.58h2.17Z"/>
        <path class="cls-4" d="m95.83,361.81c.58,0,1.07-.17,1.47-.51.4-.34.6-.77.6-1.28h2.15l.02.06c.03.99-.37,1.84-1.21,2.56-.84.72-1.85,1.08-3.03,1.08-1.56,0-2.75-.5-3.58-1.5-.83-1-1.25-2.27-1.25-3.81v-.34c0-1.53.42-2.8,1.25-3.81.83-1.01,2.02-1.51,3.58-1.51,1.27,0,2.3.37,3.09,1.11.79.74,1.17,1.68,1.15,2.82l-.02.06h-2.16c0-.58-.19-1.07-.57-1.48-.38-.4-.88-.61-1.49-.61-.89,0-1.52.32-1.9.97s-.56,1.46-.56,2.44v.34c0,1,.19,1.81.56,2.46.37.64,1,.96,1.9.96Z"/>
        <path class="cls-4" d="m104.59,350.34h-2.38v-2.08h2.38v2.08Zm0,13.17h-2.38v-10.58h2.38v10.58Z"/>
        <path class="cls-4" d="m113.58,363.51c-.08-.27-.16-.53-.21-.78s-.09-.51-.11-.76c-.33.5-.75.91-1.29,1.25-.53.33-1.13.5-1.78.5-1.1,0-1.95-.28-2.54-.85-.59-.57-.88-1.34-.88-2.34s.4-1.82,1.21-2.39,1.95-.86,3.41-.86h1.85v-.93c0-.55-.16-.99-.49-1.3-.33-.31-.79-.47-1.4-.47-.54,0-.97.13-1.29.39s-.48.6-.48,1.01h-2.29v-.06c-.06-.83.32-1.57,1.11-2.22.79-.65,1.82-.97,3.09-.97s2.23.31,2.98.94c.76.62,1.13,1.52,1.13,2.7v4.7c0,.44.03.85.09,1.26.06.4.15.79.28,1.18h-2.4Zm-2.91-1.7c.6,0,1.14-.15,1.62-.45s.8-.64.95-1.03v-1.56h-1.89c-.69,0-1.23.17-1.62.51s-.59.74-.59,1.21c0,.4.13.73.4.96.26.24.64.36,1.13.36Z"/>
        <path class="cls-4" d="m126.24,350.36v2.57h1.9v1.76h-1.9v5.84c0,.44.09.75.28.93.19.19.44.28.75.28.13,0,.26-.01.38-.03.12-.02.24-.05.35-.09l.25,1.74c-.2.11-.44.2-.72.26-.28.06-.57.09-.87.09-.87,0-1.56-.26-2.05-.77-.5-.51-.74-1.31-.74-2.41v-5.84h-1.61v-1.76h1.61v-2.57h2.37Z"/>
        <path class="cls-4" d="m134.39,363.71c-1.5,0-2.69-.49-3.58-1.47-.89-.98-1.33-2.24-1.33-3.78v-.39c0-1.54.44-2.81,1.32-3.83.88-1.01,1.99-1.52,3.32-1.51,1.43,0,2.52.43,3.28,1.29.76.86,1.14,2.02,1.14,3.47v1.4h-6.6l-.02.05c.04.84.29,1.52.74,2.06.45.53,1.08.8,1.88.8.64,0,1.19-.08,1.64-.23s.9-.38,1.32-.67l.76,1.56c-.4.35-.93.65-1.58.89s-1.42.36-2.29.36Zm-.27-9.07c-.59,0-1.07.23-1.45.7s-.61,1.06-.7,1.77l.02.05h4.19v-.24c0-.67-.17-1.22-.51-1.64-.34-.42-.86-.63-1.55-.63Zm.6-5.84h2.63l.02.06-2.67,2.54h-1.85l1.87-2.6Z"/>
        <path class="cls-4" d="m145,361.81c.58,0,1.07-.17,1.47-.51.4-.34.6-.77.6-1.28h2.15l.02.06c.03.99-.37,1.84-1.21,2.56-.84.72-1.85,1.08-3.03,1.08-1.56,0-2.75-.5-3.58-1.5-.83-1-1.25-2.27-1.25-3.81v-.34c0-1.53.42-2.8,1.25-3.81.83-1.01,2.02-1.51,3.58-1.51,1.27,0,2.3.37,3.09,1.11.79.74,1.17,1.68,1.15,2.82l-.02.06h-2.16c0-.58-.19-1.07-.57-1.48-.38-.4-.88-.61-1.49-.61-.89,0-1.52.32-1.9.97s-.56,1.46-.56,2.44v.34c0,1,.19,1.81.56,2.46.37.64,1,.96,1.9.96Z"/>
        <path class="cls-4" d="m153.45,352.93l.14,1.52c.35-.54.78-.96,1.3-1.27s1.12-.45,1.77-.45c1.1,0,1.96.33,2.58,1,.62.67.92,1.71.92,3.12v6.65h-2.38v-6.63c0-.79-.16-1.36-.49-1.7s-.83-.5-1.5-.5c-.46,0-.88.1-1.24.31-.37.21-.67.49-.9.85v7.67h-2.38v-10.58h2.17Z"/>
        <path class="cls-4" d="m165.19,350.34h-2.38v-2.08h2.38v2.08Zm0,13.17h-2.38v-10.58h2.38v10.58Z"/>
        <path class="cls-4" d="m172.25,361.81c.58,0,1.07-.17,1.47-.51.4-.34.6-.77.6-1.28h2.15l.02.06c.03.99-.37,1.84-1.21,2.56-.84.72-1.85,1.08-3.03,1.08-1.56,0-2.75-.5-3.58-1.5-.83-1-1.25-2.27-1.25-3.81v-.34c0-1.53.42-2.8,1.25-3.81.83-1.01,2.02-1.51,3.58-1.51,1.27,0,2.3.37,3.09,1.11.79.74,1.17,1.68,1.15,2.82l-.02.06h-2.16c0-.58-.19-1.07-.57-1.48-.38-.4-.88-.61-1.49-.61-.89,0-1.52.32-1.9.97s-.56,1.46-.56,2.44v.34c0,1,.19,1.81.56,2.46.37.64,1,.96,1.9.96Z"/>
        <path class="cls-4" d="m184.89,363.51c-.08-.27-.16-.53-.21-.78s-.09-.51-.11-.76c-.33.5-.75.91-1.29,1.25-.53.33-1.13.5-1.78.5-1.1,0-1.95-.28-2.54-.85-.59-.57-.88-1.34-.88-2.34s.4-1.82,1.21-2.39,1.95-.86,3.41-.86h1.85v-.93c0-.55-.16-.99-.49-1.3-.33-.31-.79-.47-1.4-.47-.54,0-.97.13-1.29.39s-.48.6-.48,1.01h-2.29v-.06c-.06-.83.32-1.57,1.11-2.22.79-.65,1.82-.97,3.09-.97s2.23.31,2.98.94c.76.62,1.13,1.52,1.13,2.7v4.7c0,.44.03.85.09,1.26.06.4.15.79.28,1.18h-2.4Zm-2.91-1.7c.6,0,1.14-.15,1.62-.45s.8-.64.95-1.03v-1.56h-1.89c-.69,0-1.23.17-1.62.51s-.59.74-.59,1.21c0,.4.13.73.4.96.26.24.64.36,1.13.36Z"/>
        <path class="cls-4" d="m203.87,358.57c0,1.54-.36,2.78-1.08,3.72-.72.94-1.73,1.42-3.02,1.42-.6,0-1.13-.11-1.59-.32s-.86-.53-1.19-.95v5.13h-2.38v-14.64h2l.23,1.33c.34-.5.75-.87,1.23-1.13s1.03-.39,1.67-.39c1.3,0,2.32.52,3.04,1.55.73,1.03,1.09,2.39,1.09,4.08v.21Zm-2.37-.21c0-1.08-.2-1.96-.61-2.65s-1.01-1.03-1.82-1.03c-.5,0-.92.11-1.26.32-.35.21-.62.51-.83.88v4.77c.21.37.49.66.83.85.35.2.77.3,1.28.3.81,0,1.41-.3,1.81-.89.4-.6.6-1.38.6-2.35v-.21Z"/>
        <path class="cls-4" d="m212.3,363.51c-.08-.27-.16-.53-.21-.78s-.09-.51-.11-.76c-.33.5-.75.91-1.29,1.25-.53.33-1.13.5-1.78.5-1.1,0-1.95-.28-2.54-.85-.59-.57-.88-1.34-.88-2.34s.4-1.82,1.21-2.39,1.95-.86,3.41-.86h1.85v-.93c0-.55-.16-.99-.49-1.3-.33-.31-.79-.47-1.4-.47-.54,0-.97.13-1.29.39s-.48.6-.48,1.01h-2.29v-.06c-.06-.83.32-1.57,1.11-2.22.79-.65,1.82-.97,3.09-.97s2.23.31,2.98.94c.76.62,1.13,1.52,1.13,2.7v4.7c0,.44.03.85.09,1.26.06.4.15.79.28,1.18h-2.4Zm-2.91-1.7c.6,0,1.14-.15,1.62-.45s.8-.64.95-1.03v-1.56h-1.89c-.69,0-1.23.17-1.62.51s-.59.74-.59,1.21c0,.4.13.73.4.96.26.24.64.36,1.13.36Z"/>
        <path class="cls-4" d="m222.19,355.07l-1.02-.04c-.46,0-.85.1-1.16.29s-.55.47-.72.83v7.35h-2.38v-10.58h2.17l.16,1.53c.27-.54.61-.96,1.03-1.27.42-.31.9-.46,1.45-.46.14,0,.28.01.4.03.12.02.24.05.34.08l-.28,2.22Z"/>
        <path class="cls-4" d="m230.19,363.51c-.08-.27-.16-.53-.21-.78s-.09-.51-.11-.76c-.33.5-.75.91-1.29,1.25-.53.33-1.13.5-1.78.5-1.1,0-1.95-.28-2.54-.85-.59-.57-.88-1.34-.88-2.34s.4-1.82,1.21-2.39,1.95-.86,3.41-.86h1.85v-.93c0-.55-.16-.99-.49-1.3-.33-.31-.79-.47-1.4-.47-.54,0-.97.13-1.29.39s-.48.6-.48,1.01h-2.29v-.06c-.06-.83.32-1.57,1.11-2.22.79-.65,1.82-.97,3.09-.97s2.23.31,2.98.94c.76.62,1.13,1.52,1.13,2.7v4.7c0,.44.03.85.09,1.26.06.4.15.79.28,1.18h-2.4Zm-2.91-1.7c.6,0,1.14-.15,1.62-.45s.8-.64.95-1.03v-1.56h-1.89c-.69,0-1.23.17-1.62.51s-.59.74-.59,1.21c0,.4.13.73.4.96.26.24.64.36,1.13.36Z"/>
        <path class="cls-4" d="m36.44,392.13c-1.5,0-2.69-.49-3.58-1.47-.89-.98-1.33-2.24-1.33-3.78v-.39c0-1.54.44-2.81,1.32-3.83.88-1.01,1.99-1.52,3.32-1.51,1.43,0,2.52.43,3.28,1.29.76.86,1.14,2.02,1.14,3.47v1.4h-6.6l-.02.05c.04.84.29,1.52.74,2.06.45.53,1.08.8,1.88.8.64,0,1.19-.08,1.64-.23s.9-.38,1.32-.67l.76,1.56c-.4.35-.93.65-1.58.89s-1.42.36-2.29.36Zm-.27-9.07c-.59,0-1.07.23-1.45.7s-.61,1.06-.7,1.77l.02.05h4.19v-.24c0-.67-.17-1.22-.51-1.64-.34-.42-.86-.63-1.55-.63Z"/>
        <path class="cls-4" d="m45.16,391.93h-2.38v-15.25h2.38v15.25Z"/>
        <path class="cls-4" d="m52.57,386.79c0-1.69.36-3.05,1.08-4.08.72-1.03,1.74-1.55,3.05-1.55.57,0,1.09.12,1.54.35.45.23.85.56,1.18.99v-5.82h2.38v15.25h-1.99l-.23-1.31c-.34.5-.75.87-1.22,1.13-.48.26-1.03.39-1.66.39-1.3,0-2.31-.47-3.03-1.42-.72-.95-1.08-2.19-1.08-3.72v-.21Zm2.38.21c0,.98.19,1.76.56,2.34s.97.87,1.78.87c.5,0,.93-.11,1.28-.32s.63-.52.86-.92v-4.61c-.22-.39-.51-.7-.86-.91s-.77-.33-1.25-.33c-.81,0-1.4.34-1.79,1.02-.38.68-.58,1.57-.58,2.66v.21Z"/>
        <path class="cls-4" d="m68.92,392.13c-1.5,0-2.69-.49-3.58-1.47-.89-.98-1.33-2.24-1.33-3.78v-.39c0-1.54.44-2.81,1.32-3.83.88-1.01,1.99-1.52,3.32-1.51,1.43,0,2.52.43,3.28,1.29.76.86,1.14,2.02,1.14,3.47v1.4h-6.6l-.02.05c.04.84.29,1.52.74,2.06.45.53,1.08.8,1.88.8.64,0,1.19-.08,1.64-.23s.9-.38,1.32-.67l.76,1.56c-.4.35-.93.65-1.58.89s-1.42.36-2.29.36Zm-.27-9.07c-.59,0-1.07.23-1.45.7s-.61,1.06-.7,1.77l.02.05h4.19v-.24c0-.67-.17-1.22-.51-1.64-.34-.42-.86-.63-1.55-.63Z"/>
        <path class="cls-4" d="m80.95,389.05c0-.36-.16-.67-.47-.91-.31-.24-.9-.45-1.75-.63-1.26-.27-2.22-.65-2.87-1.14s-.97-1.16-.97-2.01.37-1.64,1.12-2.27c.75-.63,1.74-.94,2.96-.94,1.29,0,2.31.32,3.07.95.76.63,1.12,1.42,1.09,2.36l-.02.06h-2.28c0-.44-.17-.81-.5-1.12-.33-.31-.79-.47-1.37-.47s-1.01.13-1.31.39c-.3.26-.45.57-.45.94s.14.67.42.88c.28.22.86.41,1.73.58,1.33.27,2.31.66,2.96,1.16.64.5.96,1.18.96,2.04,0,.95-.39,1.72-1.18,2.32-.79.59-1.82.89-3.1.89-1.38,0-2.46-.35-3.25-1.06-.8-.7-1.17-1.51-1.13-2.42l.02-.06h2.21c.03.61.25,1.06.66,1.34s.93.42,1.52.42,1.08-.12,1.42-.35c.33-.23.5-.55.5-.95Z"/>
        <path class="cls-4" d="m91.8,391.93c-.08-.27-.16-.53-.21-.78s-.09-.51-.11-.76c-.33.5-.75.91-1.29,1.25-.53.33-1.13.5-1.78.5-1.1,0-1.95-.28-2.54-.85-.59-.57-.88-1.34-.88-2.34s.4-1.82,1.21-2.39,1.95-.86,3.41-.86h1.85v-.93c0-.55-.16-.99-.49-1.3-.33-.31-.79-.47-1.4-.47-.54,0-.97.13-1.29.39s-.48.6-.48,1.01h-2.29v-.06c-.06-.83.32-1.57,1.11-2.22.79-.65,1.82-.97,3.09-.97s2.23.31,2.98.94c.76.62,1.13,1.52,1.13,2.7v4.7c0,.44.03.85.09,1.26.06.4.15.79.28,1.18h-2.4Zm-2.91-1.7c.6,0,1.14-.15,1.62-.45s.8-.64.95-1.03v-1.56h-1.89c-.69,0-1.23.17-1.62.51s-.59.74-.59,1.21c0,.4.13.73.4.96.26.24.64.36,1.13.36Z"/>
        <path class="cls-4" d="m101.69,383.49l-1.02-.04c-.46,0-.85.1-1.16.29s-.55.47-.72.83v7.35h-2.38v-10.58h2.17l.16,1.53c.27-.54.61-.96,1.03-1.27.42-.31.9-.46,1.45-.46.14,0,.28.01.4.03.12.02.24.05.34.08l-.28,2.22Z"/>
        <path class="cls-4" d="m108.79,383.49l-1.02-.04c-.46,0-.85.1-1.16.29s-.55.47-.72.83v7.35h-2.38v-10.58h2.17l.16,1.53c.27-.54.61-.96,1.03-1.27.42-.31.9-.46,1.45-.46.14,0,.28.01.4.03.12.02.24.05.34.08l-.28,2.22Z"/>
        <path class="cls-4" d="m109.97,386.54c0-1.57.43-2.86,1.29-3.87.87-1.01,2.06-1.51,3.55-1.51s2.71.5,3.57,1.51c.87,1,1.3,2.29,1.3,3.87v.21c0,1.59-.43,2.89-1.3,3.89-.86,1-2.04,1.5-3.55,1.5s-2.7-.5-3.57-1.5c-.86-1-1.29-2.3-1.29-3.88v-.21Zm2.38.2c0,1.03.2,1.87.61,2.52.4.64,1.02.97,1.88.97s1.45-.32,1.86-.97c.42-.65.63-1.49.63-2.52v-.21c0-1.01-.21-1.84-.63-2.49-.41-.66-1.04-.99-1.88-.99s-1.45.33-1.86.99c-.4.66-.61,1.49-.61,2.49v.21Z"/>
        <path class="cls-4" d="m124.28,391.93h-2.38v-15.25h2.38v15.25Z"/>
        <path class="cls-4" d="m129.4,391.93h-2.38v-15.25h2.38v15.25Z"/>
        <path class="cls-4" d="m131.61,386.54c0-1.57.43-2.86,1.29-3.87.87-1.01,2.06-1.51,3.55-1.51s2.71.5,3.57,1.51c.87,1,1.3,2.29,1.3,3.87v.21c0,1.59-.43,2.89-1.3,3.89-.86,1-2.04,1.5-3.55,1.5s-2.7-.5-3.57-1.5c-.86-1-1.29-2.3-1.29-3.88v-.21Zm2.38.2c0,1.03.2,1.87.61,2.52.4.64,1.02.97,1.88.97s1.45-.32,1.86-.97c.42-.65.63-1.49.63-2.52v-.21c0-1.01-.21-1.84-.63-2.49-.41-.66-1.04-.99-1.88-.99s-1.45.33-1.86.99c-.4.66-.61,1.49-.61,2.49v.21Z"/>
        <path class="cls-4" d="m151.53,378.78v2.57h1.9v1.76h-1.9v5.84c0,.44.09.75.28.93.19.19.44.28.75.28.13,0,.26-.01.38-.03.12-.02.24-.05.35-.09l.25,1.74c-.2.11-.44.2-.72.26-.28.06-.57.09-.87.09-.87,0-1.56-.26-2.05-.77-.5-.51-.74-1.31-.74-2.41v-5.84h-1.61v-1.76h1.61v-2.57h2.37Z"/>
        <path class="cls-4" d="m159.67,392.13c-1.5,0-2.69-.49-3.58-1.47-.89-.98-1.33-2.24-1.33-3.78v-.39c0-1.54.44-2.81,1.32-3.83.88-1.01,1.99-1.52,3.32-1.51,1.43,0,2.52.43,3.28,1.29.76.86,1.14,2.02,1.14,3.47v1.4h-6.6l-.02.05c.04.84.29,1.52.74,2.06.45.53,1.08.8,1.88.8.64,0,1.19-.08,1.64-.23s.9-.38,1.32-.67l.76,1.56c-.4.35-.93.65-1.58.89s-1.42.36-2.29.36Zm-.27-9.07c-.59,0-1.07.23-1.45.7s-.61,1.06-.7,1.77l.02.05h4.19v-.24c0-.67-.17-1.22-.51-1.64-.34-.42-.86-.63-1.55-.63Z"/>
        <path class="cls-4" d="m171.2,383.49l-1.02-.04c-.46,0-.85.1-1.16.29s-.55.47-.72.83v7.35h-2.38v-10.58h2.17l.16,1.53c.27-.54.61-.96,1.03-1.27.42-.31.9-.46,1.45-.46.14,0,.28.01.4.03.12.02.24.05.34.08l-.28,2.22Z"/>
        <path class="cls-4" d="m178.3,383.49l-1.02-.04c-.46,0-.85.1-1.16.29s-.55.47-.72.83v7.35h-2.38v-10.58h2.17l.16,1.53c.27-.54.61-.96,1.03-1.27.42-.31.9-.46,1.45-.46.14,0,.28.01.4.03.12.02.24.05.34.08l-.28,2.22Z"/>
        <path class="cls-4" d="m182.59,378.76h-2.38v-2.08h2.38v2.08Zm0,13.17h-2.38v-10.58h2.38v10.58Z"/>
        <path class="cls-4" d="m188.24,378.78v2.57h1.9v1.76h-1.9v5.84c0,.44.09.75.28.93.19.19.44.28.75.28.13,0,.26-.01.38-.03.12-.02.24-.05.35-.09l.25,1.74c-.2.11-.44.2-.72.26-.28.06-.57.09-.87.09-.87,0-1.56-.26-2.05-.77-.5-.51-.74-1.31-.74-2.41v-5.84h-1.61v-1.76h1.61v-2.57h2.37Z"/>
        <path class="cls-4" d="m191.43,386.54c0-1.57.43-2.86,1.29-3.87.87-1.01,2.06-1.51,3.55-1.51s2.71.5,3.57,1.51c.87,1,1.3,2.29,1.3,3.87v.21c0,1.59-.43,2.89-1.3,3.89-.86,1-2.04,1.5-3.55,1.5s-2.7-.5-3.57-1.5c-.86-1-1.29-2.3-1.29-3.88v-.21Zm2.38.2c0,1.03.2,1.87.61,2.52.4.64,1.02.97,1.88.97s1.45-.32,1.86-.97c.42-.65.63-1.49.63-2.52v-.21c0-1.01-.21-1.84-.63-2.49-.41-.66-1.04-.99-1.88-.99s-1.45.33-1.86.99c-.4.66-.61,1.49-.61,2.49v.21Z"/>
        <path class="cls-4" d="m208.56,383.49l-1.02-.04c-.46,0-.85.1-1.16.29s-.55.47-.72.83v7.35h-2.38v-10.58h2.17l.16,1.53c.27-.54.61-.96,1.03-1.27.42-.31.9-.46,1.45-.46.14,0,.28.01.4.03.12.02.24.05.34.08l-.28,2.22Z"/>
        <path class="cls-4" d="m212.84,378.76h-2.38v-2.08h2.38v2.08Zm0,13.17h-2.38v-10.58h2.38v10.58Z"/>
        <path class="cls-4" d="m221.83,391.93c-.08-.27-.16-.53-.21-.78s-.09-.51-.11-.76c-.33.5-.75.91-1.29,1.25-.53.33-1.13.5-1.78.5-1.1,0-1.95-.28-2.54-.85-.59-.57-.88-1.34-.88-2.34s.4-1.82,1.21-2.39,1.95-.86,3.41-.86h1.85v-.93c0-.55-.16-.99-.49-1.3-.33-.31-.79-.47-1.4-.47-.54,0-.97.13-1.29.39s-.48.6-.48,1.01h-2.29v-.06c-.06-.83.32-1.57,1.11-2.22.79-.65,1.82-.97,3.09-.97s2.23.31,2.98.94c.76.62,1.13,1.52,1.13,2.7v4.7c0,.44.03.85.09,1.26.06.4.15.79.28,1.18h-2.4Zm-2.91-1.7c.6,0,1.14-.15,1.62-.45s.8-.64.95-1.03v-1.56h-1.89c-.69,0-1.23.17-1.62.51s-.59.74-.59,1.21c0,.4.13.73.4.96.26.24.64.36,1.13.36Z"/>
        <path class="cls-4" d="m228.89,391.93h-2.38v-15.25h2.38v15.25Z"/>
      </g>
      <path class="cls-1" d="m10.04,426.59h237.53c5.22,0,9.46,4.24,9.46,9.46v51.29c0,5.22-4.24,9.46-9.46,9.46H10.04c-5.22,0-9.46-4.24-9.46-9.46v-51.29c0-5.22,4.24-9.46,9.46-9.46Z"/>
      <g>
        <path class="cls-4" d="m24.11,451.22h-5.57l-1.13,3.32h-2.4l5.23-14.23h2.25l5.17,14.23h-2.41l-1.12-3.32Zm-4.89-1.98h4.21l-2.06-6.08h-.06l-2.09,6.08Z"/>
        <path class="cls-4" d="m28.49,449.4c0-1.69.36-3.05,1.08-4.08.72-1.03,1.74-1.55,3.05-1.55.57,0,1.09.12,1.54.35.45.23.85.56,1.18.99v-5.82h2.38v15.25h-1.99l-.23-1.31c-.34.5-.75.87-1.22,1.13-.48.26-1.03.39-1.66.39-1.3,0-2.31-.47-3.03-1.42-.72-.95-1.08-2.19-1.08-3.72v-.21Zm2.38.21c0,.98.19,1.76.56,2.34s.97.87,1.78.87c.5,0,.93-.11,1.28-.32s.63-.52.86-.92v-4.61c-.22-.39-.51-.7-.86-.91s-.77-.33-1.25-.33c-.81,0-1.4.34-1.79,1.02-.38.68-.58,1.57-.58,2.66v.21Z"/>
        <path class="cls-4" d="m42.51,443.96l.13,1.38c.35-.5.78-.89,1.3-1.16s1.12-.41,1.81-.41,1.28.16,1.78.47.87.78,1.11,1.41c.33-.59.76-1.05,1.29-1.38.53-.33,1.16-.5,1.88-.5,1.06,0,1.9.36,2.52,1.09s.92,1.83.92,3.31v6.37h-2.38v-6.38c0-.9-.15-1.53-.46-1.9s-.77-.55-1.39-.55c-.51,0-.94.14-1.29.41-.35.27-.61.64-.76,1.1,0,.1,0,.18,0,.25,0,.07,0,.14,0,.21v6.85h-2.38v-6.38c0-.87-.16-1.49-.47-1.87-.32-.38-.78-.57-1.39-.57-.48,0-.89.09-1.23.28-.34.19-.6.45-.8.79v7.76h-2.38v-10.58h2.17Z"/>
        <path class="cls-4" d="m60.28,441.37h-2.38v-2.08h2.38v2.08Zm0,13.17h-2.38v-10.58h2.38v10.58Z"/>
        <path class="cls-4" d="m65.12,443.96l.14,1.52c.35-.54.78-.96,1.3-1.27s1.12-.45,1.77-.45c1.1,0,1.96.33,2.58,1,.62.67.92,1.71.92,3.12v6.65h-2.38v-6.63c0-.79-.16-1.36-.49-1.7s-.83-.5-1.5-.5c-.46,0-.88.1-1.24.31-.37.21-.67.49-.9.85v7.67h-2.38v-10.58h2.17Z"/>
        <path class="cls-4" d="m76.85,441.37h-2.38v-2.08h2.38v2.08Zm0,13.17h-2.38v-10.58h2.38v10.58Z"/>
        <path class="cls-4" d="m85.38,451.67c0-.36-.16-.67-.47-.91-.31-.24-.9-.45-1.75-.63-1.26-.27-2.22-.65-2.87-1.14s-.97-1.16-.97-2.01.37-1.64,1.12-2.27c.75-.63,1.74-.94,2.96-.94,1.29,0,2.31.32,3.07.95.76.63,1.12,1.42,1.09,2.36l-.02.06h-2.28c0-.44-.17-.81-.5-1.12-.33-.31-.79-.47-1.37-.47s-1.01.13-1.31.39c-.3.26-.45.57-.45.94s.14.67.42.88c.28.22.86.41,1.73.58,1.33.27,2.31.66,2.96,1.16.64.5.96,1.18.96,2.04,0,.95-.39,1.72-1.18,2.32-.79.59-1.82.89-3.1.89-1.38,0-2.46-.35-3.25-1.06-.8-.7-1.17-1.51-1.13-2.42l.02-.06h2.21c.03.61.25,1.06.66,1.34s.93.42,1.52.42,1.08-.12,1.42-.35c.33-.23.5-.55.5-.95Z"/>
        <path class="cls-4" d="m92.94,441.39v2.57h1.9v1.76h-1.9v5.84c0,.44.09.75.28.93.19.19.44.28.75.28.13,0,.26-.01.38-.03.12-.02.24-.05.35-.09l.25,1.74c-.2.11-.44.2-.72.26-.28.06-.57.09-.87.09-.87,0-1.56-.26-2.05-.77-.5-.51-.74-1.31-.74-2.41v-5.84h-1.61v-1.76h1.61v-2.57h2.37Z"/>
        <path class="cls-4" d="m102.09,446.1l-1.02-.04c-.46,0-.85.1-1.16.29s-.55.47-.72.83v7.35h-2.38v-10.58h2.17l.16,1.53c.27-.54.61-.96,1.03-1.27.42-.31.9-.46,1.45-.46.14,0,.28.01.4.03.12.02.24.05.34.08l-.28,2.22Z"/>
        <path class="cls-4" d="m110.09,454.54c-.08-.27-.16-.53-.21-.78s-.09-.51-.11-.76c-.33.5-.75.91-1.29,1.25-.53.33-1.13.5-1.78.5-1.1,0-1.95-.28-2.54-.85-.59-.57-.88-1.34-.88-2.34s.4-1.82,1.21-2.39,1.95-.86,3.41-.86h1.85v-.93c0-.55-.16-.99-.49-1.3-.33-.31-.79-.47-1.4-.47-.54,0-.97.13-1.29.39s-.48.6-.48,1.01h-2.29v-.06c-.06-.83.32-1.57,1.11-2.22.79-.65,1.82-.97,3.09-.97s2.23.31,2.98.94c.76.62,1.13,1.52,1.13,2.7v4.7c0,.44.03.85.09,1.26.06.4.15.79.28,1.18h-2.4Zm-2.91-1.7c.6,0,1.14-.15,1.62-.45s.8-.64.95-1.03v-1.56h-1.89c-.69,0-1.23.17-1.62.51s-.59.74-.59,1.21c0,.4.13.73.4.96.26.24.64.36,1.13.36Z"/>
        <path class="cls-4" d="m118.97,452.84c.58,0,1.07-.17,1.47-.51.4-.34.6-.77.6-1.28h2.15l.02.06c.03.99-.37,1.84-1.21,2.56-.84.72-1.85,1.08-3.03,1.08-1.56,0-2.75-.5-3.58-1.5-.83-1-1.25-2.27-1.25-3.81v-.34c0-1.53.42-2.8,1.25-3.81.83-1.01,2.02-1.51,3.58-1.51,1.27,0,2.3.37,3.09,1.11.79.74,1.17,1.68,1.15,2.82l-.02.06h-2.16c0-.58-.19-1.07-.57-1.48-.38-.4-.88-.61-1.49-.61-.89,0-1.52.32-1.9.97s-.56,1.46-.56,2.44v.34c0,1,.19,1.81.56,2.46.37.64,1,.96,1.9.96Z"/>
        <path class="cls-4" d="m127.74,441.37h-2.38v-2.08h2.38v2.08Zm0,13.17h-2.38v-10.58h2.38v10.58Z"/>
        <path class="cls-4" d="m129.95,449.15c0-1.57.43-2.86,1.29-3.87.87-1.01,2.06-1.51,3.55-1.51s2.71.5,3.57,1.51c.87,1,1.3,2.29,1.3,3.87v.21c0,1.59-.43,2.89-1.3,3.89-.86,1-2.04,1.5-3.55,1.5s-2.7-.5-3.57-1.5c-.86-1-1.29-2.3-1.29-3.88v-.21Zm2.38.2c0,1.03.2,1.87.61,2.52.4.64,1.02.97,1.88.97s1.45-.32,1.86-.97c.42-.65.63-1.49.63-2.52v-.21c0-1.01-.21-1.84-.63-2.49-.41-.66-1.04-.99-1.88-.99s-1.45.33-1.86.99c-.4.66-.61,1.49-.61,2.49v.21Zm3.19-9.51h2.63l.02.06-2.67,2.54h-1.85l1.87-2.6Z"/>
        <path class="cls-4" d="m143.98,443.96l.14,1.52c.35-.54.78-.96,1.3-1.27s1.12-.45,1.77-.45c1.1,0,1.96.33,2.58,1,.62.67.92,1.71.92,3.12v6.65h-2.38v-6.63c0-.79-.16-1.36-.49-1.7s-.83-.5-1.5-.5c-.46,0-.88.1-1.24.31-.37.21-.67.49-.9.85v7.67h-2.38v-10.58h2.17Z"/>
        <path class="cls-4" d="m161.86,450.3l.23,1.06h.06l2.32-7.39h2.6l-4.38,12.18c-.28.74-.67,1.36-1.18,1.89s-1.23.78-2.16.78c-.2,0-.41-.02-.63-.06-.22-.04-.44-.08-.65-.14l.26-1.84c.08,0,.21.02.36.03s.27.02.35.02c.43,0,.77-.15,1.03-.44.26-.29.47-.63.63-1.02l.39-.96-3.84-10.45h2.59l2.01,6.33Z"/>
        <path class="cls-4" d="m184.59,452.61c-.38.54-1,1.03-1.86,1.47-.86.44-1.97.66-3.33.66-1.71,0-3.12-.54-4.23-1.63s-1.66-2.49-1.66-4.21v-2.97c0-1.72.52-3.12,1.57-4.21s2.4-1.63,4.05-1.63,2.98.41,3.9,1.24c.93.83,1.4,1.9,1.42,3.22l-.02.06h-2.25c-.05-.78-.33-1.41-.84-1.89-.5-.48-1.24-.72-2.19-.72s-1.78.37-2.38,1.1c-.6.74-.9,1.67-.9,2.8v2.99c0,1.15.33,2.09.98,2.83.66.74,1.5,1.11,2.55,1.11.74,0,1.35-.09,1.81-.26.46-.17.8-.38,1.01-.61v-2.89h-2.83v-1.78h5.2v5.31Z"/>
        <path class="cls-4" d="m191.71,454.75c-1.5,0-2.69-.49-3.58-1.47-.89-.98-1.33-2.24-1.33-3.78v-.39c0-1.54.44-2.81,1.32-3.83.88-1.01,1.99-1.52,3.32-1.51,1.43,0,2.52.43,3.28,1.29.76.86,1.14,2.02,1.14,3.47v1.4h-6.6l-.02.05c.04.84.29,1.52.74,2.06.45.53,1.08.8,1.88.8.64,0,1.19-.08,1.64-.23s.9-.38,1.32-.67l.76,1.56c-.4.35-.93.65-1.58.89s-1.42.36-2.29.36Zm-.27-9.07c-.59,0-1.07.23-1.45.7s-.61,1.06-.7,1.77l.02.05h4.19v-.24c0-.67-.17-1.22-.51-1.64-.34-.42-.86-.63-1.55-.63Z"/>
        <path class="cls-4" d="m203.74,451.67c0-.36-.16-.67-.47-.91-.31-.24-.9-.45-1.75-.63-1.26-.27-2.22-.65-2.87-1.14s-.97-1.16-.97-2.01.37-1.64,1.12-2.27c.75-.63,1.74-.94,2.96-.94,1.29,0,2.31.32,3.07.95.76.63,1.12,1.42,1.09,2.36l-.02.06h-2.28c0-.44-.17-.81-.5-1.12-.33-.31-.79-.47-1.37-.47s-1.01.13-1.31.39c-.3.26-.45.57-.45.94s.14.67.42.88c.28.22.86.41,1.73.58,1.33.27,2.31.66,2.96,1.16.64.5.96,1.18.96,2.04,0,.95-.39,1.72-1.18,2.32-.79.59-1.82.89-3.1.89-1.38,0-2.46-.35-3.25-1.06-.8-.7-1.17-1.51-1.13-2.42l.02-.06h2.21c.03.61.25,1.06.66,1.34s.93.42,1.52.42,1.08-.12,1.42-.35c.33-.23.5-.55.5-.95Z"/>
        <path class="cls-4" d="m211.3,441.39v2.57h1.9v1.76h-1.9v5.84c0,.44.09.75.28.93.19.19.44.28.75.28.13,0,.26-.01.38-.03.12-.02.24-.05.35-.09l.25,1.74c-.2.11-.44.2-.72.26-.28.06-.57.09-.87.09-.87,0-1.56-.26-2.05-.77-.5-.51-.74-1.31-.74-2.41v-5.84h-1.61v-1.76h1.61v-2.57h2.37Z"/>
        <path class="cls-4" d="m217.63,441.37h-2.38v-2.08h2.38v2.08Zm0,13.17h-2.38v-10.58h2.38v10.58Z"/>
        <path class="cls-4" d="m219.85,449.15c0-1.57.43-2.86,1.29-3.87.87-1.01,2.06-1.51,3.55-1.51s2.71.5,3.57,1.51c.87,1,1.3,2.29,1.3,3.87v.21c0,1.59-.43,2.89-1.3,3.89-.86,1-2.04,1.5-3.55,1.5s-2.7-.5-3.57-1.5c-.86-1-1.29-2.3-1.29-3.88v-.21Zm2.38.2c0,1.03.2,1.87.61,2.52.4.64,1.02.97,1.88.97s1.45-.32,1.86-.97c.42-.65.63-1.49.63-2.52v-.21c0-1.01-.21-1.84-.63-2.49-.41-.66-1.04-.99-1.88-.99s-1.45.33-1.86.99c-.4.66-.61,1.49-.61,2.49v.21Zm3.19-9.51h2.63l.02.06-2.67,2.54h-1.85l1.87-2.6Z"/>
        <path class="cls-4" d="m233.87,443.96l.14,1.52c.35-.54.78-.96,1.3-1.27s1.12-.45,1.77-.45c1.1,0,1.96.33,2.58,1,.62.67.92,1.71.92,3.12v6.65h-2.38v-6.63c0-.79-.16-1.36-.49-1.7s-.83-.5-1.5-.5c-.46,0-.88.1-1.24.31-.37.21-.67.49-.9.85v7.67h-2.38v-10.58h2.17Z"/>
        <path class="cls-4" d="m28.19,477.82c0-1.69.36-3.05,1.08-4.08.72-1.03,1.74-1.55,3.05-1.55.57,0,1.09.12,1.54.35.45.23.85.56,1.18.99v-5.82h2.38v15.25h-1.99l-.23-1.31c-.34.5-.75.87-1.22,1.13-.48.26-1.03.39-1.66.39-1.3,0-2.31-.47-3.03-1.42-.72-.95-1.08-2.19-1.08-3.72v-.21Zm2.38.21c0,.98.19,1.76.56,2.34s.97.87,1.78.87c.5,0,.93-.11,1.28-.32s.63-.52.86-.92v-4.61c-.22-.39-.51-.7-.86-.91s-.77-.33-1.25-.33c-.81,0-1.4.34-1.79,1.02-.38.68-.58,1.57-.58,2.66v.21Z"/>
        <path class="cls-4" d="m44.54,483.16c-1.5,0-2.69-.49-3.58-1.47-.89-.98-1.33-2.24-1.33-3.78v-.39c0-1.54.44-2.81,1.32-3.83.88-1.01,1.99-1.52,3.32-1.51,1.43,0,2.52.43,3.28,1.29.76.86,1.14,2.02,1.14,3.47v1.4h-6.6l-.02.05c.04.84.29,1.52.74,2.06.45.53,1.08.8,1.88.8.64,0,1.19-.08,1.64-.23s.9-.38,1.32-.67l.76,1.56c-.4.35-.93.65-1.58.89s-1.42.36-2.29.36Zm-.27-9.07c-.59,0-1.07.23-1.45.7s-.61,1.06-.7,1.77l.02.05h4.19v-.24c0-.67-.17-1.22-.51-1.64-.34-.42-.86-.63-1.55-.63Z"/>
        <path class="cls-4" d="m58.46,477.06v5.9h-2.38v-14.23h5.26c1.59,0,2.82.36,3.69,1.08.87.72,1.3,1.74,1.3,3.07,0,.74-.19,1.37-.57,1.9-.38.53-.94.96-1.67,1.28.8.25,1.38.67,1.73,1.25.35.58.53,1.29.53,2.13v1.18c0,.42.05.82.16,1.22.1.4.28.7.53.91v.22h-2.44c-.26-.21-.43-.55-.5-1.02-.07-.46-.11-.92-.11-1.36v-1.14c0-.73-.21-1.31-.63-1.74s-.99-.65-1.72-.65h-3.17Zm0-1.91h2.76c.95,0,1.65-.18,2.08-.55.44-.37.65-.92.65-1.67s-.21-1.28-.65-1.69-1.08-.61-1.96-.61h-2.88v4.52Z"/>
        <path class="cls-4" d="m73.38,483.16c-1.5,0-2.69-.49-3.58-1.47-.89-.98-1.33-2.24-1.33-3.78v-.39c0-1.54.44-2.81,1.32-3.83.88-1.01,1.99-1.52,3.32-1.51,1.43,0,2.52.43,3.28,1.29.76.86,1.14,2.02,1.14,3.47v1.4h-6.6l-.02.05c.04.84.29,1.52.74,2.06.45.53,1.08.8,1.88.8.64,0,1.19-.08,1.64-.23s.9-.38,1.32-.67l.76,1.56c-.4.35-.93.65-1.58.89s-1.42.36-2.29.36Zm-.27-9.07c-.59,0-1.07.23-1.45.7s-.61,1.06-.7,1.77l.02.05h4.19v-.24c0-.67-.17-1.22-.51-1.64-.34-.42-.86-.63-1.55-.63Z"/>
        <path class="cls-4" d="m83.99,481.26c.58,0,1.07-.17,1.47-.51.4-.34.6-.77.6-1.28h2.15l.02.06c.03.99-.37,1.84-1.21,2.56-.84.72-1.85,1.08-3.03,1.08-1.56,0-2.75-.5-3.58-1.5-.83-1-1.25-2.27-1.25-3.81v-.34c0-1.53.42-2.8,1.25-3.81.83-1.01,2.02-1.51,3.58-1.51,1.27,0,2.3.37,3.09,1.11.79.74,1.17,1.68,1.15,2.82l-.02.06h-2.16c0-.58-.19-1.07-.57-1.48-.38-.4-.88-.61-1.49-.61-.89,0-1.52.32-1.9.97s-.56,1.46-.56,2.44v.34c0,1,.19,1.81.56,2.46.37.64,1,.96,1.9.96Z"/>
        <path class="cls-4" d="m96.82,481.42c-.33.56-.75.99-1.26,1.29-.51.3-1.1.45-1.76.45-1.13,0-2.02-.36-2.66-1.08s-.96-1.85-.96-3.37v-6.32h2.37v6.34c0,.93.15,1.57.45,1.95.3.37.75.56,1.36.56.57,0,1.05-.1,1.44-.31s.69-.5.91-.89v-7.64h2.38v10.58h-2.07l-.2-1.54Z"/>
        <path class="cls-4" d="m106.94,474.52l-1.02-.04c-.46,0-.85.1-1.16.29s-.55.47-.72.83v7.35h-2.38v-10.58h2.17l.16,1.53c.27-.54.61-.96,1.03-1.27.42-.31.9-.46,1.45-.46.14,0,.28.01.4.03.12.02.24.05.34.08l-.28,2.22Z"/>
        <path class="cls-4" d="m114.6,480.09c0-.36-.16-.67-.47-.91-.31-.24-.9-.45-1.75-.63-1.26-.27-2.22-.65-2.87-1.14s-.97-1.16-.97-2.01.37-1.64,1.12-2.27c.75-.63,1.74-.94,2.96-.94,1.29,0,2.31.32,3.07.95.76.63,1.12,1.42,1.09,2.36l-.02.06h-2.28c0-.44-.17-.81-.5-1.12-.33-.31-.79-.47-1.37-.47s-1.01.13-1.31.39c-.3.26-.45.57-.45.94s.14.67.42.88c.28.22.86.41,1.73.58,1.33.27,2.31.66,2.96,1.16.64.5.96,1.18.96,2.04,0,.95-.39,1.72-1.18,2.32-.79.59-1.82.89-3.1.89-1.38,0-2.46-.35-3.25-1.06-.8-.7-1.17-1.51-1.13-2.42l.02-.06h2.21c.03.61.25,1.06.66,1.34s.93.42,1.52.42,1.08-.12,1.42-.35c.33-.23.5-.55.5-.95Z"/>
        <path class="cls-4" d="m118.58,477.57c0-1.57.43-2.86,1.29-3.87.87-1.01,2.06-1.51,3.55-1.51s2.71.5,3.57,1.51c.87,1,1.3,2.29,1.3,3.87v.21c0,1.59-.43,2.89-1.3,3.89-.86,1-2.04,1.5-3.55,1.5s-2.7-.5-3.57-1.5c-.86-1-1.29-2.3-1.29-3.88v-.21Zm2.38.2c0,1.03.2,1.87.61,2.52.4.64,1.02.97,1.88.97s1.45-.32,1.86-.97c.42-.65.63-1.49.63-2.52v-.21c0-1.01-.21-1.84-.63-2.49-.41-.66-1.04-.99-1.88-.99s-1.45.33-1.86.99c-.4.66-.61,1.49-.61,2.49v.21Z"/>
        <path class="cls-4" d="m136.25,480.09c0-.36-.16-.67-.47-.91-.31-.24-.9-.45-1.75-.63-1.26-.27-2.22-.65-2.87-1.14s-.97-1.16-.97-2.01.37-1.64,1.12-2.27c.75-.63,1.74-.94,2.96-.94,1.29,0,2.31.32,3.07.95.76.63,1.12,1.42,1.09,2.36l-.02.06h-2.28c0-.44-.17-.81-.5-1.12-.33-.31-.79-.47-1.37-.47s-1.01.13-1.31.39c-.3.26-.45.57-.45.94s.14.67.42.88c.28.22.86.41,1.73.58,1.33.27,2.31.66,2.96,1.16.64.5.96,1.18.96,2.04,0,.95-.39,1.72-1.18,2.32-.79.59-1.82.89-3.1.89-1.38,0-2.46-.35-3.25-1.06-.8-.7-1.17-1.51-1.13-2.42l.02-.06h2.21c.03.61.25,1.06.66,1.34s.93.42,1.52.42,1.08-.12,1.42-.35c.33-.23.5-.55.5-.95Z"/>
        <path class="cls-4" d="m155.17,478.02c0,1.54-.36,2.78-1.08,3.72-.72.94-1.73,1.42-3.02,1.42-.6,0-1.13-.11-1.59-.32s-.86-.53-1.19-.95v5.13h-2.38v-14.64h2l.23,1.33c.34-.5.75-.87,1.23-1.13s1.03-.39,1.67-.39c1.3,0,2.32.52,3.04,1.55.73,1.03,1.09,2.39,1.09,4.08v.21Zm-2.37-.21c0-1.08-.2-1.96-.61-2.65s-1.01-1.03-1.82-1.03c-.5,0-.92.11-1.26.32-.35.21-.62.51-.83.88v4.77c.21.37.49.66.83.85.35.2.77.3,1.28.3.81,0,1.41-.3,1.81-.89.4-.6.6-1.38.6-2.35v-.21Z"/>
        <path class="cls-4" d="m163.6,482.96c-.08-.27-.16-.53-.21-.78s-.09-.51-.11-.76c-.33.5-.75.91-1.29,1.25-.53.33-1.13.5-1.78.5-1.1,0-1.95-.28-2.54-.85-.59-.57-.88-1.34-.88-2.34s.4-1.82,1.21-2.39,1.95-.86,3.41-.86h1.85v-.93c0-.55-.16-.99-.49-1.3-.33-.31-.79-.47-1.4-.47-.54,0-.97.13-1.29.39s-.48.6-.48,1.01h-2.29v-.06c-.06-.83.32-1.57,1.11-2.22.79-.65,1.82-.97,3.09-.97s2.23.31,2.98.94c.76.62,1.13,1.52,1.13,2.7v4.7c0,.44.03.85.09,1.26.06.4.15.79.28,1.18h-2.4Zm-2.91-1.7c.6,0,1.14-.15,1.62-.45s.8-.64.95-1.03v-1.56h-1.89c-.69,0-1.23.17-1.62.51s-.59.74-.59,1.21c0,.4.13.73.4.96.26.24.64.36,1.13.36Z"/>
        <path class="cls-4" d="m173.49,474.52l-1.02-.04c-.46,0-.85.1-1.16.29s-.55.47-.72.83v7.35h-2.38v-10.58h2.17l.16,1.53c.27-.54.61-.96,1.03-1.27.42-.31.9-.46,1.45-.46.14,0,.28.01.4.03.12.02.24.05.34.08l-.28,2.22Z"/>
        <path class="cls-4" d="m181.49,482.96c-.08-.27-.16-.53-.21-.78s-.09-.51-.11-.76c-.33.5-.75.91-1.29,1.25-.53.33-1.13.5-1.78.5-1.1,0-1.95-.28-2.54-.85-.59-.57-.88-1.34-.88-2.34s.4-1.82,1.21-2.39,1.95-.86,3.41-.86h1.85v-.93c0-.55-.16-.99-.49-1.3-.33-.31-.79-.47-1.4-.47-.54,0-.97.13-1.29.39s-.48.6-.48,1.01h-2.29v-.06c-.06-.83.32-1.57,1.11-2.22.79-.65,1.82-.97,3.09-.97s2.23.31,2.98.94c.76.62,1.13,1.52,1.13,2.7v4.7c0,.44.03.85.09,1.26.06.4.15.79.28,1.18h-2.4Zm-2.91-1.7c.6,0,1.14-.15,1.62-.45s.8-.64.95-1.03v-1.56h-1.89c-.69,0-1.23.17-1.62.51s-.59.74-.59,1.21c0,.4.13.73.4.96.26.24.64.36,1.13.36Z"/>
        <path class="cls-4" d="m193.73,482.96h-2.38v-15.25h2.38v15.25Z"/>
        <path class="cls-4" d="m202.72,482.96c-.08-.27-.16-.53-.21-.78s-.09-.51-.11-.76c-.33.5-.75.91-1.29,1.25-.53.33-1.13.5-1.78.5-1.1,0-1.95-.28-2.54-.85-.59-.57-.88-1.34-.88-2.34s.4-1.82,1.21-2.39,1.95-.86,3.41-.86h1.85v-.93c0-.55-.16-.99-.49-1.3-.33-.31-.79-.47-1.4-.47-.54,0-.97.13-1.29.39s-.48.6-.48,1.01h-2.29v-.06c-.06-.83.32-1.57,1.11-2.22.79-.65,1.82-.97,3.09-.97s2.23.31,2.98.94c.76.62,1.13,1.52,1.13,2.7v4.7c0,.44.03.85.09,1.26.06.4.15.79.28,1.18h-2.4Zm-2.91-1.7c.6,0,1.14-.15,1.62-.45s.8-.64.95-1.03v-1.56h-1.89c-.69,0-1.23.17-1.62.51s-.59.74-.59,1.21c0,.4.13.73.4.96.26.24.64.36,1.13.36Z"/>
        <path class="cls-4" d="m220.45,479.64h-5.57l-1.13,3.32h-2.4l5.23-14.23h2.25l5.17,14.23h-2.41l-1.12-3.32Zm-4.89-1.98h4.21l-2.06-6.08h-.06l-2.09,6.08Z"/>
        <path class="cls-4" d="m234.06,470.63h-4.3v12.33h-2.38v-12.33h-4.3v-1.91h10.98v1.91Z"/>
      </g>
      <path class="cls-1" d="m130.9,297.5l13-13c1.5-1.49,1.49-3.92,0-5.41-1.49-1.5-3.92-1.5-5.42,0l-10.29,10.29-10.29-10.29c-1.49-1.5-3.92-1.5-5.41,0-.75.75-1.12,1.73-1.12,2.71s.37,1.96,1.12,2.71l13,13c1.49,1.5,3.92,1.5,5.42,0"/>
      <path class="cls-1" d="m130.9,313.01l13-13c1.5-1.5,1.49-3.92,0-5.42-1.49-1.5-3.92-1.5-5.42,0l-10.29,10.29-10.29-10.29c-1.49-1.5-3.92-1.5-5.41,0-.75.75-1.12,1.73-1.12,2.71s.37,1.96,1.12,2.71l13,13c1.5,1.5,3.92,1.5,5.42,0"/>
      <path class="cls-3" d="m130.96,57.24c-.05,0-.1,0-.15,0-.86-.07-1.74-.11-2.62-.11-.96,0-1.73-.77-1.73-1.73s.77-1.73,1.73-1.73,1.96.04,2.91.12c.95.08,1.66.92,1.57,1.87-.08.9-.83,1.58-1.72,1.58"/>
      <g>
        <rect class="cls-1" width="256.38" height="256.38" rx="10.54" ry="10.54"/>
        <g>
          <path class="cls-2" d="m82.86,174.24h-6.59l-1.34,3.93h-2.84l6.19-16.84h2.66l6.12,16.84h-2.86l-1.33-3.93Zm-5.78-2.35h4.98l-2.44-7.19h-.07l-2.47,7.19Z"/>
          <path class="cls-2" d="m95.84,174.77c0-.43-.19-.79-.56-1.08-.37-.28-1.06-.54-2.07-.75-1.5-.32-2.63-.77-3.39-1.35-.77-.58-1.15-1.37-1.15-2.38s.44-1.94,1.33-2.68c.89-.74,2.05-1.11,3.5-1.11,1.53,0,2.74.38,3.64,1.13.9.75,1.33,1.68,1.29,2.79l-.02.07h-2.69c0-.52-.2-.96-.59-1.33-.39-.37-.93-.56-1.62-.56s-1.19.15-1.55.46-.53.68-.53,1.12.17.79.5,1.05c.34.26,1.02.49,2.04.69,1.57.32,2.74.78,3.5,1.37.76.59,1.14,1.39,1.14,2.41,0,1.12-.46,2.04-1.39,2.74-.93.7-2.15,1.05-3.67,1.05-1.63,0-2.91-.42-3.85-1.25-.94-.83-1.39-1.79-1.34-2.87l.02-.07h2.61c.03.72.29,1.25.79,1.58.49.33,1.09.5,1.8.5s1.28-.14,1.68-.42c.39-.28.59-.65.59-1.12Z"/>
          <path class="cls-2" d="m104.17,162.59h-2.81v-2.46h2.81v2.46Zm0,15.58h-2.81v-12.51h2.81v12.51Z"/>
          <path class="cls-2" d="m114.34,174.77c0-.43-.19-.79-.56-1.08-.37-.28-1.06-.54-2.07-.75-1.5-.32-2.63-.77-3.39-1.35-.77-.58-1.15-1.37-1.15-2.38s.44-1.94,1.33-2.68c.89-.74,2.05-1.11,3.5-1.11,1.53,0,2.74.38,3.64,1.13.9.75,1.33,1.68,1.29,2.79l-.02.07h-2.69c0-.52-.2-.96-.59-1.33-.39-.37-.93-.56-1.62-.56s-1.19.15-1.55.46-.53.68-.53,1.12.17.79.5,1.05c.34.26,1.02.49,2.04.69,1.57.32,2.74.78,3.5,1.37.76.59,1.14,1.39,1.14,2.41,0,1.12-.46,2.04-1.39,2.74-.93.7-2.15,1.05-3.67,1.05-1.63,0-2.91-.42-3.85-1.25-.94-.83-1.39-1.79-1.34-2.87l.02-.07h2.61c.03.72.29,1.25.79,1.58.49.33,1.09.5,1.8.5s1.28-.14,1.68-.42c.39-.28.59-.65.59-1.12Z"/>
          <path class="cls-2" d="m123.38,162.62v3.04h2.24v2.08h-2.24v6.92c0,.52.11.88.34,1.1s.52.33.89.33c.15,0,.3-.01.45-.04.15-.03.29-.06.42-.11l.3,2.06c-.24.13-.52.23-.86.31s-.67.11-1.03.11c-1.03,0-1.84-.3-2.43-.91-.59-.6-.88-1.56-.88-2.85v-6.92h-1.91v-2.08h1.91v-3.04h2.8Z"/>
          <path class="cls-2" d="m133.11,178.41c-1.77,0-3.19-.58-4.24-1.74s-1.58-2.65-1.58-4.47v-.46c0-1.82.52-3.33,1.57-4.53,1.04-1.2,2.35-1.79,3.93-1.79,1.69,0,2.98.51,3.88,1.53s1.35,2.39,1.35,4.11v1.65h-7.81l-.02.06c.05.99.34,1.8.87,2.43s1.28.95,2.23.95c.76,0,1.4-.09,1.94-.28.54-.18,1.06-.45,1.56-.8l.9,1.84c-.47.42-1.09.77-1.87,1.06-.78.29-1.68.43-2.71.43Zm-.32-10.73c-.69,0-1.26.28-1.71.83-.45.55-.72,1.25-.83,2.1l.02.06h4.96v-.29c0-.79-.2-1.44-.61-1.94-.4-.5-1.02-.75-1.83-.75Z"/>
          <path class="cls-2" d="m143.15,165.66l.16,1.8c.41-.64.92-1.14,1.54-1.5.62-.36,1.32-.54,2.1-.54,1.3,0,2.32.4,3.05,1.19s1.09,2.02,1.09,3.69v7.86h-2.81v-7.84c0-.94-.19-1.61-.58-2.01-.39-.4-.98-.6-1.77-.6-.55,0-1.04.12-1.47.36-.43.24-.79.58-1.06,1v9.08h-2.81v-12.51h2.57Z"/>
          <path class="cls-2" d="m159.38,176.16c.69,0,1.26-.2,1.73-.6.47-.4.71-.91.71-1.51h2.54l.02.07c.04,1.17-.44,2.18-1.43,3.03-.99.85-2.18,1.27-3.58,1.27-1.84,0-3.25-.59-4.24-1.78-.98-1.19-1.47-2.69-1.47-4.51v-.4c0-1.81.49-3.31,1.47-4.5.98-1.19,2.4-1.79,4.24-1.79,1.5,0,2.72.44,3.66,1.31s1.39,1.99,1.36,3.34l-.02.07h-2.56c0-.69-.23-1.27-.68-1.75-.45-.48-1.04-.72-1.76-.72-1.06,0-1.8.38-2.24,1.15-.44.77-.66,1.73-.66,2.88v.4c0,1.18.22,2.15.66,2.9.44.76,1.19,1.14,2.24,1.14Z"/>
          <path class="cls-2" d="m169.83,162.59h-2.81v-2.46h2.81v2.46Zm0,15.58h-2.81v-12.51h2.81v12.51Z"/>
          <path class="cls-2" d="m180.55,178.17c-.1-.32-.18-.62-.25-.92s-.11-.6-.13-.9c-.39.59-.89,1.08-1.52,1.47-.63.4-1.33.6-2.11.6-1.3,0-2.3-.34-3-1.01-.7-.67-1.05-1.59-1.05-2.76s.48-2.15,1.43-2.83c.96-.67,2.3-1.01,4.04-1.01h2.19v-1.1c0-.66-.19-1.17-.58-1.54-.39-.37-.94-.55-1.65-.55-.64,0-1.15.15-1.53.46-.38.31-.57.71-.57,1.19h-2.71v-.07c-.07-.99.38-1.86,1.31-2.62.94-.76,2.16-1.14,3.66-1.14s2.63.37,3.53,1.11c.89.74,1.34,1.8,1.34,3.19v5.56c0,.52.03,1.01.1,1.49.07.47.18.94.33,1.39h-2.84Zm-3.45-2.01c.71,0,1.35-.18,1.91-.53.57-.35.94-.76,1.13-1.21v-1.85h-2.23c-.82,0-1.46.2-1.92.61-.46.4-.69.88-.69,1.43,0,.48.16.86.47,1.14.31.28.76.42,1.34.42Z"/>
        </g>
        <g>
          <path class="cls-2" d="m93.77,191.03v3.04h2.24v2.08h-2.24v6.92c0,.52.11.88.34,1.1s.52.33.89.33c.15,0,.3-.01.45-.04.15-.03.29-.06.42-.11l.3,2.06c-.24.13-.52.23-.86.31s-.67.11-1.03.11c-1.03,0-1.84-.3-2.43-.91-.59-.6-.88-1.56-.88-2.85v-6.92h-1.91v-2.08h1.91v-3.04h2.8Z"/>
          <path class="cls-2" d="m103.5,206.83c-1.77,0-3.19-.58-4.24-1.74s-1.58-2.65-1.58-4.47v-.46c0-1.82.52-3.33,1.57-4.53,1.04-1.2,2.35-1.79,3.93-1.79,1.69,0,2.98.51,3.88,1.53s1.35,2.39,1.35,4.11v1.65h-7.81l-.02.06c.05.99.34,1.8.87,2.43s1.28.95,2.23.95c.76,0,1.4-.09,1.94-.28.54-.18,1.06-.45,1.56-.8l.9,1.84c-.47.42-1.09.77-1.87,1.06-.78.29-1.68.43-2.71.43Zm-.32-10.73c-.69,0-1.26.28-1.71.83-.45.55-.72,1.25-.83,2.1l.02.06h4.96v-.29c0-.79-.2-1.44-.61-1.94-.4-.5-1.02-.75-1.83-.75Zm.71-6.9h3.11l.02.07-3.16,3.01h-2.19l2.21-3.08Z"/>
          <path class="cls-2" d="m116.14,204.58c.69,0,1.26-.2,1.73-.6.47-.4.71-.91.71-1.51h2.54l.02.07c.04,1.17-.44,2.18-1.43,3.03-.99.85-2.18,1.27-3.58,1.27-1.84,0-3.25-.59-4.24-1.78-.98-1.19-1.47-2.69-1.47-4.51v-.4c0-1.81.49-3.31,1.47-4.5.98-1.19,2.4-1.79,4.24-1.79,1.5,0,2.72.44,3.66,1.31s1.39,1.99,1.36,3.34l-.02.07h-2.56c0-.69-.23-1.27-.68-1.75-.45-.48-1.04-.72-1.76-.72-1.06,0-1.8.38-2.24,1.15-.44.77-.66,1.73-.66,2.88v.4c0,1.18.22,2.15.66,2.9.44.76,1.19,1.14,2.24,1.14Z"/>
          <path class="cls-2" d="m126.23,194.08l.16,1.8c.41-.64.92-1.14,1.54-1.5.62-.36,1.32-.54,2.1-.54,1.3,0,2.32.4,3.05,1.19s1.09,2.02,1.09,3.69v7.86h-2.81v-7.84c0-.94-.19-1.61-.58-2.01-.39-.4-.98-.6-1.77-.6-.55,0-1.04.12-1.47.36-.43.24-.79.58-1.06,1v9.08h-2.81v-12.51h2.57Z"/>
          <path class="cls-2" d="m140.19,191.01h-2.81v-2.46h2.81v2.46Zm0,15.58h-2.81v-12.51h2.81v12.51Z"/>
          <path class="cls-2" d="m148.63,204.58c.69,0,1.26-.2,1.73-.6.47-.4.71-.91.71-1.51h2.54l.02.07c.04,1.17-.44,2.18-1.43,3.03-.99.85-2.18,1.27-3.58,1.27-1.84,0-3.25-.59-4.24-1.78-.98-1.19-1.47-2.69-1.47-4.51v-.4c0-1.81.49-3.31,1.47-4.5.98-1.19,2.4-1.79,4.24-1.79,1.5,0,2.72.44,3.66,1.31s1.39,1.99,1.36,3.34l-.02.07h-2.56c0-.69-.23-1.27-.68-1.75-.45-.48-1.04-.72-1.76-.72-1.06,0-1.8.38-2.24,1.15-.44.77-.66,1.73-.66,2.88v.4c0,1.18.22,2.15.66,2.9.44.76,1.19,1.14,2.24,1.14Z"/>
          <path class="cls-2" d="m163.65,206.59c-.1-.32-.18-.62-.25-.92s-.11-.6-.13-.9c-.39.59-.89,1.08-1.52,1.47-.63.4-1.33.6-2.11.6-1.3,0-2.3-.34-3-1.01-.7-.67-1.05-1.59-1.05-2.76s.48-2.15,1.43-2.83c.96-.67,2.3-1.01,4.04-1.01h2.19v-1.1c0-.66-.19-1.17-.58-1.54-.39-.37-.94-.55-1.65-.55-.64,0-1.15.15-1.53.46-.38.31-.57.71-.57,1.19h-2.71v-.07c-.07-.99.38-1.86,1.31-2.62.94-.76,2.16-1.14,3.66-1.14s2.63.37,3.53,1.11c.89.74,1.34,1.8,1.34,3.19v5.56c0,.52.03,1.01.1,1.49.07.47.18.94.33,1.39h-2.84Zm-3.45-2.01c.71,0,1.35-.18,1.91-.53.57-.35.94-.76,1.13-1.21v-1.85h-2.23c-.82,0-1.46.2-1.92.61-.46.4-.69.88-.69,1.43,0,.48.16.86.47,1.14.31.28.76.42,1.34.42Z"/>
        </g>
        <path class="cls-3" d="m105.8,120.16c.32,0,.65.09.94.27,4.02,2.59,8.39,4.41,13.01,5.41.8.17,1.36.88,1.36,1.69v5.94c0,1.29,1.05,2.33,2.33,2.33h9.5c1.28,0,2.33-1.05,2.33-2.33v-5.94c0-.81.57-1.52,1.36-1.69,4.61-1,8.99-2.82,13.01-5.41.69-.44,1.58-.35,2.16.23l4.21,4.21c.91.91,2.39.91,3.3,0l6.72-6.72c.91-.91.91-2.39,0-3.3l-4.21-4.21c-.58-.58-.67-1.48-.23-2.16,2.59-4.02,4.4-8.39,5.4-13.01.17-.8.88-1.36,1.69-1.36h5.94c1.28,0,2.33-1.05,2.33-2.33v-9.5c0-1.29-1.05-2.33-2.33-2.33h-5.94c-.82,0-1.52-.57-1.69-1.36-1-4.61-2.82-8.99-5.4-13.01-.44-.68-.35-1.58.23-2.16l4.21-4.21c.91-.91.91-2.39,0-3.3l-6.72-6.72c-.91-.91-2.39-.91-3.3,0l-4.21,4.21c-.58.58-1.47.67-2.16.23-4.02-2.59-8.39-4.4-13.01-5.4-.8-.17-1.36-.88-1.36-1.69v-5.94c0-1.29-1.05-2.33-2.33-2.33h-9.5c-1.29,0-2.33,1.05-2.33,2.33v5.94c0,.82-.57,1.52-1.36,1.69-4.61,1-8.99,2.82-13.01,5.41-.69.44-1.58.34-2.16-.23l-4.21-4.21c-.88-.88-2.42-.88-3.3,0l-6.72,6.72c-.91.91-.91,2.39,0,3.3l4.21,4.21c.58.58.67,1.48.23,2.16-2.59,4.02-4.41,8.4-5.41,13.01-.17.8-.88,1.36-1.69,1.36h-5.94c-1.29,0-2.33,1.05-2.33,2.33v9.5c0,1.29,1.05,2.33,2.33,2.33h5.94c.82,0,1.52.57,1.69,1.36,1,4.61,2.82,8.99,5.4,13.01.44.68.35,1.58-.23,2.16l-4.21,4.21c-.91.91-.91,2.39,0,3.3l6.72,6.72c.88.88,2.42.88,3.3,0l4.21-4.21c.33-.34.78-.51,1.22-.51m27.14,19.1h-9.5c-3.19,0-5.79-2.6-5.79-5.79v-4.57c-4.07-1.02-7.96-2.64-11.59-4.82l-3.24,3.24c-1.09,1.09-2.55,1.7-4.09,1.7s-3-.6-4.09-1.7l-6.72-6.72c-1.09-1.09-1.7-2.55-1.7-4.09s.6-3,1.7-4.1l3.24-3.24c-2.18-3.63-3.8-7.52-4.82-11.6h-4.57c-3.19,0-5.79-2.6-5.79-5.79v-9.5c0-3.19,2.6-5.79,5.79-5.79h4.57c1.02-4.07,2.64-7.96,4.82-11.6l-3.24-3.24c-1.09-1.09-1.7-2.55-1.7-4.09s.6-3,1.7-4.09l6.72-6.72c1.09-1.09,2.55-1.7,4.09-1.7s3,.6,4.09,1.7l3.24,3.24c3.64-2.18,7.53-3.8,11.59-4.82v-4.57c0-3.19,2.6-5.79,5.79-5.79h9.5c3.19,0,5.79,2.6,5.79,5.79v4.57c4.07,1.02,7.96,2.64,11.6,4.82l3.24-3.24c1.09-1.09,2.55-1.7,4.09-1.7s3,.6,4.09,1.7l6.72,6.72c2.26,2.26,2.26,5.93,0,8.19l-3.24,3.24c2.18,3.63,3.8,7.52,4.82,11.6h4.57c3.19,0,5.79,2.6,5.79,5.79v9.5c0,3.19-2.6,5.79-5.79,5.79h-4.57c-1.02,4.07-2.64,7.96-4.82,11.6l3.24,3.24c2.26,2.26,2.26,5.93,0,8.19l-6.72,6.72c-1.09,1.09-2.55,1.7-4.09,1.7s-3-.6-4.1-1.7l-3.24-3.24c-3.63,2.18-7.52,3.8-11.6,4.82v4.57c0,3.19-2.6,5.79-5.79,5.79"/>
        <path class="cls-3" d="m141.96,117.27c-.64,0-1.26-.36-1.56-.98-.42-.86-.06-1.89.8-2.31.78-.38,1.56-.8,2.3-1.24.82-.49,1.88-.22,2.37.6.49.82.22,1.88-.6,2.37-.83.5-1.7.96-2.57,1.39-.24.12-.5.17-.75.17"/>
        <path class="cls-3" d="m146.78,63.16c-.35,0-.71-.11-1.02-.33-1.45-1.05-3-1.98-4.61-2.75-.86-.42-1.22-1.45-.81-2.31.41-.86,1.45-1.22,2.31-.81,1.79.86,3.52,1.9,5.14,3.07.77.56.94,1.64.38,2.42-.34.46-.87.71-1.4.71m10.52,13.17c-.67,0-1.31-.39-1.59-1.05-.7-1.64-1.56-3.23-2.55-4.72-.53-.8-.31-1.87.49-2.4.8-.53,1.87-.31,2.4.49,1.1,1.67,2.06,3.44,2.84,5.27.38.88-.03,1.9-.91,2.27-.22.1-.45.14-.68.14m2.26,16.7c-.08,0-.15,0-.23-.01-.95-.13-1.61-1-1.48-1.95.18-1.32.27-2.68.27-4.03,0-.45,0-.89-.03-1.33-.04-.95.7-1.76,1.65-1.81.93-.07,1.76.7,1.81,1.65.02.49.03.99.03,1.49,0,1.5-.1,3.01-.3,4.49-.12.87-.86,1.5-1.71,1.5m-6.64,15.49c-.38,0-.76-.12-1.08-.38-.75-.6-.87-1.68-.27-2.43,1.12-1.4,2.11-2.9,2.97-4.48.45-.84,1.5-1.15,2.34-.7.84.46,1.15,1.5.7,2.35-.95,1.75-2.06,3.43-3.31,4.99-.34.43-.84.65-1.35.65"/>
        <path class="cls-3" d="m128.19,120.41c-18.4,0-33.37-14.97-33.37-33.37s14.97-33.37,33.37-33.37c.96,0,1.73.77,1.73,1.73s-.78,1.73-1.73,1.73c-16.5,0-29.92,13.42-29.92,29.91s13.42,29.91,29.92,29.91c4.56,0,8.94-1,13.01-2.97.86-.42,1.89-.06,2.31.8.42.86.06,1.89-.8,2.31-4.55,2.2-9.43,3.32-14.52,3.32"/>
        <path class="cls-3" d="m114.21,113.48c4.3,2.27,9.1,3.47,13.98,3.47.35,0,.7,0,1.06-.02v-6.04c0-.96.77-1.73,1.73-1.73h6.42c2.34,0,4.25-1.9,4.25-4.25v-.31l-.47-.36c-.19-.14-.34-.32-.46-.53-.81-1.44-.34-3.25,1.07-4.11l1.29-.79v-1.51c0-1.38,1.12-2.51,2.51-2.51.07,0-3.3-5.13-3.3-5.13-.24-.36-.33-.81-.26-1.24.17-1.02.26-1.94.26-2.82,0-4.71-1.9-9.08-5.34-12.3-3.44-3.21-7.94-4.81-12.67-4.48-8.26.57-14.96,7.22-15.58,15.48-.25,3.25.44,6.46,1.97,9.29,3.41,6.28,4.65,13.28,3.55,19.87m13.98,6.93c-5.9,0-11.7-1.57-16.79-4.53-.65-.38-.98-1.13-.82-1.86,1.32-6.14.26-12.81-2.97-18.76-1.85-3.41-2.68-7.28-2.38-11.2.75-9.96,8.83-17.99,18.8-18.67,5.68-.39,11.11,1.53,15.27,5.41,4.1,3.82,6.44,9.23,6.44,14.83,0,.86-.07,1.76-.2,2.71l3.33,5.06c.64.97.69,2.2.14,3.22-.5.93-1.43,1.54-2.47,1.64v1.54c0,.6-.31,1.16-.83,1.48l-1.52.93.24.18c.43.33.68.84.68,1.38v1.17c0,4.25-3.46,7.71-7.71,7.71h-4.69v5.93c0,.9-.68,1.64-1.58,1.72-1.04.09-2.01.14-2.94.14"/>
      </g>
    </g>
  </g>
</svg>