<?xml version="1.0" encoding="UTF-8"?>
<svg id="Layer_2" data-name="Layer 2" xmlns="http://www.w3.org/2000/svg" viewBox="0 0 54.79 53.54">
  <defs>
    <style>
      .cls-1 {
        fill: #fff;
      }
    </style>
  </defs>
  <g id="Layer_1-2" data-name="Layer 1">
    <g>
      <path class="cls-1" d="m51.19,38l-.14-.3c-.15-.31-.47-.5-.82-.5h-6.01l-2.09-2.08,1.61-5.6,2.76-1.27,5.05,3.35c.27.18.62.2.91.06l.48-.24c-.08,2.29-.68,4.54-1.74,6.58m-8.63,7.4h0c.37-.79.31-1.71-.15-2.45l1.98-3.94h5.26l.41.81c-1.86,2.59-4.48,4.54-7.51,5.58m-3.25-5.46c-1.58-1.44-3.35-2.67-5.25-3.65h6.66l2.01,2-1.65,3.27-1.77-1.62Zm1.43,4.99s-.08.08-.12.11l-2.94,2.19c-3.91,2.9-8.66,4.47-13.54,4.48h-2.61c-4.88-.01-9.63-1.58-13.54-4.48l-2.94-2.19c-.4-.3-.49-.87-.18-1.27.03-.04.07-.09.11-.12l2.6-2.37c1.86-1.68,3.99-3.05,6.3-4.03.14-.03.27-.08.38-.17,8.09-3.32,17.37-1.68,23.82,4.2l2.6,2.37c.37.34.4.91.06,1.28M7.58,31.87l7.42-7.37c2.35,2.6,3.85,5.86,4.28,9.34-1.95.28-3.85.8-5.68,1.54-2.23-.75-4.28-1.95-6.03-3.51M1.85,18.73l1.47.1c3.85.27,7.5,1.81,10.37,4.37l-7.41,7.36c-2.94-3.24-4.53-7.47-4.44-11.84M6.3,7.53l11.59,11.52-2.89,2.87c-3.18-2.88-7.25-4.6-11.54-4.9l-1.47-.1c.43-3.49,1.94-6.77,4.31-9.39M17.04,1.96l.1,1.46c.3,4.26,2.04,8.3,4.94,11.46l-2.9,2.88L7.59,6.25c2.63-2.36,5.93-3.86,9.45-4.29m13.73,4.29l-7.4,7.35c-2.59-2.85-4.14-6.48-4.41-10.3l-.11-1.46c4.39-.08,8.65,1.49,11.91,4.42m4.9,7.45c-3.01.31-5.88,1.4-8.32,3.15-.96-.57-1.86-1.23-2.69-1.97l7.41-7.36c1.62,1.78,2.85,3.89,3.6,6.17m5.93,2.3h0s.24.7.24.7l-4.4,3.05-4.4-3.06.24-.7c2.72-.77,5.6-.77,8.31,0m-4.16,10.49l4.32,2.87s0,.04.01.06c.02.03.04.06.06.09l-1.43,4.97h-5.93l-1.45-5.06,4.42-2.93Zm-5.59,1.52l-3.76-1.49-1.68-4.17c-.08-.21-.24-.38-.44-.47l-.82-.41c1.56-2.02,3.6-3.63,5.94-4.68-.12.38.02.79.34,1.01l5.09,3.54v3.58l-4.67,3.1Zm-9.43,4.55c.35.17.78.11,1.05-.17l4.14-4.11,3.59,1.43,1.7,5.92s.04.09.06.13c-3.18-1.45-6.64-2.19-10.14-2.19-.21,0-.43,0-.64.01h0c-.07-.41-.14-.82-.18-1.23l.42.21Zm1.69-9.59l.73.36,1.47,3.66-3.67,3.65-.7-.35c.09-2.59.84-5.11,2.17-7.33m-2.16.12c-1.04,2.04-1.65,4.26-1.81,6.53-.85-2.38-2.16-4.56-3.87-6.42l2.89-2.88,2.78,2.77Zm1.2-2.02c-.1.08-.18.18-.24.29-.01.03-.02.07-.03.1l-2.43-2.42,2.9-2.88c.77.7,1.6,1.33,2.47,1.9h0c-1.01.9-1.91,1.91-2.68,3.01m20.63-4.29c1.73.77,3.3,1.84,4.64,3.17h-.03c-.41,0-.77.27-.88.66l-1.71,5.95-2.93,1.34-4.52-3v-3.58l5.09-3.54c.32-.23.46-.64.34-1.01m6.18,4.99c1.65,2.24,2.66,4.88,2.92,7.64l-.77.39-4.48-2.97,1.46-5.06h.88Zm4.79,8.37c.03-.16.03-.32-.03-.48-.63-8.99-8.11-15.99-17.18-16.06C34.52,3.53,23.84-2.21,13.7.8,3.55,3.81-2.22,14.42.81,24.51c1.59,5.31,5.43,9.67,10.52,11.93-1.8.96-3.47,2.13-4.98,3.5l-2.6,2.37c-1.11,1.01-1.19,2.74-.17,3.85.11.12.24.24.38.34l2.94,2.19c4.23,3.14,9.36,4.84,14.64,4.85h2.61c5.28-.01,10.41-1.71,14.63-4.85l1.03-.77c8.59-1.16,15-8.45,14.99-17.07,0-.24-.03-.47-.04-.7"/>
      <path class="cls-1" d="m31.05,42.65h-.91v-.91c0-.5-.41-.91-.91-.91s-.91.41-.91.91v.91h-1.83v-.91c0-.5-.41-.91-.91-.91s-.91.41-.91.91v.91h-1.83v-.91c0-.5-.41-.91-.91-.91s-.91.41-.91.91v.91h-1.83v-.91c0-.5-.41-.91-.91-.91s-.91.41-.91.91v.91h-1.83v-.91c0-.5-.41-.91-.91-.91s-.91.41-.91.91v.91h-.91c-.5,0-.91.41-.91.91s.41.91.91.91h.91v.91c0,.5.41.91.91.91s.91-.41.91-.91v-.91h1.83v.91c0,.5.41.91.91.91s.91-.41.91-.91v-.91h1.83v.91c0,.5.41.91.91.91s.91-.41.91-.91v-.91h1.83v.91c0,.5.41.91.91.91s.91-.41.91-.91v-.91h1.83v.91c0,.5.41.91.91.91s.91-.41.91-.91v-.91h.91c.5,0,.91-.41.91-.91s-.41-.91-.91-.91"/>
    </g>
  </g>
</svg>