<?xml version="1.0" encoding="UTF-8"?>
<svg id="Layer_2" data-name="Layer 2" xmlns="http://www.w3.org/2000/svg" viewBox="0 0 34.89 47.92">
  <defs>
    <style>
      .cls-1 {
        fill: #fff;
      }
    </style>
  </defs>
  <g id="Layer_1-2" data-name="Layer 1">
    <g>
      <path class="cls-1" d="m28.39,10.82c-3.13,2.18-7.35,2.11-10.4-.23-1.88-1.44-4.11-2.2-6.46-2.2-1.82,0-3.57.46-5.14,1.34l-.77-7.85h23.64l-.87,8.95Zm-2.94,30.17H9.44l-2.85-29.2c3.12-2.12,7.28-2.02,10.3.3,1.88,1.44,4.11,2.2,6.46,2.2,1.69,0,3.33-.4,4.81-1.16l-2.72,27.86ZM34.65.31c-.17-.2-.42-.31-.68-.31H.92C.66,0,.41.11.24.31.06.5-.02.77,0,1.03l4.23,43.35c.2,2.02,1.85,3.54,3.84,3.54h18.74c1.99,0,3.64-1.52,3.84-3.54l1.25-12.84c.05-.51-.32-.97-.82-1.02-.51-.05-.95.32-1.01.84l-1.25,12.84c-.1,1.06-.97,1.86-2.01,1.86H8.07c-1.04,0-1.91-.8-2.01-1.86L1.93,1.87h1.85l3.92,40.15c.05.48.44.84.91.84h17.67c.47,0,.87-.36.91-.84L31.11,1.87h1.85l-2.06,21.08c-.05.51.32.97.82,1.02.51.05.95-.32,1-.84l2.16-22.11c.03-.26-.06-.52-.23-.72"/>
      <path class="cls-1" d="m20.48,31.1c-.81.83-1.89,1.28-3.04,1.28s-2.23-.46-3.04-1.28c-1.51-1.54-1.69-3.94-.42-5.7l3.46-4.8,3.46,4.8c1.27,1.76,1.09,4.15-.42,5.7m-1.9-12.08c-.27-.37-.69-.59-1.14-.59s-.87.22-1.14.59l-3.81,5.27c-.87,1.2-1.29,2.69-1.18,4.18.11,1.49.74,2.89,1.78,3.95,1.16,1.18,2.7,1.83,4.34,1.83s3.18-.65,4.34-1.83c1.04-1.06,1.67-2.46,1.78-3.95.11-1.49-.31-2.97-1.18-4.18l-3.8-5.27Z"/>
      <path class="cls-1" d="m31.4,26.32c-.24,0-.48.1-.65.27s-.27.42-.27.66.1.49.27.66c.17.17.41.27.65.27s.48-.1.65-.27c.17-.17.27-.42.27-.66s-.1-.49-.27-.66-.41-.27-.65-.27"/>
    </g>
  </g>
</svg>