<?xml version="1.0" encoding="UTF-8"?>
<svg id="Layer_2" data-name="Layer 2" xmlns="http://www.w3.org/2000/svg" viewBox="0 0 124.48 124.48">
  <defs>
    <style>
      .cls-1 {
        fill: #fff;
      }

      .cls-2 {
        fill: none;
        stroke: #43a756;
        stroke-miterlimit: 10;
        stroke-width: .25px;
      }

      .cls-3 {
        fill: #43a756;
      }
    </style>
  </defs>
  <g id="Layer_1-2" data-name="Layer 1">
    <g>
      <path class="cls-1" d="m62.24,124.48c34.37,0,62.24-27.86,62.24-62.24S96.61,0,62.24,0,0,27.87,0,62.24s27.86,62.24,62.24,62.24"/>
      <path class="cls-3" d="m71.15,55.28c3.89,1.72,7.46,4.07,10.58,6.96-3.12,2.89-6.69,5.24-10.58,6.94,3.19-4.08,3.19-9.82,0-13.9m-17.42,13.98c-3.96-1.69-7.59-4.07-10.73-7.02,3.13-2.96,6.77-5.35,10.73-7.04-3.29,4.12-3.29,9.97,0,14.09v-.02Zm8.64,1.75h0c-4.85,0-8.78-3.93-8.78-8.77s3.93-8.77,8.78-8.77,8.78,3.93,8.78,8.77-3.93,8.77-8.78,8.77m.3-20.06h-.39c-7.33,0-14.71,3.49-21.92,10.35-.04.06-.08.11-.11.18-.05.06-.09.14-.12.21-.01.08-.01.15,0,.23-.05.15-.05.31,0,.45-.01.08-.01.15,0,.23.03.07.07.14.12.2.03.07.07.13.11.19,7.21,6.99,14.58,10.53,21.9,10.53h.38c7.2-.11,14.51-3.6,21.72-10.34l.1-.16c.05-.07.09-.14.12-.21.01-.07.01-.15,0-.22.01-.08.01-.15,0-.23.01-.08.01-.16,0-.24.01-.07.01-.14,0-.21-.03-.08-.07-.15-.12-.21l-.1-.16c-7.21-6.92-14.47-10.39-21.69-10.57"/>
      <path class="cls-2" d="m71.15,55.28c3.89,1.72,7.46,4.07,10.58,6.96-3.12,2.89-6.69,5.24-10.58,6.94,3.19-4.08,3.19-9.82,0-13.9Zm-17.42,13.98c-3.96-1.69-7.59-4.07-10.73-7.02,3.13-2.96,6.77-5.35,10.73-7.04-3.29,4.12-3.29,9.97,0,14.09v-.02Zm8.64,1.75h0c-4.85,0-8.78-3.93-8.78-8.77s3.93-8.77,8.78-8.77,8.78,3.93,8.78,8.77-3.93,8.77-8.78,8.77Zm.3-20.06h-.39c-7.33,0-14.71,3.49-21.92,10.35-.04.06-.08.11-.11.18-.05.06-.09.14-.12.21-.01.08-.01.15,0,.23-.05.15-.05.31,0,.45-.01.08-.01.15,0,.23.03.07.07.14.12.2.03.07.07.13.11.19,7.21,6.99,14.58,10.53,21.9,10.53h.38c7.2-.11,14.51-3.6,21.72-10.34l.1-.16c.05-.07.09-.14.12-.21.01-.07.01-.15,0-.22.01-.08.01-.15,0-.23.01-.08.01-.16,0-.24.01-.07.01-.14,0-.21-.03-.08-.07-.15-.12-.21l-.1-.16c-7.21-6.92-14.47-10.39-21.69-10.57Z"/>
      <path class="cls-3" d="m62.38,64.96c-1.5,0-2.72-1.23-2.71-2.73,0-1.5,1.23-2.71,2.73-2.71,1.5,0,2.71,1.22,2.71,2.72s-1.22,2.72-2.72,2.72h-.01Zm0-7.87c-2.85,0-5.15,2.32-5.14,5.16,0,2.84,2.32,5.14,5.17,5.14,2.84,0,5.14-2.31,5.14-5.15s-2.31-5.15-5.15-5.15h-.01Z"/>
      <path class="cls-2" d="m62.38,64.96c-1.5,0-2.72-1.23-2.71-2.73,0-1.5,1.23-2.71,2.73-2.71,1.5,0,2.71,1.22,2.71,2.72s-1.22,2.72-2.72,2.72h-.01Zm0-7.87c-2.85,0-5.15,2.32-5.14,5.16,0,2.84,2.32,5.14,5.17,5.14,2.84,0,5.14-2.31,5.14-5.15s-2.31-5.15-5.15-5.15h-.01Z"/>
      <path class="cls-3" d="m100.07,67.25h-5.73c-.76,0-1.42.52-1.59,1.25-.79,3.79-2.28,7.4-4.4,10.63-.42.64-.33,1.49.21,2.03l4.05,4.05-7.16,7.25-4.05-4.05c-.54-.55-1.4-.64-2.04-.21-3.23,2.13-6.84,3.62-10.63,4.4-.74.18-1.25.84-1.25,1.59v5.73h-10.11v-5.73c0-.76-.52-1.42-1.25-1.59-3.79-.78-7.39-2.28-10.62-4.4-.65-.42-1.5-.33-2.04.21l-4.14,4.05-7.16-7.16,4.05-4.05c.54-.54.63-1.39.21-2.03-2.12-3.24-3.61-6.84-4.4-10.63-.17-.74-.83-1.26-1.59-1.25h-5.73v-10.12h5.73c.76,0,1.42-.52,1.59-1.25.78-3.79,2.28-7.4,4.4-10.63.42-.64.33-1.49-.21-2.03l-4.05-4.14,7.16-7.16,4.05,4.05c.54.55,1.4.64,2.04.21,3.23-2.12,6.83-3.62,10.62-4.4.74-.18,1.26-.83,1.25-1.59v-5.73h10.12v5.73c0,.76.52,1.42,1.25,1.59,3.79.78,7.39,2.28,10.62,4.4.65.43,1.5.34,2.04-.21l4.14-4.05,7.16,7.16-4.05,4.05c-.54.55-.63,1.4-.21,2.04,2.12,3.23,3.62,6.83,4.4,10.62.17.74.83,1.26,1.59,1.25h5.73v10.12Zm.8-12.54h-5.89c-.83-3.64-2.27-7.12-4.26-10.28l4.16-4.15c.64-.64.64-1.67,0-2.31,0,0,0,0,0,0l-8.28-8.26c-.64-.63-1.67-.63-2.31,0l-4.15,4.16c-3.16-1.97-6.62-3.4-10.24-4.24v-5.89c0-.9-.73-1.63-1.63-1.63-.01,0-.03,0-.04,0h-11.71c-.9-.02-1.65.69-1.67,1.59v5.93c-3.64.83-7.12,2.27-10.28,4.25l-4.11-4.16c-.64-.63-1.67-.63-2.31,0l-8.3,8.29c-.63.64-.63,1.67,0,2.31l4.15,4.15c-1.97,3.16-3.4,6.62-4.22,10.24h-5.89c-.9,0-1.63.73-1.63,1.63,0,.01,0,.03,0,.04v11.71c-.01.91.71,1.65,1.62,1.67h5.91c.83,3.64,2.27,7.11,4.25,10.27l-4.18,4.14c-.63.63-.64,1.65,0,2.29,0,0,0,0,0,0l8.29,8.3c.64.63,1.67.63,2.31,0l4.15-4.15c3.16,1.97,6.63,3.4,10.26,4.22v5.89c0,.9.73,1.63,1.63,1.63h11.71c.9.04,1.66-.65,1.7-1.55,0-.03,0-.05,0-.08v-5.89c3.64-.83,7.11-2.27,10.28-4.25l4.15,4.15c.64.64,1.67.64,2.31,0,0,0,0,0,0,0l8.29-8.29c.64-.64.64-1.67,0-2.31h0s-4.15-4.15-4.15-4.15c1.96-3.15,3.38-6.61,4.2-10.23h5.89c.91,0,1.64-.75,1.63-1.65h0v-11.72c.02-.9-.69-1.65-1.59-1.67h-.04"/>
      <path class="cls-2" d="m100.07,67.25h-5.73c-.76,0-1.42.52-1.59,1.25-.79,3.79-2.28,7.4-4.4,10.63-.42.64-.33,1.49.21,2.03l4.05,4.05-7.16,7.25-4.05-4.05c-.54-.55-1.4-.64-2.04-.21-3.23,2.13-6.84,3.62-10.63,4.4-.74.18-1.25.84-1.25,1.59v5.73h-10.11v-5.73c0-.76-.52-1.42-1.25-1.59-3.79-.78-7.39-2.28-10.62-4.4-.65-.42-1.5-.33-2.04.21l-4.14,4.05-7.16-7.16,4.05-4.05c.54-.54.63-1.39.21-2.03-2.12-3.24-3.61-6.84-4.4-10.63-.17-.74-.83-1.26-1.59-1.25h-5.73v-10.12h5.73c.76,0,1.42-.52,1.59-1.25.78-3.79,2.28-7.4,4.4-10.63.42-.64.33-1.49-.21-2.03l-4.05-4.14,7.16-7.16,4.05,4.05c.54.55,1.4.64,2.04.21,3.23-2.12,6.83-3.62,10.62-4.4.74-.18,1.26-.83,1.25-1.59v-5.73h10.12v5.73c0,.76.52,1.42,1.25,1.59,3.79.78,7.39,2.28,10.62,4.4.65.43,1.5.34,2.04-.21l4.14-4.05,7.16,7.16-4.05,4.05c-.54.55-.63,1.4-.21,2.04,2.12,3.23,3.62,6.83,4.4,10.62.17.74.83,1.26,1.59,1.25h5.73v10.12Zm.8-12.54h-5.89c-.83-3.64-2.27-7.12-4.26-10.28l4.16-4.15c.64-.64.64-1.67,0-2.31,0,0,0,0,0,0l-8.28-8.26c-.64-.63-1.67-.63-2.31,0l-4.15,4.16c-3.16-1.97-6.62-3.4-10.24-4.24v-5.89c0-.9-.73-1.63-1.63-1.63-.01,0-.03,0-.04,0h-11.71c-.9-.02-1.65.69-1.67,1.59v5.93c-3.64.83-7.12,2.27-10.28,4.25l-4.11-4.16c-.64-.63-1.67-.63-2.31,0l-8.3,8.29c-.63.64-.63,1.67,0,2.31l4.15,4.15c-1.97,3.16-3.4,6.62-4.22,10.24h-5.89c-.9,0-1.63.73-1.63,1.63,0,.01,0,.03,0,.04v11.71c-.01.91.71,1.65,1.62,1.67h5.91c.83,3.64,2.27,7.11,4.25,10.27l-4.18,4.14c-.63.63-.64,1.65,0,2.29,0,0,0,0,0,0l8.29,8.3c.64.63,1.67.63,2.31,0l4.15-4.15c3.16,1.97,6.63,3.4,10.26,4.22v5.89c0,.9.73,1.63,1.63,1.63h11.71c.9.04,1.66-.65,1.7-1.55,0-.03,0-.05,0-.08v-5.89c3.64-.83,7.11-2.27,10.28-4.25l4.15,4.15c.64.64,1.67.64,2.31,0,0,0,0,0,0,0l8.29-8.29c.64-.64.64-1.67,0-2.31h0s-4.15-4.15-4.15-4.15c1.96-3.15,3.38-6.61,4.2-10.23h5.89c.91,0,1.64-.75,1.63-1.65h0v-11.72c.02-.9-.69-1.65-1.59-1.67h-.04Z"/>
      <path class="cls-3" d="m62.38,86.23c-13.25,0-24-10.74-24-24s10.74-24,24-24,24,10.74,24,24c-.02,13.24-10.75,23.98-24,24m0-50.42c-14.6,0-26.43,11.83-26.43,26.43s11.83,26.43,26.43,26.43,26.43-11.83,26.43-26.43c-.02-14.59-11.84-26.41-26.43-26.43"/>
      <path class="cls-2" d="m62.38,86.23c-13.25,0-24-10.74-24-24s10.74-24,24-24,24,10.74,24,24c-.02,13.24-10.75,23.98-24,24Zm0-50.42c-14.6,0-26.43,11.83-26.43,26.43s11.83,26.43,26.43,26.43,26.43-11.83,26.43-26.43c-.02-14.59-11.84-26.41-26.43-26.43Z"/>
    </g>
  </g>
</svg>