<?xml version="1.0" encoding="UTF-8"?>
<svg id="Layer_2" data-name="Layer 2" xmlns="http://www.w3.org/2000/svg" viewBox="0 0 124.48 124.48">
  <defs>
    <style>
      .cls-1 {
        fill: #1e6f41;
      }

      .cls-2 {
        fill: #b7d831;
      }
    </style>
  </defs>
  <g id="Layer_1-2" data-name="Layer 1">
    <g>
      <path class="cls-2" d="m62.24,124.48c34.37,0,62.24-27.86,62.24-62.24S96.61,0,62.24,0,0,27.87,0,62.24s27.86,62.24,62.24,62.24"/>
      <path class="cls-1" d="m101.61,75.2l-7.5-12.96,7.5-12.96c.46-.77.21-1.78-.56-2.25-.26-.16-.57-.22-.85-.23h-14.34v-7.54c0-.91-.74-1.65-1.64-1.65h-33.75v-.52c.74-1.04,1.14-2.3,1.14-3.58,0-3.44-2.78-6.25-6.21-6.25s-6.21,2.8-6.21,6.25c0,1.27.41,2.54,1.14,3.57v49.41c-3.58.92-5.71,2.78-5.71,5.04,0,3.29,4.53,5.67,10.77,5.67s10.77-2.38,10.77-5.67c0-2.25-2.12-4.12-5.71-5.04v-18.02h14.98v5.25c0,2.17,1.77,3.94,3.92,3.95h30.82c.44.02.85-.16,1.16-.47.31-.31.48-.72.49-1.15,0-.3-.08-.6-.23-.85Zm-61.11,14.67c.26,1.11.89,2.1,1.8,2.81,1.06.83,2.38,1.2,3.71,1.03,2.11-.26,3.81-1.8,4.29-3.85,1.82.59,2.59,1.35,2.59,1.66,0,.69-2.62,2.37-7.49,2.37s-7.49-1.68-7.49-2.37c0-.31.77-1.07,2.59-1.66Zm3.12-1.21v-49.17c1.16.35,2.4.35,3.57,0v49.17c0,.99-.8,1.8-1.78,1.8s-1.78-.81-1.78-1.8Zm1.78-52.2c-1.61,0-2.92-1.32-2.92-2.95,0-1.62,1.32-2.94,2.93-2.95,1.61,0,2.92,1.32,2.92,2.95s-1.31,2.95-2.93,2.95Zm23.97,36.62h12.56c2.16,0,3.92-1.78,3.92-3.95v-19.03h11.49l-6.54,11.3c-.32.51-.32,1.17,0,1.66l6.55,11.31h-27.97c-.35,0-.64-.29-.64-.65s.29-.65.64-.65Zm12.56-3.3h-12.56c-.21,0-.43.02-.64.06v-1.36h13.2c.35,0,.64.29.64.65s-.29.65-.64.65Zm0-4.59h-31.46v-24.28h32.1v24.33c-.21-.04-.43-.06-.64-.06Z"/>
    </g>
  </g>
</svg>