<?xml version="1.0" encoding="UTF-8"?>
<svg id="Layer_2" data-name="Layer 2" xmlns="http://www.w3.org/2000/svg" viewBox="0 0 124.48 124.48">
  <defs>
    <style>
      .cls-1 {
        fill: #fff;
      }

      .cls-2 {
        fill: none;
        stroke: #43a756;
        stroke-miterlimit: 10;
        stroke-width: .25px;
      }

      .cls-3 {
        fill: #43a756;
      }
    </style>
  </defs>
  <g id="Layer_1-2" data-name="Layer 1">
    <g>
      <path class="cls-1" d="m62.24,124.48c34.37,0,62.24-27.86,62.24-62.24S96.61,0,62.24,0,0,27.87,0,62.24s27.86,62.24,62.24,62.24"/>
      <path class="cls-3" d="m60.02,34.84c-17.04,0-30.68,13.63-30.68,30.68s13.63,30.68,30.68,30.68,30.68-13.63,30.68-30.68-13.63-30.68-30.68-30.68m0,64.76c-18.75,0-34.09-15.34-34.09-34.09s15.34-34.09,34.09-34.09,34.09,15.34,34.09,34.09-15.34,34.09-34.09,34.09"/>
      <path class="cls-2" d="m60.02,34.84c-17.04,0-30.68,13.63-30.68,30.68s13.63,30.68,30.68,30.68,30.68-13.63,30.68-30.68-13.63-30.68-30.68-30.68Zm0,64.76c-18.75,0-34.09-15.34-34.09-34.09s15.34-34.09,34.09-34.09,34.09,15.34,34.09,34.09-15.34,34.09-34.09,34.09Z"/>
      <path class="cls-3" d="m60.02,46.77c-10.23,0-18.75,8.52-18.75,18.75s8.52,18.75,18.75,18.75,18.75-8.52,18.75-18.75-8.52-18.75-18.75-18.75m0,40.9c-12.27,0-22.16-9.88-22.16-22.16s9.88-22.15,22.16-22.15,22.16,9.88,22.16,22.15-9.88,22.16-22.16,22.16"/>
      <path class="cls-2" d="m60.02,46.77c-10.23,0-18.75,8.52-18.75,18.75s8.52,18.75,18.75,18.75,18.75-8.52,18.75-18.75-8.52-18.75-18.75-18.75Zm0,40.9c-12.27,0-22.16-9.88-22.16-22.16s9.88-22.15,22.16-22.15,22.16,9.88,22.16,22.15-9.88,22.16-22.16,22.16Z"/>
      <path class="cls-3" d="m60.02,58.7c-3.75,0-6.82,3.07-6.82,6.82s3.07,6.82,6.82,6.82,6.82-3.07,6.82-6.82-3.07-6.82-6.82-6.82m0,17.04c-5.8,0-10.23-4.43-10.23-10.23s4.43-10.22,10.23-10.22,10.23,4.43,10.23,10.22-4.43,10.23-10.23,10.23"/>
      <path class="cls-2" d="m60.02,58.7c-3.75,0-6.82,3.07-6.82,6.82s3.07,6.82,6.82,6.82,6.82-3.07,6.82-6.82-3.07-6.82-6.82-6.82Zm0,17.04c-5.8,0-10.23-4.43-10.23-10.23s4.43-10.22,10.23-10.22,10.23,4.43,10.23,10.22-4.43,10.23-10.23,10.23Z"/>
      <path class="cls-3" d="m60.02,67.22c-.34,0-1.02,0-1.36-.34-.68-.68-.68-1.7,0-2.39l25.56-25.56c.68-.68,1.7-.68,2.39,0,.68.68.68,1.7,0,2.39l-25.56,25.56c0,.34-.68.34-1.02.34"/>
      <path class="cls-2" d="m60.02,67.22c-.34,0-1.02,0-1.36-.34-.68-.68-.68-1.7,0-2.39l25.56-25.56c.68-.68,1.7-.68,2.39,0,.68.68.68,1.7,0,2.39l-25.56,25.56c0,.34-.68.34-1.02.34Z"/>
      <path class="cls-3" d="m87.29,38.24h6.14l8.52-8.52h-4.43c-1.02,0-1.71-.68-1.71-1.7v-4.43l-8.52,8.52v6.14Zm6.82,3.41h-8.52c-1.02,0-1.7-.68-1.7-1.7v-8.52c0-.34.34-1.02.34-1.36l11.93-11.93c.68-.34,1.36-.34,2.04-.34.68.34,1.02,1.02,1.02,1.7v6.82h6.82c.68,0,1.36.34,1.7,1.02,0,.68,0,1.36-.34,2.04l-11.93,11.93c-.34,0-1.02.34-1.36.34"/>
      <path class="cls-2" d="m87.29,38.24h6.14l8.52-8.52h-4.43c-1.02,0-1.71-.68-1.71-1.7v-4.43l-8.52,8.52v6.14Zm6.82,3.41h-8.52c-1.02,0-1.7-.68-1.7-1.7v-8.52c0-.34.34-1.02.34-1.36l11.93-11.93c.68-.34,1.36-.34,2.04-.34.68.34,1.02,1.02,1.02,1.7v6.82h6.82c.68,0,1.36.34,1.7,1.02,0,.68,0,1.36-.34,2.04l-11.93,11.93c-.34,0-1.02.34-1.36.34Z"/>
    </g>
  </g>
</svg>