<?xml version="1.0" encoding="UTF-8"?>
<svg id="Layer_2" data-name="Layer 2" xmlns="http://www.w3.org/2000/svg" viewBox="0 0 84.91 84.91">
  <defs>
    <style>
      .cls-1 {
        fill: #fff;
      }

      .cls-2 {
        fill: #2566af;
      }
    </style>
  </defs>
  <g id="Layer_1-2" data-name="Layer 1">
    <g>
      <path class="cls-1" d="m42.45,84.91c23.45,0,42.45-19.01,42.45-42.45S65.9,0,42.45,0,0,19.01,0,42.45s19.01,42.45,42.45,42.45"/>
      <path class="cls-2" d="m66.55,23.86c.49-.07.92-.38,1.13-.82l.58-1.18.59,1.18c.22.44.64.75,1.13.82l1.31.19-.95.92c-.36.35-.52.85-.43,1.33l.22,1.3-1.17-.61c-.22-.11-.46-.17-.7-.17s-.48.06-.7.17l-1.17.61.22-1.3c.08-.49-.08-.99-.43-1.33l-.95-.92,1.31-.19Zm-1.94,2.36l-.35,2.03c-.1.57.13,1.13.6,1.47.47.34,1.08.38,1.59.11l1.82-.96,1.82.96c.22.12.46.18.7.18.31,0,.62-.1.88-.29.47-.34.7-.9.6-1.47l-.35-2.03,1.47-1.44c.41-.4.56-1,.38-1.55-.18-.55-.65-.94-1.22-1.03l-2.04-.3-.91-1.85c-.26-.52-.77-.84-1.35-.84s-1.1.32-1.35.84l-.91,1.85-2.04.3c-.57.08-1.04.48-1.22,1.03-.18.55-.03,1.14.38,1.55l1.48,1.44Z"/>
      <path class="cls-2" d="m24.4,52.27h8.47v7.27h-8.47v-7.27Zm26.41-12.63h8.47v19.9h-8.47v-19.9Zm-36.53,15.94c.49-.07.91-.38,1.13-.82l.58-1.18.58,1.18c.22.45.64.75,1.14.82l1.31.19-.95.92c-.35.35-.52.85-.43,1.33l.22,1.3-1.17-.61c-.44-.23-.96-.23-1.4,0l-1.17.61.22-1.3c.08-.49-.08-.99-.43-1.33l-.95-.92,1.31-.19Zm60.62,3.96h-.4v-16.28c0-.55-.45-1-1-1s-1,.45-1,1v16.28h-8.47v-26.31h8.47v5.36c0,.55.45,1,1,1s1-.45,1-1v-5.73c0-.9-.73-1.63-1.63-1.63h-9.2c-.9,0-1.63.73-1.63,1.63v26.67h-.76v-20.27c0-.9-.73-1.63-1.63-1.63h-9.2c-.9,0-1.63.73-1.63,1.63v20.27h-.79v-5.09c0-.55-.45-1-1-1s-1,.45-1,1v5.09h-8.47v-14.93h8.47v5.18c0,.55.45,1,1,1s1-.45,1-1v-5.54c0-.9-.73-1.63-1.63-1.63h-9.2c-.9,0-1.63.73-1.63,1.63v15.3h-.7v-7.64c0-.9-.73-1.63-1.63-1.63h-9.2c-.9,0-1.63.73-1.63,1.63v7.64h-2.46l-.28-1.6,1.47-1.44c.41-.4.56-.99.38-1.54-.18-.55-.65-.94-1.22-1.03l-2.04-.3-.91-1.85c-.26-.52-.77-.84-1.35-.84s-1.09.32-1.35.84l-.91,1.85-2.04.3c-.57.08-1.04.48-1.22,1.03-.18.55-.03,1.14.38,1.54l1.47,1.44-.27,1.6h-2.05c-.92,0-1.67.75-1.67,1.67v2.81c0,.92.75,1.67,1.67,1.67h14.46c.55,0,1-.45,1-1s-.45-1-1-1h-14.12v-2.14h64.22v2.14H29.13c-.55,0-1,.45-1,1s.45,1,1,1h45.77c.92,0,1.67-.75,1.67-1.67v-2.81c0-.92-.75-1.67-1.67-1.67"/>
      <path class="cls-2" d="m53.33,30.33c.49-.07.91-.38,1.13-.82l.58-1.18.59,1.18c.22.44.64.75,1.13.82l1.31.19-.95.92c-.36.35-.52.85-.43,1.33l.22,1.3-1.17-.61c-.44-.23-.96-.23-1.4,0l-1.17.61.22-1.3c.08-.49-.08-.99-.43-1.33l-.95-.92,1.31-.19Zm-1.94,2.36l-.35,2.03c-.1.57.13,1.13.6,1.47.47.34,1.08.38,1.59.11l1.82-.96,1.82.96c.22.12.46.18.7.18.31,0,.62-.1.88-.29.47-.34.7-.9.6-1.47l-.35-2.03,1.47-1.44c.41-.4.56-.99.38-1.54-.18-.55-.65-.94-1.22-1.03l-2.04-.3-.91-1.85c-.26-.52-.77-.84-1.35-.84s-1.1.32-1.35.84l-.91,1.85-2.04.3c-.57.08-1.04.48-1.22,1.03-.18.55-.03,1.14.38,1.55l1.48,1.44Z"/>
      <path class="cls-2" d="m40.08,35.41c.49-.07.92-.38,1.13-.82l.58-1.18.59,1.18c.22.44.64.75,1.13.82l1.31.19-.95.92c-.36.35-.52.85-.43,1.33l.22,1.3-1.17-.61c-.44-.23-.96-.23-1.4,0l-1.17.61.22-1.3c.08-.49-.08-.99-.43-1.33l-.95-.92,1.31-.19Zm-1.94,2.36l-.35,2.03c-.1.57.13,1.13.6,1.47.47.34,1.08.38,1.59.11l1.82-.96,1.82.96c.22.12.46.18.7.18.31,0,.62-.1.89-.29.47-.34.7-.9.6-1.47l-.35-2.03,1.47-1.44c.41-.4.56-1,.38-1.55-.18-.55-.65-.94-1.22-1.03l-2.04-.3-.91-1.85c-.26-.52-.77-.84-1.35-.84s-1.1.32-1.35.84l-.91,1.85-2.04.3c-.57.08-1.04.48-1.22,1.03-.18.55-.03,1.14.38,1.55l1.48,1.44Z"/>
      <path class="cls-2" d="m26.91,43.04c.49-.07.92-.38,1.13-.82l.58-1.18.59,1.18c.22.45.64.75,1.13.83l1.31.19-.95.92c-.36.35-.52.85-.43,1.33l.22,1.3-1.17-.61c-.22-.12-.46-.17-.7-.17s-.48.06-.7.17l-1.17.61.22-1.3c.08-.49-.08-.99-.43-1.33l-.95-.92,1.31-.19Zm-1.94,2.36l-.35,2.03c-.1.57.13,1.13.6,1.47.47.34,1.08.38,1.59.11l1.82-.96,1.82.96c.22.12.46.18.7.18.31,0,.62-.1.89-.29.47-.34.7-.9.6-1.47l-.35-2.03,1.47-1.44c.41-.4.56-.99.38-1.55-.18-.55-.65-.94-1.22-1.02l-2.04-.3-.91-1.85c-.26-.52-.77-.84-1.35-.84s-1.1.32-1.35.84l-.91,1.85-2.04.3c-.57.08-1.04.48-1.22,1.02-.18.55-.03,1.14.38,1.55l1.48,1.44Z"/>
    </g>
  </g>
</svg>