<?xml version="1.0" encoding="UTF-8"?>
<svg id="Layer_2" data-name="Layer 2" xmlns="http://www.w3.org/2000/svg" viewBox="0 0 84.91 84.91">
  <defs>
    <style>
      .cls-1 {
        fill: #fff;
      }

      .cls-2 {
        fill: none;
        stroke: #2566af;
        stroke-miterlimit: 10;
        stroke-width: 1.2px;
      }

      .cls-3 {
        fill: #2566af;
      }
    </style>
  </defs>
  <g id="Layer_1-2" data-name="Layer 1">
    <g>
      <path class="cls-1" d="m42.45,84.91c23.45,0,42.45-19.01,42.45-42.45S65.9,0,42.45,0,0,19.01,0,42.45s19.01,42.45,42.45,42.45"/>
      <path class="cls-3" d="m55.65,74.4c-.11,0-.21-.02-.31-.07l-12.89-5.86-12.89,5.86c-.23.11-.5.09-.72-.05-.21-.14-.35-.38-.35-.63v-21.01c0-.41.34-.75.75-.75s.75.34.75.75v19.85l12.14-5.52c.2-.09.42-.09.62,0l12.14,5.52v-19.85c0-.41.34-.75.75-.75s.75.34.75.75v21.01c0,.26-.13.49-.34.63-.12.08-.26.12-.41.12"/>
      <path class="cls-2" d="m55.65,74.4c-.11,0-.21-.02-.31-.07l-12.89-5.86-12.89,5.86c-.23.11-.5.09-.72-.05-.21-.14-.35-.38-.35-.63v-21.01c0-.41.34-.75.75-.75s.75.34.75.75v19.85l12.14-5.52c.2-.09.42-.09.62,0l12.14,5.52v-19.85c0-.41.34-.75.75-.75s.75.34.75.75v21.01c0,.26-.13.49-.34.63-.12.08-.26.12-.41.12Z"/>
      <path class="cls-3" d="m42.45,12c-12.16,0-22.05,9.89-22.05,22.05s9.89,22.05,22.05,22.05,22.05-9.89,22.05-22.05-9.89-22.05-22.05-22.05m0,45.6c-12.99,0-23.55-10.56-23.55-23.55s10.56-23.55,23.55-23.55,23.55,10.56,23.55,23.55-10.57,23.55-23.55,23.55"/>
      <path class="cls-2" d="m42.45,12c-12.16,0-22.05,9.89-22.05,22.05s9.89,22.05,22.05,22.05,22.05-9.89,22.05-22.05-9.89-22.05-22.05-22.05Zm0,45.6c-12.99,0-23.55-10.56-23.55-23.55s10.56-23.55,23.55-23.55,23.55,10.56,23.55,23.55-10.57,23.55-23.55,23.55Z"/>
      <path class="cls-3" d="m42.45,46.3c.09,0,.18.02.27.05l4.26,1.62,2.49-3.81c.1-.15.26-.27.43-.31l4.4-1.19-.22-4.55c-.01-.18.05-.36.16-.51l2.86-3.55-2.86-3.55c-.12-.14-.17-.32-.16-.51l.22-4.55-4.4-1.19c-.18-.05-.33-.16-.43-.31l-2.49-3.82-4.26,1.62c-.17.07-.36.07-.54,0l-4.26-1.62-2.49,3.82c-.1.15-.25.27-.43.31l-4.4,1.19.22,4.55c0,.18-.05.36-.16.51l-2.86,3.55,2.86,3.55c.11.14.17.32.16.51l-.22,4.55,4.4,1.19c.18.05.33.16.43.31l2.49,3.81,4.26-1.62c.09-.03.18-.05.27-.05m4.82,3.34c-.09,0-.18-.02-.27-.05l-4.55-1.74-4.55,1.74c-.33.13-.7,0-.9-.29l-2.66-4.08-4.7-1.27c-.34-.09-.57-.41-.55-.76l.24-4.87-3.05-3.8c-.22-.27-.22-.67,0-.94l3.05-3.8-.24-4.87c-.02-.35.21-.67.55-.76l4.7-1.27,2.66-4.08c.19-.29.57-.42.9-.29l4.55,1.74,4.55-1.74c.33-.13.7,0,.9.29l2.66,4.08,4.7,1.27c.34.09.57.41.55.76l-.24,4.87,3.06,3.8c.22.27.22.67,0,.94l-3.06,3.8.24,4.87c.02.35-.21.67-.55.76l-4.7,1.27-2.66,4.08c-.14.22-.38.34-.63.34"/>
      <path class="cls-2" d="m42.45,46.3c.09,0,.18.02.27.05l4.26,1.62,2.49-3.81c.1-.15.26-.27.43-.31l4.4-1.19-.22-4.55c-.01-.18.05-.36.16-.51l2.86-3.55-2.86-3.55c-.12-.14-.17-.32-.16-.51l.22-4.55-4.4-1.19c-.18-.05-.33-.16-.43-.31l-2.49-3.82-4.26,1.62c-.17.07-.36.07-.54,0l-4.26-1.62-2.49,3.82c-.1.15-.25.27-.43.31l-4.4,1.19.22,4.55c0,.18-.05.36-.16.51l-2.86,3.55,2.86,3.55c.11.14.17.32.16.51l-.22,4.55,4.4,1.19c.18.05.33.16.43.31l2.49,3.81,4.26-1.62c.09-.03.18-.05.27-.05Zm4.82,3.34c-.09,0-.18-.02-.27-.05l-4.55-1.74-4.55,1.74c-.33.13-.7,0-.9-.29l-2.66-4.08-4.7-1.27c-.34-.09-.57-.41-.55-.76l.24-4.87-3.05-3.8c-.22-.27-.22-.67,0-.94l3.05-3.8-.24-4.87c-.02-.35.21-.67.55-.76l4.7-1.27,2.66-4.08c.19-.29.57-.42.9-.29l4.55,1.74,4.55-1.74c.33-.13.7,0,.9.29l2.66,4.08,4.7,1.27c.34.09.57.41.55.76l-.24,4.87,3.06,3.8c.22.27.22.67,0,.94l-3.06,3.8.24,4.87c.02.35-.21.67-.55.76l-4.7,1.27-2.66,4.08c-.14.22-.38.34-.63.34Z"/>
      <path class="cls-3" d="m42.45,68.4c-.41,0-.75-.34-.75-.75v-10.8c0-.41.34-.75.75-.75s.75.34.75.75v10.8c0,.41-.34.75-.75.75"/>
      <path class="cls-2" d="m42.45,68.4c-.41,0-.75-.34-.75-.75v-10.8c0-.41.34-.75.75-.75s.75.34.75.75v10.8c0,.41-.34.75-.75.75Z"/>
    </g>
  </g>
</svg>