<?xml version="1.0" encoding="UTF-8"?>
<svg id="Layer_2" data-name="Layer 2" xmlns="http://www.w3.org/2000/svg" viewBox="0 0 84.91 84.91">
  <defs>
    <style>
      .cls-1 {
        fill: #fff;
      }

      .cls-2 {
        fill: #2566af;
      }
    </style>
  </defs>
  <g id="Layer_1-2" data-name="Layer 1">
    <g>
      <path class="cls-1" d="m42.45,84.91c23.45,0,42.45-19.01,42.45-42.45S65.9,0,42.45,0,0,19.01,0,42.45s19.01,42.45,42.45,42.45"/>
      <rect class="cls-2" x="38.39" y="54.65" width="2.03" height="2.03"/>
      <path class="cls-2" d="m69.89,62.78h-11.18v2.03h9.14c.56,0,1.02.46,1.02,1.02s-.46,1.02-1.02,1.02h-13.21v2.03h2.42l-.08.16c-.54,1.08-1.61,1.79-2.82,1.87-1.21.08-2.36-.5-3.03-1.5l-1.85-2.78c-.75-1.13-2.02-1.81-3.38-1.81h-1.42v-10.16h3.05c.16,0,.31-.03.45-.1,2.53-1.26,5.32-1.93,8.15-1.93h10.7c.56,0,1.02.46,1.02,1.02s-.45,1.02-1.02,1.02h-8.13v2.03h9.14c.56,0,1.02.46,1.02,1.02s-.46,1.02-1.02,1.02h-7.11v2.03h9.15c.56,0,1.02.46,1.02,1.02s-.46,1.02-1.02,1.02m3.05-1.02c0-1.37-.93-2.57-2.26-2.93.56-1.36.05-2.93-1.2-3.7.26-.45.4-.97.41-1.5,0-1.68-1.36-3.05-3.05-3.05h-10.7c-3.06,0-6.08.7-8.84,2.03h-2.82v-1.02c0-.56-.45-1.02-1.02-1.02h-7.11v2.03h6.1v14.23h-6.1v2.03h7.11c.56,0,1.02-.45,1.02-1.02v-1.02h1.42c.68,0,1.31.34,1.69.9l1.85,2.78c1.07,1.61,2.92,2.52,4.85,2.4,1.93-.12,3.65-1.26,4.51-2.99l.53-1.07h8.52c1.01,0,1.96-.5,2.53-1.34.57-.84.68-1.91.3-2.85,1.33-.36,2.25-1.56,2.26-2.93"/>
      <path class="cls-2" d="m69.4,33.77l-2.78,1.85c-1.13.75-1.81,2.02-1.81,3.38v1.42h-10.16v-3.05c0-.16-.03-.31-.1-.45-1.27-2.53-1.92-5.32-1.93-8.15v-10.7c0-.56.45-1.02,1.02-1.02s1.02.46,1.02,1.02v8.13h2.03v-9.14c0-.56.46-1.02,1.02-1.02s1.02.45,1.02,1.02v7.11h2.03v-9.14c0-.56.46-1.02,1.02-1.02s1.02.46,1.02,1.02v11.18h2.03v-9.14c0-.56.46-1.02,1.02-1.02s1.02.45,1.02,1.02v13.21h2.03v-2.42l.16.08c1.08.54,1.79,1.61,1.87,2.82.08,1.21-.5,2.36-1.5,3.03m.55-7.67l-1.07-.53v-8.52c0-1.01-.5-1.96-1.34-2.53-.84-.57-1.91-.68-2.84-.3-.35-1.33-1.56-2.26-2.93-2.26s-2.58.93-2.93,2.26c-1.36-.55-2.93-.05-3.7,1.2-.45-.26-.97-.4-1.49-.41-1.68,0-3.05,1.36-3.05,3.05v10.7c0,3.06.7,6.08,2.03,8.84v2.82h-1.02c-.56,0-1.02.46-1.02,1.02v7.11h2.03v-6.1h14.22v6.1h2.03v-7.11c0-.56-.45-1.02-1.02-1.02h-1.02v-1.42c0-.68.34-1.31.91-1.69l2.78-1.85c1.61-1.07,2.52-2.92,2.4-4.85-.12-1.93-1.26-3.65-2.99-4.51"/>
      <rect class="cls-2" x="54.65" y="44.49" width="2.03" height="2.03"/>
      <path class="cls-2" d="m15.51,51.14l2.78-1.85c1.13-.75,1.81-2.02,1.81-3.38v-1.42h10.16v3.05c0,.16.04.31.11.45,1.26,2.53,1.92,5.33,1.93,8.15v10.7c0,.56-.46,1.02-1.02,1.02s-1.02-.46-1.02-1.02v-8.13h-2.03v9.15c0,.56-.46,1.02-1.02,1.02s-1.02-.45-1.02-1.02v-7.11h-2.03v9.14c0,.56-.46,1.02-1.02,1.02s-1.02-.46-1.02-1.02v-11.18h-2.03v9.15c0,.56-.46,1.02-1.02,1.02s-1.02-.45-1.02-1.02v-13.21h-2.03v2.42l-.16-.08c-1.08-.54-1.79-1.61-1.87-2.82-.07-1.21.5-2.36,1.5-3.03h0Zm-.54,7.67l1.07.53v8.52c0,1.01.5,1.96,1.34,2.53.84.57,1.91.68,2.84.3.35,1.33,1.55,2.26,2.93,2.26s2.58-.93,2.93-2.26c1.36.56,2.93.05,3.7-1.2.45.26.97.4,1.5.41,1.68,0,3.05-1.36,3.05-3.05v-10.7c0-3.06-.7-6.08-2.03-8.84v-2.82h1.02c.56,0,1.02-.46,1.02-1.02v-7.11h-2.03v6.1h-14.23v-6.1h-2.03v7.11c0,.56.45,1.02,1.02,1.02h1.02v1.42c0,.68-.34,1.31-.91,1.69l-2.78,1.85c-1.61,1.07-2.52,2.92-2.4,4.85.12,1.93,1.26,3.65,2.99,4.51"/>
      <rect class="cls-2" x="28.23" y="38.39" width="2.03" height="2.03"/>
      <rect class="cls-2" x="44.49" y="28.23" width="2.03" height="2.03"/>
      <path class="cls-2" d="m15.02,22.13h11.18v-2.03h-9.15c-.56,0-1.02-.46-1.02-1.02s.46-1.02,1.02-1.02h13.21v-2.03h-2.42l.08-.16c.54-1.08,1.61-1.79,2.82-1.87,1.21-.07,2.36.5,3.03,1.5l1.85,2.78c.75,1.13,2.02,1.81,3.38,1.81h1.42v10.16h-3.05c-.16,0-.31.04-.45.11-2.53,1.26-5.32,1.92-8.15,1.93h-10.7c-.56,0-1.02-.46-1.02-1.02s.46-1.02,1.02-1.02h8.13v-2.03h-9.15c-.56,0-1.02-.46-1.02-1.02s.46-1.02,1.02-1.02h7.11v-2.03h-9.15c-.56,0-1.02-.46-1.02-1.02s.46-1.02,1.02-1.02m-.79,3.95c-.56,1.36-.05,2.93,1.2,3.7-.26.45-.4.97-.41,1.49,0,1.68,1.36,3.05,3.05,3.05h10.7c3.06,0,6.08-.7,8.84-2.03h2.82v1.02c0,.56.45,1.02,1.02,1.02h7.11v-2.03h-6.1v-14.23h6.1v-2.03h-7.11c-.56,0-1.02.46-1.02,1.02v1.02h-1.42c-.68,0-1.31-.34-1.69-.9l-1.85-2.78c-1.07-1.61-2.92-2.52-4.85-2.4-1.93.12-3.65,1.26-4.51,2.99l-.53,1.07h-8.52c-1.01,0-1.96.5-2.53,1.34-.57.84-.68,1.91-.3,2.84-1.33.35-2.26,1.55-2.26,2.93s.93,2.58,2.26,2.93"/>
    </g>
  </g>
</svg>