<?xml version="1.0" encoding="utf-8"?>
<!-- Generator: Adobe Illustrator 27.4.1, SVG Export Plug-In . SVG Version: 6.00 Build 0)  -->
<svg version="1.1" id="Layer_2_00000176022093851894636060000004540055157257841038_"
	 xmlns="http://www.w3.org/2000/svg" xmlns:xlink="http://www.w3.org/1999/xlink" x="0px" y="0px" viewBox="0 0 1920 21"
	 style="enable-background:new 0 0 1920 21;" xml:space="preserve">
<style type="text/css">
	.st0{clip-path:url(#SVGID_00000010999155929192328050000012433608576371091588_);}
	.st1{fill:url(#SVGID_00000058557753309903321120000012733427598955077022_);}
	.st2{fill:#005CA8;}
	.st3{fill:#009EE3;}
	.st4{fill:#006936;}
	.st5{fill:#C7D41F;}
	.st6{fill:#00993D;}
</style>
<g id="Layer_1-2">
	<g>
		<defs>
			<rect id="SVGID_1_" width="1920" height="21"/>
		</defs>
		<clipPath id="SVGID_00000181075909929904341900000005944569643686443955_">
			<use xlink:href="#SVGID_1_"  style="overflow:visible;"/>
		</clipPath>
		<g style="clip-path:url(#SVGID_00000181075909929904341900000005944569643686443955_);">
			
				<linearGradient id="SVGID_00000075136753557780105190000007394980279649245592_" gradientUnits="userSpaceOnUse" x1="1" y1="-1092.7684" x2="2.5" y2="-1092.7684" gradientTransform="matrix(1285.5601 0 0 -1285.5601 -1282.78 -1404808.875)">
				<stop  offset="0" style="stop-color:#00ACEC"/>
				<stop  offset="0.37" style="stop-color:#4087C7"/>
				<stop  offset="0.79" style="stop-color:#2D549D"/>
				<stop  offset="0.99" style="stop-color:#1D386D"/>
				<stop  offset="1" style="stop-color:#1D386D"/>
			</linearGradient>
			<rect style="fill:url(#SVGID_00000075136753557780105190000007394980279649245592_);" width="1920" height="21"/>
			<path class="st2" d="M1640.5,400.5l163.5-42.3c23.5-4.8,37.1-25.4,29.4-48c0,0-67.1-287.7-232.5-550.6
				c-29.9-47.5-116.8-169.6-138.1-189.9c-15.2-14.4-108.4-55.7-123.9-59.7c-9.5-3.4-21.7-5.3-31.8,2.7c-0.5,0.4-1,0.9-1.4,1.4
				c-0.2,0.2-0.4,0.4-0.6,0.6c-0.3,0.3-0.6,0.6-0.8,1c-0.2,0.3-0.4,0.6-0.6,0.9c-0.1,0.2-0.4,0.5-0.6,0.9c-0.3,0.4-0.5,0.8-0.7,1.2
				c-0.1,0.3-0.3,0.5-0.5,0.8c-0.2,0.5-0.5,1-0.7,1.5c-0.1,0.2-0.2,0.5-0.3,0.6c-0.3,0.6-0.6,1.2-0.8,1.7l-0.2,0.5
				c-0.2,0.6-0.5,1.3-0.7,2l-0.2,0.3c-0.3,0.8-0.5,1.6-0.8,2.3l-0.1,0.1c-1.9,6.6-2.6,13.7-1.3,19.4c0,0.1,0,0.2,0,0.4l0.1,0.1
				c0.2,5.2,51.5,85.2,112.8,223.1c107.6,242.2,176.8,597.9,176.8,597.9C1593.2,391.9,1615.7,405.2,1640.5,400.5"/>
			<path class="st3" d="M1132.7,504.7c5.4-0.3,157.8-33.5,157.8-33.5c5-0.5,9.5-1.8,13.7-3.8c16.1-6.8,29.3-22.4,34.1-42.2
				c0,0,68.9-346.9,103.9-575.1c-10.3-27.1-21.1-53.6-32.3-78.8c-61.3-137.9-112.7-217.9-112.8-223.1l-0.1-0.1c-0.1-0.1,0-0.3,0-0.4
				c-1.2-5.3-0.6-11.9,1.1-18.1c-0.8,1-1.6,2.1-2,3.6c-3.5,12.5-97.4,477.1-97.4,477.1l0-0.2l-109.7,433.3
				C1072.8,508.9,1115.5,505.4,1132.7,504.7"/>
			<path class="st4" d="M864.2,419.1c0,0-51.5-65.5-69.5-89.8C636.9,115.9,547-253.1,547-253.1c-9.5-20.4-34.7-31.4-57.3-21.4
				L332-201.8c-23.6,10.6-29.4,34-24.1,51.8C327.8-85.5,511,226.1,671.2,342.4l137.9,74.3l36,19.4
				C863.6,447.2,874.7,436,864.2,419.1"/>
			<path class="st5" d="M672.1-520.9L575.4-56.9c52.8,203.2,114.2,441,130.5,509.7c-0.5-7.8,0.5-17.4,3.4-29.4L819-9.9l0,0.2
				c0,0,0.5-2.7,1.5-7.3L681.4-519.7c-1.7-7.8-5.4-13.6-10.2-17.4C672.8-533.1,673.3-527.8,672.1-520.9"/>
			<path class="st6" d="M782.9,335.5c18,24.3,69.5,89.8,69.5,89.8c2.5,4,3.7,7.6,3.9,10.7c0.1-0.7,0.2-1.2,0.4-2l194.8-934.9
				c3.9-23-9.1-30.9-28.9-17.6l-160.9,92.1c-27,17.8-37.5,27.6-47.4,66L677.4,154C708.1,218.8,743.4,282.1,782.9,335.5"/>
			<path class="st6" d="M639.2,333c2.3,2.2,4.8,4.2,7.4,6C644.1,337,641.7,335,639.2,333"/>
		</g>
	</g>
</g>
</svg>
