<?xml version="1.0" encoding="UTF-8"?>
<svg id="Layer_2" data-name="Layer 2" xmlns="http://www.w3.org/2000/svg" viewBox="0 0 148.92 149.12">
  <g id="Layer_1-2" data-name="Layer 1">
    <path d="m83.68,31.57c0,1.02,0,1.83,0,2.65,0,34.8,0,69.6,0,104.4,0,2.18-.25,4.29-1.46,6.2-2,3.15-6,4.91-9.43,4.12-4.19-.97-6.85-3.83-7.29-7.91-.12-1.11-.18-2.23-.18-3.35,0-33.64,0-67.27,0-100.91v-5.36c-.73.74-1.2,1.23-1.68,1.71-15.72,15.72-31.45,31.43-47.15,47.17-2.39,2.4-5.07,3.76-8.55,3.37-6-.67-9.81-7.56-6.97-12.9.78-1.47,1.94-2.79,3.13-3.98C24.27,46.52,44.48,26.32,64.69,6.11c1.2-1.2,2.37-2.45,3.63-3.58,3.8-3.39,8.81-3.41,12.45.13,5.98,5.81,11.83,11.75,17.72,17.64,14.85,14.83,29.69,29.66,44.53,44.49,1.2,1.2,2.41,2.41,3.52,3.69,4.55,5.25,2.24,13.29-4.31,14.93-3.6.9-6.7-.1-9.31-2.72-4.21-4.23-8.45-8.45-12.67-12.67-12.02-12.03-24.04-24.06-36.05-36.09-.08-.08-.2-.14-.53-.36Z"/>
  </g>
</svg>